<?xml version="1.0" encoding="utf-8"?><svg xmlns="http://www.w3.org/2000/svg" xmlns:xlink="http://www.w3.org/1999/xlink"><symbol viewBox="0 0 30 30" id="alert" xmlns="http://www.w3.org/2000/svg"><g fill-rule="evenodd"><path d="M13.547 11h2.936l-.489 7.214h-1.957L13.547 11zm1.468 11.176c-.431 0-.792-.14-1.08-.418a1.36 1.36 0 0 1-.435-1.018c0-.4.142-.734.426-1.003.284-.268.647-.402 1.09-.402.441 0 .804.134 1.089.402.284.269.426.603.426 1.003 0 .4-.145.739-.434 1.018-.29.279-.65.418-1.082.418z"/><path d="M16.804 5.773l7.827 16.364A2 2 0 0 1 22.827 25H7.173a2 2 0 0 1-1.804-2.863l7.827-16.364a2 2 0 0 1 3.608 0z"/></g></symbol><symbol viewBox="0 0 30 30" id="arrow-d" xmlns="http://www.w3.org/2000/svg"><path d="M10 13l5 5 5-5" fill-rule="evenodd"/></symbol><symbol viewBox="0 0 30 30" id="arrow-down" xmlns="http://www.w3.org/2000/svg"><path d="M10 13l5 5 5-5" fill-rule="evenodd"/></symbol><symbol viewBox="0 0 30 30" id="arrow-left" xmlns="http://www.w3.org/2000/svg"><path d="M17.49 10.49l-5 5 5 5" fill-rule="evenodd"/></symbol><symbol viewBox="0 0 30 30" id="arrow-right" xmlns="http://www.w3.org/2000/svg"><path d="M12.5 10.49l5 5-5 5" fill-rule="evenodd"/></symbol><symbol viewBox="0 0 30 30" id="arrow-up" xmlns="http://www.w3.org/2000/svg"><path d="M10 17.99l5-5 5 5" fill-rule="evenodd"/></symbol><symbol viewBox="0 0 30 30" id="asc" xmlns="http://www.w3.org/2000/svg"><path d="M24 8v2H6V8h18zm-4.91 6v2H6v-2h13.09zM15 20v2H6v-2h9z" fill-rule="evenodd"/></symbol><symbol viewBox="0 0 48 48" id="camera" xmlns="http://www.w3.org/2000/svg"><path d="M45.654 9.474h-.141V9.09c0-1.28-1.053-2.323-2.346-2.323h-5.222c-1.293 0-2.346 1.042-2.346 2.323v.385h-.556l-1.97-3.634a.903.903 0 0 0-.795-.47H15.722a.904.904 0 0 0-.795.47l-1.97 3.634h-.556V9.09c0-1.28-1.053-2.323-2.346-2.323H4.833c-1.293 0-2.346 1.042-2.346 2.323v.385h-.141C1.052 9.474 0 10.516 0 11.797v26.181c0 1.281 1.052 2.324 2.346 2.324h43.308c1.294 0 2.346-1.043 2.346-2.324v-26.18c0-1.282-1.052-2.324-2.346-2.324zm-8.25-.385a.54.54 0 0 1 .541-.536h5.222a.54.54 0 0 1 .541.536v.385h-6.304V9.09zM16.262 7.156h15.476l1.256 2.318H15.005l1.257-2.318zM4.292 9.09a.54.54 0 0 1 .541-.536h5.222a.54.54 0 0 1 .541.536v.385H4.292V9.09zm41.904 28.89a.54.54 0 0 1-.542.536H2.346a.54.54 0 0 1-.541-.537v-26.18a.54.54 0 0 1 .54-.537h43.31a.54.54 0 0 1 .541.537v26.18z"/><path d="M24 12.603c-6.816 0-12.361 5.491-12.361 12.241s5.545 12.242 12.36 12.242c6.816 0 12.362-5.492 12.362-12.242 0-6.75-5.546-12.241-12.361-12.241zm0 22.696c-5.821 0-10.557-4.69-10.557-10.455C13.443 19.08 18.18 14.39 24 14.39s10.556 4.69 10.556 10.454C34.556 30.61 29.82 35.3 24 35.3z"/><path d="M23.958 16.318c-4.756 0-8.626 3.833-8.626 8.543 0 4.71 3.87 8.543 8.626 8.543 4.756 0 8.626-3.833 8.626-8.543 0-4.71-3.87-8.543-8.626-8.543zm0 15.299c-3.761 0-6.821-3.031-6.821-6.756s3.06-6.756 6.82-6.756c3.762 0 6.822 3.031 6.822 6.756s-3.06 6.756-6.821 6.756zm17.371-18.19H36.5c-.498 0-.902.4-.902.894 0 .493.404.893.902.893h4.828c.498 0 .902-.4.902-.893a.898.898 0 0 0-.902-.894z"/></symbol><symbol viewBox="0 0 30 30" id="card" xmlns="http://www.w3.org/2000/svg"><path d="M4.808 27.165h20.384c2.692 0 4.808-2.2 4.808-5v-16c0-2.8-2.116-5-4.808-5H4.808c-2.693 0-4.808 2.2-4.808 5v16c0 2.8 2.115 5 4.808 5zm20.384-2H4.808c-1.635 0-2.885-1.3-2.885-3v-11h26.154v11c0 1.7-1.25 3-2.885 3zm-20.384-22h20.384c1.635 0 2.885 1.3 2.885 3v1H1.923v-1c0-1.7 1.25-3 2.885-3zm.192 11h17v2H5v-2zm10 5H5v2h10v-2z" fill-rule="evenodd"/></symbol><symbol viewBox="0 0 30 30" id="cart" xmlns="http://www.w3.org/2000/svg"><path d="M21.278 3.38c-.31-.406-.916-.502-1.353-.214a.034.034 0 0 0-.006.004c-.423.298-.523.852-.226 1.263l4.301 5.502H6.434l4.3-5.502c.313-.407.212-.973-.226-1.263-.437-.29-1.046-.196-1.358.21L4.04 9.935H1v1.804h1.779l2.07 11.523c.285 1.585 1.764 2.744 3.492 2.736h13.325c1.728.008 3.207-1.151 3.493-2.736l2.07-11.523h1.778V9.935h-2.62l-5.11-6.555zm1.973 19.582c-.128.718-.465 1.047-1.248 1.037h-14c-.784.01-1.118-.319-1.246-1.037L4.752 11.739h20.504L23.25 22.962z" fill-rule="evenodd"/></symbol><symbol viewBox="0 0 30 30" id="cart-add" xmlns="http://www.w3.org/2000/svg"><g fill-rule="evenodd"><path d="M21.278 3.38c-.31-.406-.916-.502-1.353-.214a.034.034 0 0 0-.006.004c-.423.298-.523.852-.226 1.263l4.301 5.502H6.434l4.3-5.502c.313-.407.212-.973-.226-1.263-.437-.29-1.046-.196-1.358.21L4.04 9.935H1v1.804h1.779l2.07 11.523c.285 1.585 1.764 2.744 3.492 2.736h13.325c1.728.008 3.207-1.151 3.493-2.736l2.07-11.523h1.778V9.935h-2.62l-5.11-6.555zm1.973 19.582c-.128.718-.465 1.047-1.248 1.037h-14c-.784.01-1.118-.319-1.246-1.037L4.752 11.739h20.504L23.25 22.962z"/><path d="M16 17h2a1 1 0 0 1 0 2h-2v2a1 1 0 0 1-2 0v-2h-2a1 1 0 0 1 0-2h2v-2a1 1 0 0 1 2 0v2z"/></g></symbol><symbol viewBox="0 0 30 30" id="cart-ok" xmlns="http://www.w3.org/2000/svg"><path d="M21.278 3.38l5.11 6.555h2.62v1.804h-1.78l-2.07 11.523c-.285 1.585-1.764 2.744-3.492 2.736H8.34c-1.728.008-3.207-1.151-3.492-2.736l-2.07-11.523H1V9.935h3.04L9.15 3.38c.312-.406.92-.5 1.358-.21.438.29.54.856.227 1.263L6.433 9.935h17.561l-4.3-5.502c-.297-.41-.198-.965.226-1.263a.034.034 0 0 1 .005-.004c.437-.288 1.043-.192 1.353.214zM15.414 20l3.414-3.414a1 1 0 0 0-1.414-1.414L14 18.586l-1.414-1.414a1 1 0 0 0-1.414 1.414L12.586 20l.707.707a1 1 0 0 0 1.414 0l.707-.707z" fill-rule="evenodd"/></symbol><symbol viewBox="0 0 30 30" id="click" xmlns="http://www.w3.org/2000/svg"><g stroke-width="2" fill-rule="evenodd"><path d="M14 4.602v16.646c0 .91.383 1.142 1.172.722l5.358-2.85.107-.048 5.67-2.21c.857-.335.95-.829.279-1.445L14.527 4.351C13.958 3.828 14 3.81 14 4.6zM24.871 27.27L21 19M3 7h5.5M4 12.25h4.5m-2.5 5h2.5"/></g></symbol><symbol viewBox="0 0 20 20" id="close" xmlns="http://www.w3.org/2000/svg"><path d="M10.655 10.148l3.555 3.556a.358.358 0 1 1-.506.506l-3.556-3.555-3.555 3.555a.358.358 0 1 1-.507-.506l3.556-3.556-3.556-3.555a.358.358 0 1 1 .507-.507l3.555 3.556 3.556-3.556a.358.358 0 1 1 .506.507l-3.555 3.555z" fill-rule="evenodd"/></symbol><symbol viewBox="0 0 30 30" id="courer" xmlns="http://www.w3.org/2000/svg"><path d="M6 9.179c0 2.1 1.56 3.844 3.547 4.062l1.907 5.793-.842 2.655-3.174 3.626a1.007 1.007 0 0 0 .05 1.43c.198.153.396.255.644.255a.946.946 0 0 0 .744-.358l3.322-3.778a.832.832 0 0 0 .199-.358l.61-1.95 2.315 1.542.546 4.034c.05.51.446.868.942.868h.099c.545-.051.893-.562.843-1.123l-.595-4.494c-.05-.306-.198-.562-.447-.715l-3.445-2.318-.754-2.311 3.06 1.31c.03.01.059.02.086.031a.832.832 0 0 0 .31.071h7.835c.545 0 .942-.46.991-1.021 0-.562-.446-1.021-.991-1.021h-7.637l-4.491-1.936-.171-.523c1.425-.61 2.43-2.046 2.43-3.771 0-2.247-1.784-4.085-3.966-4.085C7.785 5.094 6 6.932 6 9.179zm1.983 0c0-1.124.893-2.043 1.984-2.043 1.14 0 2.033.97 1.983 2.043 0 1.123-.892 2.042-1.983 2.042-1.091 0-1.984-.919-1.984-2.042zm16.067 3.83h-7.934c-.546 0-.992-.46-.992-1.022V4.021c0-.562.446-1.021.992-1.021H24c.545 0 .992.46.992 1.021v8.017c0 .51-.447.97-.942.97zm-6.943-1.992h5.95V4.99h-5.95v6.026z" fill-rule="evenodd"/></symbol><symbol viewBox="0 0 30 30" id="delivery" xmlns="http://www.w3.org/2000/svg"><path d="M4.4 13.999H9c.6 0 1 .4 1 1s-.4 1-1 1H4.4c-.6 0-1-.4-1-1s.4-1 1-1zm1.4 4.999c0 .6.4 1 1 1h1.6c.6 0 1-.4 1-1s-.4-1-1-1H6.8c-.6 0-1 .4-1 1zM2 10.999c0 .6.4 1 1 1h6.6c.6 0 1-.4 1-1s-.4-1-1-1H3c-.6 0-1 .4-1 1zm21.4 11.998H12.6c-.8 0-1.4-.4-1.8-.8-.4-.6-.6-1.2-.6-2L12 9.4c.2-1.2 1.4-2.4 2.8-2.4h10.8c.8 0 1.4.4 1.8.8.4.6.6 1.2.6 2l-1.8 10.798c-.2 1.4-1.4 2.4-2.8 2.4zM14.8 9c-.4 0-.8.4-.8.8l-1.8 10.799v.4h11.2c.4 0 .8-.4 1-.8L26.2 9.4V9H14.8z" fill-rule="evenodd"/></symbol><symbol viewBox="0 0 30 30" id="desc" xmlns="http://www.w3.org/2000/svg"><path d="M24 22H6v-2h18v2zm-4.91-6H6v-2h13.09v2zM15 10H6V8h9v2z" fill-rule="evenodd"/></symbol><symbol viewBox="0 0 30 30" id="download" xmlns="http://www.w3.org/2000/svg"><path d="M10 13l5 5 5-5m-5-9v13.5M4 18v6h22v-6" stroke-width="2" fill-rule="evenodd" stroke-linecap="round" stroke-linejoin="round"/></symbol><symbol viewBox="0 0 48 48" id="drone" xmlns="http://www.w3.org/2000/svg"><path d="M14.683.011a1.002 1.002 0 0 0-.59.324L9.221 5.53a2.805 2.805 0 0 0-.543-.051c-1.681 0-3.066 1.477-3.066 3.27 0 .502.11.97.304 1.397l-4.6 4.905c-.098.1-.177.22-.231.353a1.153 1.153 0 0 0 .21 1.204c.095.103.209.185.334.24a.966.966 0 0 0 .792-.003c.125-.057.238-.14.333-.244l4.599-4.905a2.849 2.849 0 0 0 2.283.153l2.603 2.777-.255.272c-.995 1.061-1.024 2.842 0 3.9l1.692 1.755c-.295 1.151-.399 2.368-.399 3.458 0 1.095.1 2.302.4 3.458l-1.693 1.754c-1.024 1.059-.995 2.823 0 3.884l.255.272-2.619 2.794a2.855 2.855 0 0 0-.942-.17c-.47 0-.91.117-1.31.323l-4.614-4.923a1.017 1.017 0 0 0-.38-.262.962.962 0 0 0-.45-.061.99.99 0 0 0-.534.229c-.154.129-.27.302-.334.5a1.16 1.16 0 0 0-.027.613c.046.203.146.387.288.531l4.599 4.906a3.38 3.38 0 0 0-.304 1.414c0 1.793 1.385 3.27 3.066 3.27.192 0 .376-.014.559-.051l4.854 5.178c.095.104.208.186.333.243a.968.968 0 0 0 .792.004 1.042 1.042 0 0 0 .556-.6 1.154 1.154 0 0 0-.012-.845 1.094 1.094 0 0 0-.231-.352l-4.488-4.77a3.392 3.392 0 0 0 .208-3.832l2.46-2.623c1.003.81 2.46.753 3.368-.256l.99-1.09c1.638.965 3.575 1.363 5.43 1.363 1.854 0 3.792-.398 5.429-1.363l.99 1.09c.908 1.009 2.365 1.066 3.37.256l2.458 2.623a3.38 3.38 0 0 0-.495 1.755c0 .78.269 1.496.703 2.06l-4.487 4.787a1.1 1.1 0 0 0-.232.352 1.153 1.153 0 0 0 .21 1.204c.095.103.21.185.335.24a.967.967 0 0 0 .791-.003c.125-.057.238-.14.333-.243l4.854-5.178c.183.037.367.051.56.051 1.68 0 3.065-1.477 3.065-3.27a3.38 3.38 0 0 0-.303-1.414l4.599-4.906c.158-.158.265-.367.305-.595.04-.228.01-.464-.084-.672a1.062 1.062 0 0 0-.441-.49.967.967 0 0 0-.627-.116 1.002 1.002 0 0 0-.59.323l-4.615 4.923a2.84 2.84 0 0 0-1.31-.324c-.328 0-.644.067-.942.17l-2.619-2.793.256-.272c.995-1.061 1.023-2.825 0-3.884l-1.693-1.754c.299-1.156.4-2.363.4-3.458 0-1.09-.105-2.307-.4-3.458l1.693-1.754c1.023-1.059.995-2.84 0-3.9l-.256-.273 2.603-2.777a2.848 2.848 0 0 0 2.283-.153l4.6 4.906c.094.103.207.186.333.243a.968.968 0 0 0 .791.003 1.02 1.02 0 0 0 .335-.24 1.1 1.1 0 0 0 .222-.36 1.155 1.155 0 0 0-.012-.844 1.095 1.095 0 0 0-.232-.353l-4.6-4.905c.194-.427.304-.895.304-1.397 0-1.793-1.385-3.27-3.066-3.27a2.8 2.8 0 0 0-.543.051L32.903.335a1.018 1.018 0 0 0-.38-.263.963.963 0 0 0-.984.168c-.154.13-.27.303-.333.5a1.16 1.16 0 0 0-.028.613c.047.203.146.388.288.532l4.487 4.786a3.391 3.391 0 0 0-.703 2.078c0 .643.174 1.247.48 1.755l-2.444 2.606a2.481 2.481 0 0 0-1.549-.562 2.426 2.426 0 0 0-1.82.817l-.99 1.107c-1.638-.966-3.573-1.362-5.43-1.362-1.855 0-3.79.396-5.428 1.362l-.99-1.107a2.433 2.433 0 0 0-1.82-.8c-.537 0-1.087.176-1.55.545l-2.443-2.606c.306-.508.48-1.112.48-1.755 0-.784-.265-1.512-.704-2.078l4.488-4.786c.158-.159.265-.367.305-.595.04-.228.01-.464-.084-.673a1.062 1.062 0 0 0-.441-.49.967.967 0 0 0-.627-.116zM8.68 7.66c.577 0 1.022.475 1.022 1.09 0 .615-.445 1.09-1.022 1.09-.576 0-1.022-.475-1.022-1.09 0-.615.446-1.09 1.022-1.09zm29.637 0c.577 0 1.022.475 1.022 1.09 0 .615-.445 1.09-1.022 1.09-.576 0-1.022-.475-1.022-1.09 0-.615.446-1.09 1.022-1.09zm-6.579 7.069a.544.544 0 0 1 .384.17l1.453 1.55a.57.57 0 0 1 0 .784l-2.108 2.18c-.144.15-.243.34-.286.55-.042.208-.026.426.046.625.325.875.448 2.21.448 3.424 0 1.213-.123 2.531-.448 3.407a1.159 1.159 0 0 0-.05.635c.042.212.143.406.29.557l2.108 2.18a.548.548 0 0 1 0 .767l-1.453 1.55c-.214.227-.543.23-.735.016l-1.533-1.703a.976.976 0 0 0-1.325-.12c-1.252.962-3.179 1.432-5.03 1.432-1.852 0-3.778-.47-5.03-1.431a.976.976 0 0 0-1.326.12l-1.533 1.702c-.191.214-.52.21-.734-.016l-1.453-1.55a.548.548 0 0 1 0-.767l2.108-2.18a1.11 1.11 0 0 0 .29-.557 1.158 1.158 0 0 0-.051-.635c-.324-.876-.447-2.194-.447-3.407 0-1.214.123-2.549.447-3.424.073-.2.089-.417.046-.626a1.112 1.112 0 0 0-.285-.549l-2.108-2.18a.57.57 0 0 1 0-.784l1.453-1.55a.53.53 0 0 1 .383-.153c.154 0 .265.04.351.136l1.533 1.703a.974.974 0 0 0 1.325.136c1.253-.96 3.18-1.43 5.03-1.43 1.852 0 3.779.47 5.03 1.43a.974.974 0 0 0 1.326-.136l1.533-1.703a.451.451 0 0 1 .351-.153zm-8.24 3.832c-2.81 0-5.11 2.453-5.11 5.45 0 2.998 2.3 5.451 5.11 5.451 2.81 0 5.11-2.453 5.11-5.45 0-2.998-2.3-5.45-5.11-5.45zm0 2.18c1.706 0 3.067 1.452 3.067 3.27 0 1.82-1.36 3.271-3.066 3.271-1.706 0-3.066-1.451-3.066-3.27 0-1.82 1.36-3.27 3.066-3.27zM8.68 38.182c.577 0 1.022.476 1.022 1.09 0 .616-.445 1.09-1.022 1.09-.576 0-1.022-.474-1.022-1.09 0-.614.446-1.09 1.022-1.09zm29.637 0c.577 0 1.022.476 1.022 1.09 0 .616-.445 1.09-1.022 1.09-.576 0-1.022-.474-1.022-1.09 0-.614.446-1.09 1.022-1.09z"/></symbol><symbol viewBox="0 0 30 30" id="fb" xmlns="http://www.w3.org/2000/svg"><path d="M13.25 12H11v3h2.25v9H17v-9h2.732L20 12h-3v-1.25c0-.716.144-1 .836-1H20V6h-2.856c-2.697 0-3.894 1.187-3.894 3.461z"/></symbol><symbol viewBox="0 0 30 30" id="file" xmlns="http://www.w3.org/2000/svg"><g stroke-width="2" fill-rule="evenodd"><path d="M7.861 4.755a1 1 0 0 0-1 1V24a1 1 0 0 0 1 1H23a1 1 0 0 0 1-1V9.36a1 1 0 0 0-.312-.726L19.89 5.029a1 1 0 0 0-.688-.274H7.862zM11 16h9m-9-3.75h5M11 20h9"/></g></symbol><symbol viewBox="0 0 30 30" id="google" xmlns="http://www.w3.org/2000/svg"><path d="M23.814 13.454c.114.614.177 1.256.177 1.927 0 5.241-3.509 8.969-8.807 8.969a9.172 9.172 0 0 1-9.175-9.175A9.172 9.172 0 0 1 15.184 6c2.477 0 4.547.912 6.135 2.391l-2.586 2.586v-.006c-.963-.917-2.185-1.387-3.55-1.387-3.027 0-5.487 2.557-5.487 5.585 0 3.027 2.46 5.591 5.488 5.591 2.746 0 4.616-1.571 5-3.727h-5v-3.579z"/></symbol><symbol viewBox="0 0 30 30" id="hamburger" xmlns="http://www.w3.org/2000/svg"><rect rx="1" height="2" width="20" y="8" x="5" fill-rule="evenodd"/><rect rx="1" height="2" width="20" y="14" x="5" fill-rule="evenodd"/><rect rx="1" height="2" width="20" y="20" x="5" fill-rule="evenodd"/></symbol><symbol viewBox="0 0 30 30" id="heart" xmlns="http://www.w3.org/2000/svg"><path d="M18.762 7.96c1.115 0 2.123.414 2.903 1.185a4.074 4.074 0 0 1-.025 5.772l-6.72 6.645-6.72-6.645a4.046 4.046 0 0 1 0-5.761 4.118 4.118 0 0 1 2.913-1.195c.962 0 1.855.305 2.58.883a1.996 1.996 0 0 0 2.49 0 4.088 4.088 0 0 1 2.579-.883zm0-1.96a6.085 6.085 0 0 0-3.824 1.318A6.086 6.086 0 0 0 11.113 6a6.117 6.117 0 0 0-4.316 1.77 5.982 5.982 0 0 0 0 8.533l7.614 7.528c.176.14.351.208.527.208.175 0 .35-.069.49-.208l7.615-7.528a6.013 6.013 0 0 0 .035-8.534A6.056 6.056 0 0 0 18.762 6z" fill-rule="evenodd"/></symbol><symbol viewBox="0 0 32 32" id="heart-ok" xmlns="http://www.w3.org/2000/svg"><path d="M20.013 6.4c-1.497 0-2.919.481-4.079 1.406-1.16-.925-2.582-1.406-4.08-1.406A6.526 6.526 0 0 0 7.25 8.287a6.381 6.381 0 0 0 0 9.103l8.121 8.03c.187.148.374.222.562.222s.374-.074.524-.222l8.121-8.03a6.414 6.414 0 0 0 .037-9.103A6.459 6.459 0 0 0 20.012 6.4z"/><path d="M16.442 17.067l-.754.754a1.065 1.065 0 0 1-1.508 0l-2.263-2.263a1.065 1.065 0 1 1 1.508-1.508l1.508 1.508 3.642-3.642a1.066 1.066 0 0 1 1.509 0 1.065 1.065 0 0 1 0 1.508l-3.642 3.642z"/></symbol><symbol viewBox="0 0 48 48" id="lighting" xmlns="http://www.w3.org/2000/svg"><path d="M47.555 10.408a14.5 14.5 0 0 0-3.81-6.224c-4.15-4.193-9.42-5.417-12.004-2.838l-12.918 13.02a5.698 5.698 0 0 0-1.044 5.756 14.526 14.526 0 0 0 3.81 6.224 12.693 12.693 0 0 0 8.403 4.115 4.942 4.942 0 0 0 3.602-1.354L46.51 16.084a5.697 5.697 0 0 0 1.044-5.677zm-24.06 13.959a12.08 12.08 0 0 1-3.21-5.052 3.327 3.327 0 0 1 .39-3.23 2.43 2.43 0 0 1 1.75-.599c.499-.022.999.022 1.487.13a12.084 12.084 0 0 1 5.063 3.23c3.262 3.255 4.07 6.98 2.766 8.281-1.305 1.302-5.037.495-8.247-2.76zm21.216-10.13l-9.917 9.843a13.638 13.638 0 0 0-3.967-7.083 14.568 14.568 0 0 0-6.237-3.802 8.512 8.512 0 0 0-.86-.183l9.864-9.843c1.304-1.277 5.036-.573 8.168 2.786a12.028 12.028 0 0 1 3.131 5.052 3.328 3.328 0 0 1-.235 3.23h.053zm-12.057 19.14h-2.61v5.209h2.61zM6.557 15.148h-5.22v2.604h5.22zm7.829 0H9.167v2.604h5.22zM10.182 35.76l-3.688 3.686 1.843 1.844 3.688-3.686zm-5.543 5.518L.953 44.966l1.844 1.842 3.686-3.688zm11.054-11.02l-3.687 3.687 1.843 1.843 3.687-3.687zM5.08 25.174L0 26.368l.597 2.536 5.08-1.195zm7.645-1.75l-5.082 1.189.594 2.536 5.081-1.19zm8.437 18.839l-.926 5.179 2.568.459.926-5.179zm1.341-7.583l-.932 5.125 2.567.468.932-5.125zm10.151 6.51h-2.61v5.208h2.61z"/></symbol><symbol viewBox="0 0 30 30" id="list" xmlns="http://www.w3.org/2000/svg"><path d="M6 8H5a1 1 0 1 0 0 2h1a1 1 0 1 0 0-2zm9 0h-5a1 1 0 1 0 0 2h5a1 1 0 0 0 0-2zm8 3h2a1 1 0 0 1 0 2h-2v2a1 1 0 0 1-2 0v-2h-2a1 1 0 0 1 0-2h2V9a1 1 0 0 1 2 0v2zM5 14h1a1 1 0 0 1 0 2H5a1 1 0 0 1 0-2zm10 0h-5a1 1 0 0 0 0 2h5a1 1 0 0 0 0-2zM5 20h1a1 1 0 0 1 0 2H5a1 1 0 0 1 0-2zm10 0h-5a1 1 0 0 0 0 2h5a1 1 0 0 0 0-2z" fill-rule="evenodd"/></symbol><symbol viewBox="0 0 30 30" id="loc" xmlns="http://www.w3.org/2000/svg"><path d="M14.5 22C10.833 19.358 9 16.31 9 12.853 9 9.621 11.462 7 14.5 7S20 9.62 20 12.853c0 3.456-1.833 6.505-5.5 9.147zm0-7a2.5 2.5 0 1 0 0-5 2.5 2.5 0 0 0 0 5z" fill-rule="evenodd"/></symbol><symbol viewBox="0 0 30 30" id="location" xmlns="http://www.w3.org/2000/svg"><path d="M14.486 27.85a.98.98 0 0 0 1.018 0c.416-.292 9.486-6.936 9.486-15.035C24.99 6.85 20.5 2 14.995 2 9.489 2 5 6.85 5 12.815c0 8.1 9.07 14.743 9.486 15.034zm.509-23.91c4.488 0 8.144 3.977 8.144 8.875 0 6.014-6.247 11.494-8.144 12.998-1.897-1.504-8.144-6.984-8.144-12.998 0-4.898 3.656-8.875 8.144-8.875zm0 13.192c2.555 0 4.627-2.172 4.627-4.85 0-2.679-2.072-4.85-4.627-4.85-2.556 0-4.627 2.171-4.627 4.85 0 2.678 2.071 4.85 4.627 4.85zm0-7.76c1.533 0 2.776 1.303 2.776 2.91 0 1.607-1.243 2.91-2.776 2.91-1.534 0-2.776-1.303-2.776-2.91 0-1.607 1.242-2.91 2.776-2.91z" fill-rule="evenodd"/></symbol><symbol viewBox="0 0 149 23" id="logo" xmlns="http://www.w3.org/2000/svg"><g fill-rule="evenodd"><path d="M9.206 20.707c0 .411-.027.73-.08.951-.053.22-.125.375-.212.465a1.165 1.165 0 0 1-.387.24c-.17.07-.37.13-.598.182a7.56 7.56 0 0 1-1.554.163c-.73 0-1.361-.089-1.896-.267a3.165 3.165 0 0 1-1.328-.825 3.392 3.392 0 0 1-.772-1.402c-.166-.564-.248-1.231-.248-2.001v-6.44H.569c-.185 0-.327-.111-.424-.333C.048 11.22 0 10.85 0 10.334c0-.273.012-.503.036-.69.025-.188.06-.337.11-.445a.515.515 0 0 1 .182-.232.459.459 0 0 1 .255-.07h1.548V6.092c0-.094.026-.18.08-.254a.608.608 0 0 1 .291-.19c.14-.051.33-.09.57-.113a9.02 9.02 0 0 1 .883-.035c.36 0 .658.012.896.036.24.023.426.06.562.112a.655.655 0 0 1 .291.19.403.403 0 0 1 .088.254v2.805h2.83a.47.47 0 0 1 .256.07.52.52 0 0 1 .182.232c.05.11.086.257.11.445.024.187.036.417.036.69 0 .517-.048.886-.145 1.106-.097.222-.239.332-.424.332H5.792v5.905c0 .686.113 1.2.336 1.543.224.343.622.515 1.197.515.194 0 .37-.016.525-.049.155-.033.293-.071.415-.114.122-.04.224-.08.307-.112a.633.633 0 0 1 .226-.049c.058 0 .114.016.167.049.055.032.096.1.125.197.029.098.056.233.08.402.024.17.036.385.036.648zM23.996 9.55c0 .13-.013.26-.036.387a5.41 5.41 0 0 1-.154.627l-3.91 11.374a1.09 1.09 0 0 1-.196.387c-.084.1-.22.177-.41.233-.19.057-.447.094-.773.112-.325.02-.75.028-1.276.028-.516 0-.937-.012-1.262-.034a3.559 3.559 0 0 1-.766-.12.83.83 0 0 1-.402-.232 1.103 1.103 0 0 1-.196-.374l-3.91-11.374a6.803 6.803 0 0 1-.14-.507 2.578 2.578 0 0 1-.058-.325 2.559 2.559 0 0 1-.007-.182c0-.094.027-.176.08-.247a.588.588 0 0 1 .284-.176c.137-.047.325-.08.562-.1.239-.017.538-.027.898-.027.399 0 .72.012.963.036.243.023.435.056.576.097a.552.552 0 0 1 .299.184c.062.089.111.186.145.29l2.962 9.23.089.352.087-.351 2.917-9.232a.773.773 0 0 1 .14-.29.592.592 0 0 1 .298-.182c.137-.042.319-.075.548-.099A8.98 8.98 0 0 1 22.245 9c.36 0 .653.01.883.028.228.02.406.052.533.1a.536.536 0 0 1 .261.175.43.43 0 0 1 .073.247h.001zm13.1 12.603a.4.4 0 0 1-.081.249.568.568 0 0 1-.291.168c-.189.05-.382.083-.577.098-.243.023-.56.035-.948.035-.4 0-.723-.008-.971-.028a3.596 3.596 0 0 1-.613-.09.945.945 0 0 1-.371-.177 1.079 1.079 0 0 1-.234-.297l-4.334-6.624v6.652a.375.375 0 0 1-.087.247.641.641 0 0 1-.299.175 2.694 2.694 0 0 1-.561.107 9.45 9.45 0 0 1-.89.035c-.36 0-.657-.012-.89-.035a2.58 2.58 0 0 1-.563-.107.643.643 0 0 1-.299-.175.375.375 0 0 1-.087-.247V3.606a.41.41 0 0 1 .087-.254.662.662 0 0 1 .3-.19 2.59 2.59 0 0 1 .562-.12c.296-.031.593-.045.89-.042.36 0 .656.015.89.043.233.028.42.068.561.12.116.034.219.1.3.19a.405.405 0 0 1 .086.254v11.035l3.852-5.003a1.54 1.54 0 0 1 .263-.297 1.03 1.03 0 0 1 .387-.197c.16-.046.36-.082.598-.105.238-.024.543-.037.912-.037.36 0 .664.013.911.037.249.024.448.06.598.105.12.028.229.09.315.177.058.07.087.157.087.26 0 .142-.036.292-.109.452a2.37 2.37 0 0 1-.329.507l-3.808 4.171 4.406 6.582c.116.188.202.351.256.487.05.118.077.244.08.372zm5.872-16.9c0 .714-.15 1.208-.452 1.48-.303.272-.86.41-1.678.41-.828 0-1.383-.134-1.67-.395-.287-.264-.431-.739-.431-1.424 0-.714.148-1.21.445-1.487.297-.278.859-.416 1.685-.416.817 0 1.372.133 1.664.402.29.266.437.744.437 1.43zm-.292 16.781a.374.374 0 0 1-.087.247.635.635 0 0 1-.299.177c-.183.055-.371.09-.561.105a9.45 9.45 0 0 1-.89.035 9.45 9.45 0 0 1-.89-.035 2.68 2.68 0 0 1-.563-.105.64.64 0 0 1-.299-.177.375.375 0 0 1-.087-.247V9.491a.375.375 0 0 1 .087-.246.695.695 0 0 1 .3-.183 2.6 2.6 0 0 1 .562-.12c.233-.029.53-.042.89-.042s.656.013.89.042c.233.028.42.068.561.12a.687.687 0 0 1 .3.182.376.376 0 0 1 .086.247v12.543zm14.756.041a.374.374 0 0 1-.088.247.637.637 0 0 1-.292.176 2.556 2.556 0 0 1-.562.106 9.418 9.418 0 0 1-.883.035c-.36 0-.659-.012-.896-.036a2.559 2.559 0 0 1-.563-.105.635.635 0 0 1-.292-.176.374.374 0 0 1-.087-.247v-7.173c0-.61-.047-1.09-.14-1.437a2.789 2.789 0 0 0-.4-.896 1.77 1.77 0 0 0-.678-.578 2.171 2.171 0 0 0-.97-.205c-.468 0-.94.165-1.417.494-.476.329-.972.808-1.488 1.438v8.356a.376.376 0 0 1-.087.248.641.641 0 0 1-.299.176 2.679 2.679 0 0 1-.561.106 9.476 9.476 0 0 1-.891.034c-.36 0-.656-.012-.89-.034a2.631 2.631 0 0 1-.562-.106.64.64 0 0 1-.299-.176.376.376 0 0 1-.087-.248V9.503c0-.094.024-.176.073-.246a.539.539 0 0 1 .262-.177 2.2 2.2 0 0 1 .49-.105c.2-.024.449-.037.75-.037.312 0 .569.013.775.037.203.024.36.06.473.105.096.035.18.096.24.177.05.07.074.152.074.246v1.452c.72-.752 1.452-1.316 2.195-1.69A5.099 5.099 0 0 1 52.66 8.7c.884 0 1.632.14 2.24.424a3.9 3.9 0 0 1 1.473 1.147c.375.484.644 1.05.81 1.699.164.648.248 1.428.248 2.34v7.765h.001zm14.831-6.44c0 1.072-.145 2.05-.437 2.934A6.142 6.142 0 0 1 70.5 20.85c-.594.64-1.338 1.133-2.233 1.48-.895.348-1.94.521-3.136.521-1.157 0-2.165-.153-3.022-.464-.855-.31-1.565-.76-2.129-1.353-.564-.593-.983-1.32-1.254-2.185-.274-.865-.41-1.85-.41-2.96 0-1.07.148-2.05.446-2.937a6.13 6.13 0 0 1 1.335-2.285c.594-.633 1.336-1.125 2.225-1.472.89-.347 1.934-.521 3.13-.521 1.167 0 2.179.152 3.034.457.856.307 1.563.754 2.124 1.346.559.592.974 1.321 1.247 2.185.272.865.407 1.856.407 2.973zm-3.778.142c0-.62-.052-1.19-.153-1.713a3.966 3.966 0 0 0-.518-1.36 2.558 2.558 0 0 0-.97-.901c-.404-.217-.913-.325-1.525-.325-.545 0-1.02.097-1.43.289-.41.193-.744.474-1.007.847-.278.406-.478.86-.59 1.338a7.333 7.333 0 0 0-.197 1.781c0 .621.052 1.193.16 1.713.108.52.278.976.518 1.361.238.385.562.684.97.895.409.211.915.317 1.518.317.554 0 1.036-.097 1.444-.29.409-.19.744-.47 1.007-.837.263-.367.456-.811.583-1.332a7.62 7.62 0 0 0 .19-1.783zm13.718-5.13c0 .339-.01.616-.03.831a2.51 2.51 0 0 1-.087.509.497.497 0 0 1-.153.253.394.394 0 0 1-.242.07.833.833 0 0 1-.261-.048 9.83 9.83 0 0 0-.328-.107 5.74 5.74 0 0 0-.402-.106 2.232 2.232 0 0 0-.482-.049c-.205 0-.408.04-.613.119-.228.094-.441.22-.634.375-.219.17-.448.394-.686.676a10.8 10.8 0 0 0-.767 1.043v7.836a.375.375 0 0 1-.087.247.644.644 0 0 1-.299.175 2.663 2.663 0 0 1-.561.107 9.476 9.476 0 0 1-.891.034c-.36 0-.656-.012-.889-.034a2.674 2.674 0 0 1-.563-.107.641.641 0 0 1-.299-.175.374.374 0 0 1-.087-.247V9.476a.424.424 0 0 1 .073-.245.535.535 0 0 1 .262-.177c.128-.047.29-.083.49-.106.2-.024.449-.036.75-.036.311 0 .569.012.775.036.203.025.363.06.473.106.096.034.18.096.242.177.049.07.073.152.073.245v1.565c.339-.47.66-.857.962-1.162a5.37 5.37 0 0 1 .86-.726 2.77 2.77 0 0 1 .817-.374c.267-.07.542-.105.818-.105.289 0 .577.031.86.09.156.034.291.072.409.114a.84.84 0 0 1 .256.133c.05.043.09.096.117.155.024.057.046.135.065.234.02.098.033.246.043.443.01.199.016.466.016.804zM95.417 21.89a.372.372 0 0 1-.145.311c-.097.075-.252.128-.46.161-.21.033-.518.048-.927.048-.438 0-.756-.015-.955-.048-.2-.033-.342-.086-.424-.16a.393.393 0 0 1-.123-.312v-1.001a5.902 5.902 0 0 1-1.832 1.296 5.463 5.463 0 0 1-2.283.466 6.592 6.592 0 0 1-1.904-.26 4.34 4.34 0 0 1-1.502-.775 3.485 3.485 0 0 1-.986-1.277c-.232-.506-.35-1.099-.35-1.774 0-.734.147-1.37.445-1.91.296-.54.738-.987 1.328-1.34.588-.35 1.32-.612 2.195-.781.876-.17 1.892-.255 3.05-.255h1.27v-.76c0-.394-.043-.74-.125-1.036a1.71 1.71 0 0 0-.408-.74 1.707 1.707 0 0 0-.76-.437 4.181 4.181 0 0 0-1.174-.14c-.613 0-1.16.065-1.642.197a9.68 9.68 0 0 0-1.276.436c-.314.134-.623.28-.926.438-.248.13-.45.198-.605.198a.447.447 0 0 1-.286-.1.732.732 0 0 1-.204-.282 1.902 1.902 0 0 1-.124-.45 3.686 3.686 0 0 1-.043-.593c0-.29.024-.52.072-.69a1.05 1.05 0 0 1 .279-.458c.135-.137.374-.287.714-.451a8.391 8.391 0 0 1 1.196-.458c.457-.142.956-.255 1.496-.346.54-.089 1.097-.133 1.67-.133 1.022 0 1.895.097 2.62.289.724.192 1.32.488 1.787.887.467.4.807.914 1.022 1.544.213.63.32 1.376.32 2.24v8.456zm-3.603-5.383h-1.401c-.593 0-1.1.042-1.517.127-.419.085-.76.21-1.021.38-.244.149-.444.36-.578.612a1.82 1.82 0 0 0-.181.825c0 .526.173.94.518 1.24.345.3.823.45 1.437.45.514 0 .99-.126 1.422-.38.432-.253.873-.624 1.32-1.113v-2.142zm18.116 5.611c0 .104-.024.19-.072.262a.539.539 0 0 1-.25.175 1.725 1.725 0 0 1-.474.098c-.245.02-.49.03-.735.028-.312 0-.565-.008-.76-.028a1.832 1.832 0 0 1-.475-.098.585.585 0 0 1-.261-.175.416.416 0 0 1-.08-.262v-1.395c-.672.696-1.375 1.234-2.109 1.622a5.185 5.185 0 0 1-2.445.577c-.992 0-1.83-.186-2.517-.557a4.734 4.734 0 0 1-1.676-1.5 6.373 6.373 0 0 1-.942-2.206 11.735 11.735 0 0 1-.292-2.657c0-1.119.124-2.124.373-3.016.247-.893.61-1.655 1.086-2.284a4.786 4.786 0 0 1 1.78-1.452c.71-.339 1.527-.507 2.45-.507.732 0 1.393.144 1.986.43.593.287 1.181.707 1.766 1.261V3.628c0-.095.027-.18.079-.255a.614.614 0 0 1 .293-.19c.141-.05.326-.092.561-.12.234-.027.53-.042.891-.042.36 0 .656.015.89.042.234.028.418.068.553.12a.655.655 0 0 1 .292.19.4.4 0 0 1 .088.255v18.49zm-3.647-8.3v4.173c-.312.375-.598.693-.862.95-.263.26-.517.469-.766.629-.247.16-.49.273-.728.345-.24.07-.484.104-.738.104-.506 0-.924-.116-1.254-.351a2.546 2.546 0 0 1-.797-.937c-.2-.39-.341-.834-.43-1.332a8.901 8.901 0 0 1-.13-1.537c-.001-.49.05-.98.152-1.459.094-.45.251-.883.468-1.288.209-.386.486-.695.83-.925.346-.23.758-.345 1.235-.345.524 0 1.027.169 1.51.508.481.338.985.828 1.51 1.464zm10.527-8.565c0 .714-.15 1.208-.452 1.48-.302.272-.862.41-1.678.41-.826 0-1.383-.134-1.67-.395-.286-.264-.431-.739-.431-1.424 0-.714.148-1.21.445-1.487.297-.278.859-.416 1.687-.416.816 0 1.37.133 1.663.402.29.266.436.744.436 1.43zm-.276 16.827a.375.375 0 0 1-.087.247.64.64 0 0 1-.3.177 2.69 2.69 0 0 1-.562.105 9.49 9.49 0 0 1-.89.035c-.36 0-.656-.012-.89-.035a2.67 2.67 0 0 1-.561-.105.632.632 0 0 1-.3-.177.374.374 0 0 1-.087-.247V9.537c0-.094.03-.176.088-.246a.686.686 0 0 1 .299-.183c.14-.052.328-.092.561-.12.233-.029.53-.042.89-.042s.656.013.89.042c.235.028.42.068.563.12a.692.692 0 0 1 .299.182.382.382 0 0 1 .087.247V22.08zm16.046-6.645c0 1.072-.145 2.05-.438 2.934a6.13 6.13 0 0 1-1.326 2.281c-.594.64-1.34 1.133-2.234 1.48-.896.348-1.94.521-3.135.521-1.159 0-2.165-.153-3.02-.464-.857-.31-1.567-.76-2.13-1.353-.566-.593-.984-1.32-1.256-2.185-.273-.865-.41-1.85-.41-2.96 0-1.07.15-2.05.446-2.937.273-.85.73-1.63 1.335-2.285.593-.633 1.335-1.125 2.225-1.472.89-.347 1.932-.521 3.13-.521 1.168 0 2.178.152 3.034.457.857.307 1.564.754 2.122 1.346.56.592.976 1.321 1.248 2.185.273.865.41 1.856.41 2.973zm-3.779.142a8.838 8.838 0 0 0-.152-1.713 3.951 3.951 0 0 0-.518-1.36 2.56 2.56 0 0 0-.971-.901c-.403-.217-.91-.325-1.526-.325-.544 0-1.02.097-1.428.289-.41.193-.744.474-1.007.847a3.97 3.97 0 0 0-.59 1.338 7.295 7.295 0 0 0-.198 1.781c0 .621.053 1.193.16 1.713.107.52.28.976.52 1.361.237.385.56.684.969.895.409.211.915.317 1.518.317.554 0 1.036-.097 1.445-.29.407-.19.744-.47 1.005-.837.264-.367.457-.811.584-1.332a7.616 7.616 0 0 0 .19-1.783zm12.28-.27c-4.369 0-7.923-3.433-7.923-7.654 0-4.22 3.554-7.653 7.923-7.653 4.37 0 7.923 3.433 7.923 7.653s-3.553 7.654-7.923 7.654zm0-14.276c-3.78 0-6.854 2.971-6.854 6.622 0 3.65 3.075 6.622 6.854 6.622 3.78 0 6.855-2.971 6.855-6.622s-3.075-6.622-6.855-6.622z"/><path d="M137.48 7.61h.403c.395 0 .687-.066.875-.198.188-.132.282-.339.282-.62 0-.28-.096-.479-.288-.597-.192-.118-.49-.177-.893-.177h-.378v1.591zm0 1.015v2.26h-1.249v-5.89h1.717c.8 0 1.393.145 1.777.437.384.291.576.734.576 1.327 0 .347-.095.655-.286.925-.19.27-.46.481-.81.634a219.87 219.87 0 0 0 1.733 2.567h-1.386l-1.407-2.26h-.664zm8.429-3.63v3.811c0 .435-.098.817-.292 1.144a1.901 1.901 0 0 1-.845.754c-.368.174-.803.262-1.305.262-.758 0-1.346-.194-1.765-.583-.419-.388-.628-.919-.628-1.593V4.994h1.245v3.607c0 .453.09.787.274.999.182.212.484.318.906.318.408 0 .705-.107.889-.32.184-.214.276-.549.276-1.006V4.994h1.245z"/></g></symbol><symbol viewBox="0 0 30 30" id="one-click" xmlns="http://www.w3.org/2000/svg"><g stroke-width="2" fill-rule="evenodd"><path d="M14 4.602v16.646c0 .91.383 1.142 1.172.722l5.358-2.85.107-.048 5.67-2.21c.857-.335.95-.829.279-1.445L14.527 4.351C13.958 3.828 14 3.81 14 4.6zM3 7h5.5M4 12.25h4.5m-2.5 5h2.5m16.371 10.02L21 19"/></g></symbol><symbol viewBox="0 0 30 30" id="search" xmlns="http://www.w3.org/2000/svg"><path d="M14 6a8 8 0 0 1 6.533 12.618l4.064 4.064-1.414 1.414-4.001-4A8 8 0 1 1 14 6zm6 8a6 6 0 1 0-12 0 6 6 0 0 0 12 0z" fill-rule="evenodd"/></symbol><symbol viewBox="0 0 30 30" id="smile" xmlns="http://www.w3.org/2000/svg"><g fill-rule="evenodd"><circle cx="15" cy="15" r="13"/><path d="M10 16c1.24 1.33 2.907 1.994 5 1.994s3.76-.665 5-1.994"/><g transform="translate(9 10)"><circle cx="1.5" cy="1.5" r="1.5"/><circle cx="10.5" cy="1.5" r="1.5"/></g></g></symbol><symbol viewBox="0 0 13 17" id="tag" xmlns="http://www.w3.org/2000/svg"><path d="M12.285 12.141l-3.86-8.277a1.5 1.5 0 0 0-.676-.701L3.4.934a1.5 1.5 0 0 0-2.146 1.001L.165 6.7a1.5 1.5 0 0 0 .103.968l3.86 8.277a1.5 1.5 0 0 0 1.993.726l5.438-2.536a1.5 1.5 0 0 0 .726-1.994zM2.784 5.254a1.21 1.21 0 0 1 .573-1.61 1.21 1.21 0 0 1 1.602.596 1.21 1.21 0 0 1-.573 1.611 1.21 1.21 0 0 1-1.602-.597z" fill-rule="evenodd"/></symbol><symbol viewBox="0 0 30 30" id="telegram" xmlns="http://www.w3.org/2000/svg"><path d="M5.348 14.226l4.54 1.694 1.757 5.651a.534.534 0 0 0 .849.256l2.53-2.063a.755.755 0 0 1 .921-.026l4.564 3.314c.315.228.76.056.839-.324L24.69 6.645a.535.535 0 0 0-.716-.608L5.343 13.225a.535.535 0 0 0 .005 1zm6.014.792l8.873-5.465c.16-.098.323.118.186.245L13.1 16.605a1.51 1.51 0 0 0-.47.908l-.25 1.849c-.033.246-.38.27-.448.032l-.96-3.37a.893.893 0 0 1 .391-1.006z"/></symbol><symbol viewBox="0 0 48 48" id="top" xmlns="http://www.w3.org/2000/svg"><path d="M24 11.5L11.574 32.357a1 1 0 0 0 1.253 1.431L24 29l11.173 4.788a1 1 0 0 0 1.253-1.43L24 11.5z" fill-rule="evenodd"/></symbol><symbol viewBox="0 0 30 30" id="trash" xmlns="http://www.w3.org/2000/svg"><path d="M23 9l-2.737 17H9.737L7 9zM11.394 5c.477-.598 1.263-1 1.65-1h3.912c.387 0 1.173.402 1.65 1h3.045C22.948 5 24 5.895 24 7H6c0-1.105 1.052-2 2.349-2zM11.5 12L13 22m5.5-10L17 22"/></symbol><symbol viewBox="0 0 30 30" id="trash-open" xmlns="http://www.w3.org/2000/svg"><path d="M23 9l-2.737 17H9.737L7 9zM11.452 3.688c.527-.554 1.345-.886 1.73-.853l3.897.341c.385.034 1.134.503 1.557 1.14l3.034.266c1.292.113 2.261 1.096 2.165 2.197L5.904 5.209C6 4.11 7.125 3.31 8.418 3.423zM11.5 12L13 22m5.5-10L17 22"/></symbol><symbol viewBox="0 0 30 30" id="tv" xmlns="http://www.w3.org/2000/svg"><path d="M24.404 8.967h-6.801l2.415-3.882a.705.705 0 0 0-.243-.98.737.737 0 0 0-1.001.237l-2.878 4.625h-1.792l-2.878-4.625a.737.737 0 0 0-1-.238.705.705 0 0 0-.244.981l2.415 3.882h-6.8C4.715 8.967 4 9.668 4 10.531v12.905C4 24.3 4.716 25 5.596 25h18.808c.88 0 1.596-.701 1.596-1.564V10.531c0-.863-.716-1.564-1.596-1.564zm-4.976 12.594c0 .47-.388.85-.868.85H7.457a.859.859 0 0 1-.867-.85v-9.155c0-.469.388-.85.867-.85H18.56c.48 0 .868.381.868.85v9.155zm3.21-.272c-.83 0-1.505-.662-1.505-1.475 0-.813.676-1.475 1.506-1.475s1.505.662 1.505 1.475c0 .814-.675 1.475-1.505 1.475zm0-5.661c-.83 0-1.505-.662-1.505-1.475 0-.813.676-1.475 1.506-1.475s1.505.662 1.505 1.475c0 .813-.675 1.475-1.505 1.475z"/></symbol><symbol viewBox="0 0 30 30" id="twitter" xmlns="http://www.w3.org/2000/svg"><path d="M21.999 9.195A3.943 3.943 0 0 0 19.154 8c-2.151 0-3.897 1.696-3.897 3.787 0 .297.034.584.1.862A11.172 11.172 0 0 1 7.324 8.69a3.7 3.7 0 0 0-.528 1.906c0 1.313.688 2.472 1.734 3.151a3.985 3.985 0 0 1-1.767-.472v.046c0 1.836 1.344 3.367 3.129 3.714a4.022 4.022 0 0 1-1.76.067c.495 1.503 1.934 2.598 3.64 2.628a7.967 7.967 0 0 1-4.841 1.621 8.14 8.14 0 0 1-.93-.052 11.286 11.286 0 0 0 5.976 1.7c7.17 0 11.09-5.769 11.09-10.774 0-.164-.003-.329-.01-.49A7.76 7.76 0 0 0 25 9.776c-.698.3-1.45.504-2.239.596a3.816 3.816 0 0 0 1.715-2.095 7.92 7.92 0 0 1-2.478.918z"/></symbol><symbol viewBox="0 0 30 30" id="user" xmlns="http://www.w3.org/2000/svg"><path d="M20 10a5 5 0 1 1-10 0 5 5 0 0 1 10 0zm-5 6c-4.97 0-9 4.246-9 9h18c0-4.754-4.03-9-9-9z" fill-rule="evenodd"/></symbol><symbol viewBox="0 0 48 48" id="video" xmlns="http://www.w3.org/2000/svg"><path d="M18.791 19.768c3.622 0 6.724-2.291 8-5.525 1.274 3.234 4.378 5.525 8.002 5.525 4.752 0 8.617-3.942 8.617-8.788s-3.866-8.79-8.617-8.79c-3.624 0-6.728 2.292-8.003 5.525-1.275-3.233-4.377-5.525-7.999-5.525-4.753 0-8.62 3.943-8.62 8.789s3.867 8.788 8.62 8.788zm16.01-15.28c3.511 0 6.366 2.912 6.366 6.492s-2.856 6.492-6.365 6.492c-3.514 0-6.373-2.913-6.373-6.492 0-3.58 2.859-6.493 6.373-6.493zm-16 0c3.511 0 6.37 2.912 6.37 6.492s-2.858 6.492-6.37 6.492-6.368-2.913-6.368-6.492c0-3.58 2.856-6.493 6.368-6.493zm28.318 23.168h-3.93v-4.387a.89.89 0 0 0-.882-.899h-30.4a.89.89 0 0 0-.882.899v6.892l-9.791-4.358a.862.862 0 0 0-.835.072.903.903 0 0 0-.399.752V40.25c0 .303.15.586.398.752a.866.866 0 0 0 .836.072l9.791-4.356v6.89a.89.89 0 0 0 .881.899h30.401a.89.89 0 0 0 .881-.899v-4.392h3.93a.89.89 0 0 0 .882-.898v-9.764a.89.89 0 0 0-.881-.898zM2 37.689v-8.5l8.013 3.22v2.06L2 37.69zm38.444 4.42H13.771v-17.34h26.673v17.339zm5.556-5h-2.812v-7.346H46v7.347z"/><path d="M18.792 14.678c2.002 0 3.63-1.659 3.63-3.698 0-2.04-1.628-3.7-3.63-3.7-2 0-3.627 1.66-3.627 3.7s1.627 3.698 3.627 3.698zm0-5.601c1.03 0 1.868.854 1.868 1.903 0 1.048-.839 1.902-1.868 1.902-1.029 0-1.865-.853-1.865-1.902 0-1.05.836-1.903 1.865-1.903zm15.995 5.601c2.003 0 3.633-1.659 3.633-3.698 0-2.04-1.63-3.7-3.633-3.7-2 0-3.629 1.66-3.629 3.7s1.628 3.698 3.63 3.698zm0-5.601c1.031 0 1.87.854 1.87 1.903 0 1.048-.838 1.902-1.87 1.902-1.029 0-1.866-.853-1.866-1.902 0-1.05.837-1.903 1.866-1.903z"/></symbol><symbol viewBox="0 0 30 30" id="view-list" xmlns="http://www.w3.org/2000/svg"><path d="M5 5h4v4H5zm8 0h12v4H13zm-8 8h4v4H5zm8 0h12v4H13zm-8 8h4v4H5zm8 0h12v4H13z" fill-rule="evenodd"/></symbol><symbol viewBox="0 0 30 30" id="view-tiles" xmlns="http://www.w3.org/2000/svg"><path d="M5 5h4v4H5zm0 8h4v4H5zm8-8h4v4h-4zm0 8h4v4h-4zm8-8h4v4h-4zm0 8h4v4h-4zM5 21h4v4H5zm8 0h4v4h-4zm8 0h4v4h-4z" fill-rule="evenodd"/></symbol><symbol viewBox="0 0 30 30" id="vk" xmlns="http://www.w3.org/2000/svg"><path d="M24.894 19.934a1.303 1.303 0 0 0-.068-.125c-.347-.603-1.01-1.342-1.989-2.219l-.02-.02-.01-.01-.011-.01h-.01c-.445-.408-.726-.683-.844-.823-.216-.268-.264-.539-.146-.813.083-.208.396-.646.937-1.315.285-.355.51-.64.677-.853 1.2-1.54 1.722-2.523 1.562-2.952l-.062-.1c-.042-.06-.15-.115-.323-.165-.174-.05-.396-.059-.666-.025l-3 .02a.403.403 0 0 0-.208.005l-.135.03-.052.025-.042.03a.456.456 0 0 0-.114.105.683.683 0 0 0-.104.176c-.327.81-.698 1.563-1.115 2.259a20.55 20.55 0 0 1-.708 1.079 5.224 5.224 0 0 1-.541.672c-.146.144-.278.26-.396.347-.118.087-.208.124-.27.11a7.897 7.897 0 0 1-.178-.04.677.677 0 0 1-.234-.246 1.072 1.072 0 0 1-.12-.392 4.163 4.163 0 0 1-.036-.406 8.176 8.176 0 0 1 .005-.482c.007-.208.01-.348.01-.422 0-.254.006-.53.016-.828l.026-.707c.007-.174.01-.358.01-.553 0-.194-.012-.346-.036-.456a1.523 1.523 0 0 0-.109-.322.547.547 0 0 0-.213-.24 1.229 1.229 0 0 0-.35-.136c-.367-.08-.836-.124-1.405-.13-1.291-.014-2.121.067-2.489.24a1.396 1.396 0 0 0-.396.302c-.125.147-.142.227-.052.24.417.06.712.204.885.432l.063.12a1.9 1.9 0 0 1 .146.462c.048.221.08.465.093.733a7.46 7.46 0 0 1 0 1.255c-.034.348-.067.619-.099.813a1.584 1.584 0 0 1-.14.472 1.97 1.97 0 0 1-.125.22.177.177 0 0 1-.052.05.806.806 0 0 1-.281.05c-.098 0-.216-.046-.354-.14a2.466 2.466 0 0 1-.432-.386 5.173 5.173 0 0 1-.506-.688 11.866 11.866 0 0 1-.583-1.044l-.166-.291a24.7 24.7 0 0 1-.427-.818c-.18-.358-.34-.705-.48-1.04a.665.665 0 0 0-.249-.32l-.052-.03a.721.721 0 0 0-.167-.086 1.137 1.137 0 0 0-.24-.065l-2.852.02c-.292 0-.49.064-.594.19l-.042.061a.315.315 0 0 0-.031.16c0 .074.02.165.063.272.416.943.869 1.853 1.358 2.73.49.877.915 1.583 1.276 2.118.36.535.729 1.04 1.104 1.516.375.475.623.78.744.913.122.134.217.234.287.301l.26.241c.167.16.411.353.734.577.323.225.68.445 1.073.663.392.217.848.395 1.37.532.52.137 1.026.192 1.52.166h1.197c.243-.02.427-.094.552-.221l.041-.05a.653.653 0 0 0 .078-.186.985.985 0 0 0 .037-.276 3.192 3.192 0 0 1 .067-.778c.052-.23.111-.405.178-.522a1.286 1.286 0 0 1 .4-.441.693.693 0 0 1 .084-.036c.166-.053.362-.001.588.156.226.157.438.352.635.582.198.231.436.49.714.778.278.288.52.502.729.643l.208.12c.139.08.32.154.542.221.221.067.416.084.582.05l2.666-.04c.264 0 .469-.042.614-.125.146-.084.233-.176.26-.276a.75.75 0 0 0 .006-.342 1.224 1.224 0 0 0-.073-.266z"/></symbol><symbol viewBox="0 0 30 30" id="yandex" xmlns="http://www.w3.org/2000/svg"><path d="M19.251 5h-3.03c-2.978 0-5.503 2.267-5.503 6.667 0 2.641 1.223 4.586 3.402 5.547l-4.067 7.36c-.133.24 0 .426.212.426h1.888c.16 0 .265-.053.318-.186l3.696-7.226h1.329v7.226c0 .08.08.186.186.186h1.649c.159 0 .212-.08.212-.212V5.268c0-.188-.106-.268-.292-.268zm-1.755 10.88H16.38c-1.755 0-3.455-1.28-3.455-4.48 0-3.335 1.593-4.694 3.216-4.694h1.355z"/></symbol></svg>