<svg width="30" height="30" fill="none" xmlns="http://www.w3.org/2000/svg"><path d="M15 3c-1.782 0-3.28.902-4.37 2.13-.206-.052-.36-.13-.63-.13-2.197 0-4 1.803-4 4v3.416c-1.107.443-2 1.327-2 2.584v11h2v-2h18v2h2V15c0-1.257-.893-2.14-2-2.584V9c0-2.197-1.803-4-4-4-.27 0-.424.078-.63.13C18.28 3.903 16.781 3 15 3zm0 2c1.347 0 2.55.72 3.277 1.77l.428.617.711-.239c.3-.1.506-.148.584-.148 1.117 0 2 .883 2 2v3.416c-1.107.443-2 1.327-2 2.584v2H10v-2c0-1.257-.893-2.14-2-2.584V9c0-1.117.883-2 2-2 .078 0 .284.048.584.148l.71.239.429-.617C12.45 5.72 13.653 5 15 5zm0 2a1 1 0 100 2 1 1 0 000-2zm-3 3a1 1 0 100 2 1 1 0 000-2zm6 0a1 1 0 100 2 1 1 0 000-2zm-3 3a1 1 0 100 2 1 1 0 000-2zm-8 1c.555 0 1 .445 1 1v4h14v-4c0-.555.445-1 1-1 .555 0 1 .445 1 1v7H6v-7c0-.555.445-1 1-1z" fill="#737373"/></svg>