<svg width="65" height="65" xmlns="http://www.w3.org/2000/svg"><title>Group 5</title><path d="M64.634 48.33c0 8.991-7.313 16.304-16.304 16.304H16.305C7.315 64.634 0 57.321 0 48.33V16.305C0 7.315 7.314 0 16.305 0H48.33c8.991 0 16.304 7.314 16.304 16.305V48.33zM48.33 7.034H16.305c-5.112 0-9.27 4.159-9.27 9.27V48.33c0 5.111 4.158 9.271 9.27 9.271H48.33c5.111 0 9.271-4.159 9.271-9.271V16.305c0-5.112-4.159-9.27-9.271-9.27zm-16.013 41.93c-9.178 0-16.646-7.467-16.646-16.647 0-9.178 7.468-16.646 16.646-16.646 9.18 0 16.647 7.468 16.647 16.646s-7.469 16.647-16.647 16.647zm0-26.258c-5.298 0-9.613 4.311-9.613 9.61 0 5.3 4.315 9.614 9.613 9.614 5.3 0 9.612-4.313 9.612-9.614 0-5.297-4.312-9.61-9.612-9.61zM49.5 19.113a3.943 3.943 0 0 1-3.94-3.938 3.943 3.943 0 0 1 3.94-3.939 3.943 3.943 0 0 1 3.939 3.939 3.943 3.943 0 0 1-3.939 3.938z" fill="#C536A4"/></svg>