<svg width="39" height="65" xmlns="http://www.w3.org/2000/svg"><title>Group 6</title><path d="M19.524 24.647a7.978 7.978 0 0 0 7.978-8.05c-.016-4.462-3.568-8.012-8.02-8.016a8.007 8.007 0 0 0-8.04 8.113c.034 4.443 3.618 7.97 8.082 7.953zM19.33 0c9.077.025 16.362 7.45 16.316 16.627-.046 8.966-7.45 16.232-16.513 16.202-8.97-.03-16.326-7.467-16.272-16.45C2.91 7.295 10.27-.026 19.33 0zm18.595 39.036c-2.007 2.06-4.423 3.552-7.106 4.592-2.536.983-5.316 1.478-8.067 1.808.416.452.612.674.871.933 3.734 3.754 7.486 7.49 11.207 11.254 1.269 1.283 1.533 2.873.835 4.364-.762 1.63-2.472 2.702-4.149 2.587-1.062-.074-1.89-.601-2.626-1.342-2.818-2.836-5.69-5.62-8.45-8.51-.805-.841-1.19-.68-1.901.05a562.424 562.424 0 0 1-8.614 8.65c-1.301 1.283-2.85 1.516-4.36.782-1.605-.777-2.625-2.416-2.547-4.064.055-1.112.603-1.964 1.367-2.725 3.697-3.69 7.382-7.39 11.069-11.088.245-.245.471-.505.827-.886-5.028-.526-9.561-1.763-13.443-4.798-.483-.378-.98-.742-1.418-1.165-1.7-1.632-1.87-3.502-.527-5.426 1.15-1.647 3.08-2.088 5.088-1.141.389.182.759.413 1.113.657 7.233 4.97 17.17 5.107 24.433.222.718-.55 1.488-1.001 2.38-1.23 1.731-.445 3.348.193 4.277 1.709 1.063 1.732 1.05 3.422-.259 4.767z" fill="#FF9135"/></svg>