<svg width="69" height="69" xmlns="http://www.w3.org/2000/svg"><title>Group 15</title><path d="M65.525 40.19c.388-1.994.594-4.055.594-6.163 0-17.724-14.368-32.092-32.092-32.092-2.109 0-4.169.206-6.164.594A18.432 18.432 0 0 0 18.523 0C8.293 0 0 8.293 0 18.523c0 3.408.924 6.597 2.529 9.34a32.246 32.246 0 0 0-.594 6.164c0 17.723 14.368 32.091 32.092 32.091 2.108 0 4.169-.205 6.164-.593a18.431 18.431 0 0 0 9.339 2.529c10.23 0 18.524-8.294 18.524-18.524 0-3.407-.924-6.597-2.53-9.34zM34.637 56.067c-11.404 0-17.106-4.276-18.86-9.65-1.754-5.372 2.083-6.907 3.29-7.017 1.206-.11 3.764.183 4.495 2.413.76 2.317 3.29 6.908 8.772 7.456s9.1-1.974 10.197-4.605c1.097-2.632-.877-6.25-9.32-7.457C24.768 36 15.996 32.272 15.996 23.83c0-8.443 9.65-11.842 18.86-11.842 9.21 0 13.88 5.202 14.912 7.237 1.28 2.522.84 6.724-2.193 7.456-3.18.768-4.824-.987-7.127-5.263-2.381-4.422-10.855-3.29-13.706-.768-2.851 2.522-2.083 6.14 9.759 8.443s16.228 6.58 16.228 13.268c0 6.688-6.689 13.706-18.092 13.706z" fill="#15ACE5"/></svg>