<?xml version="1.0" encoding="utf-8"?><svg xmlns="http://www.w3.org/2000/svg" xmlns:xlink="http://www.w3.org/1999/xlink"><symbol viewBox="0 0 32 32" id="arrow-down" xmlns="http://www.w3.org/2000/svg"><path d="M15.999 22.322L1.547 7.736c-.355-.359-.925-.359-1.281 0s-.355.934 0 1.293l15.095 15.236a.896.896 0 0 0 1.281 0L31.731 9.029c.174-.176.268-.413.268-.643s-.087-.467-.268-.643a.896.896 0 0 0-1.281 0L15.998 22.322z"/></symbol><symbol viewBox="0 0 32 32" id="arrow-left" xmlns="http://www.w3.org/2000/svg"><path d="M9.678 15.999L24.264 1.547c.359-.355.359-.925 0-1.281s-.934-.355-1.293 0L7.735 15.361a.896.896 0 0 0 0 1.281l15.236 15.089c.176.174.413.268.643.268s.467-.087.643-.268a.896.896 0 0 0 0-1.281L9.678 15.998z"/></symbol><symbol viewBox="0 0 32 32" id="arrow-right" xmlns="http://www.w3.org/2000/svg"><path d="M22.322 15.999L7.736 1.547c-.359-.355-.359-.925 0-1.281s.934-.355 1.293 0l15.236 15.095a.896.896 0 0 1 0 1.281L9.029 31.731c-.176.174-.413.268-.643.268s-.467-.087-.643-.268a.896.896 0 0 1 0-1.281l14.579-14.452z"/></symbol><symbol viewBox="0 0 32 32" id="arrow-up" xmlns="http://www.w3.org/2000/svg"><path d="M15.999 9.678L1.547 24.264c-.355.359-.925.359-1.281 0s-.355-.934 0-1.293L15.361 7.735a.896.896 0 0 1 1.281 0l15.089 15.236c.174.176.268.413.268.643s-.087.467-.268.643a.896.896 0 0 1-1.281 0L15.998 9.678z"/></symbol><symbol viewBox="0 0 32 32" id="close" xmlns="http://www.w3.org/2000/svg"><path d="M32 3.2L28.8 0 16 12.8 3.2 0 0 3.2 12.8 16 0 28.8 3.2 32 16 19.2 28.8 32l3.2-3.2L19.2 16 32 3.2z"/></symbol><symbol viewBox="0 0 32 32" id="dialog" xmlns="http://www.w3.org/2000/svg"><path d="M18.884 20.49c1.935-.815 3.461-1.925 4.58-3.33s1.679-2.934 1.679-4.589c0-1.655-.56-3.184-1.679-4.589s-2.646-2.515-4.58-3.331c-1.935-.816-4.039-1.223-6.313-1.223s-4.378.408-6.313 1.223c-1.934.816-3.461 1.926-4.58 3.33S-.001 10.915-.001 12.57c0 1.417.423 2.751 1.268 4s2.006 2.304 3.482 3.161c-.119.286-.241.548-.366.786s-.274.467-.447.687c-.173.22-.306.393-.402.518s-.25.301-.464.527c-.214.226-.351.375-.411.446 0-.012-.024.015-.071.081s-.075.095-.08.089c-.006-.006-.03.023-.071.089s-.063.098-.063.098l-.045.089c-.018.035-.03.071-.036.107s-.009.074-.009.116c0 .041.006.08.018.116.024.155.092.279.205.375s.235.143.366.143h.054a14.996 14.996 0 0 0 1.536-.286c1.833-.476 3.488-1.238 4.964-2.286 1.071.191 2.119.286 3.143.286 2.274.001 4.378-.407 6.313-1.222zm-9.991-1.491l-.786.553c-.333.226-.702.459-1.107.697l.625-1.5-1.732-1c-1.143-.667-2.03-1.452-2.661-2.357s-.946-1.845-.946-2.822c0-1.214.467-2.351 1.402-3.411S5.881 7.26 7.465 6.641c1.583-.619 3.286-.929 5.107-.929s3.524.31 5.107.929c1.583.619 2.842 1.459 3.777 2.518s1.402 2.196 1.402 3.411c0 1.214-.467 2.351-1.402 3.411s-2.194 1.899-3.777 2.518c-1.583.619-3.286.929-5.107.929-.893 0-1.803-.083-2.732-.25L8.894 19z"/><path d="M30.732 21.151c.845-1.244 1.268-2.58 1.268-4.009 0-1.464-.447-2.834-1.339-4.107s-2.107-2.333-3.643-3.179c.274.893.411 1.798.411 2.714 0 1.595-.398 3.107-1.197 4.536s-1.94 2.69-3.429 3.786c-1.381 1-2.952 1.768-4.715 2.303s-3.601.804-5.518.804c-.357 0-.881-.024-1.571-.071 2.393 1.571 5.203 2.357 8.429 2.357 1.024 0 2.072-.095 3.143-.286 1.476 1.048 3.131 1.809 4.964 2.286.429.107.941.202 1.536.286.143.012.274-.03.393-.125s.197-.226.232-.393c-.005-.072 0-.111.018-.116s.015-.045-.009-.116a6.017 6.017 0 0 0-.035-.107l-.045-.089c-.012-.023-.033-.056-.063-.098s-.053-.071-.071-.089l-.08-.089c-.036-.041-.059-.068-.072-.08-.059-.071-.196-.22-.411-.447s-.369-.402-.464-.527c-.095-.125-.229-.297-.402-.518s-.321-.449-.447-.687a9.742 9.742 0 0 1-.366-.786c1.476-.858 2.637-1.908 3.481-3.153z"/></symbol><symbol viewBox="0 0 32 32" id="edit" xmlns="http://www.w3.org/2000/svg"><path d="M15.744 22.451H9.606v-6.53L25.35 0l6.649 6.584-16.256 15.867zM0 28.818V32h32v-3.182H0z"/></symbol><symbol viewBox="0 0 32 32" id="eye" xmlns="http://www.w3.org/2000/svg"><path d="M16 6.462C9.886 6.462 4.342 9.807.25 15.24a1.266 1.266 0 0 0 0 1.512c4.091 5.44 9.636 8.785 15.75 8.785s11.658-3.345 15.75-8.778a1.266 1.266 0 0 0 0-1.512C27.659 9.807 22.114 6.462 16 6.462zm.439 16.254a6.735 6.735 0 0 1-7.155-7.155c.209-3.352 2.926-6.068 6.278-6.278a6.735 6.735 0 0 1 7.155 7.155c-.216 3.345-2.933 6.062-6.278 6.278zm-.203-3.103a3.619 3.619 0 0 1-3.849-3.849c.111-1.807 1.578-3.266 3.384-3.384a3.619 3.619 0 0 1 3.849 3.849c-.118 1.813-1.584 3.273-3.384 3.384z"/></symbol><symbol viewBox="0 0 32 32" id="facebook" xmlns="http://www.w3.org/2000/svg"><path d="M23.999.007L19.849 0c-4.662 0-7.675 3.091-7.675 7.875v3.631H8.002a.652.652 0 0 0-.652.653v5.261c0 .361.292.652.652.652h4.172v13.275c0 .361.292.653.652.653h5.444a.652.652 0 0 0 .652-.653V18.072H23.8a.651.651 0 0 0 .652-.652l.002-5.261a.652.652 0 0 0-.653-.652h-4.88V8.429c0-1.479.353-2.23 2.28-2.23l2.795-.001c.36 0 .652-.292.652-.652V.661a.652.652 0 0 0-.651-.652z"/></symbol><symbol viewBox="0 0 32 32" id="flikr" xmlns="http://www.w3.org/2000/svg"><path d="M14.658 15.433c0 4.048-3.281 7.329-7.329 7.329S0 19.481 0 15.433s3.281-7.329 7.329-7.329 7.329 3.281 7.329 7.329zm17.039.831c0 4.048-3.281 7.329-7.329 7.329s-7.329-3.281-7.329-7.329 3.281-7.329 7.329-7.329 7.329 3.281 7.329 7.329z"/></symbol><symbol viewBox="0 0 20 20" id="gear"><path d="M17.498 11.697A2.384 2.384 0 0 1 16.794 10a2.384 2.384 0 0 1 .961-1.917.39.39 0 0 0 .137-.417 8.169 8.169 0 0 0-.662-1.597.385.385 0 0 0-.391-.199c-.13.02-.238.027-.336.027a2.402 2.402 0 0 1-2.401-2.4c0-.099.008-.207.027-.336a.388.388 0 0 0-.199-.391 8.144 8.144 0 0 0-1.597-.662.388.388 0 0 0-.416.137A2.38 2.38 0 0 1 10 3.207a2.38 2.38 0 0 1-1.917-.961.388.388 0 0 0-.416-.137 8.216 8.216 0 0 0-1.597.662.387.387 0 0 0-.199.391c.02.129.027.237.027.336 0 1.325-1.076 2.4-2.401 2.4a2.15 2.15 0 0 1-.335-.027.387.387 0 0 0-.392.199 8.241 8.241 0 0 0-.662 1.597.39.39 0 0 0 .137.417 2.399 2.399 0 0 1 0 3.835.388.388 0 0 0-.137.416c.166.557.388 1.096.662 1.596a.381.381 0 0 0 .392.199 2.15 2.15 0 0 1 .335-.027 2.403 2.403 0 0 1 2.401 2.402c0 .098-.007.205-.027.334a.388.388 0 0 0 .199.391c.501.273 1.04.496 1.597.66a.382.382 0 0 0 .417-.137 2.385 2.385 0 0 1 1.917-.959 2.382 2.382 0 0 1 1.917.959.382.382 0 0 0 .416.136 8.148 8.148 0 0 0 1.597-.66.39.39 0 0 0 .199-.393 2.138 2.138 0 0 1-.027-.334 2.403 2.403 0 0 1 2.401-2.402c.098 0 .206.008.336.027a.385.385 0 0 0 .391-.199c.274-.5.496-1.039.662-1.596a.388.388 0 0 0-.137-.416 1.776 1.776 0 0 1-.258-.219m-.827 1.637c-.059-.002-.114-.002-.168-.002a3.176 3.176 0 0 0-3.173 3.172c0 .053.002.109.004.166a7.09 7.09 0 0 1-.976.406A3.152 3.152 0 0 0 10 16.023a3.15 3.15 0 0 0-2.359 1.053 7.09 7.09 0 0 1-.976-.406c.002-.057.004-.113.004-.166a3.175 3.175 0 0 0-3.172-3.172c-.054 0-.11 0-.168.002a7.198 7.198 0 0 1-.405-.975c.044-.039.085-.078.124-.115a3.177 3.177 0 0 0-.124-4.602 7.21 7.21 0 0 1 .405-.976c.058.002.114.004.168.004a3.175 3.175 0 0 0 3.172-3.172c0-.054-.002-.11-.004-.168a7.21 7.21 0 0 1 .976-.405A3.15 3.15 0 0 0 10 3.978a3.15 3.15 0 0 0 2.358-1.053c.336.112.663.247.976.405-.002.058-.004.114-.004.168a3.177 3.177 0 0 0 3.173 3.172c.054 0 .109-.002.168-.004.158.312.293.64.405.976A3.15 3.15 0 0 0 16.022 10a3.151 3.151 0 0 0 1.054 2.359 7.252 7.252 0 0 1-.405.975M10 5.417A4.588 4.588 0 0 0 5.416 10c0 2.529 2.056 4.584 4.584 4.584s4.584-2.055 4.584-4.584A4.588 4.588 0 0 0 10 5.417m0 8.395A3.816 3.816 0 0 1 6.188 10 3.816 3.816 0 0 1 10 6.188 3.816 3.816 0 0 1 13.812 10 3.815 3.815 0 0 1 10 13.812"/></symbol><symbol viewBox="0 0 32 32" id="google" xmlns="http://www.w3.org/2000/svg"><path d="M.006 15.907C-.192 10.703 4.367 5.893 9.577 5.832c2.655-.226 5.238.805 7.248 2.486-.824.906-1.662 1.802-2.559 2.641-1.769-1.075-3.899-1.894-5.966-1.166-3.334.949-5.353 4.886-4.12 8.149 1.022 3.407 5.166 5.277 8.413 3.845 1.682-.602 2.79-2.154 3.277-3.821-1.927-.039-3.855-.014-5.782-.068-.005-1.147-.01-2.289-.005-3.436 3.214-.005 6.433-.014 9.652.014.198 2.809-.217 5.816-2.043 8.071-2.501 3.219-7.122 4.164-10.881 2.901-3.99-1.311-6.891-5.33-6.804-9.541zm25.993-4.338h2.867c.005.959.014 1.922.02 2.882.959.01 1.923.014 2.882.019v2.872l-2.882.014c-.01.964-.014 1.922-.02 2.886-.959-.005-1.918 0-2.872 0-.01-.964-.01-1.922-.019-2.882-.959-.01-1.922-.015-2.882-.02v-2.872c.959-.005 1.918-.01 2.882-.019.005-.959.015-1.922.024-2.882z"/></symbol><symbol viewBox="0 0 32 32" id="instagram" xmlns="http://www.w3.org/2000/svg"><path d="M22 0H10C4.478 0 0 4.478 0 10v12c0 5.522 4.478 10 10 10h12c5.522 0 10-4.478 10-10V10c0-5.522-4.478-10-10-10zm7 22c0 3.86-3.14 7-7 7H10c-3.86 0-7-3.14-7-7V10c0-3.86 3.14-7 7-7h12c3.86 0 7 3.14 7 7v12z"/><path d="M16 8a8 8 0 1 0 0 16 8 8 0 0 0 0-16zm0 13c-2.756 0-5-2.244-5-5 0-2.758 2.244-5 5-5s5 2.242 5 5c0 2.756-2.244 5-5 5zm8.6-12.534a1.066 1.066 0 1 0 0-2.131 1.066 1.066 0 0 0 0 2.131z"/></symbol><symbol viewBox="0 0 32 32" id="key" xmlns="http://www.w3.org/2000/svg"><path d="M22.75 10.754a2 2 0 1 0 0-4 2 2 0 0 0 0 4z"/><path d="M31.655 10.371c-.668-1.7-1.892-4.152-3.932-6.183C25.69 2.164 23.263.975 21.586.334a5.026 5.026 0 0 0-5.331 1.13L11.346 6.35a5.003 5.003 0 0 0-1.044 5.545c.258.579.538 1.146.837 1.694L.366 24.362a1.25 1.25 0 0 0-.366.884v5.5c0 .69.56 1.25 1.25 1.25h5.5c.69 0 1.25-.56 1.25-1.25v-2.25h2.25c.69 0 1.25-.56 1.25-1.25v-2.25h2.25a1.25 1.25 0 0 0 0-2.5h-3.5c-.69 0-1.25.56-1.25 1.25v2.25H6.75c-.69 0-1.25.56-1.25 1.25v2.25h-3v-3.732l11.085-11.085a1.25 1.25 0 0 0 .185-1.532 20.321 20.321 0 0 1-1.183-2.268 2.488 2.488 0 0 1 .523-2.757l4.909-4.886a2.523 2.523 0 0 1 2.675-.567c1.451.555 3.543 1.576 5.266 3.291 1.733 1.725 2.789 3.848 3.369 5.325a2.483 2.483 0 0 1-.56 2.668l-4.968 4.945c-.724.72-1.803.93-2.751.536a16.242 16.242 0 0 1-2.25-1.148 1.25 1.25 0 1 0-1.308 2.131c.822.504 1.696.95 2.598 1.325a5.01 5.01 0 0 0 5.475-1.072l4.968-4.945a4.982 4.982 0 0 0 1.124-5.354z"/></symbol><symbol viewBox="0 0 32 32" id="linkedin" xmlns="http://www.w3.org/2000/svg"><path d="M3.844 0c2.089.002 3.812 1.727 3.808 3.827-.005 2.199-1.829 3.856-3.834 3.808-2.033.041-3.819-1.657-3.819-3.822 0-2.1 1.73-3.814 3.844-3.812zm2.141 31.714H1.509a1.052 1.052 0 0 1-1.052-1.052V11.566c0-.581.471-1.052 1.052-1.052h4.476c.581 0 1.052.471 1.052 1.052v19.096c0 .581-.471 1.052-1.052 1.052zm26-14.408a7.249 7.249 0 0 0-7.249-7.249h-1.148a6.435 6.435 0 0 0-5.641 3.329.817.817 0 0 0-.06-.008v-2.344a.437.437 0 0 0-.437-.437h-5.585a.437.437 0 0 0-.437.437v20.327c0 .241.195.437.437.437l5.706.001a.437.437 0 0 0 .437-.437V19.619c0-2.03 1.619-3.715 3.649-3.738a3.676 3.676 0 0 1 2.653 1.081 3.68 3.68 0 0 1 1.081 2.61v11.792c0 .241.195.437.436.437l5.721.001a.437.437 0 0 0 .437-.437v-14.06z"/></symbol><symbol viewBox="0 0 32 32" id="mailru" xmlns="http://www.w3.org/2000/svg"><path d="M16 .5C7.434.5.5 7.432.5 16c0 8.566 6.932 15.5 15.5 15.5 3.01 0 5.959-.884 8.463-2.514.75-.488.914-1.518.347-2.211l-.636-.777a1.496 1.496 0 0 0-1.961-.321A11.531 11.531 0 0 1 16 27.499c-6.341 0-11.5-5.159-11.5-11.5s5.159-11.5 11.5-11.5c6.259 0 11.5 3.601 11.5 10 0 2.424-1.318 4.984-3.636 5.231-1.084-.028-1.057-.804-.842-1.877l1.465-7.569a1.5 1.5 0 0 0-1.473-1.785h-2.811a.845.845 0 0 0-.839.746v.004l-.001.006c-.919-1.119-2.528-1.361-3.748-1.361-4.661 0-8.614 3.89-8.614 9.466 0 4.081 2.299 6.617 6 6.617 1.687 0 3.586-.977 4.687-2.396.595 2.131 2.538 2.131 4.419 2.131 6.807 0 9.394-4.476 9.394-9.213 0-8.522-6.874-14-15.5-14zm-1.355 19.027c-1.391 0-2.254-.976-2.254-2.548 0-2.812 1.924-4.546 3.664-4.546 1.393 0 2.225.953 2.225 2.548 0 2.816-2.117 4.546-3.635 4.546z"/></symbol><symbol viewBox="0 0 32 32" id="materials" xmlns="http://www.w3.org/2000/svg"><path d="M4.895 3.776h-.003a1.141 1.141 0 0 0-1.139 1.145v17.171c0 .63.514 1.143 1.147 1.145 2.665.006 7.131.562 10.212 3.786V9.053c0-.213-.055-.414-.157-.58-2.528-4.072-7.387-4.691-10.059-4.697zm23.353 18.316V4.921a1.143 1.143 0 0 0-1.139-1.145h-.003c-2.671.006-7.53.625-10.059 4.697a1.095 1.095 0 0 0-.157.58v17.97c3.081-3.224 7.546-3.779 10.212-3.786a1.15 1.15 0 0 0 1.147-1.145z"/><path d="M30.855 7.736h-.83v14.356a2.93 2.93 0 0 1-2.92 2.923c-2.261.005-5.989.447-8.629 2.946 4.566-1.118 9.38-.391 12.123.234A1.146 1.146 0 0 0 32 27.079V8.881c0-.631-.514-1.145-1.145-1.145zM1.975 22.092V7.736h-.83C.514 7.736 0 8.25 0 8.881v18.198c0 .35.157.676.43.894s.628.3.971.221c2.743-.625 7.557-1.352 12.123-.234-2.64-2.499-6.368-2.941-8.629-2.946a2.93 2.93 0 0 1-2.92-2.923z"/></symbol><symbol viewBox="0 0 1024 1024" id="msg" xmlns="http://www.w3.org/2000/svg"><path d="M512 658.286L385.316 547.402 23.112 857.893c13.166 12.215 30.939 19.821 50.541 19.821h876.69c19.529 0 37.23-7.607 50.322-19.821L638.681 547.402 511.997 658.286z"/><path d="M1000.887 166.107c-13.166-12.288-30.866-19.821-50.541-19.821H73.656c-19.529 0-37.23 7.607-50.396 19.968l488.741 418.889 488.887-419.036zM0 210.505v607.671l353.499-300.398L0 210.505zm670.501 307.274L1024 818.177v-607.89L670.501 517.78z"/></symbol><symbol viewBox="0 0 32 32" id="odnoklasniki" xmlns="http://www.w3.org/2000/svg"><path d="M16.012 12.134c2.191-.008 3.936-1.768 3.928-3.963s-1.757-3.944-3.948-3.946a3.942 3.942 0 0 0-3.958 3.994 3.936 3.936 0 0 0 3.979 3.915zM15.916 0c4.469.012 8.056 3.668 8.033 8.186-.023 4.414-3.668 7.991-8.129 7.976-4.416-.015-8.037-3.676-8.011-8.099C7.834 3.592 11.457-.012 15.917 0zm9.155 19.218c-.988 1.014-2.178 1.749-3.499 2.261-1.249.484-2.617.728-3.972.89.205.223.301.332.429.46 1.838 1.848 3.685 3.687 5.517 5.54.624.632.754 1.415.411 2.148-.375.803-1.217 1.33-2.042 1.274-.523-.036-.931-.296-1.293-.66-1.388-1.396-2.801-2.767-4.16-4.189-.397-.414-.586-.335-.936.024a274.614 274.614 0 0 1-4.241 4.258c-.641.632-1.403.746-2.147.385-.79-.382-1.292-1.189-1.254-2.001.027-.547.297-.967.673-1.342 1.82-1.816 3.634-3.638 5.449-5.458.121-.121.232-.249.407-.437-2.475-.259-4.707-.868-6.618-2.362-.238-.186-.482-.365-.698-.574-.837-.803-.921-1.724-.26-2.671.567-.811 1.517-1.028 2.505-.562.192.09.374.203.548.323 3.561 2.447 8.453 2.514 12.028.109.354-.27.733-.493 1.172-.605.852-.22 1.649.094 2.106.841.523.853.517 1.685-.127 2.347z"/></symbol><symbol viewBox="0 0 32 32" id="password-ok" xmlns="http://www.w3.org/2000/svg"><path d="M21.125 22.873a1.25 1.25 0 1 0 0-2.5 1.25 1.25 0 0 0 0 2.5z"/><path d="M14.875 29.5H5A2.503 2.503 0 0 1 2.5 27V16.75c0-1.378 1.122-2.5 2.5-2.5h18c1.379 0 2.5 1.121 2.5 2.5v2.5a1.25 1.25 0 0 0 2.5 0v-2.5c0-2.757-2.243-5-5-5h-1.502V7.342c0-4.048-3.364-7.342-7.5-7.342s-7.5 3.293-7.5 7.342v4.408H5c-2.757 0-5 2.243-5 5V27c0 2.757 2.243 5 5 5h9.875a1.25 1.25 0 0 0 0-2.5zM8.998 7.342c0-2.67 2.243-4.842 5-4.842s5 2.172 5 4.842v4.408h-10V7.342z"/><path d="M31.478 20.357a1.25 1.25 0 0 0-1.744.289l-6.161 8.606a.71.71 0 0 1-1.027.054l-3.982-3.886a1.25 1.25 0 0 0-1.746 1.79l3.989 3.893.011.011a3.224 3.224 0 0 0 2.429.879 3.225 3.225 0 0 0 2.292-1.194c.015-.018.028-.037.042-.056l6.186-8.641a1.25 1.25 0 0 0-.289-1.744zm-15.103 2.516a1.25 1.25 0 1 0 0-2.5 1.25 1.25 0 0 0 0 2.5zm-9.375 0a1.25 1.25 0 1 0 0-2.5 1.25 1.25 0 0 0 0 2.5zm4.688 0a1.25 1.25 0 1 0 0-2.5 1.25 1.25 0 0 0 0 2.5z"/></symbol><symbol viewBox="0 0 32 32" id="pinterest" xmlns="http://www.w3.org/2000/svg"><path d="M9.606 30.579C2.561 27.635-2.024 19.246.892 10.725c2.885-8.429 12.217-12.843 20.62-9.722 8.427 3.129 12.595 12.428 9.328 20.763-3.382 8.63-12.449 11.683-19.248 9.53.508-1.255 1.087-2.494 1.51-3.783.425-1.295.697-2.64 1.016-3.887.275.231.551.476.84.705 1.502 1.187 3.202 1.302 4.982.874 1.892-.455 3.387-1.528 4.495-3.105 1.873-2.667 2.534-5.685 2.081-8.86-.468-3.284-2.412-5.66-5.46-6.856-4.592-1.803-8.946-1.196-12.717 2.108-2.9 2.541-3.875 6.849-2.48 10.203.484 1.163 1.248 2.075 2.404 2.623.586.278.835.165 1.004-.447.013-.046.028-.09.045-.135.325-.856.249-1.56-.329-2.387-1.053-1.507-.865-3.251-.357-4.921.963-3.169 3.794-5.283 7.115-5.314.889-.008 1.805.068 2.666.278 2.562.625 4.216 2.606 4.382 5.233.133 2.107-.196 4.153-1.112 6.077-.454.952-1.052 1.799-1.943 2.399-.837.563-1.752.79-2.745.531-1.368-.357-2.145-1.605-1.799-2.975.359-1.419.823-2.812 1.174-4.233.149-.601.227-1.253.166-1.865-.166-1.667-1.742-2.444-3.214-1.631-1.031.57-1.528 1.523-1.758 2.625-.237 1.136-.122 2.255.247 3.357.074.221.085.495.033.723-.669 2.917-1.384 5.824-2.018 8.749-.185.853-.151 1.755-.212 2.634-.012.168-.002.338-.002.563z"/></symbol><symbol viewBox="0 0 1024 1024" id="question" xmlns="http://www.w3.org/2000/svg"><path d="M548.314 73.122c-262.722 0-475.689 196.492-475.689 438.876 0 65.853 15.748 128.298 43.91 184.352L4.014 899.809a32.108 32.108 0 0 0 2.863 35.401 32.124 32.124 0 0 0 25.237 12.256 31.98 31.98 0 0 0 8.497-1.153l246.322-67.606c75.008 45.603 164.821 72.17 261.38 72.17 262.714 0 475.687-196.49 475.687-438.88 0-242.385-212.972-438.876-475.687-438.876zm-.8 664.352c-25.965 0-47.078-21.12-47.078-47.082 0-25.959 21.12-47.078 47.078-47.078 25.965 0 47.082 21.12 47.082 47.078.004 25.959-21.114 47.082-47.082 47.082zm49.325-223.964c-6.185 4.227-10.458 7.344-12.771 9.299v49.196c0 20.15-16.4 36.544-36.547 36.544-20.153 0-36.544-16.394-36.544-36.544v-53.001c0-35.34 25.792-52.97 44.628-65.837 20.326-13.888 33.754-23.066 33.754-51.719 0-23.069-18.765-41.837-41.837-41.837s-41.834 18.768-41.834 41.837c0 20.153-16.396 36.544-36.551 36.544-20.15 0-36.547-16.39-36.547-36.544 0-63.369 51.559-114.924 114.931-114.924 63.364 0 114.921 51.556 114.921 114.924.006 67.239-41.066 95.303-65.603 112.06z"/></symbol><symbol viewBox="0 0 32 32" id="reply" xmlns="http://www.w3.org/2000/svg"><path d="M14.952 20.576H2.161V9.97l10.587 7.297c.368.255.889.253 1.255.002l10.585-7.298v4.999c.073.028.151.037.219.076.761.391 1.233 1.146 1.233 1.979v.706c.238.056.477.118.714.185V7.944a.856.856 0 0 0-.015-.15c.007-.056.015-.111.015-.167V6.379c0-.576-.486-1.044-1.083-1.044H1.082C.485 5.335 0 5.803 0 6.379v1.299c0 .051.004.1.011.143A.712.712 0 0 0 0 7.944v13.68c0 .576.486 1.044 1.082 1.044h14.202a2.183 2.183 0 0 1-.483-1.347 2.16 2.16 0 0 1 .151-.743zm9.165-13.153l-10.742 7.525L2.568 7.423h21.549z"/><path d="M24.273 19.287v-2.586a.347.347 0 0 0-.187-.305.364.364 0 0 0-.368.018l-7.395 4.809a.348.348 0 0 0-.16.287c0 .114.06.224.16.285l7.391 4.809c.109.07.249.079.368.021a.352.352 0 0 0 .189-.304v-2.783c1.164.009 2.123.056 2.925.15 3.846.442 4.075 2.674 4.119 2.767a.357.357 0 0 0 .397.204.35.35 0 0 0 .288-.338c0-5.631-6.119-6.834-7.726-7.034z"/></symbol><symbol viewBox="0 0 32 32" id="rewind-left" xmlns="http://www.w3.org/2000/svg"><path d="M31.767 2.376c-.155-.071-.345.006-.571.23L18.518 15.201a.818.818 0 0 0-.232.337V2.943c0-.307-.078-.497-.232-.568s-.345.006-.572.231L4.804 15.202a.818.818 0 0 0-.232.337V3.511c0-.308-.113-.574-.339-.798s-.494-.337-.804-.337H1.143c-.31 0-.577.112-.804.337S0 3.204 0 3.511v24.978c0 .308.113.573.339.798s.494.337.804.337h2.286c.309 0 .577-.113.803-.337s.339-.491.339-.798V16.461c.048.118.125.231.232.337l12.679 12.596c.226.225.416.302.571.231s.232-.26.232-.568V16.461c.048.118.125.231.232.337l12.678 12.596c.226.225.416.302.572.231s.232-.26.232-.568V2.943c0-.308-.078-.497-.233-.568z"/></symbol><symbol viewBox="0 0 32 32" id="rewind-right" xmlns="http://www.w3.org/2000/svg"><path d="M.232 2.286c.155-.071.345.006.571.232l12.678 12.678a.818.818 0 0 1 .232.339V2.857c0-.309.077-.5.232-.571s.345.006.572.232l12.678 12.678a.81.81 0 0 1 .232.339V3.428c0-.31.113-.578.339-.804s.494-.339.804-.339h2.286c.31 0 .577.113.804.339s.339.494.339.804V28.57c0 .31-.113.577-.339.804s-.494.339-.804.339H28.57c-.309 0-.577-.113-.803-.339s-.339-.494-.339-.804V16.463a1.023 1.023 0 0 1-.232.339L14.517 29.48c-.226.226-.416.304-.571.233s-.232-.262-.232-.572V16.462a1.013 1.013 0 0 1-.232.339L.804 29.479c-.226.226-.416.304-.571.233s-.232-.262-.232-.572V2.855c0-.31.078-.5.232-.571z"/></symbol><symbol viewBox="0 0 32 32" id="skype" xmlns="http://www.w3.org/2000/svg"><path d="M30.388 18.639c.18-.925.275-1.881.275-2.859C30.663 7.56 24 .897 15.78.897c-.978 0-1.933.095-2.859.275A8.591 8.591 0 0 0 1.172 12.921c-.18.925-.275 1.881-.275 2.859C.897 24 7.56 30.663 15.78 30.663c.978 0 1.933-.095 2.859-.275a8.591 8.591 0 0 0 11.749-11.749zm-14.325 7.363c-5.289 0-7.933-1.983-8.746-4.475s.966-3.204 1.526-3.255c.559-.051 1.746.085 2.085 1.119.352 1.075 1.526 3.204 4.068 3.458s4.221-.915 4.729-2.136c.509-1.22-.407-2.899-4.322-3.458s-7.984-2.288-7.984-6.204 4.475-5.492 8.747-5.492 6.437 2.413 6.916 3.356c.593 1.17.39 3.118-1.017 3.458-1.475.356-2.237-.458-3.305-2.441-1.104-2.051-5.034-1.526-6.356-.356s-.966 2.848 4.526 3.916 7.526 3.051 7.526 6.153-3.102 6.356-8.391 6.356z"/></symbol><symbol viewBox="0 0 32 32" id="success" xmlns="http://www.w3.org/2000/svg"><path d="M22 10.128l-7.744 7.888-3.968-3.984L8.16 16.16l6.256 6.24 10.048-9.744L22 10.128z"/><path d="M16 0C7.164 0 0 7.163 0 16s7.163 16 16 16 16-7.164 16-16S24.836 0 16 0zm0 29.104C8.763 29.104 2.896 23.237 2.896 16S8.763 2.896 16 2.896c7.233.009 13.095 5.87 13.104 13.104 0 7.237-5.867 13.104-13.104 13.104z"/></symbol><symbol viewBox="0 0 1024 1024" id="success-2" xmlns="http://www.w3.org/2000/svg"><path d="M512 0C229.69 0 0 229.672 0 512s229.69 512 512 512 512-229.672 512-512S794.31 0 512 0zm0 984.615C251.412 984.615 39.385 772.588 39.385 512S251.413 39.385 512 39.385c260.588 0 472.615 212.028 472.615 472.615S772.588 984.615 512 984.615z"/><path d="M753.27 302L450.619 642.48 268.288 496.619c-8.467-6.793-20.894-5.395-27.668 3.072-6.793 8.508-5.414 20.894 3.072 27.689l196.924 157.537a19.65 19.65 0 0 0 12.306 4.314 19.66 19.66 0 0 0 14.732-6.617L782.73 328.153c7.227-8.115 6.499-20.58-1.634-27.787-8.153-7.245-20.578-6.517-27.825 1.634z"/></symbol><symbol viewBox="0 0 1024 1024" id="task-ok" xmlns="http://www.w3.org/2000/svg"><path d="M116.771 839.26V111.903h613.115v610.862l116.818-92.447V55.952c0-30.895-26.127-55.951-58.373-55.951H58.374C26.129.001 0 25.057 0 55.952v839.239c0 30.894 26.128 55.951 58.374 55.951h509.562L485.387 839.26H116.77z"/><path d="M1014.846 601.539c-10.752-9.718-27.284-10.179-38.61-1.244L708.404 812.376l-178.488-102.6c-11.848-6.794-27.016-4.767-36.453 4.992-9.369 9.672-10.392 24.335-2.41 35.144l193.425 262.257c5.412 7.342 14.213 11.745 23.583 11.832h.271c9.277 0 18.033-4.204 23.537-11.438l286.525-374.159c8.643-11.351 7.163-27.146-3.548-36.864zM598.539 195.828H248.138c-32.245 0-58.374 25.056-58.374 55.951s26.128 55.951 58.374 55.951h350.381c32.246 0 58.348-25.056 58.348-55.951s-26.081-55.951-58.327-55.951zm0 167.83H248.138c-32.245 0-58.374 25.056-58.374 55.951s26.128 55.951 58.374 55.951h350.381c32.246 0 58.348-25.034 58.348-55.951.072-30.895-26.081-55.951-58.327-55.951zm0 167.854H248.138c-32.245 0-58.374 25.052-58.374 55.951 0 30.894 26.128 55.951 58.374 55.951h350.381c32.246 0 58.348-25.057 58.348-55.951.072-30.899-26.081-55.951-58.327-55.951z"/></symbol><symbol viewBox="0 0 32 32" id="telegram" xmlns="http://www.w3.org/2000/svg"><path d="M29.572 2.699L.672 13.961c-.936.365-.879 1.708.084 1.993L8.1 18.123l2.741 8.697a1.261 1.261 0 0 0 2.104.503l3.797-3.877 7.45 5.468c.912.669 2.21.172 2.442-.935l4.934-23.59c.242-1.156-.895-2.118-1.995-1.69zm-3.624 5.235L12.524 19.805a.72.72 0 0 0-.239.46l-.517 4.594c-.017.15-.227.17-.271.026l-2.126-6.852a.722.722 0 0 1 .309-.827l15.852-9.832c.365-.226.738.276.416.56z"/></symbol><symbol viewBox="0 0 32 32" id="trash" xmlns="http://www.w3.org/2000/svg"><path d="M22.099 11.033l-2.505-.092-.543 14.83 2.505.092.543-14.83zm-4.846-.046h-2.506v14.83h2.506v-14.83zm-4.304 14.784l-.543-14.83-2.505.092.543 14.83 2.505-.092z"/><path d="M1.086 4.804V7.31h2.612L5.77 30.856a1.253 1.253 0 0 0 1.248 1.143h17.921c.65 0 1.192-.497 1.248-1.144l2.072-23.546h2.654V4.803H1.085zm22.705 24.69H8.165L6.213 7.311h19.53l-1.952 22.183z"/><path d="M20.093 0h-8.188a2.091 2.091 0 0 0-2.089 2.089v3.969h2.506V2.507h7.352v3.551h2.507V2.089A2.091 2.091 0 0 0 20.092 0z"/></symbol><symbol viewBox="0 0 20 32" id="tumblr" xmlns="http://www.w3.org/2000/svg"><path d="M19.542 25.142v5.02a14.56 14.56 0 0 1-6.4 1.711c-.138.005-.276.015-.415.022-.303 0-.95-.008-.971-.008a14.013 14.013 0 0 1-1.446-.114 10.503 10.503 0 0 1-2.303-.564c-1.185-.442-2.229-1.097-3.095-2.027-.671-.721-1.121-1.551-1.299-2.527a12.579 12.579 0 0 1-.188-2.25c-.003-3.744-.002-7.573-.002-11.317H-.002V8.522c.379-.15.76-.281 1.129-.452 1.955-.908 3.385-2.348 4.293-4.302.444-.957.693-1.973.864-3.01.042-.252.075-.505.112-.757h4.523l.002 8.08h7.567v5.007h-7.57s.005 8.908.012 9.205c.016.677.049 1.352.152 2.023.112.721.472 1.28 1.08 1.679a4.365 4.365 0 0 0 1.959.691 6.844 6.844 0 0 0 2.093-.117c1.208-.243 2.304-.751 3.328-1.426z"/></symbol><symbol viewBox="0 0 32 32" id="twitter" xmlns="http://www.w3.org/2000/svg"><path d="M31.872 5.905c-1.172.52-2.433.871-3.756 1.028a6.558 6.558 0 0 0 2.876-3.617 13.086 13.086 0 0 1-4.152 1.586 6.533 6.533 0 0 0-4.774-2.064 6.54 6.54 0 0 0-6.369 8.029A18.564 18.564 0 0 1 2.219 4.034a6.511 6.511 0 0 0-.886 3.288 6.54 6.54 0 0 0 2.909 5.443 6.504 6.504 0 0 1-2.962-.819v.083a6.543 6.543 0 0 0 5.246 6.411 6.523 6.523 0 0 1-2.952.113 6.546 6.546 0 0 0 6.108 4.541 13.119 13.119 0 0 1-8.122 2.799c-.527 0-1.048-.031-1.559-.092a18.495 18.495 0 0 0 10.023 2.938c12.027 0 18.605-9.964 18.605-18.605 0-.283-.006-.566-.019-.846a13.256 13.256 0 0 0 3.263-3.384z"/></symbol><symbol viewBox="0 0 1024 1024" id="user" xmlns="http://www.w3.org/2000/svg"><path d="M126.181 689.382A255.998 255.998 0 0 1 307.2 614.4h409.6a255.989 255.989 0 0 1 181.018 74.982A255.985 255.985 0 0 1 972.8 870.4v102.4c0 28.278-22.922 51.2-51.2 51.2s-51.2-22.922-51.2-51.2V870.4a153.606 153.606 0 0 0-153.6-153.6H307.2c-40.737 0-79.806 16.184-108.612 44.989S153.6 829.66 153.6 870.4v102.4c0 28.278-22.923 51.2-51.2 51.2s-51.2-22.922-51.2-51.2V870.4a255.988 255.988 0 0 1 74.981-181.018zM512 102.4c-84.831 0-153.6 68.769-153.6 153.6S427.169 409.6 512 409.6c84.833 0 153.6-68.769 153.6-153.6S596.833 102.4 512 102.4zM256 256C256 114.615 370.615 0 512 0s256 114.615 256 256-114.616 256-256 256c-141.385 0-256-114.615-256-256z"/></symbol><symbol viewBox="0 0 32 32" id="viber" xmlns="http://www.w3.org/2000/svg"><path d="M30.467 7.626l-.009-.037c-.74-2.993-4.078-6.205-7.144-6.873l-.035-.007a39.69 39.69 0 0 0-14.942 0l-.036.007c-3.064.668-6.402 3.88-7.144 6.873l-.008.037a29.257 29.257 0 0 0 0 12.599l.008.037c.71 2.865 3.799 5.93 6.75 6.772v3.341c0 1.209 1.474 1.803 2.312.931l3.385-3.519c.734.041 1.469.064 2.203.064 2.496 0 4.993-.236 7.471-.709l.035-.007c3.065-.668 6.403-3.88 7.144-6.873l.009-.037c.915-4.18.915-8.419 0-12.599zm-2.679 11.993c-.494 1.953-3.029 4.38-5.042 4.829a36.989 36.989 0 0 1-7.948.642.187.187 0 0 0-.14.057l-2.472 2.537-2.629 2.698a.308.308 0 0 1-.53-.213v-5.535a.191.191 0 0 0-.155-.187H8.87c-2.014-.448-4.547-2.876-5.042-4.829a26.535 26.535 0 0 1 0-11.387c.495-1.953 3.029-4.38 5.042-4.829a36.956 36.956 0 0 1 13.875 0c2.015.449 4.548 2.876 5.042 4.829a26.504 26.504 0 0 1 0 11.387z"/><path d="M20.254 22.203c-.31-.094-.605-.157-.879-.271-2.839-1.178-5.452-2.698-7.522-5.027-1.177-1.325-2.098-2.82-2.877-4.403-.369-.751-.681-1.531-.998-2.305-.289-.707.137-1.437.585-1.969.421-.5.963-.882 1.549-1.164.458-.22.91-.093 1.244.295.723.839 1.387 1.721 1.925 2.694.331.598.24 1.329-.359 1.737-.146.099-.278.215-.414.327a1.363 1.363 0 0 0-.313.33.903.903 0 0 0-.06.793c.739 2.031 1.985 3.61 4.029 4.46.327.136.656.295 1.032.251.631-.074.835-.766 1.278-1.128.432-.353.985-.358 1.45-.063s.917.611 1.366.931c.44.314.879.621 1.285.979.391.344.525.795.305 1.262-.403.855-.989 1.567-1.834 2.021-.239.128-.524.17-.793.252-.31-.094.269-.083 0 0zm-4.28-16.172c3.714.104 6.764 2.569 7.418 6.24.111.626.151 1.265.201 1.9.021.267-.13.521-.419.524-.298.004-.432-.245-.451-.512-.038-.528-.065-1.059-.138-1.583-.384-2.766-2.59-5.055-5.344-5.546-.414-.074-.838-.093-1.258-.137-.265-.028-.613-.044-.672-.374-.049-.277.184-.497.447-.511.072-.004.144-.001.216 0 3.714.104-.072 0 0 0z"/><path d="M21.399 13.217c-.006.046-.009.155-.037.258-.099.373-.664.42-.794.043a1.135 1.135 0 0 1-.045-.359c-.001-.787-.172-1.572-.569-2.257a4.2 4.2 0 0 0-1.761-1.652 5.078 5.078 0 0 0-1.404-.431c-.212-.035-.426-.056-.638-.086-.258-.036-.395-.2-.383-.454.011-.238.185-.409.445-.394.852.048 1.675.233 2.433.634 1.541.816 2.421 2.104 2.678 3.824.012.078.03.155.036.233.015.193.024.386.039.641-.006.046-.015-.255 0 0z"/><path d="M18.989 12.948c-.311.006-.477-.166-.509-.451-.022-.199-.04-.4-.087-.593-.093-.381-.296-.733-.616-.966a1.609 1.609 0 0 0-.502-.242c-.228-.066-.465-.048-.692-.103-.247-.06-.384-.26-.345-.492a.447.447 0 0 1 .471-.359c1.44.104 2.469.848 2.616 2.543.01.12.023.246-.004.36a.37.37 0 0 1-.332.304c-.311.006.141-.01 0 0z"/></symbol><symbol viewBox="0 0 32 32" id="vkontakte" xmlns="http://www.w3.org/2000/svg"><path d="M27.541 18.521c1.061 1.062 2.182 2.061 3.134 3.23.42.52.819 1.056 1.123 1.659.432.857.041 1.8-.709 1.851l-4.662-.002c-1.202.102-2.161-.394-2.968-1.236-.646-.674-1.243-1.391-1.864-2.087-.254-.285-.521-.552-.839-.764-.637-.423-1.189-.294-1.553.386-.37.692-.454 1.458-.491 2.229-.05 1.125-.382 1.421-1.485 1.472-2.357.114-4.593-.251-6.671-1.47-1.832-1.074-3.252-2.59-4.488-4.306-2.407-3.342-4.251-7.014-5.907-10.79-.373-.851-.1-1.307.816-1.323 1.521-.03 3.041-.028 4.564-.002.618.009 1.027.373 1.266.971.823 2.073 1.83 4.046 3.093 5.874.337.487.68.973 1.168 1.316.541.379.952.254 1.207-.363.161-.391.232-.813.268-1.232.12-1.442.136-2.881-.075-4.318-.13-.897-.623-1.477-1.496-1.647-.446-.087-.379-.256-.164-.517.375-.45.727-.729 1.43-.729h5.269c.829.168 1.014.55 1.127 1.405l.004 5.997c-.009.331.161 1.313.743 1.533.466.156.773-.226 1.052-.528 1.261-1.372 2.162-2.993 2.966-4.672.357-.738.664-1.505.961-2.271.22-.568.566-.848 1.191-.836l5.071.005c.15 0 .302.002.448.028.854.149 1.089.526.825 1.381-.416 1.341-1.225 2.459-2.016 3.582-.846 1.199-1.75 2.357-2.589 3.563-.771 1.101-.709 1.657.248 2.613z"/></symbol><symbol viewBox="0 0 1024 1024" id="warning" xmlns="http://www.w3.org/2000/svg"><path d="M1014.934 863.753L570.072 93.108c-25.784-44.653-90.357-44.653-116.143 0L9.067 863.753c-25.786 44.652 6.498 100.628 58.071 100.628h889.724c51.574 0 83.856-55.978 58.071-100.628zm-502.303-533.33c28.509 0 51.568 23.689 50.734 52.201l-8.386 292.662c-.63 23.06-19.496 41.298-42.558 41.298s-41.93-18.447-42.559-41.298l-8.176-292.662c-.629-28.512 22.222-52.201 50.944-52.201zM512 859.771c-29.141 0-52.83-23.689-52.83-52.828 0-29.143 23.689-52.834 52.83-52.834 29.139 0 52.829 23.689 52.829 52.834 0 29.138-23.689 52.828-52.829 52.828z"/></symbol><symbol viewBox="0 0 32 32" id="whatsapp" xmlns="http://www.w3.org/2000/svg"><path d="M0 31.989l2.238-7.948a15.908 15.908 0 0 1-2.197-8.084C.041 7.158 7.199 0 15.998 0s15.957 7.158 15.957 15.957-7.158 15.957-15.957 15.957a15.94 15.94 0 0 1-7.801-2.034L0 31.99zm8.616-5.013l.488.298a13.223 13.223 0 0 0 6.893 1.932c7.306 0 13.25-5.944 13.25-13.25s-5.944-13.25-13.25-13.25-13.25 5.944-13.25 13.25c0 2.546.724 5.018 2.092 7.149l.329.512-1.289 4.577 4.736-1.219z"/><path d="M11.357 8.744l-1.035-.056a1.253 1.253 0 0 0-.89.304c-.502.436-1.305 1.279-1.551 2.377-.368 1.637.2 3.642 1.671 5.647s4.211 5.213 9.056 6.583c1.561.442 2.79.144 3.737-.462a3.339 3.339 0 0 0 1.454-2.122l.165-.772a.535.535 0 0 0-.3-.599l-3.499-1.613a.536.536 0 0 0-.649.16l-1.374 1.781a.393.393 0 0 1-.442.132c-.941-.331-4.092-1.65-5.821-4.981a.398.398 0 0 1 .05-.443l1.313-1.519a.536.536 0 0 0 .087-.562L11.821 9.07a.536.536 0 0 0-.464-.325z"/></symbol><symbol viewBox="0 0 32 32" id="youtube" xmlns="http://www.w3.org/2000/svg"><path d="M25.354 4H6.646C2.976 4 0 7.154 0 11.044v9.912C0 24.846 2.975 28 6.646 28h18.708C29.024 28 32 24.846 32 20.956v-9.912C32 7.154 29.024 4 25.354 4zm-4.495 12.482l-8.75 4.423c-.233.118-.502-.062-.502-.336v-9.123c0-.278.276-.458.51-.332l8.75 4.7c.26.14.256.535-.008.668z"/></symbol><symbol viewBox="0 0 32 32" id="youtube2" xmlns="http://www.w3.org/2000/svg"><path d="M19.297 21.95a1.37 1.37 0 0 0-.11-.486c-.081-.201-.254-.301-.471-.322-.255-.025-.459.078-.643.241a.427.427 0 0 0-.108.161l.004 5.188v.128s.044.06.051.067c.15.162.325.291.549.337.369.076.63-.078.702-.42a1.28 1.28 0 0 0 .029-.261c.002-1.545.005-3.089-.003-4.633zm0 0a1.37 1.37 0 0 0-.11-.486c-.081-.201-.254-.301-.471-.322-.255-.025-.459.078-.643.241a.427.427 0 0 0-.108.161l.004 5.188v.128s.044.06.051.067c.15.162.325.291.549.337.369.076.63-.078.702-.42a1.28 1.28 0 0 0 .029-.261c.002-1.545.005-3.089-.003-4.633zm5.809-7.824a428.594 428.594 0 0 0-18.423 0 3.919 3.919 0 0 0-3.834 3.918v9.59a3.918 3.918 0 0 0 3.834 3.919c6.141.132 12.284.132 18.423 0a3.92 3.92 0 0 0 3.835-3.919v-9.59a3.918 3.918 0 0 0-3.835-3.918zM8.486 28.508H6.715v-10.01H4.882v-1.675h5.441v1.671H8.486v10.014zm6.337-4.154v4.156h-1.568v-.95c-.057.061-.088.093-.118.127-.337.381-.72.698-1.208.866-.238.082-.484.11-.734.066-.342-.057-.572-.254-.71-.565-.129-.287-.162-.595-.162-.905-.004-1.144-.002-7.198-.002-7.257h1.564c.003.053.009 4.399.01 6.519 0 .115.001.234.024.346.058.285.276.407.55.307.315-.115.556-.333.758-.593.03-.038.03-.105.03-.159v-6.429l1.569-.004v4.475zm5.965 3.325c-.21.631-.671.952-1.334.945-.539-.005-.977-.219-1.337-.61l-.152-.162v.656h-1.571V16.823h1.571v3.846s.088-.177.169-.268c.243-.272.539-.483.905-.575.603-.151 1.298.036 1.628.74.195.416.25.86.25 1.312.003 1.633.003 3.267.001 4.9a2.87 2.87 0 0 1-.13.901zm5.802-.329c-.272.797-.834 1.239-1.659 1.36-.511.075-1.018.064-1.498-.153-.657-.296-1.029-.832-1.188-1.513a4.51 4.51 0 0 1-.114-.976c-.012-1.279-.007-2.56-.004-3.839.001-.669.161-1.286.619-1.799.523-.585 1.192-.804 1.956-.755.23.014.464.052.683.124.743.244 1.14.801 1.296 1.539.06.285.082.58.087.871.012.683-.005 2.187-.005 2.187h-3.008v2.156a.7.7 0 1 0 1.401 0v-1.108h1.616s.024 1.308-.181 1.905zm-1.435-5.501a.701.701 0 1 0-1.401 0v1.21h1.401v-1.21zm-5.967-.385c-.081-.201-.254-.301-.471-.322-.255-.025-.459.078-.643.241a.427.427 0 0 0-.108.161l.004 5.188v.128s.044.06.051.067c.15.162.325.291.549.337.369.076.63-.078.702-.42a1.28 1.28 0 0 0 .029-.261c.002-1.545.005-3.089-.003-4.633a1.365 1.365 0 0 0-.11-.486zm3.975-18.396v8.675h-1.607l.002-.932c-.178.175-.329.339-.496.485-.296.26-.63.454-1.022.531-.601.118-1.113-.072-1.305-.695a2.297 2.297 0 0 1-.104-.647V3.068h1.595v6.616c0 .088.007.176.022.262.048.273.25.401.512.31.32-.111.564-.332.771-.593.029-.037.024-.107.024-.162V3.068h1.607zM10.142 4.576C9.793 3.105 9.062 0 9.062 0H7.233s1.405 4.661 2.034 6.74a.816.816 0 0 1 .033.236l-.001 4.767h1.687l-.001-4.767c0-.079.01-.16.033-.236C11.647 4.661 13.052 0 13.052 0h-1.829s-.731 3.105-1.08 4.576h-.001zm5.091-1.946a2.302 2.302 0 0 0-2.302 2.302v4.505a2.302 2.302 0 0 0 4.604 0V4.932a2.302 2.302 0 0 0-2.302-2.302zm.665 6.897a.665.665 0 0 1-1.328 0V4.84a.665.665 0 0 1 1.328 0v4.687z"/></symbol></svg>