<?xml version="1.0" standalone="no"?>
<!DOCTYPE svg PUBLIC "-//W3C//DTD SVG 1.1//EN" "http://www.w3.org/Graphics/SVG/1.1/DTD/svg11.dtd" >
<svg xmlns="http://www.w3.org/2000/svg" xmlns:xlink="http://www.w3.org/1999/xlink" version="1.1">
<metadata>
Created by FontForge 20161003 at Sun Dec  9 11:11:52 2018
 By www-data
</metadata>
<defs>
<font id="SkodaPro_ExtraBold" horiz-adv-x="778" >
  <font-face 
    font-family="SkodaPro_ExtraBold"
    font-weight="800"
    font-stretch="normal"
    units-per-em="2048"
    panose-1="2 0 0 0 0 0 0 0 0 0"
    ascent="1638"
    descent="-410"
    x-height="1071"
    cap-height="1475"
    bbox="-993 -481 2906 1948"
    underline-thickness="102"
    underline-position="-307"
    unicode-range="U+0020-FB02"
  />
<missing-glyph horiz-adv-x="1022" 
 />
    <glyph glyph-name=".notdef" horiz-adv-x="1022" 
 />
    <glyph glyph-name=".null" horiz-adv-x="0" 
 />
    <glyph glyph-name="nonmarkingreturn" horiz-adv-x="508" 
 />
    <glyph glyph-name="space" unicode=" " horiz-adv-x="508" 
 />
    <glyph glyph-name="exclam" unicode="!" horiz-adv-x="627" 
d="M179 614q-20 0 -20 20l-21 821q0 21 20 22l313 37q20 1 20 -18l-21 -862q0 -20 -20 -20h-271zM160 0q-20 0 -20 20v300q0 21 20 22l292 35q20 1 20 -18v-339q0 -20 -20 -20h-292z" />
    <glyph glyph-name="quotedbl" unicode="&#x22;" horiz-adv-x="1003" 
d="M130 889q-20 0 -20 20v546q0 11 4.5 15.5t15.5 6.5l274 26q11 1 15.5 -3t4.5 -15v-576q0 -20 -20 -20h-274zM599 889q-20 0 -20 20v546q0 11 4.5 15.5t15.5 6.5l274 26q11 1 15.5 -3t4.5 -15v-576q0 -20 -20 -20h-274z" />
    <glyph glyph-name="numbersign" unicode="#" horiz-adv-x="1501" 
d="M751 0q-20 0 -17 20l39 256h-186l-39 -256q-3 -20 -23 -20h-294q-20 0 -17 20l39 256h-172q-20 0 -19 20l21 282q1 20 21 20h198l43 281h-190q-20 0 -19 20l19 279q1 20 21 20h217l40 257q3 20 23 20h294q20 0 17 -20l-40 -257h186l40 257q3 20 23 20h294q20 0 17 -20
l-40 -257h173q20 0 19 -20l-19 -279q-1 -20 -21 -20h-200l-43 -281h192q20 0 19 -20l-20 -282q-1 -20 -21 -20h-219l-39 -256q-3 -20 -23 -20h-294zM679 879l-43 -281h186l43 281h-186z" />
    <glyph glyph-name="dollar" unicode="$" horiz-adv-x="1207" 
d="M496 -215q-20 0 -20 20v195q-91 2 -176 8.5t-162 20.5q-20 4 -17 24l44 249q4 20 24 17q66 -11 137 -15.5t151 -6.5l6 324l-74 20q-118 32 -187 74t-105 94.5t-46.5 117t-10.5 142.5q0 93 25 162t76 117t129.5 76.5t185.5 40.5v205q0 20 20 20h218q20 0 20 -20v-196
q88 -2 168.5 -9t149.5 -18q20 -3 17 -23l-41 -241q-3 -20 -23 -19q-72 5 -135.5 8t-136.5 5l-6 -317l73 -16q116 -26 185 -68.5t105 -97.5t47 -121.5t11 -140.5q0 -97 -24 -168.5t-74.5 -120.5t-129 -77.5t-186.5 -40.5v-204q0 -20 -20 -20h-218zM493 1174q-45 -4 -73 -11.5
t-44 -21t-21.5 -33t-5.5 -47.5q0 -27 4.5 -48t19.5 -38t43.5 -32t76.5 -29v260zM720 301q44 3 70.5 10.5t41 21t19 34t4.5 49.5q0 26 -4 45.5t-18.5 35.5t-41 30t-71.5 29v-255z" />
    <glyph glyph-name="percent" unicode="%" horiz-adv-x="2124" 
d="M443 590q-84 0 -155 20.5t-122 68t-79.5 125t-28.5 191.5v107q0 115 28 192.5t79 124t122 66.5t156 20t155.5 -20t121 -66.5t78.5 -124t28 -192.5v-107q0 -114 -28 -191.5t-78 -125t-121 -68t-156 -20.5zM443 1233q-52 0 -77 -29t-25 -98v-115q0 -63 25 -96t77 -33
q50 0 75.5 33t25.5 96v115q0 69 -26.5 98t-74.5 29zM1682 -31q-84 0 -155 21t-122 68.5t-79.5 125t-28.5 191.5v106q0 115 28 192.5t79 124.5t122 67t156 20t155.5 -20t121 -67t78.5 -124.5t28 -192.5v-106q0 -114 -28 -191.5t-78 -125t-121 -68.5t-156 -21zM1682 612
q-52 0 -77 -28.5t-25 -98.5v-114q0 -63 25 -96t77 -33q50 0 75.5 33t25.5 96v114q0 70 -26.5 98.5t-74.5 28.5zM498 0q-21 0 -10 18l781 1439q6 11 12.5 14.5t17.5 3.5h324q20 0 10 -18l-780 -1439q-6 -11 -12.5 -14.5t-17.5 -3.5h-325z" />
    <glyph glyph-name="ampersand" unicode="&#x26;" horiz-adv-x="1520" 
d="M1089 0q-11 0 -18 3.5t-15 11.5l-74 89q-112 -66 -238.5 -100.5t-264.5 -34.5q-104 0 -182.5 14.5t-132 59.5t-80.5 128t-27 220q0 68 5 120.5t17.5 95t34 76.5t54.5 63.5t79 58t108 59.5q-29 42 -50 79.5t-34.5 74.5t-20 75.5t-6.5 80.5q0 94 32.5 157.5t89.5 102
t135 55t169 16.5q90 0 169.5 -16.5t138 -55t92.5 -102t34 -157.5q0 -74 -11.5 -129.5t-41.5 -101.5t-82.5 -87t-134.5 -86l178 -212q44 52 78 112.5t55 129.5q4 11 9.5 15t16.5 4h292q21 0 15 -19q-38 -147 -102 -270t-152 -223l246 -292q13 -15 -7 -15h-374zM418 422
q0 -35 6.5 -57t19 -35t32 -18t46.5 -5q121 0 242 58l-214 256q-43 -25 -69 -45.5t-40 -43t-18.5 -48.5t-4.5 -62zM674 1239q-109 0 -109 -82q0 -40 21 -78.5t53 -78.5q48 24 76 42t43 35.5t19.5 36t4.5 43.5q0 42 -26 62t-82 20z" />
    <glyph glyph-name="quotesingle" unicode="'" horiz-adv-x="534" 
d="M130 889q-20 0 -20 20v546q0 11 4.5 15.5t15.5 6.5l274 26q11 1 15.5 -3t4.5 -15v-576q0 -20 -20 -20h-274z" />
    <glyph glyph-name="parenleft" unicode="(" horiz-adv-x="709" 
d="M445 522q0 -119 14 -237t40.5 -232t66 -221t90.5 -203q10 -18 -10 -18h-316q-11 0 -17.5 3.5t-12.5 13.5q-47 86 -86 183.5t-67 205.5t-43.5 227t-15.5 248v102q0 129 15.5 247.5t43.5 227t67 206t86 183.5q6 10 12.5 13.5t17.5 3.5h316q20 0 10 -18q-51 -96 -90.5 -203
t-66 -221t-40.5 -232.5t-14 -237.5v-41v0z" />
    <glyph glyph-name="parenright" unicode=")" horiz-adv-x="709" 
d="M264 563q0 119 -14 237.5t-40.5 232.5t-66 221t-90.5 203q-11 18 10 18h316q11 0 17.5 -3.5t12.5 -13.5q47 -86 86 -183.5t67 -206t43.5 -227t15.5 -247.5v-102q0 -129 -15.5 -248t-43.5 -227t-67 -205.5t-86 -183.5q-6 -10 -12.5 -13.5t-17.5 -3.5h-316q-21 0 -10 18
q51 96 90.5 203t66 221t40.5 232t14 237v41z" />
    <glyph glyph-name="asterisk" unicode="*" horiz-adv-x="1024" 
d="M74 1254q-17 10 -7 27l105 183q10 17 27 7l188 -108v214q0 20 20 20h210q20 0 20 -20v-214l188 108q17 10 27 -7l105 -183q10 -17 -7 -27l-187 -107l187 -107q17 -10 7 -27l-105 -183q-10 -17 -27 -7l-188 107v-214q0 -20 -20 -20h-210q-20 0 -20 20v214l-188 -107
q-17 -10 -27 7l-105 183q-10 17 7 27l186 107z" />
    <glyph glyph-name="plus" unicode="+" horiz-adv-x="1122" 
d="M85 604q-20 0 -20 20v280q0 20 20 20h316v320q0 20 20 20h280q20 0 20 -20v-320h316q20 0 20 -20v-280q0 -20 -20 -20h-316v-312q0 -20 -20 -20h-280q-20 0 -20 20v312h-316z" />
    <glyph glyph-name="comma" unicode="," horiz-adv-x="588" 
d="M71 -266q-20 0 -17 20l72 566q3 21 23 22l333 35q19 1 15 -17l-154 -607q-5 -19 -25 -19h-247z" />
    <glyph glyph-name="hyphen" unicode="-" horiz-adv-x="764" 
d="M142 403q-20 0 -20 20v280q0 20 20 20h480q20 0 20 -20v-280q0 -20 -20 -20h-480z" />
    <glyph glyph-name="period" unicode="." horiz-adv-x="559" 
d="M130 0q-20 0 -20 20v300q0 21 20 22l292 35q20 1 20 -18v-339q0 -20 -20 -20h-292z" />
    <glyph glyph-name="slash" unicode="/" horiz-adv-x="879" 
d="M69 0q-19 0 -15 19l404 1518q5 19 25 19h335q19 0 15 -19l-404 -1518q-5 -19 -25 -19h-335z" />
    <glyph glyph-name="zero" unicode="0" horiz-adv-x="1312" 
d="M658 -31q-87 0 -161.5 9t-136 33.5t-109 69t-80 115t-49.5 171t-17 237.5v268q0 137 17 237t49 170.5t79.5 114.5t109 68.5t135.5 33.5t161 9t162 -9t136 -33.5t108.5 -68.5t79.5 -114.5t48.5 -170.5t16.5 -237v-268q0 -137 -16.5 -237.5t-48.5 -171t-79 -115t-108 -69
t-135.5 -33.5t-161.5 -9zM656 1167q-53 0 -91 -13t-62 -47.5t-35.5 -95.5t-11.5 -157v-231q0 -96 11.5 -157.5t36.5 -96.5t63 -48.5t91 -13.5q52 0 89.5 13.5t62 48.5t36 96.5t11.5 157.5v231q0 96 -12 157t-37 95.5t-62.5 47.5t-89.5 13z" />
    <glyph glyph-name="one" unicode="1" horiz-adv-x="865" 
d="M80 1074q-19 -6 -22 15l-45 280q-3 20 16 25l319 76q20 5 39 5h310q20 0 20 -20v-1435q0 -20 -20 -20h-310q-20 0 -20 20v1122z" />
    <glyph glyph-name="two" unicode="2" horiz-adv-x="1163" 
d="M106 0q-20 0 -20 20v162q0 111 16.5 190.5t53 143t95.5 119t144 117.5l199 145q55 40 78.5 73.5t23.5 78.5q0 61 -50.5 88.5t-168.5 27.5q-25 0 -61 -1t-78 -3.5t-87.5 -7t-89.5 -11.5q-20 -3 -23 17l-45 275q-3 21 16 25q52 14 106.5 23t107 14t100.5 7t89 2
q171 0 279.5 -32t170.5 -87.5t85.5 -131t23.5 -162.5q0 -69 -12.5 -126.5t-40 -108t-70 -96.5t-102.5 -93l-141 -111q-70 -54 -111 -88t-62 -58t-26.5 -42t-5.5 -41h537q20 0 20 -20v-288q0 -20 -20 -20h-931z" />
    <glyph glyph-name="three" unicode="3" horiz-adv-x="1141" 
d="M494 -31q-112 0 -214 8.5t-180 21.5q-20 3 -19 23l18 286q1 11 5.5 15t15.5 3q97 -10 181 -11.5t158 -1.5q114 0 168.5 29t54.5 104v27q0 30 -8 54.5t-29 42t-57 27t-92 9.5h-218q-20 0 -20 20v278q0 20 20 20h209q59 0 97 8t59.5 23t30 36.5t8.5 48.5v19q0 102 -223 102
q-86 0 -164 -3t-169 -10q-20 -1 -21 19l-18 286q-1 20 19 23q75 11 172 20t205 9q133 0 236.5 -21t174 -67t107.5 -119t37 -176v-28q0 -124 -61.5 -204.5t-181.5 -115.5q55 -21 100 -53t76.5 -74t49 -93.5t17.5 -111.5v-36q0 -129 -36 -213t-105.5 -134t-171 -70t-231.5 -20
z" />
    <glyph glyph-name="four" unicode="4" horiz-adv-x="1267" 
d="M63 258q-20 0 -20 20v292q0 20 12 36l609 853q12 16 32 16h337q20 0 20 -20v-910h133q20 0 20 -20v-247q0 -20 -20 -20h-133v-238q0 -20 -20 -20h-311q-20 0 -20 20v238h-639zM397 545h305v446h-16l-289 -432v-14z" />
    <glyph glyph-name="five" unicode="5" horiz-adv-x="1135" 
d="M463 -31q-206 0 -374 46q-19 5 -16 25l43 282q3 20 23 16q40 -7 84.5 -12.5t87 -9.5t79 -6.5t59.5 -2.5q76 0 123.5 11.5t74.5 32.5t37 51.5t10 68.5v14q0 49 -12.5 84t-43.5 57t-83 32t-131 10q-31 0 -71 -2.5t-79.5 -6t-74 -7t-54.5 -5.5q-20 -1 -20 18v216q0 8 0.5 20
t1.5 20l55 534q1 20 22 20h816q20 0 17 -20l-49 -288q-3 -20 -23 -20h-490l-18 -191h43q123 0 223.5 -22t172.5 -76t111.5 -144.5t39.5 -228.5v-14q0 -137 -38 -232.5t-112 -155.5t-183 -87t-251 -27z" />
    <glyph glyph-name="six" unicode="6" horiz-adv-x="1252" 
d="M640 -31q-122 0 -222.5 34t-172 110t-111 196.5t-39.5 294.5v193q0 194 42.5 329t125 219t205 122t283.5 38q73 0 159 -9.5t180 -35.5q19 -5 16 -26l-47 -271q-3 -20 -23 -17q-36 6 -75 10t-76.5 6.5t-71.5 3.5t-60 1q-70 0 -123.5 -9t-91 -34t-59 -70.5t-28.5 -117.5
q49 8 99.5 14t116.5 6q103 0 197 -21.5t165.5 -72.5t113.5 -135.5t42 -210.5v-24q0 -124 -35 -221t-103.5 -164t-170.5 -102.5t-236 -35.5zM833 506q0 44 -16.5 72.5t-45 45t-66.5 23t-81 6.5q-35 0 -81.5 -6t-94.5 -12v-31q0 -94 13 -152t38.5 -90.5t63 -43.5t85.5 -11
q42 0 76.5 8t58.5 27.5t37 53.5t13 85v25z" />
    <glyph glyph-name="seven" unicode="7" horiz-adv-x="1100" 
d="M127 0q-20 0 -11 18l580 1129h-612q-11 0 -15.5 4.5t-6.5 15.5l-27 288q-1 11 3 15.5t15 4.5h990q20 0 20 -20v-286q0 -20 -9 -38l-531 -1113q-5 -11 -11.5 -14.5t-17.5 -3.5h-367z" />
    <glyph glyph-name="eight" unicode="8" horiz-adv-x="1290" 
d="M645 -31q-127 0 -230.5 19t-177 67t-113.5 131.5t-40 212.5v41q0 40 14.5 85.5t44 88.5t74.5 80.5t107 61.5q-51 21 -86.5 56t-58 77t-32.5 88.5t-10 91.5v35q0 112 33 188.5t97.5 124t159.5 68t218 20.5t217.5 -20.5t159 -68t98 -124t33.5 -188.5v-35q0 -45 -10 -91.5
t-32.5 -88.5t-57.5 -77t-86 -56q61 -24 106 -61.5t74.5 -80.5t44 -88.5t14.5 -85.5v-41q0 -129 -40 -212.5t-113.5 -131.5t-177 -67t-230.5 -19zM459 1049q0 -23 5.5 -47t22.5 -43.5t49 -31.5t85 -12h49q53 0 84.5 12t48.5 31.5t22.5 43.5t5.5 47v14q0 38 -8.5 63.5
t-29.5 40.5t-57 21t-91 6q-54 0 -90 -6t-57.5 -21t-30 -40.5t-8.5 -63.5v-14zM621 592q-64 0 -102.5 -16.5t-59 -39t-27 -46.5t-6.5 -39v-21q0 -42 11 -70.5t37 -46t67.5 -25t103.5 -7.5q61 0 103 7.5t68 25t37 46t11 70.5v21q0 15 -6.5 39t-27 46.5t-58.5 39t-102 16.5h-49
z" />
    <glyph glyph-name="nine" unicode="9" horiz-adv-x="1258" 
d="M508 -31q-77 0 -168.5 11.5t-191.5 37.5q-19 5 -16 25l45 279q3 20 23 16q39 -8 81 -14t82.5 -10t77.5 -5.5t65 -1.5q69 0 121.5 8.5t90 32.5t59.5 67.5t30 112.5q-49 -8 -100 -14t-115 -6q-113 0 -208 22t-164 74t-107.5 138.5t-38.5 215.5v25q0 124 32 221t98.5 164
t169 102t244.5 35q122 0 222.5 -34.5t172 -111.5t111 -199.5t39.5 -299.5v-182q0 -194 -42 -329t-125 -219.5t-205.5 -122.5t-282.5 -38zM426 969q0 -47 13 -77.5t39.5 -48.5t65.5 -25t91 -7q34 0 80.5 2.5t95.5 6.5v50q0 95 -13.5 153.5t-39 90.5t-63 42.5t-85.5 10.5
t-83 -8t-57.5 -27.5t-33 -53.5t-10.5 -85v-24z" />
    <glyph glyph-name="colon" unicode=":" horiz-adv-x="618" 
d="M158 0q-20 0 -20 20v300q0 21 20 22l292 35q20 1 20 -18v-339q0 -20 -20 -20h-292zM158 676q-20 0 -20 20v300q0 21 20 22l292 35q20 1 20 -18v-339q0 -20 -20 -20h-292z" />
    <glyph glyph-name="semicolon" unicode=";" horiz-adv-x="624" 
d="M105 -266q-20 0 -17 20l72 566q3 21 23 22l333 35q19 1 15 -17l-154 -607q-5 -19 -25 -19h-247zM182 676q-20 0 -20 20v300q0 21 20 22l292 35q20 1 20 -18v-339q0 -20 -20 -20h-292z" />
    <glyph glyph-name="less" unicode="&#x3c;" horiz-adv-x="1022" 
d="M77 572q-11 6 -14.5 12.5t-3.5 17.5v293q0 11 3.5 17.5t14.5 12.5l755 413q10 5 15 3t8 -12l72 -288q3 -11 0.5 -17t-13.5 -11l-560 -265l560 -266q11 -5 13.5 -11t-0.5 -17l-72 -288q-3 -10 -8 -12t-15 3z" />
    <glyph glyph-name="equal" unicode="=" horiz-adv-x="1214" 
d="M152 356q-20 0 -20 20v280q0 20 20 20h910q20 0 20 -20v-280q0 -20 -20 -20h-910zM152 924q-20 0 -20 20v279q0 20 20 20h910q20 0 20 -20v-279q0 -20 -20 -20h-910z" />
    <glyph glyph-name="greater" unicode="&#x3e;" horiz-adv-x="1022" 
d="M190 157q-10 -5 -15 -3t-8 12l-72 288q-3 11 -0.5 17t13.5 11l560 266l-560 265q-11 5 -13.5 11t0.5 17l72 288q3 10 8 12t15 -3l755 -413q11 -6 14.5 -12.5t3.5 -17.5v-293q0 -11 -3.5 -17.5t-14.5 -12.5z" />
    <glyph glyph-name="question" unicode="?" horiz-adv-x="953" 
d="M557 517q0 -11 -11 -11h-292q-19 0 -24 19q-4 14 -7.5 38.5t-3.5 59.5q0 28 4 58.5t16.5 63t35.5 66.5t61 70l82 75q24 23 41.5 40t29 31.5t16.5 29t5 33.5q0 37 -33.5 56t-118.5 19q-57 0 -112 -6t-122 -17q-20 -3 -23 17l-45 276q-3 20 16 25q71 22 162 33.5t192 11.5
q109 0 196.5 -18t149 -56.5t94.5 -99.5t33 -147v-19q0 -51 -9.5 -91.5t-29 -77t-49.5 -73t-72 -79.5l-94 -99q-29 -30 -46.5 -51t-26.5 -42.5t-12 -49t-3 -72.5v-13zM245 0q-20 0 -20 20v300q0 21 20 22l292 35q20 1 20 -18v-339q0 -20 -20 -20h-292z" />
    <glyph glyph-name="at" unicode="@" horiz-adv-x="1925" 
d="M389 528q-13 -97 -13.5 -183.5t18 -159t58.5 -130t108.5 -98t168.5 -63t238 -23.5q11 0 15 -4.5t3 -15.5l-27 -241q-1 -20 -22 -20q-266 2 -441 60t-274.5 174.5t-130.5 292.5t-10 415l14 150q21 203 97 356.5t202 257t297.5 155.5t382.5 52q397 0 590.5 -184t193.5 -537
q0 -216 -63 -359.5t-186 -229.5t-305.5 -121.5t-421.5 -36.5h-15q-97 0 -163.5 21t-105.5 71.5t-51.5 134.5t-0.5 209l14 143q12 120 38.5 202t76.5 133t128 73t193 22q89 0 181.5 -11t177.5 -24q20 -3 19 -23l-28 -629q52 19 88.5 51t59.5 82.5t33 122.5t10 171
q0 113 -24.5 195.5t-83 136.5t-154.5 80.5t-240 26.5q-67 0 -135 -7.5t-132 -28.5t-121.5 -58.5t-104.5 -98t-81 -147t-51 -205.5zM958 764q-23 0 -37 -9.5t-23 -32t-14.5 -59.5t-11.5 -92l-6 -65q-6 -63 -6 -99.5t10 -54.5t32 -23t60 -5q13 0 33 1t35 3l16 430q-45 6 -88 6
z" />
    <glyph glyph-name="A" unicode="A" horiz-adv-x="1372" 
d="M16 0q-20 0 -14 19l436 1437q4 11 9.5 15t16.5 4h442q11 0 16.5 -4t9.5 -15l438 -1437q6 -19 -14 -19h-345q-20 0 -25 19l-60 221h-483l-59 -221q-5 -19 -25 -19h-343zM684 1135l-158 -588h318z" />
    <glyph glyph-name="B" unicode="B" horiz-adv-x="1367" 
d="M562 -18q-35 0 -81.5 1t-99 3t-108 4.5t-107.5 6.5q-20 1 -20 21v1437q0 20 20 21q43 3 95.5 5.5t108 5t110.5 3.5t103 1q179 0 301 -18t197 -62t108 -118.5t33 -187.5q0 -91 -34 -159t-94 -113q44 -24 81 -57.5t64 -78t42.5 -99.5t15.5 -121v-35q0 -152 -49 -243
t-142.5 -139t-230.5 -63t-313 -15zM945 451q0 44 -13 71.5t-37 43t-59 21t-79 5.5h-260v-295q13 -1 32.5 -1.5l39 -1t37 -1t28.5 -0.5q89 0 148.5 4.5t95.5 18.5t51.5 41.5t15.5 72.5v21zM658 1180q-42 0 -77.5 -0.5t-83.5 -3.5v-283h237q28 1 53 7.5t43 22t28.5 41.5
t10.5 66v14q0 46 -13.5 73t-40 41t-66 18t-91.5 4z" />
    <glyph glyph-name="C" unicode="C" horiz-adv-x="1212" 
d="M749 -31q-155 0 -277.5 34t-207 114.5t-129 213.5t-44.5 331v153q0 196 44.5 328.5t129 213t207 114.5t277.5 34q54 0 107.5 -3.5t102.5 -10.5t92.5 -17t77.5 -23q11 -4 14.5 -9.5t1.5 -16.5l-45 -272q-3 -20 -23 -16q-78 17 -157 23.5t-157 6.5t-138 -17t-100.5 -57
t-61 -105.5t-20.5 -162.5v-174q0 -98 20.5 -163.5t60.5 -106t100 -57.5t139 -17q83 0 165 5t163 15q20 3 23 -17l39 -279q3 -20 -16 -24q-35 -9 -79.5 -16t-94.5 -12t-104.5 -7.5t-109.5 -2.5z" />
    <glyph glyph-name="D" unicode="D" horiz-adv-x="1428" 
d="M513 -16q-31 0 -72.5 1t-88 2.5t-94.5 4t-92 6.5q-20 1 -20 22v1435q0 20 20 21q39 3 86.5 5.5t95.5 5t91.5 3.5t73.5 1q124 0 234 -10t202 -37t165.5 -75.5t124.5 -125.5t78 -187.5t27 -260.5v-113q0 -150 -27 -260.5t-78 -188t-124.5 -126t-165.5 -76t-202 -37.5
t-234 -10zM593 1180q-22 0 -48.5 -1.5t-47.5 -4.5v-873q9 -2 25 -3t33.5 -1.5t33.5 -1t24 -0.5q97 0 168 15t118 57t70 117t23 194v119q0 118 -24.5 192.5t-74 117t-124.5 58t-176 15.5z" />
    <glyph glyph-name="E" unicode="E" horiz-adv-x="1212" 
d="M168 0q-20 0 -20 20v1435q0 20 20 20h933q20 0 20 -20v-288q0 -20 -20 -20h-602v-242h457q20 0 20 -20v-287q0 -20 -20 -20h-457v-250h602q20 0 20 -20v-288q0 -20 -20 -20h-933z" />
    <glyph glyph-name="F" unicode="F" horiz-adv-x="1162" 
d="M168 0q-20 0 -20 20v1435q0 20 20 20h933q20 0 20 -20v-288q0 -20 -20 -20h-602v-252h463q20 0 20 -20v-288q0 -20 -20 -20h-463v-547q0 -20 -20 -20h-311z" />
    <glyph glyph-name="G" unicode="G" horiz-adv-x="1334" 
d="M717 544q-20 1 -20 21v242q0 20 20 20h497q20 0 20 -20v-740q0 -11 -4 -17t-15 -10q-56 -21 -114.5 -35t-117 -22t-115 -11t-107.5 -3q-163 0 -288 34t-210 114.5t-128.5 213.5t-43.5 331v153q0 196 43.5 328.5t128.5 213t210 114.5t288 34q49 0 103 -3.5t106 -10.5
t98.5 -17t82.5 -23q11 -4 14.5 -9.5t1.5 -16.5l-45 -272q-3 -20 -23 -17q-162 27 -324 27q-86 0 -148.5 -16.5t-103.5 -55.5t-60.5 -104t-19.5 -162v-174q0 -98 18 -163t56 -104t97 -55t141 -16h64.5t64.5 2v220z" />
    <glyph glyph-name="H" unicode="H" horiz-adv-x="1524" 
d="M168 0q-20 0 -20 20v1435q0 20 20 20h311q20 0 20 -20v-550h528v550q0 20 20 20h310q20 0 20 -20v-1435q0 -20 -20 -20h-310q-20 0 -20 20v557h-528v-557q0 -20 -20 -20h-311z" />
    <glyph glyph-name="I" unicode="I" horiz-adv-x="647" 
d="M168 0q-20 0 -20 20v1435q0 20 20 20h311q20 0 20 -20v-1435q0 -20 -20 -20h-311z" />
    <glyph glyph-name="J" unicode="J" horiz-adv-x="646" 
d="M78 -410q-22 0 -45.5 1t-47.5 3.5t-46.5 5.5t-41.5 7q-20 4 -17 23l39 274q2 11 7 15t16 3q26 -3 45 -3.5t36 -0.5q31 0 54.5 5.5t39 18.5t23 35t7.5 56v1422q0 20 20 20h311q20 0 20 -20v-1455q0 -81 -18 -155.5t-64.5 -131t-128.5 -90t-209 -33.5z" />
    <glyph glyph-name="K" unicode="K" horiz-adv-x="1376" 
d="M960 0q-11 0 -18 3.5t-13 13.5l-348 539l-82 -85v-451q0 -20 -20 -20h-311q-20 0 -20 20v1435q0 20 20 20h311q20 0 20 -20v-511l396 515q12 16 32 16h429q20 0 7 -15l-529 -625l561 -819q11 -16 -9 -16h-426z" />
    <glyph glyph-name="L" unicode="L" horiz-adv-x="1064" 
d="M168 0q-20 0 -20 20v1435q0 20 20 20h311q20 0 20 -20v-1127h514q20 0 20 -20v-288q0 -20 -20 -20h-845z" />
    <glyph glyph-name="M" unicode="M" horiz-adv-x="1733" 
d="M168 0q-20 0 -20 20v1435q0 20 20 20h374q11 0 17.5 -3.5t12.5 -13.5l258 -464q18 -33 27.5 -60t9.5 -28q0 1 9.5 28t27.5 60l256 464q6 10 12.5 13.5t17.5 3.5h376q20 0 20 -20v-1435q0 -20 -20 -20h-312q-20 0 -20 20l1 984q-6 -22 -15.5 -48t-28.5 -65l-192 -390
q-5 -11 -11.5 -14.5t-17.5 -3.5h-206q-11 0 -17.5 3.5t-11.5 14.5l-192 390q-19 38 -28.5 64.5t-15.5 49.5v-985q0 -20 -20 -20h-311z" />
    <glyph glyph-name="N" unicode="N" horiz-adv-x="1520" 
d="M168 0q-20 0 -20 20v1435q0 20 20 20h338q11 0 17.5 -3.5t12.5 -13.5l439 -751q11 -19 19 -36t14 -30t9 -21t4 -8l1 843q0 20 20 20h310q20 0 20 -20v-1435q0 -20 -20 -20h-338q-11 0 -17.5 3.5t-12.5 13.5l-436 747q-26 45 -36.5 72.5t-12.5 27.5v-844q0 -20 -20 -20
h-311z" />
    <glyph glyph-name="O" unicode="O" horiz-adv-x="1452" 
d="M725 -31q-150 0 -267.5 34t-198.5 114.5t-123 213.5t-42 331v153q0 196 42 328t123 212.5t198.5 115t267.5 34.5q151 0 269 -34t199 -114.5t123 -213.5t42 -330v-154q0 -197 -42 -329t-123 -212.5t-199 -114.5t-269 -34zM725 1157q-70 0 -122.5 -16.5t-88 -55t-53 -102.5
t-17.5 -158v-174q0 -95 17.5 -159t53 -103t88 -55.5t122.5 -16.5t123 16.5t88.5 55.5t53.5 103t18 159v172q0 94 -18 158t-53.5 103t-88.5 56t-123 17z" />
    <glyph glyph-name="P" unicode="P" horiz-adv-x="1370" 
d="M655 1180q-18 0 -38 -0.5t-41 -1t-41 -2t-37 -2.5v-357q17 -2 37 -3t41 -1.5t41 -1t38 -0.5q94 0 153 5t92.5 21.5t45.5 46t12 79.5v65q0 49 -12 79t-45.5 46t-92.5 21.5t-153 5.5zM167 0q-20 0 -20 20v1437q0 20 20 21q60 3 126 5.5t129.5 4t122 2.5t104.5 1
q137 0 239 -9.5t175.5 -30.5t121.5 -54.5t76 -82t39 -113t11 -146.5v-119q0 -83 -11 -147.5t-39 -113t-76 -82t-121.5 -54.5t-175.5 -30t-239 -9h-38h-42t-39.5 0.5t-31.5 1.5v-482q0 -20 -20 -20h-311z" />
    <glyph glyph-name="Q" unicode="Q" horiz-adv-x="1452" 
d="M731 -31q-152 0 -270.5 34t-200 114.5t-124 213.5t-42.5 331v153q0 196 42 328t123 212.5t198.5 115t267.5 34.5q151 0 269 -34t199 -114.5t123 -213.5t42 -330v-154q0 -131 -18.5 -233t-54.5 -178.5t-89 -129t-122 -84.5l246 -406q11 -17 -9 -17h-373q-11 0 -17.5 3.5
t-11.5 14.5zM725 1157q-70 0 -122.5 -16.5t-88 -55t-53 -102.5t-17.5 -158v-174q0 -95 17.5 -159t53 -103t88 -55.5t122.5 -16.5t123 16.5t88.5 55.5t53.5 103t18 159v172q0 94 -18 158t-53.5 103t-88.5 56t-123 17z" />
    <glyph glyph-name="R" unicode="R" horiz-adv-x="1401" 
d="M950 0q-11 0 -17 3.5t-11 14.5l-229 492h-29q-39 0 -78 1.5t-88 4.5v-496q0 -20 -20 -20h-311q-20 0 -20 20v1435q0 20 20 21q122 8 236 11.5t224 3.5q140 0 245.5 -9t181.5 -29t126 -52t79.5 -79.5t41.5 -111t12 -145.5v-133q0 -113 -22.5 -190.5t-82.5 -127.5
q-58 -48 -176 -74q17 -27 35.5 -57.5t38.5 -68.5l212 -396q9 -18 -11 -18h-357zM649 1180q-17 0 -36.5 -0.5t-39.5 -1t-39.5 -2t-35.5 -2.5v-347q64 -6 161 -6q93 0 152 4.5t92 20t45.5 44.5t12.5 77v67q0 48 -12 77t-46 44.5t-95 20t-159 4.5z" />
    <glyph glyph-name="S" unicode="S" horiz-adv-x="1231" 
d="M547 -31q-127 0 -237 13t-191 35q-19 5 -16 25l46 270q3 20 23 17q55 -9 100 -15t86 -9.5t82 -5.5t88 -2q91 0 145.5 5t83.5 18t38.5 34.5t9.5 53.5q0 21 -9 37t-34.5 34.5t-71 42t-117.5 58.5l-172 82q-103 49 -167 100.5t-100 105t-49 108t-13 109.5q0 118 36.5 198.5
t112.5 130t193 70.5t278 21q106 0 203 -10t178 -35q19 -5 16 -25l-47 -260q-4 -20 -24 -17q-39 5 -80 9t-79 6.5t-71 3.5t-55 1q-79 0 -135.5 -2.5t-93 -11.5t-53.5 -26t-17 -46q0 -23 8.5 -41t33 -36.5t68 -40t113.5 -52.5l197 -88q93 -42 154 -84.5t96.5 -92t50 -109
t14.5 -134.5q0 -109 -27.5 -192t-98 -139.5t-190.5 -85t-306 -28.5z" />
    <glyph glyph-name="T" unicode="T" horiz-adv-x="1221" 
d="M455 0q-20 0 -20 20v1127h-383q-20 0 -20 20v288q0 20 20 20h1117q20 0 20 -20v-288q0 -20 -20 -20h-384v-1127q0 -20 -20 -20h-310z" />
    <glyph glyph-name="U" unicode="U" horiz-adv-x="1500" 
d="M751 -31q-146 0 -260.5 28t-193.5 90t-120 161t-41 241v966q0 20 20 20h310q20 0 20 -20v-886q0 -71 13.5 -121t45 -81.5t82 -45.5t124.5 -14q71 0 121.5 14t82.5 45.5t47 81.5t15 121v886q0 20 20 20h308q20 0 20 -20v-966q0 -142 -42 -241t-121.5 -161t-193 -90
t-257.5 -28z" />
    <glyph glyph-name="V" unicode="V" horiz-adv-x="1352" 
d="M675 319h2l296 1137q5 19 25 19h339q20 0 14 -19l-429 -1437q-4 -11 -9.5 -15t-16.5 -4h-441q-11 0 -16.5 4t-9.5 15l-426 1437q-6 19 14 19h337q20 0 25 -19z" />
    <glyph glyph-name="W" unicode="W" horiz-adv-x="1966" 
d="M329 0q-20 0 -23 20l-246 1435q-3 20 17 20h354q11 0 15.5 -4.5t6.5 -15.5l86 -935l21 -221l3.5 20t8.5 51.5t12.5 70.5t15.5 77l205 937q4 20 24 20h304q20 0 24 -20l209 -931q7 -35 14.5 -74t13 -73t9 -56l3.5 -22l21 227l84 929q2 11 6.5 15.5t15.5 4.5h356
q20 0 17 -20l-246 -1435q-3 -20 -23 -20h-421q-20 0 -25 19l-185 751q-5 18 -9 39.5t-7.5 41.5t-6 35t-2.5 19q0 -3 -2 -17.5t-5 -35t-7.5 -42.5t-8.5 -40l-185 -751q-5 -19 -25 -19h-419z" />
    <glyph glyph-name="X" unicode="X" horiz-adv-x="1372" 
d="M976 0q-11 0 -17.5 3.5t-12.5 13.5l-259 467l-261 -467q-6 -10 -12.5 -13.5t-17.5 -3.5h-378q-20 0 -9 17l451 722l-451 719q-11 17 9 17h378q11 0 17.5 -3.5t12.5 -13.5l260 -453l260 453q6 10 12.5 13.5t17.5 3.5h378q20 0 9 -17l-452 -719l452 -722q11 -17 -9 -17
h-378z" />
    <glyph glyph-name="Y" unicode="Y" horiz-adv-x="1268" 
d="M480 0q-20 0 -20 20v463l-472 974q-9 18 11 18h355q11 0 17 -3.5t11 -14.5l253 -589l253 589q5 11 11 14.5t17 3.5h353q20 0 11 -18l-470 -974v-463q0 -20 -20 -20h-310z" />
    <glyph glyph-name="Z" unicode="Z" horiz-adv-x="1264" 
d="M98 0q-20 0 -20 20v267q0 20 12 36l660 846h-621q-20 0 -20 20v266q0 20 20 20h1016q20 0 20 -20v-266q0 -20 -12 -36l-659 -846h662q20 0 20 -20v-267q0 -20 -20 -20h-1058z" />
    <glyph glyph-name="bracketleft" unicode="[" horiz-adv-x="757" 
d="M155 -389q-20 0 -20 20v1905q0 20 20 20h538q20 0 20 -20v-287q0 -20 -20 -20h-208v-1290h208q20 0 20 -20v-288q0 -20 -20 -20h-538z" />
    <glyph glyph-name="backslash" unicode="\" horiz-adv-x="879" 
d="M475 0q-20 0 -25 19l-404 1518q-4 19 15 19h335q20 0 25 -19l404 -1518q4 -19 -15 -19h-335z" />
    <glyph glyph-name="bracketright" unicode="]" horiz-adv-x="757" 
d="M64 -389q-20 0 -20 20v288q0 20 20 20h208v1290h-208q-20 0 -20 20v287q0 20 20 20h538q20 0 20 -20v-1905q0 -20 -20 -20h-538z" />
    <glyph glyph-name="asciicircum" unicode="^" horiz-adv-x="1321" 
d="M262 1117q-21 0 -8 16l252 324q12 16 32 16h247q20 0 32 -16l252 -324q13 -16 -8 -16h-224q-20 0 -32 16l-143 189l-144 -189q-12 -16 -32 -16h-224z" />
    <glyph glyph-name="underscore" unicode="_" horiz-adv-x="1011" 
d="M39 -389q-20 0 -20 20v279q0 20 20 20h933q20 0 20 -20v-279q0 -20 -20 -20h-933z" />
    <glyph glyph-name="grave" unicode="`" 
d="M387 1270q-11 0 -18.5 3.5t-15.5 11.5l-230 246q-7 7 -5 11t11 4h324q11 0 18 -3.5t13 -13.5l164 -242q11 -17 -9 -17h-252z" />
    <glyph glyph-name="a" unicode="a" horiz-adv-x="1142" 
d="M553 229q19 0 40 0.5t41 1t38 2t32 3.5v182h-79q-81 0 -133 -4t-82 -15.5t-41 -30.5t-11 -49q0 -31 15.5 -49t42.5 -27t62.5 -11.5t74.5 -2.5zM487 821q-32 0 -69.5 -1t-78 -2.5t-81.5 -3.5t-78 -5q-20 -3 -20 18v228q0 20 20 23q41 6 87.5 10.5t92.5 8t89 5.5t77 2
q112 0 193 -11t136.5 -33.5t89.5 -57.5t52.5 -83t24.5 -109t6 -136v-652q0 -20 -20 -23q-57 -7 -119 -12.5t-122 -9.5t-113.5 -6t-92.5 -2q-131 0 -226.5 16t-157 55t-91 103.5t-29.5 161.5q0 70 9.5 123.5t33.5 92.5t65.5 65t105 42t152 22.5t206.5 6.5h75v33q0 34 -8.5 59
t-32 41t-66 23.5t-110.5 7.5z" />
    <glyph glyph-name="b" unicode="b" horiz-adv-x="1235" 
d="M630 815q-23 0 -47.5 -0.5t-48.5 -1.5t-45.5 -3t-36.5 -5v-545q34 -3 83 -4.5t93 -1.5q63 0 102 12.5t61 42t29.5 77t7.5 116.5v80q0 67 -7.5 111.5t-28.5 71.5t-60 38.5t-102 11.5zM622 -31q-118 0 -239.5 8.5t-242.5 22.5q-20 1 -20 22v1560q0 21 20 22l292 36
q20 1 20 -18v-541q50 8 103 13.5t128 5.5q127 0 215.5 -25t144 -82.5t80.5 -150.5t25 -228v-159q0 -134 -25.5 -226.5t-86.5 -150.5t-162 -83.5t-252 -25.5z" />
    <glyph glyph-name="c" unicode="c" horiz-adv-x="962" 
d="M612 -31q-153 0 -255 30t-162.5 91.5t-85.5 156.5t-25 226v125q0 130 25 224.5t85.5 156t162.5 91.5t255 30q75 0 141 -7t120 -18q20 -4 19 -24l-14 -236q-1 -11 -5.5 -15t-15.5 -3q-55 5 -112 7.5t-122 2.5q-69 0 -109.5 -11.5t-61.5 -39t-27.5 -72.5t-6.5 -111v-77
q0 -66 6 -111t27 -72.5t62 -39t110 -11.5q65 0 122 3.5t112 8.5q11 1 15.5 -3t5.5 -15l14 -236q1 -20 -19 -24q-26 -6 -57 -10.5t-65 -8.5t-69.5 -6t-69.5 -2z" />
    <glyph glyph-name="d" unicode="d" horiz-adv-x="1234" 
d="M604 815q-63 0 -102 -11.5t-60 -39t-28.5 -72.5t-7.5 -112v-72q0 -72 7.5 -121t29.5 -78.5t61 -42t102 -12.5q44 0 93 1.5t83 4.5v545q-15 3 -38 5t-47.5 3t-49 1.5t-43.5 0.5zM612 -31q-151 0 -252 25.5t-162 83.5t-86.5 152t-25.5 231v153q0 135 24.5 228t83.5 150.5
t156.5 82.5t243.5 25q49 0 98.5 -5.5t89.5 -13.5v501q0 21 20 22l292 36q20 1 20 -18v-1600q0 -21 -20 -22q-121 -14 -242.5 -22.5t-239.5 -8.5z" />
    <glyph glyph-name="e" unicode="e" horiz-adv-x="1172" 
d="M597 -31q-140 0 -237.5 29.5t-159 91t-89.5 157t-28 228.5v115q0 133 28 229t89 158.5t158 92.5t235 30q139 0 236.5 -30t158.5 -93t89 -160.5t28 -232.5q0 -60 -8.5 -110.5t-14.5 -75.5q-4 -17 -21 -17l-645 -2q7 -42 22 -67t39.5 -38.5t60.5 -17.5t84 -4q91 0 182.5 3
t194.5 10q20 1 21 -19l14 -226q1 -20 -19 -23q-100 -12 -203 -20t-215 -8zM806 631q-10 57 -25 93t-39 56.5t-60 28.5t-89 8q-54 0 -89 -10t-55.5 -34t-29.5 -63t-10 -97z" />
    <glyph glyph-name="f" unicode="f" horiz-adv-x="800" 
d="M223 0q-20 0 -20 20v746l-138 31q-20 4 -20 24v230q0 20 20 20h138v160q0 111 19.5 189.5t70 127.5t136.5 71.5t220 22.5q28 0 56.5 -2t55.5 -5t50.5 -7t41.5 -7q11 -3 15 -8t3 -16l-14 -238q-1 -20 -21 -19q-29 2 -66 2.5t-70 0.5q-57 0 -90 -6t-49.5 -20t-21 -36.5
t-4.5 -55.5v-154h215q20 0 19 -20l-16 -265q-1 -20 -21 -20h-197v-746q0 -20 -20 -20h-292z" />
    <glyph glyph-name="g" unicode="g" horiz-adv-x="1233" 
d="M606 819q-64 0 -103 -12.5t-60.5 -41.5t-29 -75.5t-7.5 -114.5v-71q0 -65 6.5 -110t27.5 -72.5t60 -39.5t104 -12q21 0 45.5 1t49 2.5t46.5 4t37 5.5v532q-34 2 -82.5 3t-93.5 1zM502 -481q-76 0 -150 6.5t-139 17.5q-20 4 -19 24l14 225q1 20 21 17q28 -4 60 -7t63 -4.5
t59 -2t48 -0.5q103 0 166.5 10t98.5 34t46.5 63t11.5 98q-35 -9 -80.5 -14.5t-113.5 -5.5q-141 0 -237 25.5t-155 83t-84.5 150.5t-25.5 228v151q0 133 25 225t86 149t162 82.5t253 25.5q58 0 121.5 -2.5t126 -6.5t122.5 -9t112 -11q20 -1 20 -22v-1035q0 -149 -40 -245
t-118 -151.5t-192 -77t-262 -21.5z" />
    <glyph glyph-name="h" unicode="h" horiz-adv-x="1256" 
d="M830 0q-20 0 -20 20v543q0 55 -6.5 96t-26.5 68t-57 40t-98 13q-45 0 -90.5 -7t-79.5 -20v-733q0 -20 -20 -20h-292q-20 0 -20 20v1562q0 21 20 22l292 36q20 1 20 -18v-599q57 35 132.5 56t166.5 21q95 0 168 -25t122.5 -81.5t75 -148t25.5 -224.5v-601q0 -20 -20 -20
h-292z" />
    <glyph glyph-name="i" unicode="i" horiz-adv-x="584" 
d="M146 0q-20 0 -20 20v1031q0 20 20 20h292q20 0 20 -20v-1031q0 -20 -20 -20h-292zM146 1219q-20 0 -20 20v287q0 21 20 22l292 37q20 1 20 -18v-328q0 -20 -20 -20h-292z" />
    <glyph glyph-name="j" unicode="j" horiz-adv-x="584" 
d="M34 -481q-45 0 -96 4t-89 11q-20 3 -17 23l33 233q3 20 23 17q24 -2 52.5 -4t54.5 -2q43 0 69 5.5t39.5 18t18 34.5t4.5 55v1137q0 20 20 20h292q20 0 20 -20v-1137q0 -104 -19.5 -178.5t-67.5 -122.5t-130 -71t-207 -23zM146 1219q-20 0 -20 20v287q0 21 20 22l292 37
q20 1 20 -18v-328q0 -20 -20 -20h-292z" />
    <glyph glyph-name="k" unicode="k" horiz-adv-x="1239" 
d="M829 0q-11 0 -17.5 3.5t-11.5 14.5l-233 444l-115 -102v-340q0 -20 -20 -20h-292q-20 0 -20 20v1562q0 21 20 22l292 36q20 1 20 -18v-879l330 314q14 14 34 14h408q20 0 5 -13l-414 -372l414 -667q5 -8 2.5 -13.5t-12.5 -5.5h-390z" />
    <glyph glyph-name="l" unicode="l" horiz-adv-x="598" 
d="M153 0q-20 0 -20 20v1562q0 21 20 22l292 36q20 1 20 -18v-1602q0 -20 -20 -20h-292z" />
    <glyph glyph-name="m" unicode="m" horiz-adv-x="1802" 
d="M140 0q-20 0 -20 20v1050q0 20 20 20h230q11 0 17.5 -3.5t11.5 -14.5l28 -53q55 38 128.5 59.5t152.5 21.5q88 0 151.5 -21t108.5 -68q63 43 140 66t165 23q113 0 192 -30t129 -92t72.5 -158t22.5 -228v-572q0 -20 -20 -20h-288q-20 0 -20 20v531q0 72 -7.5 117.5t-27 72
t-53.5 36t-86 9.5q-29 0 -63 -7.5t-63 -21.5q2 -27 3.5 -55.5t1.5 -60.5v-621q0 -20 -20 -20h-284q-20 0 -20 20v574q0 48 -5.5 83.5t-21 59t-43.5 35.5t-73 12q-39 0 -80.5 -9t-70.5 -25v-730q0 -20 -20 -20h-288z" />
    <glyph glyph-name="n" unicode="n" horiz-adv-x="1256" 
d="M830 0q-20 0 -20 20v543q0 55 -6.5 96t-26.5 68t-57 40t-98 13q-20 0 -42.5 -2t-45 -5.5t-43.5 -8.5t-39 -11v-733q0 -20 -20 -20h-292q-20 0 -20 20v1050q0 20 20 20h230q11 0 17.5 -3.5t12.5 -13.5l31 -57q60 38 142 61t182 23q94 0 166.5 -25t121.5 -80.5t74 -145
t25 -218.5v-611q0 -20 -20 -20h-292z" />
    <glyph glyph-name="o" unicode="o" horiz-adv-x="1188" 
d="M593 817q-58 0 -94 -11t-56 -38.5t-27 -73.5t-7 -116v-86q0 -69 7.5 -115.5t28 -74t56.5 -39t92 -11.5q57 0 93 11.5t56.5 39.5t28.5 74.5t8 116.5v84q0 70 -7 116t-27.5 73.5t-57 38.5t-94.5 11zM593 -31q-138 0 -235 29.5t-158 92t-89 159.5t-28 231v105q0 134 28 231
t89 160t158 93t235 30q139 0 236.5 -30t158.5 -93t89 -160t28 -231v-105q0 -134 -28 -231t-89 -159.5t-158.5 -92t-236.5 -29.5z" />
    <glyph glyph-name="p" unicode="p" horiz-adv-x="1234" 
d="M619 815q-17 0 -40.5 -0.5t-47.5 -1.5t-45 -3t-34 -5v-545q34 -3 76.5 -4.5t99.5 -1.5q63 0 102 12.5t61 41.5t29.5 77t7.5 119v71q0 69 -8 115.5t-30.5 74t-63.5 39t-107 11.5zM140 -453q-20 0 -20 20v1482q0 21 20 22q121 13 242.5 21t239.5 8q151 0 252 -25t162 -81.5
t86.5 -148.5t25.5 -227v-151q0 -139 -25.5 -234.5t-85.5 -154t-158.5 -84t-244.5 -25.5q-50 0 -96 5.5t-86 15.5v-423q0 -20 -20 -20h-292z" />
    <glyph glyph-name="q" unicode="q" horiz-adv-x="1234" 
d="M615 815q-66 0 -107 -11.5t-63.5 -39t-30 -74t-7.5 -115.5v-71q0 -71 7.5 -119t29.5 -77t61 -41.5t102 -12.5q57 0 99.5 1.5t76.5 4.5v545q-15 3 -35.5 5t-43 3t-46 1.5t-43.5 0.5zM803 -453q-20 0 -20 20v423q-40 -10 -86 -15.5t-96 -5.5q-146 0 -244.5 25t-158.5 82.5
t-85.5 151t-25.5 229.5v161q0 135 25.5 227t86.5 148.5t163.5 81.5t256.5 25q57 0 119.5 -2.5t124.5 -6.5t121.5 -9t110.5 -11q20 -1 20 -22v-1482q0 -20 -20 -20h-292z" />
    <glyph glyph-name="r" unicode="r" horiz-adv-x="824" 
d="M140 0q-20 0 -20 20v1050q0 20 20 20h230q11 0 17.5 -3.5t12.5 -14.5l32 -59q30 28 68 45t78.5 26.5t79 12.5t68.5 3q15 0 27.5 -1t22.5 -3q20 -3 19 -23l-17 -297q-1 -21 -21 -18q-12 1 -24 1.5t-27 0.5q-78 0 -139 -7t-115 -24v-709q0 -20 -20 -20h-292z" />
    <glyph glyph-name="s" unicode="s" horiz-adv-x="1024" 
d="M469 -31q-29 0 -71.5 2t-90.5 5.5t-97.5 9t-91.5 12.5q-20 4 -19 24l13 237q1 11 5.5 15t15.5 3q50 -6 92.5 -10t79.5 -6.5t71 -3.5t68 -1q56 0 92.5 2t57.5 7.5t29 15t8 24.5q0 9 -2.5 17t-13.5 16.5t-35 18.5t-66 24l-186 59q-78 25 -127.5 56.5t-77 72t-37.5 91.5
t-10 116q0 100 33 163.5t95.5 99t152 48.5t202.5 13q88 0 168 -8t148 -18q20 -3 19 -23l-14 -236q-1 -11 -5.5 -15t-15.5 -3q-34 3 -71.5 6t-73 5.5t-66 3.5t-50.5 1q-59 0 -96 -2t-58 -7t-28.5 -14t-7.5 -24q0 -10 2.5 -18t14.5 -16.5t37 -18t70 -23.5l164 -49
q81 -24 132.5 -51t81.5 -65t41.5 -90t11.5 -124q0 -112 -35 -179.5t-99.5 -103.5t-156 -47.5t-203.5 -11.5z" />
    <glyph glyph-name="t" unicode="t" horiz-adv-x="868" 
d="M530 -31q-80 0 -139 15t-98 54.5t-58.5 109.5t-19.5 180v448l-158 29q-20 4 -20 24v222q0 20 20 20h158v191q0 21 20 22l292 37q20 1 20 -18v-232h269q20 0 17 -20l-35 -255q-3 -20 -23 -20h-228v-430q0 -28 5.5 -45t17.5 -26t32 -12t49 -3q10 0 23 0.5t27 1t27.5 1.5
t25.5 2q20 1 21 -19l14 -226q1 -21 -18 -25q-23 -5 -51 -10t-59.5 -8.5t-64.5 -5.5t-66 -2z" />
    <glyph glyph-name="u" unicode="u" horiz-adv-x="1237" 
d="M634 -31q-159 0 -260.5 26t-159 84.5t-79.5 154t-22 233.5v584q0 20 20 20h291q20 0 20 -20v-562q0 -63 7 -105.5t28 -68.5t58 -37.5t97 -11.5q35 0 78 2.5t75 10.5v772q0 20 20 20h292q20 0 20 -20v-996q0 -21 -19 -25q-43 -12 -100 -23t-119.5 -19.5t-126 -13.5
t-120.5 -5z" />
    <glyph glyph-name="v" unicode="v" horiz-adv-x="1137" 
d="M354 0q-11 0 -16.5 4t-9.5 15l-320 1033q-6 19 14 19h329q20 0 25 -19l191 -773l194 773q5 19 25 19h329q20 0 14 -19l-322 -1033q-4 -11 -9.5 -15t-16.5 -4h-427z" />
    <glyph glyph-name="w" unicode="w" horiz-adv-x="1738" 
d="M293 0q-20 0 -24 20l-227 1031q-4 20 16 20h316q20 0 23 -20l100 -637q2 -8 3.5 -22.5t2.5 -22.5q2 -15 4.5 -36.5t5.5 -42t5 -34.5t3 -14t3.5 12.5t6 32t9 45.5t12.5 53l171 667q5 19 25 19h243q20 0 25 -19l169 -671q6 -25 11 -49.5t9 -44.5t7 -32.5t4 -12.5t3 14
t5 33.5t5.5 40t4.5 35.5l6 44l102 642q3 20 23 20h316q20 0 16 -20l-230 -1031q-4 -20 -24 -20h-394q-11 0 -16.5 4t-9.5 15l-125 397q-6 18 -11 41.5t-9 44.5t-6 35t-3 14t-3.5 -14.5t-6.5 -35.5t-9 -44t-11 -41l-125 -397q-4 -11 -9.5 -15t-16.5 -4h-395z" />
    <glyph glyph-name="x" unicode="x" horiz-adv-x="1186" 
d="M799 0q-11 0 -17.5 3.5t-12.5 13.5l-176 314l-176 -314q-6 -10 -12.5 -13.5t-17.5 -3.5h-354q-20 0 -9 17l347 521l-347 516q-11 17 9 17h354q11 0 17.5 -3.5t12.5 -13.5l176 -312l176 312q6 10 12.5 13.5t17.5 3.5h354q20 0 9 -17l-348 -516l348 -521q11 -17 -9 -17
h-354z" />
    <glyph glyph-name="y" unicode="y" horiz-adv-x="1123" 
d="M181 -481q-34 0 -76 4t-74 10q-20 4 -17 23l31 238q2 11 7 15t16 3q23 -3 48.5 -5t48.5 -2q75 0 126 9.5t86 32t58.5 60t44.5 93.5l-14.5 6.5t-39 33t-56.5 79t-68 145.5l-306 788q-7 19 13 19h337q11 0 16.5 -4t9.5 -15l155 -487l61 -189l150 675q4 20 24 20h337
q20 0 14 -19l-346 -1134q-23 -74 -49 -132t-59.5 -102.5t-76.5 -75.5t-100.5 -51t-131.5 -29t-169 -9z" />
    <glyph glyph-name="z" unicode="z" horiz-adv-x="1096" 
d="M118 776q-20 0 -20 20v255q0 20 20 20h859q20 0 20 -20v-224q0 -17 -5 -26.5t-17 -22.5l-473 -481h486q20 0 20 -20v-257q0 -20 -20 -20h-880q-20 0 -20 20v219q0 34 23 57l466 480h-459z" />
    <glyph glyph-name="braceleft" unicode="{" horiz-adv-x="815" 
d="M629 -389q-79 0 -142.5 3t-112 16t-83 39.5t-56.5 73t-32 117t-10 171.5v174q0 40 -4.5 69.5t-17.5 51t-35 36t-58 24.5q-11 3 -15 8.5t-4 17.5v261q0 12 4 17.5t15 8.5q36 10 58 25t35 36t17.5 50.5t4.5 70.5v174q0 101 10 171t32 117t56.5 73.5t82.5 39.5t111 16t142 3
h123q20 0 20 -20v-288q0 -20 -20 -20h-123q-29 0 -46 -5t-25.5 -15t-10.5 -25.5t-2 -36.5v-184q0 -75 -8.5 -124t-28 -84t-51 -61.5t-78.5 -54.5v-29q47 -28 78.5 -54t51 -61t28 -84t8.5 -122v-187q0 -21 2 -36.5t10.5 -25.5t25.5 -14.5t46 -4.5h123q20 0 20 -20v-288
q0 -20 -20 -20h-121v0z" />
    <glyph glyph-name="bar" unicode="|" horiz-adv-x="622" 
d="M156 -389q-20 0 -20 20v1824q0 20 20 20h310q20 0 20 -20v-1824q0 -20 -20 -20h-310z" />
    <glyph glyph-name="braceright" unicode="}" horiz-adv-x="817" 
d="M67 -389q-20 0 -20 20v288q0 20 20 20h123q29 0 46 4.5t25.5 14.5t10.5 25.5t2 36.5v187q0 73 8.5 122t28 84t51 61t78.5 54v29q-47 28 -78.5 54.5t-51 61.5t-28 84t-8.5 124v184q0 21 -2 36.5t-10.5 25.5t-25.5 15t-46 5h-123q-20 0 -20 20v288q0 20 20 20h123
q79 0 142 -3t111 -16t82.5 -39.5t56.5 -73.5t32 -117t10 -171v-174q0 -41 4.5 -70.5t17.5 -50.5t35 -36t58 -25q11 -3 15 -8.5t4 -17.5v-261q0 -12 -4 -17.5t-15 -8.5q-36 -10 -58 -24.5t-35 -36t-17.5 -51t-4.5 -69.5v-174q0 -101 -10 -171.5t-32 -117t-56.5 -73t-83 -39.5
t-112 -16t-142.5 -3h-121z" />
    <glyph glyph-name="asciitilde" unicode="~" horiz-adv-x="1147" 
d="M128 512q-20 0 -20 20v76q0 98 23 156.5t60 90t82.5 41t90.5 9.5q27 0 50 -3t45 -10t43.5 -17t44.5 -25l65 -41q50 -31 80.5 -46t54.5 -15q16 0 28 4t20.5 18t12.5 40.5t5 72.5q0 20 20 20h195q20 0 20 -20v-76q0 -97 -23 -155.5t-59.5 -90.5t-82.5 -42.5t-91 -10.5
q-27 0 -49.5 3t-44 10t-43 17.5t-45.5 24.5l-65 43q-51 31 -81 46.5t-54 15.5q-17 0 -29 -4t-20 -18t-12 -41t-5 -73q0 -20 -20 -20h-196z" />
    <glyph glyph-name="uni007F" horiz-adv-x="0" 
 />
    <glyph glyph-name="uni00A0" unicode="&#xa0;" horiz-adv-x="508" 
 />
    <glyph glyph-name="exclamdown" unicode="&#xa1;" horiz-adv-x="616" 
d="M444 460q20 0 20 -20l21 -821q0 -21 -20 -22l-313 -37q-20 -1 -20 18l21 862q0 20 20 20h271zM463 1074q20 0 20 -20v-300q0 -21 -20 -22l-292 -35q-20 -1 -20 18v339q0 20 20 20h292z" />
    <glyph glyph-name="cent" unicode="&#xa2;" horiz-adv-x="962" 
d="M515 -246q-20 0 -20 20v198q-124 8 -205.5 41t-130 96t-68 159t-19.5 230v131q0 133 19.5 229t68 159t130 96t205.5 41v198q0 20 20 20h137q20 0 20 -20v-197q54 -2 102.5 -6t88.5 -11q20 -3 17 -23l-33 -255q-3 -20 -23 -19l-76 6t-76 5v-600q38 0 74 2t71 7
q20 3 23 -17l40 -233q3 -19 -17 -23q-38 -7 -88 -11t-103 -6v-197q0 -20 -20 -20h-137zM395 502q0 -54 3 -95t13.5 -69.5t30.5 -47t53 -27.5v577q-33 -11 -52.5 -30.5t-30 -49t-14 -68.5t-3.5 -88v-102z" />
    <glyph glyph-name="sterling" unicode="&#xa3;" horiz-adv-x="1178" 
d="M102 578q-20 0 -20 20v287q0 20 20 20h113v78q0 80 6 148t24.5 122.5t53 96t92 69.5t141 42t199.5 14h308q20 0 20 -20v-288q0 -20 -20 -20h-308q-60 0 -93.5 -10t-49.5 -29.5t-19.5 -48t-3.5 -66.5v-88h382q20 0 17 -20l-48 -287q-3 -20 -23 -20h-328v-66
q0 -63 -6 -107.5t-19 -76.5h550q20 0 20 -20v-288q0 -20 -20 -20h-988q-20 0 -20 20v285q0 12 4 17.5t15 8.5q36 10 58 24.5t34.5 35.5t17 50.5t4.5 70.5v66h-113z" />
    <glyph glyph-name="currency" unicode="&#xa4;" horiz-adv-x="1285" 
d="M82 1036q-14 14 0 28l199 198q14 14 28 0l126 -127q91 36 211 36t207 -34l125 125q14 14 28 0l195 -198q14 -14 0 -28l-140 -141q23 -84 23 -193q0 -110 -23 -196l140 -140q14 -14 0 -28l-195 -197q-14 -14 -28 0l-125 122q-87 -34 -207 -34q-122 0 -212 37l-125 -125
q-14 -14 -28 0l-197 199q-14 14 0 28l141 141q-24 82 -24 193q0 106 23 190zM486 702q0 -53 13 -86.5t35.5 -52.5t51 -26t60.5 -7q30 0 58 7t49 26t33.5 52.5t12.5 86.5q0 52 -12.5 85.5t-33.5 52.5t-49 26.5t-58 7.5q-32 0 -60.5 -7.5t-51 -26.5t-35.5 -52.5t-13 -85.5z
" />
    <glyph glyph-name="yen" unicode="&#xa5;" horiz-adv-x="1406" 
d="M893 510l-13 -27v-102h341q20 0 17 -20l-23 -136q-3 -20 -23 -20h-312v-185q0 -20 -20 -20h-310q-20 0 -20 20v185h-344q-20 0 -17 20l23 136q3 20 23 20h315v102l-13 27h-331q-20 0 -17 20l23 136q3 20 23 20h216l-373 771q-9 18 11 18h355q11 0 17 -3.5t11 -14.5
l253 -589l253 589q5 11 11 14.5t17 3.5h353q20 0 11 -18l-372 -771h243q20 0 17 -20l-23 -136q-3 -20 -23 -20h-299z" />
    <glyph glyph-name="brokenbar" unicode="&#xa6;" horiz-adv-x="634" 
d="M182 707q-20 0 -21 20l-18 728q-1 20 19 20h310q20 0 19 -20l-18 -728q-1 -20 -21 -20h-270zM162 -389q-20 0 -19 20l18 728q1 20 21 20h270q20 0 21 -20l18 -728q1 -20 -19 -20h-310z" />
    <glyph glyph-name="section" unicode="&#xa7;" horiz-adv-x="1125" 
d="M490 -453q-45 0 -94 3t-98 9t-94 14t-82 19q-19 5 -16 25l45 282q3 20 23 17q43 -7 81.5 -12.5t75.5 -9.5t74 -6.5t77 -2.5q64 0 102 4t58 12t26.5 19.5t6.5 26.5t-4 26.5t-20 25t-47.5 32t-86.5 46.5l-162 83q-78 40 -130 81t-83 88t-44 102t-13 124q0 94 21 162t64 116
q-45 54 -65 118.5t-20 145.5q0 116 34 194.5t103.5 126t175.5 67.5t250 20q33 0 73.5 -2t83.5 -7t86 -13.5t80 -21.5q11 -4 14.5 -9.5t1.5 -16.5l-45 -270q-3 -20 -23 -17q-68 11 -136.5 15t-120.5 4q-61 0 -100.5 -5.5t-62 -15.5t-31 -24t-8.5 -31q0 -13 4.5 -23.5
t20.5 -23t47.5 -30t84.5 -44.5l178 -91q75 -38 124 -78.5t78 -86.5t40.5 -98t11.5 -114q0 -90 -19 -161t-67 -124q45 -54 65.5 -117.5t20.5 -138.5q0 -100 -25 -177t-88.5 -129.5t-171.5 -80t-274 -27.5zM695 448q0 31 -4.5 53t-22 41.5t-53 40t-98.5 48.5l-65 29
q-8 -17 -10.5 -33t-2.5 -24q0 -33 4 -55t21.5 -41.5t53.5 -40t99 -48.5l67 -31q7 18 9 35t2 26z" />
    <glyph glyph-name="dieresis" unicode="&#xa8;" 
d="M20 1219q-20 0 -20 20v287q0 20 20 23l282 35q20 3 20 -17v-328q0 -20 -20 -20h-282zM477 1219q-20 0 -20 20v287q0 20 20 23l281 35q20 3 20 -17v-328q0 -20 -20 -20h-281z" />
    <glyph glyph-name="copyright" unicode="&#xa9;" horiz-adv-x="1532" 
d="M805 338q-102 0 -172.5 20.5t-114.5 63.5t-64 108.5t-20 155.5v98q0 91 20 157t64 109t114.5 64t172.5 21q51 0 102.5 -6t92.5 -14q21 -5 18 -25l-25 -243q-1 -20 -22 -19q-39 3 -72.5 4.5t-71.5 1.5q-23 0 -38.5 -7t-24.5 -18.5t-13 -25.5t-4 -29v-33q0 -15 4 -30
t13 -26.5t24.5 -18.5t38.5 -7q42 0 75 1.5t69 3.5q21 1 22 -19l25 -244q3 -20 -17 -24q-38 -8 -91 -13.5t-105 -5.5zM307 737q0 -123 22 -216.5t75 -156.5t141 -94.5t221 -31.5t221 31.5t141 94.5t75 156.5t22 216.5t-22 216t-75 156t-141 94.5t-221 31.5t-221 -31.5
t-141 -94.5t-75 -156t-22 -216zM1460 737q0 -175 -39 -312.5t-122.5 -232t-215 -144.5t-317.5 -50t-317.5 50t-215.5 144.5t-122.5 232t-38.5 312.5q0 174 38.5 311.5t122.5 232t215.5 144.5t317.5 50t317.5 -50t215 -144.5t122.5 -232t39 -311.5z" />
    <glyph glyph-name="ordfeminine" unicode="&#xaa;" horiz-adv-x="1001" 
d="M476 897q21 0 43 1t41 3v98h-27q-38 0 -63 -2.5t-39 -8.5t-19.5 -16.5t-5.5 -25.5q0 -18 5.5 -27.5t15.5 -14.5t22.5 -6t26.5 -1zM431 1268q-21 0 -47.5 -0.5t-55 -1.5t-58 -2.5t-55.5 -2.5q-20 -1 -20 19v181q0 20 20 24q30 5 63.5 8.5t67 6t64.5 4t56 1.5
q127 0 202.5 -20.5t115 -62.5t51 -104.5t11.5 -146.5v-436q0 -21 -20 -22q-44 -5 -92 -9t-93.5 -8t-86 -6t-70.5 -2q-95 0 -164 12t-113 40t-65 74.5t-21 115.5q0 74 17 123.5t63 79.5t126 42.5t206 12.5h27v14q0 15 -5.5 27.5t-19.5 21t-39 13t-65 4.5zM133 342
q-20 0 -20 20v198q0 20 20 20h738q20 0 20 -20v-198q0 -20 -20 -20h-738z" />
    <glyph glyph-name="guillemotleft" unicode="&#xab;" horiz-adv-x="1449" 
d="M361 136q-20 0 -32 16l-290 367q-12 16 0 32l290 368q12 16 32 16h365q20 0 7 -15l-320 -385l320 -384q13 -15 -7 -15h-365zM986 136q-20 0 -32 16l-290 367q-12 16 0 32l290 368q12 16 32 16h365q20 0 7 -15l-320 -385l320 -384q13 -15 -7 -15h-365z" />
    <glyph glyph-name="logicalnot" unicode="&#xac;" horiz-adv-x="1203" 
d="M94 705q-20 0 -20 20v279q0 20 20 20h927q20 0 20 -20v-728q0 -20 -20 -20h-279q-20 0 -20 20v429h-628z" />
    <glyph glyph-name="uni00AD" unicode="&#xad;" horiz-adv-x="764" 
d="M142 403q-20 0 -20 20v280q0 20 20 20h480q20 0 20 -20v-280q0 -20 -20 -20h-480z" />
    <glyph glyph-name="registered" unicode="&#xae;" horiz-adv-x="1298" 
d="M1218 979q0 -146 -33.5 -259t-103.5 -190.5t-177.5 -118t-254.5 -40.5t-254 40.5t-177 118t-104 190.5t-34 259q0 145 34 257.5t104 189.5t177 117t254 40t254.5 -40t177.5 -117t103.5 -189.5t33.5 -257.5zM289 979q0 -100 19 -173.5t61.5 -122t111 -72t168.5 -23.5
t169 23.5t111.5 72t61 122t18.5 173.5q0 99 -18.5 172t-61 121.5t-111.5 72t-169 23.5t-168.5 -23.5t-111 -72t-61.5 -121.5t-19 -172zM747 684q-11 0 -16.5 4t-9.5 15l-62 192h-18h-18.5t-34.5 2v-193q0 -20 -20 -20h-116q-20 0 -20 20v552q0 20 20 21q45 2 89.5 3.5
t82.5 1.5q93 0 145 -12t77.5 -35t31.5 -57t6 -78v-31q0 -23 -2.5 -44.5t-10.5 -41t-24.5 -36t-43.5 -28.5l87 -186q5 -11 4 -17.5t-9 -14.5l-3 -3q-14 -14 -34 -14h-101zM653 1133q-9 0 -28.5 -0.5t-36.5 -2.5v-102q6 -1 16.5 -1.5t21.5 -0.5h20.5h14.5q38 0 53 9t15 32v25
q0 21 -15.5 31t-60.5 10z" />
    <glyph glyph-name="macron" unicode="&#xaf;" 
d="M112 1268q-20 0 -20 20v197q0 20 20 20h554q20 0 20 -20v-197q0 -20 -20 -20h-554z" />
    <glyph glyph-name="degree" unicode="&#xb0;" horiz-adv-x="887" 
d="M444 1255q-14 0 -31.5 -3.5t-32.5 -13t-25.5 -27.5t-10.5 -46v-26q0 -29 10.5 -46.5t25.5 -27t32.5 -13t31.5 -3.5t31 3t32 12.5t25.5 27.5t10.5 47v26q0 28 -10.5 46t-25.5 27.5t-32 13t-31 3.5zM444 801q-86 0 -155 20.5t-117 60t-74 98.5t-26 136v70q0 78 25.5 138
t73.5 100t117 60.5t156 20.5q86 0 155 -20.5t117 -60.5t73.5 -100t25.5 -138v-70q0 -77 -26 -136t-74 -98.5t-117 -60t-154 -20.5z" />
    <glyph glyph-name="plusminus" unicode="&#xb1;" horiz-adv-x="1191" 
d="M120 813q-20 0 -20 20v280q0 20 20 20h316v320q0 20 20 20h279q20 0 20 -20v-320h316q20 0 20 -20v-280q0 -20 -20 -20h-316v-312q0 -20 -20 -20h-279q-20 0 -20 20v312h-316zM140 0q-20 0 -20 20v279q0 20 20 20h911q20 0 20 -20v-279q0 -20 -20 -20h-911z" />
    <glyph glyph-name="twosuperior" unicode="&#xb2;" horiz-adv-x="865" 
d="M114 600q-20 0 -20 20v95q0 71 9.5 119t32.5 85.5t61.5 71t96.5 74.5l123 88q15 11 24 18t13.5 12.5t6 10.5t1.5 12q0 16 -27 25.5t-81 9.5q-14 0 -34.5 -0.5t-45 -1.5t-51 -3.5t-52.5 -5.5q-20 -3 -23 17l-35 204q-3 20 16 25q67 18 134.5 23.5t118.5 5.5
q120 0 195 -22.5t116.5 -59t56.5 -84t15 -98.5q0 -48 -9 -85.5t-29 -70t-52.5 -62.5t-80.5 -61l-59 -39q-26 -17 -42.5 -30t-26 -22.5t-14.5 -16t-8 -10.5h291q20 0 20 -20v-204q0 -20 -20 -20h-621z" />
    <glyph glyph-name="threesuperior" unicode="&#xb3;" horiz-adv-x="837" 
d="M385 580q-78 0 -147.5 4.5t-123.5 12.5q-20 3 -19 23l14 212q1 20 21 19q68 -4 123 -4.5t103 -0.5q51 0 76.5 9.5t25.5 37.5v18q0 26 -18.5 36.5t-75.5 10.5h-107q-20 0 -20 20v145q0 20 20 20h99q31 0 50.5 2t31 7.5t16 15t4.5 25.5q0 29 -24.5 36.5t-77.5 7.5
q-57 0 -112.5 -0.5t-107.5 -2.5q-20 -1 -21 19l-14 212q-1 20 19 23q51 7 116.5 12t140.5 5q178 0 273 -55t95 -178v-19q0 -78 -40 -125.5t-115 -68.5q32 -14 60.5 -31.5t49.5 -42.5t33 -59t12 -80v-15q0 -75 -24 -123.5t-69.5 -77t-112.5 -39.5t-154 -11z" />
    <glyph glyph-name="acute" unicode="&#xb4;" 
d="M139 1270q-20 0 -9 17l164 242q6 10 13 13.5t18 3.5h325q9 0 11 -4t-5 -11l-230 -246q-8 -8 -15.5 -11.5t-18.5 -3.5h-253z" />
    <glyph glyph-name="mu" unicode="&#xb5;" horiz-adv-x="1332" 
d="M158 -389q-20 0 -20 20v1420q0 20 20 20h292q20 0 20 -20v-514q0 -79 13 -129.5t39 -79t66.5 -39t94.5 -10.5h39t42.5 1.5t41.5 3.5t37 7v760q0 20 20 20h291q20 0 20 -20v-994q0 -21 -19 -26q-44 -12 -102.5 -23t-123 -20t-130.5 -14t-126 -5q-31 0 -61.5 3t-57.5 8
t-49 11t-35 13v-373q0 -20 -20 -20h-292z" />
    <glyph glyph-name="paragraph" unicode="&#xb6;" horiz-adv-x="1453" 
d="M562 -453q-20 0 -20 20v1006q-13 -2 -25 -2h-24q-133 0 -218 20.5t-133.5 69t-67 128.5t-18.5 198v82q0 114 18.5 192t67 125.5t133.5 68t218 20.5h348q20 0 20 -20v-1888q0 -20 -20 -20h-279zM1004 -453q-20 0 -20 20v1888q0 20 20 20h280q20 0 20 -20v-1888
q0 -20 -20 -20h-280z" />
    <glyph glyph-name="periodcentered" unicode="&#xb7;" horiz-adv-x="578" 
d="M142 370q-20 0 -20 20v300q0 21 20 22l292 35q20 1 20 -18v-339q0 -20 -20 -20h-292z" />
    <glyph glyph-name="cedilla" unicode="&#xb8;" 
d="M180 -389q-19 0 -10 17l156 253q5 10 12 13.5t18 3.5h242q20 0 10 -18l-135 -251q-6 -11 -12.5 -14.5t-17.5 -3.5h-263z" />
    <glyph glyph-name="onesuperior" unicode="&#xb9;" horiz-adv-x="588" 
d="M102 1232q-20 -4 -23 16l-35 198q-3 20 17 24l134 31q9 2 20 3t20 1h212q20 0 20 -20v-865q0 -20 -20 -20h-243q-20 0 -20 20v630z" />
    <glyph glyph-name="ordmasculine" unicode="&#xba;" horiz-adv-x="1024" 
d="M513 1270q-31 0 -51 -6.5t-31.5 -22t-16 -42.5t-4.5 -69v-65q0 -42 5 -68.5t17.5 -42.5t32.5 -22t50 -6t49.5 6t31.5 22t16.5 43.5t4.5 69.5v63q0 42 -4.5 69t-16 42.5t-32 22t-51.5 6.5zM513 688q-108 0 -181.5 21.5t-117.5 66.5t-63 114.5t-19 166.5v78q0 97 21 167
t67.5 115t121.5 66.5t183 21.5q101 0 171.5 -21.5t115 -66.5t64.5 -115t20 -167v-78q0 -97 -22 -166.5t-68.5 -114.5t-119 -66.5t-173.5 -21.5zM142 342q-20 0 -20 20v198q0 20 20 20h738q20 0 20 -20v-198q0 -20 -20 -20h-738z" />
    <glyph glyph-name="guillemotright" unicode="&#xbb;" horiz-adv-x="1450" 
d="M99 136q-20 0 -7 15l320 384l-320 385q-13 15 7 15h365q20 0 32 -16l290 -368q12 -16 0 -32l-290 -367q-12 -16 -32 -16h-365zM724 136q-20 0 -7 15l320 384l-320 385q-13 15 7 15h365q20 0 32 -16l290 -368q12 -16 0 -32l-290 -367q-12 -16 -32 -16h-365z" />
    <glyph glyph-name="onequarter" unicode="&#xbc;" horiz-adv-x="2017" 
d="M292 0q-21 0 -10 18l780 1439q6 11 12.5 14.5t17.5 3.5h356q20 0 10 -18l-781 -1439q-6 -11 -12.5 -14.5t-17.5 -3.5h-355zM1133 168q-20 0 -20 20v234q0 21 11 36l298 431q11 16 31 16h382q20 0 20 -20v-463h74q20 0 20 -20v-214q0 -20 -20 -20h-74v-148q0 -20 -20 -20
h-243q-20 0 -20 20v148h-439zM1406 422h166l-5 229zM111 1232q-20 -4 -23 16l-35 198q-3 20 17 24l134 31q9 2 20 3t20 1h212q20 0 20 -20v-865q0 -20 -20 -20h-243q-20 0 -20 20v630z" />
    <glyph glyph-name="onehalf" unicode="&#xbd;" horiz-adv-x="1987" 
d="M292 0q-21 0 -10 18l780 1439q6 11 12.5 14.5t17.5 3.5h356q20 0 10 -18l-781 -1439q-6 -11 -12.5 -14.5t-17.5 -3.5h-355zM1257 0q-20 0 -20 20v95q0 71 9.5 119t32.5 85.5t61.5 71t96.5 74.5l123 88q15 11 24 18t13.5 12.5t6 10.5t1.5 12q0 16 -27 25.5t-81 9.5
q-14 0 -34.5 -0.5t-45 -1.5t-51 -3.5t-52.5 -5.5q-20 -3 -23 17l-35 204q-3 20 16 25q67 18 134.5 23.5t118.5 5.5q120 0 195 -22.5t116.5 -59t56.5 -84t15 -98.5q0 -48 -9 -85.5t-29 -70t-52.5 -62.5t-80.5 -61l-59 -39q-26 -17 -42.5 -30t-26 -22.5t-14.5 -16t-8 -10.5
h291q20 0 20 -20v-204q0 -20 -20 -20h-621zM111 1232q-20 -4 -23 16l-35 198q-3 20 17 24l134 31q9 2 20 3t20 1h212q20 0 20 -20v-865q0 -20 -20 -20h-243q-20 0 -20 20v630z" />
    <glyph glyph-name="threequarters" unicode="&#xbe;" horiz-adv-x="2158" 
d="M1285 168q-20 0 -20 20v234q0 21 11 36l298 431q11 16 31 16h382q20 0 20 -20v-463h74q20 0 20 -20v-214q0 -20 -20 -20h-74v-148q0 -20 -20 -20h-243q-20 0 -20 20v148h-439zM1558 422h166l-5 229zM442 0q-21 0 -10 18l780 1439q6 11 12.5 14.5t17.5 3.5h356
q20 0 10 -18l-781 -1439q-6 -11 -12.5 -14.5t-17.5 -3.5h-355zM363 580q-78 0 -147.5 4.5t-123.5 12.5q-20 3 -19 23l14 212q1 20 21 19q68 -4 123 -4.5t103 -0.5q51 0 76.5 9.5t25.5 37.5v18q0 26 -18.5 36.5t-75.5 10.5h-107q-20 0 -20 20v145q0 20 20 20h99q31 0 50.5 2
t31 7.5t16 15t4.5 25.5q0 29 -24.5 36.5t-77.5 7.5q-57 0 -112.5 -0.5t-107.5 -2.5q-20 -1 -21 19l-14 212q-1 20 19 23q51 7 116.5 12t140.5 5q178 0 273 -55t95 -178v-19q0 -78 -40 -125.5t-115 -68.5q32 -14 60.5 -31.5t49.5 -42.5t33 -59t12 -80v-15q0 -75 -24 -123.5
t-69.5 -77t-112.5 -39.5t-154 -11z" />
    <glyph glyph-name="questiondown" unicode="&#xbf;" horiz-adv-x="926" 
d="M390 554q0 11 11 11h292q19 0 24 -19q4 -14 7.5 -38.5t3.5 -59.5q0 -28 -4 -58.5t-16.5 -63t-35.5 -66.5t-61 -70l-82 -75q-24 -23 -41.5 -40t-29 -31.5t-16.5 -29t-5 -33.5q0 -37 33.5 -56t118.5 -19q57 0 112 6t122 17q20 3 23 -17l45 -276q3 -20 -16 -25
q-71 -22 -162 -33.5t-192 -11.5q-109 0 -196.5 18t-149 56.5t-94.5 99.5t-33 147v19q0 51 9.5 91.5t29 77t49.5 73t72 79.5l94 99q29 30 46.5 51t26.5 42.5t12 49t3 72.5v13zM702 1071q20 0 20 -20v-300q0 -21 -20 -22l-292 -35q-20 -1 -20 18v339q0 20 20 20h292z" />
    <glyph glyph-name="Agrave" unicode="&#xc0;" horiz-adv-x="1372" 
d="M16 0q-20 0 -14 19l436 1437q4 11 9.5 15t16.5 4h442q11 0 16.5 -4t9.5 -15l438 -1437q6 -19 -14 -19h-345q-20 0 -25 19l-60 221h-483l-59 -221q-5 -19 -25 -19h-343zM684 1135l-158 -588h318zM620 1597q-11 0 -19 2.5t-16 10.5l-257 220q-15 13 5 13h335q11 0 18 -3.5
t15 -11.5l191 -216q13 -15 -7 -15h-265z" />
    <glyph glyph-name="Aacute" unicode="&#xc1;" horiz-adv-x="1372" 
d="M16 0q-20 0 -14 19l436 1437q4 11 9.5 15t16.5 4h442q11 0 16.5 -4t9.5 -15l438 -1437q6 -19 -14 -19h-345q-20 0 -25 19l-60 221h-483l-59 -221q-5 -19 -25 -19h-343zM684 1135l-158 -588h318zM511 1597q-20 0 -7 15l191 216q8 8 15 11.5t18 3.5h335q20 0 5 -13
l-257 -220q-8 -8 -16 -10.5t-19 -2.5h-265z" />
    <glyph glyph-name="Acircumflex" unicode="&#xc2;" horiz-adv-x="1372" 
d="M16 0q-20 0 -14 19l436 1437q4 11 9.5 15t16.5 4h442q11 0 16.5 -4t9.5 -15l438 -1437q6 -19 -14 -19h-345q-20 0 -25 19l-60 221h-483l-59 -221q-5 -19 -25 -19h-343zM684 1135l-158 -588h318zM514 1828q8 8 15.5 11.5t18.5 3.5h276q11 0 18.5 -3.5t15.5 -11.5l203 -216
q7 -7 5 -11t-11 -4h-242q-11 0 -18.5 3.5t-15.5 11.5l-83 88h-20l-82 -88q-8 -8 -15.5 -11.5t-18.5 -3.5h-243q-9 0 -11 4t5 11z" />
    <glyph glyph-name="Atilde" unicode="&#xc3;" horiz-adv-x="1372" 
d="M16 0q-20 0 -14 19l436 1437q4 11 9.5 15t16.5 4h442q11 0 16.5 -4t9.5 -15l438 -1437q6 -19 -14 -19h-345q-20 0 -25 19l-60 221h-483l-59 -221q-5 -19 -25 -19h-343zM684 1135l-158 -588h318zM317 1587q-20 0 -20 20v70q0 78 19.5 126t50.5 73.5t70 34t79 8.5
q41 0 72.5 -9t72.5 -28l48 -22q43 -20 64 -30.5t37 -10.5q7 0 13 2t10 10t6 23.5t3 42.5q0 20 20 20h191q20 0 20 -20v-70q0 -78 -19 -125.5t-50 -73.5t-70.5 -34.5t-79.5 -8.5q-41 0 -72 8.5t-73 28.5l-47 23q-44 22 -64 31.5t-33 9.5q-9 0 -15.5 -2.5t-11 -10.5t-7 -23.5
t-3.5 -42.5q0 -20 -20 -20h-191z" />
    <glyph glyph-name="Adieresis" unicode="&#xc4;" horiz-adv-x="1372" 
d="M16 0q-20 0 -14 19l436 1437q4 11 9.5 15t16.5 4h442q11 0 16.5 -4t9.5 -15l438 -1437q6 -19 -14 -19h-345q-20 0 -25 19l-60 221h-483l-59 -221q-5 -19 -25 -19h-343zM684 1135l-158 -588h318zM317 1597q-20 0 -20 20v216q0 20 20 23l282 35q20 3 20 -17v-257
q0 -20 -20 -20h-282zM774 1597q-20 0 -20 20v216q0 20 20 23l281 35q20 3 20 -17v-257q0 -20 -20 -20h-281z" />
    <glyph glyph-name="Aring" unicode="&#xc5;" horiz-adv-x="1362" 
d="M12 0q-20 0 -14 19l436 1437q4 13 13 17q-12 24 -17.5 51.5t-5.5 56.5v10q0 47 14.5 89.5t46 74.5t80.5 51t117 19q67 0 115.5 -19t80 -51.5t47 -76t15.5 -92.5q0 -64 -25 -114q8 -3 13 -16l438 -1437q6 -19 -14 -19h-345q-20 0 -25 19l-60 221h-483l-59 -221
q-5 -19 -25 -19h-343zM680 1135l-158 -588h318zM692 1653q-31 0 -51 -16.5t-20 -41.5v-16q0 -25 20 -41t51 -16t51.5 16t20.5 41v16q0 25 -20.5 41.5t-51.5 16.5z" />
    <glyph glyph-name="AE" unicode="&#xc6;" horiz-adv-x="1797" 
d="M872 0q-20 0 -20 20v220h-419l-78 -221q-7 -19 -27 -19h-343q-20 0 -13 19l551 1437q7 19 27 19h1136q20 0 20 -20v-288q0 -20 -20 -20h-484v-242h340q20 0 20 -20v-287q0 -20 -20 -20h-340v-250h484q20 0 20 -20v-288q0 -20 -20 -20h-814zM755 1147l-213 -600h310v600
h-97z" />
    <glyph glyph-name="Ccedilla" unicode="&#xc7;" horiz-adv-x="1212" 
d="M749 -31q-155 0 -277.5 34t-207 114.5t-129 213.5t-44.5 331v153q0 196 44.5 328.5t129 213t207 114.5t277.5 34q54 0 107.5 -3.5t102.5 -10.5t92.5 -17t77.5 -23q11 -4 14.5 -9.5t1.5 -16.5l-45 -272q-3 -20 -23 -16q-78 17 -157 23.5t-157 6.5t-138 -17t-100.5 -57
t-61 -105.5t-20.5 -162.5v-174q0 -98 20.5 -163.5t60.5 -106t100 -57.5t139 -17q83 0 165 5t163 15q20 3 23 -17l39 -279q3 -20 -16 -24q-35 -9 -79.5 -16t-94.5 -12t-104.5 -7.5t-109.5 -2.5zM480 -389q-19 0 -10 17l156 253q5 10 12 13.5t18 3.5h242q20 0 10 -18
l-135 -251q-6 -11 -12.5 -14.5t-17.5 -3.5h-263z" />
    <glyph glyph-name="Egrave" unicode="&#xc8;" horiz-adv-x="1212" 
d="M168 0q-20 0 -20 20v1435q0 20 20 20h933q20 0 20 -20v-288q0 -20 -20 -20h-602v-242h457q20 0 20 -20v-287q0 -20 -20 -20h-457v-250h602q20 0 20 -20v-288q0 -20 -20 -20h-933zM587 1597q-11 0 -19 2.5t-16 10.5l-257 220q-15 13 5 13h335q11 0 18 -3.5t15 -11.5
l191 -216q13 -15 -7 -15h-265z" />
    <glyph glyph-name="Eacute" unicode="&#xc9;" horiz-adv-x="1212" 
d="M168 0q-20 0 -20 20v1435q0 20 20 20h933q20 0 20 -20v-288q0 -20 -20 -20h-602v-242h457q20 0 20 -20v-287q0 -20 -20 -20h-457v-250h602q20 0 20 -20v-288q0 -20 -20 -20h-933zM445 1597q-20 0 -7 15l191 216q8 8 15 11.5t18 3.5h335q20 0 5 -13l-257 -220
q-8 -8 -16 -10.5t-19 -2.5h-265z" />
    <glyph glyph-name="Ecircumflex" unicode="&#xca;" horiz-adv-x="1212" 
d="M168 0q-20 0 -20 20v1435q0 20 20 20h933q20 0 20 -20v-288q0 -20 -20 -20h-602v-242h457q20 0 20 -20v-287q0 -20 -20 -20h-457v-250h602q20 0 20 -20v-288q0 -20 -20 -20h-933zM465 1828q8 8 15.5 11.5t18.5 3.5h276q11 0 18.5 -3.5t15.5 -11.5l203 -216q7 -7 5 -11
t-11 -4h-242q-11 0 -18.5 3.5t-15.5 11.5l-83 88h-20l-82 -88q-8 -8 -15.5 -11.5t-18.5 -3.5h-243q-9 0 -11 4t5 11z" />
    <glyph glyph-name="Edieresis" unicode="&#xcb;" horiz-adv-x="1212" 
d="M168 0q-20 0 -20 20v1435q0 20 20 20h933q20 0 20 -20v-288q0 -20 -20 -20h-602v-242h457q20 0 20 -20v-287q0 -20 -20 -20h-457v-250h602q20 0 20 -20v-288q0 -20 -20 -20h-933zM248 1597q-20 0 -20 20v216q0 20 20 23l282 35q20 3 20 -17v-257q0 -20 -20 -20h-282z
M705 1597q-20 0 -20 20v216q0 20 20 23l281 35q20 3 20 -17v-257q0 -20 -20 -20h-281z" />
    <glyph glyph-name="Igrave" unicode="&#xcc;" horiz-adv-x="646" 
d="M168 0q-20 0 -20 20v1435q0 20 20 20h311q20 0 20 -20v-1435q0 -20 -20 -20h-311zM272 1597q-11 0 -19 2.5t-16 10.5l-257 220q-15 13 5 13h335q11 0 18 -3.5t15 -11.5l191 -216q13 -15 -7 -15h-265z" />
    <glyph glyph-name="Iacute" unicode="&#xcd;" horiz-adv-x="647" 
d="M168 0q-20 0 -20 20v1435q0 20 20 20h311q20 0 20 -20v-1435q0 -20 -20 -20h-311zM48 1597q-20 0 -7 15l191 216q8 8 15 11.5t18 3.5h335q20 0 5 -13l-257 -220q-8 -8 -16 -10.5t-19 -2.5h-265z" />
    <glyph glyph-name="Icircumflex" unicode="&#xce;" horiz-adv-x="646" 
d="M168 0q-20 0 -20 20v1435q0 20 20 20h311q20 0 20 -20v-1435q0 -20 -20 -20h-311zM152 1828q8 8 15.5 11.5t18.5 3.5h276q11 0 18.5 -3.5t15.5 -11.5l203 -216q7 -7 5 -11t-11 -4h-242q-11 0 -18.5 3.5t-15.5 11.5l-83 88h-20l-82 -88q-8 -8 -15.5 -11.5t-18.5 -3.5h-243
q-9 0 -11 4t5 11z" />
    <glyph glyph-name="Idieresis" unicode="&#xcf;" horiz-adv-x="646" 
d="M168 0q-20 0 -20 20v1435q0 20 20 20h311q20 0 20 -20v-1435q0 -20 -20 -20h-311zM-44 1597q-20 0 -20 20v216q0 20 20 23l282 35q20 3 20 -17v-257q0 -20 -20 -20h-282zM413 1597q-20 0 -20 20v216q0 20 20 23l281 35q20 3 20 -17v-257q0 -20 -20 -20h-281z" />
    <glyph glyph-name="Eth" unicode="&#xd0;" horiz-adv-x="1448" 
d="M533 -16q-31 0 -72.5 1t-88 2.5t-94.5 4t-92 6.5q-20 1 -20 22v574h-103q-20 0 -20 20v279q0 20 20 20h103v542q0 20 20 21q39 3 86.5 5.5t95.5 5t91.5 3.5t73.5 1q124 0 234 -10t202 -37t165.5 -75.5t124.5 -125.5t78 -187.5t27 -260.5v-113q0 -150 -27 -260.5t-78 -188
t-124.5 -126t-165.5 -76t-202 -37.5t-234 -10zM613 1180q-22 0 -48.5 -1.5t-47.5 -4.5v-261h211q20 0 20 -20v-279q0 -20 -20 -20h-211v-293q9 -2 25 -3t33.5 -1.5t33.5 -1t24 -0.5q97 0 168 15t118 57t70 117t23 194v119q0 118 -24.5 192.5t-74 117t-124.5 58t-176 15.5z
" />
    <glyph glyph-name="Ntilde" unicode="&#xd1;" horiz-adv-x="1520" 
d="M168 0q-20 0 -20 20v1435q0 20 20 20h338q11 0 17.5 -3.5t12.5 -13.5l439 -751q11 -19 19 -36t14 -30t9 -21t4 -8l1 843q0 20 20 20h310q20 0 20 -20v-1435q0 -20 -20 -20h-338q-11 0 -17.5 3.5t-12.5 13.5l-436 747q-26 45 -36.5 72.5t-12.5 27.5v-844q0 -20 -20 -20
h-311zM394 1587q-20 0 -20 20v70q0 78 19.5 126t50.5 73.5t70 34t79 8.5q41 0 72.5 -9t72.5 -28l48 -22q43 -20 64 -30.5t37 -10.5q7 0 13 2t10 10t6 23.5t3 42.5q0 20 20 20h191q20 0 20 -20v-70q0 -78 -19 -125.5t-50 -73.5t-70.5 -34.5t-79.5 -8.5q-41 0 -72 8.5
t-73 28.5l-47 23q-44 22 -64 31.5t-33 9.5q-9 0 -15.5 -2.5t-11 -10.5t-7 -23.5t-3.5 -42.5q0 -20 -20 -20h-191z" />
    <glyph glyph-name="Ograve" unicode="&#xd2;" horiz-adv-x="1452" 
d="M725 -31q-150 0 -267.5 34t-198.5 114.5t-123 213.5t-42 331v153q0 196 42 328t123 212.5t198.5 115t267.5 34.5q151 0 269 -34t199 -114.5t123 -213.5t42 -330v-154q0 -197 -42 -329t-123 -212.5t-199 -114.5t-269 -34zM725 1157q-70 0 -122.5 -16.5t-88 -55t-53 -102.5
t-17.5 -158v-174q0 -95 17.5 -159t53 -103t88 -55.5t122.5 -16.5t123 16.5t88.5 55.5t53.5 103t18 159v172q0 94 -18 158t-53.5 103t-88.5 56t-123 17zM674 1597q-11 0 -19 2.5t-16 10.5l-257 220q-15 13 5 13h335q11 0 18 -3.5t15 -11.5l191 -216q13 -15 -7 -15h-265z" />
    <glyph glyph-name="Oacute" unicode="&#xd3;" horiz-adv-x="1452" 
d="M725 -31q-150 0 -267.5 34t-198.5 114.5t-123 213.5t-42 331v153q0 196 42 328t123 212.5t198.5 115t267.5 34.5q151 0 269 -34t199 -114.5t123 -213.5t42 -330v-154q0 -197 -42 -329t-123 -212.5t-199 -114.5t-269 -34zM725 1157q-70 0 -122.5 -16.5t-88 -55t-53 -102.5
t-17.5 -158v-174q0 -95 17.5 -159t53 -103t88 -55.5t122.5 -16.5t123 16.5t88.5 55.5t53.5 103t18 159v172q0 94 -18 158t-53.5 103t-88.5 56t-123 17zM491 1597q-20 0 -7 15l191 216q8 8 15 11.5t18 3.5h335q20 0 5 -13l-257 -220q-8 -8 -16 -10.5t-19 -2.5h-265z" />
    <glyph glyph-name="Ocircumflex" unicode="&#xd4;" horiz-adv-x="1452" 
d="M725 -31q-150 0 -267.5 34t-198.5 114.5t-123 213.5t-42 331v153q0 196 42 328t123 212.5t198.5 115t267.5 34.5q151 0 269 -34t199 -114.5t123 -213.5t42 -330v-154q0 -197 -42 -329t-123 -212.5t-199 -114.5t-269 -34zM725 1157q-70 0 -122.5 -16.5t-88 -55t-53 -102.5
t-17.5 -158v-174q0 -95 17.5 -159t53 -103t88 -55.5t122.5 -16.5t123 16.5t88.5 55.5t53.5 103t18 159v172q0 94 -18 158t-53.5 103t-88.5 56t-123 17zM553 1828q8 8 15.5 11.5t18.5 3.5h276q11 0 18.5 -3.5t15.5 -11.5l203 -216q7 -7 5 -11t-11 -4h-242q-11 0 -18.5 3.5
t-15.5 11.5l-83 88h-20l-82 -88q-8 -8 -15.5 -11.5t-18.5 -3.5h-243q-9 0 -11 4t5 11z" />
    <glyph glyph-name="Otilde" unicode="&#xd5;" horiz-adv-x="1452" 
d="M725 -31q-150 0 -267.5 34t-198.5 114.5t-123 213.5t-42 331v153q0 196 42 328t123 212.5t198.5 115t267.5 34.5q151 0 269 -34t199 -114.5t123 -213.5t42 -330v-154q0 -197 -42 -329t-123 -212.5t-199 -114.5t-269 -34zM725 1157q-70 0 -122.5 -16.5t-88 -55t-53 -102.5
t-17.5 -158v-174q0 -95 17.5 -159t53 -103t88 -55.5t122.5 -16.5t123 16.5t88.5 55.5t53.5 103t18 159v172q0 94 -18 158t-53.5 103t-88.5 56t-123 17zM358 1587q-20 0 -20 20v70q0 78 19.5 126t50.5 73.5t70 34t79 8.5q41 0 72.5 -9t72.5 -28l48 -22q43 -20 64 -30.5
t37 -10.5q7 0 13 2t10 10t6 23.5t3 42.5q0 20 20 20h191q20 0 20 -20v-70q0 -78 -19 -125.5t-50 -73.5t-70.5 -34.5t-79.5 -8.5q-41 0 -72 8.5t-73 28.5l-47 23q-44 22 -64 31.5t-33 9.5q-9 0 -15.5 -2.5t-11 -10.5t-7 -23.5t-3.5 -42.5q0 -20 -20 -20h-191z" />
    <glyph glyph-name="Odieresis" unicode="&#xd6;" horiz-adv-x="1452" 
d="M725 -31q-150 0 -267.5 34t-198.5 114.5t-123 213.5t-42 331v153q0 196 42 328t123 212.5t198.5 115t267.5 34.5q151 0 269 -34t199 -114.5t123 -213.5t42 -330v-154q0 -197 -42 -329t-123 -212.5t-199 -114.5t-269 -34zM725 1157q-70 0 -122.5 -16.5t-88 -55t-53 -102.5
t-17.5 -158v-174q0 -95 17.5 -159t53 -103t88 -55.5t122.5 -16.5t123 16.5t88.5 55.5t53.5 103t18 159v172q0 94 -18 158t-53.5 103t-88.5 56t-123 17zM356 1597q-20 0 -20 20v216q0 20 20 23l282 35q20 3 20 -17v-257q0 -20 -20 -20h-282zM813 1597q-20 0 -20 20v216
q0 20 20 23l281 35q20 3 20 -17v-257q0 -20 -20 -20h-281z" />
    <glyph glyph-name="multiply" unicode="&#xd7;" horiz-adv-x="1075" 
d="M86 992q-14 14 0 28l200 197q14 14 28 0l222 -223l227 227q14 14 28 0l197 -197q14 -14 0 -28l-227 -228l225 -224q14 -14 0 -28l-197 -197q-14 -14 -28 0l-225 224l-220 -222q-14 -14 -28 0l-197 200q-14 14 0 28l219 219z" />
    <glyph glyph-name="Oslash" unicode="&#xd8;" horiz-adv-x="1466" 
d="M184 238q-42 79 -63 183.5t-21 240.5v153q0 196 42 328t123 212.5t198.5 115t267.5 34.5q121 0 219.5 -23t175.5 -74l41 51q8 9 15 12.5t18 3.5h253q20 0 7 -16l-180 -224q42 -79 63 -183t21 -239v-154q0 -197 -42 -329t-123 -212.5t-199 -114.5t-269 -34
q-120 0 -218.5 23t-174.5 73l-40 -49q-13 -16 -33 -16h-253q-20 0 -7 16zM731 1167q-70 0 -122.5 -17t-88 -56.5t-53 -105.5t-17.5 -163v-184q0 -19 0.5 -36t1.5 -34l452 561q-63 35 -173 35zM1014 833q0 36 -3 69l-451 -561q32 -18 74 -26t97 -8q70 0 123 17t88.5 57.5
t53.5 106t18 163.5v182z" />
    <glyph glyph-name="Ugrave" unicode="&#xd9;" horiz-adv-x="1501" 
d="M751 -31q-146 0 -260.5 28t-193.5 90t-120 161t-41 241v966q0 20 20 20h310q20 0 20 -20v-886q0 -71 13.5 -121t45 -81.5t82 -45.5t124.5 -14q71 0 121.5 14t82.5 45.5t47 81.5t15 121v886q0 20 20 20h308q20 0 20 -20v-966q0 -142 -42 -241t-121.5 -161t-193 -90
t-257.5 -28zM678 1597q-11 0 -19 2.5t-16 10.5l-257 220q-15 13 5 13h335q11 0 18 -3.5t15 -11.5l191 -216q13 -15 -7 -15h-265z" />
    <glyph glyph-name="Uacute" unicode="&#xda;" horiz-adv-x="1501" 
d="M751 -31q-146 0 -260.5 28t-193.5 90t-120 161t-41 241v966q0 20 20 20h310q20 0 20 -20v-886q0 -71 13.5 -121t45 -81.5t82 -45.5t124.5 -14q71 0 121.5 14t82.5 45.5t47 81.5t15 121v886q0 20 20 20h308q20 0 20 -20v-966q0 -142 -42 -241t-121.5 -161t-193 -90
t-257.5 -28zM514 1597q-20 0 -7 15l191 216q8 8 15 11.5t18 3.5h335q20 0 5 -13l-257 -220q-8 -8 -16 -10.5t-19 -2.5h-265z" />
    <glyph glyph-name="Ucircumflex" unicode="&#xdb;" horiz-adv-x="1501" 
d="M751 -31q-146 0 -260.5 28t-193.5 90t-120 161t-41 241v966q0 20 20 20h310q20 0 20 -20v-886q0 -71 13.5 -121t45 -81.5t82 -45.5t124.5 -14q71 0 121.5 14t82.5 45.5t47 81.5t15 121v886q0 20 20 20h308q20 0 20 -20v-966q0 -142 -42 -241t-121.5 -161t-193 -90
t-257.5 -28zM578 1828q8 8 15.5 11.5t18.5 3.5h276q11 0 18.5 -3.5t15.5 -11.5l203 -216q7 -7 5 -11t-11 -4h-242q-11 0 -18.5 3.5t-15.5 11.5l-83 88h-20l-82 -88q-8 -8 -15.5 -11.5t-18.5 -3.5h-243q-9 0 -11 4t5 11z" />
    <glyph glyph-name="Udieresis" unicode="&#xdc;" horiz-adv-x="1501" 
d="M751 -31q-146 0 -260.5 28t-193.5 90t-120 161t-41 241v966q0 20 20 20h310q20 0 20 -20v-886q0 -71 13.5 -121t45 -81.5t82 -45.5t124.5 -14q71 0 121.5 14t82.5 45.5t47 81.5t15 121v886q0 20 20 20h308q20 0 20 -20v-966q0 -142 -42 -241t-121.5 -161t-193 -90
t-257.5 -28zM381 1597q-20 0 -20 20v216q0 20 20 23l282 35q20 3 20 -17v-257q0 -20 -20 -20h-282zM838 1597q-20 0 -20 20v216q0 20 20 23l281 35q20 3 20 -17v-257q0 -20 -20 -20h-281z" />
    <glyph glyph-name="Yacute" unicode="&#xdd;" horiz-adv-x="1268" 
d="M480 0q-20 0 -20 20v463l-472 974q-9 18 11 18h355q11 0 17 -3.5t11 -14.5l253 -589l253 589q5 11 11 14.5t17 3.5h353q20 0 11 -18l-470 -974v-463q0 -20 -20 -20h-310zM439 1597q-20 0 -7 15l191 216q8 8 15 11.5t18 3.5h335q20 0 5 -13l-257 -220q-8 -8 -16 -10.5
t-19 -2.5h-265z" />
    <glyph glyph-name="Thorn" unicode="&#xde;" horiz-adv-x="1375" 
d="M168 0q-20 0 -20 20v1435q0 20 20 20h311q20 0 20 -20v-173q42 1 80.5 1.5t70.5 0.5q137 0 239 -9.5t175.5 -30.5t121.5 -54.5t76 -82t39 -113t11 -146.5v-119q0 -83 -11 -147.5t-39 -113t-76 -82t-121.5 -54.5t-175.5 -30t-239 -9h-38h-42t-39.5 0.5t-31.5 1.5v-275
q0 -20 -20 -20h-311zM656 973q-18 0 -38 -0.5t-41 -1t-41 -2t-37 -2.5v-357q17 -2 37 -3t41 -1.5t41 -1t38 -0.5q94 0 153 5t92.5 21.5t45.5 46t12 79.5v65q0 49 -12 79t-45.5 46t-92.5 21.5t-153 5.5z" />
    <glyph glyph-name="germandbls" unicode="&#xdf;" horiz-adv-x="1304" 
d="M140 0q-20 0 -20 20v1070q0 152 40 248.5t111 152t170 76t217 20.5q141 0 243 -29t167 -83.5t96 -134t31 -181.5v-18q0 -59 -14 -113t-42.5 -98t-73 -76.5t-105.5 -48.5q128 -31 196 -123t68 -248v-28q0 -116 -21.5 -198.5t-73 -135.5t-136.5 -78t-212 -25q-49 0 -99.5 6
t-90.5 17q-11 3 -15 8.5t-3 16.5l18 231q2 11 6.5 15t15.5 2q25 -3 52.5 -4t50.5 -1q40 0 68.5 7.5t47 28t27 55.5t8.5 89v29q0 46 -6.5 78.5t-26.5 54.5t-56.5 35t-96.5 20l-33 4q-20 3 -20 23v238q0 20 20 23l25 3q55 8 89 22.5t53 35.5t25.5 48.5t6.5 60.5
q0 88 -45.5 123.5t-138.5 35.5q-75 0 -117.5 -15t-63.5 -45t-25.5 -75.5t-4.5 -106.5v-1012q0 -20 -20 -20h-292z" />
    <glyph glyph-name="agrave" unicode="&#xe0;" horiz-adv-x="1142" 
d="M553 229q19 0 40 0.5t41 1t38 2t32 3.5v182h-79q-81 0 -133 -4t-82 -15.5t-41 -30.5t-11 -49q0 -31 15.5 -49t42.5 -27t62.5 -11.5t74.5 -2.5zM487 821q-32 0 -69.5 -1t-78 -2.5t-81.5 -3.5t-78 -5q-20 -3 -20 18v228q0 20 20 23q41 6 87.5 10.5t92.5 8t89 5.5t77 2
q112 0 193 -11t136.5 -33.5t89.5 -57.5t52.5 -83t24.5 -109t6 -136v-652q0 -20 -20 -23q-57 -7 -119 -12.5t-122 -9.5t-113.5 -6t-92.5 -2q-131 0 -226.5 16t-157 55t-91 103.5t-29.5 161.5q0 70 9.5 123.5t33.5 92.5t65.5 65t105 42t152 22.5t206.5 6.5h75v33q0 34 -8.5 59
t-32 41t-66 23.5t-110.5 7.5zM498 1270q-11 0 -18.5 3.5t-15.5 11.5l-230 246q-7 7 -5 11t11 4h324q11 0 18 -3.5t13 -13.5l164 -242q11 -17 -9 -17h-252z" />
    <glyph glyph-name="aacute" unicode="&#xe1;" horiz-adv-x="1142" 
d="M553 229q19 0 40 0.5t41 1t38 2t32 3.5v182h-79q-81 0 -133 -4t-82 -15.5t-41 -30.5t-11 -49q0 -31 15.5 -49t42.5 -27t62.5 -11.5t74.5 -2.5zM487 821q-32 0 -69.5 -1t-78 -2.5t-81.5 -3.5t-78 -5q-20 -3 -20 18v228q0 20 20 23q41 6 87.5 10.5t92.5 8t89 5.5t77 2
q112 0 193 -11t136.5 -33.5t89.5 -57.5t52.5 -83t24.5 -109t6 -136v-652q0 -20 -20 -23q-57 -7 -119 -12.5t-122 -9.5t-113.5 -6t-92.5 -2q-131 0 -226.5 16t-157 55t-91 103.5t-29.5 161.5q0 70 9.5 123.5t33.5 92.5t65.5 65t105 42t152 22.5t206.5 6.5h75v33q0 34 -8.5 59
t-32 41t-66 23.5t-110.5 7.5zM372 1270q-20 0 -9 17l164 242q6 10 13 13.5t18 3.5h325q9 0 11 -4t-5 -11l-230 -246q-8 -8 -15.5 -11.5t-18.5 -3.5h-253z" />
    <glyph glyph-name="acircumflex" unicode="&#xe2;" horiz-adv-x="1142" 
d="M553 229q19 0 40 0.5t41 1t38 2t32 3.5v182h-79q-81 0 -133 -4t-82 -15.5t-41 -30.5t-11 -49q0 -31 15.5 -49t42.5 -27t62.5 -11.5t74.5 -2.5zM487 821q-32 0 -69.5 -1t-78 -2.5t-81.5 -3.5t-78 -5q-20 -3 -20 18v228q0 20 20 23q41 6 87.5 10.5t92.5 8t89 5.5t77 2
q112 0 193 -11t136.5 -33.5t89.5 -57.5t52.5 -83t24.5 -109t6 -136v-652q0 -20 -20 -23q-57 -7 -119 -12.5t-122 -9.5t-113.5 -6t-92.5 -2q-131 0 -226.5 16t-157 55t-91 103.5t-29.5 161.5q0 70 9.5 123.5t33.5 92.5t65.5 65t105 42t152 22.5t206.5 6.5h75v33q0 34 -8.5 59
t-32 41t-66 23.5t-110.5 7.5zM381 1530q12 16 32 16h296q20 0 32 -16l197 -265q13 -16 -8 -16h-263q-11 0 -17.5 3.5t-12.5 13.5l-66 106h-20l-66 -106q-6 -10 -12.5 -13.5t-17.5 -3.5h-263q-21 0 -8 16z" />
    <glyph glyph-name="atilde" unicode="&#xe3;" horiz-adv-x="1142" 
d="M553 229q19 0 40 0.5t41 1t38 2t32 3.5v182h-79q-81 0 -133 -4t-82 -15.5t-41 -30.5t-11 -49q0 -31 15.5 -49t42.5 -27t62.5 -11.5t74.5 -2.5zM487 821q-32 0 -69.5 -1t-78 -2.5t-81.5 -3.5t-78 -5q-20 -3 -20 18v228q0 20 20 23q41 6 87.5 10.5t92.5 8t89 5.5t77 2
q112 0 193 -11t136.5 -33.5t89.5 -57.5t52.5 -83t24.5 -109t6 -136v-652q0 -20 -20 -23q-57 -7 -119 -12.5t-122 -9.5t-113.5 -6t-92.5 -2q-131 0 -226.5 16t-157 55t-91 103.5t-29.5 161.5q0 70 9.5 123.5t33.5 92.5t65.5 65t105 42t152 22.5t206.5 6.5h75v33q0 34 -8.5 59
t-32 41t-66 23.5t-110.5 7.5zM429 1343q-9 0 -15.5 -2t-11 -10t-7 -23.5t-3.5 -42.5q0 -20 -20 -20h-185q-21 0 -22 20q-2 13 -3 31.5t-1 38.5q0 78 19.5 126t50.5 73.5t70 34t79 8.5q42 0 74 -8t70 -27l49 -24q42 -22 63 -31.5t33 -9.5q9 0 16 2t11.5 10t6.5 23.5t3 42.5
q0 20 20 20h185q21 0 22 -20q2 -13 3 -31.5t1 -38.5q0 -78 -19 -125.5t-50 -73.5t-70.5 -34.5t-79.5 -8.5q-21 0 -37.5 2t-33 6t-34 11t-38.5 16l-49 25q-42 21 -63 30.5t-34 9.5z" />
    <glyph glyph-name="adieresis" unicode="&#xe4;" horiz-adv-x="1142" 
d="M553 229q19 0 40 0.5t41 1t38 2t32 3.5v182h-79q-81 0 -133 -4t-82 -15.5t-41 -30.5t-11 -49q0 -31 15.5 -49t42.5 -27t62.5 -11.5t74.5 -2.5zM487 821q-32 0 -69.5 -1t-78 -2.5t-81.5 -3.5t-78 -5q-20 -3 -20 18v228q0 20 20 23q41 6 87.5 10.5t92.5 8t89 5.5t77 2
q112 0 193 -11t136.5 -33.5t89.5 -57.5t52.5 -83t24.5 -109t6 -136v-652q0 -20 -20 -23q-57 -7 -119 -12.5t-122 -9.5t-113.5 -6t-92.5 -2q-131 0 -226.5 16t-157 55t-91 103.5t-29.5 161.5q0 70 9.5 123.5t33.5 92.5t65.5 65t105 42t152 22.5t206.5 6.5h75v33q0 34 -8.5 59
t-32 41t-66 23.5t-110.5 7.5zM192 1219q-20 0 -20 20v287q0 20 20 23l282 35q20 3 20 -17v-328q0 -20 -20 -20h-282zM649 1219q-20 0 -20 20v287q0 20 20 23l281 35q20 3 20 -17v-328q0 -20 -20 -20h-281z" />
    <glyph glyph-name="aring" unicode="&#xe5;" horiz-adv-x="1142" 
d="M553 229q19 0 40 0.5t41 1t38 2t32 3.5v182h-79q-81 0 -133 -4t-82 -15.5t-41 -30.5t-11 -49q0 -31 15.5 -49t42.5 -27t62.5 -11.5t74.5 -2.5zM487 821q-32 0 -69.5 -1t-78 -2.5t-81.5 -3.5t-78 -5q-20 -3 -20 18v228q0 20 20 23q41 6 87.5 10.5t92.5 8t89 5.5t77 2
q112 0 193 -11t136.5 -33.5t89.5 -57.5t52.5 -83t24.5 -109t6 -136v-652q0 -20 -20 -23q-57 -7 -119 -12.5t-122 -9.5t-113.5 -6t-92.5 -2q-131 0 -226.5 16t-157 55t-91 103.5t-29.5 161.5q0 70 9.5 123.5t33.5 92.5t65.5 65t105 42t152 22.5t206.5 6.5h75v33q0 34 -8.5 59
t-32 41t-66 23.5t-110.5 7.5zM572 1458q-15 0 -28.5 -1.5t-23 -7.5t-15 -17t-5.5 -29t5.5 -29t15 -17t23 -7.5t28.5 -1.5t28 1.5t22.5 7.5t15 17t5.5 29t-5.5 29t-15 17t-22.5 7.5t-28 1.5zM561 1176q-71 0 -122 16t-83.5 46t-47.5 72t-15 93t15 93t47.5 72t83.5 46t122 16
q69 0 120 -16t84 -46t49 -72t16 -93t-16 -93t-49 -72t-84 -46t-120 -16z" />
    <glyph glyph-name="ae" unicode="&#xe6;" horiz-adv-x="1794" 
d="M487 821q-32 0 -69.5 -1t-78 -2.5t-81.5 -3.5t-78 -5q-20 -3 -20 18v228q0 20 20 23q41 6 87.5 10.5t92.5 8t89 5.5t77 2q138 0 228 -16.5t146 -50.5q117 63 315 63q139 0 236.5 -28.5t158.5 -89t89 -154.5t28 -224q0 -60 -8.5 -110t-14.5 -74q-4 -17 -21 -17h-648
q5 -50 19 -80t39 -46t62 -20.5t89 -4.5q91 0 182.5 3t194.5 10q20 1 21 -19l14 -226q1 -20 -19 -23q-100 -12 -203 -20t-215 -8q-69 0 -126.5 7t-105.5 21q-56 -6 -115.5 -11.5t-116 -9t-107 -5.5t-87.5 -2q-131 0 -226.5 16t-157 55t-91 103.5t-29.5 161.5q0 67 9.5 118
t33.5 88.5t65.5 62.5t105 40t152 21.5t206.5 6.5h75v48q0 34 -8.5 59t-32 41t-66 23.5t-110.5 7.5zM1428 651q-10 51 -25 83t-39 50.5t-60 25.5t-89 7q-51 0 -85.5 -9t-55.5 -30.5t-31 -56.5t-12 -87zM553 229q19 0 40 0.5t41 1t38 2t32 3.5v167h-79q-81 0 -133 -3.5
t-82 -13t-41 -26t-11 -41.5q0 -31 15.5 -49t42.5 -27t62.5 -11.5t74.5 -2.5z" />
    <glyph glyph-name="ccedilla" unicode="&#xe7;" horiz-adv-x="965" 
d="M613 -31q-153 0 -255 30t-162.5 91.5t-85.5 156.5t-25 226v125q0 130 25 224.5t85.5 156t162.5 91.5t255 30q75 0 141 -7t120 -18q20 -4 19 -24l-14 -236q-1 -11 -5.5 -15t-15.5 -3q-55 5 -112 7.5t-122 2.5q-69 0 -109.5 -11.5t-61.5 -39t-27.5 -72.5t-6.5 -111v-77
q0 -66 6 -111t27 -72.5t62 -39t110 -11.5q65 0 122 3.5t112 8.5q11 1 15.5 -3t5.5 -15l14 -236q1 -20 -19 -24q-26 -6 -57 -10.5t-65 -8.5t-69.5 -6t-69.5 -2zM267 -389q-19 0 -10 17l156 253q5 10 12 13.5t18 3.5h242q20 0 10 -18l-135 -251q-6 -11 -12.5 -14.5t-17.5 -3.5
h-263z" />
    <glyph glyph-name="egrave" unicode="&#xe8;" horiz-adv-x="1172" 
d="M597 -31q-140 0 -237.5 29.5t-159 91t-89.5 157t-28 228.5v115q0 133 28 229t89 158.5t158 92.5t235 30q139 0 236.5 -30t158.5 -93t89 -160.5t28 -232.5q0 -60 -8.5 -110.5t-14.5 -75.5q-4 -17 -21 -17l-645 -2q7 -42 22 -67t39.5 -38.5t60.5 -17.5t84 -4q91 0 182.5 3
t194.5 10q20 1 21 -19l14 -226q1 -20 -19 -23q-100 -12 -203 -20t-215 -8zM806 631q-10 57 -25 93t-39 56.5t-60 28.5t-89 8q-54 0 -89 -10t-55.5 -34t-29.5 -63t-10 -97zM540 1270q-11 0 -18.5 3.5t-15.5 11.5l-230 246q-7 7 -5 11t11 4h324q11 0 18 -3.5t13 -13.5
l164 -242q11 -17 -9 -17h-252z" />
    <glyph glyph-name="eacute" unicode="&#xe9;" horiz-adv-x="1172" 
d="M597 -31q-140 0 -237.5 29.5t-159 91t-89.5 157t-28 228.5v115q0 133 28 229t89 158.5t158 92.5t235 30q139 0 236.5 -30t158.5 -93t89 -160.5t28 -232.5q0 -60 -8.5 -110.5t-14.5 -75.5q-4 -17 -21 -17l-645 -2q7 -42 22 -67t39.5 -38.5t60.5 -17.5t84 -4q91 0 182.5 3
t194.5 10q20 1 21 -19l14 -226q1 -20 -19 -23q-100 -12 -203 -20t-215 -8zM806 631q-10 57 -25 93t-39 56.5t-60 28.5t-89 8q-54 0 -89 -10t-55.5 -34t-29.5 -63t-10 -97zM435 1270q-20 0 -9 17l164 242q6 10 13 13.5t18 3.5h325q9 0 11 -4t-5 -11l-230 -246
q-8 -8 -15.5 -11.5t-18.5 -3.5h-253z" />
    <glyph glyph-name="ecircumflex" unicode="&#xea;" horiz-adv-x="1172" 
d="M597 -31q-140 0 -237.5 29.5t-159 91t-89.5 157t-28 228.5v115q0 133 28 229t89 158.5t158 92.5t235 30q139 0 236.5 -30t158.5 -93t89 -160.5t28 -232.5q0 -60 -8.5 -110.5t-14.5 -75.5q-4 -17 -21 -17l-645 -2q7 -42 22 -67t39.5 -38.5t60.5 -17.5t84 -4q91 0 182.5 3
t194.5 10q20 1 21 -19l14 -226q1 -20 -19 -23q-100 -12 -203 -20t-215 -8zM806 631q-10 57 -25 93t-39 56.5t-60 28.5t-89 8q-54 0 -89 -10t-55.5 -34t-29.5 -63t-10 -97zM403 1530q12 16 32 16h296q20 0 32 -16l197 -265q13 -16 -8 -16h-263q-11 0 -17.5 3.5t-12.5 13.5
l-66 106h-20l-66 -106q-6 -10 -12.5 -13.5t-17.5 -3.5h-263q-21 0 -8 16z" />
    <glyph glyph-name="edieresis" unicode="&#xeb;" horiz-adv-x="1172" 
d="M597 -31q-140 0 -237.5 29.5t-159 91t-89.5 157t-28 228.5v115q0 133 28 229t89 158.5t158 92.5t235 30q139 0 236.5 -30t158.5 -93t89 -160.5t28 -232.5q0 -60 -8.5 -110.5t-14.5 -75.5q-4 -17 -21 -17l-645 -2q7 -42 22 -67t39.5 -38.5t60.5 -17.5t84 -4q91 0 182.5 3
t194.5 10q20 1 21 -19l14 -226q1 -20 -19 -23q-100 -12 -203 -20t-215 -8zM806 631q-10 57 -25 93t-39 56.5t-60 28.5t-89 8q-54 0 -89 -10t-55.5 -34t-29.5 -63t-10 -97zM214 1219q-20 0 -20 20v287q0 20 20 23l282 35q20 3 20 -17v-328q0 -20 -20 -20h-282zM671 1219
q-20 0 -20 20v287q0 20 20 23l281 35q20 3 20 -17v-328q0 -20 -20 -20h-281z" />
    <glyph glyph-name="igrave" unicode="&#xec;" horiz-adv-x="585" 
d="M147 0q-20 0 -20 20v1031q0 20 20 20h292q20 0 20 -20v-1031q0 -20 -20 -20h-292zM230 1270q-11 0 -18.5 3.5t-15.5 11.5l-230 246q-7 7 -5 11t11 4h324q11 0 18 -3.5t13 -13.5l164 -242q11 -17 -9 -17h-252z" />
    <glyph glyph-name="iacute" unicode="&#xed;" horiz-adv-x="584" 
d="M146 0q-20 0 -20 20v1031q0 20 20 20h292q20 0 20 -20v-1031q0 -20 -20 -20h-292zM43 1270q-20 0 -9 17l164 242q6 10 13 13.5t18 3.5h325q9 0 11 -4t-5 -11l-230 -246q-8 -8 -15.5 -11.5t-18.5 -3.5h-253z" />
    <glyph glyph-name="icircumflex" unicode="&#xee;" horiz-adv-x="584" 
d="M146 0q-20 0 -20 20v1031q0 20 20 20h292q20 0 20 -20v-1031q0 -20 -20 -20h-292zM113 1530q12 16 32 16h296q20 0 32 -16l197 -265q13 -16 -8 -16h-263q-11 0 -17.5 3.5t-12.5 13.5l-66 106h-20l-66 -106q-6 -10 -12.5 -13.5t-17.5 -3.5h-263q-21 0 -8 16z" />
    <glyph glyph-name="idieresis" unicode="&#xef;" horiz-adv-x="584" 
d="M146 0q-20 0 -20 20v1031q0 20 20 20h292q20 0 20 -20v-1031q0 -20 -20 -20h-292zM-76 1219q-20 0 -20 20v287q0 20 20 23l282 35q20 3 20 -17v-328q0 -20 -20 -20h-282zM381 1219q-20 0 -20 20v287q0 20 20 23l281 35q20 3 20 -17v-328q0 -20 -20 -20h-281z" />
    <glyph glyph-name="eth" unicode="&#xf0;" horiz-adv-x="1188" 
d="M743 1407q103 -68 170 -155.5t107 -192.5t55.5 -226.5t15.5 -257.5v-88q0 -136 -26.5 -234t-85.5 -161t-152.5 -93t-227.5 -30q-141 0 -239.5 30t-160 93t-89 161t-27.5 234v88q0 130 28.5 224t87.5 154.5t150.5 89t216.5 28.5q46 0 88 -9.5t80 -26.5q-82 131 -221 212
l-190 -132q-16 -11 -28 5l-52 74q-12 16 4 27l128 90q-36 13 -75.5 24t-81.5 19q-20 4 -16 24l39 190q4 19 24 15q103 -19 190 -45.5t160 -59.5l196 137q16 11 28 -5l52 -76q12 -16 -4 -27zM599 815q-54 0 -90 -12.5t-57.5 -41.5t-30 -77t-8.5 -119v-67q0 -72 8 -119.5
t29 -76t57 -40.5t92 -12q55 0 91 12.5t58 41.5t31 77t9 119v65q0 71 -8.5 119t-30 77t-58 41.5t-92.5 12.5z" />
    <glyph glyph-name="ntilde" unicode="&#xf1;" horiz-adv-x="1255" 
d="M830 0q-20 0 -20 20v543q0 55 -6.5 96t-26.5 68t-57 40t-98 13q-20 0 -42.5 -2t-45 -5.5t-43.5 -8.5t-39 -11v-733q0 -20 -20 -20h-292q-20 0 -20 20v1050q0 20 20 20h230q11 0 17.5 -3.5t12.5 -13.5l31 -57q60 38 142 61t182 23q94 0 166.5 -25t121.5 -80.5t74 -145
t25 -218.5v-611q0 -20 -20 -20h-292zM500 1343q-9 0 -15.5 -2t-11 -10t-7 -23.5t-3.5 -42.5q0 -20 -20 -20h-185q-21 0 -22 20q-2 13 -3 31.5t-1 38.5q0 78 19.5 126t50.5 73.5t70 34t79 8.5q42 0 74 -8t70 -27l49 -24q42 -22 63 -31.5t33 -9.5q9 0 16 2t11.5 10t6.5 23.5
t3 42.5q0 20 20 20h185q21 0 22 -20q2 -13 3 -31.5t1 -38.5q0 -78 -19 -125.5t-50 -73.5t-70.5 -34.5t-79.5 -8.5q-21 0 -37.5 2t-33 6t-34 11t-38.5 16l-49 25q-42 21 -63 30.5t-34 9.5z" />
    <glyph glyph-name="ograve" unicode="&#xf2;" horiz-adv-x="1188" 
d="M593 817q-58 0 -94 -11t-56 -38.5t-27 -73.5t-7 -116v-86q0 -69 7.5 -115.5t28 -74t56.5 -39t92 -11.5q57 0 93 11.5t56.5 39.5t28.5 74.5t8 116.5v84q0 70 -7 116t-27.5 73.5t-57 38.5t-94.5 11zM593 -31q-138 0 -235 29.5t-158 92t-89 159.5t-28 231v105q0 134 28 231
t89 160t158 93t235 30q139 0 236.5 -30t158.5 -93t89 -160t28 -231v-105q0 -134 -28 -231t-89 -159.5t-158.5 -92t-236.5 -29.5zM519 1270q-11 0 -18.5 3.5t-15.5 11.5l-230 246q-7 7 -5 11t11 4h324q11 0 18 -3.5t13 -13.5l164 -242q11 -17 -9 -17h-252z" />
    <glyph glyph-name="oacute" unicode="&#xf3;" horiz-adv-x="1188" 
d="M593 817q-58 0 -94 -11t-56 -38.5t-27 -73.5t-7 -116v-86q0 -69 7.5 -115.5t28 -74t56.5 -39t92 -11.5q57 0 93 11.5t56.5 39.5t28.5 74.5t8 116.5v84q0 70 -7 116t-27.5 73.5t-57 38.5t-94.5 11zM593 -31q-138 0 -235 29.5t-158 92t-89 159.5t-28 231v105q0 134 28 231
t89 160t158 93t235 30q139 0 236.5 -30t158.5 -93t89 -160t28 -231v-105q0 -134 -28 -231t-89 -159.5t-158.5 -92t-236.5 -29.5zM403 1270q-20 0 -9 17l164 242q6 10 13 13.5t18 3.5h325q9 0 11 -4t-5 -11l-230 -246q-8 -8 -15.5 -11.5t-18.5 -3.5h-253z" />
    <glyph glyph-name="ocircumflex" unicode="&#xf4;" horiz-adv-x="1188" 
d="M593 817q-58 0 -94 -11t-56 -38.5t-27 -73.5t-7 -116v-86q0 -69 7.5 -115.5t28 -74t56.5 -39t92 -11.5q57 0 93 11.5t56.5 39.5t28.5 74.5t8 116.5v84q0 70 -7 116t-27.5 73.5t-57 38.5t-94.5 11zM593 -31q-138 0 -235 29.5t-158 92t-89 159.5t-28 231v105q0 134 28 231
t89 160t158 93t235 30q139 0 236.5 -30t158.5 -93t89 -160t28 -231v-105q0 -134 -28 -231t-89 -159.5t-158.5 -92t-236.5 -29.5zM413 1530q12 16 32 16h296q20 0 32 -16l197 -265q13 -16 -8 -16h-263q-11 0 -17.5 3.5t-12.5 13.5l-66 106h-20l-66 -106q-6 -10 -12.5 -13.5
t-17.5 -3.5h-263q-21 0 -8 16z" />
    <glyph glyph-name="otilde" unicode="&#xf5;" horiz-adv-x="1188" 
d="M593 817q-58 0 -94 -11t-56 -38.5t-27 -73.5t-7 -116v-86q0 -69 7.5 -115.5t28 -74t56.5 -39t92 -11.5q57 0 93 11.5t56.5 39.5t28.5 74.5t8 116.5v84q0 70 -7 116t-27.5 73.5t-57 38.5t-94.5 11zM593 -31q-138 0 -235 29.5t-158 92t-89 159.5t-28 231v105q0 134 28 231
t89 160t158 93t235 30q139 0 236.5 -30t158.5 -93t89 -160t28 -231v-105q0 -134 -28 -231t-89 -159.5t-158.5 -92t-236.5 -29.5zM464 1343q-9 0 -15.5 -2t-11 -10t-7 -23.5t-3.5 -42.5q0 -20 -20 -20h-185q-21 0 -22 20q-2 13 -3 31.5t-1 38.5q0 78 19.5 126t50.5 73.5
t70 34t79 8.5q42 0 74 -8t70 -27l49 -24q42 -22 63 -31.5t33 -9.5q9 0 16 2t11.5 10t6.5 23.5t3 42.5q0 20 20 20h185q21 0 22 -20q2 -13 3 -31.5t1 -38.5q0 -78 -19 -125.5t-50 -73.5t-70.5 -34.5t-79.5 -8.5q-21 0 -37.5 2t-33 6t-34 11t-38.5 16l-49 25q-42 21 -63 30.5
t-34 9.5z" />
    <glyph glyph-name="odieresis" unicode="&#xf6;" horiz-adv-x="1188" 
d="M593 817q-58 0 -94 -11t-56 -38.5t-27 -73.5t-7 -116v-86q0 -69 7.5 -115.5t28 -74t56.5 -39t92 -11.5q57 0 93 11.5t56.5 39.5t28.5 74.5t8 116.5v84q0 70 -7 116t-27.5 73.5t-57 38.5t-94.5 11zM593 -31q-138 0 -235 29.5t-158 92t-89 159.5t-28 231v105q0 134 28 231
t89 160t158 93t235 30q139 0 236.5 -30t158.5 -93t89 -160t28 -231v-105q0 -134 -28 -231t-89 -159.5t-158.5 -92t-236.5 -29.5zM214 1219q-20 0 -20 20v287q0 20 20 23l282 35q20 3 20 -17v-328q0 -20 -20 -20h-282zM671 1219q-20 0 -20 20v287q0 20 20 23l281 35
q20 3 20 -17v-328q0 -20 -20 -20h-281z" />
    <glyph glyph-name="divide" unicode="&#xf7;" horiz-adv-x="1119" 
d="M84 602q-20 0 -20 20v280q0 20 20 20h951q20 0 20 -20v-280q0 -20 -20 -20h-951zM416 123q-20 0 -20 20v300q0 21 20 22l291 35q20 1 20 -18v-339q0 -20 -20 -20h-291zM416 1044q-20 0 -20 20v300q0 21 20 22l291 35q20 1 20 -18v-339q0 -20 -20 -20h-291z" />
    <glyph glyph-name="oslash" unicode="&#xf8;" horiz-adv-x="1199" 
d="M159 159q-37 62 -54 142t-17 181v104q0 134 28 231t89.5 160t158.5 93t235 30q120 0 208 -24.5t150 -72.5l50 53q8 8 15.5 11t18.5 3h131q9 0 11 -4t-5 -11l-138 -146q38 -62 55 -142.5t17 -180.5v-104q0 -135 -28 -232t-89.5 -159.5t-159 -92t-236.5 -29.5
q-120 0 -208 24.5t-150 72.5l-48 -51q-8 -8 -15.5 -11.5t-18.5 -3.5h-131q-9 0 -11 4t5 11zM599 252q57 0 93.5 11.5t57.5 39t28.5 74t7.5 116.5v108v40l-338 -357q20 -17 55.5 -24.5t95.5 -7.5zM599 817q-57 0 -93 -11.5t-56.5 -39t-27.5 -74t-7 -116.5v-110v-36l336 354
q-20 18 -56 25.5t-96 7.5z" />
    <glyph glyph-name="ugrave" unicode="&#xf9;" horiz-adv-x="1237" 
d="M634 -31q-159 0 -260.5 26t-159 84.5t-79.5 154t-22 233.5v584q0 20 20 20h291q20 0 20 -20v-562q0 -63 7 -105.5t28 -68.5t58 -37.5t97 -11.5q35 0 78 2.5t75 10.5v772q0 20 20 20h292q20 0 20 -20v-996q0 -21 -19 -25q-43 -12 -100 -23t-119.5 -19.5t-126 -13.5
t-120.5 -5zM561 1270q-11 0 -18.5 3.5t-15.5 11.5l-230 246q-7 7 -5 11t11 4h324q11 0 18 -3.5t13 -13.5l164 -242q11 -17 -9 -17h-252z" />
    <glyph glyph-name="uacute" unicode="&#xfa;" horiz-adv-x="1237" 
d="M634 -31q-159 0 -260.5 26t-159 84.5t-79.5 154t-22 233.5v584q0 20 20 20h291q20 0 20 -20v-562q0 -63 7 -105.5t28 -68.5t58 -37.5t97 -11.5q35 0 78 2.5t75 10.5v772q0 20 20 20h292q20 0 20 -20v-996q0 -21 -19 -25q-43 -12 -100 -23t-119.5 -19.5t-126 -13.5
t-120.5 -5zM456 1270q-20 0 -9 17l164 242q6 10 13 13.5t18 3.5h325q9 0 11 -4t-5 -11l-230 -246q-8 -8 -15.5 -11.5t-18.5 -3.5h-253z" />
    <glyph glyph-name="ucircumflex" unicode="&#xfb;" horiz-adv-x="1237" 
d="M634 -31q-159 0 -260.5 26t-159 84.5t-79.5 154t-22 233.5v584q0 20 20 20h291q20 0 20 -20v-562q0 -63 7 -105.5t28 -68.5t58 -37.5t97 -11.5q35 0 78 2.5t75 10.5v772q0 20 20 20h292q20 0 20 -20v-996q0 -21 -19 -25q-43 -12 -100 -23t-119.5 -19.5t-126 -13.5
t-120.5 -5zM434 1530q12 16 32 16h296q20 0 32 -16l197 -265q13 -16 -8 -16h-263q-11 0 -17.5 3.5t-12.5 13.5l-66 106h-20l-66 -106q-6 -10 -12.5 -13.5t-17.5 -3.5h-263q-21 0 -8 16z" />
    <glyph glyph-name="udieresis" unicode="&#xfc;" horiz-adv-x="1237" 
d="M634 -31q-159 0 -260.5 26t-159 84.5t-79.5 154t-22 233.5v584q0 20 20 20h291q20 0 20 -20v-562q0 -63 7 -105.5t28 -68.5t58 -37.5t97 -11.5q35 0 78 2.5t75 10.5v772q0 20 20 20h292q20 0 20 -20v-996q0 -21 -19 -25q-43 -12 -100 -23t-119.5 -19.5t-126 -13.5
t-120.5 -5zM235 1219q-20 0 -20 20v287q0 20 20 23l282 35q20 3 20 -17v-328q0 -20 -20 -20h-282zM692 1219q-20 0 -20 20v287q0 20 20 23l281 35q20 3 20 -17v-328q0 -20 -20 -20h-281z" />
    <glyph glyph-name="yacute" unicode="&#xfd;" horiz-adv-x="1123" 
d="M181 -481q-34 0 -76 4t-74 10q-20 4 -17 23l31 238q2 11 7 15t16 3q23 -3 48.5 -5t48.5 -2q75 0 126 9.5t86 32t58.5 60t44.5 93.5l-14.5 6.5t-39 33t-56.5 79t-68 145.5l-306 788q-7 19 13 19h337q11 0 16.5 -4t9.5 -15l155 -487l61 -189l150 675q4 20 24 20h337
q20 0 14 -19l-346 -1134q-23 -74 -49 -132t-59.5 -102.5t-76.5 -75.5t-100.5 -51t-131.5 -29t-169 -9zM404 1270q-20 0 -9 17l164 242q6 10 13 13.5t18 3.5h325q9 0 11 -4t-5 -11l-230 -246q-8 -8 -15.5 -11.5t-18.5 -3.5h-253z" />
    <glyph glyph-name="thorn" unicode="&#xfe;" horiz-adv-x="1234" 
d="M140 -453q-20 0 -20 20v1348v5v662q0 21 20 22l292 36q20 1 20 -18v-526q43 2 85.5 3t84.5 1q151 0 252 -25t162 -81.5t86.5 -148.5t25.5 -227v-151q0 -139 -25.5 -234.5t-85.5 -154t-158.5 -84t-244.5 -25.5q-50 0 -96 5.5t-86 15.5v-423q0 -20 -20 -20h-292zM619 815
q-17 0 -40.5 -0.5t-47.5 -1.5t-45 -3t-34 -5v-545q34 -3 76.5 -4.5t99.5 -1.5q63 0 102 12.5t61 41.5t29.5 77t7.5 119v71q0 69 -8 115.5t-30.5 74t-63.5 39t-107 11.5z" />
    <glyph glyph-name="ydieresis" unicode="&#xff;" horiz-adv-x="1123" 
d="M181 -481q-34 0 -76 4t-74 10q-20 4 -17 23l31 238q2 11 7 15t16 3q23 -3 48.5 -5t48.5 -2q75 0 126 9.5t86 32t58.5 60t44.5 93.5l-14.5 6.5t-39 33t-56.5 79t-68 145.5l-306 788q-7 19 13 19h337q11 0 16.5 -4t9.5 -15l155 -487l61 -189l150 675q4 20 24 20h337
q20 0 14 -19l-346 -1134q-23 -74 -49 -132t-59.5 -102.5t-76.5 -75.5t-100.5 -51t-131.5 -29t-169 -9zM209 1219q-20 0 -20 20v287q0 20 20 23l282 35q20 3 20 -17v-328q0 -20 -20 -20h-282zM666 1219q-20 0 -20 20v287q0 20 20 23l281 35q20 3 20 -17v-328q0 -20 -20 -20
h-281z" />
    <glyph glyph-name="Amacron" unicode="&#x100;" horiz-adv-x="1372" 
d="M16 0q-20 0 -14 19l436 1437q4 11 9.5 15t16.5 4h442q11 0 16.5 -4t9.5 -15l438 -1437q6 -19 -14 -19h-345q-20 0 -25 19l-60 221h-483l-59 -221q-5 -19 -25 -19h-343zM684 1135l-158 -588h318zM409 1596q-20 0 -20 20v198q0 20 20 20h554q20 0 20 -20v-198
q0 -20 -20 -20h-554z" />
    <glyph glyph-name="amacron" unicode="&#x101;" horiz-adv-x="1142" 
d="M553 229q19 0 40 0.5t41 1t38 2t32 3.5v182h-79q-81 0 -133 -4t-82 -15.5t-41 -30.5t-11 -49q0 -31 15.5 -49t42.5 -27t62.5 -11.5t74.5 -2.5zM487 821q-32 0 -69.5 -1t-78 -2.5t-81.5 -3.5t-78 -5q-20 -3 -20 18v228q0 20 20 23q41 6 87.5 10.5t92.5 8t89 5.5t77 2
q112 0 193 -11t136.5 -33.5t89.5 -57.5t52.5 -83t24.5 -109t6 -136v-652q0 -20 -20 -23q-57 -7 -119 -12.5t-122 -9.5t-113.5 -6t-92.5 -2q-131 0 -226.5 16t-157 55t-91 103.5t-29.5 161.5q0 70 9.5 123.5t33.5 92.5t65.5 65t105 42t152 22.5t206.5 6.5h75v33q0 34 -8.5 59
t-32 41t-66 23.5t-110.5 7.5zM280 1268q-20 0 -20 20v197q0 20 20 20h554q20 0 20 -20v-197q0 -20 -20 -20h-554z" />
    <glyph glyph-name="Abreve" unicode="&#x102;" horiz-adv-x="1372" 
d="M16 0q-20 0 -14 19l436 1437q4 11 9.5 15t16.5 4h442q11 0 16.5 -4t9.5 -15l438 -1437q6 -19 -14 -19h-345q-20 0 -25 19l-60 221h-483l-59 -221q-5 -19 -25 -19h-343zM684 1135l-158 -588h318zM685 1577q-98 0 -159.5 15.5t-96 48t-47.5 83t-14 120.5q0 20 20 20h180
q21 0 22 -20q3 -27 11.5 -45t21.5 -28.5t29 -15t33 -4.5t33 4.5t29 15t21.5 28.5t11.5 45q1 20 22 20h181q20 0 20 -20q-1 -70 -14 -120.5t-48 -83t-96.5 -48t-159.5 -15.5z" />
    <glyph glyph-name="abreve" unicode="&#x103;" horiz-adv-x="1142" 
d="M553 229q19 0 40 0.5t41 1t38 2t32 3.5v182h-79q-81 0 -133 -4t-82 -15.5t-41 -30.5t-11 -49q0 -31 15.5 -49t42.5 -27t62.5 -11.5t74.5 -2.5zM487 821q-32 0 -69.5 -1t-78 -2.5t-81.5 -3.5t-78 -5q-20 -3 -20 18v228q0 20 20 23q41 6 87.5 10.5t92.5 8t89 5.5t77 2
q112 0 193 -11t136.5 -33.5t89.5 -57.5t52.5 -83t24.5 -109t6 -136v-652q0 -20 -20 -23q-57 -7 -119 -12.5t-122 -9.5t-113.5 -6t-92.5 -2q-131 0 -226.5 16t-157 55t-91 103.5t-29.5 161.5q0 70 9.5 123.5t33.5 92.5t65.5 65t105 42t152 22.5t206.5 6.5h75v33q0 34 -8.5 59
t-32 41t-66 23.5t-110.5 7.5zM561 1237q-98 0 -159 19.5t-95.5 56.5t-48 90t-14.5 121q0 20 20 20h201q20 0 20 -20q3 -66 22 -89.5t54 -23.5t54 23.5t22 89.5q0 20 20 20h202q20 0 20 -20q-2 -68 -15 -121t-47.5 -90t-96 -56.5t-159.5 -19.5z" />
    <glyph glyph-name="Aogonek" unicode="&#x104;" horiz-adv-x="1372" 
d="M16 0q-20 0 -14 19l436 1437q5 19 26 19h442q21 0 26 -19l437 -1434q3 -10 0 -15.5t-15 -6.5q-65 -3 -107 -22t-66.5 -45.5t-34 -56t-9.5 -52.5q0 -21 4 -35t14.5 -21.5t28.5 -10.5t47 -3q20 0 50 2t55 4q20 1 21 -18l6 -122q1 -20 -18 -24q-31 -7 -77 -11.5t-92 -4.5
q-73 0 -126 9.5t-87.5 32.5t-51 61t-16.5 94q0 39 7.5 72t21 60.5t31.5 50.5t39 44q-5 4 -8 15l-60 221h-483l-59 -221q-5 -19 -25 -19h-343zM684 1135l-158 -588h318z" />
    <glyph glyph-name="aogonek" unicode="&#x105;" horiz-adv-x="1142" 
d="M487 821q-32 0 -69.5 -1t-78 -2.5t-81.5 -3.5t-78 -5q-20 -3 -20 18v228q0 20 20 23q41 6 87.5 10.5t92.5 8t89 5.5t77 2q112 0 193 -11t136.5 -33.5t89.5 -57.5t52.5 -83t24.5 -109t6 -136v-652q0 -10 -1.5 -14t-9.5 -7q-41 -18 -75 -42t-58.5 -49.5t-38.5 -50
t-14 -43.5q0 -18 2.5 -30t10.5 -19t23 -10t40 -3q14 0 30 1t32 3q21 3 22 -17l15 -121q2 -11 -2 -16.5t-15 -8.5q-25 -5 -66 -10t-92 -5q-60 0 -105 9t-75 30t-45.5 55.5t-15.5 85.5q0 60 35.5 117t103.5 98q-49 -3 -92.5 -4.5t-75.5 -1.5q-131 0 -226.5 16t-157 55
t-91 103.5t-29.5 161.5q0 70 9.5 123.5t33.5 92.5t65.5 65t105 42t152 22.5t206.5 6.5h75v33q0 34 -8.5 59t-32 41t-66 23.5t-110.5 7.5zM553 229q19 0 40 0.5t41 1t38 2t32 3.5v182h-79q-81 0 -133 -4t-82 -15.5t-41 -30.5t-11 -49q0 -31 15.5 -49t42.5 -27t62.5 -11.5
t74.5 -2.5z" />
    <glyph glyph-name="Cacute" unicode="&#x106;" horiz-adv-x="1212" 
d="M749 -31q-155 0 -277.5 34t-207 114.5t-129 213.5t-44.5 331v153q0 196 44.5 328.5t129 213t207 114.5t277.5 34q54 0 107.5 -3.5t102.5 -10.5t92.5 -17t77.5 -23q11 -4 14.5 -9.5t1.5 -16.5l-45 -272q-3 -20 -23 -16q-78 17 -157 23.5t-157 6.5t-138 -17t-100.5 -57
t-61 -105.5t-20.5 -162.5v-174q0 -98 20.5 -163.5t60.5 -106t100 -57.5t139 -17q83 0 165 5t163 15q20 3 23 -17l39 -279q3 -20 -16 -24q-35 -9 -79.5 -16t-94.5 -12t-104.5 -7.5t-109.5 -2.5zM557 1597q-20 0 -7 15l191 216q8 8 15 11.5t18 3.5h335q20 0 5 -13l-257 -220
q-8 -8 -16 -10.5t-19 -2.5h-265z" />
    <glyph glyph-name="cacute" unicode="&#x107;" horiz-adv-x="962" 
d="M612 -31q-153 0 -255 30t-162.5 91.5t-85.5 156.5t-25 226v125q0 130 25 224.5t85.5 156t162.5 91.5t255 30q75 0 141 -7t120 -18q20 -4 19 -24l-14 -236q-1 -11 -5.5 -15t-15.5 -3q-55 5 -112 7.5t-122 2.5q-69 0 -109.5 -11.5t-61.5 -39t-27.5 -72.5t-6.5 -111v-77
q0 -66 6 -111t27 -72.5t62 -39t110 -11.5q65 0 122 3.5t112 8.5q11 1 15.5 -3t5.5 -15l14 -236q1 -20 -19 -24q-26 -6 -57 -10.5t-65 -8.5t-69.5 -6t-69.5 -2zM368 1270q-20 0 -9 17l164 242q6 10 13 13.5t18 3.5h325q9 0 11 -4t-5 -11l-230 -246q-8 -8 -15.5 -11.5
t-18.5 -3.5h-253z" />
    <glyph glyph-name="Ccaron" unicode="&#x10c;" horiz-adv-x="1212" 
d="M749 -31q-155 0 -277.5 34t-207 114.5t-129 213.5t-44.5 331v153q0 196 44.5 328.5t129 213t207 114.5t277.5 34q54 0 107.5 -3.5t102.5 -10.5t92.5 -17t77.5 -23q11 -4 14.5 -9.5t1.5 -16.5l-45 -272q-3 -20 -23 -16q-78 17 -157 23.5t-157 6.5t-138 -17t-100.5 -57
t-61 -105.5t-20.5 -162.5v-174q0 -98 20.5 -163.5t60.5 -106t100 -57.5t139 -17q83 0 165 5t163 15q20 3 23 -17l39 -279q3 -20 -16 -24q-35 -9 -79.5 -16t-94.5 -12t-104.5 -7.5t-109.5 -2.5zM335 1828q-7 7 -5 11t11 4h243q11 0 18.5 -3.5t15.5 -11.5l82 -88h20l83 88
q8 8 15.5 11.5t18.5 3.5h242q9 0 11 -4t-5 -11l-203 -216q-8 -8 -15.5 -11.5t-18.5 -3.5h-276q-11 0 -18.5 3.5t-15.5 11.5z" />
    <glyph glyph-name="ccaron" unicode="&#x10d;" horiz-adv-x="962" 
d="M612 -31q-153 0 -255 30t-162.5 91.5t-85.5 156.5t-25 226v125q0 130 25 224.5t85.5 156t162.5 91.5t255 30q75 0 141 -7t120 -18q20 -4 19 -24l-14 -236q-1 -11 -5.5 -15t-15.5 -3q-55 5 -112 7.5t-122 2.5q-69 0 -109.5 -11.5t-61.5 -39t-27.5 -72.5t-6.5 -111v-77
q0 -66 6 -111t27 -72.5t62 -39t110 -11.5q65 0 122 3.5t112 8.5q11 1 15.5 -3t5.5 -15l14 -236q1 -20 -19 -24q-26 -6 -57 -10.5t-65 -8.5t-69.5 -6t-69.5 -2zM174 1530q-13 16 8 16h263q11 0 17.5 -3.5t12.5 -13.5l66 -106h20l66 106q6 10 12.5 13.5t17.5 3.5h263
q21 0 8 -16l-197 -265q-12 -16 -32 -16h-296q-20 0 -32 16z" />
    <glyph glyph-name="Dcaron" unicode="&#x10e;" horiz-adv-x="1428" 
d="M513 -16q-31 0 -72.5 1t-88 2.5t-94.5 4t-92 6.5q-20 1 -20 22v1435q0 20 20 21q39 3 86.5 5.5t95.5 5t91.5 3.5t73.5 1q124 0 234 -10t202 -37t165.5 -75.5t124.5 -125.5t78 -187.5t27 -260.5v-113q0 -150 -27 -260.5t-78 -188t-124.5 -126t-165.5 -76t-202 -37.5
t-234 -10zM593 1180q-22 0 -48.5 -1.5t-47.5 -4.5v-873q9 -2 25 -3t33.5 -1.5t33.5 -1t24 -0.5q97 0 168 15t118 57t70 117t23 194v119q0 118 -24.5 192.5t-74 117t-124.5 58t-176 15.5zM281 1828q-7 7 -5 11t11 4h243q11 0 18.5 -3.5t15.5 -11.5l82 -88h20l83 88
q8 8 15.5 11.5t18.5 3.5h242q9 0 11 -4t-5 -11l-203 -216q-8 -8 -15.5 -11.5t-18.5 -3.5h-276q-11 0 -18.5 3.5t-15.5 11.5z" />
    <glyph glyph-name="dcaron" unicode="&#x10f;" horiz-adv-x="1234" 
d="M604 815q-63 0 -102 -11.5t-60 -39t-28.5 -72.5t-7.5 -112v-72q0 -72 7.5 -121t29.5 -78.5t61 -42t102 -12.5q44 0 93 1.5t83 4.5v545q-15 3 -38 5t-47.5 3t-49 1.5t-43.5 0.5zM612 -31q-151 0 -252 25.5t-162 83.5t-86.5 152t-25.5 231v153q0 135 24.5 228t83.5 150.5
t156.5 82.5t243.5 25q49 0 98.5 -5.5t89.5 -13.5v501q0 21 20 22l292 36q20 1 20 -18v-1600q0 -21 -20 -22q-121 -14 -242.5 -22.5t-239.5 -8.5zM1244 1141q-20 0 -20 20v421q0 21 20 22l272 34q19 1 18 -18l-52 -459q-1 -20 -22 -20h-216z" />
    <glyph glyph-name="Dcroat" unicode="&#x110;" horiz-adv-x="1448" 
d="M533 -16q-31 0 -72.5 1t-88 2.5t-94.5 4t-92 6.5q-20 1 -20 22v574h-103q-20 0 -20 20v279q0 20 20 20h103v542q0 20 20 21q39 3 86.5 5.5t95.5 5t91.5 3.5t73.5 1q124 0 234 -10t202 -37t165.5 -75.5t124.5 -125.5t78 -187.5t27 -260.5v-113q0 -150 -27 -260.5t-78 -188
t-124.5 -126t-165.5 -76t-202 -37.5t-234 -10zM613 1180q-22 0 -48.5 -1.5t-47.5 -4.5v-261h211q20 0 20 -20v-279q0 -20 -20 -20h-211v-293q9 -2 25 -3t33.5 -1.5t33.5 -1t24 -0.5q97 0 168 15t118 57t70 117t23 194v119q0 118 -24.5 192.5t-74 117t-124.5 58t-176 15.5z
" />
    <glyph glyph-name="dcroat" unicode="&#x111;" horiz-adv-x="1233" 
d="M612 -31q-151 0 -252 25.5t-162 83.5t-86.5 152t-25.5 231v153q0 135 24.5 228t83.5 150.5t156.5 82.5t243.5 25q49 0 98.5 -5.5t89.5 -13.5v112h-275q-20 0 -20 20v185q0 20 20 20h275v164q0 21 20 22l292 36q20 1 20 -18v-204h109q20 0 20 -20v-185q0 -20 -20 -20h-109
v-1171q0 -21 -20 -22q-121 -14 -242.5 -22.5t-239.5 -8.5zM604 815q-63 0 -102 -11.5t-60 -39t-28.5 -72.5t-7.5 -112v-72q0 -72 7.5 -121t29.5 -78.5t61 -42t102 -12.5q44 0 93 1.5t83 4.5v545q-15 3 -38 5t-47.5 3t-49 1.5t-43.5 0.5z" />
    <glyph glyph-name="Emacron" unicode="&#x112;" horiz-adv-x="1212" 
d="M168 0q-20 0 -20 20v1435q0 20 20 20h933q20 0 20 -20v-288q0 -20 -20 -20h-602v-242h457q20 0 20 -20v-287q0 -20 -20 -20h-457v-250h602q20 0 20 -20v-288q0 -20 -20 -20h-933zM340 1596q-20 0 -20 20v198q0 20 20 20h554q20 0 20 -20v-198q0 -20 -20 -20h-554z" />
    <glyph glyph-name="emacron" unicode="&#x113;" horiz-adv-x="1172" 
d="M597 -31q-140 0 -237.5 29.5t-159 91t-89.5 157t-28 228.5v115q0 133 28 229t89 158.5t158 92.5t235 30q139 0 236.5 -30t158.5 -93t89 -160.5t28 -232.5q0 -60 -8.5 -110.5t-14.5 -75.5q-4 -17 -21 -17l-645 -2q7 -42 22 -67t39.5 -38.5t60.5 -17.5t84 -4q91 0 182.5 3
t194.5 10q20 1 21 -19l14 -226q1 -20 -19 -23q-100 -12 -203 -20t-215 -8zM806 631q-10 57 -25 93t-39 56.5t-60 28.5t-89 8q-54 0 -89 -10t-55.5 -34t-29.5 -63t-10 -97zM306 1268q-20 0 -20 20v197q0 20 20 20h554q20 0 20 -20v-197q0 -20 -20 -20h-554z" />
    <glyph glyph-name="Edotaccent" unicode="&#x116;" horiz-adv-x="1212" 
d="M168 0q-20 0 -20 20v1435q0 20 20 20h933q20 0 20 -20v-288q0 -20 -20 -20h-602v-242h457q20 0 20 -20v-287q0 -20 -20 -20h-457v-250h602q20 0 20 -20v-288q0 -20 -20 -20h-933zM471 1597q-20 0 -20 20v216q0 21 20 22l292 37q20 1 20 -18v-257q0 -20 -20 -20h-292z" />
    <glyph glyph-name="edotaccent" unicode="&#x117;" horiz-adv-x="1172" 
d="M597 -31q-140 0 -237.5 29.5t-159 91t-89.5 157t-28 228.5v115q0 133 28 229t89 158.5t158 92.5t235 30q139 0 236.5 -30t158.5 -93t89 -160.5t28 -232.5q0 -60 -8.5 -110.5t-14.5 -75.5q-4 -17 -21 -17l-645 -2q7 -42 22 -67t39.5 -38.5t60.5 -17.5t84 -4q91 0 182.5 3
t194.5 10q20 1 21 -19l14 -226q1 -20 -19 -23q-100 -12 -203 -20t-215 -8zM806 631q-10 57 -25 93t-39 56.5t-60 28.5t-89 8q-54 0 -89 -10t-55.5 -34t-29.5 -63t-10 -97zM453 1219q-20 0 -20 20v287q0 21 20 22l292 37q20 1 20 -18v-328q0 -20 -20 -20h-292z" />
    <glyph glyph-name="Eogonek" unicode="&#x118;" horiz-adv-x="1212" 
d="M988 -246q20 0 50 2t55 4q20 1 21 -18l6 -122q1 -20 -18 -24q-31 -7 -77 -11.5t-92 -4.5q-62 0 -112.5 9.5t-86 33t-55 62t-19.5 96.5q0 69 39.5 126.5t115.5 92.5h-647q-20 0 -20 20v1435q0 20 20 20h933q20 0 20 -20v-288q0 -20 -20 -20h-602v-242h457q20 0 20 -20
v-287q0 -20 -20 -20h-457v-250h602q20 0 20 -20v-288q0 -20 -20 -20h-64q-71 -38 -103 -82t-32 -92q0 -37 18 -54.5t68 -17.5z" />
    <glyph glyph-name="eogonek" unicode="&#x119;" horiz-adv-x="1174" 
d="M922 -246q20 0 50 2t55 4q20 1 21 -18l6 -122q1 -20 -18 -24q-31 -7 -77 -11.5t-92 -4.5q-62 0 -112.5 9.5t-86 33t-55 62t-19.5 96.5q0 57 26.5 105.5t77.5 84.5q-25 -1 -50 -1.5t-51 -0.5q-140 0 -237.5 29.5t-159 91t-89.5 157t-28 228.5v115q0 133 28 229t89 158.5
t158 92.5t235 30q139 0 236.5 -30t158.5 -93t89 -160.5t28 -232.5q0 -60 -8.5 -110.5t-14.5 -75.5q-4 -17 -21 -17l-645 -2q7 -42 22 -67t39.5 -38.5t60.5 -17.5t84 -4q91 0 182.5 3t194.5 10q20 1 21 -19l14 -226q1 -20 -19 -23q-16 -2 -31 -3.5t-31 -3.5q-61 -37 -89 -78
t-28 -86q0 -37 18 -54.5t68 -17.5zM806 631q-10 57 -25 93t-39 56.5t-60 28.5t-89 8q-54 0 -89 -10t-55.5 -34t-29.5 -63t-10 -97z" />
    <glyph glyph-name="Ecaron" unicode="&#x11a;" horiz-adv-x="1212" 
d="M168 0q-20 0 -20 20v1435q0 20 20 20h933q20 0 20 -20v-288q0 -20 -20 -20h-602v-242h457q20 0 20 -20v-287q0 -20 -20 -20h-457v-250h602q20 0 20 -20v-288q0 -20 -20 -20h-933zM242 1828q-7 7 -5 11t11 4h243q11 0 18.5 -3.5t15.5 -11.5l82 -88h20l83 88q8 8 15.5 11.5
t18.5 3.5h242q9 0 11 -4t-5 -11l-203 -216q-8 -8 -15.5 -11.5t-18.5 -3.5h-276q-11 0 -18.5 3.5t-15.5 11.5z" />
    <glyph glyph-name="ecaron" unicode="&#x11b;" horiz-adv-x="1172" 
d="M597 -31q-140 0 -237.5 29.5t-159 91t-89.5 157t-28 228.5v115q0 133 28 229t89 158.5t158 92.5t235 30q139 0 236.5 -30t158.5 -93t89 -160.5t28 -232.5q0 -60 -8.5 -110.5t-14.5 -75.5q-4 -17 -21 -17l-645 -2q7 -42 22 -67t39.5 -38.5t60.5 -17.5t84 -4q91 0 182.5 3
t194.5 10q20 1 21 -19l14 -226q1 -20 -19 -23q-100 -12 -203 -20t-215 -8zM806 631q-10 57 -25 93t-39 56.5t-60 28.5t-89 8q-54 0 -89 -10t-55.5 -34t-29.5 -63t-10 -97zM222 1530q-13 16 8 16h263q11 0 17.5 -3.5t12.5 -13.5l66 -106h20l66 106q6 10 12.5 13.5t17.5 3.5
h263q21 0 8 -16l-197 -265q-12 -16 -32 -16h-296q-20 0 -32 16z" />
    <glyph glyph-name="Gbreve" unicode="&#x11e;" horiz-adv-x="1334" 
d="M717 544q-20 1 -20 21v242q0 20 20 20h497q20 0 20 -20v-740q0 -11 -4 -17t-15 -10q-56 -21 -114.5 -35t-117 -22t-115 -11t-107.5 -3q-163 0 -288 34t-210 114.5t-128.5 213.5t-43.5 331v153q0 196 43.5 328.5t128.5 213t210 114.5t288 34q49 0 103 -3.5t106 -10.5
t98.5 -17t82.5 -23q11 -4 14.5 -9.5t1.5 -16.5l-45 -272q-3 -20 -23 -17q-162 27 -324 27q-86 0 -148.5 -16.5t-103.5 -55.5t-60.5 -104t-19.5 -162v-174q0 -98 18 -163t56 -104t97 -55t141 -16h64.5t64.5 2v220zM685 1577q-98 0 -159.5 15.5t-96 48t-47.5 83t-14 120.5
q0 20 20 20h180q21 0 22 -20q3 -27 11.5 -45t21.5 -28.5t29 -15t33 -4.5t33 4.5t29 15t21.5 28.5t11.5 45q1 20 22 20h181q20 0 20 -20q-1 -70 -14 -120.5t-48 -83t-96.5 -48t-159.5 -15.5z" />
    <glyph glyph-name="gbreve" unicode="&#x11f;" horiz-adv-x="1233" 
d="M618 1237q-98 0 -159 19.5t-95.5 56.5t-48 90t-14.5 121q0 20 20 20h201q20 0 20 -20q3 -66 22 -89.5t54 -23.5t54 23.5t22 89.5q0 20 20 20h202q20 0 20 -20q-2 -68 -15 -121t-47.5 -90t-96 -56.5t-159.5 -19.5zM606 819q-64 0 -103 -12.5t-60.5 -41.5t-29 -75.5
t-7.5 -114.5v-71q0 -65 6.5 -110t27.5 -72.5t60 -39.5t104 -12q21 0 45.5 1t49 2.5t46.5 4t37 5.5v532q-34 2 -82.5 3t-93.5 1zM502 -481q-76 0 -150 6.5t-139 17.5q-20 4 -19 24l14 225q1 20 21 17q28 -4 60 -7t63 -4.5t59 -2t48 -0.5q103 0 166.5 10t98.5 34t46.5 63
t11.5 98q-35 -9 -80.5 -14.5t-113.5 -5.5q-141 0 -237 25.5t-155 83t-84.5 150.5t-25.5 228v151q0 133 25 225t86 149t162 82.5t253 25.5q58 0 121.5 -2.5t126 -6.5t122.5 -9t112 -11q20 -1 20 -22v-1035q0 -149 -40 -245t-118 -151.5t-192 -77t-262 -21.5z" />
    <glyph glyph-name="Gcommaaccent" unicode="&#x122;" horiz-adv-x="1334" 
d="M717 544q-20 1 -20 21v242q0 20 20 20h497q20 0 20 -20v-740q0 -11 -4 -17t-15 -10q-56 -21 -114.5 -35t-117 -22t-115 -11t-107.5 -3q-163 0 -288 34t-210 114.5t-128.5 213.5t-43.5 331v153q0 196 43.5 328.5t128.5 213t210 114.5t288 34q49 0 103 -3.5t106 -10.5
t98.5 -17t82.5 -23q11 -4 14.5 -9.5t1.5 -16.5l-45 -272q-3 -20 -23 -17q-162 27 -324 27q-86 0 -148.5 -16.5t-103.5 -55.5t-60.5 -104t-19.5 -162v-174q0 -98 18 -163t56 -104t97 -55t141 -16h64.5t64.5 2v220zM531 -453q-19 0 -15 19l63 284q3 11 8.5 15.5t16.5 6.5
l276 33q19 3 13 -16l-130 -323q-4 -11 -10 -15t-17 -4h-205z" />
    <glyph glyph-name="gcommaaccent" unicode="&#x123;" horiz-adv-x="1233" 
d="M444 1245q-19 -1 -12 16l146 323q5 11 11 14.5t17 3.5h257q20 0 14 -19l-87 -282q-4 -11 -9.5 -15.5t-16.5 -5.5zM606 819q-64 0 -103 -12.5t-60.5 -41.5t-29 -75.5t-7.5 -114.5v-71q0 -65 6.5 -110t27.5 -72.5t60 -39.5t104 -12q21 0 45.5 1t49 2.5t46.5 4t37 5.5v532
q-34 2 -82.5 3t-93.5 1zM502 -481q-76 0 -150 6.5t-139 17.5q-20 4 -19 24l14 225q1 20 21 17q28 -4 60 -7t63 -4.5t59 -2t48 -0.5q103 0 166.5 10t98.5 34t46.5 63t11.5 98q-35 -9 -80.5 -14.5t-113.5 -5.5q-141 0 -237 25.5t-155 83t-84.5 150.5t-25.5 228v151
q0 133 25 225t86 149t162 82.5t253 25.5q58 0 121.5 -2.5t126 -6.5t122.5 -9t112 -11q20 -1 20 -22v-1035q0 -149 -40 -245t-118 -151.5t-192 -77t-262 -21.5z" />
    <glyph glyph-name="Imacron" unicode="&#x12a;" horiz-adv-x="647" 
d="M37 1626q-20 0 -20 20v198q0 20 20 20h554q20 0 20 -20v-198q0 -20 -20 -20h-554zM168 0q-20 0 -20 20v1435q0 20 20 20h311q20 0 20 -20v-1435q0 -20 -20 -20h-311z" />
    <glyph glyph-name="imacron" unicode="&#x12b;" horiz-adv-x="584" 
d="M56 1237q-20 0 -20 20v198q0 20 20 20h472q20 0 20 -20v-198q0 -20 -20 -20h-472zM146 0q-20 0 -20 20v1031q0 20 20 20h292q20 0 20 -20v-1031q0 -20 -20 -20h-292z" />
    <glyph glyph-name="Ibreve" unicode="&#x12c;" horiz-adv-x="647" 
d="M323 1577q-98 0 -159.5 15.5t-96 48t-47.5 83t-14 120.5q0 20 20 20h180q21 0 22 -20q3 -27 11.5 -45t21.5 -28.5t29 -15t33 -4.5t33 4.5t29 15t21.5 28.5t11.5 45q1 20 22 20h181q20 0 20 -20q-1 -70 -14 -120.5t-48 -83t-96.5 -48t-159.5 -15.5zM168 0q-20 0 -20 20
v1435q0 20 20 20h311q20 0 20 -20v-1435q0 -20 -20 -20h-311z" />
    <glyph glyph-name="ibreve" unicode="&#x12d;" horiz-adv-x="584" 
d="M292 1237q-98 0 -159 19.5t-95.5 56.5t-48 90t-14.5 121q0 20 20 20h201q20 0 20 -20q3 -66 22 -89.5t54 -23.5t54 23.5t22 89.5q0 20 20 20h202q20 0 20 -20q-2 -68 -15 -121t-47.5 -90t-96 -56.5t-159.5 -19.5zM146 0q-20 0 -20 20v1031q0 20 20 20h292q20 0 20 -20
v-1031q0 -20 -20 -20h-292z" />
    <glyph glyph-name="Iogonek" unicode="&#x12e;" horiz-adv-x="646" 
d="M37 -209q0 40 7.5 71.5t22 58t34.5 49.5t46 44v6v1435q0 20 20 20h311q20 0 20 -20v-1435q0 -7 -3 -13t-11 -7q-50 -6 -88.5 -23t-64.5 -40.5t-39 -52t-13 -58.5q0 -21 3 -35t12 -22.5t26 -11.5t44 -3q20 0 50 2t55 4q20 1 21 -18l6 -122q1 -20 -18 -24q-31 -7 -77 -11.5
t-92 -4.5q-70 0 -121 10t-84.5 34.5t-50 65t-16.5 101.5z" />
    <glyph glyph-name="iogonek" unicode="&#x12f;" horiz-adv-x="584" 
d="M351 -246q18 0 40 1t45 4q21 3 22 -17l14 -122q2 -11 -2 -16.5t-15 -8.5q-22 -6 -62.5 -10.5t-106.5 -4.5q-70 0 -121.5 10t-85 34.5t-50 65t-16.5 101.5q0 40 9.5 74t25 61.5t36 49.5t42.5 39v5v1031q0 20 20 20h292q20 0 20 -20v-1031q0 -17 -14 -20q-45 -9 -80 -26.5
t-59.5 -40.5t-37 -50.5t-12.5 -56.5q0 -21 3 -35t13.5 -22.5t29 -11.5t50.5 -3zM146 1219q-20 0 -20 20v287q0 11 4.5 15.5t15.5 6.5l292 37q20 3 20 -18v-328q0 -20 -20 -20h-292z" />
    <glyph glyph-name="Idotaccent" unicode="&#x130;" horiz-adv-x="647" 
d="M168 0q-20 0 -20 20v1435q0 20 20 20h311q20 0 20 -20v-1435q0 -20 -20 -20h-311zM178 1597q-20 0 -20 20v216q0 21 20 22l292 37q20 1 20 -18v-257q0 -20 -20 -20h-292z" />
    <glyph glyph-name="dotlessi" unicode="&#x131;" horiz-adv-x="584" 
d="M146 0q-20 0 -20 20v1031q0 20 20 20h292q20 0 20 -20v-1031q0 -20 -20 -20h-292z" />
    <glyph glyph-name="IJ" unicode="&#x132;" horiz-adv-x="1293" 
d="M168 0q-20 0 -20 20v1435q0 20 20 20h311q20 0 20 -20v-1435q0 -20 -20 -20h-311zM725 -410q-22 0 -45.5 1t-47.5 3.5t-46.5 5.5t-41.5 7q-20 4 -17 23l39 274q2 11 7 15t16 3q26 -3 45 -3.5t36 -0.5q31 0 54.5 5.5t39 18.5t23 35t7.5 56v1422q0 20 20 20h311
q20 0 20 -20v-1455q0 -81 -18 -155.5t-64.5 -131t-128.5 -90t-209 -33.5z" />
    <glyph glyph-name="ij" unicode="&#x133;" horiz-adv-x="1168" 
d="M146 0q-20 0 -20 20v1031q0 20 20 20h292q20 0 20 -20v-1031q0 -20 -20 -20h-292zM146 1219q-20 0 -20 20v287q0 21 20 22l292 37q20 1 20 -18v-328q0 -20 -20 -20h-292zM618 -481q-45 0 -96 4t-89 11q-20 3 -17 23l33 233q3 20 23 17q24 -2 52.5 -4t54.5 -2q43 0 69 5.5
t39.5 18t18 34.5t4.5 55v1137q0 20 20 20h292q20 0 20 -20v-1137q0 -104 -19.5 -178.5t-67.5 -122.5t-130 -71t-207 -23zM730 1219q-20 0 -20 20v287q0 21 20 22l292 37q20 1 20 -18v-328q0 -20 -20 -20h-292z" />
    <glyph glyph-name="Kcommaaccent" unicode="&#x136;" horiz-adv-x="1352" 
d="M941 0q-11 0 -18 3.5t-13 13.5l-348 539l-82 -85v-451q0 -20 -20 -20h-311q-20 0 -20 20v1435q0 20 20 20h311q20 0 20 -20v-511l396 515q12 16 32 16h429q20 0 7 -15l-529 -625l561 -819q11 -16 -9 -16h-426zM487 -453q-19 0 -15 19l63 284q3 11 8.5 15.5t16.5 6.5
l276 33q19 3 13 -16l-130 -323q-4 -11 -10 -15t-17 -4h-205z" />
    <glyph glyph-name="kcommaaccent" unicode="&#x137;" horiz-adv-x="1241" 
d="M829 0q-11 0 -17.5 3.5t-11.5 14.5l-233 444l-115 -102v-340q0 -20 -20 -20h-292q-20 0 -20 20v1562q0 21 20 22l292 36q20 1 20 -18v-879l330 314q14 14 34 14h408q20 0 5 -13l-414 -372l414 -667q5 -8 2.5 -13.5t-12.5 -5.5h-390zM384 -453q-19 0 -15 19l63 284
q3 11 8.5 15.5t16.5 6.5l276 33q19 3 13 -16l-130 -323q-4 -11 -10 -15t-17 -4h-205z" />
    <glyph glyph-name="Lacute" unicode="&#x139;" horiz-adv-x="1064" 
d="M168 0q-20 0 -20 20v1435q0 20 20 20h311q20 0 20 -20v-1127h514q20 0 20 -20v-288q0 -20 -20 -20h-845zM203 1597q-20 0 -7 15l191 216q8 8 15 11.5t18 3.5h335q20 0 5 -13l-257 -220q-8 -8 -16 -10.5t-19 -2.5h-265z" />
    <glyph glyph-name="lacute" unicode="&#x13a;" horiz-adv-x="599" 
d="M153 0q-20 0 -20 20v1562q0 21 20 22l292 36q20 1 20 -18v-1602q0 -20 -20 -20h-292zM107 1689q-20 0 -7 15l191 216q8 8 15 11.5t18 3.5h335q20 0 5 -13l-257 -220q-8 -8 -16 -10.5t-19 -2.5h-265z" />
    <glyph glyph-name="Lcommaaccent" unicode="&#x13b;" horiz-adv-x="1066" 
d="M168 0q-20 0 -20 20v1435q0 20 20 20h311q20 0 20 -20v-1127h514q20 0 20 -20v-288q0 -20 -20 -20h-845zM408 -453q-19 0 -15 19l63 284q3 11 8.5 15.5t16.5 6.5l276 33q19 3 13 -16l-130 -323q-4 -11 -10 -15t-17 -4h-205z" />
    <glyph glyph-name="lcommaaccent" unicode="&#x13c;" horiz-adv-x="598" 
d="M153 0q-20 0 -20 20v1562q0 21 20 22l292 36q20 1 20 -18v-1602q0 -20 -20 -20h-292zM83 -453q-19 0 -15 19l63 284q3 11 8.5 15.5t16.5 6.5l276 33q19 3 13 -16l-130 -323q-4 -11 -10 -15t-17 -4h-205z" />
    <glyph glyph-name="Lcaron" unicode="&#x13d;" horiz-adv-x="1064" 
d="M656 1006q-20 0 -20 20v420q0 21 20 22l271 35q19 1 18 -18l-51 -459q-1 -20 -22 -20h-216zM168 0q-20 0 -20 20v1435q0 20 20 20h311q20 0 20 -20v-1127h514q20 0 20 -20v-288q0 -20 -20 -20h-845z" />
    <glyph glyph-name="lcaron" unicode="&#x13e;" horiz-adv-x="598" 
d="M153 0q-20 0 -20 20v1562q0 21 20 22l292 36q20 1 20 -18v-1602q0 -20 -20 -20h-292zM589 1141q-20 0 -20 20v421q0 21 20 22l272 34q19 1 18 -18l-52 -459q-1 -20 -22 -20h-216z" />
    <glyph glyph-name="Lslash" unicode="&#x141;" horiz-adv-x="1105" 
d="M209 0q-20 0 -20 20v448l-155 -99q-17 -11 -17 9v309q0 11 3.5 18t13.5 13l155 98v639q0 20 20 20h311q20 0 20 -20v-415l280 178q17 11 17 -9v-308q0 -11 -3.5 -18t-13.5 -13l-280 -179v-363h514q20 0 20 -20v-288q0 -20 -20 -20h-845z" />
    <glyph glyph-name="lslash" unicode="&#x142;" horiz-adv-x="637" 
d="M173 0q-20 0 -20 20v470l-123 -99q-16 -13 -16 7v319q0 20 16 33l123 99v733q0 21 20 22l292 36q20 1 20 -18v-505l123 99q16 13 16 -7v-319q0 -11 -3.5 -18t-12.5 -15l-123 -99v-738q0 -20 -20 -20h-292z" />
    <glyph glyph-name="Nacute" unicode="&#x143;" horiz-adv-x="1520" 
d="M168 0q-20 0 -20 20v1435q0 20 20 20h338q11 0 17.5 -3.5t12.5 -13.5l439 -751q11 -19 19 -36t14 -30t9 -21t4 -8l1 843q0 20 20 20h310q20 0 20 -20v-1435q0 -20 -20 -20h-338q-11 0 -17.5 3.5t-12.5 13.5l-436 747q-26 45 -36.5 72.5t-12.5 27.5v-844q0 -20 -20 -20
h-311zM609 1597q-20 0 -7 15l191 216q8 8 15 11.5t18 3.5h335q20 0 5 -13l-257 -220q-8 -8 -16 -10.5t-19 -2.5h-265z" />
    <glyph glyph-name="nacute" unicode="&#x144;" horiz-adv-x="1255" 
d="M830 0q-20 0 -20 20v543q0 55 -6.5 96t-26.5 68t-57 40t-98 13q-20 0 -42.5 -2t-45 -5.5t-43.5 -8.5t-39 -11v-733q0 -20 -20 -20h-292q-20 0 -20 20v1050q0 20 20 20h230q11 0 17.5 -3.5t12.5 -13.5l31 -57q60 38 142 61t182 23q94 0 166.5 -25t121.5 -80.5t74 -145
t25 -218.5v-611q0 -20 -20 -20h-292zM474 1270q-20 0 -9 17l164 242q6 10 13 13.5t18 3.5h325q9 0 11 -4t-5 -11l-230 -246q-8 -8 -15.5 -11.5t-18.5 -3.5h-253z" />
    <glyph glyph-name="Ncommaaccent" unicode="&#x145;" horiz-adv-x="1519" 
d="M168 0q-20 0 -20 20v1435q0 20 20 20h338q11 0 17.5 -3.5t12.5 -13.5l439 -751q11 -19 19 -36t14 -30t9 -21t4 -8l1 843q0 20 20 20h310q20 0 20 -20v-1435q0 -20 -20 -20h-338q-11 0 -17.5 3.5t-12.5 13.5l-436 747q-26 45 -36.5 72.5t-12.5 27.5v-844q0 -20 -20 -20
h-311zM557 -453q-19 0 -15 19l63 284q3 11 8.5 15.5t16.5 6.5l276 33q19 3 13 -16l-130 -323q-4 -11 -10 -15t-17 -4h-205z" />
    <glyph glyph-name="ncommaaccent" unicode="&#x146;" horiz-adv-x="1256" 
d="M830 0q-20 0 -20 20v543q0 55 -6.5 96t-26.5 68t-57 40t-98 13q-20 0 -42.5 -2t-45 -5.5t-43.5 -8.5t-39 -11v-733q0 -20 -20 -20h-292q-20 0 -20 20v1050q0 20 20 20h230q11 0 17.5 -3.5t12.5 -13.5l31 -57q60 38 142 61t182 23q94 0 166.5 -25t121.5 -80.5t74 -145
t25 -218.5v-611q0 -20 -20 -20h-292zM411 -453q-19 0 -15 19l63 284q3 11 8.5 15.5t16.5 6.5l276 33q19 3 13 -16l-130 -323q-4 -11 -10 -15t-17 -4h-205z" />
    <glyph glyph-name="Ncaron" unicode="&#x147;" horiz-adv-x="1520" 
d="M168 0q-20 0 -20 20v1435q0 20 20 20h338q11 0 17.5 -3.5t12.5 -13.5l439 -751q11 -19 19 -36t14 -30t9 -21t4 -8l1 843q0 20 20 20h310q20 0 20 -20v-1435q0 -20 -20 -20h-338q-11 0 -17.5 3.5t-12.5 13.5l-436 747q-26 45 -36.5 72.5t-12.5 27.5v-844q0 -20 -20 -20
h-311zM388 1828q-7 7 -5 11t11 4h243q11 0 18.5 -3.5t15.5 -11.5l82 -88h20l83 88q8 8 15.5 11.5t18.5 3.5h242q9 0 11 -4t-5 -11l-203 -216q-8 -8 -15.5 -11.5t-18.5 -3.5h-276q-11 0 -18.5 3.5t-15.5 11.5z" />
    <glyph glyph-name="ncaron" unicode="&#x148;" horiz-adv-x="1255" 
d="M830 0q-20 0 -20 20v543q0 55 -6.5 96t-26.5 68t-57 40t-98 13q-20 0 -42.5 -2t-45 -5.5t-43.5 -8.5t-39 -11v-733q0 -20 -20 -20h-292q-20 0 -20 20v1050q0 20 20 20h230q11 0 17.5 -3.5t12.5 -13.5l31 -57q60 38 142 61t182 23q94 0 166.5 -25t121.5 -80.5t74 -145
t25 -218.5v-611q0 -20 -20 -20h-292zM249 1530q-13 16 8 16h263q11 0 17.5 -3.5t12.5 -13.5l66 -106h20l66 106q6 10 12.5 13.5t17.5 3.5h263q21 0 8 -16l-197 -265q-12 -16 -32 -16h-296q-20 0 -32 16z" />
    <glyph glyph-name="Omacron" unicode="&#x14c;" horiz-adv-x="1452" 
d="M725 -31q-150 0 -267.5 34t-198.5 114.5t-123 213.5t-42 331v153q0 196 42 328t123 212.5t198.5 115t267.5 34.5q151 0 269 -34t199 -114.5t123 -213.5t42 -330v-154q0 -197 -42 -329t-123 -212.5t-199 -114.5t-269 -34zM725 1157q-70 0 -122.5 -16.5t-88 -55t-53 -102.5
t-17.5 -158v-174q0 -95 17.5 -159t53 -103t88 -55.5t122.5 -16.5t123 16.5t88.5 55.5t53.5 103t18 159v172q0 94 -18 158t-53.5 103t-88.5 56t-123 17zM448 1596q-20 0 -20 20v198q0 20 20 20h554q20 0 20 -20v-198q0 -20 -20 -20h-554z" />
    <glyph glyph-name="omacron" unicode="&#x14d;" horiz-adv-x="1188" 
d="M593 817q-58 0 -94 -11t-56 -38.5t-27 -73.5t-7 -116v-86q0 -69 7.5 -115.5t28 -74t56.5 -39t92 -11.5q57 0 93 11.5t56.5 39.5t28.5 74.5t8 116.5v84q0 70 -7 116t-27.5 73.5t-57 38.5t-94.5 11zM593 -31q-138 0 -235 29.5t-158 92t-89 159.5t-28 231v105q0 134 28 231
t89 160t158 93t235 30q139 0 236.5 -30t158.5 -93t89 -160t28 -231v-105q0 -134 -28 -231t-89 -159.5t-158.5 -92t-236.5 -29.5zM306 1268q-20 0 -20 20v197q0 20 20 20h554q20 0 20 -20v-197q0 -20 -20 -20h-554z" />
    <glyph glyph-name="Ohungarumlaut" unicode="&#x150;" horiz-adv-x="1452" 
d="M725 -31q-150 0 -267.5 34t-198.5 114.5t-123 213.5t-42 331v153q0 196 42 328t123 212.5t198.5 115t267.5 34.5q151 0 269 -34t199 -114.5t123 -213.5t42 -330v-154q0 -197 -42 -329t-123 -212.5t-199 -114.5t-269 -34zM725 1157q-70 0 -122.5 -16.5t-88 -55t-53 -102.5
t-17.5 -158v-174q0 -95 17.5 -159t53 -103t88 -55.5t122.5 -16.5t123 16.5t88.5 55.5t53.5 103t18 159v172q0 94 -18 158t-53.5 103t-88.5 56t-123 17zM391 1597q-20 0 -11 18l114 210q5 11 11.5 14.5t17.5 3.5h259q20 0 7 -15l-183 -216q-8 -8 -15 -11.5t-18 -3.5h-182z
M781 1597q-20 0 -11 18l114 210q5 11 11.5 14.5t17.5 3.5h259q20 0 7 -15l-184 -216q-8 -8 -15 -11.5t-18 -3.5h-181z" />
    <glyph glyph-name="ohungarumlaut" unicode="&#x151;" horiz-adv-x="1188" 
d="M593 817q-58 0 -94 -11t-56 -38.5t-27 -73.5t-7 -116v-86q0 -69 7.5 -115.5t28 -74t56.5 -39t92 -11.5q57 0 93 11.5t56.5 39.5t28.5 74.5t8 116.5v84q0 70 -7 116t-27.5 73.5t-57 38.5t-94.5 11zM593 -31q-138 0 -235 29.5t-158 92t-89 159.5t-28 231v105q0 134 28 231
t89 160t158 93t235 30q139 0 236.5 -30t158.5 -93t89 -160t28 -231v-105q0 -134 -28 -231t-89 -159.5t-158.5 -92t-236.5 -29.5zM306 1260q-20 0 -14 19l84 248q5 19 26 19h263q21 0 10 -17l-148 -252q-6 -10 -12.5 -13.5t-17.5 -3.5h-191zM705 1260q-20 0 -14 19l74 248
q4 11 9.5 15t16.5 4h273q21 0 10 -17l-147 -252q-6 -10 -12.5 -13.5t-17.5 -3.5h-192z" />
    <glyph glyph-name="OE" unicode="&#x152;" horiz-adv-x="2063" 
d="M725 -31q-150 0 -267.5 34t-198.5 114.5t-123 213.5t-42 331v153q0 196 42 328t123 212.5t198.5 115t267.5 34.5q141 0 254 -30h973q20 0 20 -20v-288q0 -20 -20 -20h-638q17 -52 27 -112t14 -130h452q20 0 20 -20v-287q0 -20 -20 -20h-451q-4 -73 -14 -135t-27 -115h637
q20 0 20 -20v-288q0 -20 -20 -20h-969q-112 -31 -258 -31zM725 1157q-70 0 -122.5 -16.5t-88 -55t-53 -102.5t-17.5 -158v-174q0 -95 17.5 -159t53 -103t88 -55.5t122.5 -16.5t123 16.5t88.5 55.5t53.5 103t18 159v172q0 94 -18 158t-53.5 103t-88.5 56t-123 17z" />
    <glyph glyph-name="oe" unicode="&#x153;" horiz-adv-x="1871" 
d="M1296 -31q-118 0 -205 20.5t-149 62.5q-120 -83 -349 -83q-138 0 -235 29.5t-158 92t-89 159.5t-28 231v105q0 134 28 231t89 160t158 93t235 30q116 0 202.5 -20.5t147.5 -64.5q61 44 147 64.5t202 20.5q139 0 236.5 -30t158.5 -93t89 -160.5t28 -232.5
q0 -60 -8.5 -110.5t-14.5 -75.5q-4 -17 -21 -17l-645 -2q7 -42 22 -67t39.5 -38.5t60.5 -17.5t84 -4q91 0 182.5 3t194.5 10q20 1 21 -19l14 -226q1 -20 -19 -23q-100 -12 -203 -20t-215 -8zM593 817q-58 0 -94 -11t-56 -38.5t-27 -73.5t-7 -116v-86q0 -69 7.5 -115.5
t28 -74t56.5 -39t92 -11.5q57 0 93 11.5t56.5 39.5t28.5 74.5t8 116.5v84q0 70 -7 116t-27.5 73.5t-57 38.5t-94.5 11zM1505 631q-10 57 -25 93t-39 56.5t-60 28.5t-89 8q-54 0 -89 -10t-55.5 -34t-29.5 -63t-10 -97z" />
    <glyph glyph-name="Racute" unicode="&#x154;" horiz-adv-x="1401" 
d="M950 0q-11 0 -17 3.5t-11 14.5l-229 492h-29q-39 0 -78 1.5t-88 4.5v-496q0 -20 -20 -20h-311q-20 0 -20 20v1435q0 20 20 21q122 8 236 11.5t224 3.5q140 0 245.5 -9t181.5 -29t126 -52t79.5 -79.5t41.5 -111t12 -145.5v-133q0 -113 -22.5 -190.5t-82.5 -127.5
q-58 -48 -176 -74q17 -27 35.5 -57.5t38.5 -68.5l212 -396q9 -18 -11 -18h-357zM649 1180q-17 0 -36.5 -0.5t-39.5 -1t-39.5 -2t-35.5 -2.5v-347q64 -6 161 -6q93 0 152 4.5t92 20t45.5 44.5t12.5 77v67q0 48 -12 77t-46 44.5t-95 20t-159 4.5zM520 1597q-20 0 -7 15
l191 216q8 8 15 11.5t18 3.5h335q20 0 5 -13l-257 -220q-8 -8 -16 -10.5t-19 -2.5h-265z" />
    <glyph glyph-name="racute" unicode="&#x155;" horiz-adv-x="824" 
d="M140 0q-20 0 -20 20v1050q0 20 20 20h230q11 0 17.5 -3.5t12.5 -14.5l32 -59q30 28 68 45t78.5 26.5t79 12.5t68.5 3q15 0 27.5 -1t22.5 -3q20 -3 19 -23l-17 -297q-1 -21 -21 -18q-12 1 -24 1.5t-27 0.5q-78 0 -139 -7t-115 -24v-709q0 -20 -20 -20h-292zM271 1270
q-20 0 -9 17l164 242q6 10 13 13.5t18 3.5h325q9 0 11 -4t-5 -11l-230 -246q-8 -8 -15.5 -11.5t-18.5 -3.5h-253z" />
    <glyph glyph-name="Rcommaaccent" unicode="&#x156;" horiz-adv-x="1400" 
d="M950 0q-11 0 -17 3.5t-11 14.5l-229 492h-29q-39 0 -78 1.5t-88 4.5v-496q0 -20 -20 -20h-311q-20 0 -20 20v1435q0 20 20 21q122 8 236 11.5t224 3.5q140 0 245.5 -9t181.5 -29t126 -52t79.5 -79.5t41.5 -111t12 -145.5v-133q0 -113 -22.5 -190.5t-82.5 -127.5
q-58 -48 -176 -74q17 -27 35.5 -57.5t38.5 -68.5l212 -396q9 -18 -11 -18h-357zM649 1180q-17 0 -36.5 -0.5t-39.5 -1t-39.5 -2t-35.5 -2.5v-347q64 -6 161 -6q93 0 152 4.5t92 20t45.5 44.5t12.5 77v67q0 48 -12 77t-46 44.5t-95 20t-159 4.5zM520 -453q-19 0 -15 19
l63 284q3 11 8.5 15.5t16.5 6.5l276 33q19 3 13 -16l-130 -323q-4 -11 -10 -15t-17 -4h-205z" />
    <glyph glyph-name="rcommaaccent" unicode="&#x157;" horiz-adv-x="826" 
d="M140 0q-20 0 -20 20v1050q0 20 20 20h230q11 0 17.5 -3.5t12.5 -14.5l32 -59q30 28 68 45t78.5 26.5t79 12.5t68.5 3q15 0 27.5 -1t22.5 -3q20 -3 19 -23l-17 -297q-1 -21 -21 -18q-12 1 -24 1.5t-27 0.5q-78 0 -139 -7t-115 -24v-709q0 -20 -20 -20h-292zM63 -453
q-19 0 -15 19l63 284q3 11 8.5 15.5t16.5 6.5l276 33q19 3 13 -16l-130 -323q-4 -11 -10 -15t-17 -4h-205z" />
    <glyph glyph-name="Rcaron" unicode="&#x158;" horiz-adv-x="1401" 
d="M950 0q-11 0 -17 3.5t-11 14.5l-229 492h-29q-39 0 -78 1.5t-88 4.5v-496q0 -20 -20 -20h-311q-20 0 -20 20v1435q0 20 20 21q122 8 236 11.5t224 3.5q140 0 245.5 -9t181.5 -29t126 -52t79.5 -79.5t41.5 -111t12 -145.5v-133q0 -113 -22.5 -190.5t-82.5 -127.5
q-58 -48 -176 -74q17 -27 35.5 -57.5t38.5 -68.5l212 -396q9 -18 -11 -18h-357zM649 1180q-17 0 -36.5 -0.5t-39.5 -1t-39.5 -2t-35.5 -2.5v-347q64 -6 161 -6q93 0 152 4.5t92 20t45.5 44.5t12.5 77v67q0 48 -12 77t-46 44.5t-95 20t-159 4.5zM330 1828q-7 7 -5 11t11 4
h243q11 0 18.5 -3.5t15.5 -11.5l82 -88h20l83 88q8 8 15.5 11.5t18.5 3.5h242q9 0 11 -4t-5 -11l-203 -216q-8 -8 -15.5 -11.5t-18.5 -3.5h-276q-11 0 -18.5 3.5t-15.5 11.5z" />
    <glyph glyph-name="rcaron" unicode="&#x159;" horiz-adv-x="824" 
d="M140 0q-20 0 -20 20v1050q0 20 20 20h230q11 0 17.5 -3.5t12.5 -14.5l32 -59q30 28 68 45t78.5 26.5t79 12.5t68.5 3q15 0 27.5 -1t22.5 -3q20 -3 19 -23l-17 -297q-1 -21 -21 -18q-12 1 -24 1.5t-27 0.5q-78 0 -139 -7t-115 -24v-709q0 -20 -20 -20h-292zM38 1530
q-13 16 8 16h263q11 0 17.5 -3.5t12.5 -13.5l66 -106h20l66 106q6 10 12.5 13.5t17.5 3.5h263q21 0 8 -16l-197 -265q-12 -16 -32 -16h-296q-20 0 -32 16z" />
    <glyph glyph-name="Sacute" unicode="&#x15a;" horiz-adv-x="1231" 
d="M547 -31q-127 0 -237 13t-191 35q-19 5 -16 25l46 270q3 20 23 17q55 -9 100 -15t86 -9.5t82 -5.5t88 -2q91 0 145.5 5t83.5 18t38.5 34.5t9.5 53.5q0 21 -9 37t-34.5 34.5t-71 42t-117.5 58.5l-172 82q-103 49 -167 100.5t-100 105t-49 108t-13 109.5q0 118 36.5 198.5
t112.5 130t193 70.5t278 21q106 0 203 -10t178 -35q19 -5 16 -25l-47 -260q-4 -20 -24 -17q-39 5 -80 9t-79 6.5t-71 3.5t-55 1q-79 0 -135.5 -2.5t-93 -11.5t-53.5 -26t-17 -46q0 -23 8.5 -41t33 -36.5t68 -40t113.5 -52.5l197 -88q93 -42 154 -84.5t96.5 -92t50 -109
t14.5 -134.5q0 -109 -27.5 -192t-98 -139.5t-190.5 -85t-306 -28.5zM485 1597q-20 0 -7 15l191 216q8 8 15 11.5t18 3.5h335q20 0 5 -13l-257 -220q-8 -8 -16 -10.5t-19 -2.5h-265z" />
    <glyph glyph-name="sacute" unicode="&#x15b;" horiz-adv-x="1024" 
d="M469 -31q-29 0 -71.5 2t-90.5 5.5t-97.5 9t-91.5 12.5q-20 4 -19 24l13 237q1 11 5.5 15t15.5 3q50 -6 92.5 -10t79.5 -6.5t71 -3.5t68 -1q56 0 92.5 2t57.5 7.5t29 15t8 24.5q0 9 -2.5 17t-13.5 16.5t-35 18.5t-66 24l-186 59q-78 25 -127.5 56.5t-77 72t-37.5 91.5
t-10 116q0 100 33 163.5t95.5 99t152 48.5t202.5 13q88 0 168 -8t148 -18q20 -3 19 -23l-14 -236q-1 -11 -5.5 -15t-15.5 -3q-34 3 -71.5 6t-73 5.5t-66 3.5t-50.5 1q-59 0 -96 -2t-58 -7t-28.5 -14t-7.5 -24q0 -10 2.5 -18t14.5 -16.5t37 -18t70 -23.5l164 -49
q81 -24 132.5 -51t81.5 -65t41.5 -90t11.5 -124q0 -112 -35 -179.5t-99.5 -103.5t-156 -47.5t-203.5 -11.5zM366 1270q-20 0 -9 17l164 242q6 10 13 13.5t18 3.5h325q9 0 11 -4t-5 -11l-230 -246q-8 -8 -15.5 -11.5t-18.5 -3.5h-253z" />
    <glyph glyph-name="uni015E" unicode="&#x15e;" horiz-adv-x="1231" 
d="M547 -31q-127 0 -237 13t-191 35q-19 5 -16 25l46 270q3 20 23 17q55 -9 100 -15t86 -9.5t82 -5.5t88 -2q91 0 145.5 5t83.5 18t38.5 34.5t9.5 53.5q0 21 -9 37t-34.5 34.5t-71 42t-117.5 58.5l-172 82q-103 49 -167 100.5t-100 105t-49 108t-13 109.5q0 118 36.5 198.5
t112.5 130t193 70.5t278 21q106 0 203 -10t178 -35q19 -5 16 -25l-47 -260q-4 -20 -24 -17q-39 5 -80 9t-79 6.5t-71 3.5t-55 1q-79 0 -135.5 -2.5t-93 -11.5t-53.5 -26t-17 -46q0 -23 8.5 -41t33 -36.5t68 -40t113.5 -52.5l197 -88q93 -42 154 -84.5t96.5 -92t50 -109
t14.5 -134.5q0 -109 -27.5 -192t-98 -139.5t-190.5 -85t-306 -28.5zM350 -389q-19 0 -10 17l156 253q5 10 12 13.5t18 3.5h242q20 0 10 -18l-135 -251q-6 -11 -12.5 -14.5t-17.5 -3.5h-263z" />
    <glyph glyph-name="uni015F" unicode="&#x15f;" horiz-adv-x="1026" 
d="M469 -31q-29 0 -71.5 2t-90.5 5.5t-97.5 9t-91.5 12.5q-20 4 -19 24l13 237q1 11 5.5 15t15.5 3q50 -6 92.5 -10t79.5 -6.5t71 -3.5t68 -1q56 0 92.5 2t57.5 7.5t29 15t8 24.5q0 9 -2.5 17t-13.5 16.5t-35 18.5t-66 24l-186 59q-78 25 -127.5 56.5t-77 72t-37.5 91.5
t-10 116q0 100 33 163.5t95.5 99t152 48.5t202.5 13q88 0 168 -8t148 -18q20 -3 19 -23l-14 -236q-1 -11 -5.5 -15t-15.5 -3q-34 3 -71.5 6t-73 5.5t-66 3.5t-50.5 1q-59 0 -96 -2t-58 -7t-28.5 -14t-7.5 -24q0 -10 2.5 -18t14.5 -16.5t37 -18t70 -23.5l164 -49
q81 -24 132.5 -51t81.5 -65t41.5 -90t11.5 -124q0 -112 -35 -179.5t-99.5 -103.5t-156 -47.5t-203.5 -11.5zM270 -389q-19 0 -10 17l156 253q5 10 12 13.5t18 3.5h242q20 0 10 -18l-135 -251q-6 -11 -12.5 -14.5t-17.5 -3.5h-263z" />
    <glyph glyph-name="Scaron" unicode="&#x160;" horiz-adv-x="1231" 
d="M547 -31q-127 0 -237 13t-191 35q-19 5 -16 25l46 270q3 20 23 17q55 -9 100 -15t86 -9.5t82 -5.5t88 -2q91 0 145.5 5t83.5 18t38.5 34.5t9.5 53.5q0 21 -9 37t-34.5 34.5t-71 42t-117.5 58.5l-172 82q-103 49 -167 100.5t-100 105t-49 108t-13 109.5q0 118 36.5 198.5
t112.5 130t193 70.5t278 21q106 0 203 -10t178 -35q19 -5 16 -25l-47 -260q-4 -20 -24 -17q-39 5 -80 9t-79 6.5t-71 3.5t-55 1q-79 0 -135.5 -2.5t-93 -11.5t-53.5 -26t-17 -46q0 -23 8.5 -41t33 -36.5t68 -40t113.5 -52.5l197 -88q93 -42 154 -84.5t96.5 -92t50 -109
t14.5 -134.5q0 -109 -27.5 -192t-98 -139.5t-190.5 -85t-306 -28.5zM243 1828q-7 7 -5 11t11 4h243q11 0 18.5 -3.5t15.5 -11.5l82 -88h20l83 88q8 8 15.5 11.5t18.5 3.5h242q9 0 11 -4t-5 -11l-203 -216q-8 -8 -15.5 -11.5t-18.5 -3.5h-276q-11 0 -18.5 3.5t-15.5 11.5z
" />
    <glyph glyph-name="scaron" unicode="&#x161;" horiz-adv-x="1024" 
d="M469 -31q-29 0 -71.5 2t-90.5 5.5t-97.5 9t-91.5 12.5q-20 4 -19 24l13 237q1 11 5.5 15t15.5 3q50 -6 92.5 -10t79.5 -6.5t71 -3.5t68 -1q56 0 92.5 2t57.5 7.5t29 15t8 24.5q0 9 -2.5 17t-13.5 16.5t-35 18.5t-66 24l-186 59q-78 25 -127.5 56.5t-77 72t-37.5 91.5
t-10 116q0 100 33 163.5t95.5 99t152 48.5t202.5 13q88 0 168 -8t148 -18q20 -3 19 -23l-14 -236q-1 -11 -5.5 -15t-15.5 -3q-34 3 -71.5 6t-73 5.5t-66 3.5t-50.5 1q-59 0 -96 -2t-58 -7t-28.5 -14t-7.5 -24q0 -10 2.5 -18t14.5 -16.5t37 -18t70 -23.5l164 -49
q81 -24 132.5 -51t81.5 -65t41.5 -90t11.5 -124q0 -112 -35 -179.5t-99.5 -103.5t-156 -47.5t-203.5 -11.5zM141 1530q-13 16 8 16h263q11 0 17.5 -3.5t12.5 -13.5l66 -106h20l66 106q6 10 12.5 13.5t17.5 3.5h263q21 0 8 -16l-197 -265q-12 -16 -32 -16h-296q-20 0 -32 16z
" />
    <glyph glyph-name="uni0162" unicode="&#x162;" horiz-adv-x="1217" 
d="M454 0q-20 0 -20 20v1127h-383q-20 0 -20 20v288q0 20 20 20h1117q20 0 20 -20v-288q0 -20 -20 -20h-384v-1127q0 -20 -20 -20h-310zM392 -453q-19 0 -15 19l63 284q3 11 8.5 15.5t16.5 6.5l276 33q19 3 13 -16l-130 -323q-4 -11 -10 -15t-17 -4h-205z" />
    <glyph glyph-name="uni0163" unicode="&#x163;" horiz-adv-x="866" 
d="M530 -31q-80 0 -139 15t-98 54.5t-58.5 109.5t-19.5 180v448l-158 29q-20 4 -20 24v222q0 20 20 20h158v191q0 21 20 22l292 37q20 1 20 -18v-232h269q20 0 17 -20l-35 -255q-3 -20 -23 -20h-228v-430q0 -28 5.5 -45t17.5 -26t32 -12t49 -3q10 0 23 0.5t27 1t27.5 1.5
t25.5 2q20 1 21 -19l14 -226q1 -21 -18 -25q-23 -5 -51 -10t-59.5 -8.5t-64.5 -5.5t-66 -2zM267 -453q-19 0 -15 19l63 284q3 11 8.5 15.5t16.5 6.5l276 33q19 3 13 -16l-130 -323q-4 -11 -10 -15t-17 -4h-205z" />
    <glyph glyph-name="Tcaron" unicode="&#x164;" horiz-adv-x="1221" 
d="M455 0q-20 0 -20 20v1127h-383q-20 0 -20 20v288q0 20 20 20h1117q20 0 20 -20v-288q0 -20 -20 -20h-384v-1127q0 -20 -20 -20h-310zM234 1828q-7 7 -5 11t11 4h243q11 0 18.5 -3.5t15.5 -11.5l82 -88h20l83 88q8 8 15.5 11.5t18.5 3.5h242q9 0 11 -4t-5 -11l-203 -216
q-8 -8 -15.5 -11.5t-18.5 -3.5h-276q-11 0 -18.5 3.5t-15.5 11.5z" />
    <glyph glyph-name="tcaron" unicode="&#x165;" horiz-adv-x="869" 
d="M659 1171q-20 0 -20 20v391q0 21 20 22l272 34q19 1 18 -18l-52 -429q-1 -20 -22 -20h-216zM530 -31q-80 0 -139 15t-98 54.5t-58.5 109.5t-19.5 180v448l-158 29q-20 4 -20 24v222q0 20 20 20h158v191q0 21 20 22l292 37q20 1 20 -18v-232h269q20 0 17 -20l-35 -255
q-3 -20 -23 -20h-228v-430q0 -28 5.5 -45t17.5 -26t32 -12t49 -3q10 0 23 0.5t27 1t27.5 1.5t25.5 2q20 1 21 -19l14 -226q1 -21 -18 -25q-23 -5 -51 -10t-59.5 -8.5t-64.5 -5.5t-66 -2z" />
    <glyph glyph-name="uni0166" unicode="&#x166;" horiz-adv-x="1221" 
d="M455 0q-20 0 -20 20v473h-165q-20 0 -20 20v280q0 20 20 20h165v334h-383q-20 0 -20 20v288q0 20 20 20h1117q20 0 20 -20v-288q0 -20 -20 -20h-384v-334h165q20 0 20 -20v-280q0 -20 -20 -20h-165v-473q0 -20 -20 -20h-310z" />
    <glyph glyph-name="uni0167" unicode="&#x167;" horiz-adv-x="871" 
d="M533 -31q-80 0 -139 15t-98 54.5t-58.5 109.5t-19.5 180v54l-20 3l-108 25q-20 4 -20 24v212q0 20 20 20h128v110l-158 29q-20 4 -20 24v222q0 20 20 20h158v191q0 21 20 22l292 37q20 1 20 -18v-232h269q20 0 17 -20l-35 -255q-3 -20 -23 -20h-228v-110h212q20 0 17 -20
l-35 -245q-3 -20 -23 -20h-171v-35q0 -28 5.5 -45t17.5 -26t32 -12t49 -3q10 0 23 0.5t27 1t27.5 1.5t25.5 2q20 1 21 -19l14 -226q1 -21 -18 -25q-23 -5 -51 -10t-59.5 -8.5t-64.5 -5.5t-66 -2z" />
    <glyph glyph-name="Utilde" unicode="&#x168;" horiz-adv-x="1501" 
d="M751 -31q-146 0 -260.5 28t-193.5 90t-120 161t-41 241v966q0 20 20 20h310q20 0 20 -20v-886q0 -71 13.5 -121t45 -81.5t82 -45.5t124.5 -14q71 0 121.5 14t82.5 45.5t47 81.5t15 121v886q0 20 20 20h308q20 0 20 -20v-966q0 -142 -42 -241t-121.5 -161t-193 -90
t-257.5 -28zM381 1587q-20 0 -20 20v70q0 78 19.5 126t50.5 73.5t70 34t79 8.5q41 0 72.5 -9t72.5 -28l48 -22q43 -20 64 -30.5t37 -10.5q7 0 13 2t10 10t6 23.5t3 42.5q0 20 20 20h191q20 0 20 -20v-70q0 -78 -19 -125.5t-50 -73.5t-70.5 -34.5t-79.5 -8.5q-41 0 -72 8.5
t-73 28.5l-47 23q-44 22 -64 31.5t-33 9.5q-9 0 -15.5 -2.5t-11 -10.5t-7 -23.5t-3.5 -42.5q0 -20 -20 -20h-191z" />
    <glyph glyph-name="utilde" unicode="&#x169;" horiz-adv-x="1237" 
d="M634 -31q-159 0 -260.5 26t-159 84.5t-79.5 154t-22 233.5v584q0 20 20 20h291q20 0 20 -20v-562q0 -63 7 -105.5t28 -68.5t58 -37.5t97 -11.5q35 0 78 2.5t75 10.5v772q0 20 20 20h292q20 0 20 -20v-996q0 -21 -19 -25q-43 -12 -100 -23t-119.5 -19.5t-126 -13.5
t-120.5 -5zM482 1343q-9 0 -15.5 -2t-11 -10t-7 -23.5t-3.5 -42.5q0 -20 -20 -20h-185q-21 0 -22 20q-2 13 -3 31.5t-1 38.5q0 78 19.5 126t50.5 73.5t70 34t79 8.5q42 0 74 -8t70 -27l49 -24q42 -22 63 -31.5t33 -9.5q9 0 16 2t11.5 10t6.5 23.5t3 42.5q0 20 20 20h185
q21 0 22 -20q2 -13 3 -31.5t1 -38.5q0 -78 -19 -125.5t-50 -73.5t-70.5 -34.5t-79.5 -8.5q-21 0 -37.5 2t-33 6t-34 11t-38.5 16l-49 25q-42 21 -63 30.5t-34 9.5z" />
    <glyph glyph-name="Umacron" unicode="&#x16a;" horiz-adv-x="1501" 
d="M751 -31q-146 0 -260.5 28t-193.5 90t-120 161t-41 241v966q0 20 20 20h310q20 0 20 -20v-886q0 -71 13.5 -121t45 -81.5t82 -45.5t124.5 -14q71 0 121.5 14t82.5 45.5t47 81.5t15 121v886q0 20 20 20h308q20 0 20 -20v-966q0 -142 -42 -241t-121.5 -161t-193 -90
t-257.5 -28zM473 1596q-20 0 -20 20v198q0 20 20 20h554q20 0 20 -20v-198q0 -20 -20 -20h-554z" />
    <glyph glyph-name="umacron" unicode="&#x16b;" horiz-adv-x="1237" 
d="M634 -31q-159 0 -260.5 26t-159 84.5t-79.5 154t-22 233.5v584q0 20 20 20h291q20 0 20 -20v-562q0 -63 7 -105.5t28 -68.5t58 -37.5t97 -11.5q35 0 78 2.5t75 10.5v772q0 20 20 20h292q20 0 20 -20v-996q0 -21 -19 -25q-43 -12 -100 -23t-119.5 -19.5t-126 -13.5
t-120.5 -5zM327 1268q-20 0 -20 20v197q0 20 20 20h554q20 0 20 -20v-197q0 -20 -20 -20h-554z" />
    <glyph glyph-name="Uring" unicode="&#x16e;" horiz-adv-x="1500" 
d="M751 -31q-146 0 -260.5 28t-193.5 90t-120 161t-41 241v966q0 20 20 20h310q20 0 20 -20v-886q0 -71 13.5 -121t45 -81.5t82 -45.5t124.5 -14q71 0 121.5 14t82.5 45.5t47 81.5t15 121v886q0 20 20 20h308q20 0 20 -20v-966q0 -142 -42 -241t-121.5 -161t-193 -90
t-257.5 -28zM760 1776q-31 0 -51 -16.5t-20 -41.5v-16q0 -25 20 -41t51 -16t51.5 16t20.5 41v16q0 25 -20.5 41.5t-51.5 16.5zM750 1473q-68 0 -117 18.5t-80.5 50t-46 73.5t-14.5 89v10q0 47 14.5 89.5t46 74.5t80.5 51t117 19q67 0 115.5 -19t80 -51.5t47 -76t15.5 -92.5
t-15.5 -92t-47 -75t-80 -50.5t-115.5 -18.5z" />
    <glyph glyph-name="uring" unicode="&#x16f;" horiz-adv-x="1237" 
d="M634 -31q-159 0 -260.5 26t-159 84.5t-79.5 154t-22 233.5v584q0 20 20 20h291q20 0 20 -20v-562q0 -63 7 -105.5t28 -68.5t58 -37.5t97 -11.5q35 0 78 2.5t75 10.5v772q0 20 20 20h292q20 0 20 -20v-996q0 -21 -19 -25q-43 -12 -100 -23t-119.5 -19.5t-126 -13.5
t-120.5 -5zM635 1458q-15 0 -28.5 -1.5t-23 -7.5t-15 -17t-5.5 -29t5.5 -29t15 -17t23 -7.5t28.5 -1.5t28 1.5t22.5 7.5t15 17t5.5 29t-5.5 29t-15 17t-22.5 7.5t-28 1.5zM624 1176q-71 0 -122 16t-83.5 46t-47.5 72t-15 93t15 93t47.5 72t83.5 46t122 16q69 0 120 -16
t84 -46t49 -72t16 -93t-16 -93t-49 -72t-84 -46t-120 -16z" />
    <glyph glyph-name="Uhungarumlaut" unicode="&#x170;" horiz-adv-x="1501" 
d="M751 -31q-146 0 -260.5 28t-193.5 90t-120 161t-41 241v966q0 20 20 20h310q20 0 20 -20v-886q0 -71 13.5 -121t45 -81.5t82 -45.5t124.5 -14q71 0 121.5 14t82.5 45.5t47 81.5t15 121v886q0 20 20 20h308q20 0 20 -20v-966q0 -142 -42 -241t-121.5 -161t-193 -90
t-257.5 -28zM420 1597q-20 0 -11 18l114 210q5 11 11.5 14.5t17.5 3.5h259q20 0 7 -15l-183 -216q-8 -8 -15 -11.5t-18 -3.5h-182zM810 1597q-20 0 -11 18l114 210q5 11 11.5 14.5t17.5 3.5h259q20 0 7 -15l-184 -216q-8 -8 -15 -11.5t-18 -3.5h-181z" />
    <glyph glyph-name="uhungarumlaut" unicode="&#x171;" horiz-adv-x="1237" 
d="M634 -31q-159 0 -260.5 26t-159 84.5t-79.5 154t-22 233.5v584q0 20 20 20h291q20 0 20 -20v-562q0 -63 7 -105.5t28 -68.5t58 -37.5t97 -11.5q35 0 78 2.5t75 10.5v772q0 20 20 20h292q20 0 20 -20v-996q0 -21 -19 -25q-43 -12 -100 -23t-119.5 -19.5t-126 -13.5
t-120.5 -5zM307 1260q-20 0 -14 19l84 248q5 19 26 19h263q21 0 10 -17l-148 -252q-6 -10 -12.5 -13.5t-17.5 -3.5h-191zM706 1260q-20 0 -14 19l74 248q4 11 9.5 15t16.5 4h273q21 0 10 -17l-147 -252q-6 -10 -12.5 -13.5t-17.5 -3.5h-192z" />
    <glyph glyph-name="Uogonek" unicode="&#x172;" horiz-adv-x="1504" 
d="M751 -31q-146 0 -260.5 28t-193.5 90t-120 161t-41 241v966q0 20 20 20h310q20 0 20 -20v-886q0 -71 13.5 -121t45 -81.5t82 -45.5t124.5 -14q71 0 121.5 14t82.5 45.5t47 81.5t15 121v886q0 20 20 20h308q20 0 20 -20v-966q0 -94 -18.5 -168.5t-54.5 -132.5t-88 -99
t-119 -68q-83 -42 -120 -91t-37 -104q0 -37 18 -54.5t68 -17.5q20 0 50 2t55 4q20 1 21 -18l6 -122q1 -20 -18 -24q-31 -7 -77 -11.5t-92 -4.5q-62 0 -112.5 9.5t-86 33t-55 62t-19.5 96.5q0 54 22 102.5t65 86.5q-5 0 -11 -0.5t-11 -0.5z" />
    <glyph glyph-name="uogonek" unicode="&#x173;" horiz-adv-x="1240" 
d="M634 -31q-159 0 -260.5 26t-159 84.5t-79.5 154t-22 233.5v584q0 20 20 20h291q20 0 20 -20v-562q0 -63 7 -105.5t28 -68.5t58 -37.5t97 -11.5q35 0 78 2.5t75 10.5v772q0 20 20 20h292q20 0 20 -20v-996q0 -12 -3 -18.5t-18 -12.5q-45 -17 -81 -39.5t-61.5 -48t-39 -54
t-13.5 -56.5q0 -37 18 -54.5t68 -17.5q20 0 50 2t55 4q20 1 21 -18l6 -122q1 -20 -18 -24q-31 -7 -77 -11.5t-92 -4.5q-62 0 -112.5 9.5t-86 33t-55 62t-19.5 96.5q0 57 30.5 107t88.5 88q-38 -3 -75 -5t-71 -2z" />
    <glyph glyph-name="Ydieresis" unicode="&#x178;" horiz-adv-x="1268" 
d="M480 0q-20 0 -20 20v463l-472 974q-9 18 11 18h355q11 0 17 -3.5t11 -14.5l253 -589l253 589q5 11 11 14.5t17 3.5h353q20 0 11 -18l-470 -974v-463q0 -20 -20 -20h-310zM265 1597q-20 0 -20 20v216q0 20 20 23l282 35q20 3 20 -17v-257q0 -20 -20 -20h-282zM722 1597
q-20 0 -20 20v216q0 20 20 23l281 35q20 3 20 -17v-257q0 -20 -20 -20h-281z" />
    <glyph glyph-name="Zacute" unicode="&#x179;" horiz-adv-x="1264" 
d="M98 0q-20 0 -20 20v267q0 20 12 36l660 846h-621q-20 0 -20 20v266q0 20 20 20h1016q20 0 20 -20v-266q0 -20 -12 -36l-659 -846h662q20 0 20 -20v-267q0 -20 -20 -20h-1058zM468 1597q-20 0 -7 15l191 216q8 8 15 11.5t18 3.5h335q20 0 5 -13l-257 -220q-8 -8 -16 -10.5
t-19 -2.5h-265z" />
    <glyph glyph-name="zacute" unicode="&#x17a;" horiz-adv-x="1096" 
d="M118 776q-20 0 -20 20v255q0 20 20 20h859q20 0 20 -20v-224q0 -17 -5 -26.5t-17 -22.5l-473 -481h486q20 0 20 -20v-257q0 -20 -20 -20h-880q-20 0 -20 20v219q0 34 23 57l466 480h-459zM401 1270q-20 0 -9 17l164 242q6 10 13 13.5t18 3.5h325q9 0 11 -4t-5 -11
l-230 -246q-8 -8 -15.5 -11.5t-18.5 -3.5h-253z" />
    <glyph glyph-name="Zdotaccent" unicode="&#x17b;" horiz-adv-x="1264" 
d="M98 0q-20 0 -20 20v267q0 20 12 36l660 846h-621q-20 0 -20 20v266q0 20 20 20h1016q20 0 20 -20v-266q0 -20 -12 -36l-659 -846h662q20 0 20 -20v-267q0 -20 -20 -20h-1058zM481 1597q-20 0 -20 20v216q0 21 20 22l292 37q20 1 20 -18v-257q0 -20 -20 -20h-292z" />
    <glyph glyph-name="zdotaccent" unicode="&#x17c;" horiz-adv-x="1096" 
d="M118 776q-20 0 -20 20v255q0 20 20 20h859q20 0 20 -20v-224q0 -17 -5 -26.5t-17 -22.5l-473 -481h486q20 0 20 -20v-257q0 -20 -20 -20h-880q-20 0 -20 20v219q0 34 23 57l466 480h-459zM429 1219q-20 0 -20 20v287q0 21 20 22l292 37q20 1 20 -18v-328q0 -20 -20 -20
h-292z" />
    <glyph glyph-name="Zcaron" unicode="&#x17d;" horiz-adv-x="1264" 
d="M98 0q-20 0 -20 20v267q0 20 12 36l660 846h-621q-20 0 -20 20v266q0 20 20 20h1016q20 0 20 -20v-266q0 -20 -12 -36l-659 -846h662q20 0 20 -20v-267q0 -20 -20 -20h-1058zM252 1828q-7 7 -5 11t11 4h243q11 0 18.5 -3.5t15.5 -11.5l82 -88h20l83 88q8 8 15.5 11.5
t18.5 3.5h242q9 0 11 -4t-5 -11l-203 -216q-8 -8 -15.5 -11.5t-18.5 -3.5h-276q-11 0 -18.5 3.5t-15.5 11.5z" />
    <glyph glyph-name="zcaron" unicode="&#x17e;" horiz-adv-x="1096" 
d="M118 776q-20 0 -20 20v255q0 20 20 20h859q20 0 20 -20v-224q0 -17 -5 -26.5t-17 -22.5l-473 -481h486q20 0 20 -20v-257q0 -20 -20 -20h-880q-20 0 -20 20v219q0 34 23 57l466 480h-459zM170 1530q-13 16 8 16h263q11 0 17.5 -3.5t12.5 -13.5l66 -106h20l66 106
q6 10 12.5 13.5t17.5 3.5h263q21 0 8 -16l-197 -265q-12 -16 -32 -16h-296q-20 0 -32 16z" />
    <glyph glyph-name="florin" unicode="&#x192;" horiz-adv-x="828" 
d="M69 760q-20 4 -17 24l29 230q3 20 23 20h146l4 35q12 118 39 201t79.5 135t136.5 76t210 24q16 0 36 -1t40.5 -3.5t40 -5t34.5 -5.5q19 -4 16 -24l-35 -252q-3 -20 -23 -17q-20 2 -44.5 3.5t-44.5 1.5q-48 0 -77 -7t-44.5 -23t-22.5 -42.5t-11 -66.5l-3 -29h206
q20 0 17 -20l-35 -265q-3 -20 -23 -20h-197l-84 -799q-12 -108 -39 -186t-80 -127.5t-136.5 -73t-207.5 -23.5q-45 0 -94 4.5t-87 12.5q-20 4 -15 23l58 233q5 20 25 17q23 -3 50 -5t53 -2q41 0 67 6t41 20.5t22 39t11 61.5l85 799z" />
    <glyph glyph-name="uni01D3" unicode="&#x1d3;" horiz-adv-x="1501" 
d="M751 -31q-146 0 -260.5 28t-193.5 90t-120 161t-41 241v966q0 20 20 20h310q20 0 20 -20v-886q0 -71 13.5 -121t45 -81.5t82 -45.5t124.5 -14q71 0 121.5 14t82.5 45.5t47 81.5t15 121v886q0 20 20 20h308q20 0 20 -20v-966q0 -142 -42 -241t-121.5 -161t-193 -90
t-257.5 -28zM382 1828q-7 7 -5 11t11 4h243q11 0 18.5 -3.5t15.5 -11.5l82 -88h20l83 88q8 8 15.5 11.5t18.5 3.5h242q9 0 11 -4t-5 -11l-203 -216q-8 -8 -15.5 -11.5t-18.5 -3.5h-276q-11 0 -18.5 3.5t-15.5 11.5z" />
    <glyph glyph-name="uni01D4" unicode="&#x1d4;" horiz-adv-x="1237" 
d="M634 -31q-159 0 -260.5 26t-159 84.5t-79.5 154t-22 233.5v584q0 20 20 20h291q20 0 20 -20v-562q0 -63 7 -105.5t28 -68.5t58 -37.5t97 -11.5q35 0 78 2.5t75 10.5v772q0 20 20 20h292q20 0 20 -20v-996q0 -21 -19 -25q-43 -12 -100 -23t-119.5 -19.5t-126 -13.5
t-120.5 -5zM250 1530q-13 16 8 16h263q11 0 17.5 -3.5t12.5 -13.5l66 -106h20l66 106q6 10 12.5 13.5t17.5 3.5h263q21 0 8 -16l-197 -265q-12 -16 -32 -16h-296q-20 0 -32 16z" />
    <glyph glyph-name="circumflex" unicode="&#x2c6;" 
d="M209 1530q12 16 32 16h296q20 0 32 -16l197 -265q13 -16 -8 -16h-263q-11 0 -17.5 3.5t-12.5 13.5l-66 106h-20l-66 -106q-6 -10 -12.5 -13.5t-17.5 -3.5h-263q-21 0 -8 16z" />
    <glyph glyph-name="caron" unicode="&#x2c7;" 
d="M12 1530q-13 16 8 16h263q11 0 17.5 -3.5t12.5 -13.5l66 -106h20l66 106q6 10 12.5 13.5t17.5 3.5h263q21 0 8 -16l-197 -265q-12 -16 -32 -16h-296q-20 0 -32 16z" />
    <glyph glyph-name="breve" unicode="&#x2d8;" 
d="M389 1237q-98 0 -159 19.5t-95.5 56.5t-48 90t-14.5 121q0 20 20 20h201q20 0 20 -20q3 -66 22 -89.5t54 -23.5t54 23.5t22 89.5q0 20 20 20h202q20 0 20 -20q-2 -68 -15 -121t-47.5 -90t-96 -56.5t-159.5 -19.5z" />
    <glyph glyph-name="dotaccent" unicode="&#x2d9;" 
d="M243 1219q-20 0 -20 20v287q0 21 20 22l292 37q20 1 20 -18v-328q0 -20 -20 -20h-292z" />
    <glyph glyph-name="ring" unicode="&#x2da;" 
d="M414 1458q-15 0 -28.5 -1.5t-23 -7.5t-15 -17t-5.5 -29t5.5 -29t15 -17t23 -7.5t28.5 -1.5t28 1.5t22.5 7.5t15 17t5.5 29t-5.5 29t-15 17t-22.5 7.5t-28 1.5zM403 1176q-71 0 -122 16t-83.5 46t-47.5 72t-15 93t15 93t47.5 72t83.5 46t122 16q69 0 120 -16t84 -46
t49 -72t16 -93t-16 -93t-49 -72t-84 -46t-120 -16z" />
    <glyph glyph-name="ogonek" unicode="&#x2db;" 
d="M486 -246q20 0 50 2t55 4q20 1 21 -18l6 -122q1 -20 -18 -24q-31 -7 -77 -11.5t-92 -4.5q-62 0 -112.5 9.5t-86 33t-55 62t-19.5 96.5q0 75 47.5 136.5t138.5 95.5q17 7 36 7h176q8 0 8.5 -2.5t-6.5 -5.5q-83 -41 -120.5 -87.5t-37.5 -98.5q0 -37 18 -54.5t68 -17.5z" />
    <glyph glyph-name="tilde" unicode="&#x2dc;" 
d="M270 1343q-9 0 -15.5 -2t-11 -10t-7 -23.5t-3.5 -42.5q0 -20 -20 -20h-185q-21 0 -22 20q-2 13 -3 31.5t-1 38.5q0 78 19.5 126t50.5 73.5t70 34t79 8.5q42 0 74 -8t70 -27l49 -24q42 -22 63 -31.5t33 -9.5q9 0 16 2t11.5 10t6.5 23.5t3 42.5q0 20 20 20h185q21 0 22 -20
q2 -13 3 -31.5t1 -38.5q0 -78 -19 -125.5t-50 -73.5t-70.5 -34.5t-79.5 -8.5q-21 0 -37.5 2t-33 6t-34 11t-38.5 16l-49 25q-42 21 -63 30.5t-34 9.5z" />
    <glyph glyph-name="hungarumlaut" unicode="&#x2dd;" 
d="M10 1260q-20 0 -14 19l84 248q5 19 26 19h263q21 0 10 -17l-148 -252q-6 -10 -12.5 -13.5t-17.5 -3.5h-191zM409 1260q-20 0 -14 19l74 248q4 11 9.5 15t16.5 4h273q21 0 10 -17l-147 -252q-6 -10 -12.5 -13.5t-17.5 -3.5h-192z" />
    <glyph glyph-name="uni0300" unicode="&#x300;" horiz-adv-x="0" 
d="M-623 1270q-11 0 -18.5 3.5t-15.5 11.5l-230 246q-7 7 -5 11t11 4h324q11 0 18 -3.5t13 -13.5l164 -242q11 -17 -9 -17h-252z" />
    <glyph glyph-name="uni0301" unicode="&#x301;" horiz-adv-x="0" 
d="M-761 1270q-20 0 -9 17l164 242q6 10 13 13.5t18 3.5h325q9 0 11 -4t-5 -11l-230 -246q-8 -8 -15.5 -11.5t-18.5 -3.5h-253z" />
    <glyph glyph-name="uni0302" unicode="&#x302;" horiz-adv-x="0" 
d="M-774 1530q12 16 32 16h296q20 0 32 -16l197 -265q13 -16 -8 -16h-263q-11 0 -17.5 3.5t-12.5 13.5l-66 106h-20l-66 -106q-6 -10 -12.5 -13.5t-17.5 -3.5h-263q-21 0 -8 16z" />
    <glyph glyph-name="uni0303" unicode="&#x303;" horiz-adv-x="0" 
d="M-712 1343q-9 0 -15.5 -2t-11 -10t-7 -23.5t-3.5 -42.5q0 -20 -20 -20h-185q-21 0 -22 20q-2 13 -3 31.5t-1 38.5q0 78 19.5 126t50.5 73.5t70 34t79 8.5q42 0 74 -8t70 -27l49 -24q42 -22 63 -31.5t33 -9.5q9 0 16 2t11.5 10t6.5 23.5t3 42.5q0 20 20 20h185
q21 0 22 -20q2 -13 3 -31.5t1 -38.5q0 -78 -19 -125.5t-50 -73.5t-70.5 -34.5t-79.5 -8.5q-21 0 -37.5 2t-33 6t-34 11t-38.5 16l-49 25q-42 21 -63 30.5t-34 9.5z" />
    <glyph glyph-name="uni0304" unicode="&#x304;" horiz-adv-x="0" 
d="M-870 1268q-20 0 -20 20v197q0 20 20 20h554q20 0 20 -20v-197q0 -20 -20 -20h-554z" />
    <glyph glyph-name="uni0306" unicode="&#x306;" horiz-adv-x="0" 
d="M-587 1237q-98 0 -159 19.5t-95.5 56.5t-48 90t-14.5 121q0 20 20 20h201q20 0 20 -20q3 -66 22 -89.5t54 -23.5t54 23.5t22 89.5q0 20 20 20h202q20 0 20 -20q-2 -68 -15 -121t-47.5 -90t-96 -56.5t-159.5 -19.5z" />
    <glyph glyph-name="uni0307" unicode="&#x307;" horiz-adv-x="0" 
d="M-739 1219q-20 0 -20 20v287q0 21 20 22l292 37q20 1 20 -18v-328q0 -20 -20 -20h-292z" />
    <glyph glyph-name="uni0308" unicode="&#x308;" horiz-adv-x="0" 
d="M-973 1219q-20 0 -20 20v287q0 20 20 23l282 35q20 3 20 -17v-328q0 -20 -20 -20h-282zM-516 1219q-20 0 -20 20v287q0 20 20 23l281 35q20 3 20 -17v-328q0 -20 -20 -20h-281z" />
    <glyph glyph-name="uni030A" unicode="&#x30a;" horiz-adv-x="0" 
d="M-584 1458q-15 0 -28.5 -1.5t-23 -7.5t-15 -17t-5.5 -29t5.5 -29t15 -17t23 -7.5t28.5 -1.5t28 1.5t22.5 7.5t15 17t5.5 29t-5.5 29t-15 17t-22.5 7.5t-28 1.5zM-595 1176q-71 0 -122 16t-83.5 46t-47.5 72t-15 93t15 93t47.5 72t83.5 46t122 16q69 0 120 -16t84 -46
t49 -72t16 -93t-16 -93t-49 -72t-84 -46t-120 -16z" />
    <glyph glyph-name="uni030B" unicode="&#x30b;" horiz-adv-x="0" 
d="M-910 1260q-20 0 -14 19l84 248q5 19 26 19h263q21 0 10 -17l-148 -252q-6 -10 -12.5 -13.5t-17.5 -3.5h-191zM-511 1260q-20 0 -14 19l74 248q4 11 9.5 15t16.5 4h273q21 0 10 -17l-147 -252q-6 -10 -12.5 -13.5t-17.5 -3.5h-192z" />
    <glyph glyph-name="uni030C" unicode="&#x30c;" horiz-adv-x="0" 
d="M-984 1530q-13 16 8 16h263q11 0 17.5 -3.5t12.5 -13.5l66 -106h20l66 106q6 10 12.5 13.5t17.5 3.5h263q21 0 8 -16l-197 -265q-12 -16 -32 -16h-296q-20 0 -32 16z" />
    <glyph glyph-name="uni0327" unicode="&#x327;" horiz-adv-x="0" 
d="M-818 -389q-19 0 -10 17l156 253q5 10 12 13.5t18 3.5h242q20 0 10 -18l-135 -251q-6 -11 -12.5 -14.5t-17.5 -3.5h-263z" />
    <glyph glyph-name="uni0328" unicode="&#x328;" horiz-adv-x="0" 
d="M-327 -246q20 0 50 2t55 4q20 1 21 -18l6 -122q1 -20 -18 -24q-31 -7 -77 -11.5t-92 -4.5q-62 0 -112.5 9.5t-86 33t-55 62t-19.5 96.5q0 75 47.5 136.5t138.5 95.5q17 7 36 7h176q8 0 8.5 -2.5t-6.5 -5.5q-83 -41 -120.5 -87.5t-37.5 -98.5q0 -37 18 -54.5t68 -17.5z
" />
    <glyph glyph-name="uni037E" unicode="&#x37e;" horiz-adv-x="624" 
d="M105 -266q-20 0 -17 20l72 566q3 21 23 22l333 35q19 1 15 -17l-154 -607q-5 -19 -25 -19h-247zM182 676q-20 0 -20 20v300q0 21 20 22l292 35q20 1 20 -18v-339q0 -20 -20 -20h-292z" />
    <glyph glyph-name="tonos" unicode="&#x384;" 
d="M194 1219q-22 0 -15 19l79 345q5 19 25 19h304q20 0 11 -18l-173 -347q-5 -11 -11.5 -14.5t-17.5 -3.5h-202z" />
    <glyph glyph-name="dieresistonos" unicode="&#x385;" 
d="M20 1219q-20 0 -20 20v216q0 20 20 23l282 35q20 3 20 -17v-257q0 -20 -20 -20h-282zM477 1219q-20 0 -20 20v216q0 20 20 23l281 35q20 3 20 -17v-257q0 -20 -20 -20h-281zM292 1557q-20 0 -14 19l83 280q4 11 9.5 15t16.5 4h304q20 0 9 -17l-175 -284q-6 -10 -13 -13.5
t-18 -3.5h-202z" />
    <glyph glyph-name="Alphatonos" unicode="&#x386;" horiz-adv-x="1372" 
d="M16 0q-20 0 -14 19l436 1437q4 11 9.5 15t16.5 4h442q11 0 16.5 -4t9.5 -15l438 -1437q6 -19 -14 -19h-345q-20 0 -25 19l-60 221h-483l-59 -221q-5 -19 -25 -19h-343zM684 1135l-158 -588h318zM-63 1094q-22 0 -15 19l79 345q5 19 25 19h304q20 0 11 -18l-173 -347
q-5 -11 -11.5 -14.5t-17.5 -3.5h-202z" />
    <glyph glyph-name="Epsilontonos" unicode="&#x388;" horiz-adv-x="1216" 
d="M168 0q-20 0 -20 20v1435q0 20 20 20h933q20 0 20 -20v-288q0 -20 -20 -20h-602v-242h457q20 0 20 -20v-287q0 -20 -20 -20h-457v-250h602q20 0 20 -20v-288q0 -20 -20 -20h-933zM-294 1094q-22 0 -15 19l79 345q5 19 25 19h304q20 0 11 -18l-173 -347
q-5 -11 -11.5 -14.5t-17.5 -3.5h-202z" />
    <glyph glyph-name="Etatonos" unicode="&#x389;" horiz-adv-x="1836" 
d="M480 0q-20 0 -20 20v1435q0 20 20 20h311q20 0 20 -20v-550h528v550q0 20 20 20h310q20 0 20 -20v-1435q0 -20 -20 -20h-310q-20 0 -20 20v557h-528v-557q0 -20 -20 -20h-311zM8 1094q-22 0 -15 19l79 345q5 19 25 19h304q20 0 11 -18l-173 -347q-5 -11 -11.5 -14.5
t-17.5 -3.5h-202z" />
    <glyph glyph-name="Iotatonos" unicode="&#x38a;" horiz-adv-x="959" 
d="M480 0q-20 0 -20 20v1435q0 20 20 20h311q20 0 20 -20v-1435q0 -20 -20 -20h-311zM8 1094q-22 0 -15 19l79 345q5 19 25 19h304q20 0 11 -18l-173 -347q-5 -11 -11.5 -14.5t-17.5 -3.5h-202z" />
    <glyph glyph-name="Omicrontonos" unicode="&#x38c;" horiz-adv-x="1707" 
d="M980 -31q-150 0 -267.5 34t-198.5 114.5t-123 213.5t-42 331v153q0 196 42 328t123 212.5t198.5 115t267.5 34.5q151 0 269 -34t199 -114.5t123 -213.5t42 -330v-154q0 -197 -42 -329t-123 -212.5t-199 -114.5t-269 -34zM980 1157q-70 0 -122.5 -16.5t-88 -55t-53 -102.5
t-17.5 -158v-174q0 -95 17.5 -159t53 -103t88 -55.5t122.5 -16.5t123 16.5t88.5 55.5t53.5 103t18 159v172q0 94 -18 158t-53.5 103t-88.5 56t-123 17zM20 1094q-22 0 -15 19l79 345q5 19 25 19h304q20 0 11 -18l-173 -347q-5 -11 -11.5 -14.5t-17.5 -3.5h-202z" />
    <glyph glyph-name="Upsilontonos" unicode="&#x38e;" horiz-adv-x="1778" 
d="M990 0q-20 0 -20 20v463l-472 974q-9 18 11 18h355q11 0 17 -3.5t11 -14.5l253 -589l253 589q5 11 11 14.5t17 3.5h353q20 0 11 -18l-470 -974v-463q0 -20 -20 -20h-310zM34 1094q-22 0 -15 19l79 345q5 19 25 19h304q20 0 11 -18l-173 -347q-5 -11 -11.5 -14.5
t-17.5 -3.5h-202z" />
    <glyph glyph-name="Omegatonos" unicode="&#x38f;" horiz-adv-x="1675" 
d="M408 0q-20 0 -20 20v269q0 20 20 20h171v19q-55 34 -97 81.5t-70.5 111.5t-43 146t-14.5 187v49q0 159 39.5 273t116.5 187t190 107.5t260 34.5q144 0 258 -34.5t193.5 -107.5t122 -187t42.5 -273v-49q0 -105 -14.5 -187t-43 -146t-70.5 -111.5t-97 -81.5v-19h170
q20 0 20 -20v-269q0 -20 -20 -20h-471q-20 0 -20 20v387q0 12 3.5 18.5t14.5 11.5q40 23 73 57t56.5 81t36 108.5t12.5 139.5v60q0 137 -64.5 206.5t-197.5 69.5q-130 0 -195 -69.5t-65 -206.5v-60q0 -78 12.5 -139.5t36 -108.5t56 -81t72.5 -57q11 -5 14.5 -11.5t3.5 -18.5
v-387q0 -20 -20 -20h-471zM20 1094q-22 0 -15 19l79 345q5 19 25 19h304q20 0 11 -18l-173 -347q-5 -11 -11.5 -14.5t-17.5 -3.5h-202z" />
    <glyph glyph-name="iotadieresistonos" unicode="&#x390;" horiz-adv-x="627" 
d="M454 -31q-111 0 -177.5 22.5t-102 68.5t-47 117t-11.5 169v705q0 20 20 20h292q20 0 20 -20v-705q0 -28 1.5 -46.5t6 -29.5t13.5 -15.5t24 -4.5h21t22 1q20 1 23 -19l33 -231q3 -19 -17 -23q-28 -5 -61.5 -7t-59.5 -2zM-92 1219q-20 0 -20 20v216q0 20 20 23l282 35
q20 3 20 -17v-257q0 -20 -20 -20h-282zM365 1219q-20 0 -20 20v216q0 20 20 23l281 35q20 3 20 -17v-257q0 -20 -20 -20h-281zM180 1557q-20 0 -14 19l83 280q4 11 9.5 15t16.5 4h304q20 0 9 -17l-175 -284q-6 -10 -13 -13.5t-18 -3.5h-202z" />
    <glyph glyph-name="Alpha" unicode="&#x391;" horiz-adv-x="1372" 
d="M16 0q-20 0 -14 19l436 1437q4 11 9.5 15t16.5 4h442q11 0 16.5 -4t9.5 -15l438 -1437q6 -19 -14 -19h-345q-20 0 -25 19l-60 221h-483l-59 -221q-5 -19 -25 -19h-343zM684 1135l-158 -588h318z" />
    <glyph glyph-name="Beta" unicode="&#x392;" horiz-adv-x="1367" 
d="M562 -18q-35 0 -81.5 1t-99 3t-108 4.5t-107.5 6.5q-20 1 -20 21v1437q0 20 20 21q43 3 95.5 5.5t108 5t110.5 3.5t103 1q179 0 301 -18t197 -62t108 -118.5t33 -187.5q0 -91 -34 -159t-94 -113q44 -24 81 -57.5t64 -78t42.5 -99.5t15.5 -121v-35q0 -152 -49 -243
t-142.5 -139t-230.5 -63t-313 -15zM945 451q0 44 -13 71.5t-37 43t-59 21t-79 5.5h-260v-295q13 -1 32.5 -1.5l39 -1t37 -1t28.5 -0.5q89 0 148.5 4.5t95.5 18.5t51.5 41.5t15.5 72.5v21zM658 1180q-42 0 -77.5 -0.5t-83.5 -3.5v-283h237q28 1 53 7.5t43 22t28.5 41.5
t10.5 66v14q0 46 -13.5 73t-40 41t-66 18t-91.5 4z" />
    <glyph glyph-name="Gamma" unicode="&#x393;" horiz-adv-x="1112" 
d="M168 0q-20 0 -20 20v1435q0 20 20 20h896q20 0 20 -20v-288q0 -20 -20 -20h-566v-1127q0 -20 -20 -20h-310z" />
    <glyph glyph-name="Delta" unicode="&#x394;" horiz-adv-x="1389" 
d="M63 0q-20 0 -20 20v257q0 21 7 39l397 1140q7 19 27 19h441q20 0 27 -19l395 -1140q7 -18 7 -39v-257q0 -20 -20 -20h-1261zM404 307h579l-289 828z" />
    <glyph glyph-name="Epsilon" unicode="&#x395;" horiz-adv-x="1216" 
d="M168 0q-20 0 -20 20v1435q0 20 20 20h933q20 0 20 -20v-288q0 -20 -20 -20h-602v-242h457q20 0 20 -20v-287q0 -20 -20 -20h-457v-250h602q20 0 20 -20v-288q0 -20 -20 -20h-933z" />
    <glyph glyph-name="Zeta" unicode="&#x396;" horiz-adv-x="1264" 
d="M98 0q-20 0 -20 20v267q0 20 12 36l660 846h-621q-20 0 -20 20v266q0 20 20 20h1016q20 0 20 -20v-266q0 -20 -12 -36l-659 -846h662q20 0 20 -20v-267q0 -20 -20 -20h-1058z" />
    <glyph glyph-name="Eta" unicode="&#x397;" horiz-adv-x="1524" 
d="M168 0q-20 0 -20 20v1435q0 20 20 20h311q20 0 20 -20v-550h528v550q0 20 20 20h310q20 0 20 -20v-1435q0 -20 -20 -20h-310q-20 0 -20 20v557h-528v-557q0 -20 -20 -20h-311z" />
    <glyph glyph-name="Theta" unicode="&#x398;" horiz-adv-x="1452" 
d="M584 577q-20 0 -20 20v288q0 20 20 20h284q20 0 20 -20v-288q0 -20 -20 -20h-284zM725 -31q-150 0 -267.5 34t-198.5 114.5t-123 213.5t-42 331v153q0 196 42 328t123 212.5t198.5 115t267.5 34.5q151 0 269 -34t199 -114.5t123 -213.5t42 -330v-154q0 -197 -42 -329
t-123 -212.5t-199 -114.5t-269 -34zM725 1157q-70 0 -122.5 -16.5t-88 -55t-53 -102.5t-17.5 -158v-174q0 -95 17.5 -159t53 -103t88 -55.5t122.5 -16.5t123 16.5t88.5 55.5t53.5 103t18 159v172q0 94 -18 158t-53.5 103t-88.5 56t-123 17z" />
    <glyph glyph-name="Iota" unicode="&#x399;" horiz-adv-x="647" 
d="M168 0q-20 0 -20 20v1435q0 20 20 20h311q20 0 20 -20v-1435q0 -20 -20 -20h-311z" />
    <glyph glyph-name="Kappa" unicode="&#x39a;" horiz-adv-x="1357" 
d="M942 0q-11 0 -18 3.5t-13 13.5l-348 539l-82 -85v-451q0 -20 -20 -20h-311q-20 0 -20 20v1435q0 20 20 20h311q20 0 20 -20v-511l396 515q12 16 32 16h429q20 0 7 -15l-529 -625l561 -819q11 -16 -9 -16h-426z" />
    <glyph glyph-name="Lambda" unicode="&#x39b;" horiz-adv-x="1372" 
d="M16 0q-20 0 -14 19l436 1437q4 11 9.5 15t16.5 4h442q11 0 16.5 -4t9.5 -15l438 -1437q6 -19 -14 -19h-345q-20 0 -25 19l-301 1116l-301 -1116q-5 -19 -25 -19h-343z" />
    <glyph glyph-name="Mu" unicode="&#x39c;" horiz-adv-x="1733" 
d="M168 0q-20 0 -20 20v1435q0 20 20 20h374q11 0 17.5 -3.5t12.5 -13.5l258 -464q18 -33 27.5 -60t9.5 -28q0 1 9.5 28t27.5 60l256 464q6 10 12.5 13.5t17.5 3.5h376q20 0 20 -20v-1435q0 -20 -20 -20h-312q-20 0 -20 20l1 984q-6 -22 -15.5 -48t-28.5 -65l-192 -390
q-5 -11 -11.5 -14.5t-17.5 -3.5h-206q-11 0 -17.5 3.5t-11.5 14.5l-192 390q-19 38 -28.5 64.5t-15.5 49.5v-985q0 -20 -20 -20h-311z" />
    <glyph glyph-name="Nu" unicode="&#x39d;" horiz-adv-x="1524" 
d="M168 0q-20 0 -20 20v1435q0 20 20 20h338q11 0 17.5 -3.5t12.5 -13.5l439 -751q11 -19 19 -36t14 -30t9 -21t4 -8l1 843q0 20 20 20h310q20 0 20 -20v-1435q0 -20 -20 -20h-338q-11 0 -17.5 3.5t-12.5 13.5l-436 747q-26 45 -36.5 72.5t-12.5 27.5v-844q0 -20 -20 -20
h-311z" />
    <glyph glyph-name="Xi" unicode="&#x39e;" horiz-adv-x="1161" 
d="M278 578q-20 0 -20 20v287q0 20 20 20h605q20 0 20 -20v-287q0 -20 -20 -20h-605zM1067 1167q0 -20 -20 -20h-933q-20 0 -20 20v288q0 20 20 20h933q20 0 20 -20v-288zM94 308q0 20 20 20h933q20 0 20 -20v-288q0 -20 -20 -20h-933q-20 0 -20 20v288z" />
    <glyph glyph-name="Omicron" unicode="&#x39f;" horiz-adv-x="1452" 
d="M725 -31q-150 0 -267.5 34t-198.5 114.5t-123 213.5t-42 331v153q0 196 42 328t123 212.5t198.5 115t267.5 34.5q151 0 269 -34t199 -114.5t123 -213.5t42 -330v-154q0 -197 -42 -329t-123 -212.5t-199 -114.5t-269 -34zM725 1157q-70 0 -122.5 -16.5t-88 -55t-53 -102.5
t-17.5 -158v-174q0 -95 17.5 -159t53 -103t88 -55.5t122.5 -16.5t123 16.5t88.5 55.5t53.5 103t18 159v172q0 94 -18 158t-53.5 103t-88.5 56t-123 17z" />
    <glyph glyph-name="Pi" unicode="&#x3a0;" horiz-adv-x="1524" 
d="M168 0q-20 0 -20 20v1435q0 20 20 20h1189q20 0 20 -20v-1435q0 -20 -20 -20h-310q-20 0 -20 20v1127h-528v-1127q0 -20 -20 -20h-311z" />
    <glyph glyph-name="Rho" unicode="&#x3a1;" horiz-adv-x="1370" 
d="M655 1180q-18 0 -38 -0.5t-41 -1t-41 -2t-37 -2.5v-357q17 -2 37 -3t41 -1.5t41 -1t38 -0.5q94 0 153 5t92.5 21.5t45.5 46t12 79.5v65q0 49 -12 79t-45.5 46t-92.5 21.5t-153 5.5zM167 0q-20 0 -20 20v1437q0 20 20 21q60 3 126 5.5t129.5 4t122 2.5t104.5 1
q137 0 239 -9.5t175.5 -30.5t121.5 -54.5t76 -82t39 -113t11 -146.5v-119q0 -83 -11 -147.5t-39 -113t-76 -82t-121.5 -54.5t-175.5 -30t-239 -9h-38h-42t-39.5 0.5t-31.5 1.5v-482q0 -20 -20 -20h-311z" />
    <glyph glyph-name="Sigma" unicode="&#x3a3;" horiz-adv-x="1269" 
d="M107 0q-20 0 -20 20v267q0 11 3 19t11 16l392 426l-392 405q-14 14 -14 34v268q0 20 20 20h1058q20 0 20 -20v-288q0 -20 -20 -20h-621l371 -385q8 -8 8 -14.5t-8 -14.5l-372 -406h622q20 0 20 -20v-287q0 -20 -20 -20h-1058z" />
    <glyph glyph-name="Tau" unicode="&#x3a4;" horiz-adv-x="1219" 
d="M455 0q-20 0 -20 20v1127h-383q-20 0 -20 20v288q0 20 20 20h1117q20 0 20 -20v-288q0 -20 -20 -20h-384v-1127q0 -20 -20 -20h-310z" />
    <glyph glyph-name="Upsilon" unicode="&#x3a5;" horiz-adv-x="1268" 
d="M480 0q-20 0 -20 20v463l-472 974q-9 18 11 18h355q11 0 17 -3.5t11 -14.5l253 -589l253 589q5 11 11 14.5t17 3.5h353q20 0 11 -18l-470 -974v-463q0 -20 -20 -20h-310z" />
    <glyph glyph-name="Phi" unicode="&#x3a6;" horiz-adv-x="1555" 
d="M603 162q-140 13 -242.5 52t-169.5 107t-99.5 167.5t-32.5 234.5v31q0 133 32.5 232t99.5 167t169.5 107t242.5 53v142q0 20 20 20h311q20 0 20 -20v-142q139 -14 241.5 -53t169 -107t99 -167.5t32.5 -233.5v-31q0 -134 -32.5 -233t-99 -167t-169 -107t-241.5 -52v-142
q0 -20 -20 -20h-311q-20 0 -20 20v142zM603 989q-58 -12 -95.5 -31.5t-59.5 -46t-30.5 -59t-8.5 -68.5v-92q0 -37 8.5 -69.5t30.5 -59.5t59.5 -46.5t95.5 -31.5v504zM1146 782q0 36 -9.5 68.5t-32 59t-59 46.5t-91.5 32v-501q55 12 91.5 31.5t59 46t32 58.5t9.5 69v90z" />
    <glyph glyph-name="Chi" unicode="&#x3a7;" horiz-adv-x="1372" 
d="M976 0q-11 0 -17.5 3.5t-12.5 13.5l-259 467l-261 -467q-6 -10 -12.5 -13.5t-17.5 -3.5h-378q-20 0 -9 17l451 722l-451 719q-11 17 9 17h378q11 0 17.5 -3.5t12.5 -13.5l260 -453l260 453q6 10 12.5 13.5t17.5 3.5h378q20 0 9 -17l-452 -719l452 -722q11 -17 -9 -17
h-378z" />
    <glyph glyph-name="Psi" unicode="&#x3a8;" horiz-adv-x="1531" 
d="M608 0q-20 0 -20 20v442q-118 15 -213.5 51.5t-163 99.5t-104.5 154t-37 214v474q0 20 20 20h310q20 0 20 -20v-404q0 -50 8.5 -89t28.5 -68t52 -48.5t79 -30.5v640q0 20 20 20h311q20 0 20 -20v-640q94 22 133 78.5t39 157.5v404q0 20 20 20h310q20 0 20 -20v-474
q0 -124 -37.5 -215t-106.5 -154t-165 -99.5t-213 -50.5v-442q0 -20 -20 -20h-311z" />
    <glyph glyph-name="Omega" unicode="&#x3a9;" horiz-adv-x="1420" 
d="M153 0q-20 0 -20 20v269q0 20 20 20h171v19q-55 34 -97 81.5t-70.5 111.5t-43 146t-14.5 187v49q0 159 39.5 273t116.5 187t190 107.5t260 34.5q144 0 258 -34.5t193.5 -107.5t122 -187t42.5 -273v-49q0 -105 -14.5 -187t-43 -146t-70.5 -111.5t-97 -81.5v-19h170
q20 0 20 -20v-269q0 -20 -20 -20h-471q-20 0 -20 20v387q0 12 3.5 18.5t14.5 11.5q40 23 73 57t56.5 81t36 108.5t12.5 139.5v60q0 137 -64.5 206.5t-197.5 69.5q-130 0 -195 -69.5t-65 -206.5v-60q0 -78 12.5 -139.5t36 -108.5t56 -81t72.5 -57q11 -5 14.5 -11.5t3.5 -18.5
v-387q0 -20 -20 -20h-471z" />
    <glyph glyph-name="Iotadieresis" unicode="&#x3aa;" horiz-adv-x="646" 
d="M168 0q-20 0 -20 20v1435q0 20 20 20h311q20 0 20 -20v-1435q0 -20 -20 -20h-311zM-48 1597q-20 0 -20 20v216q0 20 20 23l282 35q20 3 20 -17v-257q0 -20 -20 -20h-282zM409 1597q-20 0 -20 20v216q0 20 20 23l281 35q20 3 20 -17v-257q0 -20 -20 -20h-281z" />
    <glyph glyph-name="Upsilondieresis" unicode="&#x3ab;" horiz-adv-x="1268" 
d="M480 0q-20 0 -20 20v463l-472 974q-9 18 11 18h355q11 0 17 -3.5t11 -14.5l253 -589l253 589q5 11 11 14.5t17 3.5h353q20 0 11 -18l-470 -974v-463q0 -20 -20 -20h-310zM266 1597q-20 0 -20 20v216q0 20 20 23l282 35q20 3 20 -17v-257q0 -20 -20 -20h-282zM723 1597
q-20 0 -20 20v216q0 20 20 23l281 35q20 3 20 -17v-257q0 -20 -20 -20h-281z" />
    <glyph glyph-name="alphatonos" unicode="&#x3ac;" horiz-adv-x="1269" 
d="M1207 -22q-28 -5 -62 -7t-60 -2q-82 0 -137.5 16.5t-91.5 48.5q-32 -14 -69.5 -26t-76 -20.5t-74.5 -13.5t-65 -5q-133 0 -225.5 25t-150 82t-83.5 149t-26 227v162q0 135 27 228t80 150.5t131 83t180 25.5q81 0 155.5 -24t129.5 -62l31 58q5 11 11.5 14.5t17.5 3.5h231
q20 0 20 -20v-725q0 -28 1.5 -46.5t6.5 -29.5t13.5 -15.5t23.5 -4.5h23q11 1 16 -3t7 -15l33 -231q3 -20 -17 -23zM596 810q-61 0 -98 -11.5t-57.5 -39t-27.5 -72.5t-7 -112v-80q0 -69 6 -116t24 -75.5t51.5 -41t87.5 -12.5q24 0 50.5 1.5t52 4.5t49 7.5t42.5 9.5
q-1 17 -1 35.5v37.5v444q-40 11 -79 15.5t-93 4.5zM474 1219q-22 0 -15 19l79 345q5 19 25 19h304q20 0 11 -18l-173 -347q-5 -11 -11.5 -14.5t-17.5 -3.5h-202z" />
    <glyph glyph-name="epsilontonos" unicode="&#x3ad;" horiz-adv-x="995" 
d="M570 -30q-125 0 -217.5 14t-153 49.5t-90 95t-29.5 151.5v15q0 54 16.5 94.5t44.5 71.5t65.5 54t80.5 41q-98 29 -152.5 86.5t-54.5 155.5v24q0 142 117 210t365 68q96 0 182 -6.5t152 -18.5q20 -4 19 -24l-18 -255q-1 -20 -21 -19q-64 5 -132 7t-137 2q-61 0 -95 -4.5
t-50.5 -13t-20.5 -19t-4 -22.5q0 -14 2 -25.5t15.5 -19.5t42 -12.5t81.5 -4.5h148q20 0 20 -20v-211q0 -20 -20 -20h-123q-59 0 -92 -3t-49.5 -10t-20.5 -19t-4 -30q0 -20 6.5 -33t24 -20.5t47.5 -10.5t77 -3h70t77 0.5t76 2t67 3.5q11 1 15.5 -3t5.5 -15l18 -253
q1 -20 -19 -24q-66 -13 -152 -19.5t-180 -6.5zM442 1219q-22 0 -15 19l79 345q5 19 25 19h304q20 0 11 -18l-173 -347q-5 -11 -11.5 -14.5t-17.5 -3.5h-202z" />
    <glyph glyph-name="etatonos" unicode="&#x3ae;" horiz-adv-x="1255" 
d="M140 0q-20 0 -20 20v1050q0 20 20 20h230q11 0 17.5 -3.5t12.5 -13.5l31 -57q60 38 142 61t182 23q94 0 166.5 -25t121.5 -80.5t74 -145t25 -218.5v-1064q0 -20 -20 -20h-292q-20 0 -20 20v996q0 55 -6.5 96t-26.5 68t-57 40t-98 13q-20 0 -42.5 -2t-45 -5.5t-43.5 -8.5
t-39 -11v-733q0 -20 -20 -20h-292zM533 1219q-22 0 -15 19l79 345q5 19 25 19h304q20 0 11 -18l-173 -347q-5 -11 -11.5 -14.5t-17.5 -3.5h-202z" />
    <glyph glyph-name="iotatonos" unicode="&#x3af;" horiz-adv-x="627" 
d="M454 -31q-111 0 -177.5 22.5t-102 68.5t-47 117t-11.5 169v705q0 20 20 20h292q20 0 20 -20v-705q0 -28 1.5 -46.5t6 -29.5t13.5 -15.5t24 -4.5h21t22 1q20 1 23 -19l33 -231q3 -19 -17 -23q-28 -5 -61.5 -7t-59.5 -2zM185 1219q-22 0 -15 19l79 345q5 19 25 19h304
q20 0 11 -18l-173 -347q-5 -11 -11.5 -14.5t-17.5 -3.5h-202z" />
    <glyph glyph-name="upsilondieresistonos" unicode="&#x3b0;" horiz-adv-x="1212" 
d="M624 -31q-140 0 -238.5 31t-161 96.5t-91 167.5t-28.5 244v543q0 20 20 20h290q20 0 20 -20v-533q0 -76 9 -127.5t30.5 -82.5t58 -44.5t91.5 -13.5q54 0 90 13t57.5 43t30 80t8.5 124v25q0 72 -1.5 118t-7.5 75.5t-18 45.5t-33 28q-11 6 -14 12.5t-1 17.5l35 251
q3 20 23 16q77 -11 131.5 -38t92 -65.5t59.5 -87t34 -102.5t15.5 -111.5t3.5 -114.5v-67q0 -144 -27.5 -247t-88.5 -169t-157 -97t-232 -31zM233 1219q-20 0 -20 20v216q0 20 20 23l282 35q20 3 20 -17v-257q0 -20 -20 -20h-282zM690 1219q-20 0 -20 20v216q0 20 20 23
l281 35q20 3 20 -17v-257q0 -20 -20 -20h-281zM505 1557q-20 0 -14 19l83 280q4 11 9.5 15t16.5 4h304q20 0 9 -17l-175 -284q-6 -10 -13 -13.5t-18 -3.5h-202z" />
    <glyph glyph-name="alpha" unicode="&#x3b1;" horiz-adv-x="1270" 
d="M1207 -22q-28 -5 -62 -7t-60 -2q-82 0 -137.5 16.5t-91.5 48.5q-32 -14 -69.5 -26t-76 -20.5t-74.5 -13.5t-65 -5q-133 0 -225.5 25t-150 82t-83.5 149t-26 227v162q0 135 27 228t80 150.5t131 83t180 25.5q81 0 155.5 -24t129.5 -62l31 58q5 11 11.5 14.5t17.5 3.5h231
q20 0 20 -20v-725q0 -28 1.5 -46.5t6.5 -29.5t13.5 -15.5t23.5 -4.5h23q11 1 16 -3t7 -15l33 -231q3 -20 -17 -23zM596 810q-61 0 -98 -11.5t-57.5 -39t-27.5 -72.5t-7 -112v-80q0 -69 6 -116t24 -75.5t51.5 -41t87.5 -12.5q24 0 50.5 1.5t52 4.5t49 7.5t42.5 9.5
q-1 17 -1 35.5v37.5v444q-40 11 -79 15.5t-93 4.5z" />
    <glyph glyph-name="beta" unicode="&#x3b2;" horiz-adv-x="1262" 
d="M140 -453q-20 0 -20 20v1504q0 160 30.5 269.5t94.5 176.5t161 96t231 29q138 0 236.5 -34t160.5 -94t91 -141.5t29 -175.5v-30q0 -51 -9 -103.5t-35 -97.5t-72 -79.5t-119 -49.5q75 -17 125.5 -53t81.5 -85t44 -108t13 -123v-29q0 -129 -27.5 -218.5t-87.5 -145.5
t-156 -81t-233 -25q-23 0 -51.5 1t-59.5 3t-61 4.5t-55 6.5v-417q0 -20 -20 -20h-292zM637 1329q-59 0 -95.5 -15t-56.5 -46.5t-26.5 -80.5t-6.5 -116v-801q18 -2 36.5 -4t40 -3t47.5 -1.5t58 -0.5q42 0 77 9t60.5 30t40 55t14.5 84v47q0 41 -6 76.5t-22.5 61.5t-44.5 40.5
t-72 14.5h-17q-16 0 -16 16v291q0 11 12 11h13q40 0 66 11t41 31t20.5 46.5t5.5 58.5v20q0 46 -11 77.5t-32.5 51t-53 28t-72.5 8.5z" />
    <glyph glyph-name="gamma" unicode="&#x3b3;" horiz-adv-x="1169" 
d="M475 -453q-20 0 -20 20v433l-279 744q-12 32 -33.5 45.5t-54.5 13.5h-10t-10 -1q-18 -3 -21 16l-35 251q-3 20 17 23q19 3 46.5 5.5t61.5 2.5q83 0 139.5 -14t95.5 -46t65 -83.5t49 -126.5l132 -440l176 662q5 19 25 19h337q20 0 13 -19l-382 -1052v-433q0 -20 -20 -20
h-292z" />
    <glyph glyph-name="delta" unicode="&#x3b4;" horiz-adv-x="1159" 
d="M580 -33q-138 0 -234 33.5t-156.5 102.5t-87.5 175t-27 252v54q0 174 79 284.5t218 163.5q-54 29 -88.5 54.5t-54.5 58.5t-28 78t-8 114t10.5 118.5t38.5 83t77.5 53t128 30t189 14t261.5 3.5q20 0 20 -20v-226q0 -20 -20 -20q-93 0 -158.5 -0.5t-108.5 -2.5t-67.5 -5.5
t-36.5 -9t-15 -13.5t-3 -19q0 -15 6 -27.5t28 -27.5t65 -36t116 -52q86 -38 151.5 -89t110 -121t67.5 -161.5t23 -208.5v-70q0 -146 -26 -252t-85 -175t-153.5 -102.5t-231.5 -33.5zM757 580q0 61 -8.5 108t-25.5 83.5t-42 65.5t-57 53q-65 -18 -109 -51t-71 -75.5
t-38.5 -92t-11.5 -99.5v-30q0 -80 8 -136t28.5 -90.5t56 -50t89.5 -15.5q50 0 84.5 15t56 49.5t31 90.5t9.5 139v36z" />
    <glyph glyph-name="epsilon" unicode="&#x3b5;" horiz-adv-x="995" 
d="M570 -30q-125 0 -217.5 14t-153 49.5t-90 95t-29.5 151.5v15q0 54 16.5 94.5t44.5 71.5t65.5 54t80.5 41q-98 29 -152.5 86.5t-54.5 155.5v24q0 142 117 210t365 68q96 0 182 -6.5t152 -18.5q20 -4 19 -24l-18 -255q-1 -20 -21 -19q-64 5 -132 7t-137 2q-61 0 -95 -4.5
t-50.5 -13t-20.5 -19t-4 -22.5q0 -14 2 -25.5t15.5 -19.5t42 -12.5t81.5 -4.5h148q20 0 20 -20v-211q0 -20 -20 -20h-123q-59 0 -92 -3t-49.5 -10t-20.5 -19t-4 -30q0 -20 6.5 -33t24 -20.5t47.5 -10.5t77 -3h70t77 0.5t76 2t67 3.5q11 1 15.5 -3t5.5 -15l18 -253
q1 -20 -19 -24q-66 -13 -152 -19.5t-180 -6.5z" />
    <glyph glyph-name="zeta" unicode="&#x3b6;" horiz-adv-x="924" 
d="M72 1308q-20 0 -20 20v254q0 20 20 20h773q20 0 20 -20v-254q0 -11 -3.5 -18t-12.5 -15q-65 -53 -124 -116.5t-109 -131.5t-91 -137t-69.5 -133.5t-44 -122t-15.5 -101.5v-12q0 -44 9 -75t29.5 -54.5t52.5 -42t77 -38.5q80 -35 137.5 -63t97 -53.5t63 -51.5t36 -57.5
t16.5 -71t4 -91.5q0 -99 -33.5 -165.5t-93 -109.5t-141 -67t-177.5 -39q-20 -3 -23 17l-35 247q-3 20 17 24q53 12 86 22.5t51.5 21.5t25 23t6.5 28q0 14 -4 24t-17.5 19t-39 19.5t-68.5 24.5q-94 32 -161 63t-112.5 64t-72.5 70t-41.5 80.5t-18.5 95.5t-4 115v17
q0 69 25 162.5t76 197t128 210t181 201.5h-400z" />
    <glyph glyph-name="eta" unicode="&#x3b7;" horiz-adv-x="1256" 
d="M140 0q-20 0 -20 20v1050q0 20 20 20h230q11 0 17.5 -3.5t12.5 -13.5l31 -57q60 38 142 61t182 23q94 0 166.5 -25t121.5 -80.5t74 -145t25 -218.5v-1064q0 -20 -20 -20h-292q-20 0 -20 20v996q0 55 -6.5 96t-26.5 68t-57 40t-98 13q-20 0 -42.5 -2t-45 -5.5t-43.5 -8.5
t-39 -11v-733q0 -20 -20 -20h-292z" />
    <glyph glyph-name="theta" unicode="&#x3b8;" horiz-adv-x="1255" 
d="M627 -31q-145 0 -246 35.5t-164 117t-91.5 215t-28.5 328.5v279q0 196 28.5 329.5t91.5 215.5t164 117.5t246 35.5t246.5 -35.5t164.5 -117.5t91.5 -215.5t28.5 -329.5v-279q0 -195 -28.5 -328.5t-91.5 -215t-164.5 -117t-246.5 -35.5zM422 661q0 -123 9.5 -202.5
t32.5 -125.5t62.5 -63.5t100.5 -17.5t100.5 17.5t62.5 63.5t32.5 125.5t10.5 202.5h-411zM833 968q-1 117 -11 193t-33.5 120t-62.5 61t-98 17q-60 0 -99 -17t-62.5 -61t-33.5 -120t-11 -193h411z" />
    <glyph glyph-name="iota" unicode="&#x3b9;" horiz-adv-x="626" 
d="M453 -31q-111 0 -177.5 22.5t-102 68.5t-47 117t-11.5 169v705q0 20 20 20h292q20 0 20 -20v-705q0 -28 1.5 -46.5t6 -29.5t13.5 -15.5t24 -4.5h21t22 1q20 1 23 -19l33 -231q3 -19 -17 -23q-28 -5 -61.5 -7t-59.5 -2z" />
    <glyph glyph-name="kappa" unicode="&#x3ba;" horiz-adv-x="1211" 
d="M791 0q-11 0 -18 3.5t-13 13.5l-225 342l-82 -86v-253q0 -20 -20 -20h-292q-20 0 -20 20v1031q0 20 20 20h292q20 0 20 -20v-373l300 377q12 16 32 16h408q9 0 11 -4t-5 -10l-432 -454l444 -587q13 -16 -8 -16h-412z" />
    <glyph glyph-name="lambda" unicode="&#x3bb;" horiz-adv-x="1166" 
d="M5 0q-20 0 -12 18l470 1082l-2 11q-18 70 -41 117t-55 75t-75 39.5t-101 11.5q-34 0 -67 -2.5t-59 -7.5q-20 -3 -23 16l-29 223q-2 11 1.5 16.5t14.5 9.5q23 7 51 13.5t58 10.5t60.5 6.5t59.5 2.5q101 0 176.5 -17.5t134 -67.5t103.5 -139.5t86 -233.5l251 -893
q8 -25 21 -33t42 -8h14t14 1q20 0 23 -19l32 -231q3 -19 -17 -23q-29 -5 -63 -7t-66 -2q-83 0 -138 12.5t-91 39.5t-57 69.5t-36 102.5l-105 431q-5 -20 -11.5 -43t-14.5 -49l-185 -513q-7 -19 -27 -19h-337z" />
    <glyph glyph-name="uni03BC" unicode="&#x3bc;" horiz-adv-x="1283" 
d="M141 -389q-20 0 -20 20v1420q0 20 20 20h292q20 0 20 -20v-514q0 -79 13 -129.5t39 -79t66.5 -39t94.5 -10.5h39t42.5 1.5t41.5 3.5t37 7v760q0 20 20 20h291q20 0 20 -20v-994q0 -21 -19 -26q-44 -12 -102.5 -23t-123 -20t-130.5 -14t-126 -5q-31 0 -61.5 3t-57.5 8
t-49 11t-35 13v-373q0 -20 -20 -20h-292z" />
    <glyph glyph-name="nu" unicode="&#x3bd;" horiz-adv-x="1137" 
d="M354 0q-11 0 -16.5 4t-9.5 15l-320 1033q-6 19 14 19h329q20 0 25 -19l191 -773l194 773q5 19 25 19h329q20 0 14 -19l-322 -1033q-4 -11 -9.5 -15t-16.5 -4h-427z" />
    <glyph glyph-name="xi" unicode="&#x3be;" horiz-adv-x="959" 
d="M830 673q0 -20 -20 -20h-168q-71 0 -117 -8t-73 -26t-37.5 -46.5t-10.5 -68.5v-13q0 -29 9.5 -50t29.5 -39t52 -34.5t76 -35.5q80 -36 137.5 -64t97 -53.5t63 -51.5t36 -57t16.5 -70.5t4 -91.5q0 -99 -33.5 -165.5t-93 -109.5t-141 -67t-177.5 -39q-20 -3 -23 17l-35 247
q-3 20 17 24q53 12 86 22.5t51.5 21.5t25 23t6.5 28q0 13 -4 23t-17.5 19.5t-39 20t-68.5 24.5q-135 45 -215.5 89t-123.5 97.5t-56.5 120.5t-13.5 158v21q0 130 54 213.5t170 126.5q-104 38 -159.5 115t-55.5 195v30q0 112 23.5 195t82 138t157 82.5t249.5 27.5
q72 0 140.5 -7t130.5 -18q20 -4 17 -24l-35 -245q-2 -11 -7 -15t-16 -3q-48 5 -96.5 6.5t-90.5 1.5q-116 0 -168.5 -36t-52.5 -109v-43q0 -54 14.5 -92.5t57 -63.5t120.5 -37t205 -13q20 0 20 -20v-251z" />
    <glyph glyph-name="omicron" unicode="&#x3bf;" horiz-adv-x="1188" 
d="M593 817q-58 0 -94 -11t-56 -38.5t-27 -73.5t-7 -116v-86q0 -69 7.5 -115.5t28 -74t56.5 -39t92 -11.5q57 0 93 11.5t56.5 39.5t28.5 74.5t8 116.5v84q0 70 -7 116t-27.5 73.5t-57 38.5t-94.5 11zM593 -31q-138 0 -235 29.5t-158 92t-89 159.5t-28 231v105q0 134 28 231
t89 160t158 93t235 30q139 0 236.5 -30t158.5 -93t89 -160t28 -231v-105q0 -134 -28 -231t-89 -159.5t-158.5 -92t-236.5 -29.5z" />
    <glyph glyph-name="pi" unicode="&#x3c0;" horiz-adv-x="1434" 
d="M65 776q-20 0 -20 20v255q0 20 20 20h1301q20 0 17 -20l-36 -255q-3 -20 -23 -20h-159v-430q0 -28 1.5 -46.5t7.5 -29.5t17.5 -15.5t31.5 -4.5h28.5t28.5 1q20 1 23 -19l34 -231q3 -19 -17 -23q-30 -5 -68.5 -7t-66.5 -2q-114 0 -183.5 22.5t-107 68.5t-49.5 117t-12 169
v430h-279v-756q0 -20 -20 -20h-292q-20 0 -20 20v756h-157z" />
    <glyph glyph-name="rho" unicode="&#x3c1;" horiz-adv-x="1219" 
d="M622 815q-52 0 -87 -9.5t-56.5 -36t-30.5 -72t-9 -117.5v-313q16 -4 38 -6.5t46.5 -4t50 -2t48.5 -0.5q58 0 94.5 12.5t57 41.5t28 77.5t7.5 119.5v56q0 75 -7.5 124t-28.5 78t-57.5 40.5t-93.5 11.5zM127 -453q-20 0 -20 20v1017q0 144 30 242.5t93.5 159t161.5 87.5
t234 27q138 0 235 -29.5t158 -92.5t88.5 -160.5t27.5 -233.5v-97q0 -147 -25.5 -246t-85 -159.5t-157.5 -86.5t-242 -26q-51 0 -98 5.5t-88 14.5v-422q0 -20 -20 -20h-292z" />
    <glyph glyph-name="sigma1" unicode="&#x3c2;" horiz-adv-x="961" 
d="M929 -56q0 -99 -33.5 -165.5t-93 -109.5t-141 -67t-177.5 -39q-20 -3 -23 17l-35 247q-3 20 17 24q53 12 86 22.5t51.5 21.5t25 23t6.5 28q0 13 -4 23t-17.5 19.5t-39 20t-68.5 24.5q-141 47 -223 93t-123.5 102.5t-52.5 130.5t-11 177v60q0 138 23.5 234t83 156t160 87
t253.5 27q75 0 146.5 -7.5t122.5 -17.5q11 -2 15 -7.5t3 -16.5l-32 -253q-2 -11 -7 -15t-16 -3q-50 5 -108.5 8.5t-112.5 3.5q-66 0 -105.5 -13.5t-59.5 -41.5t-26 -72t-6 -104v-17q0 -45 9.5 -76.5t29.5 -55t52 -42.5t77 -38q80 -36 137.5 -64t97 -53.5t63 -51.5t36 -57
t16.5 -70.5t4 -91.5z" />
    <glyph glyph-name="sigma" unicode="&#x3c3;" horiz-adv-x="1250" 
d="M603 -30q-142 0 -241.5 30t-161.5 93.5t-90.5 162t-28.5 236.5v85q0 134 28.5 231t90.5 159.5t161.5 92.5t241.5 30h579q20 0 20 -20v-237q0 -20 -20 -20h-158l16 -19q33 -41 47.5 -93.5t14.5 -123.5v-85q0 -138 -27 -236.5t-87 -162t-155 -93.5t-230 -30zM603 811
q-56 0 -93 -12t-59 -40.5t-31 -75.5t-9 -116v-65q0 -74 8.5 -122.5t30 -77t59 -40.5t94.5 -12t94.5 12.5t60 42t32 78t9.5 121.5v63q0 69 -9 116t-31.5 75.5t-60 40.5t-95.5 12z" />
    <glyph glyph-name="tau" unicode="&#x3c4;" horiz-adv-x="1062" 
d="M53 776q-20 0 -20 20v255q0 20 20 20h971q20 0 17 -20l-35 -255q-3 -20 -23 -20h-311v-430q0 -28 1.5 -46.5t7.5 -29.5t17.5 -15.5t31.5 -4.5h27.5t29.5 1q20 1 23 -19l33 -231q3 -19 -17 -23q-30 -5 -68 -7t-67 -2q-114 0 -183 22.5t-106.5 68.5t-49.5 117t-12 169v430
h-287z" />
    <glyph glyph-name="upsilon" unicode="&#x3c5;" horiz-adv-x="1212" 
d="M624 -31q-140 0 -238.5 31t-161 96.5t-91 167.5t-28.5 244v543q0 20 20 20h290q20 0 20 -20v-533q0 -76 9 -127.5t30.5 -82.5t58 -44.5t91.5 -13.5q54 0 90 13t57.5 43t30 80t8.5 124v25q0 72 -1.5 118t-7.5 75.5t-18 45.5t-33 28q-11 6 -14 12.5t-1 17.5l35 251
q3 20 23 16q77 -11 131.5 -38t92 -65.5t59.5 -87t34 -102.5t15.5 -111.5t3.5 -114.5v-67q0 -144 -27.5 -247t-88.5 -169t-157 -97t-232 -31z" />
    <glyph glyph-name="phi" unicode="&#x3c6;" horiz-adv-x="1629" 
d="M668 -453q-20 0 -20 20v402q-156 0 -265 30t-176.5 92.5t-98 159t-30.5 230.5v105q0 133 30.5 230t98 160t176.5 93t265 31v482q0 21 20 22l292 36q20 1 20 -18v-522q157 -1 266 -31t176.5 -93t97.5 -160t30 -230v-105q0 -134 -30 -230.5t-97.5 -159t-176.5 -92.5
t-266 -30v-402q0 -20 -20 -20h-292zM1224 578q0 69 -9.5 115t-36.5 73.5t-74.5 39t-123.5 11.5v-565q74 0 121.5 12t74.5 39.5t37.5 74t10.5 116.5v84zM404 492q0 -69 10.5 -115t37.5 -73.5t74.5 -39.5t121.5 -12v565q-76 0 -123.5 -11.5t-74.5 -39t-36.5 -73.5t-9.5 -115
v-86z" />
    <glyph glyph-name="chi" unicode="&#x3c7;" horiz-adv-x="1129" 
d="M751 -453q-21 0 -26 19l-157 466l-159 -466q-5 -19 -26 -19h-357q-20 0 -11 18l362 764l-362 724q-9 18 11 18h357q20 0 27 -19l157 -429l157 429q7 19 27 19h357q20 0 11 -18l-362 -724l362 -764q9 -18 -11 -18h-357z" />
    <glyph glyph-name="psi" unicode="&#x3c8;" horiz-adv-x="1575" 
d="M642 -453q-20 0 -20 20v409q-143 13 -241.5 50.5t-159.5 103t-88 159.5t-27 219v543q0 20 20 20h289q20 0 20 -20v-533q0 -59 9 -103t30.5 -75t57.5 -50t90 -29v1321q0 21 20 22l292 36q20 1 20 -18v-1361q54 10 90 29t57.5 50t30.5 75.5t9 104.5v531q0 20 20 20h289
q20 0 20 -20v-543q0 -125 -27 -219t-88.5 -159.5t-160 -103t-240.5 -50.5v-409q0 -20 -20 -20h-292z" />
    <glyph glyph-name="omega" unicode="&#x3c9;" horiz-adv-x="1592" 
d="M523 -31q-118 0 -201 30t-136 93.5t-77.5 161.5t-24.5 234v67q0 88 9.5 177.5t44 165t101.5 129t182 70.5q20 4 23 -16l35 -250q2 -12 -1 -18.5t-13 -13.5q-21 -13 -33 -31t-18.5 -47t-8 -71.5t-1.5 -104.5v-47q0 -67 5 -112.5t18.5 -73.5t36.5 -40t59 -12q38 0 62.5 13
t38.5 43t19 79.5t5 122.5v177q0 20 20 20h257q20 0 20 -20v-177q0 -73 5 -122.5t18.5 -79.5t38 -43t62.5 -13q36 0 59 12t36.5 40t18.5 73.5t5 112.5v47q0 62 -1.5 104.5t-8 71.5t-18.5 47t-33 31q-10 7 -13 13.5t-1 18.5l35 250q3 20 23 16q115 -17 182 -70.5t101.5 -129
t44 -165t9.5 -177.5v-67q0 -136 -24.5 -234t-77.5 -161.5t-136 -93.5t-201 -30q-89 0 -154.5 44t-115.5 124q-51 -80 -118 -124t-158 -44z" />
    <glyph glyph-name="iotadieresis" unicode="&#x3ca;" horiz-adv-x="627" 
d="M454 -31q-111 0 -177.5 22.5t-102 68.5t-47 117t-11.5 169v705q0 20 20 20h292q20 0 20 -20v-705q0 -28 1.5 -46.5t6 -29.5t13.5 -15.5t24 -4.5h21t22 1q20 1 23 -19l33 -231q3 -19 -17 -23q-28 -5 -61.5 -7t-59.5 -2zM-87 1219q-20 0 -20 20v287q0 20 20 23l282 35
q20 3 20 -17v-328q0 -20 -20 -20h-282zM370 1219q-20 0 -20 20v287q0 20 20 23l281 35q20 3 20 -17v-328q0 -20 -20 -20h-281z" />
    <glyph glyph-name="upsilondieresis" unicode="&#x3cb;" horiz-adv-x="1212" 
d="M624 -31q-140 0 -238.5 31t-161 96.5t-91 167.5t-28.5 244v543q0 20 20 20h290q20 0 20 -20v-533q0 -76 9 -127.5t30.5 -82.5t58 -44.5t91.5 -13.5q54 0 90 13t57.5 43t30 80t8.5 124v25q0 72 -1.5 118t-7.5 75.5t-18 45.5t-33 28q-11 6 -14 12.5t-1 17.5l35 251
q3 20 23 16q77 -11 131.5 -38t92 -65.5t59.5 -87t34 -102.5t15.5 -111.5t3.5 -114.5v-67q0 -144 -27.5 -247t-88.5 -169t-157 -97t-232 -31zM243 1219q-20 0 -20 20v287q0 20 20 23l282 35q20 3 20 -17v-328q0 -20 -20 -20h-282zM700 1219q-20 0 -20 20v287q0 20 20 23
l281 35q20 3 20 -17v-328q0 -20 -20 -20h-281z" />
    <glyph glyph-name="omicrontonos" unicode="&#x3cc;" horiz-adv-x="1188" 
d="M593 817q-58 0 -94 -11t-56 -38.5t-27 -73.5t-7 -116v-86q0 -69 7.5 -115.5t28 -74t56.5 -39t92 -11.5q57 0 93 11.5t56.5 39.5t28.5 74.5t8 116.5v84q0 70 -7 116t-27.5 73.5t-57 38.5t-94.5 11zM593 -31q-138 0 -235 29.5t-158 92t-89 159.5t-28 231v105q0 134 28 231
t89 160t158 93t235 30q139 0 236.5 -30t158.5 -93t89 -160t28 -231v-105q0 -134 -28 -231t-89 -159.5t-158.5 -92t-236.5 -29.5zM485 1219q-22 0 -15 19l79 345q5 19 25 19h304q20 0 11 -18l-173 -347q-5 -11 -11.5 -14.5t-17.5 -3.5h-202z" />
    <glyph glyph-name="upsilontonos" unicode="&#x3cd;" horiz-adv-x="1212" 
d="M624 -31q-140 0 -238.5 31t-161 96.5t-91 167.5t-28.5 244v543q0 20 20 20h290q20 0 20 -20v-533q0 -76 9 -127.5t30.5 -82.5t58 -44.5t91.5 -13.5q54 0 90 13t57.5 43t30 80t8.5 124v25q0 72 -1.5 118t-7.5 75.5t-18 45.5t-33 28q-11 6 -14 12.5t-1 17.5l35 251
q3 20 23 16q77 -11 131.5 -38t92 -65.5t59.5 -87t34 -102.5t15.5 -111.5t3.5 -114.5v-67q0 -144 -27.5 -247t-88.5 -169t-157 -97t-232 -31zM477 1219q-22 0 -15 19l79 345q5 19 25 19h304q20 0 11 -18l-173 -347q-5 -11 -11.5 -14.5t-17.5 -3.5h-202z" />
    <glyph glyph-name="omegatonos" unicode="&#x3ce;" horiz-adv-x="1592" 
d="M523 -31q-118 0 -201 30t-136 93.5t-77.5 161.5t-24.5 234v67q0 88 9.5 177.5t44 165t101.5 129t182 70.5q20 4 23 -16l35 -250q2 -12 -1 -18.5t-13 -13.5q-21 -13 -33 -31t-18.5 -47t-8 -71.5t-1.5 -104.5v-47q0 -67 5 -112.5t18.5 -73.5t36.5 -40t59 -12q38 0 62.5 13
t38.5 43t19 79.5t5 122.5v177q0 20 20 20h257q20 0 20 -20v-177q0 -73 5 -122.5t18.5 -79.5t38 -43t62.5 -13q36 0 59 12t36.5 40t18.5 73.5t5 112.5v47q0 62 -1.5 104.5t-8 71.5t-18.5 47t-33 31q-10 7 -13 13.5t-1 18.5l35 250q3 20 23 16q115 -17 182 -70.5t101.5 -129
t44 -165t9.5 -177.5v-67q0 -136 -24.5 -234t-77.5 -161.5t-136 -93.5t-201 -30q-89 0 -154.5 44t-115.5 124q-51 -80 -118 -124t-158 -44zM668 1219q-22 0 -15 19l79 345q5 19 25 19h304q20 0 11 -18l-173 -347q-5 -11 -11.5 -14.5t-17.5 -3.5h-202z" />
    <glyph glyph-name="afii10023" unicode="&#x401;" horiz-adv-x="1216" 
d="M168 0q-20 0 -20 20v1435q0 20 20 20h933q20 0 20 -20v-288q0 -20 -20 -20h-602v-242h457q20 0 20 -20v-287q0 -20 -20 -20h-457v-250h602q20 0 20 -20v-288q0 -20 -20 -20h-933zM267 1597q-20 0 -20 20v216q0 20 20 23l282 35q20 3 20 -17v-257q0 -20 -20 -20h-282z
M724 1597q-20 0 -20 20v216q0 20 20 23l281 35q20 3 20 -17v-257q0 -20 -20 -20h-281z" />
    <glyph glyph-name="afii10051" unicode="&#x402;" horiz-adv-x="1561" 
d="M454 0q-20 0 -20 20v1127h-383q-20 0 -20 20v288q0 20 20 20h1117q20 0 20 -20v-288q0 -20 -20 -20h-384v-213q60 29 142.5 48.5t179.5 19.5q96 0 168.5 -27t121 -86.5t73 -153.5t24.5 -227v-115q0 -113 -18 -193.5t-62 -131.5t-120 -75t-191 -24q-33 0 -71.5 3t-71.5 11
q-19 4 -16 24l33 233q3 19 23 16q14 -2 27 -3t27 -1q30 0 47.5 6.5t26.5 22.5t12 43.5t3 68.5v72q0 55 -7.5 96t-27 68t-54.5 40t-89 13q-21 0 -44.5 -2t-47.5 -5.5t-47 -8.5t-41 -12v-634q0 -20 -20 -20h-310z" />
    <glyph glyph-name="afii10052" unicode="&#x403;" horiz-adv-x="1111" 
d="M168 0q-20 0 -20 20v1435q0 20 20 20h896q20 0 20 -20v-288q0 -20 -20 -20h-566v-1127q0 -20 -20 -20h-310zM433 1597q-20 0 -7 15l191 216q8 8 15 11.5t18 3.5h335q20 0 5 -13l-257 -220q-8 -8 -16 -10.5t-19 -2.5h-265z" />
    <glyph glyph-name="afii10053" unicode="&#x404;" horiz-adv-x="1181" 
d="M450.045 905q6.99902 73 28.998 123.5q21.998 50.5 58.4961 81t86.9951 44t114.493 13.5q71.9951 0 146.49 -5.5q74.4961 -5.5 155.491 -24.5q19.998 -4 20.998 18l44.998 272q0.999023 11 -3.5 14.5q-4.5 3.5 -15.499 8.5q-60.9961 26 -155.99 40.5
q-94.9951 14.5 -207.988 14.5q-148.99 0 -265.983 -34t-197.987 -114.5q-80.9951 -80.5 -123.493 -213q-42.4971 -132.5 -42.4971 -328.5v-153q0 -198 42.4971 -331q42.498 -133 123.493 -213.5q80.9941 -80.5 197.987 -114.5t265.983 -34q57.9971 0 113.993 4
q55.9971 4 104.994 9.5t87.9941 12q38.998 6.5 62.9961 11.5q11 2 15.499 7q4.5 5 3.5 16l-37.9971 280q-1 21 -20.999 18q-33.998 -5 -73.4961 -8.5q-39.4971 -3.5 -80.4941 -6q-40.998 -2.5 -81.9951 -4q-40.998 -1.5 -78.9951 -1.5q-65.9961 0 -116.993 13.5t-86.9951 45
q-35.9971 31.5 -57.4961 83.5t-28.498 128h500.969q19.999 0 19.999 20v288q0 20 -19.999 20h-499.969v0z" />
    <glyph glyph-name="afii10054" unicode="&#x405;" horiz-adv-x="1231" 
d="M547 -31q-127 0 -237 13t-191 35q-19 5 -16 25l46 270q3 20 23 17q55 -9 100 -15t86 -9.5t82 -5.5t88 -2q91 0 145.5 5t83.5 18t38.5 34.5t9.5 53.5q0 21 -9 37t-34.5 34.5t-71 42t-117.5 58.5l-172 82q-103 49 -167 100.5t-100 105t-49 108t-13 109.5q0 118 36.5 198.5
t112.5 130t193 70.5t278 21q106 0 203 -10t178 -35q19 -5 16 -25l-47 -260q-4 -20 -24 -17q-39 5 -80 9t-79 6.5t-71 3.5t-55 1q-79 0 -135.5 -2.5t-93 -11.5t-53.5 -26t-17 -46q0 -23 8.5 -41t33 -36.5t68 -40t113.5 -52.5l197 -88q93 -42 154 -84.5t96.5 -92t50 -109
t14.5 -134.5q0 -109 -27.5 -192t-98 -139.5t-190.5 -85t-306 -28.5z" />
    <glyph glyph-name="afii10055" unicode="&#x406;" horiz-adv-x="647" 
d="M168 0q-20 0 -20 20v1435q0 20 20 20h311q20 0 20 -20v-1435q0 -20 -20 -20h-311z" />
    <glyph glyph-name="afii10056" unicode="&#x407;" horiz-adv-x="646" 
d="M168 0q-20 0 -20 20v1435q0 20 20 20h311q20 0 20 -20v-1435q0 -20 -20 -20h-311zM-44 1597q-20 0 -20 20v216q0 20 20 23l282 35q20 3 20 -17v-257q0 -20 -20 -20h-282zM413 1597q-20 0 -20 20v216q0 20 20 23l281 35q20 3 20 -17v-257q0 -20 -20 -20h-281z" />
    <glyph glyph-name="afii10057" unicode="&#x408;" horiz-adv-x="646" 
d="M78 -410q-22 0 -45.5 1t-47.5 3.5t-46.5 5.5t-41.5 7q-20 4 -17 23l39 274q2 11 7 15t16 3q26 -3 45 -3.5t36 -0.5q31 0 54.5 5.5t39 18.5t23 35t7.5 56v1422q0 20 20 20h311q20 0 20 -20v-1455q0 -81 -18 -155.5t-64.5 -131t-128.5 -90t-209 -33.5z" />
    <glyph glyph-name="afii10058" unicode="&#x409;" horiz-adv-x="2019" 
d="M1230 -18q-32 0 -75.5 1t-92 3t-100.5 4.5t-101 6.5q-20 1 -20 21v1106h-264q0 -209 -7.5 -368.5t-27 -278t-53 -201t-85.5 -139t-125.5 -91t-171.5 -56.5q-20 -4 -24 15l-57 303q-4 20 15 25q43 12 74 32.5t52.5 56t34 91t19 139t8.5 199t2 271.5v333q0 20 20 20h920
q20 0 20 -20v-517h29q198 0 340.5 -15t233.5 -63.5t134 -140t43 -244.5v-31q0 -101 -18.5 -174.5t-57.5 -125t-98.5 -83.5t-142 -49.5t-188 -23.5t-236.5 -6zM1619 479q0 49 -15.5 78t-53 44.5t-100.5 20.5t-158 5q-5 0 -16.5 -0.5t-26 -1.5t-30 -1.5t-28.5 -1.5v-325
q11 -1 25.5 -1.5l29 -1t27 -1t19.5 -0.5q95 0 158 5t100.5 20.5t53 44.5t15.5 77v39z" />
    <glyph glyph-name="afii10059" unicode="&#x40a;" horiz-adv-x="2205" 
d="M168 0q-20 0 -20 20v1435q0 20 20 20h311q20 0 20 -20v-550h528v550q0 20 20 20h310q5 0 8 -1h2q1 -1 2 -1t1 -0.5t1 -0.5l3 -3q0 -1 0.5 -1t0.5 -1v-1l1 -1v-2q0 -1 0.5 -1.5t0.5 -1.5v-5v-517h29q198 0 340.5 -15t233.5 -63.5t134 -140t43 -244.5v-31
q0 -101 -18.5 -174.5t-57.5 -125t-98.5 -83.5t-142 -49.5t-188 -23.5t-236.5 -6q-32 0 -75.5 1t-92 3t-100.5 4.5t-101 6.5q-20 1 -20 21v2v557h-528v-557q0 -20 -20 -20h-311zM1805 479q0 49 -15.5 78t-53 44.5t-100.5 20.5t-158 5q-5 0 -16.5 -0.5t-26 -1.5t-30 -1.5
t-28.5 -1.5v-325q11 -1 25.5 -1.5l29 -1t27 -1t19.5 -0.5q95 0 158 5t100.5 20.5t53 44.5t15.5 77v39z" />
    <glyph glyph-name="afii10060" unicode="&#x40b;" horiz-adv-x="1555" 
d="M454 0q-20 0 -20 20v1127h-383q-20 0 -20 20v288q0 20 20 20h1117q20 0 20 -20v-288q0 -20 -20 -20h-384v-208q57 28 132 45.5t167 17.5q95 0 168 -25t122.5 -81.5t75 -148t25.5 -224.5v-503q0 -20 -20 -20h-292q-20 0 -20 20v445q0 55 -6.5 96t-26.5 68t-57 40t-98 13
q-45 0 -90.5 -7t-79.5 -20v-635q0 -20 -20 -20h-310z" />
    <glyph glyph-name="afii10061" unicode="&#x40c;" horiz-adv-x="1330" 
d="M168 0q-20 0 -20 20v1435q0 20 20 20h312q20 0 20 -20v-566l426 570q12 16 32 16h376q19 0 8 -16l-553 -693l543 -750q13 -16 -8 -16h-392q-20 0 -31 16l-401 576v-572q0 -20 -20 -20h-312zM557 1597q-20 0 -7 15l191 216q8 8 15 11.5t18 3.5h335q20 0 5 -13l-257 -220
q-8 -8 -16 -10.5t-19 -2.5h-265z" />
    <glyph glyph-name="afii10062" unicode="&#x40e;" horiz-adv-x="1120" 
d="M273 -31q-45 0 -85 6.5t-72 17.5q-11 4 -14.5 9.5t-2.5 16.5l30 227q3 20 23 17q23 -3 48.5 -5t45.5 -2q54 0 96 3.5t73 12.5t52 25t34 42l-482 1118q-8 18 12 18h337q20 0 27 -19l180 -524q14 -42 21 -74.5t10 -53.5l140 651q4 20 24 20h337q20 0 14 -19l-320 -1078
q-34 -115 -73.5 -193.5t-98.5 -126.5t-144.5 -68.5t-211.5 -20.5zM569 1577q-98 0 -159.5 15.5t-96 48t-47.5 83t-14 120.5q0 20 20 20h180q21 0 22 -20q3 -27 11.5 -45t21.5 -28.5t29 -15t33 -4.5t33 4.5t29 15t21.5 28.5t11.5 45q1 20 22 20h181q20 0 20 -20
q-1 -70 -14 -120.5t-48 -83t-96.5 -48t-159.5 -15.5z" />
    <glyph glyph-name="afii10145" unicode="&#x40f;" horiz-adv-x="1481" 
d="M168 0q-20 0 -20 20v1435q0 20 20 20h311q20 0 20 -20v-1127h485v1127q0 20 20 20h310q20 0 20 -20v-1435q0 -20 -20 -20h-398v-240q0 -20 -20 -20h-310q-20 0 -20 20v240h-398z" />
    <glyph glyph-name="afii10017" unicode="&#x410;" horiz-adv-x="1372" 
d="M16 0q-20 0 -14 19l436 1437q4 11 9.5 15t16.5 4h442q11 0 16.5 -4t9.5 -15l438 -1437q6 -19 -14 -19h-345q-20 0 -25 19l-60 221h-483l-59 -221q-5 -19 -25 -19h-343zM684 1135l-158 -588h318z" />
    <glyph glyph-name="afii10018" unicode="&#x411;" horiz-adv-x="1334" 
d="M526 -18q-32 0 -74 1t-89.5 3t-97.5 4.5t-98 6.5q-20 1 -20 21v1437q0 20 20 20h892q20 0 20 -20v-288q0 -20 -20 -20h-561v-207h28q179 0 319 -15.5t236 -64t146.5 -140.5t50.5 -245v-31q0 -101 -22.5 -174.5t-66.5 -125t-108 -83.5t-148 -49.5t-186 -23.5t-221 -6z
M926 481q0 48 -15.5 77.5t-53 45t-100.5 20.5t-159 5h-100v-332q10 -1 24.5 -1.5l29 -1t27 -1t19.5 -0.5q95 0 158.5 5t101 20.5t53 44.5t15.5 77v41z" />
    <glyph glyph-name="afii10019" unicode="&#x412;" horiz-adv-x="1367" 
d="M562 -18q-35 0 -81.5 1t-99 3t-108 4.5t-107.5 6.5q-20 1 -20 21v1437q0 20 20 21q43 3 95.5 5.5t108 5t110.5 3.5t103 1q179 0 301 -18t197 -62t108 -118.5t33 -187.5q0 -91 -34 -159t-94 -113q44 -24 81 -57.5t64 -78t42.5 -99.5t15.5 -121v-35q0 -152 -49 -243
t-142.5 -139t-230.5 -63t-313 -15zM945 451q0 44 -13 71.5t-37 43t-59 21t-79 5.5h-260v-295q13 -1 32.5 -1.5l39 -1t37 -1t28.5 -0.5q89 0 148.5 4.5t95.5 18.5t51.5 41.5t15.5 72.5v21zM658 1180q-42 0 -77.5 -0.5t-83.5 -3.5v-283h237q28 1 53 7.5t43 22t28.5 41.5
t10.5 66v14q0 46 -13.5 73t-40 41t-66 18t-91.5 4z" />
    <glyph glyph-name="afii10020" unicode="&#x413;" horiz-adv-x="1111" 
d="M168 0q-20 0 -20 20v1435q0 20 20 20h896q20 0 20 -20v-288q0 -20 -20 -20h-566v-1127q0 -20 -20 -20h-310z" />
    <glyph glyph-name="afii10021" unicode="&#x414;" horiz-adv-x="1517" 
d="M41 -276q-20 0 -20 20v564q0 20 20 20h86q43 0 74 40t51 132.5t29.5 244.5t9.5 377v333q0 20 20 20h967q20 0 20 -20v-1127h148q20 0 20 -20v-564q0 -20 -20 -20h-310q-20 0 -20 20v256h-745v-256q0 -20 -20 -20h-310zM637 1146q0 -181 -7 -316.5t-24 -233.5t-44.5 -163
t-69.5 -105h456v818h-311z" />
    <glyph glyph-name="afii10022" unicode="&#x415;" horiz-adv-x="1216" 
d="M168 0q-20 0 -20 20v1435q0 20 20 20h933q20 0 20 -20v-288q0 -20 -20 -20h-602v-242h457q20 0 20 -20v-287q0 -20 -20 -20h-457v-250h602q20 0 20 -20v-288q0 -20 -20 -20h-933z" />
    <glyph glyph-name="afii10024" unicode="&#x416;" horiz-adv-x="1994" 
d="M7 0q-21 0 -8 16l543 750l-553 693q-11 16 8 16h376q20 0 32 -16l426 -570v566q0 20 20 20h292q20 0 20 -20v-566l426 570q12 16 32 16h376q19 0 8 -16l-553 -693l543 -750q13 -16 -8 -16h-392q-20 0 -31 16l-401 576v-572q0 -20 -20 -20h-292q-20 0 -20 20v572
l-400 -576q-11 -16 -31 -16h-393z" />
    <glyph glyph-name="afii10025" unicode="&#x417;" horiz-adv-x="1169" 
d="M508 -31q-115 0 -220.5 8t-186.5 20q-20 3 -19 23l18 286q1 11 5.5 15t15.5 3q98 -10 185.5 -10.5t166.5 -0.5q131 0 191.5 27t60.5 96v27q0 25 -9.5 46t-34.5 36t-67.5 23t-109.5 8h-320q-20 0 -20 20v288q0 20 20 20h312q70 0 114.5 9t70 25.5t35 39.5t9.5 52v19
q0 57 -63.5 84.5t-188.5 27.5q-83 0 -160.5 -2t-164.5 -8q-20 -3 -21 18l-19 286q-1 20 19 23q76 11 170.5 19t200.5 8q139 0 248 -21t183 -67t113 -119t39 -176v-28q0 -124 -67 -204.5t-201 -115.5q127 -42 197.5 -126.5t70.5 -205.5v-36q0 -129 -38 -213t-111 -134
t-180 -70t-244 -20z" />
    <glyph glyph-name="afii10026" unicode="&#x418;" horiz-adv-x="1520" 
d="M479 1475q20 0 20 -20v-844q2 0 12.5 27.5t36.5 72.5l436 747q6 10 12.5 13.5t17.5 3.5h338q20 0 20 -20v-1435q0 -20 -20 -20h-310q-20 0 -20 20l-1 843q-1 0 -4 -8t-9 -21t-14 -30t-19 -36l-439 -751q-6 -10 -12.5 -13.5t-17.5 -3.5h-338q-20 0 -20 20v1435q0 20 20 20
h311z" />
    <glyph glyph-name="afii10027" unicode="&#x419;" horiz-adv-x="1524" 
d="M481 1475q20 0 20 -20v-844q2 0 12.5 27.5t36.5 72.5l436 747q6 10 12.5 13.5t17.5 3.5h338q20 0 20 -20v-1435q0 -20 -20 -20h-310q-20 0 -20 20l-1 843q-1 0 -4 -8t-9 -21t-14 -30t-19 -36l-439 -751q-6 -10 -12.5 -13.5t-17.5 -3.5h-338q-20 0 -20 20v1435q0 20 20 20
h311zM736 1577q-98 0 -159.5 15.5t-96 48t-47.5 83t-14 120.5q0 20 20 20h180q21 0 22 -20q3 -27 11.5 -45t21.5 -28.5t29 -15t33 -4.5t33 4.5t29 15t21.5 28.5t11.5 45q1 20 22 20h181q20 0 20 -20q-1 -70 -14 -120.5t-48 -83t-96.5 -48t-159.5 -15.5z" />
    <glyph glyph-name="afii10028" unicode="&#x41a;" horiz-adv-x="1330" 
d="M168 0q-20 0 -20 20v1435q0 20 20 20h312q20 0 20 -20v-566l426 570q12 16 32 16h376q19 0 8 -16l-553 -693l543 -750q13 -16 -8 -16h-392q-20 0 -31 16l-401 576v-572q0 -20 -20 -20h-312z" />
    <glyph glyph-name="afii10029" unicode="&#x41b;" horiz-adv-x="1344" 
d="M582 1147q0 -212 -7.5 -372.5t-27 -279.5t-53.5 -202.5t-86.5 -141.5t-125.5 -95.5t-171 -64.5q-19 -5 -23 15l-57 302q-2 11 1 16.5t14 9.5q43 13 73.5 32.5t51 54.5t32 89t18 137t8 199.5t1.5 275.5v333q0 20 20 20h926q20 0 20 -20v-1435q0 -20 -20 -20h-310
q-20 0 -20 20v1127h-264v0z" />
    <glyph glyph-name="afii10030" unicode="&#x41c;" horiz-adv-x="1733" 
d="M168 0q-20 0 -20 20v1435q0 20 20 20h374q11 0 17.5 -3.5t12.5 -13.5l258 -464q18 -33 27.5 -60t9.5 -28q0 1 9.5 28t27.5 60l256 464q6 10 12.5 13.5t17.5 3.5h376q20 0 20 -20v-1435q0 -20 -20 -20h-312q-20 0 -20 20l1 984q-6 -22 -15.5 -48t-28.5 -65l-192 -390
q-5 -11 -11.5 -14.5t-17.5 -3.5h-206q-11 0 -17.5 3.5t-11.5 14.5l-192 390q-19 38 -28.5 64.5t-15.5 49.5v-985q0 -20 -20 -20h-311z" />
    <glyph glyph-name="afii10031" unicode="&#x41d;" horiz-adv-x="1524" 
d="M168 0q-20 0 -20 20v1435q0 20 20 20h311q20 0 20 -20v-550h528v550q0 20 20 20h310q20 0 20 -20v-1435q0 -20 -20 -20h-310q-20 0 -20 20v557h-528v-557q0 -20 -20 -20h-311z" />
    <glyph glyph-name="afii10032" unicode="&#x41e;" horiz-adv-x="1452" 
d="M725 -31q-150 0 -267.5 34t-198.5 114.5t-123 213.5t-42 331v153q0 196 42 328t123 212.5t198.5 115t267.5 34.5q151 0 269 -34t199 -114.5t123 -213.5t42 -330v-154q0 -197 -42 -329t-123 -212.5t-199 -114.5t-269 -34zM725 1157q-70 0 -122.5 -16.5t-88 -55t-53 -102.5
t-17.5 -158v-174q0 -95 17.5 -159t53 -103t88 -55.5t122.5 -16.5t123 16.5t88.5 55.5t53.5 103t18 159v172q0 94 -18 158t-53.5 103t-88.5 56t-123 17z" />
    <glyph glyph-name="afii10033" unicode="&#x41f;" horiz-adv-x="1524" 
d="M168 0q-20 0 -20 20v1435q0 20 20 20h1189q20 0 20 -20v-1435q0 -20 -20 -20h-310q-20 0 -20 20v1127h-528v-1127q0 -20 -20 -20h-311z" />
    <glyph glyph-name="afii10034" unicode="&#x420;" horiz-adv-x="1370" 
d="M655 1180q-18 0 -38 -0.5t-41 -1t-41 -2t-37 -2.5v-357q17 -2 37 -3t41 -1.5t41 -1t38 -0.5q94 0 153 5t92.5 21.5t45.5 46t12 79.5v65q0 49 -12 79t-45.5 46t-92.5 21.5t-153 5.5zM167 0q-20 0 -20 20v1437q0 20 20 21q60 3 126 5.5t129.5 4t122 2.5t104.5 1
q137 0 239 -9.5t175.5 -30.5t121.5 -54.5t76 -82t39 -113t11 -146.5v-119q0 -83 -11 -147.5t-39 -113t-76 -82t-121.5 -54.5t-175.5 -30t-239 -9h-38h-42t-39.5 0.5t-31.5 1.5v-482q0 -20 -20 -20h-311z" />
    <glyph glyph-name="afii10035" unicode="&#x421;" horiz-adv-x="1212" 
d="M749 -31q-155 0 -277.5 34t-207 114.5t-129 213.5t-44.5 331v153q0 196 44.5 328.5t129 213t207 114.5t277.5 34q54 0 107.5 -3.5t102.5 -10.5t92.5 -17t77.5 -23q11 -4 14.5 -9.5t1.5 -16.5l-45 -272q-3 -20 -23 -16q-78 17 -157 23.5t-157 6.5t-138 -17t-100.5 -57
t-61 -105.5t-20.5 -162.5v-174q0 -98 20.5 -163.5t60.5 -106t100 -57.5t139 -17q83 0 165 5t163 15q20 3 23 -17l39 -279q3 -20 -16 -24q-35 -9 -79.5 -16t-94.5 -12t-104.5 -7.5t-109.5 -2.5z" />
    <glyph glyph-name="afii10036" unicode="&#x422;" horiz-adv-x="1219" 
d="M455 0q-20 0 -20 20v1127h-383q-20 0 -20 20v288q0 20 20 20h1117q20 0 20 -20v-288q0 -20 -20 -20h-384v-1127q0 -20 -20 -20h-310z" />
    <glyph glyph-name="afii10037" unicode="&#x423;" horiz-adv-x="1120" 
d="M273 -31q-45 0 -85 6.5t-72 17.5q-11 4 -14.5 9.5t-2.5 16.5l30 227q3 20 23 17q23 -3 48.5 -5t45.5 -2q54 0 96 3.5t73 12.5t52 25t34 42l-482 1118q-8 18 12 18h337q20 0 27 -19l180 -524q14 -42 21 -74.5t10 -53.5l140 651q4 20 24 20h337q20 0 14 -19l-320 -1078
q-34 -115 -73.5 -193.5t-98.5 -126.5t-144.5 -68.5t-211.5 -20.5z" />
    <glyph glyph-name="afii10038" unicode="&#x424;" horiz-adv-x="1919" 
d="M641 147q-169 0 -278 25t-172 85t-87 160t-24 249v143q0 148 24 247.5t87 159.5t172 85.5t278 25.5h67t78 -2v130q0 20 20 20h310q20 0 20 -20v-130q41 2 77 2h67q169 0 277.5 -25.5t171.5 -85.5t87.5 -159.5t24.5 -247.5v-143q0 -149 -24.5 -249t-87.5 -160t-171.5 -85
t-277.5 -25q-34 0 -75 0.5t-69 2.5v-130q0 -20 -20 -20h-310q-20 0 -20 20v130q-29 -2 -69.5 -2.5t-75.5 -0.5zM1286 1016q-37 0 -77.5 -1.5t-72.5 -4.5v-545q32 -3 72.5 -4.5t77.5 -1.5q55 0 93.5 9t63 34t35.5 70.5t11 119.5v58q0 84 -8.5 136.5t-31 81t-62 38.5
t-101.5 10zM635 1016q-58 0 -97 -9t-62.5 -34.5t-33.5 -71t-10 -119.5v-90q0 -74 10 -119.5t33.5 -70.5t62.5 -34t97 -9q38 0 77.5 1.5t73.5 4.5v545q-33 2 -72 4t-79 2z" />
    <glyph glyph-name="afii10039" unicode="&#x425;" horiz-adv-x="1372" 
d="M976 0q-11 0 -17.5 3.5t-12.5 13.5l-259 467l-261 -467q-6 -10 -12.5 -13.5t-17.5 -3.5h-378q-20 0 -9 17l451 722l-451 719q-11 17 9 17h378q11 0 17.5 -3.5t12.5 -13.5l260 -453l260 453q6 10 12.5 13.5t17.5 3.5h378q20 0 9 -17l-452 -719l452 -722q11 -17 -9 -17
h-378z" />
    <glyph glyph-name="afii10040" unicode="&#x426;" horiz-adv-x="1572" 
d="M168 0q-20 0 -20 20v1435q0 20 20 20h311q20 0 20 -20v-1127h485v1127q0 20 20 20h310q20 0 20 -20v-1127h171q20 0 20 -20v-548q0 -20 -20 -20h-311q-20 0 -20 20v240h-1006z" />
    <glyph glyph-name="afii10041" unicode="&#x427;" horiz-adv-x="1378" 
d="M542 502q-111 0 -198.5 26t-148 85t-92.5 155t-32 236v451q0 20 20 20h312q20 0 20 -20v-384q0 -62 9 -107.5t35 -75t72.5 -43.5t121.5 -14q28 0 58 1.5t58.5 4.5t54 6.5t46.5 7.5v604q0 20 20 20h312q20 0 20 -20v-1435q0 -20 -20 -20h-312q-20 0 -20 20v530
q-33 -11 -73 -20t-84.5 -15t-90 -9.5t-88.5 -3.5z" />
    <glyph glyph-name="afii10042" unicode="&#x428;" horiz-adv-x="2102" 
d="M168 0q-20 0 -20 20v1435q0 20 20 20h311q20 0 20 -20v-1127h377v1127q0 20 20 20h310q20 0 20 -20v-1127h378v1127q0 20 20 20h310q20 0 20 -20v-1435q0 -20 -20 -20h-1766z" />
    <glyph glyph-name="afii10043" unicode="&#x429;" horiz-adv-x="2203" 
d="M168 0q-20 0 -20 20v1435q0 20 20 20h311q20 0 20 -20v-1127h380v1127q0 20 20 20h309q20 0 20 -20v-1127h380v1127q0 20 20 20h310q20 0 20 -20v-1127h182q20 0 20 -20v-548q0 -20 -20 -20h-310q-20 0 -20 20v240h-1642z" />
    <glyph glyph-name="afii10044" unicode="&#x42a;" horiz-adv-x="1442" 
d="M64 1147q-20 0 -20 20v288q0 20 20 20h531q20 0 20 -20v-517h29q198 0 340.5 -15t233.5 -63.5t134 -140t43 -244.5v-31q0 -101 -18.5 -174.5t-57.5 -125t-98.5 -83.5t-142 -49.5t-188 -23.5t-236.5 -6q-32 0 -75.5 1t-92 3t-100.5 4.5t-101 6.5q-20 1 -20 21v1129h-201z
M1043 479q0 49 -15.5 78t-53 44.5t-100.5 20.5t-158 5q-5 0 -16.5 -0.5t-26 -1.5t-30 -1.5t-28.5 -1.5v-325q11 -1 25.5 -1.5l29 -1t27 -1t19.5 -0.5q95 0 158 5t100.5 20.5t53 44.5t15.5 77v39z" />
    <glyph glyph-name="afii10045" unicode="&#x42b;" horiz-adv-x="2016" 
d="M535 -18q-32 0 -75.5 1t-92 3t-100.5 4.5t-101 6.5q-20 1 -20 21v1437q0 20 20 20h310q20 0 20 -20v-517h29q198 0 340.5 -15t233.5 -63.5t134 -140t43 -244.5v-31q0 -101 -18.5 -174.5t-57.5 -125t-98.5 -83.5t-142 -49.5t-188 -23.5t-236.5 -6zM1537 0q-20 0 -20 20
v1435q0 20 20 20h311q20 0 20 -20v-1435q0 -20 -20 -20h-311zM924 479q0 49 -15.5 78t-53 44.5t-100.5 20.5t-158 5q-5 0 -16.5 -0.5t-26 -1.5t-30 -1.5t-28.5 -1.5v-325q11 -1 25.5 -1.5l29 -1t27 -1t19.5 -0.5q95 0 158 5t100.5 20.5t53 44.5t15.5 77v39z" />
    <glyph glyph-name="afii10046" unicode="&#x42c;" horiz-adv-x="1324" 
d="M535 -18q-32 0 -75.5 1t-92 3t-100.5 4.5t-101 6.5q-20 1 -20 21v1437q0 20 20 20h310q20 0 20 -20v-517h29q198 0 340.5 -15t233.5 -63.5t134 -140t43 -244.5v-31q0 -101 -18.5 -174.5t-57.5 -125t-98.5 -83.5t-142 -49.5t-188 -23.5t-236.5 -6zM924 479q0 49 -15.5 78
t-53 44.5t-100.5 20.5t-158 5q-5 0 -16.5 -0.5t-26 -1.5t-30 -1.5t-28.5 -1.5v-325q11 -1 25.5 -1.5l29 -1t27 -1t19.5 -0.5q95 0 158 5t100.5 20.5t53 44.5t15.5 77v39z" />
    <glyph glyph-name="afii10047" unicode="&#x42d;" horiz-adv-x="1180" 
d="M730 905q-7 73 -29 123.5t-58.5 81t-87 44t-114.5 13.5q-72 0 -146.5 -5.5t-155.5 -24.5q-20 -4 -21 18l-45 272q-1 11 3.5 14.5t15.5 8.5q61 26 156 40.5t208 14.5q149 0 266 -34t198 -114.5t123.5 -213t42.5 -328.5v-153q0 -198 -42.5 -331t-123.5 -213.5t-198 -114.5
t-266 -34q-58 0 -114 4t-105 9.5t-88 12t-63 11.5q-11 2 -15.5 7t-3.5 16l38 280q1 21 21 18q34 -5 73.5 -8.5t80.5 -6t82 -4t79 -1.5q66 0 117 13.5t87 45t57.5 83.5t28.5 128h-501q-20 0 -20 20v288q0 20 20 20h500v0z" />
    <glyph glyph-name="afii10048" unicode="&#x42e;" horiz-adv-x="2131" 
d="M1404 -31q-142 0 -254.5 30.5t-193 101t-126.5 187t-55 289.5h-276v-557q0 -20 -20 -20h-311q-20 0 -20 20v1435q0 20 20 20h311q20 0 20 -20v-550h276q10 169 56.5 284t126.5 185t192.5 100.5t253.5 30.5q151 0 269 -34t199 -114.5t123 -213.5t42 -330v-154
q0 -197 -42 -329t-123 -212.5t-199 -114.5t-269 -34zM1404 1157q-70 0 -122.5 -16.5t-88 -55t-53 -102.5t-17.5 -158v-174q0 -95 17.5 -159t53 -103t88 -55.5t122.5 -16.5t123 16.5t88.5 55.5t53.5 103t18 159v172q0 94 -18 158t-53.5 103t-88.5 56t-123 17z" />
    <glyph glyph-name="afii10049" unicode="&#x42f;" horiz-adv-x="1401" 
d="M451.058 0q11 0 16.999 3.5q6 3.5 11 14.5l228.985 492h28.999q38.9971 0 77.9951 1.5q38.9971 1.5 87.9941 4.5v-496q0 -20 19.999 -20h310.98q19.999 0 19.999 20v1435q0 20 -19.999 21q-121.992 8 -235.985 11.5t-223.986 3.5q-139.991 0 -245.484 -9
q-105.494 -9 -181.489 -29t-125.992 -52t-79.4951 -79.5t-41.498 -111q-11.999 -63.5 -11.999 -145.5v-133q0 -113 22.499 -190.5q22.498 -77.5 82.4951 -127.5q57.9961 -48 175.988 -74q-16.998 -27 -35.4971 -57.5t-38.498 -68.5l-211.987 -396q-8.99902 -18 11 -18
h356.978zM752.04 1180q16.999 0 36.4971 -0.5q19.499 -0.5 39.498 -1t39.4971 -2q19.499 -1.5 35.498 -2.5v-347q-63.9961 -6 -160.99 -6q-92.9941 0 -151.99 4.5q-58.9971 4.5 -91.9951 20t-45.4971 44.5t-12.499 77v67q0 48 11.999 77q12 29 45.9971 44.5
q33.998 15.5 94.9941 20q60.9971 4.5 158.991 4.5z" />
    <glyph glyph-name="afii10065" unicode="&#x430;" horiz-adv-x="1142" 
d="M553 229q19 0 40 0.5t41 1t38 2t32 3.5v182h-79q-81 0 -133 -4t-82 -15.5t-41 -30.5t-11 -49q0 -31 15.5 -49t42.5 -27t62.5 -11.5t74.5 -2.5zM487 821q-32 0 -69.5 -1t-78 -2.5t-81.5 -3.5t-78 -5q-20 -3 -20 18v228q0 20 20 23q41 6 87.5 10.5t92.5 8t89 5.5t77 2
q112 0 193 -11t136.5 -33.5t89.5 -57.5t52.5 -83t24.5 -109t6 -136v-652q0 -20 -20 -23q-57 -7 -119 -12.5t-122 -9.5t-113.5 -6t-92.5 -2q-131 0 -226.5 16t-157 55t-91 103.5t-29.5 161.5q0 70 9.5 123.5t33.5 92.5t65.5 65t105 42t152 22.5t206.5 6.5h75v33q0 34 -8.5 59
t-32 41t-66 23.5t-110.5 7.5z" />
    <glyph glyph-name="afii10066" unicode="&#x431;" horiz-adv-x="1200" 
d="M624 -30q-141 0 -239.5 29t-160 90t-89 156t-27.5 226v97q0 160 3.5 278.5t16 205t38.5 146.5t70.5 102.5t111.5 72t162 55.5q92 25 153 42t98 33t53.5 34.5t19.5 46.5q2 11 6.5 15.5t15.5 4.5h230q20 0 20 -20q-1 -66 -11 -122t-45.5 -102t-104.5 -81.5t-187 -60.5
q-81 -19 -150 -36t-121 -42t-85.5 -63.5t-43.5 -100.5q57 42 129.5 68.5t167.5 26.5q124 0 212 -29.5t143 -91t80.5 -156.5t25.5 -226v-97q0 -131 -26.5 -226t-85.5 -156t-152.5 -90t-227.5 -29zM624 791q-54 0 -90 -11.5t-57.5 -38.5t-30 -72t-8.5 -112v-75q0 -68 8 -112.5
t29 -71t57 -37.5t92 -11q55 0 91 11.5t58 38.5t31 72t9 111v74q0 67 -8.5 112t-30 72t-58 38.5t-92.5 11.5z" />
    <glyph glyph-name="afii10067" unicode="&#x432;" horiz-adv-x="1135" 
d="M476 -13q-27 0 -65.5 1t-83 2.5t-93 3.5t-94.5 5q-20 1 -20 21v1031q0 20 20 21q37 1 83.5 3t96 3.5l99 3t92.5 1.5q150 0 247 -16.5t152.5 -52.5t77 -92.5t21.5 -136.5v-34q0 -10 -3.5 -29.5t-11.5 -42.5t-21 -46.5t-32 -41.5q26 -17 48.5 -39t39.5 -50.5t27 -65
t10 -81.5v-51q0 -104 -34.5 -166.5t-106.5 -96t-183.5 -44t-265.5 -10.5zM714 360q0 22 -8.5 34t-25 18t-41 7.5t-56.5 1.5h-113v-142q14 -2 40 -2h52q48 0 77.5 2.5t46 8t22.5 14.5t6 22v36zM560 794h-20h-17.5t-21.5 -0.5t-31 -1.5v-147h173q8 17 9.5 33.5t1.5 29.5v30
q0 19 -4 30.5t-14.5 17t-29 7t-46.5 1.5z" />
    <glyph glyph-name="afii10068" unicode="&#x433;" horiz-adv-x="871" 
d="M140 0q-20 0 -20 20v1031q0 20 20 20h671q20 0 20 -20v-287q0 -20 -20 -20h-341v-724q0 -20 -20 -20h-310z" />
    <glyph glyph-name="afii10069" unicode="&#x434;" horiz-adv-x="1385" 
d="M53 -276q-20 0 -20 20v563q0 20 20 20h85q46 2 79.5 25t54.5 70t31 120.5t10 176.5v332q0 20 20 20h814q20 0 20 -20v-724h148q20 0 20 -20v-563q0 -20 -20 -20h-311q-20 0 -20 20v256h-601v-256q0 -20 -20 -20h-310zM659 744q0 -147 -23 -252t-85 -165h266v417h-158z
" />
    <glyph glyph-name="afii10070" unicode="&#x435;" horiz-adv-x="1172" 
d="M597 -31q-140 0 -237.5 29.5t-159 91t-89.5 157t-28 228.5v115q0 133 28 229t89 158.5t158 92.5t235 30q139 0 236.5 -30t158.5 -93t89 -160.5t28 -232.5q0 -60 -8.5 -110.5t-14.5 -75.5q-4 -17 -21 -17l-645 -2q7 -42 22 -67t39.5 -38.5t60.5 -17.5t84 -4q91 0 182.5 3
t194.5 10q20 1 21 -19l14 -226q1 -20 -19 -23q-100 -12 -203 -20t-215 -8zM806 631q-10 57 -25 93t-39 56.5t-60 28.5t-89 8q-54 0 -89 -10t-55.5 -34t-29.5 -63t-10 -97z" />
    <glyph glyph-name="afii10072" unicode="&#x436;" horiz-adv-x="1750" 
d="M729 0q-20 0 -20 20v391l-257 -394q-6 -10 -13 -13.5t-18 -3.5h-392q-21 0 -8 16l380 525l-390 514q-13 16 8 16h375q20 0 31 -16l284 -409v405q0 20 20 20h292q20 0 20 -20v-404l284 408q11 16 31 16h375q21 0 8 -16l-390 -514l380 -525q13 -16 -8 -16h-392
q-11 0 -18 3.5t-13 13.5l-257 395v-392q0 -20 -20 -20h-292z" />
    <glyph glyph-name="afii10073" unicode="&#x437;" horiz-adv-x="999" 
d="M919 285q0 -93 -29.5 -154t-90 -96.5t-153 -50t-217.5 -14.5q-88 0 -174 6.5t-161 20.5q-12 2 -15 7t-2 16l19 233q1 21 23 18q28 -5 65 -8t76 -4.5t77 -2.5t70 -1q47 0 77 3.5t47.5 13t24 25t6.5 39.5v12q0 21 -4 35t-20.5 22.5t-50 12t-91.5 3.5l-203 -1q-20 0 -20 20
v198q0 20 20 20h228q53 0 81.5 6t42 16t15.5 24t2 31v13q0 14 -4 26.5t-20.5 21.5t-50.5 14.5t-95 5.5q-81 0 -147.5 -4.5t-120.5 -12.5q-22 -3 -23 18l-16 234q-2 11 2 15.5t15 6.5q69 13 150.5 20t184.5 7q247 0 364.5 -68t117.5 -210v-24q0 -98 -54.5 -155.5
t-152.5 -86.5q43 -18 80.5 -40.5t65.5 -53t44.5 -70.5t16.5 -92v-15z" />
    <glyph glyph-name="afii10074" unicode="&#x438;" horiz-adv-x="1243" 
d="M140 0q-20 0 -20 20v1031q0 20 20 20h312q20 0 20 -20l2 -503q1 0 5.5 11.5t12.5 30.5t19 42.5t25 48.5l207 373q6 10 12.5 13.5t17.5 3.5h330q20 0 20 -20v-1031q0 -20 -20 -20h-312q-20 0 -20 20l-2 503q-1 0 -6.5 -13.5t-14 -33.5t-19 -43.5t-21.5 -42.5l-207 -373
q-6 -10 -12.5 -13.5t-17.5 -3.5h-331z" />
    <glyph glyph-name="afii10075" unicode="&#x439;" horiz-adv-x="1243" 
d="M140 0q-20 0 -20 20v1031q0 20 20 20h312q20 0 20 -20l2 -503q1 0 5.5 11.5t12.5 30.5t19 42.5t25 48.5l207 373q6 10 12.5 13.5t17.5 3.5h330q20 0 20 -20v-1031q0 -20 -20 -20h-312q-20 0 -20 20l-2 503q-1 0 -6.5 -13.5t-14 -33.5t-19 -43.5t-21.5 -42.5l-207 -373
q-6 -10 -12.5 -13.5t-17.5 -3.5h-331zM624 1237q-98 0 -159 19.5t-95.5 56.5t-48 90t-14.5 121q0 20 20 20h201q20 0 20 -20q3 -66 22 -89.5t54 -23.5t54 23.5t22 89.5q0 20 20 20h202q20 0 20 -20q-2 -68 -15 -121t-47.5 -90t-96 -56.5t-159.5 -19.5z" />
    <glyph glyph-name="afii10076" unicode="&#x43a;" horiz-adv-x="1161" 
d="M140 0q-20 0 -20 20v1031q0 20 20 20h292q20 0 20 -20v-404l284 408q11 16 31 16h375q21 0 8 -16l-390 -514l380 -525q13 -16 -8 -16h-392q-11 0 -18 3.5t-13 13.5l-257 395v-392q0 -20 -20 -20h-292z" />
    <glyph glyph-name="afii10077" unicode="&#x43b;" horiz-adv-x="1179" 
d="M569 721q0 -189 -27 -318.5t-84 -213.5t-145.5 -130t-211.5 -69q-20 -4 -23 16l-51 294q-3 20 17 24q50 10 84 33.5t55 68.5t30.5 116t9.5 177v332q0 20 20 20h796q20 0 20 -20v-1031q0 -20 -20 -20h-292q-20 0 -20 20v701h-158v0z" />
    <glyph glyph-name="afii10078" unicode="&#x43c;" horiz-adv-x="1506" 
d="M140 0q-20 0 -20 20v1032q0 20 20 20h374q11 0 17.5 -3.5t12.5 -14.5l184 -353q4 -8 8.5 -18t8 -19t6 -15l2.5 -6q0 1 7 18.5t17 37.5l182 355q5 11 11.5 14.5t17.5 3.5h378q20 0 20 -20v-1032q0 -20 -20 -20h-310q-20 0 -20 20v595q-5 -13 -11 -31.5t-16 -39.5
l-127 -297q-5 -11 -11 -14.5t-17 -3.5h-202q-11 0 -17 3.5t-11 14.5l-127 297q-8 18 -16 39t-11 32v-595q0 -20 -20 -20h-310z" />
    <glyph glyph-name="afii10079" unicode="&#x43d;" horiz-adv-x="1280" 
d="M141 0q-20 0 -20 20v1031q0 20 20 20h292q20 0 20 -20v-343h374v343q0 20 20 20h292q20 0 20 -20v-1031q0 -20 -20 -20h-292q-20 0 -20 20v338h-374v-338q0 -20 -20 -20h-292z" />
    <glyph glyph-name="afii10080" unicode="&#x43e;" horiz-adv-x="1188" 
d="M593 817q-58 0 -94 -11t-56 -38.5t-27 -73.5t-7 -116v-86q0 -69 7.5 -115.5t28 -74t56.5 -39t92 -11.5q57 0 93 11.5t56.5 39.5t28.5 74.5t8 116.5v84q0 70 -7 116t-27.5 73.5t-57 38.5t-94.5 11zM593 -31q-138 0 -235 29.5t-158 92t-89 159.5t-28 231v105q0 134 28 231
t89 160t158 93t235 30q139 0 236.5 -30t158.5 -93t89 -160t28 -231v-105q0 -134 -28 -231t-89 -159.5t-158.5 -92t-236.5 -29.5z" />
    <glyph glyph-name="afii10081" unicode="&#x43f;" horiz-adv-x="1259" 
d="M140 0q-20 0 -20 20v1031q0 20 20 20h978q20 0 20 -20v-1031q0 -20 -20 -20h-310q-20 0 -20 20v701h-318v-701q0 -20 -20 -20h-310z" />
    <glyph glyph-name="afii10082" unicode="&#x440;" horiz-adv-x="1234" 
d="M619 815q-17 0 -40.5 -0.5t-47.5 -1.5t-45 -3t-34 -5v-545q34 -3 76.5 -4.5t99.5 -1.5q63 0 102 12.5t61 41.5t29.5 77t7.5 119v71q0 69 -8 115.5t-30.5 74t-63.5 39t-107 11.5zM140 -453q-20 0 -20 20v1482q0 21 20 22q121 13 242.5 21t239.5 8q151 0 252 -25t162 -81.5
t86.5 -148.5t25.5 -227v-151q0 -139 -25.5 -234.5t-85.5 -154t-158.5 -84t-244.5 -25.5q-50 0 -96 5.5t-86 15.5v-423q0 -20 -20 -20h-292z" />
    <glyph glyph-name="afii10083" unicode="&#x441;" horiz-adv-x="962" 
d="M612 -31q-153 0 -255 30t-162.5 91.5t-85.5 156.5t-25 226v125q0 130 25 224.5t85.5 156t162.5 91.5t255 30q75 0 141 -7t120 -18q20 -4 19 -24l-14 -236q-1 -11 -5.5 -15t-15.5 -3q-55 5 -112 7.5t-122 2.5q-69 0 -109.5 -11.5t-61.5 -39t-27.5 -72.5t-6.5 -111v-77
q0 -66 6 -111t27 -72.5t62 -39t110 -11.5q65 0 122 3.5t112 8.5q11 1 15.5 -3t5.5 -15l14 -236q1 -20 -19 -24q-26 -6 -57 -10.5t-65 -8.5t-69.5 -6t-69.5 -2z" />
    <glyph glyph-name="afii10084" unicode="&#x442;" horiz-adv-x="986" 
d="M338 0q-20 0 -20 20v724h-255q-20 0 -20 20v287q0 20 20 20h859q20 0 20 -20v-287q0 -20 -20 -20h-254v-724q0 -20 -20 -20h-310z" />
    <glyph glyph-name="afii10085" unicode="&#x443;" horiz-adv-x="1123" 
d="M181 -481q-34 0 -76 4t-74 10q-20 4 -17 23l31 238q2 11 7 15t16 3q23 -3 48.5 -5t48.5 -2q75 0 126 9.5t86 32t58.5 60t44.5 93.5l-14.5 6.5t-39 33t-56.5 79t-68 145.5l-306 788q-7 19 13 19h337q11 0 16.5 -4t9.5 -15l155 -487l61 -189l150 675q4 20 24 20h337
q20 0 14 -19l-346 -1134q-23 -74 -49 -132t-59.5 -102.5t-76.5 -75.5t-100.5 -51t-131.5 -29t-169 -9z" />
    <glyph glyph-name="afii10086" unicode="&#x444;" horiz-adv-x="1870" 
d="M789 -453q-20 0 -20 20v421q-45 -9 -88 -14t-88 -5q-144 0 -241 25t-156 83t-84 152t-25 231v154q0 136 25 229t85 150.5t159.5 82.5t248.5 25q38 0 82 -5.5t82 -13.5v500q0 21 20 22l292 36q20 1 20 -18v-540q38 8 81.5 13.5t82.5 5.5q149 0 248.5 -25t159.5 -82.5
t85 -150.5t25 -229v-154q0 -137 -25 -231t-84 -152t-156 -83t-241 -25q-48 0 -93 5t-83 14v-421q0 -20 -20 -20h-292zM1271 821q-28 0 -50 -0.5t-41.5 -2t-38.5 -5t-40 -8.5v-535q23 -5 42.5 -7t39 -3.5t41 -1.5h49.5q61 0 98 12t57.5 39.5t27.5 73.5t7 114v74q0 71 -7 119
t-28 77t-58.5 41.5t-98.5 12.5zM599 821q-61 0 -98.5 -12.5t-58.5 -41.5t-28.5 -77t-7.5 -119v-74q0 -68 7 -114t27.5 -73.5t58 -39.5t98.5 -12h47t40.5 1.5t39.5 3.5t45 7v535q-21 5 -40 8.5t-38.5 5t-41.5 2t-50 0.5z" />
    <glyph glyph-name="afii10087" unicode="&#x445;" horiz-adv-x="1186" 
d="M799 0q-11 0 -17.5 3.5t-12.5 13.5l-176 314l-176 -314q-6 -10 -12.5 -13.5t-17.5 -3.5h-354q-20 0 -9 17l347 521l-347 516q-11 17 9 17h354q11 0 17.5 -3.5t12.5 -13.5l176 -312l176 312q6 10 12.5 13.5t17.5 3.5h354q20 0 9 -17l-348 -516l348 -521q11 -17 -9 -17
h-354z" />
    <glyph glyph-name="afii10088" unicode="&#x446;" horiz-adv-x="1358" 
d="M140 0q-20 0 -20 20v1031q0 20 20 20h310q20 0 20 -20v-701h318v701q0 20 20 20h310q20 0 20 -20v-701h148q20 0 20 -20v-586q0 -20 -20 -20h-311q-20 0 -20 20v256h-815z" />
    <glyph glyph-name="afii10089" unicode="&#x447;" horiz-adv-x="1188" 
d="M456 309q-95 0 -169 24.5t-124 81.5t-76 151t-26 234v251q0 20 20 20h292q20 0 20 -20v-183q0 -62 6 -106t25.5 -71.5t55.5 -40t95 -12.5q43 0 86.5 6t75.5 13v394q0 20 20 20h291q20 0 20 -20v-1031q0 -20 -20 -20h-291q-20 0 -20 20v335q-54 -20 -124.5 -33t-156.5 -13
z" />
    <glyph glyph-name="afii10090" unicode="&#x448;" horiz-adv-x="1870" 
d="M140 0q-20 0 -20 20v1031q0 20 20 20h310q20 0 20 -20v-701h289v701q0 20 20 20h310q20 0 20 -20v-701h289v701q0 20 20 20h311q20 0 20 -20v-1031q0 -20 -20 -20h-1589z" />
    <glyph glyph-name="afii10091" unicode="&#x449;" horiz-adv-x="1970" 
d="M1587 -276q-20 0 -20 20v256h-1427q-20 0 -20 20v1031q0 20 20 20h310q20 0 20 -20v-701h289v701q0 20 20 20h310q20 0 20 -20v-701h289v701q0 20 20 20h311q20 0 20 -20v-701h149q20 0 20 -20v-586q0 -20 -20 -20h-311z" />
    </font>
</defs>
</svg>
