<svg width="84" height="48" fill="none" xmlns="http://www.w3.org/2000/svg"><path fill-rule="evenodd" clip-rule="evenodd" d="M67.231 13.688c-2.947.01-5.835.857-8.35 2.449a16.484 16.484 0 00-5.915 6.578 16.487 16.487 0 00-5.916-6.578 15.713 15.713 0 00-8.35-2.449c-3.547-.007-6.993 1.221-9.784 3.489a17.2 17.2 0 00-5.314 7.486 14.372 14.372 0 00-4.22-3.866 13.342 13.342 0 00-6.837-1.905 13.1 13.1 0 00-5.802 1.358l.762-3.851h12.846l.819-4.04H4.675L1.963 25.915l3.375.008.191-.196a9.895 9.895 0 013.547-2.355 9.613 9.613 0 014.171-.62c2.624.24 5.058 1.513 6.803 3.556s2.667 4.701 2.577 7.427c-.09 2.727-1.186 5.313-3.062 7.227-1.876 1.915-4.389 3.011-7.022 3.065a9.814 9.814 0 01-5.13-1.483 10.284 10.284 0 01-3.683-3.986L.572 40.443a13.983 13.983 0 005.006 5.403 13.345 13.345 0 006.965 2.01 13.655 13.655 0 007.315-2.21 14.34 14.34 0 005.115-5.852 16.278 16.278 0 006.076 6.042 15.568 15.568 0 008.195 2.012 15.625 15.625 0 008.048-2.573 16.39 16.39 0 005.674-6.446 16.484 16.484 0 005.915 6.578 15.712 15.712 0 008.35 2.45c4.323-.082 8.442-1.918 11.471-5.113 3.03-3.195 4.727-7.494 4.727-11.972S81.73 21.995 78.702 18.8c-3.029-3.195-7.148-5.03-11.47-5.112zm-27.4 30.077a12.232 12.232 0 01-7.464-1.548 12.865 12.865 0 01-5.24-5.72 13.464 13.464 0 01-1.104-7.8 13.22 13.22 0 013.438-7.035 12.467 12.467 0 016.723-3.7 12.203 12.203 0 017.553.988 12.77 12.77 0 015.624 5.314 13.43 13.43 0 011.641 7.7c-.24 3.008-1.489 5.834-3.53 7.99-2.04 2.155-4.745 3.503-7.645 3.81h.004zm28.531 0a12.232 12.232 0 01-7.463-1.55 12.865 12.865 0 01-5.239-5.72 13.464 13.464 0 01-1.1-7.802 13.22 13.22 0 013.438-7.034 12.466 12.466 0 016.723-3.697 12.204 12.204 0 017.552.988 12.772 12.772 0 015.623 5.314 13.43 13.43 0 011.642 7.698c-.24 3.01-1.49 5.837-3.532 7.993-2.042 2.155-4.747 3.503-7.648 3.81h.004zM29.548 1.752a.362.362 0 01-.056.159l-.555.841a.224.224 0 01-.172.114.317.317 0 01-.176-.062 2.626 2.626 0 00-2.854-.255 2.746 2.746 0 00-1.09 1.052 2.88 2.88 0 00-.386 1.49 2.89 2.89 0 00.194 1.076c.133.342.329.654.577.917.249.264.545.474.872.618.328.145.679.221 1.035.225a2.757 2.757 0 001.586-.532l.182-.101c.017 0 .028-.006.045-.006.352.308.625.7.798 1.143a.267.267 0 01-.038.127.256.256 0 01-.094.09 4.134 4.134 0 01-1.82.753c-.655.1-1.324.037-1.952-.181a4.197 4.197 0 01-1.662-1.076 4.398 4.398 0 01-1.012-1.737 4.515 4.515 0 01-.145-2.025 4.45 4.45 0 01.754-1.873 4.26 4.26 0 011.491-1.317 4.098 4.098 0 011.905-.478 4.059 4.059 0 012.435.812.26.26 0 01.098.094c.024.04.038.085.04.132zm4.657-.66a.251.251 0 01.073-.184.235.235 0 01.18-.067h1.014a.23.23 0 01.176.07.247.247 0 01.071.18v6.76h3.404a.23.23 0 01.176.075.247.247 0 01.067.184v.96a.26.26 0 01-.069.182.242.242 0 01-.174.076h-4.676a.209.209 0 01-.182-.064.224.224 0 01-.06-.188v-7.99.006zm10.664 4.821a2.039 2.039 0 00.521 1.468c.179.195.394.35.633.457a1.856 1.856 0 001.51 0c.238-.106.453-.262.632-.457s.317-.426.407-.678c.09-.253.128-.521.115-.79V1.086a.26.26 0 01.075-.181.241.241 0 01.178-.07h.986a.255.255 0 01.186.068.273.273 0 01.087.183v4.856c.032.473-.035.948-.196 1.393a3.315 3.315 0 01-.738 1.182 3.174 3.174 0 01-1.146.756c-.43.163-.89.229-1.347.192a3.15 3.15 0 01-1.334-.215 3.242 3.242 0 01-1.135-.758 3.381 3.381 0 01-.74-1.17 3.476 3.476 0 01-.217-1.38V1.086c0-.064.023-.125.065-.172a.238.238 0 01.16-.079h1.037c.064.003.126.03.173.076a.287.287 0 01.085.175v4.822l.003.005zm9.95-4.808a.25.25 0 01.063-.194.235.235 0 01.185-.075h3.409c.282-.013.563.032.828.132s.508.253.716.45a2.264 2.264 0 01.689 1.545c.02.655-.19 1.294-.592 1.8.346.195.632.486.825.841.193.355.286.76.268 1.166.009.33-.046.66-.161.968a2.5 2.5 0 01-.51.829 2.401 2.401 0 01-.78.559c-.293.13-.609.2-.928.202H55.07a.218.218 0 01-.182-.065.234.234 0 01-.067-.187V1.104h-.002zm3.117 1.037H56.34v2.184h1.854a1.02 1.02 0 00.755-.336 1.095 1.095 0 00.29-.796 1.175 1.175 0 00-.124-.463 1.134 1.134 0 00-.297-.37 1.089 1.089 0 00-.882-.223v.004zm.628 3.38H56.34V8.02h2.224c.164.006.326-.024.478-.088.151-.063.288-.159.401-.28a1.243 1.243 0 00.322-.924 1.175 1.175 0 00-.07-.485 1.141 1.141 0 00-.26-.409 1.093 1.093 0 00-.401-.258 1.062 1.062 0 00-.47-.059v.003z" fill="#383838"/></svg>