<svg width="102" height="37" fill="none" xmlns="http://www.w3.org/2000/svg"><g clip-path="url(#clip0_1_677)" fill="#383838"><path d="M38.002 34.209h25.31v-.51h-25.31v.51zm28.115-2.292h-.532v4.519h3.93v-.504h-3.398v-4.015zm6.311 4.151c-1.305 0-2.155-.678-2.155-1.892 0-1.213.85-1.89 2.155-1.89 1.306 0 2.156.677 2.156 1.89 0 1.214-.85 1.892-2.156 1.892zm0-4.286c-1.686 0-2.7.923-2.7 2.394 0 1.472 1.014 2.395 2.7 2.395 1.687 0 2.701-.923 2.701-2.395 0-1.471-1.014-2.395-2.7-2.395zm7.877 2.491c0 1.11-.653 1.795-1.807 1.795-1.16 0-1.813-.684-1.813-1.795v-2.356h-.532v2.389c0 1.316.817 2.265 2.345 2.265 1.528 0 2.34-.949 2.34-2.265v-2.389h-.533v2.356zm6.082 1.369l-3.62-3.725h-.576v4.519h.52v-3.828l3.727 3.828h.47v-4.519h-.52v3.725zm4.302-1.052h2.016v.587c-.33.626-1.053.89-1.934.89-1.356 0-2.206-.638-2.206-1.89 0-1.253.843-1.892 2.168-1.892.805 0 1.394.258 1.794.768l.463-.329c-.444-.53-1.173-.942-2.257-.942-1.7 0-2.714.923-2.714 2.394 0 1.472 1.015 2.395 2.733 2.395 1.23 0 2.117-.529 2.485-1.233v-1.252H90.69v.503zm7.866-2.67h-4.223v4.517h4.223v-.503h-3.69V34.39h3.129v-.503h-3.129v-1.464h3.696v-.504h-.006zM5.593 35.927h-1.63v-3.508h1.63c1.298 0 2.217.6 2.217 1.754s-.92 1.754-2.217 1.754zm.04-4.011H3.414v4.514h2.217c1.67 0 2.739-.87 2.739-2.257s-1.07-2.257-2.739-2.257zm4.463 2.47h3.221v-.503h-3.221v-1.464h3.802v-.503h-4.35v4.514h4.415v-.503h-3.867v-1.541zm9.314 1.25l-3.723-3.72h-.593v4.514h.534v-3.824l3.834 3.824h.483v-4.514h-.535v3.72zm6.296-3.72h-4.858v.49H23v4.024h.548v-4.024h2.158v-.49zm1.04 2.812l1.271-2.315 1.272 2.315h-2.543zm.971-2.812l-2.51 4.514h.606l.665-1.213h3.078l.665 1.213h.62l-2.511-4.514h-.613zm4.535 0h-.547v4.514h4.042v-.503h-3.495v-4.011zm.853-8.756c0-.856-.71-1.536-1.708-1.536-.977 0-1.686.68-1.686 1.536 0 .855.71 1.49 1.686 1.49.998 0 1.708-.635 1.708-1.49zm5.138-10.53l7.386 8.862h.156l7.386-8.863v11.78h2.663V9.055h-2.863l-7.21 8.797-7.207-8.797H35.67V24.41h2.573V12.63zm30.413 12.241c5.5 0 8.452-3.16 8.452-7.7V9.054h-2.662v7.941c0 3.444-2.064 5.528-5.79 5.528-3.705 0-5.768-2.084-5.768-5.527V9.053h-2.662v8.117c0 4.54 2.95 7.7 8.43 7.7zM84.073 12.3l12.134 12.11h2.351V9.054h-2.595v11.65L84.338 9.053H81.5V24.41h2.574V12.3zm-66.736-.938c-.893 1.36-2.516 2.23-4.706 2.499v-.052l-.006-2.447h4.712zm-7.351 13.05h5.632v-2.248h-2.97l-.011-6.01v-.126c3.784-.309 6.458-1.99 7.536-4.666h.005c.013-.03.023-.062.035-.091h.224c2.527 0 3.807.92 3.807 2.715 0 1.802-1.28 2.717-3.807 2.717h-2.965l6.643 7.708h3.05l-5.004-5.713.146-.028c2.864-.515 4.504-2.23 4.504-4.707 0-2.927-2.308-4.774-6.02-4.831h-.045c-.011-.002-.02-.001-.03-.002.001-.023.006-.044.007-.067a8.36 8.36 0 00.017-.532c0-4.735-3.684-7.674-9.451-7.674H3.415v9.357h2.662V3.155h5.015c4.083 0 6.919 1.824 6.919 5.375 0 .183-.006.355-.023.526H9.986v4.85h-6.57v2.304h6.57v8.2z"/></g><defs><clipPath id="clip0_1_677"><path fill="#fff" transform="translate(.572 .857)" d="M0 0h101.429v35.714H0z"/></clipPath></defs></svg>