<svg width="72" height="24" fill="none" xmlns="http://www.w3.org/2000/svg"><path d="M15.88 0H2.725C1.313.002.17 1.206.167 2.693v13.815c.002 1.486 1.146 2.69 2.558 2.692h4.02v-.769h-4.02C1.717 18.43.9 17.57.898 16.508V10h2.347a.408.408 0 00.363-.443.432.432 0 00-.028-.128c-.325-.778.01-1.686.75-2.028.739-.341 1.601.012 1.926.79a1.61 1.61 0 010 1.238.408.408 0 00.178.532.365.365 0 00.157.039h2.346v2.308a2.036 2.036 0 00-.365-.032c-1.21 0-2.193 1.032-2.193 2.307 0 .918.516 1.75 1.316 2.116l.292-.704c-.74-.34-1.079-1.246-.757-2.025.232-.562.76-.926 1.342-.925.201 0 .4.044.585.13.185.085.4-.004.48-.199.02-.048.031-.1.031-.153V10h1.858c-.02.127-.03.256-.03.384.002 1.096.734 2.04 1.753 2.262l.146-.753c-.68-.148-1.167-.778-1.169-1.509 0-.211.042-.421.124-.615a.393.393 0 00-.19-.506.35.35 0 00-.145-.033H9.668V7.276c.12.021.243.032.366.032 1.21 0 2.192-1.033 2.192-2.308 0-1.274-.982-2.307-2.192-2.307-.123 0-.245.01-.366.032V.77h6.212c1.009.002 1.826.862 1.827 1.924V9.23h-2.346a.375.375 0 00-.366.385c0 .053.01.106.03.154.082.194.124.404.124.615h.731c0-.128-.01-.257-.03-.384h2.223a.375.375 0 00.365-.385V2.693C18.436 1.206 17.292.002 15.88 0zm-5.846 3.462c.807 0 1.461.689 1.461 1.538 0 .85-.654 1.539-1.461 1.539-.202 0-.4-.044-.585-.13a.359.359 0 00-.481.199c-.02.048-.03.1-.03.153V9.2H7.081a2.36 2.36 0 00.028-.353v-.032c0-1.275-.981-2.308-2.192-2.308-1.211 0-2.193 1.033-2.193 2.308v.032c.001.118.01.236.029.353H.898V2.693C.9 1.63 1.717.77 2.725.769h6.212v2.47c0 .213.164.385.366.385.05 0 .1-.011.146-.032.184-.086.383-.13.585-.13z" fill="#FF1422"/><path d="M21.31 16.533l-3.072-2.227-1.18-3.318a.36.36 0 00-.49-.218l-2.375 1.106a.392.392 0 00-.194.49c.04.107.076.189.115.273.04.085.076.164.12.289.284.798-.098 1.687-.855 1.99-.756.298-1.598-.106-1.88-.902a1.61 1.61 0 01-.091-.626.378.378 0 00-.346-.404.35.35 0 00-.148.024l-2.54 1.007a.391.391 0 00-.212.495l.91 2.563c-.12.023-.239.057-.354.103-1.137.446-1.715 1.777-1.291 2.974.423 1.197 1.689 1.806 2.826 1.36.117-.046.23-.102.338-.168l.654 1.837c.07.199.28.3.47.225l3.621-1.436a2 2 0 001.157 1.088l.231-.731a1.252 1.252 0 01-.698-.629l1.101-.436c.362 1.071 1.326 1.786 2.407 1.785v-.77c-1.007-.006-1.821-.863-1.828-1.923 0-.102-.038-.2-.107-.272l-1.272-1.339a.593.593 0 01-.05-.742.525.525 0 01.393-.225.51.51 0 01.42.165l2.55 2.685.517-.544-.755-.794a2.817 2.817 0 00-.032-1.799l-.685-1.925 2.208 1.6c.293.217.467.57.468.946v4.969h.73V18.11c0-.628-.292-1.217-.781-1.577zm-2.625 1.226c.101.283.138.586.107.886l-1.186-1.248a1.225 1.225 0 00-1.796-.024 1.387 1.387 0 000 1.914l1.156 1.217-5.164 2.047-.696-1.959a.372.372 0 00-.342-.25.356.356 0 00-.256.11 1.41 1.41 0 01-2.066-.062 1.596 1.596 0 01.058-2.175c.138-.137.3-.245.477-.317a1.35 1.35 0 01.362-.086c.076-.01.153-.012.229-.008a.373.373 0 00.384-.364.402.402 0 00-.023-.155l-.954-2.682 1.74-.69c.228 1.252 1.377 2.072 2.567 1.831.121-.024.24-.06.356-.105 1.133-.453 1.706-1.784 1.282-2.98a3.557 3.557 0 00-.093-.236l1.68-.783 2.178 6.12zm10.919-8.818a.234.234 0 01-.176-.077.237.237 0 01-.073-.185v-.81c-2.064 0-3.178-.955-3.345-2.864L26 4.61l.01-.394c.049-.933.367-1.643.956-2.132.589-.496 1.385-.743 2.39-.743v-.69c0-.08.023-.141.072-.185a.234.234 0 01.176-.077h.946c.076 0 .135.026.176.077a.237.237 0 01.073.186v.689c1.004 0 1.8.247 2.39.743.588.489.906 1.2.955 2.132a7.774 7.774 0 010 .788c-.146 1.91-1.26 2.864-3.345 2.864v.81c0 .08-.024.142-.073.185a.215.215 0 01-.176.077h-.946zm-.238-6.353c-.575 0-1.018.135-1.33.405-.312.27-.492.692-.54 1.268l-.01.34.01.349c.062 1.108.685 1.662 1.87 1.662V2.588zm1.423 4.024c1.198 0 1.82-.554 1.87-1.662.006-.073.01-.208.01-.405 0-.678-.16-1.173-.478-1.487-.312-.313-.78-.47-1.402-.47v4.024zM36.965 8.7a2.19 2.19 0 01-.976-.218 1.884 1.884 0 01-.696-.613 1.511 1.511 0 01-.25-.842c0-.495.19-.896.572-1.202.38-.306.904-.514 1.568-.624l1.423-.218v-.23c0-.32-.076-.561-.228-.722-.153-.16-.398-.24-.738-.24-.228 0-.415.047-.56.142-.14.088-.25.175-.333.262a7.973 7.973 0 01-.166.186c-.028.088-.08.132-.156.132h-.8a.24.24 0 01-.166-.066.243.243 0 01-.062-.175c.007-.182.09-.39.249-.623.166-.233.419-.434.758-.602.34-.167.755-.251 1.247-.251.817 0 1.412.193 1.786.58.374.386.561.892.561 1.52v3.433a.26.26 0 01-.072.185.215.215 0 01-.177.077h-.841a.234.234 0 01-.177-.077.26.26 0 01-.073-.185v-.427c-.152.233-.37.427-.654.58-.277.145-.623.218-1.039.218zm.353-1.038c.381 0 .693-.132.935-.394.243-.262.364-.645.364-1.148v-.23l-1.039.175c-.402.066-.706.172-.914.317-.2.146-.301.325-.301.536 0 .233.093.416.28.547.187.131.412.197.675.197zm9.051-2.045c.007.08.01.204.01.372 0 .16-.003.277-.01.35-.035.729-.274 1.305-.717 1.727-.436.423-1.063.634-1.88.634-.859 0-1.5-.233-1.922-.7-.415-.473-.64-1.17-.675-2.088l-.01-.656.01-.656c.02-1.035.173-1.811.457-2.329a2.496 2.496 0 011.236-1.137c.54-.24 1.413-.514 2.618-.82l.052-.011a.23.23 0 01.156.066.21.21 0 01.083.153l.135.721.01.066a.24.24 0 01-.052.153.28.28 0 01-.135.077l-.332.076c-.824.197-1.416.365-1.777.503a1.626 1.626 0 00-.81.612c-.187.277-.294.693-.322 1.247a1.78 1.78 0 01.655-.525c.277-.131.567-.197.872-.197.727 0 1.292.212 1.693.634.402.423.62 1 .655 1.728zm-1.413.667c.007-.051.01-.146.01-.284 0-.153-.003-.263-.01-.328-.014-.452-.118-.799-.312-1.04a.949.949 0 00-.789-.37c-.38 0-.682.123-.904.37-.221.241-.34.588-.353 1.04l-.01.328.01.284c.014.46.121.81.322 1.05.2.24.485.36.852.36s.65-.116.852-.35c.207-.24.318-.593.332-1.06zm2.832 4.385a.235.235 0 01-.176-.077.238.238 0 01-.073-.186V3.168c0-.08.024-.142.073-.186a.235.235 0 01.176-.077h.82c.077 0 .136.026.178.077a.238.238 0 01.072.186v.437c.388-.54.942-.81 1.662-.81.7 0 1.236.234 1.61.7.374.46.575 1.083.603 1.87.007.088.01.215.01.383 0 .175-.003.306-.01.394-.028.765-.229 1.385-.603 1.859-.374.466-.91.7-1.61.7-.7 0-1.232-.26-1.6-.777v2.482a.24.24 0 01-.072.186.215.215 0 01-.177.077h-.883zm2.348-3.139c.748 0 1.146-.484 1.194-1.454.007-.073.01-.182.01-.328 0-.146-.003-.255-.01-.328-.048-.97-.446-1.454-1.194-1.454-.402 0-.7.135-.893.404-.194.27-.302.602-.322.995l-.01.416.01.426c.013.365.12.678.322.94.207.256.505.383.893.383zm8.697-4.625c.063 0 .118.026.167.077a.212.212 0 01.072.164v5.183a.26.26 0 01-.072.186.234.234 0 01-.177.076h-.862a.235.235 0 01-.177-.076.26.26 0 01-.072-.186v-3.51l-2.494 3.597a.3.3 0 01-.28.175h-.79a.24.24 0 01-.166-.066.26.26 0 01-.072-.185V3.168a.26.26 0 01.072-.186.235.235 0 01.177-.077h.862c.076 0 .135.026.177.077a.238.238 0 01.072.186v3.52l2.493-3.608c.077-.116.17-.175.28-.175h.79zm6.524 5.347a.197.197 0 01.052.142.18.18 0 01-.062.142.229.229 0 01-.156.055h-1.05c-.11 0-.207-.055-.29-.164l-1.35-2.143h-.77v2.045a.262.262 0 01-.072.186.235.235 0 01-.177.076h-.851a.235.235 0 01-.177-.076.262.262 0 01-.073-.186V3.168c0-.073.025-.135.073-.186a.235.235 0 01.177-.077h.851c.07 0 .129.026.177.077a.262.262 0 01.073.186v1.957h.769l1.246-2.045a.555.555 0 01.124-.131.284.284 0 01.167-.044h.924c.07 0 .125.019.167.055a.18.18 0 01.062.142.257.257 0 01-.052.142L63.654 5.65l1.703 2.602zm2.527.448a2.2 2.2 0 01-.976-.218 1.88 1.88 0 01-.696-.613 1.511 1.511 0 01-.25-.842c0-.495.19-.896.572-1.202.38-.306.903-.514 1.568-.624l1.423-.218v-.23c0-.32-.076-.561-.228-.722-.153-.16-.398-.24-.738-.24a1.01 1.01 0 00-.56.142 1.744 1.744 0 00-.333.262 7.513 7.513 0 01-.166.186c-.028.088-.08.132-.156.132h-.8a.24.24 0 01-.166-.066.242.242 0 01-.062-.175c.006-.182.09-.39.249-.623.166-.233.419-.434.758-.602.34-.167.755-.251 1.247-.251.817 0 1.412.193 1.786.58.375.386.561.892.561 1.52v3.433a.26.26 0 01-.072.185.214.214 0 01-.177.077h-.842a.235.235 0 01-.176-.077.26.26 0 01-.073-.185v-.427c-.152.233-.37.427-.654.58-.277.145-.624.218-1.039.218zm.354-1.038c.38 0 .692-.132.934-.394.243-.262.364-.645.364-1.148v-.23l-1.04.175c-.4.066-.705.172-.913.317-.201.146-.301.325-.301.536 0 .233.093.416.28.547.187.131.412.197.676.197zM27.239 20.946a.234.234 0 01-.177-.076.244.244 0 01-.062-.175v-7.26c0-.074.02-.132.062-.176a.234.234 0 01.177-.076h.478c.069 0 .124.025.166.076a.224.224 0 01.073.175v.481c.387-.56.955-.841 1.703-.841.727 0 1.27.24 1.631.721.367.481.564 1.1.592 1.859.007.08.01.204.01.372 0 .167-.003.291-.01.372-.028.75-.225 1.37-.592 1.858-.367.481-.91.722-1.63.722-.721 0-1.282-.273-1.684-.82v2.537c0 .073-.02.13-.062.175a.203.203 0 01-.166.076h-.51zm2.202-2.854c.492 0 .848-.16 1.07-.48.229-.321.353-.744.374-1.27a3.58 3.58 0 00.01-.316c0-1.378-.484-2.067-1.454-2.067-.478 0-.838.168-1.08.503-.236.328-.364.722-.385 1.181l-.01.415.01.427c.014.43.146.806.395 1.126.25.321.606.481 1.07.481zm5.897.886c-.713 0-1.284-.23-1.714-.689-.422-.466-.654-1.1-.696-1.902l-.01-.372.01-.361c.049-.787.284-1.414.707-1.88.429-.467.993-.7 1.693-.7.768 0 1.364.258 1.786.776.423.51.634 1.203.634 2.077v.186a.26.26 0 01-.073.186.218.218 0 01-.166.066h-3.594v.098c.02.474.156.878.405 1.214.257.328.592.492 1.008.492.318 0 .578-.066.779-.197.208-.139.36-.28.457-.426a.58.58 0 01.135-.154.35.35 0 01.177-.032h.509c.062 0 .114.018.155.054a.193.193 0 01.063.153c0 .16-.097.354-.291.58-.187.226-.454.423-.8.59-.34.16-.73.241-1.174.241zm1.423-3.368v-.033c0-.502-.131-.91-.394-1.224-.257-.32-.603-.481-1.04-.481-.435 0-.782.16-1.038.48-.25.314-.374.723-.374 1.225v.033h2.846zm2.469 3.259a.254.254 0 01-.177-.066.285.285 0 01-.063-.186v-5.183c0-.073.021-.131.063-.175a.234.234 0 01.176-.076h.478c.07 0 .125.025.166.076a.224.224 0 01.073.175v4.56h1.9v-4.56c0-.073.022-.131.063-.175a.234.234 0 01.177-.076h.436c.07 0 .125.025.166.076a.224.224 0 01.073.175v4.56h1.9v-4.56c0-.073.022-.131.063-.175a.234.234 0 01.177-.076h.478c.069 0 .124.025.166.076a.224.224 0 01.072.175v5.183a.26.26 0 01-.072.186.218.218 0 01-.166.066h-6.15zm10.097.109c-.714 0-1.285-.23-1.714-.689-.423-.466-.655-1.1-.696-1.902l-.01-.372.01-.361c.048-.787.283-1.414.706-1.88.43-.467.994-.7 1.693-.7.769 0 1.364.258 1.787.776.422.51.633 1.203.633 2.077v.186a.26.26 0 01-.072.186.218.218 0 01-.166.066h-3.594v.098c.02.474.155.878.405 1.214.256.328.592.492 1.007.492.319 0 .578-.066.78-.197.207-.139.36-.28.456-.426a.58.58 0 01.135-.154.35.35 0 01.177-.032h.509c.062 0 .114.018.156.054a.193.193 0 01.062.153c0 .16-.097.354-.29.58-.188.226-.454.423-.8.59-.34.16-.731.241-1.174.241zm1.423-3.368v-.033c0-.502-.132-.91-.395-1.224-.256-.32-.602-.481-1.039-.481-.436 0-.782.16-1.039.48-.249.314-.373.723-.373 1.225v.033h2.846zm2.467 3.259a.254.254 0 01-.176-.066.284.284 0 01-.063-.186v-5.183c0-.073.021-.131.063-.175a.234.234 0 01.176-.076h.499c.07 0 .125.025.166.076a.224.224 0 01.073.175v2.1h2.825v-2.1c0-.073.021-.131.063-.175a.234.234 0 01.176-.076h.489c.069 0 .124.025.166.076a.224.224 0 01.072.175v5.183a.26.26 0 01-.072.186.218.218 0 01-.166.066h-.489a.254.254 0 01-.176-.066.284.284 0 01-.063-.186v-2.209h-2.825v2.209a.26.26 0 01-.073.186.218.218 0 01-.166.066h-.499zM63.9 13.183c.056 0 .104.021.146.065a.202.202 0 01.072.153v5.216a.262.262 0 01-.072.186.22.22 0 01-.167.066h-.488a.252.252 0 01-.176-.066.282.282 0 01-.063-.186v-3.97l-2.877 4.057c-.077.11-.167.165-.27.165h-.468a.241.241 0 01-.166-.066.256.256 0 01-.062-.164v-5.205c0-.073.02-.131.062-.175a.234.234 0 01.176-.076h.499c.07 0 .125.025.166.076a.223.223 0 01.073.175v3.947l2.867-4.034c.076-.11.166-.164.27-.164h.478zm6.33 0c.055 0 .104.022.145.065a.2.2 0 01.073.153v5.216a.26.26 0 01-.073.186.218.218 0 01-.166.066h-.488a.255.255 0 01-.177-.066.285.285 0 01-.062-.186v-3.97l-2.877 4.057c-.077.11-.166.165-.27.165h-.468a.241.241 0 01-.166-.066.253.253 0 01-.062-.164v-5.205c0-.073.02-.131.062-.175a.234.234 0 01.177-.076h.498c.07 0 .125.025.166.076a.223.223 0 01.073.175v3.947l2.867-4.034c.076-.11.166-.164.27-.164h.478zm-2.16-.755c-.554 0-.953-.127-1.195-.383-.243-.255-.364-.583-.364-.983 0-.059.017-.106.052-.143a.174.174 0 01.145-.065h.354c.062 0 .11.022.145.065a.197.197 0 01.052.143c0 .459.27.688.81.688s.81-.23.81-.688c0-.059.018-.106.052-.143a.174.174 0 01.146-.065h.363c.063 0 .111.022.146.065a.2.2 0 01.052.143c0 .393-.125.721-.374.984-.242.255-.64.382-1.195.382z" fill="#111"/></svg>