<svg width="100" height="31" fill="none" xmlns="http://www.w3.org/2000/svg"><g clip-path="url(#clip0_1_734)" fill="#383838"><path d="M13.227 26.268h1.204v-5.34h6.42v-1.151h-6.42v-4.08h7.063v-1.145h-8.267v11.716zm46.917-10.571h4.464v10.571h1.204V15.697h4.465v-1.145H60.144v1.145zM76.285 26.24h8.268v-1.145H77.49v-4.197h6.42v-1.145h-6.42v-4.08h7.064V14.53h-8.268v11.71zm20.213-5.393a3.423 3.423 0 001.788-1.017c.566-.615.87-1.417.853-2.243a3.14 3.14 0 00-.25-1.315 3.217 3.217 0 00-.776-1.103 3.586 3.586 0 00-1.184-.726 3.661 3.661 0 00-1.379-.227h-4.965V25.95h1.192v-4.993h3.44l3.135 4.993h1.365l-3.22-5.103zm-4.739-1.035v-4.451h3.767a2.407 2.407 0 011.723.633c.428.425.668.997.668 1.593 0 .595-.24 1.167-.668 1.592-.23.212-.5.377-.796.485-.296.11-.61.16-.927.148H91.76zm-41.981-.244a6.116 6.116 0 01-2.498-.837 1.459 1.459 0 01-.442-.562 1.421 1.421 0 01-.118-.7c0-1.19 1.013-1.87 2.778-1.87 2.336 0 2.915 1.051 3.153 1.958v.081h1.192v-.116c-.077-.698-.638-2.964-4.303-2.964-2.385 0-4.018 1.197-4.018 2.987 0 1.674 1.09 2.528 3.904 3.074 2.98.582 3.511 1.326 3.511 2.523 0 1.354-1.192 2.133-3.195 2.133s-3.153-.785-3.576-2.389v-.081h-1.192v.122c.363 2.138 2.098 3.365 4.768 3.365 3.273 0 4.44-1.663 4.44-3.232 0-1.569-.792-2.795-4.404-3.492z"/><path d="M33.523 14.575v-4.358L17.363.713 0 10.216v20.498h33.523v-4.48a6.064 6.064 0 003.857-1.899 5.776 5.776 0 001.554-3.93 5.777 5.777 0 00-1.554-3.932 6.064 6.064 0 00-3.857-1.898zm-1.192 14.971H1.192V10.88l16.166-8.805 14.973 8.8v3.701a6.064 6.064 0 00-3.857 1.898 5.777 5.777 0 00-1.554 3.931c0 1.453.554 2.854 1.554 3.931a6.064 6.064 0 003.857 1.899v3.312zm1.192-4.48a5.278 5.278 0 01-1.192 0 4.847 4.847 0 01-2.986-1.56 4.622 4.622 0 01-1.192-3.09c0-1.137.424-2.236 1.192-3.09a4.848 4.848 0 012.986-1.56 4.828 4.828 0 011.192.007c1.149.158 2.2.716 2.96 1.57a4.628 4.628 0 011.18 3.079 4.628 4.628 0 01-1.18 3.078 4.852 4.852 0 01-2.96 1.571v-.006z"/></g><defs><clipPath id="clip0_1_734"><path fill="#fff" transform="translate(0 .714)" d="M0 0h100v30H0z"/></clipPath></defs></svg>