<svg width="93" height="26" fill="none" xmlns="http://www.w3.org/2000/svg"><path fill-rule="evenodd" clip-rule="evenodd" d="M2.589 9.954s.504 3.191 1.93 5.776c1.427 2.58 1.986 3.178 1.986 3.178l-1.261 6.154s-2.134-3.411-3.937-7.271C-.496 13.926.091 11.645.091 11.645l2.502-1.687-.004-.004z" fill="url(#paint0_linear_1_599)"/><path fill-rule="evenodd" clip-rule="evenodd" d="M17.54 10.12l-.305 1.434c-.625 3.261-1.96 9.536-2.229 10.8l3.63-1.297s.385-.117.952-.37l1.844-8.996c.016-.08.029-.158.041-.229.161-.902.467-2.115.728-3.395.285-1.666.376-3.266-.161-4.313.17-.257.36-.498.558-.719-.194-1.08-.699-1.886-1.733-2.135a2.01 2.01 0 00-1.178.062l.1-.013c-.489.175-.927.516-1.308.952.348 1.421.058 3.428-.322 5.29a51.945 51.945 0 01-.608 2.929h-.008z" fill="url(#paint1_linear_1_599)"/><path fill-rule="evenodd" clip-rule="evenodd" d="M13.476 9.28c.083-.361.17-.735.252-1.117.484-2.78.559-5.58-1.546-6.092a2.043 2.043 0 00-1.179.058l.1-.012c-.72.257-1.32.86-1.811 1.604.893 1.724.153 5.015-.43 7.566l-3.019 14.34 4.536-1.62 3.101-14.73-.004.004z" fill="url(#paint2_linear_1_599)"/><path fill-rule="evenodd" clip-rule="evenodd" d="M12.794 12.63c-.509 2.834-2.068 10.143-2.324 11.348l4.478-1.604 2.287-10.825c.066-.349.128-.665.174-.93.165-.915.471-2.14.74-3.429.293-1.782.392-3.532-.178-4.637.153-.232.323-.453.5-.652C18.24.97 17.735.289 16.801.06a2.024 2.024 0 00-1.183.062l.1-.012c-.72.258-1.316.864-1.812 1.604.77 1.483.331 4.118-.178 6.449-.289 1.662-.727 3.312-.934 4.47v-.003z" fill="url(#paint3_linear_1_599)"/><path fill-rule="evenodd" clip-rule="evenodd" d="M21.515 11.263l-.087.424c-.393 2.144-1.274 6.361-1.832 8.992.798-.358 1.956-.985 2.944-1.945 1.696-1.654 2.858-6.146 2.858-6.146l.07.054c.579-3.125 2.79-9.727-.542-10.538a2.009 2.009 0 00-1.178.059l.099-.013c-.463.17-.885.482-1.253.885.248 1.409-.033 3.283-.393 5.028-.186 1.085-.45 2.194-.682 3.2h-.004z" fill="url(#paint4_linear_1_599)"/><path fill-rule="evenodd" clip-rule="evenodd" d="M19.778.95l-3.122.373c-3.35-.303-5.194 8.651-5.194 8.651l4.102-.502.05-.241s1.538-7.339 4.164-8.282z" fill="url(#paint5_linear_1_599)"/><path fill-rule="evenodd" clip-rule="evenodd" d="M12.393 2.067l-3.122.374c-3.35-.303-5.194 8.651-5.194 8.651l4.102-.503.05-.24s1.538-7.339 4.164-8.282z" fill="url(#paint6_linear_1_599)"/><path fill-rule="evenodd" clip-rule="evenodd" d="M23.842 2.15l-3.121.374c-3.35-.303-4.607 6.408-4.607 6.408l4.102-.503-.05.24s1.05-5.571 3.676-6.519z" fill="url(#paint7_linear_1_599)"/><path fill-rule="evenodd" clip-rule="evenodd" d="M15.717.106L12.595.48C9.246.176 6.641 11.475 6.641 11.475l3.978-.528.65-2.48s1.823-7.418 4.448-8.361z" fill="url(#paint8_linear_1_599)"/><path fill-rule="evenodd" clip-rule="evenodd" d="M34.32 12.715V6.299c0-.507.161-.922.48-1.246.318-.32.723-.482 1.216-.482 1.682 0 2.877.041 3.576.128l-.082 1.318h-2.77c-.228 0-.39.05-.489.145-.1.1-.145.266-.145.499v6.05H34.32v.004zm10.908-2.127h-2.77l-.583 2.127H40.05l2.328-7.637a.579.579 0 01.223-.341.64.64 0 01.397-.129h1.683c.335 0 .542.158.62.47l2.328 7.637h-1.815l-.583-2.127h-.004zM44.844 9.2l-.679-2.481A9.65 9.65 0 0144 5.954h-.314l-.083.374c-.037.175-.07.304-.09.387l-.679 2.48h2.014l-.004.005zm10.407-4.592h1.72c.422 0 .641.225.666.67l.302 7.437h-1.683L56 6.005h-.211l-1.216 5.015c-.078.386-.318.577-.715.577h-1.17c-.397 0-.641-.19-.736-.577l-1.228-5.016h-.199l-.232 6.711h-1.67l.294-7.438c.016-.449.24-.669.665-.669h1.72c.373 0 .608.191.7.574l.98 4.043c.032.158.074.374.123.656.05.283.083.445.087.482h.153c.008-.037.037-.2.087-.482.05-.282.09-.503.124-.656l.972-4.043c.087-.383.326-.574.727-.574h-.004zm10.979 0h1.72c.421 0 .64.225.665.67l.306 7.437h-1.683l-.256-6.71h-.21l-1.217 5.015c-.078.386-.314.577-.71.577h-1.17c-.398 0-.642-.19-.737-.577L61.71 6.004h-.199l-.231 6.711h-1.675l.294-7.438c.016-.449.24-.669.666-.669h1.72c.372 0 .608.191.699.574l.984 4.043.124.656c.05.283.078.445.087.482h.153c.008-.037.037-.2.086-.482.054-.282.091-.503.124-.656l.972-4.043c.087-.383.327-.574.728-.574h-.013zm8.852 5.98h-2.77l-.583 2.127h-1.828l2.328-7.637a.572.572 0 01.22-.341.64.64 0 01.397-.129h1.682c.335 0 .542.158.62.47l2.325 7.637H75.66l-.583-2.127h.004zM74.698 9.2l-.678-2.481a8.93 8.93 0 01-.161-.765h-.319c-.016.08-.041.204-.083.374-.037.175-.07.304-.09.387l-.679 2.48h2.014l-.004.005z" fill="#FAFAFA"/><path d="M81.947 9.154H78.46v1.139h3.486v-1.14z" fill="#FAFAFA"/><path fill-rule="evenodd" clip-rule="evenodd" d="M90.237 4.608h1.72c.422 0 .645.225.666.67l.306 7.437h-1.683l-.26-6.71h-.211l-1.216 5.015c-.079.386-.314.577-.711.577h-1.17c-.397 0-.641-.19-.736-.577l-1.229-5.016h-.198l-.236 6.711h-1.674l.293-7.438c.017-.449.24-.669.666-.669h1.72c.372 0 .608.191.703.574l.98 4.043c.033.158.07.374.124.656.05.283.079.445.087.482h.153c.008-.037.037-.2.087-.482.05-.282.09-.503.124-.656l.971-4.043c.087-.383.327-.574.724-.574zM47.726 16.67H46.53v2.843h-.575v-2.842h-1.203v-.478h2.973v.478zm3.614 2.843h-.521v-2.202c0-.054 0-.137.008-.241.008-.108.008-.175.008-.2h-.012a1.62 1.62 0 01-.232.387l-1.683 2.256h-.475v-3.32h.52v2.202c0 .133-.003.279-.02.445h.013c.074-.15.153-.279.24-.382l1.678-2.26h.467v3.32l.009-.005zm3.907-3.32v3.32h-.57v-2.85H52.98v2.85h-.562v-3.32h2.828zm2.473-.083c.566 0 .967.133 1.199.395.236.261.352.714.352 1.35 0 .636-.116 1.085-.352 1.35-.236.262-.637.395-1.2.395-.562 0-.97-.133-1.207-.395-.235-.265-.351-.714-.351-1.35 0-.636.116-1.084.351-1.35.236-.262.637-.395 1.208-.395zm0 .49c-.364 0-.616.087-.753.266-.132.179-.202.507-.202.99 0 .481.07.81.202.988.137.179.389.266.753.266s.612-.087.748-.266c.137-.179.203-.507.203-.989s-.07-.81-.203-.989c-.136-.174-.384-.266-.748-.266zm2.456 2.913v-2.61c0-.481.244-.723.732-.723.79 0 1.369.017 1.728.055l-.02.407h-1.472c-.14 0-.24.033-.306.1-.062.066-.095.17-.095.311v2.46h-.571.004zm3.622-3.32l.046.532a1.97 1.97 0 011.368-.611c.397 0 .687.146.869.436.182.291.273.732.273 1.322 0 .627-.1 1.072-.298 1.334-.198.261-.517.39-.951.39-.434 0-.852-.112-1.22-.34.017.19.02.41.013.668v.96h-.571v-4.687h.467l.004-.004zm.1.935v1.758c.463.137.814.203 1.058.203.298 0 .504-.083.624-.253.12-.166.178-.49.178-.968s-.053-.79-.165-.973c-.112-.187-.298-.278-.558-.278-.302 0-.683.17-1.133.511h-.005zm3.398-.436l-.053-.433c.616-.1 1.15-.15 1.6-.15.385 0 .67.08.852.242.182.162.273.436.273.823v2.339h-.455l-.07-.544a2.24 2.24 0 01-.592.428c-.24.12-.496.183-.769.183-.302 0-.541-.08-.72-.241-.177-.163-.264-.391-.264-.686v-.362c0-.257.083-.46.24-.602.161-.146.384-.216.678-.216h1.377v-.291c-.004-.208-.054-.357-.149-.445-.095-.087-.269-.128-.52-.128-.324 0-.795.029-1.423.087l-.005-.004zm.385 1.674v.212c0 .175.041.3.128.378.083.08.215.12.389.12.178.005.372-.037.591-.124.22-.087.418-.212.604-.374v-.669h-1.274c-.29.013-.434.166-.434.457h-.004zm5.512-3.627v1.375c.645.025 1.108.175 1.385.445.277.266.414.698.414 1.292 0 .594-.137 1.018-.414 1.288-.277.27-.736.416-1.385.445v1.296h-.534v-1.296c-.649-.03-1.112-.175-1.385-.445-.277-.27-.413-.698-.413-1.288 0-.59.136-1.026.413-1.292.277-.27.74-.416 1.385-.445v-1.375h.534zm-.517 4.354V16.6c-.471.021-.798.125-.984.312-.186.183-.277.498-.277.943 0 .445.09.752.277.935.186.183.513.283.984.308v-.005zm.496-2.493v2.493c.463-.025.79-.124.976-.307.186-.183.277-.495.277-.935 0-.44-.095-.752-.277-.94-.186-.186-.513-.29-.976-.315v.004zm5.628 2.913h-.521v-2.202c0-.054 0-.137.012-.241.005-.108.013-.175.013-.2h-.013c-.05.125-.128.254-.231.387l-1.683 2.256H75.9v-3.32h.521v2.202c0 .133-.008.279-.02.445h.012c.07-.15.149-.279.24-.382l1.679-2.26h.467v3.32-.005zm1.757-1.417v-.029c-.265-.037-.459-.129-.579-.282-.12-.154-.173-.366-.173-.645 0-.328.09-.573.272-.735.182-.166.5-.245.956-.245.645 0 1.133.016 1.46.046v3.307h-.563v-1.226h-.89c-.322 0-.512.113-.574.341l-.252.885h-.596l.298-.997c.079-.245.29-.387.645-.424l-.004.004zm1.369-.245v-1.222h-.881c-.265 0-.447.046-.538.133-.095.088-.14.245-.14.466 0 .22.05.394.149.486.095.091.28.137.55.137h.86z" fill="#FAFAFA"/><defs><linearGradient id="paint0_linear_1_599" x1="-.004" y1="13.802" x2="7.149" y2="20.498" gradientUnits="userSpaceOnUse"><stop stop-color="#C2E1F5"/><stop offset="1" stop-color="#00A4E4"/></linearGradient><linearGradient id="paint1_linear_1_599" x1="13.968" y1="19.993" x2="23.373" y2="3.977" gradientUnits="userSpaceOnUse"><stop stop-color="#F7BE12"/><stop offset="1" stop-color="#E45D4F"/></linearGradient><linearGradient id="paint2_linear_1_599" x1="4.611" y1="22.681" x2="14.857" y2="5.564" gradientUnits="userSpaceOnUse"><stop stop-color="#00A4E4"/><stop offset="1" stop-color="#3B529C"/></linearGradient><linearGradient id="paint3_linear_1_599" x1="8.899" y1="21.036" x2="19.714" y2="3.614" gradientUnits="userSpaceOnUse"><stop stop-color="#EA88AD"/><stop offset="1" stop-color="#BE3A8A"/></linearGradient><linearGradient id="paint4_linear_1_599" x1="18.769" y1="18.219" x2="26.46" y2="4.027" gradientUnits="userSpaceOnUse"><stop stop-color="#FFE600"/><stop offset="1" stop-color="#EFA035"/></linearGradient><linearGradient id="paint5_linear_1_599" x1="16.61" y1=".999" x2="14.607" y2="9.916" gradientUnits="userSpaceOnUse"><stop stop-color="#F0A435"/><stop offset="1" stop-color="#E45D4F"/></linearGradient><linearGradient id="paint6_linear_1_599" x1="9.229" y1="2.117" x2="7.222" y2="11.034" gradientUnits="userSpaceOnUse"><stop stop-color="#C2E1F5"/><stop offset="1" stop-color="#00A4E4"/></linearGradient><linearGradient id="paint7_linear_1_599" x1="20.592" y1="2.134" x2="19.352" y2="8.95" gradientUnits="userSpaceOnUse"><stop stop-color="#FFE600"/><stop offset="1" stop-color="#F6B723"/></linearGradient><linearGradient id="paint8_linear_1_599" x1="12.595" y1=".259" x2="9.728" y2="11.318" gradientUnits="userSpaceOnUse"><stop stop-color="#EEB2C8"/><stop offset="1" stop-color="#E30D7C"/></linearGradient></defs></svg>