<svg width="72" height="74" fill="none" xmlns="http://www.w3.org/2000/svg"><path fill-rule="evenodd" clip-rule="evenodd" d="M61.066 16.907l6.309 1.593-1.787 6.293.687.256c.37-.744 1.475-.066.99.606l.181.159c.534-.5 1.215.23.906.726v.377c.694-.195 1.046.926.291 1.131l.033.164c.822-.19.983 1.142.135 1.155a18.61 18.61 0 01-.145 3.04c-.408 3.522 2.66 3.868 2.667 3.868a.438.438 0 01.381.438.442.442 0 01-.381.437s-3.075.35-2.667 3.869a18.61 18.61 0 01.145 3.04c.848 0 .687 1.342-.135 1.154l-.033.164c.766.206.403 1.327-.29 1.132v.377c.308.495-.373 1.224-.907.726l-.181.159c.485.672-.618 1.35-.99.605l-.687.257 1.787 6.293-6.312 1.598.125.724c.827-.05.794 1.251-.025 1.162l-.046.238c.796.257.306 1.46-.434 1.078l-.13.202c.643.513-.189 1.45-.766.878l-.125.11c.572.631-.495 1.424-.926.695a18.243 18.243 0 01-2.692 1.393c-3.18 1.38-2.042 4.149-2.001 4.254a.446.446 0 01-.164.605.44.44 0 01-.602-.164s-1.837-2.504-4.668-.388a18.362 18.362 0 01-2.552 1.647c.416.745-.814 1.27-1.061.46l-.159.051c.207.788-1.02 1.026-1.138.226h-.24c-.043.836-1.332.651-1.146-.162l-.23-.08c-.334.77-1.47.137-1.02-.559l-.562-.47L36 73.144v-1.186a39.21 39.21 0 009.498-13.306l-.219-.223-1.718.29a38.096 38.096 0 01-1.674 3.447l-.298.534a35.074 35.074 0 01-5.275 7.037l-.314.31v-1.265a34.306 34.306 0 004.849-6.557 18.51 18.51 0 00-1.532-1.572l-.201-1.198c.53-.98 1.62-.993 2.552-.911l-1.672-2.309a36.314 36.314 0 01-3.218 3.312c.804 1.09 1.75 3.415 1.75 4.546a2.554 2.554 0 01-.742 1.796 2.528 2.528 0 01-1.786.746v-.882a1.642 1.642 0 001.526-1.024c.083-.202.125-.418.125-.636l-1.531-3.966-.125.108v-1.458l.107.08a35.245 35.245 0 004.943-5.562 19.233 19.233 0 00-5.007-5.644l-.04.031-.042-.03a19.235 19.235 0 00-5.007 5.643 35.264 35.264 0 004.943 5.562l.108-.08v1.44l-.125-.108-1.532 3.966a1.666 1.666 0 00.483 1.174 1.648 1.648 0 001.169.486v.882a2.528 2.528 0 01-1.787-.746 2.555 2.555 0 01-.742-1.796c0-1.134.946-3.456 1.75-4.546a36.308 36.308 0 01-3.215-3.307l-1.672 2.31c.929-.083 2.019-.07 2.552.91l-.199 1.21a18.54 18.54 0 00-1.531 1.573A34.306 34.306 0 0036 68.781v1.265l-.314-.323a35.066 35.066 0 01-5.275-7.037l-.299-.533a38.056 38.056 0 01-1.674-3.448l-1.718-.29-.22.223A39.213 39.213 0 0036 71.95v1.193l-4.533-4.695-.571.462c.454.695-.682 1.316-1.021.559l-.23.08c.186.813-1.102.997-1.146.161h-.24c-.107.81-1.345.562-1.138-.226l-.158-.05c-.255.81-1.478.284-1.062-.46a18.355 18.355 0 01-2.552-1.647c-2.83-2.117-4.66.382-4.668.387a.442.442 0 11-.765-.441c.043-.105 1.179-2.873-2.001-4.253a18.272 18.272 0 01-2.692-1.393c-.432.728-1.498-.065-.927-.696l-.125-.11c-.574.572-1.406-.377-.765-.877l-.13-.203c-.74.382-1.23-.834-.434-1.077l-.046-.239c-.82.087-.853-1.213-.026-1.162l.125-.724-6.27-1.61 1.786-6.294-.686-.256c-.37.744-1.475.067-.99-.605l-.182-.16c-.533.5-1.214-.23-.906-.726v-.377c-.694.195-1.046-.926-.29-1.131l-.034-.164c-.822.19-.982-1.142-.135-1.155a18.601 18.601 0 01.145-3.04C3.742 37.5.674 37.153.667 37.153a.438.438 0 01-.382-.438.442.442 0 01.382-.437s3.065-.349 2.666-3.871a18.6 18.6 0 01-.145-3.04c-.847 0-.687-1.342.135-1.155l.033-.164c-.765-.205-.403-1.326.291-1.131v-.377c-.308-.495.373-1.226.906-.726l.181-.16c-.484-.671.618-1.349.99-.605l.687-.256L4.625 18.5l6.311-1.598-.128-.711c-.826.049-.793-1.252.026-1.162l.046-.239c-.796-.243-.306-1.46.434-1.077l.13-.203c-.643-.513.189-1.45.765-.877l.126-.11c-.572-.632.495-1.424.926-.696a18.257 18.257 0 012.692-1.393c3.18-1.38 2.042-4.148 2.001-4.253a.445.445 0 01.163-.606.44.44 0 01.603.165s1.837 2.503 4.667.387A18.384 18.384 0 0125.94 4.48c-.416-.744.815-1.27 1.062-.46l.158-.05c-.206-.788 1.021-1.027 1.139-.226h.24c.043-.837 1.332-.652 1.145.161l.23.08c.334-.77 1.47-.136 1.02.56l.562.469L36 .286V1.47a39.214 39.214 0 00-9.5 13.306l.22.224 1.718-.29a38.056 38.056 0 011.674-3.448l.299-.534a35.067 35.067 0 015.275-7.037l.314-.31v1.265a34.308 34.308 0 00-4.85 6.557l1.846 2.075c.186.837-.863 1.65-1.832 1.65-.256 0-.557-.018-.838-.041l1.672 2.309a36.281 36.281 0 013.223-3.315c-.804-1.09-1.75-3.414-1.75-4.546a2.554 2.554 0 01.745-1.79A2.528 2.528 0 0136 6.805v.883a1.641 1.641 0 00-1.169.485 1.659 1.659 0 00-.483 1.174l1.532 3.967.125-.108v1.447l-.107-.08a35.25 35.25 0 00-4.944 5.562 19.236 19.236 0 005.007 5.644l.041-.031.041.03a19.236 19.236 0 005.007-5.643 35.245 35.245 0 00-4.943-5.562l-.107.08v-1.447l.125.108 1.531-3.967a1.665 1.665 0 00-.485-1.176A1.648 1.648 0 0036 7.687v-.883c.67.002 1.313.27 1.786.746a2.56 2.56 0 01.743 1.796c0 1.134-.947 3.456-1.75 4.546a36.308 36.308 0 013.215 3.307l1.671-2.309c-.28.026-.569.041-.837.041-.97 0-2.019-.813-1.832-1.65l1.853-2.08a34.309 34.309 0 00-4.85-6.554V3.382l.315.323a35.07 35.07 0 015.275 7.034l.298.534a38.083 38.083 0 011.674 3.448l1.718.29.22-.223a39.212 39.212 0 00-9.5-13.31V.286l4.533 4.694.572-.462c-.454-.695.681-1.316 1.02-.559l.23-.08c-.186-.813 1.103-.997 1.146-.161h.24c.107-.81 1.345-.562 1.138.226l.158.051c.256-.81 1.478-.285 1.062.46A18.362 18.362 0 0148.65 6.1c2.83 2.117 4.66-.382 4.668-.387a.442.442 0 11.766.441c-.044.105-1.18 2.873 2 4.254a18.11 18.11 0 012.693 1.393c.431-.729 1.498.064.926.695l.125.11c.574-.572 1.406.377.766.878l.13.202c.74-.382 1.23.834.434 1.078l.046.238c.819-.087.852 1.214.025 1.162l-.125.724-.038.018zm-24.3 30.277l2.005 1.705c-.27-.57-.526-1.14-.765-1.706h-1.24zm.711-1.401H66.97v-18.14H5.03v18.142h32.441l.005-.002zm1.68 1.4c.562 1.31 1.2 2.586 1.911 3.82a34.273 34.273 0 004.581 6.28l.495.514c.545.272.997.7 1.3 1.23a18.21 18.21 0 002.426 1.822 18.426 18.426 0 00-.355-3.022 3.112 3.112 0 01-.41-1.75l-.2-.69a34.365 34.365 0 00-3.126-7.129 39.238 39.238 0 00-.646-1.08h-1.46c.351.546.697 1.113 1.037 1.701 1.978 3.443 3.218 6.786 3.511 9.11-1.857-1.419-4.116-4.171-6.091-7.614a37.486 37.486 0 01-1.644-3.2H39.15l.008.009zm7.618 0c.311.76.67 1.498 1.076 2.212a34.998 34.998 0 007.146-1.506l-.033-.12.171-.075a54.825 54.825 0 00-.115-.513h-2.863a18.092 18.092 0 01-3.522.408h-.255l-.128-.234-.097-.177H46.77l.006.006zm9.225 0l.056.257a9.259 9.259 0 011.955.028c1.118.12 2.274.393 2.838.721a2.541 2.541 0 011.179 1.544 2.555 2.555 0 01-.253 1.93 2.531 2.531 0 01-1.535 1.185 2.518 2.518 0 01-1.92-.254c-.538-.313-1.248-1.093-1.866-1.942a12.21 12.21 0 01-1.133-1.868c-1.472.483-2.974.87-4.496 1.16l1.158 2.614c.118-.257.255-.513.383-.75.228-.388.573-.693.985-.871a1.68 1.68 0 01.692-.144.99.99 0 01.658.257l.02.018a.88.88 0 01.256.513c.155.715.353 1.421.592 2.113a33.97 33.97 0 008.07-.939 34.006 34.006 0 00-2.19-5.564h-5.456l.007-.008zm6.421 0a34.673 34.673 0 012.182 5.762l.12.436-.436.11a34.728 34.728 0 01-8.7 1.076.43.43 0 01-.399.11.439.439 0 01-.209-.115 37.178 37.178 0 01-3.805-.257 2.22 2.22 0 00-1.107 1.352l.081.303.388.04a38.838 38.838 0 0015.823-1.657 39.483 39.483 0 00-2.287-7.16h-1.659.008zm2.613 0c.089.212.174.425.256.637.27-.167.793-.275 1.304-.636h-1.565.005zm3.333-9.166a3.718 3.718 0 011.532-1.306 3.72 3.72 0 01-1.532-1.305v2.611zm-1.77-11.777c-.511-.362-1.022-.47-1.305-.637a46.96 46.96 0 01-.255.637h1.562-.003zm-2.514 0a39.521 39.521 0 002.279-7.145 38.835 38.835 0 00-15.823-1.657l-.388.04-.082.303a2.232 2.232 0 001.108 1.353 37.178 37.178 0 013.805-.257.438.438 0 01.607-.005c2.934-.01 5.857.35 8.7 1.075l.429.092-.12.436a34.706 34.706 0 01-2.182 5.76h1.656l.01.005zm-2.64 0a34.01 34.01 0 002.19-5.562 33.98 33.98 0 00-8.07-.94 18.617 18.617 0 00-.591 2.115.877.877 0 01-.255.513l-.021.018a.99.99 0 01-.658.256 1.68 1.68 0 01-.692-.143 2.112 2.112 0 01-.985-.872c-.133-.234-.255-.493-.383-.75L50.82 23.49c1.523.29 3.024.677 4.497 1.16.322-.655.7-1.28 1.133-1.868.618-.851 1.327-1.629 1.866-1.942a2.518 2.518 0 011.92-.253c.648.174 1.2.6 1.535 1.185.336.584.426 1.278.253 1.93a2.541 2.541 0 01-1.18 1.543c-.566.329-1.72.6-2.837.721a9.271 9.271 0 01-1.955.028l-.056.257h5.446l.003-.01zm-6.415 0l.115-.513-.171-.075.033-.12a35.011 35.011 0 00-7.146-1.506 19.28 19.28 0 00-1.074 2.211h1.38l.095-.177.127-.233h.256c.758.015 1.515.076 2.266.182.423.06.84.134 1.248.223h2.87v.008zm-9.887 0a31.7 31.7 0 00.643-1.08 34.37 34.37 0 003.119-7.127l.199-.69a3.112 3.112 0 01.41-1.75c.202-.995.32-2.006.356-3.022a18.305 18.305 0 00-2.427 1.822c-.303.53-.755.958-1.3 1.231l-.494.513a34.276 34.276 0 00-4.587 6.288 36.5 36.5 0 00-1.911 3.817h1.337a39.42 39.42 0 011.644-3.196c1.978-3.443 4.236-6.196 6.094-7.625-.293 2.327-1.531 5.67-3.512 9.11-.34.588-.684 1.155-1.033 1.7h1.46l.002.009zm-7.117 0c.255-.603.495-1.178.745-1.704l-2.004 1.706h1.258v-.002zm-32.61 0h1.561a22.24 22.24 0 01-.255-.637c-.27.167-.791.275-1.304.637h-.003zm2.513 0h1.659a34.708 34.708 0 01-2.182-5.76l-.123-.441.437-.11a34.736 34.736 0 018.7-1.075.432.432 0 01.398-.11.439.439 0 01.21.115c1.271.02 2.541.106 3.804.256a2.22 2.22 0 001.108-1.351l-.08-.29-.387-.041A38.834 38.834 0 005.648 19.09a39.53 39.53 0 002.28 7.152v-.002zm2.639 0h5.44l-.055-.257c-.651.06-1.306.05-1.955-.028-1.118-.12-2.274-.393-2.838-.721a2.541 2.541 0 01-1.179-1.544 2.555 2.555 0 01.253-1.93 2.519 2.519 0 013.455-.931c.539.313 1.248 1.093 1.866 1.942.432.587.811 1.212 1.133 1.868a36.01 36.01 0 014.497-1.16l-1.16-2.611c-.12.256-.254.513-.382.749-.23.39-.58.694-.995.87a1.679 1.679 0 01-.692.143.99.99 0 01-.658-.256l-.018-.018a.874.874 0 01-.255-.514 18.644 18.644 0 00-.593-2.113 33.974 33.974 0 00-8.059.951 34.019 34.019 0 002.19 5.562l.005-.002zm6.416 0h2.866c.408-.09.824-.164 1.248-.224a18.974 18.974 0 012.266-.182h.255l.128.234.094.177h1.38c-.31-.76-.669-1.498-1.074-2.212A35.018 35.018 0 0017 25.54l.033.12-.171.075c.037.171.076.342.115.513l.005-.007zm9.886 0h1.46a38.676 38.676 0 01-1.033-1.701c-1.983-3.438-3.224-6.78-3.52-9.118 1.858 1.419 4.117 4.172 6.092 7.614a38.58 38.58 0 011.644 3.197h1.337a36.46 36.46 0 00-1.912-3.817 34.273 34.273 0 00-4.58-6.28l-.496-.514a3.087 3.087 0 01-1.299-1.231 18.327 18.327 0 00-2.427-1.821c.035 1.015.154 2.026.355 3.022.306.53.449 1.138.411 1.75l.2.69a34.366 34.366 0 003.12 7.139c.211.366.426.726.643 1.08l.005-.01zm7.118 0h1.248l-2.006-1.704c.255.529.51 1.1.745 1.704h.013zm1.248 20.944h-1.25a30.483 30.483 0 01-.766 1.705l2.006-1.706h.01zm-2.391 0h-1.338a39.904 39.904 0 01-1.643 3.199c-1.978 3.442-4.236 6.195-6.092 7.614.294-2.327 1.532-5.67 3.514-9.11.34-.589.686-1.155 1.037-1.701h-1.458c-.22.354-.434.714-.645 1.08a34.367 34.367 0 00-3.119 7.127l-.199.69a3.112 3.112 0 01-.41 1.75 18.37 18.37 0 00-.356 3.021 18.336 18.336 0 002.427-1.821c.303-.53.755-.959 1.3-1.231l.494-.514a34.273 34.273 0 004.581-6.28 36.707 36.707 0 001.912-3.82l-.005-.005zm-7.618 0h-1.38l-.098.177-.127.233h-.256a18.993 18.993 0 01-2.266-.182c-.425-.06-.844-.135-1.255-.226h-2.866c-.04.171-.078.342-.115.513l.17.075-.032.12a35.003 35.003 0 007.145 1.506 19.34 19.34 0 001.077-2.211l.003-.005zm-9.226 0h-5.438a34.006 34.006 0 00-2.19 5.564 33.97 33.97 0 008.07.939 18.82 18.82 0 00.592-2.114.876.876 0 01.255-.513l.018-.018a.99.99 0 01.658-.257 1.7 1.7 0 01.692.144c.412.178.757.483.985.872.133.234.255.493.383.75l1.159-2.615a36.01 36.01 0 01-4.497-1.16c-.322.656-.7 1.281-1.133 1.868-.618.852-1.327 1.63-1.866 1.942a2.522 2.522 0 01-3.455-.931 2.551 2.551 0 01.926-3.474c.567-.328 1.72-.6 2.838-.72a9.265 9.265 0 011.955-.029l.056-.256-.008.008zm-6.42 0H7.926a39.48 39.48 0 00-2.279 7.147 38.836 38.836 0 0015.823 1.657l.388-.041.081-.303a2.232 2.232 0 00-1.107-1.352c-1.263.15-2.533.236-3.805.257a.438.438 0 01-.608.005c-2.933.01-5.856-.35-8.7-1.075l-.439-.09.12-.436a34.674 34.674 0 012.182-5.762l-.005-.008zm-2.614 0H5.408c.51.361 1.021.469 1.304.636.085-.214.17-.426.256-.636h-.003zM3.64 38.02v-2.612a3.718 3.718 0 01-1.532 1.306A3.72 3.72 0 013.64 38.02zm6.474-6.255l-.255-.02h-.176c-.207 0-.314.061-.314.187.03.067.08.122.143.16a.49.49 0 01.143.402v8.11a4.01 4.01 0 01-.018.438.643.643 0 01-.074.256l-.2.16a.256.256 0 00-.091.215.237.237 0 00.164.249c.035.01.071.013.107.008.073-.007.147-.02.219-.036.124-.025.251-.037.378-.036h1.375a.877.877 0 01.23.036c.115.027.234.04.352.035.207 0 .314-.076.314-.23a.317.317 0 00-.127-.257 1.56 1.56 0 00-.159-.1.638.638 0 01-.043-.305v-4.47c0-.086 0-.184-.018-.294 0-.076-.005-.151-.015-.226 0-.038-.02-.087-.034-.144a.77.77 0 01-.02-.187.315.315 0 01.215-.338.31.31 0 01.142-.01.486.486 0 01.401.202c.079.124.136.26.171.403.17.784.278 1.581.322 2.383.09 1.127.135 2.037.135 2.73a.463.463 0 01-.056.274l-.143.123a.212.212 0 00-.072.167.259.259 0 00.087.187.311.311 0 00.23.087l.372-.043.386-.028h1.245l.286.048c.084.015.17.023.255.023a.452.452 0 00.23-.05.206.206 0 00.087-.196.185.185 0 00-.092-.19 1.02 1.02 0 01-.166-.092.424.424 0 01-.115-.257 7.48 7.48 0 01-.1-.93c0-.278-.015-.62-.015-1.027a9.074 9.074 0 00-.4-2.86 12.935 12.935 0 00-.746-1.604 3.629 3.629 0 01-.237-.564 1.543 1.543 0 01-.064-.447.734.734 0 01.158-.5.438.438 0 01.314-.18c.09.012.177.041.256.088a.67.67 0 00.285.087.718.718 0 00.727-.772.82.82 0 00-.255-.654.863.863 0 00-.584-.21 1.144 1.144 0 00-1.02.577c-.174.3-.295.63-.358.972a3.995 3.995 0 01-.327.987 1.792 1.792 0 01-.865.806.595.595 0 01-.222.044.407.407 0 01-.24-.072.32.32 0 01-.127-.172.628.628 0 01-.029-.16v-2.087a.67.67 0 01.026-.188.313.313 0 01.095-.143.309.309 0 00.15-.231.145.145 0 00-.071-.162.658.658 0 00-.212-.028l-.27.028-.284.029h-1.386zm9.698-.159c-.927 0-1.672.447-2.236 1.34-.563.892-.844 2.09-.844 3.591 0 1.459.215 2.64.645 3.543a3.475 3.475 0 001.404 1.57 2.65 2.65 0 001.317.346 2.543 2.543 0 001.49-.513 3.427 3.427 0 001.261-1.988c.204-.912.293-1.846.265-2.78a10.12 10.12 0 00-.17-1.99 4.493 4.493 0 00-1.004-2.203 2.696 2.696 0 00-.967-.682 3.011 3.011 0 00-1.166-.223l.005-.01zm-.4 2.132v6.611c-.014.308.062.614.216.88a.673.673 0 00.595.346.436.436 0 00.347-.128.386.386 0 00.117-.256 1.19 1.19 0 00-.063-.36 5.19 5.19 0 01-.09-.318 4.538 4.538 0 01-.076-1.026v-6.18a1.987 1.987 0 00-.179-1.008.588.588 0 00-.51-.274.529.529 0 00-.393.136.428.428 0 00-.136.31c.058.144.099.254.123.33.025.084.043.17.05.257.011.096.016.322.016.678l-.018.002zm5.47-1.154a5.718 5.718 0 00-.765 2.1 10.146 10.146 0 00-.143 1.74c0 1.755.32 3.145.96 4.172.563.9 1.25 1.35 2.062 1.352.476.004.934-.18 1.276-.514.373-.342.559-.684.559-1.026a.732.732 0 00-.122-.43.416.416 0 00-.366-.185.507.507 0 00-.436.2.73.73 0 00-.15.446.988.988 0 00.028.187.98.98 0 01.028.188.873.873 0 01-.14.497.432.432 0 01-.378.208.529.529 0 01-.51-.215 1.315 1.315 0 01-.128-.647v-7.791c0-.058-.015-.192-.044-.403a.706.706 0 010-.287.38.38 0 01.123-.167.33.33 0 01.222-.08.762.762 0 01.538.303c.221.269.38.584.465.921.07.237.127.478.17.721a.395.395 0 00.401.303.328.328 0 00.273-.167c.092-.18.132-.381.115-.582a2.996 2.996 0 00-.115-.75c-.037-.153-.1-.388-.186-.705-.037-.17-.07-.342-.1-.513-.038-.077-.18-.115-.428-.115a.278.278 0 00-.23.164.306.306 0 01-.273.167.577.577 0 01-.207-.036l-.337-.136a1.328 1.328 0 00-.51-.1 1.49 1.49 0 00-.88.33 3.205 3.205 0 00-.781.834l.01.016zm5.072 7.314c0 .732-.043 1.17-.128 1.313l-.206.239a.406.406 0 00-.108.256c0 .116.077.172.23.172l.237-.028c.074-.01.148-.015.222-.015h.345l.255.05c.11.027.224.044.337.052a.253.253 0 00.278-.146.258.258 0 00.023-.11.317.317 0 00-.166-.277 4.653 4.653 0 01-.288-.131.381.381 0 01-.202-.182.813.813 0 01-.048-.31v-3.592s0-.12-.02-.326c-.021-.205-.021-.37-.021-.487a.773.773 0 01.056-.334.205.205 0 01.202-.116.48.48 0 01.329.131c.06.064.115.13.166.2.125.154.262.298.408.431a.902.902 0 00.416.288c.106 0 .24-.134.4-.403.171-.298.341-.6.511-.908a1.49 1.49 0 01.23-.346.514.514 0 01.357-.231.713.713 0 01.255.064.312.312 0 01.159.326.864.864 0 01-.06.29 3.891 3.891 0 00-.142.513 3.917 3.917 0 00-.087.81v3.848a.696.696 0 01-.071.377l-.143.118a.343.343 0 00-.115.257c0 .156.1.233.301.233a.872.872 0 00.23-.05 1.45 1.45 0 01.429-.052h1.189c.116.003.232.02.344.051.104.03.21.047.317.051a.255.255 0 00.301-.256.315.315 0 00-.128-.257 2.182 2.182 0 00-.17-.115.652.652 0 01-.06-.349l.029-2.309c0-.782.012-1.421.012-1.911 0-1.596-.006-2.684-.02-3.266-.014-.581-.02-.93-.02-1.047a.67.67 0 01.025-.23.453.453 0 01.11-.131c.044-.038.086-.08.125-.123a.162.162 0 00-.145-.257l-.444.044a1.796 1.796 0 01-.317-.044.628.628 0 00-.444.216 8.47 8.47 0 00-.63.841c-.276.393-.455.66-.531.795a1.962 1.962 0 01-.416.567.605.605 0 01-.373.131.686.686 0 01-.342-.074 1.172 1.172 0 01-.309-.257 2.827 2.827 0 01-.408-.587 6.845 6.845 0 00-.674-.844 16.224 16.224 0 00-.615-.672.534.534 0 00-.314-.1l-.387.071-.373-.072a.185.185 0 00-.213.104.324.324 0 00.118.366.32.32 0 01.159.195c.012.056.02.114.02.172v7.365l.013.008zm8.838-8.133a6.883 6.883 0 01-.86-.043l-.345-.028c-.21 0-.314.072-.314.215a.144.144 0 00.095.151.255.255 0 01.135.108c.035.107.05.22.04.331v8.553a.49.49 0 01-.035.239.65.65 0 01-.15.128.257.257 0 00-.115.208.23.23 0 00.152.246.226.226 0 00.103.01l.255-.028a2.86 2.86 0 01.293-.015h2.68c.139-.01.277.01.408.056l.23.108c.108.04.222.058.337.051a.275.275 0 00.222-.064.593.593 0 00.051-.31c.003-.47.075-.935.214-1.383.025-.09.04-.182.044-.275a.304.304 0 00-.187-.315.488.488 0 00-.142-.015.508.508 0 00-.472.302 3.25 3.25 0 00-.194.577 1.372 1.372 0 01-.337.65.662.662 0 01-.46.2.458.458 0 01-.416-.16.901.901 0 01-.1-.474c0-.126.019-.257.029-.375.01-.118.013-.256.013-.359v-3.078c-.002-.18.038-.357.117-.518a.462.462 0 01.454-.216.633.633 0 01.585.36l.199.43a.436.436 0 00.385.257.37.37 0 00.327-.123.516.516 0 00.087-.31.77.77 0 00-.1-.288 3.109 3.109 0 01-.294-.77.74.74 0 00-.15-.395.488.488 0 00-.286-.064.352.352 0 00-.314.08c-.018.053-.045.12-.079.202a.357.357 0 01-.13.172.444.444 0 01-.237.051.49.49 0 01-.51-.318 1.4 1.4 0 01-.057-.474v-1.858c0-.087-.02-.174-.028-.256a2.443 2.443 0 01-.015-.257.514.514 0 01.094-.323.362.362 0 01.309-.123.695.695 0 01.487.257c.161.161.28.36.345.58.02.066.053.2.1.392a.48.48 0 00.471.377.316.316 0 00.33-.144c.014-.085.019-.17.013-.256a1.834 1.834 0 00-.08-.447 3.898 3.898 0 01-.094-.387l-.072-.513c0-.22-.03-.344-.094-.367a.819.819 0 00-.278-.036 1.4 1.4 0 00-.314.026c-.048.023-.094.046-.135.061a.452.452 0 01-.166.026h-2.062l.018-.038zm5.328 5.48v3.548a1.3 1.3 0 01-.04.37.38.38 0 01-.108.18 1.632 1.632 0 01-.132.1.342.342 0 00-.148.274.21.21 0 00.162.203c.03.007.062.007.093 0 .086-.005.171-.017.255-.037.11-.023.22-.035.332-.036h1.345c.028 0 .132 0 .311.036.136.02.273.033.41.036.228 0 .34-.087.34-.256a.336.336 0 00-.173-.257.448.448 0 01-.202-.256 2.75 2.75 0 01-.025-.431v-7.492a2.664 2.664 0 00-.046-.375l-.046-.23a1.222 1.222 0 010-.167.3.3 0 01.087-.257.397.397 0 01.255-.064.34.34 0 01.255.115.46.46 0 01.128.303v.462a.569.569 0 00.145.403.54.54 0 00.424.159.255.255 0 00.23-.072.612.612 0 00.033-.231c0-.102-.01-.203-.029-.303a9.573 9.573 0 00-.071-.359l-.087-.72a.3.3 0 00-.19-.331.295.295 0 00-.136-.016.93.93 0 00-.227.028l-.228.056a3.9 3.9 0 01-.377.108 1.6 1.6 0 01-.304.02h-2.16a.96.96 0 01-.341-.087c-.143-.056-.24-.094-.291-.107a.945.945 0 00-.235-.02.276.276 0 00-.255.092.515.515 0 00-.056.256 4.632 4.632 0 01-.169.69 2.64 2.64 0 00-.132.65c-.009.09.014.18.064.256a.301.301 0 00.255.08.475.475 0 00.536-.39v-.514a.562.562 0 01.107-.395.36.36 0 01.255-.108.298.298 0 01.24.098.303.303 0 01.077.249c.004.057.004.114 0 .172a7.636 7.636 0 00-.072 1.11v3.447l-.059.01zm10.104 4.6a.862.862 0 01.34.051.675.675 0 00.27.051.238.238 0 00.274-.127.242.242 0 00.024-.106.316.316 0 00-.13-.256.513.513 0 01-.201-.421c.017-.744.038-1.419.056-2.03.018-.61.028-1.513.028-2.721v-1.609c-.01-.386-.02-.773-.028-1.16 0-.387-.013-.723-.013-1.013a.41.41 0 01.143-.377.225.225 0 00.143-.233.18.18 0 00-.131-.184.178.178 0 00-.08-.004l-.22.039a1.25 1.25 0 01-.22.02H53.1l-.284-.056h-.27c-.19 0-.284.072-.284.215a.29.29 0 00.128.231.301.301 0 01.135.208v.18c0 .263-.047.524-.14.77-.235.576-.464 1.147-.687 1.713-.086.22-.166.436-.24.646-.104.28-.199.419-.283.419a.14.14 0 01-.14-.109.142.142 0 010-.063c0-.105 0-.298.02-.572.02-.275.02-.539.02-.788v-2.026a.539.539 0 01.034-.224.273.273 0 01.117-.107c.05-.043.096-.09.138-.139a.216.216 0 00.04-.136c0-.144-.093-.215-.282-.215a.887.887 0 00-.215.028 1.52 1.52 0 01-.342.028h-1.467l-.171-.028a1.613 1.613 0 00-.283-.028c-.17 0-.256.057-.256.172a.46.46 0 00.2.233.398.398 0 01.099.33l-.051 2.777c-.015.824-.023 1.6-.023 2.329 0 .167 0 .623.036 1.383.035.76.035 1.447.035 2.073 0 .24-.05.384-.15.428a.287.287 0 00-.15.298.213.213 0 00.255.215 1.46 1.46 0 00.344-.051c.184-.04.371-.056.559-.052h.931c.114.008.227.026.337.052.111.026.224.043.337.051a.294.294 0 00.255-.335.296.296 0 00-.06-.142 1.054 1.054 0 00-.108-.087.256.256 0 01-.15-.203v-1.832c0-.128-.021-.256-.029-.397a8.595 8.595 0 01-.013-.47c.002-.141.017-.282.044-.42.037-.183.09-.363.158-.537.2-.47.402-.947.602-1.431.105-.257.21-.536.314-.852a.993.993 0 01.115-.256.242.242 0 01.2-.144c.104 0 .157.072.157.215-.003.054-.01.107-.02.16a1.229 1.229 0 01-.03.158 5.055 5.055 0 00-.098.821c-.025.385-.038.69-.038.921v3.759a.773.773 0 01-.09.462l-.101.123a.301.301 0 00-.08.195.195.195 0 00.1.202.589.589 0 00.24.044c.111 0 .222-.006.332-.02.144-.017.289-.024.434-.021h.936l.008-.018zm2.317-10.08l-.255-.02h-.176c-.207 0-.314.061-.314.187.03.067.08.122.143.16a.49.49 0 01.143.402v8.11a4.01 4.01 0 01-.018.438.642.642 0 01-.074.256l-.202.16a.256.256 0 00-.092.215.239.239 0 00.073.195.234.234 0 00.198.061 1.55 1.55 0 00.22-.035c.124-.025.25-.037.377-.036h1.383a.867.867 0 01.23.036c.116.027.236.04.355.035.207 0 .311-.076.311-.23a.316.316 0 00-.128-.257 1.607 1.607 0 00-.158-.1.63.63 0 01-.043-.305v-4.47c0-.086 0-.184-.018-.294 0-.076-.005-.151-.015-.226 0-.038-.018-.087-.033-.144a.776.776 0 01-.02-.187.315.315 0 01.216-.339.309.309 0 01.143-.01.484.484 0 01.4.203c.08.124.137.26.172.403.17.784.277 1.581.321 2.383.09 1.127.136 2.037.136 2.73a.464.464 0 01-.06.274l-.142.123a.211.211 0 00-.072.167.259.259 0 00.087.187.311.311 0 00.23.087l.372-.043.388-.028h1.246l.286.048c.084.015.17.023.255.023a.454.454 0 00.23-.05.209.209 0 00.086-.196.186.186 0 00-.094-.19 1.052 1.052 0 01-.166-.092.422.422 0 01-.115-.257 7.312 7.312 0 01-.1-.93c0-.278-.015-.62-.015-1.027a9.08 9.08 0 00-.4-2.86 12.968 12.968 0 00-.746-1.604 3.667 3.667 0 01-.237-.564 1.55 1.55 0 01-.064-.447.737.737 0 01.159-.5.438.438 0 01.316-.18.66.66 0 01.255.088.67.67 0 00.286.087.736.736 0 00.683-.459.721.721 0 00.05-.305.82.82 0 00-.256-.655.863.863 0 00-.584-.21 1.143 1.143 0 00-1.021.577c-.174.301-.295.63-.357.973a4.009 4.009 0 01-.327.987 1.792 1.792 0 01-.865.806.592.592 0 01-.222.043.404.404 0 01-.243-.072.323.323 0 01-.13-.171.624.624 0 01-.028-.16v-2.088a.66.66 0 01.026-.187.316.316 0 01.094-.144.309.309 0 00.15-.23.145.145 0 00-.086-.16.655.655 0 00-.212-.028l-.27.028-.284.029h-1.375l-.003-.01zM13.235 21.588a1.644 1.644 0 00-2.256.608 1.668 1.668 0 00.605 2.268c.465.257 1.48.498 2.494.608.56.069 1.124.083 1.687.044l-.034-.162.107-.036a11.565 11.565 0 00-1.005-1.631c-.554-.77-1.166-1.45-1.598-1.701v.003zM23.893 6.825c-2.124 1.588-3.828 1.064-4.836.392.069 1.221-.33 2.958-2.757 4.013-1.766.77-3.062 1.508-3.828 2.383-.72.82-.97 1.796-.689 3.05a.431.431 0 010 .108 39.683 39.683 0 014.196-.388l-.255-.082c-.687-.256-1.149-.723-1.021-1.046.127-.324.765-.378 1.457-.124.353.117.669.327.914.608a3.1 3.1 0 01.51-.718 2.083 2.083 0 01-.875-.662c-.467-.567-.636-1.203-.373-1.424.263-.22.855.062 1.325.626.242.281.406.622.474.988a3.07 3.07 0 01.797-.37 2.099 2.099 0 01-.43-1.013c-.124-.726.05-1.36.386-1.418.337-.06.712.482.835 1.208a2.1 2.1 0 01-.056 1.098 3.077 3.077 0 011.584.341 16.264 16.264 0 01-.127-2.668l.036-.862.765.4c.784.42 1.531.904 2.236 1.447a3.129 3.129 0 01.495-1.56 2.075 2.075 0 01-.98-.49c-.564-.469-.842-1.067-.623-1.33.22-.265.852-.098 1.416.374.294.229.522.532.659.88.213-.205.455-.378.717-.514a2.097 2.097 0 01-.605-.918c-.255-.69-.199-1.347.123-1.465.321-.118.786.344 1.041 1.026.14.346.186.724.133 1.093.285-.069.58-.097.873-.082a2.106 2.106 0 01-.087-1.077c.125-.726.51-1.268.834-1.209.324.06.51.693.386 1.42l-.06.256a40.41 40.41 0 012.443-3.443l-.087-.064c-.949-.878-1.906-1.144-2.973-.926-1.138.23-2.43.995-3.97 2.147l-.003-.005zm-5.503 8.622a2.22 2.22 0 00-.648.908c1.268 0 2.537.07 3.808.208h.074l-.171-.91a2.206 2.206 0 00-3.063-.206zm4.362 4.874l-.916-.151-1.253-.17 1.477 3.336a37.2 37.2 0 011.858-.257 34.304 34.304 0 01-1.166-2.755v-.003zm-3.267-.436a29.253 29.253 0 00-2.115-.128c.219.646.398 1.306.536 1.975l.084.023c.811.02 1.253-1.25 1.51-1.872l-.015.002zm-3.718 28.42a8.872 8.872 0 00-1.687.043c-1.02.11-2.041.339-2.493.608a1.668 1.668 0 00-.605 2.268 1.644 1.644 0 002.256.608c.431-.257 1.044-.936 1.598-1.7.382-.51.722-1.051 1.015-1.617l-.107-.036.033-.162-.01-.013zm2.126 3.391a16.518 16.518 0 01-.536 1.975c.708-.02 1.417-.061 2.128-.123-.255-.623-.696-1.893-1.51-1.873l-.085.024.003-.003zm3.66 5.167c-1.27.13-2.539.199-3.808.208a2.224 2.224 0 001.657 1.396 2.201 2.201 0 002.051-.691l.189-.918h-.074l-.016.005zm.745-37.866l-.255.303.372.06-.12-.363h.003zm4.17-8.237a2.217 2.217 0 00-1.219 1.105c-.25.512-.296 1.1-.126 1.645l.704.629.03-.07a40.107 40.107 0 011.726-3.417 2.189 2.189 0 00-1.108.11l-.007-.002zm2.807 4.182l-.48 1.175-.326.872c.612.749 1.21 1.539 1.786 2.393.37-.513.752-1.01 1.148-1.49l-2.13-2.953.002.003zm-1.322.923l-.375.07.255.284.135-.354h-.015zm-5.877 34.24l-1.478 3.335 1.253-.169.916-.151c.34-.906.728-1.83 1.167-2.755a34.147 34.147 0 01-1.858-.257v-.003zm2.08 10.603a16.082 16.082 0 01-2.236 1.447l-.766.4-.035-.862c-.031-.891.012-1.783.127-2.668a3.071 3.071 0 01-1.58.347c.12.354.143.734.067 1.1-.125.726-.51 1.265-.835 1.209-.324-.057-.51-.693-.385-1.42a2.1 2.1 0 01.429-1.013 3.056 3.056 0 01-.807-.369c-.072.366-.24.707-.487.985-.467.567-1.062.847-1.325.626-.262-.22-.097-.857.373-1.424.228-.295.53-.523.875-.662a3.095 3.095 0 01-.51-.718 2.08 2.08 0 01-.914.608c-.686.257-1.34.2-1.457-.123-.117-.323.342-.79 1.02-1.047l.256-.082a39.712 39.712 0 01-4.195-.387.431.431 0 010 .108c-.281 1.264-.031 2.232.688 3.05.766.875 2.073 1.619 3.829 2.383 2.43 1.055 2.827 2.791 2.756 4.012 1.02-.672 2.713-1.192 4.836.393 1.531 1.154 2.833 1.916 3.971 2.147 1.067.218 2.024-.049 2.973-.926l.087-.064a40.358 40.358 0 01-2.432-3.458l.059.256c.125.726-.049 1.36-.386 1.419-.337.059-.712-.482-.834-1.208a2.106 2.106 0 01.066-1.098 3.049 3.049 0 01-.873-.082c.054.37.008.747-.133 1.092-.255.69-.72 1.155-1.04 1.027-.322-.129-.376-.77-.123-1.465.116-.355.325-.672.605-.919a3.063 3.063 0 01-.718-.513 2.09 2.09 0 01-.658.88c-.561.47-1.197.639-1.416.375-.22-.264.06-.86.622-1.332.278-.248.616-.417.98-.49a3.16 3.16 0 01-.495-1.56l.02.026zm1.08.803a2.203 2.203 0 002.35 1.267 40.092 40.092 0 01-1.726-3.417l-.03-.069-.697.623a2.23 2.23 0 00.102 1.596zm3.572-4.202l.48 1.175 2.13-2.953a38.742 38.742 0 01-1.148-1.49 35.902 35.902 0 01-1.786 2.393l.327.873-.003.002zm-.977-.103l-.253.288.388.069-.133-.357h-.002zm2.873-45.192c-.34.627-.66 1.265-.957 1.917l.661.074c1.695.149 1.736-.533 1.733-.536a16.42 16.42 0 01-1.434-1.452l-.003-.002zm-.298 47.409l-.661.074c.302.652.621 1.29.957 1.917.447-.514.926-.999 1.434-1.452 0 0-.038-.688-1.733-.537l.003-.002zM36 48.869l-.306.303a17.143 17.143 0 00-1.455 1.647 19.12 19.12 0 00-1.276 1.88l-.138.228.138.229c.388.651.814 1.28 1.276 1.88.45.58.935 1.13 1.455 1.647l.306.298v-1.245a16.404 16.404 0 01-1.075-1.246 18.25 18.25 0 01-1.09-1.568c.336-.541.7-1.064 1.09-1.567.337-.434.696-.85 1.075-1.247v-1.244.005zm-.306-32.121a17.091 17.091 0 00-1.455 1.647c-.462.6-.888 1.228-1.276 1.88l-.138.228.112.226c.388.652.814 1.28 1.276 1.88.45.58.935 1.13 1.455 1.647l.306.303v-1.244a16.3 16.3 0 01-1.074-1.247 18.131 18.131 0 01-1.09-1.567c.336-.541.7-1.065 1.09-1.568.345-.433.712-.848 1.1-1.244v-1.241l-.306.302v-.002zm23.07 4.84c-.431.257-1.044.937-1.598 1.701a11.54 11.54 0 00-1.005 1.632l.107.036-.033.162a8.89 8.89 0 001.687-.044c1.02-.11 2.042-.339 2.493-.608a1.656 1.656 0 00.812-1.654 1.667 1.667 0 00-.632-1.101 1.65 1.65 0 00-1.831-.12v-.003zM48.107 6.825c-1.532-1.155-2.833-1.917-3.971-2.148-1.067-.218-2.024.05-2.974.927l-.086.064a40.403 40.403 0 012.432 3.458l-.059-.257c-.125-.726.049-1.36.386-1.418.336-.06.712.482.834 1.208.076.365.053.744-.066 1.098.293-.015.587.013.872.082a2.102 2.102 0 01.133-1.093c.255-.69.72-1.154 1.041-1.026.322.128.376.77.123 1.465a2.097 2.097 0 01-.605.918c.262.136.504.309.717.513a2.09 2.09 0 01.659-.88c.564-.469 1.197-.638 1.416-.374.22.264-.061.86-.623 1.331a2.075 2.075 0 01-.98.49 3.128 3.128 0 01.495 1.56 16.088 16.088 0 012.236-1.447l.766-.4.035.862c.031.891-.012 1.784-.127 2.668a3.075 3.075 0 011.572-.372 2.101 2.101 0 01-.066-1.098c.124-.726.51-1.265.834-1.208.324.056.51.692.385 1.418-.05.37-.198.72-.428 1.014.285.083.556.207.806.37.072-.367.24-.707.488-.986.467-.564 1.061-.847 1.324-.626.263.22.097.857-.373 1.424a2.08 2.08 0 01-.875.662c.204.213.375.455.51.718a2.08 2.08 0 01.914-.608c.687-.257 1.34-.2 1.457.123.118.323-.342.79-1.02 1.047l-.256.082c1.405.055 2.805.184 4.196.387a.431.431 0 010-.107c.28-1.265.03-2.232-.69-3.05-.765-.875-2.071-1.62-3.827-2.384-2.43-1.054-2.828-2.791-2.757-4.012-1.02.672-2.712 1.193-4.836-.393l-.012-.002zm5.49 8.622a2.203 2.203 0 00-3.043.205l-.189.919h.074c1.27-.13 2.539-.2 3.808-.208a2.212 2.212 0 00-.648-.908l-.003-.008zm-4.362 4.874c-.34.906-.728 1.83-1.167 2.755.621.069 1.24.154 1.858.257l1.478-3.335-1.253.17-.916.15v.003zm3.266-.436c.256.623.697 1.893 1.511 1.873l.084-.023a16.58 16.58 0 01.536-1.976c-.707.02-1.417.062-2.128.124l-.003.002zm3.731 28.42l.034.161-.108.036c.29.571.626 1.117 1.006 1.632.554.77 1.169 1.45 1.597 1.7a1.647 1.647 0 002.463-1.22 1.668 1.668 0 00-.811-1.655c-.465-.257-1.48-.498-2.494-.608a8.872 8.872 0 00-1.687-.044v-.003zm-2.126 3.391l-.084-.023c-.811-.02-1.253 1.25-1.51 1.873.71.061 1.42.102 2.128.123a16.543 16.543 0 01-.536-1.976l.002.003zm-3.66 5.167h-.073l.173.913a2.212 2.212 0 002.041.68 2.208 2.208 0 001.652-1.383c-1.267 0-2.536-.07-3.807-.208l.015-.002zm-.744-37.866l-.12.362.372-.059-.255-.303h.003zm-4.178-8.234a2.189 2.189 0 00-1.108-.11 41.13 41.13 0 011.726 3.416l.03.07.697-.624a2.235 2.235 0 00-.126-1.645 2.217 2.217 0 00-1.219-1.105v-.002zm-2.807 4.181l-2.131 2.953c.395.487.777.984 1.148 1.49a35.926 35.926 0 011.787-2.393l-.327-.872-.48-1.175.003-.003zm1.322.924l.127.354.256-.288-.388-.069.005.003zm5.885 34.237a37.3 37.3 0 01-1.858.257c.439.926.83 1.847 1.166 2.755l.916.152 1.253.169-1.477-3.335v.002zm-2.08 10.603a3.129 3.129 0 01-.495 1.56c.364.072.702.242.98.49.561.47.842 1.067.622 1.331-.22.265-.852.098-1.416-.374a2.09 2.09 0 01-.658-.88 3.06 3.06 0 01-.718.513c.28.246.489.563.605.918.255.69.2 1.347-.122 1.465-.322.118-.786-.343-1.042-1.026a2.105 2.105 0 01-.132-1.093c-.286.07-.58.097-.873.082.119.354.142.733.066 1.098-.125.726-.51 1.268-.834 1.209-.324-.06-.51-.693-.386-1.42l.06-.256a40.413 40.413 0 01-2.428 3.43l.087.065c.95.877 1.906 1.144 2.973.926 1.138-.231 2.43-.996 3.971-2.148 2.123-1.588 3.828-1.064 4.836-.392-.069-1.221.33-2.958 2.756-4.012 1.767-.77 3.063-1.509 3.829-2.384.72-.82.97-1.796.689-3.05a.432.432 0 010-.108 39.603 39.603 0 01-4.196.388l.255.082c.687.256 1.149.723 1.021 1.047-.128.323-.766.377-1.457.123a2.081 2.081 0 01-.914-.608 3.095 3.095 0 01-.51.718c.345.138.647.367.875.662.467.564.636 1.203.373 1.424-.263.22-.855-.062-1.325-.626a2.096 2.096 0 01-.472-.983 3.07 3.07 0 01-.796.37c.23.293.378.643.429 1.013.125.726-.049 1.36-.386 1.419-.337.059-.712-.483-.834-1.209a2.103 2.103 0 01.066-1.1 3.07 3.07 0 01-1.59-.35c.116.885.158 1.777.128 2.669l-.036.862-.766-.4a16.076 16.076 0 01-2.235-1.447v.002zm-1.08.803c.23-.5.267-1.07.102-1.596l-.694-.626-.03.07a40.107 40.107 0 01-1.726 3.417 2.214 2.214 0 002.351-1.268l-.003.003zm-3.573-4.202l.327-.872c-.612-.75-1.21-1.54-1.786-2.394-.37.513-.752 1.01-1.149 1.49l2.131 2.954.48-1.175-.003-.003zm.978-.103l-.135.354.388-.066-.256-.285.003-.003zm-2.874-45.192c-.447.514-.926.999-1.434 1.453 0 0 .038.687 1.733.536l.66-.075a36.582 36.582 0 00-.959-1.916v.002zm.299 47.409c-1.695-.149-1.736.533-1.733.536.508.454.987.939 1.434 1.452.34-.626.66-1.265.96-1.916l-.661-.075v.003zM36 48.869v1.244c.378.397.737.813 1.074 1.247.391.503.756 1.026 1.092 1.567a18.338 18.338 0 01-1.092 1.568c-.337.433-.696.85-1.074 1.247v1.239l.306-.303a17.156 17.156 0 001.455-1.647c.462-.6.888-1.229 1.276-1.88l.138-.229-.138-.228a19.13 19.13 0 00-1.276-1.88 17.17 17.17 0 00-1.455-1.648L36 48.864v.005zm.306-32.121l-.306-.3v1.244c.378.397.737.813 1.074 1.247.391.503.756 1.026 1.092 1.567a18.127 18.127 0 01-1.092 1.567c-.337.432-.696.847-1.074 1.242v1.244l.306-.303a17.169 17.169 0 001.455-1.646c.462-.601.888-1.23 1.276-1.88l.138-.23-.113-.225a19.162 19.162 0 00-1.276-1.88 17.13 17.13 0 00-1.477-1.647h-.003z" fill="#E4007D"/></svg>