<svg width="102" height="32" fill="none" xmlns="http://www.w3.org/2000/svg"><path fill-rule="evenodd" clip-rule="evenodd" d="M17.29 22.23l-2.556 1.524-2.945-5.27 1.045-1.176 1.51-.347 2.945 5.27z" fill="url(#paint0_linear_1_699)"/><path fill-rule="evenodd" clip-rule="evenodd" d="M16.344 13.38h-5.89v-3.05h5.89l.465 1.527-.465 1.523z" fill="url(#paint1_linear_1_699)"/><path fill-rule="evenodd" clip-rule="evenodd" d="M7.957 20.771l-1.66-2.986a5.093 5.093 0 01-.645-2.482 5.1 5.1 0 01.643-2.482 4.892 4.892 0 011.757-1.819 4.691 4.691 0 012.403-.668v3.046c-.327 0-.648.088-.932.256a1.892 1.892 0 00-.682.704 1.97 1.97 0 000 1.922l1.667 2.986-1.045 1.176-1.506.347z" fill="url(#paint2_linear_1_699)"/><path fill-rule="evenodd" clip-rule="evenodd" d="M18.348 16.96l2.945-5.27 2.555 1.523-2.945 5.27-1.51-.347-1.045-1.175z" fill="url(#paint3_linear_1_699)"/><path fill-rule="evenodd" clip-rule="evenodd" d="M16.344 5.759h3.335a4.71 4.71 0 012.41.665 4.896 4.896 0 011.763 1.821 5.114 5.114 0 01-.004 4.976l-2.555-1.523a1.97 1.97 0 000-1.923 1.892 1.892 0 00-.683-.703 1.815 1.815 0 00-.93-.257h-3.336l-.465-1.522.465-1.534z" fill="url(#paint4_linear_1_699)"/><path fill-rule="evenodd" clip-rule="evenodd" d="M24.735 20.771l-1.667 2.983a4.89 4.89 0 01-1.76 1.82 4.692 4.692 0 01-2.407.667c-.845 0-1.675-.23-2.406-.667a4.892 4.892 0 01-1.76-1.82l2.554-1.523c.163.292.398.534.68.702a1.815 1.815 0 001.86 0c.282-.168.517-.41.68-.702l1.668-2.983 1.51.344 1.048 1.18z" fill="url(#paint5_linear_1_699)"/><path fill-rule="evenodd" clip-rule="evenodd" d="M13.01 5.759h3.334v3.049H13.01a1.81 1.81 0 00-.93.257 1.892 1.892 0 00-.683.703 1.971 1.971 0 000 1.923l2.948 5.27-2.555 1.523-2.945-5.263a5.093 5.093 0 01-.65-2.487 5.093 5.093 0 01.643-2.489A4.891 4.891 0 0110.6 6.424a4.692 4.692 0 012.41-.665zm13.393 12.026l-1.668 2.986-2.554-1.523 1.667-2.986a1.97 1.97 0 000-1.92 1.892 1.892 0 00-.68-.704 1.816 1.816 0 00-.93-.258h-5.893v-3.046h5.893c.844 0 1.673.23 2.404.666a4.892 4.892 0 011.76 1.818c.423.755.645 1.611.645 2.483 0 .872-.222 1.729-.644 2.484zM9.624 23.754L7.957 20.77l2.551-1.523 1.671 2.983c.164.291.399.534.681.702a1.815 1.815 0 001.859 0c.283-.168.517-.41.68-.702l2.946-5.27 2.555 1.523-2.945 5.27a4.89 4.89 0 01-1.76 1.818 4.691 4.691 0 01-2.405.666c-.845 0-1.674-.23-2.405-.666a4.89 4.89 0 01-1.76-1.818z" fill="#67BEEB"/><path fill-rule="evenodd" clip-rule="evenodd" d="M14.73 15.069a.28.28 0 01.097-.374.259.259 0 01.133-.037h2.787a.26.26 0 01.126.044.27.27 0 01.12.234.282.282 0 01-.035.133l-.69 1.241-.695 1.238a.259.259 0 01-.458 0l-.694-1.23-.69-1.25z" fill="#0E1B2E"/><path d="M41.746 25.369h-1.842a.091.091 0 01-.066-.029.098.098 0 01-.028-.067v-2.617c0-.026.01-.05.028-.068a.091.091 0 01.066-.028h1.817a.09.09 0 01.066.028.097.097 0 01.027.068v.321c0 .026-.01.05-.027.068a.092.092 0 01-.066.028h-1.38v.621h1.312a.095.095 0 01.066.03.102.102 0 01.027.07v.318a.099.099 0 01-.027.068.092.092 0 01-.066.028H40.34v.647h1.396a.09.09 0 01.065.028.098.098 0 01.028.068v.322a.098.098 0 01-.024.064.093.093 0 01-.059.032zm4.09 0h-1.789a.091.091 0 01-.066-.029.096.096 0 01-.027-.067v-2.617c0-.026.01-.05.027-.068a.091.091 0 01.066-.028h.358c.025 0 .048.01.066.028a.097.097 0 01.027.068v2.188h1.342c.025 0 .05.01.068.029a.101.101 0 01.028.07v.33a.1.1 0 01-.063.09.093.093 0 01-.037.006zm3.961 0h-1.842a.095.095 0 01-.068-.028.101.101 0 01-.03-.069v-2.616a.106.106 0 01.03-.068.095.095 0 01.068-.028h1.824c.025 0 .05.01.067.028a.101.101 0 01.03.068v.321c0 .026-.011.05-.03.069a.095.095 0 01-.067.027h-1.377v.621h1.31a.094.094 0 01.068.03.102.102 0 01.028.07v.318a.099.099 0 01-.029.07.092.092 0 01-.068.026h-1.31v.647h1.396a.09.09 0 01.066.028.098.098 0 01.027.068v.322c0 .025-.01.05-.027.067a.091.091 0 01-.066.029zm4.566-2.169l-.308.195a.098.098 0 01-.125-.026.788.788 0 00-.651-.318.869.869 0 00-.429.107.902.902 0 00-.327.306.939.939 0 00.201 1.238.877.877 0 00.845.135.89.89 0 00.365-.256.09.09 0 01.125-.022l.293.218a.096.096 0 01.04.064.1.1 0 01-.018.073 1.44 1.44 0 01-.575.446 1.39 1.39 0 01-1.381-.167 1.47 1.47 0 01-.46-.57 1.521 1.521 0 01.095-1.434 1.45 1.45 0 01.53-.502c.215-.117.456-.177.7-.172a1.32 1.32 0 011.112.547.102.102 0 01-.032.137zm4.037-.115h-.748v2.188a.098.098 0 01-.057.089.091.091 0 01-.036.007H57.2a.091.091 0 01-.066-.029.098.098 0 01-.027-.067v-2.188h-.752a.092.092 0 01-.066-.029.098.098 0 01-.027-.068v-.332c0-.026.01-.05.027-.068a.091.091 0 01.066-.028h2.04c.024 0 .048.01.066.028a.098.098 0 01.027.068v.332a.1.1 0 01-.026.067.092.092 0 01-.064.03zm3.17-.525c.65 0 .998.318.998.854a.86.86 0 01-.248.595.807.807 0 01-.586.232l.762 1.028a.06.06 0 01.01.067.058.058 0 01-.056.033h-.458a.144.144 0 01-.122-.063l-.748-1.053h-.157v1.02a.104.104 0 01-.03.068.095.095 0 01-.067.028h-.358a.091.091 0 01-.065-.029.098.098 0 01-.028-.067v-2.617c0-.026.01-.05.028-.068a.091.091 0 01.066-.028h1.059zm-.605.517v.688h.597c.294 0 .448-.115.448-.37s-.161-.336-.447-.336l-.598.018zm4.105 2.292h-.359a.095.095 0 01-.067-.028.102.102 0 01-.03-.069v-2.616a.102.102 0 01.03-.068.095.095 0 01.067-.028h.358a.09.09 0 01.066.028.098.098 0 01.027.068v2.617a.099.099 0 01-.027.067.094.094 0 01-.066.029zm4.644-2.169l-.312.195a.094.094 0 01-.121-.026.822.822 0 00-.29-.237.793.793 0 00-.362-.08.88.88 0 00-.632.27.94.94 0 00-.262.653c0 .245.094.48.262.654a.88.88 0 00.632.27.807.807 0 00.36-.079.834.834 0 00.292-.231.094.094 0 01.129-.022l.29.218a.09.09 0 01.04.063.096.096 0 01-.02.073c-.151.198-.35.351-.576.447a1.39 1.39 0 01-1.385-.172 1.469 1.469 0 01-.457-.575 1.52 1.52 0 01.106-1.437c.135-.21.32-.381.536-.497.217-.116.46-.172.703-.164.214-.008.426.038.62.134.193.095.36.236.49.413a.098.098 0 01-.043.13zm7.006 0l-.311.195a.094.094 0 01-.122-.026.814.814 0 00-.29-.238.786.786 0 00-.36-.08.88.88 0 00-.633.27.94.94 0 00-.262.654c0 .245.094.48.262.653a.88.88 0 00.632.271.807.807 0 00.36-.079.834.834 0 00.291-.231.094.094 0 01.129-.022l.29.218a.093.093 0 01.039.102.093.093 0 01-.017.034 1.377 1.377 0 01-1.571.425 1.418 1.418 0 01-.67-.543 1.49 1.49 0 01.022-1.676c.171-.243.41-.426.685-.523.275-.097.572-.104.851-.02.28.084.526.255.708.49.01.02.012.045.006.068a.1.1 0 01-.039.057zm4.473 2.169h-.358a.122.122 0 01-.072-.024.129.129 0 01-.046-.061l-.208-.57H79.35l-.204.57a.129.129 0 01-.046.061.122.122 0 01-.072.024h-.358a.08.08 0 01-.066-.038.088.088 0 01-.009-.077l.984-2.613a.136.136 0 01.048-.058.13.13 0 01.07-.023h.49c.025 0 .05.008.07.023.02.014.036.034.045.058l.984 2.613a.087.087 0 01-.014.086.08.08 0 01-.08.029zM79.525 24.2h.784l-.39-1.087-.394 1.087zm9.787-1a.091.091 0 01-.055.046.086.086 0 01-.07-.01 1.396 1.396 0 00-.691-.192c-.308 0-.523.126-.523.336 0 .21.237.27.562.326l.154.025c.487.085.866.3.866.788 0 .62-.53.916-1.113.916a1.905 1.905 0 01-1.073-.314.102.102 0 01-.025-.133l.178-.31a.098.098 0 01.136-.026c.233.158.506.243.784.244.304 0 .537-.122.537-.34 0-.219-.2-.267-.576-.33l-.176-.025c-.48-.078-.826-.3-.826-.806 0-.584.504-.89 1.073-.89.334-.006.664.08.956.247a.1.1 0 01.048.1.103.103 0 01-.012.037l-.154.31zm-4.952-.64c.65 0 .998.318.998.854a.857.857 0 01-.248.595.807.807 0 01-.586.232l.762 1.028a.061.061 0 01.01.067.058.058 0 01-.056.033h-.462a.14.14 0 01-.118-.063l-.748-1.053h-.16v1.02c0 .025-.01.05-.028.067a.091.091 0 01-.066.029H83.3a.091.091 0 01-.066-.029.098.098 0 01-.027-.067v-2.617c0-.026.01-.05.028-.068a.091.091 0 01.065-.028h1.06zm-.609.517v.688h.601c.294 0 .448-.115.448-.37s-.161-.336-.448-.336l-.6.018zM32.418 18.96V9.388a.407.407 0 01.11-.282.382.382 0 01.273-.117h1.38a.38.38 0 01.272.118.406.406 0 01.112.281v3.718h1.617l2.333-3.777a.725.725 0 01.255-.247.698.698 0 01.339-.093h1.57a.23.23 0 01.118.035.25.25 0 01.08.334l-3.017 4.676 3.2 4.941a.246.246 0 01-.077.335.228.228 0 01-.117.035h-1.567a.697.697 0 01-.332-.087.723.723 0 01-.255-.235l-2.526-3.903h-1.621v3.84a.406.406 0 01-.114.281.385.385 0 01-.273.115h-1.377a.377.377 0 01-.271-.116.402.402 0 01-.112-.28zm14.084.019l-3.596-9.557a.327.327 0 01.033-.294.312.312 0 01.253-.139h1.47c.12 0 .235.039.331.11.097.07.17.17.21.286l2.548 7.365 2.558-7.365a.593.593 0 01.21-.286.564.564 0 01.33-.11h1.471a.3.3 0 01.253.139.324.324 0 01.033.294l-3.61 9.557a.592.592 0 01-.214.27.564.564 0 01-.323.1h-1.431a.564.564 0 01-.317-.104.591.591 0 01-.21-.266zm6.848-.056l3.783-9.564a.595.595 0 01.212-.268.567.567 0 01.32-.102h1.55c.115 0 .226.035.321.101s.17.16.212.269l3.768 9.56a.323.323 0 01-.03.295.297.297 0 01-.253.138H61.86a.564.564 0 01-.324-.1.592.592 0 01-.213-.27l-.587-1.563h-4.587l-.602 1.567a.594.594 0 01-.213.27.567.567 0 01-.323.1h-1.378a.297.297 0 01-.253-.139.32.32 0 01-.03-.294zm3.471-3.326h3.242l-1.406-3.718a4.652 4.652 0 01-.215-.817 3.51 3.51 0 01-.229.817l-1.392 3.718zm9.439 3.363V9.388a.405.405 0 01.112-.282.382.382 0 01.272-.117h1.291a.663.663 0 01.548.292l4.473 6.479a22.37 22.37 0 01-.043-1.423V9.388a.407.407 0 01.11-.282.382.382 0 01.273-.117h1.384a.372.372 0 01.272.117.397.397 0 01.111.282v9.572c0 .105-.04.206-.112.28a.377.377 0 01-.27.116h-1.292a.649.649 0 01-.309-.077.673.673 0 01-.239-.215l-4.473-6.475c.029.428.043.95.043 1.423v4.948a.406.406 0 01-.113.281.385.385 0 01-.273.115h-1.381a.377.377 0 01-.271-.116.402.402 0 01-.112-.28zm19.831-9.572v1.205a.408.408 0 01-.112.295.383.383 0 01-.285.115h-2.698v7.957a.409.409 0 01-.113.281.382.382 0 01-.273.115h-1.367a.377.377 0 01-.271-.116.402.402 0 01-.112-.28v-7.957h-2.702a.377.377 0 01-.27-.116.402.402 0 01-.113-.28V9.389a.407.407 0 01.111-.282.382.382 0 01.272-.117h7.536a.372.372 0 01.281.112.396.396 0 01.116.287zm.652 9.535l3.782-9.564a.588.588 0 01.21-.269.56.56 0 01.32-.1h1.552c.114-.001.226.034.32.1s.168.16.21.269l3.771 9.56a.323.323 0 01-.03.295.307.307 0 01-.252.138h-1.378a.556.556 0 01-.322-.1.584.584 0 01-.211-.27l-.59-1.563h-4.588l-.583 1.563a.591.591 0 01-.214.27.563.563 0 01-.323.1h-1.374a.296.296 0 01-.264-.13.32.32 0 01-.036-.299zm3.467-3.326h3.242l-1.406-3.718a4.652 4.652 0 01-.215-.817 3.51 3.51 0 01-.23.817l-1.391 3.718z" fill="#383838"/><defs><linearGradient id="paint0_linear_1_699" x1="13.314" y1="18.169" x2="15.641" y2="22.066" gradientUnits="userSpaceOnUse"><stop stop-color="#67BEEB"/><stop offset="1" stop-color="#124F99"/></linearGradient><linearGradient id="paint1_linear_1_699" x1="16.344" y1="11.857" x2="10.455" y2="11.857" gradientUnits="userSpaceOnUse"><stop stop-color="#67BEEB"/><stop offset="1" stop-color="#124F99"/></linearGradient><linearGradient id="paint2_linear_1_699" x1="8.068" y1="18.99" x2="8.121" y2="10.612" gradientUnits="userSpaceOnUse"><stop stop-color="#67BEEB"/><stop offset="1" stop-color="#124F99"/></linearGradient><linearGradient id="paint3_linear_1_699" x1="19.872" y1="17.279" x2="22.2" y2="13.378" gradientUnits="userSpaceOnUse"><stop stop-color="#67BEEB"/><stop offset="1" stop-color="#124F99"/></linearGradient><linearGradient id="paint4_linear_1_699" x1="17.912" y1="6.927" x2="24.815" y2="10.629" gradientUnits="userSpaceOnUse"><stop stop-color="#67BEEB"/><stop offset="1" stop-color="#124F99"/></linearGradient><linearGradient id="paint5_linear_1_699" x1="23.29" y1="21.669" x2="16.2" y2="24.897" gradientUnits="userSpaceOnUse"><stop stop-color="#67BEEB"/><stop offset="1" stop-color="#124F99"/></linearGradient></defs></svg>