<svg width="94" height="19" fill="none" xmlns="http://www.w3.org/2000/svg"><g clip-path="url(#clip0_1_653)" fill-rule="evenodd" clip-rule="evenodd" fill="#fff"><path d="M9.868 9.448l.437-.247 5.411 3.648-5.848-3.4zm-.312-.198l-.402-.226.453-6.96-.05 7.187zm-.482-.024L7.28 10.687l2.15-1.244-.356-.217z"/><path d="M9.667 0C4.33 0 0 4.255 0 9.498c0 5.242 4.331 9.497 9.667 9.497 5.336 0 9.667-4.255 9.667-9.497C19.334 4.255 15.008 0 9.667 0zm0 18.492c-2.21 0-4.276-.726-5.818-2.054-1.498-1.293-2.663-3.347-2.95-5.534.684 4.157 4.346 7.326 8.768 7.326 4.903 0 8.883-3.905 8.883-8.728 0-1.999-.759-3.958-1.91-5.43 1.166.884 2.176 3.402 2.176 5.43 0 4.961-4.095 8.985-9.144 8.985l-.005.005zm-.84-9.67l.785-7.88h.075l.075 8.289 1.347-.79L9.757.948c4.768.044 8.617 3.855 8.617 8.554a8.41 8.41 0 01-1.095 4.157l-6.045-4.966-.572.32 6.571 4.72c-.015.03-.035.054-.05.084l-7.39-4.181v1.476l7.34 2.789a8.727 8.727 0 01-7.471 4.156 8.725 8.725 0 01-7.466-4.151l7.335-2.81V9.622l-7.39 4.176a.74.74 0 00-.05-.084L8.64 9.01l-.572-.321-6.024 4.941a8.398 8.398 0 01-1.08-4.131c0-4.655 3.788-8.447 8.5-8.55l-1.18 7.557.543.321v-.005zm.84-8.314C4.617.508.523 4.532.523 9.493c0 2.014.743 3.92 1.879 5.568.386.706.804 1.145 1.356 1.723C1.583 15.076.176 12.444.176 9.493c0-5.149 4.25-9.325 9.49-9.325 5.241 0 9.577 4.359 9.421 9.325-.13-4.848-4.451-8.985-9.42-8.985zm42.47 9.622c0-1.67-.748-3.017-2.396-3.017-1.528 0-2.397 1.353-2.397 3.016 0 1.664.724 3.017 2.397 3.017 1.673 0 2.1-.79 2.346-2.054h-.558c-.05.464-.356 1.52-1.552 1.545-1.362.025-1.457-1.688-1.432-2.508l.025-.469c0-.513-.05-2.038 1.216-2.038 1 0 1.145 1.263 1.145 2.038h-2.36l-.026.47h3.592zM23.916 5.035l-.025.375h.356c.262 0 .598.025.598.35l-.12 6.354c0 .232-.12.493-.598.493h-.357l-.025.376h2.412v-.376h-.407c-.312 0-.523-.093-.523-.493l.12-6.097 2.578 6.566h.261l2.603-6.635.12 6.166c0 .212-.215.493-.547.493h-.502v.376h3.03v-.376h-.358c-.26 0-.572-.143-.572-.469l-.12-6.284c0-.212.24-.444.476-.444h.453v-.375h-2.17l-2.242 5.766-2.24-5.766h-2.201zm16.781 7.953v-.306h-.241c-.216 0-.598-.07-.598-.494v-3.07c0-.963.502-1.314 1-1.314.19 0 .311.094.261.445-.05.35.261.587.523.562.26-.024.597-.069.547-.725-.045-.657-.427-.963-1.095-.963-.523 0-.955.326-1.075.494-.141.192-.312.118-.337-.094-.025-.212-.12-.42-.357-.35a5.708 5.708 0 01-1.407.256v.237c1-.05.905.444.905.681v3.846c0 .42-.382.493-.598.493h-.332v.306h2.794l.01-.005zm5.316-5.504c-.352-.252-.794-.395-1.332-.395-1.527 0-2.396 1.352-2.396 3.016 0 1.663.723 3.01 2.396 3.016 1.477.005 1.84-.815 2.085-2.078h-.557c-.05.464-.216 1.545-1.287 1.57-1.361.029-1.457-1.689-1.431-2.508 0-.514.07-2.577 1.215-2.577.98 0 1.573.681 1.573 1.451h.311V7.01h-.26l-.317.475zm34.522 5.153c-1.362.025-1.457-1.688-1.432-2.508h3.587c0-1.668-.748-3.016-2.396-3.016-1.528 0-2.397 1.353-2.397 3.016 0 1.664.724 3.017 2.397 3.017 1.673 0 2.1-.79 2.346-2.054h-.558c-.045.464-.356 1.52-1.552 1.545h.005zm-.191-5.015c1.005 0 1.146 1.263 1.146 2.038h-2.362c0-.513-.045-2.038 1.216-2.038zm-19.429 5.015c-1.362.025-1.457-1.688-1.432-2.508h3.587c0-1.668-.748-3.016-2.396-3.016-1.528 0-2.397 1.353-2.397 3.016 0 1.664.724 3.017 2.397 3.017 1.673 0 2.1-.79 2.346-2.054h-.558c-.05.464-.356 1.52-1.552 1.545h.005zm-.191-5.015c1 0 1.146 1.263 1.146 2.038h-2.362c0-.513-.05-2.038 1.216-2.038zm-25.132 5.015c-1.361.025-1.457-1.688-1.432-2.508h3.588c0-1.668-.749-3.016-2.397-3.016-1.527 0-2.396 1.353-2.396 3.016 0 1.664.723 3.017 2.396 3.017s2.1-.79 2.346-2.054h-.557c-.05.464-.357 1.52-1.553 1.545h.005zm-.19-5.015c1 0 1.145 1.263 1.145 2.038h-2.361c0-.513-.05-2.038 1.215-2.038zm21.935 4.141v-6.54c0-.272-.145-.494-.381-.42-.523.163-1 .237-1.407.257v.237c.693-.05.764.163.764.4V7.71C56 7.429 55.644 7.148 55 7.148c-.809 0-2.316.632-2.316 2.858 0 2.932 1.743 3.12 2.266 3.12.523 0 1.216-.42 1.362-.647.01-.05.085-.103.105 0 .025.212.181.528.417.46a5.88 5.88 0 011.407-.258v-.231c-1.005.044-.904-.445-.904-.682v-.005zm-1.024-.7c-.026 1.288-.714 1.688-1.287 1.688-1.286-.025-1.19-1.945-1.19-2.765 0-.82.05-2.438 1.215-2.295 1.171.143 1.267 1.357 1.267 2.088v1.288l-.005-.005zM71.34 9.63v-.537h-3.15v.538h3.15zm-7.486 1.363v1.995h.261l.237-.514c.24.212.738.563 1.381.563s1.553-.35 1.91-1.007c.356-.657.19-1.733-.619-2.064-.708-.286-1.336-.631-1.813-.868a.748.748 0 01-.427-.795c.07-.375.407-.775 1.17-.795.764-.025 1.146.607 1.241 1.338h.262V6.97h-.237l-.26.444c-.503-.325-.714-.375-1.172-.375-.457 0-1.215.232-1.647.889-.428.656-.312 1.688.713 2.108 1.025.42 1.502.68 1.789.819.286.138.452.701.26 1.032-.19.33-.547.7-1.12.7-.572 0-1.477-.4-1.693-1.594h-.236zm11.973-2.3c.573-.138 1.146-1.15 1.146-1.827 0-.676-.262-1.826-1.935-1.826h-3.577v.306c.357 0 .98.07.98.657v5.79c0 .33-.026.869-.98.869v.33h2.934c.884 0 2.91-.069 2.96-2.369 0-.775-.382-1.688-1.528-1.92v-.01zM73.466 5.41h1.19c.885 0 1.241.632 1.241 1.452 0 1.007-.311 1.782-1.24 1.782h-1.191V5.41zm1.216 7.197h-1.216V9.02h1.361c.789 0 1.477.538 1.477 1.713s-.713 1.876-1.623 1.876zm12.415-3.885v3.47c0 .42-.382.494-.598.494h-.146v.306h2.603v-.306h-.237c-.216 0-.597-.069-.597-.493V8.747c-.026-1.57-1.457-1.619-1.955-1.619-.497 0-1.095.326-1.216.494-.14.192-.311.118-.331-.094-.026-.212-.121-.42-.357-.35a5.67 5.67 0 01-1.407.256v.237c1-.05.904.444.904.681v3.846c0 .42-.381.493-.597.493h-.337v.306h2.793v-.306h-.24c-.217 0-.599-.069-.599-.493v-3.07c0-.514.191-1.338 1.171-1.408.98-.069 1.146.563 1.146 1.007v-.005zm2.416.119l.432-1.594H94l-3.482 5.415h1.864c.427 0 .764-.163 1.216-1.244h.191l-.382 1.57h-4.15l3.462-5.416h-1.553c-.382 0-.814 0-1.406 1.264h-.242l-.005.005z"/></g><defs><clipPath id="clip0_1_653"><path fill="#fff" d="M0 0h94v19H0z"/></clipPath></defs></svg>