<svg width="86" height="52" fill="none" xmlns="http://www.w3.org/2000/svg"><path d="M9.722 41.869h1.532v.097c-.517.026-.776.294-.776.806 0 .11.013.26.038.452l1.02 7.31c.062.362.132.598.209.697.077.102.236.164.478.187v.097h-2.18v-.097c.29.008.437-.13.437-.417a3.7 3.7 0 00-.038-.383l-.995-7.087-3.478 7.987h-.066l-3.498-7.972-.985 7.128a2.29 2.29 0 00-.026.37c0 .251.15.376.445.376v.098H.36v-.098c.223 0 .367-.028.431-.081a.528.528 0 00.15-.261c.035-.12.061-.253.08-.404l1.11-7.795c-.18-.432-.36-.693-.543-.78a1.209 1.209 0 00-.522-.13v-.097h1.83l3.411 7.892 3.424-7.892-.008-.003zm4.392 9.649v-.21l.067.005h.074c.308 0 .452-.127.452-.404l-.01-.217v-3.247l-1.891-3.116c-.18-.3-.38-.453-.592-.453h-.087v-.204h1.961v.204h-.064c-.193 0-.193.087-.193.13 0 .031.015.105.12.274l1.515 2.485 1.658-2.513.005-.005a.423.423 0 00.09-.136.451.451 0 00.051-.122c0-.041 0-.113-.162-.113h-.095v-.204h1.293v.202l-.06.005a.727.727 0 00-.333.094c-.088.054-.19.172-.309.348l-1.886 2.846v3.515c0 .335.051.468.097.521.041.052.152.11.435.11h.064v.205H14.11h.003zm8.14-9.552v-.097h4.451c1.134 0 2.028.09 2.684.266a4.776 4.776 0 011.717.836c.488.381.874.867 1.159 1.457.285.593.427 1.253.427 1.982 0 .728-.15 1.393-.445 2.073-.296.68-.7 1.266-1.208 1.756-.509.491-1.046.829-1.612 1.01-.563.182-1.436.271-2.616.271h-4.557v-.097h.118c.237 0 .393-.095.468-.284.075-.189.113-.534.113-1.03v-7.023c0-.524-.046-.841-.136-.948-.09-.11-.278-.164-.563-.164v-.008zm3.305.105h-1.488v7.488c0 .47.08.821.24 1.051.158.23.433.396.819.499.386.102.907.153 1.56.153 1.817 0 3.095-.465 3.83-1.393.735-.928 1.102-1.94 1.102-3.038 0-1.288-.503-2.403-1.51-3.346-1.008-.944-2.527-1.414-4.555-1.414h.002zm8.015 9.447v-.205h.064c.293 0 .396-.064.431-.12.04-.061.085-.222.085-.644v-5.865c0-.44-.051-.616-.095-.688-.049-.079-.164-.122-.342-.122h-.141v-.205h2.198v.212l-.07-.007c-.018 0-.036-.003-.056-.003a.83.83 0 00-.257.046c-.103.036-.165.082-.18.14-.016.052-.031.19-.031.555v5.924c0 .389.02.524.036.568.02.058.064.107.126.145.044.029.144.062.37.062h.064v.204H33.58l-.005.003zm8.437 0v-.205h.064c.162 0 .185-.064.185-.13 0-.054-.02-.164-.113-.386a.272.272 0 01-.051-.113l-1.103-2.72h-2.192l-1.16 2.874c-.105.273-.115.345-.115.363 0 .033 0 .11.195.11h.065v.204h-1.283v-.204h.064c.14 0 .26-.034.352-.1.065-.046.175-.182.324-.557l2.83-7.1h.226l2.79 6.87v.012s.022.085.205.468c.13.274.324.407.59.407h.065v.204h-1.94l.002.003zM40.84 47.62l-.953-2.395-.957 2.395h1.913-.003zm11.365 3.898v-.207h.085c.182 0 .265-.082.265-.269 0-.048-.01-.148-.031-.299l-.766-5.445-2.71 6.22h-.135l-2.725-6.21-.755 5.479a1.94 1.94 0 00-.02.289c0 .107.033.237.29.237h.064v.205h-1.314v-.205h.065c.22 0 .285-.035.303-.05a.357.357 0 00.098-.18 2.08 2.08 0 00.061-.312l.884-6.22c-.17-.399-.308-.532-.395-.575a.88.88 0 00-.391-.097h-.064v-.205h1.57l2.688 6.218 2.697-6.218H53.3v.202h-.062c-.383.023-.56.207-.56.586 0 .084.01.202.03.353l.818 5.846c.06.348.116.481.154.53.05.066.162.107.337.122l.06.005v.2h-1.872zm5.888.12c-1.087 0-1.991-.358-2.685-1.066a3.543 3.543 0 01-1.046-2.56c0-.667.17-1.36.5-2.06a4.212 4.212 0 011.515-1.726c.67-.442 1.477-.667 2.395-.667 1.1 0 2.015.337 2.714 1.005.702.667 1.06 1.513 1.06 2.51 0 1.278-.41 2.37-1.22 3.245-.809.876-1.896 1.319-3.233 1.319zm-.04-7.547c-.748 0-1.44.286-2.052.848a2.748 2.748 0 00-.92 2.102c0 1.071.38 2.027 1.131 2.84.75.81 1.601 1.222 2.53 1.222.521 0 1.04-.14 1.55-.419a3.133 3.133 0 001.202-1.153c.29-.488.44-.995.44-1.508 0-.732-.201-1.407-.594-2.005a4.21 4.21 0 00-1.542-1.413c-.63-.34-1.216-.512-1.748-.512l.002-.002zm6.257 1.061V50.7c0 .174.013.304.04.383.022.072.053.12.092.144.026.015.108.046.373.086l.053.008v.197H63.25v-.205h.064c.304 0 .41-.061.445-.115.039-.056.087-.214.087-.639v-5.22c0-.448-.061-.816-.187-1.095-.11-.248-.352-.368-.738-.368h-.157v-.204h1.55l5.727 6.064v-5.287c0-.335-.07-.447-.129-.483a.705.705 0 00-.373-.087h-.064v-.205h1.63v.205h-.062c-.21.008-.355.051-.432.128-.051.053-.113.186-.113.519v7.189l-6.191-6.558.005-.005zm7.54 6.366v-.205h.159c.164 0 .264-.058.313-.186.057-.143.085-.414.085-.803v-5.62c0-.526-.06-.677-.093-.718-.059-.071-.198-.107-.4-.107h-.065v-.205h3.627c.907 0 1.634.072 2.164.215.532.143 1 .37 1.395.68.396.31.715.708.946 1.189.232.48.35 1.023.35 1.613 0 .59-.12 1.135-.36 1.685a4.429 4.429 0 01-.982 1.424c-.414.399-.853.675-1.313.82-.455.146-1.167.22-2.113.22h-3.709l-.005-.002zm1.58-1.631c0 .363.061.634.18.805.118.169.326.297.62.373.302.08.716.12 1.23.12 1.427 0 2.442-.365 3.015-1.089.576-.728.869-1.53.869-2.39 0-1.007-.401-1.894-1.19-2.63-.79-.74-2.002-1.115-3.601-1.115h-1.126v5.926h.003zm7.636 1.63v-2.37h.205v.064c.008.721.178 1.23.507 1.509.331.281.858.424 1.565.424.64 0 1.133-.15 1.462-.45.327-.296.494-.66.494-1.074a1.17 1.17 0 00-.17-.644 1.607 1.607 0 00-.483-.473c-.208-.138-.614-.31-1.203-.511-.596-.207-1.02-.394-1.264-.55-.25-.16-.46-.404-.627-.726a2.143 2.143 0 01-.25-.984c0-.611.216-1.133.637-1.547.425-.414.985-.626 1.671-.626.262 0 .55.03.856.09.463.091.504.112.522.12l.013.002h.043l.412 1.076-.214.036v-.051c-.025-.028-.092-.1-.275-.289a2.023 2.023 0 00-.647-.455 2.062 2.062 0 00-.825-.159c-.512 0-.92.146-1.219.435a1.421 1.421 0 00-.447 1.048c0 .269.07.507.208.706.139.2.435.391.884.567.792.266 1.345.471 1.64.604.3.138.594.373.871.7.28.333.425.762.425 1.276 0 .215-.026.42-.078.616a2.155 2.155 0 01-.244.568c-.11.181-.246.348-.403.493a1.858 1.858 0 01-.483.34c-.168.08-.417.136-.769.177a8.059 8.059 0 01-.681.058h-2.133zM49.813 9.2c-1.733-2.46-3.443-3.8-3.514-3.858l-.18-.138-.18.138c-.072.057-1.78 1.399-3.513 3.858a20.344 20.344 0 00-1.326 2.153l-.077.043v.102c-1.134 2.171-2.103 4.994-2.103 8.307 0 3.717 1.964 5.517 3.609 6.373 1.765.92 3.508.964 3.583.964h.01c.075 0 1.815-.046 3.583-.963 1.647-.857 3.608-2.66 3.608-6.374 0-4.65-1.907-8.335-3.505-10.607l.005.002zm2.914 10.032l-1.423-2.219 1.017-.885c.224.977.368 2.013.406 3.102v.002zm-1.51-6.389c.37.823.693 1.71.947 2.66l-.948.825v-3.485zm-9.169 7.724l.581 1.687-.964-.434.38-1.253h.003zm-.01-2.033l-.401-1.495 1.19-1.32-.79 2.815zm.298 1.087l1.367-4.873 2.419-2.935 2.419 2.935 1.367 4.873-1.018 2.953-2.768 1.084-2.768-1.084-1.018-2.953zm1.781-6.284l.923-3.14.725 1.138-1.648 2v.002zm2.362-2l.725-1.137.923 3.14-1.648-2v-.002zm3.717 9.232l.38 1.253-.964.435.581-1.688h.003zm-.779-4.847l1.19 1.32-.401 1.495-.789-2.815zm-.352-1.253l-1.28-4.359 2.853 1.626v4.474l-1.576-1.743.003.002zm1.077-3.679l-2.277-1.296.976-.619c.432.568.877 1.207 1.3 1.915zm-1.66-2.372l-1.01.639-.78-2.59c.463.442 1.1 1.1 1.787 1.95h.002zm-2.36-1.838l.866 2.88-.866 1.358-.866-1.357.866-2.881zm-.57-.113l-.78 2.59-1.01-.64a20.606 20.606 0 011.787-1.95h.002zm-2.147 2.408l.977.62-2.277 1.295c.426-.708.868-1.347 1.3-1.915zm-1.799 2.864l2.853-1.626-1.28 4.359-1.576 1.743v-4.474l.003-.002zm-.58 1.11v3.482l-.95-.826c.255-.946.582-1.836.95-2.66v.003zm-1.106 3.287l1.018.885-1.424 2.219c.038-1.09.182-2.125.406-3.101v-.003zm-.352 4.758l1.2 1.007-.9.381a7.212 7.212 0 01-.3-1.388zm1.46 3.426a5.617 5.617 0 01-.954-1.498l.954-.404v1.902zm-1.422-4.15l1.602-2.497.524 1.953-.563 1.854-1.563-1.31zm3.591 5.697a7.589 7.589 0 01-.411-.2 6.39 6.39 0 01-.694-.42l1.485-.096-.38.713v.003zm-1.59-1.164V22.43l1.282.578v.008l.02.008.727 1.546-2.027.133h-.003zm3.746-.72l-1.133.475-.53-1.128 1.663.652zm-1.616 2.1l.411-.771 1.188 1.18a8.734 8.734 0 01-1.602-.408h.003zm2.385.374l-1.535-1.526 1.535-.644 1.534.644-1.534 1.526zm.784.036l1.187-1.181.411.772c-.609.22-1.171.34-1.6.409h.002zm1.115-2.035l-1.133-.476 1.663-.652-.53 1.128zm1.437 1.212a7.513 7.513 0 01-.411.2l-.38-.714 1.485.097c-.218.15-.447.291-.694.42v-.003zm1.177-.967l-2.028-.133.728-1.546.018-.008v-.008l1.285-.578v2.273h-.003zm-.123-5.075l.524-1.953 1.602 2.498-1.563 1.309-.563-1.854zm.704 4.692v-1.9l.954.404a5.555 5.555 0 01-.954 1.498v-.002zm1.157-2.038l-.9-.38 1.2-1.008a7.239 7.239 0 01-.3 1.388z" fill="#383838"/><path d="M83.576 9.771c-1.239-2.536-2.971-4.586-5.194-6.151-2.337-1.644-5.18-2.593-8.531-2.846C69.057.71 67.206.68 64.299.68H51.191v.544c1.509.08 2.653.443 3.431 1.092a3.836 3.836 0 011.252 1.992c.213.805.321 2.078.321 3.817V23.41c0 7.9-6.106 8.948-6.844 9.107v.524c1.637.348 12.062-1.14 12.062-9.797v-4.19c.015-.33.028-.66.028-.994 0-.192-.015-.379-.028-.566V1.42h2.884c2.066 0 3.765.181 5.099.544 2.447.68 4.552 2.071 6.315 4.173 1.272 1.516 2.249 3.287 2.93 5.31.684 2.022 1.026 4.157 1.026 6.401 0 2.022-.283 3.932-.846 5.724-.563 1.795-1.385 3.385-2.467 4.776-1.098 1.44-2.527 2.212-3.997 2.639-3.38.981-10.893 1.513-11.61 1.503-.27-.003-.187.465-.056.552h8.106a33.22 33.22 0 006.03-.544c2.637-.491 4.837-1.637 6.6-3.436 1.254-1.281 2.236-2.89 2.943-4.825.707-1.935 1.062-3.993 1.062-6.174 0-2.986-.62-5.75-1.859-8.286l.003-.005zm1.881 28.36H.354v.427h85.103v-.427zM41.798.843c-.917.049-1.652.172-2.207.37-.556.2-1.064.533-1.532.995a3.4 3.4 0 00-.797 1.115c-.177.407-.298.923-.362 1.547-.114.83-.17 1.815-.17 2.95v17.681c0 1.647.098 2.872.29 3.672.193.8.54 1.44 1.036 1.92.884.849 2.13 1.311 3.737 1.39v.553h-15.41v-.553c.932-.048 1.683-.178 2.253-.396a4.345 4.345 0 001.532-.994c.499-.512.84-1.163 1.026-1.956.185-.793.277-2.004.277-3.636V4.055L19.05 33.034h-.506L6.196 4.485V25.5c0 1.647.092 2.864.277 3.646.185.785.527 1.432 1.026 1.943.45.463.961.8 1.532 1.007.57.208 1.313.335 2.23.384v.552H.144v-.552c.917-.049 1.66-.176 2.23-.384a4.054 4.054 0 001.533-1.007c.498-.511.84-1.163 1.025-1.956.185-.792.278-2.004.278-3.635V7.818c0-.737-.023-1.432-.072-2.087-.08-1.183-.265-2.047-.555-2.59-.401-.751-.954-1.306-1.653-1.666-.7-.36-1.627-.573-2.786-.637V.286H10.61L21.052 25.93 31.88.286h9.913v.552l.005.005z" fill="#383838"/></svg>