<svg width="52" height="34" fill="none" xmlns="http://www.w3.org/2000/svg"><g clip-path="url(#clip0_1_633)"><path d="M.524 31.527c0 .727.21 1.237.489 1.564.349.473.803.618 1.187.618v.218h-.035c-.419 0-1.152-.072-1.676-.727a2.52 2.52 0 01-.524-1.527c0-.4.07-.91.489-1.418.28-.4.768-.837 1.711-.873v.218c0-.036-.035-.036-.035-.036-.314 0-.838.072-1.187.509-.28.4-.42.872-.42 1.454zm1.676-1.89c.35 0 .768.108 1.118.472.314.364.558.873.558 1.636 0 .473-.07 1.019-.419 1.455-.21.255-.558.51-1.117.51H2.2v.217c.838 0 1.327-.4 1.642-.727.314-.364.558-.873.558-1.636 0-.473-.104-1.164-.628-1.637a2.354 2.354 0 00-1.572-.581h-.035v.29H2.2zm6.356.253c0-.035 0-.072-.035-.108-.035-.037-.07-.037-.105-.037H6.321c-.035 0-.07 0-.105.037-.035.036-.035.073-.035.109v3.018c0 .11.035.582.07.727.035.11.07.146.245.182h.07c.07 0 .14-.036.14.037 0 .036-.07.036-.07.036H6.6c-.07 0-.14-.036-.21-.036h-.908c-.139.036-.139.036-.174.036-.035 0-.035-.036-.035-.036 0-.037.035-.037.07-.037h.07c.14-.036.175-.073.21-.182.034-.109.07-.29.07-.872V30.29c0-.073 0-.364-.036-.473a.28.28 0 00-.07-.145c-.07-.073-.14-.073-.209-.073h-.105s-.035 0-.035-.036c0-.037.035-.037.07-.037h.21c.07 0 .28.037.489.037h2.828c.105 0 .245 0 .49-.037h.034c.035 0 .07.037.07.037 0 .036-.035.036-.07.036h-.035c-.14.036-.21.036-.244.145-.035.037-.035.146-.07.4v2.619c0 .145 0 .69.07.872.035.11.07.146.244.182h.105c.07 0 .14-.036.14.037 0 .036-.035.036-.07.036h-.035c-.07 0-.175-.036-.244-.036h-.84c-.104.036-.14.036-.14.036-.034 0-.07-.036-.07-.036 0-.037.036-.037.07-.037h.106c.104-.036.14-.073.174-.182.07-.181.07-.509.07-.727V29.89h-.035zm2.374 1.637c-.034.727.21 1.237.455 1.564.35.473.838.618 1.187.618v.218h-.035c-.419 0-1.152-.072-1.676-.727a2.52 2.52 0 01-.524-1.527c0-.4.105-.91.49-1.418.313-.4.802-.837 1.745-.873v.218c0-.036-.035-.036-.035-.036-.314 0-.803.072-1.187.509-.28.4-.42.872-.42 1.454zm1.677-1.89c.35 0 .768.108 1.118.472.314.364.558.873.558 1.636 0 .473-.07 1.019-.419 1.455-.21.255-.558.51-1.117.51h-.105v.217c.838 0 1.327-.4 1.607-.727.314-.364.593-.873.593-1.636 0-.473-.14-1.164-.663-1.637-.454-.436-1.048-.581-1.537-.581v.29h-.035zm3.597.727c0-.437-.035-.582-.035-.619-.035-.036-.07-.145-.244-.145h-.07c-.035 0-.14 0-.14-.036 0-.037.035-.037.07-.037h.035c.244.037.42.037.559.037h.279c.14-.037.245-.037.42-.037.628 0 .907.146 1.117.328a.98.98 0 01.28.69c0 .255-.036.619-.35.982-.314.328-.664.4-1.083.4h-.035c-.035 0-.07 0-.07-.036s.07-.036.07-.036h.07c.384-.037.734-.219.873-.546.07-.145.07-.327.07-.473.035-.327-.035-.618-.28-.872a1.17 1.17 0 00-.733-.291h-.07c-.104 0-.244 0-.244.145v2.946c0 .145 0 .69.035.872.035.11.105.146.28.182h.209c.035 0 .035 0 .035.037 0 .072-.175.036-.28.036h-.559c-.034 0-.279 0-.418.036h-.105l-.035-.036c0-.036.035-.036.035-.036h.07c.104-.037.21-.037.244-.182.035-.073.07-.255.07-.873v-2.436h-.07zm3.876 1.6h.524v.181h-.593c-.035 0-.035 0-.035.073l-.314 1.018c-.105.219-.105.328-.105.364 0 .182.14.182.21.182h.07s.034 0 .034.036c0 .037-.07.037-.105.037-.07 0-.14-.037-.244-.037h-.28c-.384 0-.314 0-.523.037h-.035c-.035 0-.07-.037-.07-.037 0-.072.07-.036.14-.036.174-.036.349-.073.523-.546l1.258-3.6c.035-.036.035-.072.035-.145v.8c-.035 0-.035.036-.035.036l-.524 1.564c.035.073.035.073.07.073zm.524-1.673c.035 0 .035.036.035.036l.524 1.564c0 .036 0 .036-.035.036h-.524v.182h.629s.035 0 .035.036l.524 1.419c0 .036 0 .109-.035.145-.035.036-.07 0-.07.036 0 .037.07.037.105.037.07 0 .314.036.384.036h.524c.035 0 .14 0 .14-.036s0-.036-.035-.036h-.175c-.28-.037-.384-.255-.454-.437s-.244-.509-.873-2.254c-.105-.328-.21-.582-.314-.873-.07-.218-.175-.4-.245-.618-.035-.073-.105-.182-.14-.182-.034 0-.07.036-.07.109v.8h.07zm4.401.073c0-.437-.035-.582-.035-.619-.035-.036-.07-.145-.245-.145h-.07c-.07 0-.14 0-.14-.036 0-.037.036-.037.07-.037h.036c.244.037.384.037.558.037h.315c.14-.037.244-.037.384-.037.628 0 .943.146 1.152.328a.98.98 0 01.28.69c0 .255-.07.619-.35.982-.314.328-.663.4-1.082.4h-.035c-.035 0-.105 0-.105-.036s.07-.036.105-.036h.07c.384-.037.698-.219.873-.546.07-.145.105-.327.105-.473 0-.327-.035-.618-.28-.872a1.17 1.17 0 00-.733-.291h-.07c-.14 0-.244 0-.244.145l-.07 2.946c0 .145 0 .69.07.872.034.11.104.146.244.182h.209s.035 0 .035.037c0 .072-.21.036-.314.036h-.558c-.07 0-.279 0-.419.036h-.07c-.035-.036-.07-.036-.07-.036 0-.036.035-.036.035-.036h.07c.105-.037.21-.037.245-.182.035-.073.07-.255.07-.873v-2.436h-.035zm3.003 1.454v-.145c0-.4.07-.91.489-1.418.28-.4.803-.837 1.711-.873v.218c0-.036-.035-.036-.035-.036-.349 0-.838.072-1.187.509-.314.363-.454.836-.454 1.418 0 .727.21 1.236.489 1.564.349.472.803.618 1.187.618v.218h-.035c-.419 0-1.152-.073-1.676-.727-.314-.328-.489-.837-.489-1.346zm2.2-2.182c.35 0 .769.11 1.118.473.314.364.593.873.593 1.636 0 .473-.07 1.019-.454 1.455-.21.255-.558.51-1.117.51h-.14v.217c.838 0 1.362-.4 1.642-.727.314-.364.593-.873.593-1.636 0-.473-.14-1.164-.663-1.637-.454-.436-1.048-.581-1.537-.581h-.035v.29zm6.635 1.054c-.034 0-.034-.072-.034-.108 0-.255-.035-.546-.454-.764-.384-.182-.769-.182-.943-.182-.384 0-.873.073-1.223.4-.349.291-.523.8-.523 1.455 0 1.2.768 2.182 2.095 2.182.419 0 .803-.073.978-.4.07-.11.105-.291.14-.4 0-.037 0-.037.034-.037.035 0 .035.073.035.11 0 .181-.105.763-.174.836-.07.073-.454.182-1.118.182-.559 0-1.292-.073-1.85-.618-.525-.51-.7-1.128-.7-1.71 0-.654.28-1.2.63-1.6.419-.436.942-.618 1.71-.618.245 0 .455.037.7.073.104.036.209.036.348.073.07 0 .105.036.175.036.14.036.175 0 .21.036.034 0 .034.037.034.037v.036c-.034.146-.034.182-.034.727.034.073.034.255-.035.255zm4.54 0c-.035 0-.035-.072-.035-.108 0-.255-.034-.546-.453-.764-.35-.182-.769-.182-.943-.182-.384 0-.838.073-1.223.4-.349.291-.523.8-.523 1.455 0 1.2.768 2.182 2.13 2.182.419 0 .803-.073.978-.4.07-.11.07-.291.104-.4 0-.037.035-.037.035-.037.035 0 .035.073.035.11 0 .181-.105.763-.14.836-.104.073-.453.182-1.152.182-.559 0-1.257-.073-1.85-.618-.525-.51-.7-1.128-.7-1.71 0-.654.28-1.2.63-1.6.418-.436.942-.618 1.71-.618.245 0 .455.037.699.073.105.036.244.036.35.073.07 0 .104.036.174.036.14.036.21 0 .21.036.034 0 .034.037.034.037v.036c-.035.146-.035.182-.035.727 0 .073.035.255-.035.255zm4.506-1.126c.034-.073.104-.146.174-.146.035 0 .105.037.105.182v3.236c-.035.691.035.837.105.91.035.072.174.072.21.072h.07c.104 0 .139-.036.139.037 0 .036-.035.036-.07.036h-.035c-.21 0-.42-.036-.629-.036h-.14c-.139 0-.279 0-.453.036h-.035c-.035-.036-.07-.036-.035-.073 0-.036.035-.036.035-.036h.105c.034-.036.104-.036.104-.073.035-.036.07-.073.105-.29.035-.183.035-.473.035-.655l.035-2.546-2.759 3.6c-.035.037-.07.11-.14.11-.035 0-.07-.037-.07-.182V30.29c0-.436-.034-.582-.034-.618-.035-.073-.105-.146-.245-.146h-.07c-.035 0-.035-.036-.035-.036 0-.036.035-.036.07-.036h.035c.14 0 .384.036.524.036h.105c.07 0 .21 0 .454-.036h.035c.034 0 .034.036.034.036 0 .036-.034.036-.104.036l-.07.037c-.105 0-.14.036-.21.145 0 .037-.035.146-.035.436v2.946l2.69-3.527zm5.308 0c.035-.073.105-.146.174-.146.035 0 .105.037.105.182l-.035 3.236c0 .691.035.837.105.91.07.072.175.072.245.072h.07c.07 0 .139-.036.139.037 0 .036-.035.036-.07.036h-.035c-.21 0-.419-.036-.628-.036h-.105c-.14 0-.28 0-.489.036h-.035c-.07-.036-.07-.036-.07-.073h.21c.035-.036.105-.036.14-.072.034-.037.07-.073.07-.291.034-.182.034-.473.034-.655v-2.545l-2.724 3.6c-.035.036-.105.109-.14.109-.034 0-.07-.037-.07-.182v-3.455c0-.436-.034-.582-.034-.618-.035-.073-.105-.145-.245-.145h-.07c-.034 0-.034-.037-.034-.037 0-.036.035-.036.07-.036h.034c.14 0 .42.036.524.036h.07c.105 0 .21 0 .489-.036h.035c.035 0 .07.036.07.036 0 .037-.035.037-.105.037l-.07.036c-.07 0-.14.036-.175.145-.035.037-.035.146-.035.437v2.945l2.585-3.563z" fill="#fff"/><path d="M12.432 14.364L41.559.509v23.055l-3.352-4.91H12.431v-4.29z" fill="#003571"/><path d="M41.837 0L26.856 7.09H10.512l-.07 17.564h31.395V0z" fill="#003571"/><path d="M12.432 14.364L41.559.509v23.055l-3.352-4.91H12.431v-4.29z" fill="#fff"/><path d="M12.432 15.782l28.009-8.655 1.117 16.437-3.352-4.91H12.431v-2.872z" fill="#0076BE"/><path d="M12.432 17.2l26.716-3.454 2.41 9.818-3.352-4.91H12.431V17.2z" fill="#E72F36"/></g><defs><clipPath id="clip0_1_633"><path fill="#fff" d="M0 0h52v34H0z"/></clipPath></defs></svg>