<svg width="36" height="53" fill="none" xmlns="http://www.w3.org/2000/svg"><path d="M10.612 50.156c-.784 0-1.456-.184-2.016-.552a2.93 2.93 0 01-1.164-1.512l.96-.552c.328 1.016 1.076 1.524 2.244 1.524.576 0 1.016-.116 1.32-.348a1.15 1.15 0 00.456-.948c0-.4-.152-.7-.456-.9-.304-.2-.812-.412-1.524-.636-.352-.112-.62-.2-.804-.264a10.013 10.013 0 01-.696-.312c-.272-.144-.476-.288-.612-.432a2.399 2.399 0 01-.372-.588 2.034 2.034 0 01-.156-.816c0-.728.256-1.304.768-1.728.512-.432 1.136-.648 1.872-.648.664 0 1.24.168 1.728.504.496.336.868.78 1.116 1.332l-.936.54c-.36-.864-.996-1.296-1.908-1.296-.456 0-.824.112-1.104.336-.28.224-.42.528-.42.912 0 .368.132.648.396.84.264.192.72.392 1.368.6a8.986 8.986 0 01.936.324c.208.08.36.144.456.192.096.048.224.116.384.204.168.088.292.172.372.252.08.08.172.18.276.3.112.112.192.228.24.348.048.12.088.26.12.42.04.152.06.316.06.492 0 .736-.268 1.324-.804 1.764-.536.432-1.236.648-2.1.648zm5.283-1.212h3.9V50h-5.016v-8.4h4.956v1.056h-3.84v2.58h3.54v1.044h-3.54v2.664zm12.173-.06c-.84.848-1.868 1.272-3.084 1.272s-2.244-.424-3.084-1.272c-.84-.848-1.26-1.876-1.26-3.084 0-1.216.42-2.244 1.26-3.084.84-.848 1.868-1.272 3.084-1.272s2.244.424 3.084 1.272c.848.84 1.272 1.868 1.272 3.084 0 1.208-.424 2.236-1.272 3.084zm-5.4-.756c.624.624 1.396.936 2.316.936.92 0 1.688-.312 2.304-.936.624-.632.936-1.408.936-2.328 0-.928-.312-1.704-.936-2.328-.616-.632-1.384-.948-2.304-.948-.92 0-1.692.316-2.316.948-.616.624-.924 1.4-.924 2.328 0 .92.308 1.696.924 2.328z" fill="#383838"/><path d="M6.717 18.093c-.626.32-1.227.683-1.791 1.091a11.542 11.542 0 002.704 2.021c-.15-.755-.226-1.53-.22-2.317.001-.088.006-.174.009-.262a1.739 1.739 0 01-.702-.534v.001zm-.587-5.987H3.442a1.73 1.73 0 01-1.57 1.333 11.157 11.157 0 002.465 5.106c.64-.466 1.32-.88 2.03-1.242a1.657 1.657 0 01-.026-.263c0-.46.185-.877.486-1.185a14.756 14.756 0 01-.699-3.75zm1.465 3.292a1.73 1.73 0 01.42-.07 11.438 11.438 0 011.718-3.224L7 12.106c.066 1.127.268 2.229.594 3.292zm5.131 1.267a6.683 6.683 0 00-.418 2.26 6.755 6.755 0 00.418 2.375v-4.635zM4.525 3.785c.852.665 1.776 1.23 2.754 1.685A14.8 14.8 0 0111.224.093a11.535 11.535 0 00-6.698 3.692zm2.449 7.461l3.48-.001a11.749 11.749 0 012.273-1.908V7.65a15.245 15.245 0 01-4.962-1.037 13.98 13.98 0 00-.791 4.633zm-5.23-1.232c.791 0 1.451.523 1.664 1.234l2.694-.002c.003-1.71.292-3.383.861-4.974A15.074 15.074 0 013.975 4.45a11.114 11.114 0 00-2.245 5.565l.014-.002zM14.94 22.478a11.557 11.557 0 006.608-3.442 13.99 13.99 0 00-2.826-1.513 14.6 14.6 0 01-3.781 4.955zm4.117-5.746a14.89 14.89 0 013.066 1.654 11.19 11.19 0 002.13-4.1 6.942 6.942 0 00-4.198-2.085 14.707 14.707 0 01-.998 4.53zm5.321-8.009a11.182 11.182 0 00-1.895-4.099c-.62.465-1.277.876-1.96 1.24.07.186.113.385.113.595 0 .405-.148.774-.388 1.068a11.68 11.68 0 014.13 1.197v-.001zM12.726 6.791V0c-2.07 1.513-3.673 3.517-4.648 5.81 1.483.583 3.047.913 4.649.981zm.872-6.693v6.704a14.385 14.385 0 003.568-.516c.048-.469.284-.878.637-1.159A14.049 14.049 0 0013.598.098zm4.994 4.672c.098-.017.198-.03.3-.03.434 0 .824.16 1.129.418.67-.353 1.316-.754 1.926-1.21A11.498 11.498 0 0014.94.068a14.835 14.835 0 013.653 4.703zm-4.994 4.055a11.688 11.688 0 013.972-1.257 1.72 1.72 0 01-.275-.423 15.259 15.259 0 01-3.697.517v1.163zm0 13.624c1.86-1.39 3.34-3.19 4.301-5.222a14.609 14.609 0 00-4.3-.721v5.943zm0-7.422v.622a15.49 15.49 0 014.642.785c.54-1.362.857-2.8.949-4.282a6.951 6.951 0 00-5.59 2.875z" fill="#FF1422"/><path d="M18.892 4.74a1.799 1.799 0 00-1.09.386c-.353.28-.589.69-.637 1.16-.006.057-.017.113-.017.172 0 .244.054.476.147.687.069.155.165.295.275.422.496-.064 1-.1 1.512-.1h.089c.363.003.723.024 1.077.059.24-.294.388-.663.388-1.068a1.71 1.71 0 00-.616-1.3 1.741 1.741 0 00-1.128-.419z" fill="#34A853"/><path d="M1.744 10.014l-.014.001C.773 10.023 0 10.79 0 11.732c0 .944.78 1.72 1.744 1.72l.128-.014a1.73 1.73 0 001.616-1.706c0-.17-.034-.33-.08-.484a1.734 1.734 0 00-1.664-1.235v.001z" fill="#1A497E"/><path d="M6.342 17.04c0 .09.013.177.026.263a1.744 1.744 0 001.049 1.324c.036-1.15.242-2.257.599-3.299a1.763 1.763 0 00-.422.07c-.295.086-.56.242-.767.457-.3.308-.486.725-.486 1.185z" fill="#34A853"/><path d="M34.274 31.014l-5.861-5.775a10.94 10.94 0 001.969-6.183c.046-6.14-4.985-11.171-11.214-11.217h-.086c-6.182 0-11.25 4.957-11.296 11.051a10.977 10.977 0 003.25 7.897A11.305 11.305 0 0019 30.107h.085c2.1 0 4.141-.57 5.92-1.654l5.868 5.78-.333-.327 3.36-3.26.374.368zm-15.04-4.843h-.056a7.31 7.31 0 01-5.147-2.145 7.098 7.098 0 01-2.1-5.104c.03-3.939 3.305-7.143 7.3-7.143h.055c4.026.03 7.278 3.282 7.248 7.25-.03 3.938-3.306 7.142-7.3 7.142z" fill="#1A497E"/><path d="M31.49 34.843l.802.8c.233.234.557.357.936.357.61 0 1.307-.324 1.866-.867.941-.915 1.187-2.124.558-2.752l-1.069-1.07-.003.003.013.012h.002l.517.516-3.358 3.26-.262-.26-.002.001zm-.016-.016l-.253-.25.253.25z" fill="#34A853"/><path d="M34.58 31.315l-.306-.3-.374-.37-3.36 3.26.333.329.348.343.253.25.017.016.262.26 3.358-3.26-.516-.517-.002.001-.013-.012z" fill="#FF1422"/></svg>