<svg width="42" height="53" fill="none" xmlns="http://www.w3.org/2000/svg"><path d="M3.376 43.407v7.418H2.4v-7.418h.976zm2.405 0v.805H0v-.805h5.78zm2.654 7.52c-.387 0-.738-.065-1.053-.194a2.39 2.39 0 01-.807-.555 2.465 2.465 0 01-.514-.846 3.077 3.077 0 01-.18-1.07v-.214c0-.448.067-.847.2-1.197.134-.353.316-.652.545-.896.23-.245.49-.43.781-.556a2.26 2.26 0 01.905-.188c.397 0 .74.068 1.027.204.291.136.53.326.714.57.185.241.322.527.412.856.089.326.133.683.133 1.07v.423H6.446v-.77h3.202v-.07a2.334 2.334 0 00-.155-.714 1.283 1.283 0 00-.41-.57c-.19-.15-.446-.225-.771-.225a1.303 1.303 0 00-1.064.535c-.13.177-.231.392-.303.647a3.253 3.253 0 00-.108.881v.214c0 .262.036.508.108.739.075.228.183.428.323.601.144.173.317.31.52.408a1.6 1.6 0 00.698.147c.336 0 .62-.067.853-.203a2.12 2.12 0 00.612-.545l.575.453c-.12.18-.272.351-.457.514a2.187 2.187 0 01-.683.398 2.666 2.666 0 01-.951.153zM12.636 43v7.825h-.956V43h.956zm3.728 7.927a2.76 2.76 0 01-1.054-.194 2.39 2.39 0 01-.806-.555 2.466 2.466 0 01-.514-.846 3.077 3.077 0 01-.18-1.07v-.214c0-.448.067-.847.2-1.197.134-.353.316-.652.545-.896.23-.245.49-.43.781-.556a2.26 2.26 0 01.904-.188c.398 0 .74.068 1.028.204.291.136.53.326.714.57.185.241.322.527.412.856.089.326.133.683.133 1.07v.423h-4.152v-.77h3.201v-.07a2.333 2.333 0 00-.154-.714 1.283 1.283 0 00-.41-.57c-.19-.15-.446-.225-.772-.225a1.303 1.303 0 00-1.063.535c-.13.177-.232.392-.303.647a3.254 3.254 0 00-.108.881v.214c0 .262.036.508.108.739.075.228.183.428.323.601.144.173.317.31.52.408a1.6 1.6 0 00.698.147c.336 0 .62-.067.853-.203a2.12 2.12 0 00.612-.545l.575.453c-.12.18-.272.351-.457.514a2.188 2.188 0 01-.684.398 2.667 2.667 0 01-.95.153zm6.77-5.614h.863v5.395c0 .485-.1.9-.298 1.243a1.934 1.934 0 01-.832.779c-.353.18-.76.27-1.223.27-.192 0-.418-.03-.679-.092a2.745 2.745 0 01-.76-.3 1.894 1.894 0 01-.622-.566l.499-.56c.232.278.476.472.73.58.256.11.51.164.76.164.301 0 .562-.056.78-.168.22-.112.39-.279.51-.5.123-.217.184-.485.184-.805v-4.228l.088-1.212zm-3.828 2.817v-.107c0-.421.05-.803.149-1.146a2.75 2.75 0 01.436-.892c.192-.248.424-.438.694-.57a2.01 2.01 0 01.915-.204c.35 0 .654.061.914.183.264.12.487.294.668.525.185.228.331.503.437.825.106.323.18.688.221 1.096v.468a4.762 4.762 0 01-.22 1.09 2.564 2.564 0 01-.438.826 1.824 1.824 0 01-.668.524 2.233 2.233 0 01-.925.179 1.94 1.94 0 01-.904-.21 2.054 2.054 0 01-.688-.585 2.762 2.762 0 01-.442-.886c-.1-.343-.15-.715-.15-1.116zm.95-.107v.107c0 .275.028.533.082.774.059.241.146.454.262.637.12.183.273.328.458.433.185.102.406.153.663.153.315 0 .575-.066.78-.199a1.44 1.44 0 00.489-.524 3.02 3.02 0 00.288-.709v-1.227a2.488 2.488 0 00-.175-.54 1.66 1.66 0 00-.298-.469c-.12-.14-.269-.25-.447-.331a1.494 1.494 0 00-.627-.122c-.26 0-.485.054-.673.163a1.306 1.306 0 00-.457.438 2.093 2.093 0 00-.262.642c-.055.24-.083.499-.083.774zm6.03-1.844v4.646h-.95v-5.512h.925l.025.866zm1.737-.897l-.005.876a1.393 1.393 0 00-.226-.03 2.42 2.42 0 00-.236-.01c-.22 0-.413.034-.581.102-.168.068-.31.163-.427.285a1.372 1.372 0 00-.277.438 2.11 2.11 0 00-.129.55l-.267.153c0-.333.033-.645.098-.937a2.54 2.54 0 01.313-.775c.14-.227.319-.404.535-.53a1.511 1.511 0 011.017-.168c.09.014.15.03.185.046zm3.847 4.6v-2.837c0-.218-.045-.406-.134-.566a.87.87 0 00-.39-.377 1.426 1.426 0 00-.648-.132c-.24 0-.45.04-.632.122a1.1 1.1 0 00-.422.321.7.7 0 00-.149.428h-.95c0-.197.051-.392.154-.586.103-.193.25-.368.442-.525.195-.16.428-.285.699-.377.274-.095.579-.142.914-.142.405 0 .76.068 1.07.204.31.136.554.341.729.616.178.272.267.613.267 1.024v2.568c0 .183.015.378.046.585.035.208.084.386.15.535v.082h-.992a1.747 1.747 0 01-.114-.433 3.462 3.462 0 01-.04-.51zm.164-2.4l.01.663h-.96a3.59 3.59 0 00-.725.066c-.213.041-.39.104-.535.189a.846.846 0 00-.442.764c0 .173.04.331.119.474a.856.856 0 00.354.341c.161.082.358.122.591.122a1.601 1.601 0 001.3-.632c.134-.176.206-.347.216-.514l.406.454a1.36 1.36 0 01-.195.473 2.274 2.274 0 01-1.054.892c-.24.102-.51.153-.812.153-.377 0-.707-.073-.991-.22a1.69 1.69 0 01-.658-.585 1.54 1.54 0 01-.231-.83c0-.296.058-.556.174-.78a1.51 1.51 0 01.504-.566c.22-.152.483-.268.791-.346a4.21 4.21 0 011.033-.117h1.105zm3.122-1.074v4.417H34.2v-5.512h.904l.052 1.095zm-.196 1.452l-.442-.015c.004-.377.053-.725.15-1.045a2.47 2.47 0 01.426-.84c.188-.238.423-.421.704-.55.28-.133.606-.2.976-.2.26 0 .5.038.72.113.219.071.409.185.57.341.16.157.286.357.375.601.09.245.134.54.134.887v3.673h-.951v-3.627c0-.289-.05-.52-.149-.693a.848.848 0 00-.411-.377 1.494 1.494 0 00-.627-.122c-.28 0-.516.049-.704.147-.188.099-.34.235-.452.408a1.827 1.827 0 00-.247.596 3.31 3.31 0 00-.072.703zm3.602-.52l-.637.194c.004-.302.053-.593.15-.871.099-.279.24-.527.426-.744.188-.217.42-.389.693-.514a2.17 2.17 0 01.94-.194c.299 0 .563.039.792.117.233.078.428.199.586.362.16.16.282.365.365.616.082.252.123.55.123.897v3.622h-.956v-3.632c0-.31-.05-.549-.149-.719a.774.774 0 00-.41-.361 1.656 1.656 0 00-.628-.107c-.209 0-.394.035-.555.107-.16.07-.296.17-.406.295a1.27 1.27 0 00-.251.423c-.055.16-.083.33-.083.51z" fill="#383838"/><path d="M21 36c9.941 0 18-8.059 18-18S30.941 0 21 0 3 8.059 3 18s8.059 18 18 18z" fill="url(#paint0_linear_2117_215)"/><path d="M17.7 26.25c-.583 0-.484-.22-.685-.775L15.3 19.83 28.5 12" fill="#C8DAEA"/><path d="M17.7 26.25c.45 0 .649-.206.9-.45l2.4-2.334-2.994-1.805" fill="#A9C9DD"/><path d="M18.006 21.661l7.254 5.36c.828.456 1.425.22 1.631-.769l2.953-13.914c.302-1.212-.462-1.762-1.254-1.402L11.252 17.62c-1.184.475-1.177 1.135-.216 1.43l4.45 1.388 10.3-6.499c.487-.294.933-.136.567.19" fill="url(#paint1_linear_2117_215)"/><defs><linearGradient id="paint0_linear_2117_215" x1="16.502" y1="1.501" x2="7.502" y2="22.5" gradientUnits="userSpaceOnUse"><stop stop-color="#32C5FF"/><stop offset="1" stop-color="#1490C0"/></linearGradient><linearGradient id="paint1_linear_2117_215" x1="18.747" y1="19.105" x2="20.67" y2="25.327" gradientUnits="userSpaceOnUse"><stop stop-color="#EFF7FC"/><stop offset="1" stop-color="#fff"/></linearGradient></defs></svg>