<svg width="100" height="20" fill="none" xmlns="http://www.w3.org/2000/svg"><g clip-path="url(#clip0_1_621)"><path fill-rule="evenodd" clip-rule="evenodd" d="M22.195 8.735c.01 4.38.016 5.029.053 5.228.14.748.39 1.258.825 1.68.565.547 1.284.794 2.312.793.895 0 1.563-.198 2.126-.632.382-.293.661-.696.855-1.231.214-.591.203-.274.203-5.858V3.75l-1-.007-1-.007-.007 5.013-.007 5.014-.061.156c-.213.543-.583.759-1.247.725-.228-.011-.282-.025-.46-.11-.295-.142-.435-.317-.555-.692-.038-.117-.044-.687-.051-5.119l-.009-4.987h-1.987l.01 5zm8.502-4.983c-.023.023-.025 11.055-.002 11.869l.019.64.955.009c.525.005.964.001.976-.008.012-.008.03-1 .039-2.205l.017-2.19.124-.001c.98-.014 1.571-.07 1.976-.186.736-.212 1.384-.75 1.672-1.388a5.11 5.11 0 00.281-.928c.058-.3.06-.387.06-1.589 0-1.214-.002-1.286-.062-1.59a4.502 4.502 0 00-.338-1.033c-.383-.744-1.158-1.242-2.141-1.376-.248-.033-.607-.04-1.931-.04-.895 0-1.636.007-1.645.016zm7.792 6.243v6.262l.958.014c.527.008.974.008.993.001.028-.01.035-.451.035-2.208 0-1.208.003-2.197.007-2.197s.295-.008.646-.015c1.102-.024 1.656-.15 2.21-.507.492-.314.831-.75 1.03-1.322.218-.624.244-.868.244-2.273 0-.97-.007-1.157-.053-1.445-.16-.998-.53-1.636-1.206-2.073a2.026 2.026 0 00-.633-.306c-.52-.174-.53-.174-2.47-.184l-1.761-.01v6.263zm7.783.005v6.265l2.306.002c1.269.001 2.701.013 2.701.013l.463-.002.014-.92v-.881l-1.749-.007-1.748-.007V10.86l1.435.002h1.544V9.073l-1.49-.007-1.49-.007V5.537h1.74c1.387 0 1.741-.007 1.752-.034.007-.019.011-.421.01-.894l-.004-.86-2.742-.007-2.742-.007V10zm7.511 0v6.265h1.979l.02-.875c.01-.48.01-1.566 0-2.411l-.02-1.537.337.008.337.007.09.331c.049.182.143.51.21.729.316 1.044.622 2.066.773 2.583.091.313.206.7.256.86l.09.292.999.007c.549.004.998 0 .998-.01 0-.033-.416-1.332-.572-1.785-.143-.417-.412-1.233-.895-2.72a7.375 7.375 0 01-.166-.55c0-.025.069-.071.174-.118.25-.11.481-.27.71-.492a2.12 2.12 0 00.595-.955c.171-.511.208-.867.208-1.986 0-1.181-.041-1.542-.251-2.151a2.307 2.307 0 00-.544-.897c-.45-.464-.985-.72-1.706-.818-.247-.034-.609-.042-1.963-.042h-1.659V10zM34.122 5.6c.278.086.508.3.613.57.049.124.063.243.085.719.03.632.009 2.14-.033 2.342a.98.98 0 01-.53.692c-.12.057-.202.07-.547.094a9.637 9.637 0 01-.719.019l-.313-.008-.007-2.212c-.004-1.217 0-2.228.007-2.248.022-.055 1.252-.028 1.444.032zm7.596-.034c.522.07.828.403.885.962.014.133.021.784.016 1.447-.008 1.181-.01 1.208-.072 1.38-.12.332-.375.565-.694.633a7.554 7.554 0 01-.755.045l-.615.016-.016-.951c-.013-.81-.01-3.427.004-3.527.006-.043.938-.046 1.247-.005zm15.317 0c.477.065.793.386.862.877.016.111.023.664.016 1.344-.01 1.068-.015 1.166-.066 1.314-.114.335-.303.527-.611.623-.175.055-.247.06-.808.063l-.617.002-.007-2.126-.007-2.125h.524c.288 0 .61.013.715.027z" fill="#383838"/><path d="M62.432 4.422c.43-.45.88-.67 1.653-.805.216-.038.468-.063.65-.065.533-.004 1.267.144 1.662.336a2.33 2.33 0 011.025 1.001c.337.637.458 1.275.458 2.428v.443l-.973.008c-.535.004-.988.003-1.007-.002-.026-.008-.034-.171-.034-.702 0-.775-.022-.964-.137-1.199-.165-.336-.438-.486-.926-.507-.532-.024-.842.132-1.05.53-.114.22-.146.465-.145 1.128 0 .506.009.634.054.819.144.587.405.8 1.505 1.225.733.284.915.363 1.17.507.734.417 1.166.938 1.417 1.71.102.318.154.705.172 1.293.062 2.055-.599 3.306-1.956 3.706a4.383 4.383 0 01-2.524-.026 2.277 2.277 0 01-1.02-.632c-.372-.375-.632-.928-.754-1.606-.075-.42-.11-1.843-.047-1.882.02-.013.469-.023.996-.024h.96v.722c0 .893.034 1.13.205 1.414.086.144.203.238.42.338.17.078.193.081.531.082.443 0 .601-.051.824-.268.3-.292.374-.587.371-1.467-.002-.702-.043-.95-.206-1.25-.234-.426-.423-.543-1.82-1.12-.71-.295-1.005-.468-1.365-.804a2.838 2.838 0 01-.81-1.475c-.183-.87-.11-2.233.16-2.949.14-.373.32-.676.541-.907zm7.218-.659l.537-.007a366.85 366.85 0 012.728-.007h2.19l.014.874c.008.48.01.883.006.894-.005.011-.793.02-1.75.02a70.223 70.223 0 00-1.763.01c-.012.008-.02.083-.017.167.002.085.006.878.009 1.763l.005 1.61h2.993v.748c0 .411.008.81.018.887l.017.14h-3.064l.018.31c.01.171.018.962.019 1.758 0 .795.008 1.471.017 1.503l.015.057h3.478v.765c0 .42.007.82.017.887l.017.123-2.745-.006-2.746-.007-.007-6.245-.007-6.244zm7.238-.001l2.674-.007c1.47-.004 2.89-.01 3.153-.013l.479-.007.017.576c.01.317.018.723.018.901v.325h-2.204v5.368c0 2.952-.002 5.37-.006 5.374a36.98 36.98 0 01-.986-.01l-.979-.017-.002-.53c-.002-.291-.005-2.702-.008-5.358l-.006-4.827h-1.075c-.591 0-1.075-.01-1.076-.02-.002-.058-.005-1.645-.002-1.696l.003-.059zm8.056.002l.225-.009c.123-.005.563-.011.978-.014l.754-.006.01 4.92c.012 5.34.004 5.083.16 5.413.038.08.11.191.159.246.358.396 1.199.468 1.641.14.247-.184.41-.477.455-.824.015-.106.026-2.27.026-5.025V3.767l.144-.012c.078-.007.519-.014.98-.016l.836-.005v4.899c0 4.693-.002 4.913-.052 5.24-.084.55-.169.826-.356 1.166-.329.597-.802.984-1.466 1.203-.794.261-1.758.264-2.599.005a2.227 2.227 0 01-.698-.341c-.63-.45-.987-1.104-1.14-2.088-.056-.35-.057-.445-.057-5.205v-4.85z" fill="#6A3EE7"/><path fill-rule="evenodd" clip-rule="evenodd" d="M93.306 3.755l-.17.01.006 6.241.007 6.242.973.011.973.012v-4.43h.483c1.394 0 2.123-.202 2.725-.753.394-.361.679-.884.803-1.476.11-.527.126-.739.126-1.748 0-1.262-.043-1.718-.207-2.226-.26-.798-.804-1.386-1.546-1.667-.568-.214-.818-.237-2.573-.23-.787.002-1.507.009-1.6.014zm3.811 2.33a.946.946 0 00-.648-.506c-.17-.04-.679-.063-1.136-.049l-.265.008.004 1.715c.002.943.01 1.958.02 2.257l.017.543.599-.009c.62-.009.816-.035 1.023-.138.21-.104.377-.33.478-.649.045-.144.05-.27.05-1.469 0-1.403-.002-1.43-.142-1.703z" fill="#6A3EE7"/><path d="M4.633 2.45V0s.385.185.698.36l.88.496 1.144.64a954.82 954.82 0 013.543 1.988c.321.183.42.251.396.274-.017.017-.04.03-.05.03-.022 0-.053.018-1.032.57-.84.475-1.063.594-1.113.595-.032 0-.145-.059-.696-.37a56.237 56.237 0 01-.313-.179 235.346 235.346 0 01-2.41-1.346l-.53-.296c-.313-.171-.518-.312-.518-.312z" fill="#6A3EE7"/><path d="M.162 4.94V2.534s.512.234 1.423.748c.427.24.917.513 1.089.607.172.094.325.18.34.191.015.011.407.232.87.491l1.484.829A4861.634 4861.634 0 009.03 7.446l.083.05.285-.162c.156-.09.822-.462 1.481-.83 1.26-.703 4.1-2.295 4.518-2.531.134-.077.284-.155.333-.176l.088-.036V4.99c0 .951-.007 1.235-.034 1.256-.018.014-.31.18-.646.37L13.26 7.67a1931.88 1931.88 0 01-3.279 1.838l-.816.457-.107-.031c-.108-.032-.798-.414-4.928-2.73L1.367 5.658.162 4.94zm7.07 6.125c.734-.41 1.426-.8 1.538-.87.112-.068.232-.125.265-.126l.062-.003v.596c0 .589-.001.596-.062.632-.121.073-3.084 1.733-3.169 1.775a.409.409 0 01-.133.044c-.025 0-.271-.133-.547-.296-.42-.248-.495-.302-.464-.331.038-.038.366-.223 2.51-1.42z" fill="#6A3EE7"/><path d="M.17 15.018v-2.459l.119.052c.155.066.714.367 1.228.66.225.128.739.417 1.143.643l1.089.607.775.432c.232.13.595.334.806.456.211.12.398.22.414.22.017 0 .144-.064.283-.142.14-.078.394-.22.566-.313.477-.261 2.766-1.537 3.205-1.787.372-.212.48-.251.538-.197.034.032.793.457.89.499.041.017.075.043.075.057 0 .024-.142.135-.172.135-.016 0-.68.374-.998.562-.113.066-.345.197-.518.291-.172.094-.472.26-.666.37l-.912.51c-.307.172-.613.345-.68.386-.068.04-.2.112-.293.159a.61.61 0 00-.17.105c0 .023.063.06 1.296.745.496.276.916.501.934.501.018 0 .36-.184.759-.408a2605.95 2605.95 0 014.604-2.58c.29-.157.713-.395.952-.536.143-.083.286-.16.32-.17l.06-.018.008 1.224.007 1.224-.109.067c-.18.112-1.552.883-5.348 3.006l-.707.396-.302.17a1.18 1.18 0 01-.25.115c-.052 0-.257-.105-.638-.325-.161-.094-.508-.29-.77-.435-.71-.395-.787-.442-.8-.485a7.624 7.624 0 01-.019-.57c-.006-.57-.01-.622-.061-.622-.018 0-.258.125-.533.278-.276.153-.524.278-.553.278-.043 0-.253-.104-.428-.213-.066-.04-1.201-.674-1.639-.915-.22-.121-.447-.25-.503-.285a29.97 29.97 0 00-.675-.382 253.383 253.383 0 01-1.538-.859c-.214-.117-.307-.17-.55-.31l-.24-.137z" fill="#6A3EE7"/></g><defs><clipPath id="clip0_1_621"><path fill="#fff" d="M0 0h100v20H0z"/></clipPath></defs></svg>