<svg viewBox="0 0 20 20"><path d="M17.498 11.697A2.384 2.384 0 0 1 16.794 10a2.384 2.384 0 0 1 .961-1.917.39.39 0 0 0 .137-.417 8.169 8.169 0 0 0-.662-1.597.385.385 0 0 0-.391-.199c-.13.02-.238.027-.336.027a2.402 2.402 0 0 1-2.401-2.4c0-.099.008-.207.027-.336a.388.388 0 0 0-.199-.391 8.144 8.144 0 0 0-1.597-.662.388.388 0 0 0-.416.137A2.38 2.38 0 0 1 10 3.207a2.38 2.38 0 0 1-1.917-.961.388.388 0 0 0-.416-.137 8.216 8.216 0 0 0-1.597.662.387.387 0 0 0-.199.391c.02.129.027.237.027.336 0 1.325-1.076 2.4-2.401 2.4a2.15 2.15 0 0 1-.335-.027.387.387 0 0 0-.392.199 8.241 8.241 0 0 0-.662 1.597.39.39 0 0 0 .137.417 2.399 2.399 0 0 1 0 3.835.388.388 0 0 0-.137.416c.166.557.388 1.096.662 1.596a.381.381 0 0 0 .392.199 2.15 2.15 0 0 1 .335-.027 2.403 2.403 0 0 1 2.401 2.402c0 .098-.007.205-.027.334a.388.388 0 0 0 .199.391c.501.273 1.04.496 1.597.66a.382.382 0 0 0 .417-.137 2.385 2.385 0 0 1 1.917-.959 2.382 2.382 0 0 1 1.917.959.382.382 0 0 0 .416.136 8.148 8.148 0 0 0 1.597-.66.39.39 0 0 0 .199-.393 2.138 2.138 0 0 1-.027-.334 2.403 2.403 0 0 1 2.401-2.402c.098 0 .206.008.336.027a.385.385 0 0 0 .391-.199c.274-.5.496-1.039.662-1.596a.388.388 0 0 0-.137-.416 1.776 1.776 0 0 1-.258-.219m-.827 1.637c-.059-.002-.114-.002-.168-.002a3.176 3.176 0 0 0-3.173 3.172c0 .053.002.109.004.166a7.09 7.09 0 0 1-.976.406A3.152 3.152 0 0 0 10 16.023a3.15 3.15 0 0 0-2.359 1.053 7.09 7.09 0 0 1-.976-.406c.002-.057.004-.113.004-.166a3.175 3.175 0 0 0-3.172-3.172c-.054 0-.11 0-.168.002a7.198 7.198 0 0 1-.405-.975c.044-.039.085-.078.124-.115a3.177 3.177 0 0 0-.124-4.602 7.21 7.21 0 0 1 .405-.976c.058.002.114.004.168.004a3.175 3.175 0 0 0 3.172-3.172c0-.054-.002-.11-.004-.168a7.21 7.21 0 0 1 .976-.405A3.15 3.15 0 0 0 10 3.978a3.15 3.15 0 0 0 2.358-1.053c.336.112.663.247.976.405-.002.058-.004.114-.004.168a3.177 3.177 0 0 0 3.173 3.172c.054 0 .109-.002.168-.004.158.312.293.64.405.976A3.15 3.15 0 0 0 16.022 10a3.151 3.151 0 0 0 1.054 2.359 7.252 7.252 0 0 1-.405.975M10 5.417A4.588 4.588 0 0 0 5.416 10c0 2.529 2.056 4.584 4.584 4.584s4.584-2.055 4.584-4.584A4.588 4.588 0 0 0 10 5.417m0 8.395A3.816 3.816 0 0 1 6.188 10 3.816 3.816 0 0 1 10 6.188 3.816 3.816 0 0 1 13.812 10 3.815 3.815 0 0 1 10 13.812"/></svg><svg viewBox="0 0 20 20"><path d="M17.498 11.697A2.384 2.384 0 0 1 16.794 10a2.384 2.384 0 0 1 .961-1.917.39.39 0 0 0 .137-.417 8.169 8.169 0 0 0-.662-1.597.385.385 0 0 0-.391-.199c-.13.02-.238.027-.336.027a2.402 2.402 0 0 1-2.401-2.4c0-.099.008-.207.027-.336a.388.388 0 0 0-.199-.391 8.144 8.144 0 0 0-1.597-.662.388.388 0 0 0-.416.137A2.38 2.38 0 0 1 10 3.207a2.38 2.38 0 0 1-1.917-.961.388.388 0 0 0-.416-.137 8.216 8.216 0 0 0-1.597.662.387.387 0 0 0-.199.391c.02.129.027.237.027.336 0 1.325-1.076 2.4-2.401 2.4a2.15 2.15 0 0 1-.335-.027.387.387 0 0 0-.392.199 8.241 8.241 0 0 0-.662 1.597.39.39 0 0 0 .137.417 2.399 2.399 0 0 1 0 3.835.388.388 0 0 0-.137.416c.166.557.388 1.096.662 1.596a.381.381 0 0 0 .392.199 2.15 2.15 0 0 1 .335-.027 2.403 2.403 0 0 1 2.401 2.402c0 .098-.007.205-.027.334a.388.388 0 0 0 .199.391c.501.273 1.04.496 1.597.66a.382.382 0 0 0 .417-.137 2.385 2.385 0 0 1 1.917-.959 2.382 2.382 0 0 1 1.917.959.382.382 0 0 0 .416.136 8.148 8.148 0 0 0 1.597-.66.39.39 0 0 0 .199-.393 2.138 2.138 0 0 1-.027-.334 2.403 2.403 0 0 1 2.401-2.402c.098 0 .206.008.336.027a.385.385 0 0 0 .391-.199c.274-.5.496-1.039.662-1.596a.388.388 0 0 0-.137-.416 1.776 1.776 0 0 1-.258-.219m-.827 1.637c-.059-.002-.114-.002-.168-.002a3.176 3.176 0 0 0-3.173 3.172c0 .053.002.109.004.166a7.09 7.09 0 0 1-.976.406A3.152 3.152 0 0 0 10 16.023a3.15 3.15 0 0 0-2.359 1.053 7.09 7.09 0 0 1-.976-.406c.002-.057.004-.113.004-.166a3.175 3.175 0 0 0-3.172-3.172c-.054 0-.11 0-.168.002a7.198 7.198 0 0 1-.405-.975c.044-.039.085-.078.124-.115a3.177 3.177 0 0 0-.124-4.602 7.21 7.21 0 0 1 .405-.976c.058.002.114.004.168.004a3.175 3.175 0 0 0 3.172-3.172c0-.054-.002-.11-.004-.168a7.21 7.21 0 0 1 .976-.405A3.15 3.15 0 0 0 10 3.978a3.15 3.15 0 0 0 2.358-1.053c.336.112.663.247.976.405-.002.058-.004.114-.004.168a3.177 3.177 0 0 0 3.173 3.172c.054 0 .109-.002.168-.004.158.312.293.64.405.976A3.15 3.15 0 0 0 16.022 10a3.151 3.151 0 0 0 1.054 2.359 7.252 7.252 0 0 1-.405.975M10 5.417A4.588 4.588 0 0 0 5.416 10c0 2.529 2.056 4.584 4.584 4.584s4.584-2.055 4.584-4.584A4.588 4.588 0 0 0 10 5.417m0 8.395A3.816 3.816 0 0 1 6.188 10 3.816 3.816 0 0 1 10 6.188 3.816 3.816 0 0 1 13.812 10 3.815 3.815 0 0 1 10 13.812"/></svg>