<svg width="48" height="78" xmlns="http://www.w3.org/2000/svg"><title>Group 13</title><path d="M47.635 61.284V73.52l-.07.028a62.934 62.934 0 0 1-4.436 1.874 35.497 35.497 0 0 1-11.093 2.267c-.337.013-.674.036-1.012.053-.74 0-2.316-.02-2.367-.021a33.952 33.952 0 0 1-3.523-.279c-1.92-.255-3.797-.694-5.614-1.375-2.888-1.078-5.433-2.675-7.543-4.94-1.637-1.757-2.734-3.781-3.166-6.159-.33-1.815-.46-3.644-.46-5.484-.007-9.125-.003-18.46-.003-27.586H0V20.77c.924-.365 1.852-.684 2.753-1.102 4.765-2.214 8.25-5.723 10.463-10.486 1.082-2.333 1.69-4.808 2.107-7.337.102-.613.183-1.23.273-1.845H26.62l.004 19.694h18.443V31.9H26.614s.012 21.712.029 22.437c.04 1.65.118 3.295.37 4.93.273 1.757 1.152 3.12 2.632 4.094 1.45.953 3.051 1.5 4.775 1.684 1.714.184 3.414.054 5.101-.286 2.946-.593 5.617-1.83 8.114-3.475z" fill="#2F4F6E"/></svg>