<svg width="78" height="45" xmlns="http://www.w3.org/2000/svg"><title>Group</title><path d="M38.182 44.335h4.665s1.41-.155 2.129-.93c.662-.712.64-2.05.64-2.05s-.09-6.259 2.814-7.18c2.864-.908 6.542 6.049 10.44 8.724 2.947 2.025 5.186 1.58 5.186 1.58l10.422-.144s5.452-.336 2.867-4.623c-.212-.35-1.505-3.17-7.749-8.966-6.534-6.065-5.66-5.084 2.212-15.576 4.795-6.39 6.711-10.29 6.113-11.961-.572-1.592-4.097-1.171-4.097-1.171l-11.735.073s-.87-.119-1.515.267c-.63.378-1.036 1.26-1.036 1.26s-1.857 4.944-4.334 9.15c-5.226 8.872-7.315 9.34-8.169 8.79-1.986-1.285-1.49-5.159-1.49-7.911 0-8.599 1.304-12.184-2.54-13.112C41.729.246 40.791.043 37.529.01c-4.187-.043-7.731.013-9.738.996-1.335.654-2.365 2.11-1.737 2.194.775.104 2.532.474 3.463 1.742 1.203 1.636 1.16 5.31 1.16 5.31s.69 10.122-1.613 11.38c-1.582.862-3.752-.899-8.41-8.949-2.387-4.123-4.19-8.68-4.19-8.68s-.347-.853-.967-1.308c-.752-.552-1.803-.728-1.803-.728l-11.15.073s-1.675.047-2.29.775C-.291 3.462.212 4.8.212 4.8s8.73 20.424 18.615 30.717c9.064 9.436 19.356 8.817 19.356 8.817z" fill="#44678D"/></svg>