<svg width="62" height="51" viewBox="0 0 62 51" xmlns="http://www.w3.org/2000/svg"><title>Group 3</title><path d="M61.751 5.941a25.277 25.277 0 0 1-7.277 1.993A12.703 12.703 0 0 0 60.046.926a25.362 25.362 0 0 1-8.045 3.073A12.657 12.657 0 0 0 42.751 0c-6.995 0-12.669 5.674-12.669 12.67 0 .992.113 1.959.33 2.886-10.53-.528-19.865-5.571-26.114-13.238a12.615 12.615 0 0 0-1.716 6.37c0 4.394 2.238 8.273 5.636 10.545a12.58 12.58 0 0 1-5.738-1.587v.161c0 6.138 4.368 11.258 10.163 12.422a12.683 12.683 0 0 1-5.72.22c1.61 5.03 6.288 8.694 11.834 8.797A25.42 25.42 0 0 1 3.02 44.669 25.315 25.315 0 0 1 0 44.492a35.836 35.836 0 0 0 19.419 5.692c23.303 0 36.047-19.304 36.047-36.048 0-.549-.013-1.096-.037-1.638a25.691 25.691 0 0 0 6.322-6.557z" fill="#50ABF1"/></svg>