<svg width="67" height="69" viewBox="0 0 67 69" xmlns="http://www.w3.org/2000/svg"><title>Group 12</title><g fill="#7D3DAF"><path d="M64.695 16.444l-.02-.079c-1.596-6.454-8.793-13.38-15.403-14.82l-.075-.015a85.597 85.597 0 0 0-32.219 0l-.077.015c-6.607 1.44-13.805 8.366-15.403 14.82l-.018.08a63.062 63.062 0 0 0 0 27.166l.018.079c1.53 6.178 8.192 12.785 14.555 14.603v7.204c0 2.607 3.177 3.888 4.984 2.007l7.3-7.588c1.583.089 3.167.138 4.75.138a85.85 85.85 0 0 0 16.11-1.529l.075-.015c6.61-1.44 13.807-8.366 15.403-14.82l.02-.079a63.063 63.063 0 0 0 0-27.167zm-5.776 25.86c-1.066 4.21-6.53 9.445-10.873 10.412A79.786 79.786 0 0 1 30.91 54.1a.406.406 0 0 0-.303.123l-5.33 5.471-5.669 5.818a.663.663 0 0 1-1.142-.458V53.119a.411.411 0 0 0-.335-.403h-.003c-4.342-.967-9.805-6.202-10.873-10.412a57.228 57.228 0 0 1 0-24.553c1.068-4.21 6.531-9.445 10.873-10.412a79.721 79.721 0 0 1 29.92 0c4.343.967 9.806 6.201 10.872 10.412a57.167 57.167 0 0 1 0 24.553z"/><path d="M42.672 47.876c-.667-.203-1.304-.339-1.894-.584-6.122-2.54-11.756-5.817-16.22-10.84-2.537-2.856-4.524-6.08-6.203-9.494-.796-1.618-1.467-3.3-2.151-4.97-.624-1.524.295-3.098 1.262-4.246.908-1.078 2.076-1.902 3.34-2.51.988-.474 1.962-.201 2.683.636 1.559 1.81 2.99 3.71 4.15 5.808.713 1.29.517 2.867-.775 3.745-.314.213-.6.463-.893.704-.256.212-.498.425-.674.71-.321.524-.336 1.141-.13 1.71 1.594 4.379 4.28 7.784 8.687 9.618.705.293 1.414.635 2.226.54 1.361-.159 1.802-1.651 2.755-2.43.932-.763 2.123-.773 3.127-.138a64.953 64.953 0 0 1 2.945 2.007c.95.677 1.896 1.34 2.772 2.11.842.743 1.132 1.716.658 2.723-.869 1.844-2.132 3.378-3.955 4.357-.515.276-1.13.365-1.71.544-.667-.203.58-.179 0 0zm-9.228-34.873c8.007.225 14.584 5.539 15.994 13.456.24 1.348.325 2.728.432 4.097.045.576-.28 1.123-.902 1.13-.642.008-.931-.53-.973-1.105-.082-1.14-.14-2.284-.296-3.414-.83-5.965-5.586-10.9-11.524-11.96-.893-.158-1.807-.2-2.712-.295-.573-.06-1.322-.095-1.449-.806-.106-.597.397-1.071.965-1.102.154-.008.31-.001.465 0 8.007.224-.155-.001 0 0z"/><path d="M45.142 28.499c-.013.1-.02.335-.079.557-.212.804-1.43.904-1.712.093-.083-.241-.095-.515-.096-.774-.003-1.696-.371-3.39-1.226-4.866a9.055 9.055 0 0 0-3.798-3.563c-.953-.467-1.983-.757-3.027-.93-.457-.075-.918-.12-1.376-.185-.556-.077-.853-.43-.826-.978.024-.514.4-.883.958-.851 1.838.104 3.613.501 5.247 1.367 3.322 1.759 5.22 4.536 5.774 8.245.025.167.065.334.078.503.031.416.051.833.083 1.382-.013.1-.032-.55 0 0z"/><path d="M39.945 27.918c-.67.012-1.028-.358-1.098-.973-.048-.428-.086-.862-.188-1.279-.201-.82-.637-1.58-1.328-2.084a3.466 3.466 0 0 0-1.082-.522c-.491-.142-1.001-.103-1.492-.223-.532-.13-.827-.561-.743-1.061.076-.455.519-.81 1.015-.773 3.105.224 5.324 1.829 5.64 5.484.023.257.05.53-.008.777-.098.422-.41.634-.716.654-.67.012.305-.02 0 0z"/></g></svg>