<?xml version="1.0" encoding="utf-8"?><svg xmlns="http://www.w3.org/2000/svg" xmlns:xlink="http://www.w3.org/1999/xlink"><symbol viewBox="0 0 32 32" id="close" xmlns="http://www.w3.org/2000/svg"><path d="M19.803 16L31.212 4.591A2.69 2.69 0 0 0 27.409.788L16 12.197 4.591.788A2.69 2.69 0 0 0 .788 4.591L12.197 16 .788 27.409a2.69 2.69 0 0 0 3.803 3.803L16 19.803l11.409 11.409a2.69 2.69 0 0 0 3.803-3.803L19.803 16z"/></symbol><symbol viewBox="0 0 32 32" id="facebook" xmlns="http://www.w3.org/2000/svg"><path d="M22.482 15.787h-4.326v15.848h-6.554V15.787H8.485v-5.569h3.117V6.614c0-2.577 1.224-6.613 6.612-6.613l4.855.02v5.406h-3.522c-.578 0-1.39.289-1.39 1.518v3.278h4.898l-.573 5.564z"/></symbol><symbol viewBox="0 0 1024 1024" id="file-pdf" xmlns="http://www.w3.org/2000/svg"><path d="M186.18 93.09h465.456v186.182h186.182v46.546h93.091V213.457L717.452 0H186.183c-51.339 0-93.091 41.798-93.091 93.091v232.727h93.091V93.091zm651.638 837.82H186.182v-46.546H93.091v46.546c0 51.339 41.751 93.091 93.091 93.091h651.636c51.339 0 93.091-41.751 93.091-93.091v-46.546h-93.091v46.546zM372.362 418.909v372.364h93.091c102.68 0 186.182-83.503 186.182-186.182s-83.503-186.182-186.182-186.182h-93.091zm186.183 186.182c0 51.339-41.751 93.091-93.091 93.091V512c51.339 0 93.091 41.798 93.091 93.091zM977.455 512v-93.091H791.273c-51.339 0-93.091 41.798-93.091 93.091v279.273h93.091V651.636H930.91v-93.091H791.273v-46.546h186.182zm-837.82 186.182h46.546c76.987 0 139.637-62.65 139.637-139.637s-62.65-139.637-139.637-139.637H46.544v372.364h93.091v-93.091zm0-186.182h46.546c25.646 0 46.546 20.853 46.546 46.546s-20.899 46.546-46.546 46.546h-46.546v-93.091z"/></symbol><symbol viewBox="0 0 20 20" id="gear"><path d="M17.498 11.697A2.384 2.384 0 0 1 16.794 10a2.384 2.384 0 0 1 .961-1.917.39.39 0 0 0 .137-.417 8.169 8.169 0 0 0-.662-1.597.385.385 0 0 0-.391-.199c-.13.02-.238.027-.336.027a2.402 2.402 0 0 1-2.401-2.4c0-.099.008-.207.027-.336a.388.388 0 0 0-.199-.391 8.144 8.144 0 0 0-1.597-.662.388.388 0 0 0-.416.137A2.38 2.38 0 0 1 10 3.207a2.38 2.38 0 0 1-1.917-.961.388.388 0 0 0-.416-.137 8.216 8.216 0 0 0-1.597.662.387.387 0 0 0-.199.391c.02.129.027.237.027.336 0 1.325-1.076 2.4-2.401 2.4a2.15 2.15 0 0 1-.335-.027.387.387 0 0 0-.392.199 8.241 8.241 0 0 0-.662 1.597.39.39 0 0 0 .137.417 2.399 2.399 0 0 1 0 3.835.388.388 0 0 0-.137.416c.166.557.388 1.096.662 1.596a.381.381 0 0 0 .392.199 2.15 2.15 0 0 1 .335-.027 2.403 2.403 0 0 1 2.401 2.402c0 .098-.007.205-.027.334a.388.388 0 0 0 .199.391c.501.273 1.04.496 1.597.66a.382.382 0 0 0 .417-.137 2.385 2.385 0 0 1 1.917-.959 2.382 2.382 0 0 1 1.917.959.382.382 0 0 0 .416.136 8.148 8.148 0 0 0 1.597-.66.39.39 0 0 0 .199-.393 2.138 2.138 0 0 1-.027-.334 2.403 2.403 0 0 1 2.401-2.402c.098 0 .206.008.336.027a.385.385 0 0 0 .391-.199c.274-.5.496-1.039.662-1.596a.388.388 0 0 0-.137-.416 1.776 1.776 0 0 1-.258-.219m-.827 1.637c-.059-.002-.114-.002-.168-.002a3.176 3.176 0 0 0-3.173 3.172c0 .053.002.109.004.166a7.09 7.09 0 0 1-.976.406A3.152 3.152 0 0 0 10 16.023a3.15 3.15 0 0 0-2.359 1.053 7.09 7.09 0 0 1-.976-.406c.002-.057.004-.113.004-.166a3.175 3.175 0 0 0-3.172-3.172c-.054 0-.11 0-.168.002a7.198 7.198 0 0 1-.405-.975c.044-.039.085-.078.124-.115a3.177 3.177 0 0 0-.124-4.602 7.21 7.21 0 0 1 .405-.976c.058.002.114.004.168.004a3.175 3.175 0 0 0 3.172-3.172c0-.054-.002-.11-.004-.168a7.21 7.21 0 0 1 .976-.405A3.15 3.15 0 0 0 10 3.978a3.15 3.15 0 0 0 2.358-1.053c.336.112.663.247.976.405-.002.058-.004.114-.004.168a3.177 3.177 0 0 0 3.173 3.172c.054 0 .109-.002.168-.004.158.312.293.64.405.976A3.15 3.15 0 0 0 16.022 10a3.151 3.151 0 0 0 1.054 2.359 7.252 7.252 0 0 1-.405.975M10 5.417A4.588 4.588 0 0 0 5.416 10c0 2.529 2.056 4.584 4.584 4.584s4.584-2.055 4.584-4.584A4.588 4.588 0 0 0 10 5.417m0 8.395A3.816 3.816 0 0 1 6.188 10 3.816 3.816 0 0 1 10 6.188 3.816 3.816 0 0 1 13.812 10 3.815 3.815 0 0 1 10 13.812"/></symbol><symbol viewBox="0 0 32 32" id="instagram" xmlns="http://www.w3.org/2000/svg"><path d="M31.82 23.793c0 4.427-3.6 8.027-8.027 8.027H8.027C3.601 31.82 0 28.22 0 23.793V8.027C0 3.601 3.601 0 8.027 0h15.766c4.427 0 8.027 3.601 8.027 8.027v15.766zm-8.027-20.33H8.027a4.569 4.569 0 0 0-4.564 4.564v15.766a4.569 4.569 0 0 0 4.564 4.564h15.766a4.569 4.569 0 0 0 4.564-4.564V8.027a4.569 4.569 0 0 0-4.564-4.564zM15.91 24.105c-4.519 0-8.195-3.676-8.195-8.195s3.676-8.195 8.195-8.195 8.195 3.676 8.195 8.195-3.677 8.195-8.195 8.195zm0-12.927a4.738 4.738 0 0 0-4.732 4.731 4.739 4.739 0 0 0 4.732 4.733 4.737 4.737 0 0 0 4.732-4.733 4.737 4.737 0 0 0-4.732-4.731zm8.459-1.769c-1.07 0-1.94-.87-1.94-1.939s.87-1.939 1.94-1.939c1.069 0 1.939.87 1.939 1.939s-.87 1.939-1.939 1.939z"/></symbol><symbol viewBox="0 0 1024 1024" id="send" xmlns="http://www.w3.org/2000/svg"><path d="M995.98 469.269c-240.697-104.453-415.903-182.56-544.235-239.813C201.458 117.881 134.151 87.858 87.277 87.858c-40.217 0-59.999 24.391-66.517 32.35-24.624 30.349-27.603 73.22-7.541 106.594l171.109 285.197L13.266 797.103c-20.109 33.422-17.083 76.245 7.541 106.594 6.516 8.052 26.3 32.444 66.563 32.444 46.827 0 113.856-29.93 363.024-141.039 128.471-57.3 304.049-135.64 545.631-240.418 16.99-7.448 27.975-24.205 27.975-42.731s-10.985-35.33-28.021-42.684zM96.913 182.164c37.238 7.633 136.338 51.854 316.896 132.381 88.906 39.659 200.714 89.464 340.589 150.861H264.95L96.913 182.164zM412.46 710.06C228.969 791.938 129.963 836.065 94.68 842.255l170.271-283.801h489.495c-140.62 61.815-252.893 111.854-341.985 151.605z"/></symbol><symbol viewBox="0 0 1024 1024" id="success" xmlns="http://www.w3.org/2000/svg"><path d="M937.814 429.207c-22.846 0-41.364 18.52-41.364 41.364v41.662c-.062 108.676-42.442 210.824-119.332 287.624-76.834 76.744-178.934 119-287.522 119h-.24C265.012 918.729 82.6 736.111 82.728 511.765c.062-108.674 42.442-210.822 119.334-287.626 76.834-76.744 178.936-119 287.522-119h.24c57.344.032 112.98 11.884 165.36 35.222 20.872 9.3 45.318-.082 54.618-20.948 9.296-20.866-.08-45.318-20.948-54.618-63.032-28.086-129.978-42.346-198.984-42.384h-.288c-130.658 0-253.534 50.856-345.986 143.2C51.072 258.027.076 380.945 0 511.721c-.074 130.772 50.778 253.748 143.198 346.272s215.336 143.52 346.11 143.596h.288c130.658 0 253.534-50.854 345.986-143.2 92.524-92.418 143.52-215.336 143.596-346.132v-41.684c0-22.846-18.518-41.366-41.364-41.366z"/><path d="M1011.885 79.605c-16.154-16.152-42.344-16.152-58.498 0L489.589 543.401 384.371 438.183c-16.152-16.154-42.344-16.154-58.496 0-16.154 16.154-16.154 42.344 0 58.498l134.468 134.468c8.076 8.078 18.664 12.116 29.25 12.116s21.172-4.038 29.25-12.116l493.042-493.046c16.154-16.154 16.154-42.344 0-58.498z"/></symbol><symbol viewBox="0 0 32 32" id="vkontakte" xmlns="http://www.w3.org/2000/svg"><path d="M15.665 24.958h1.914s.578-.063.873-.382c.272-.292.263-.841.263-.841s-.037-2.568 1.154-2.946c1.175-.372 2.684 2.482 4.283 3.579 1.209.831 2.128.648 2.128.648l4.276-.06s2.237-.138 1.176-1.896c-.087-.144-.618-1.301-3.179-3.678-2.681-2.488-2.322-2.086.908-6.39 1.967-2.621 2.753-4.222 2.508-4.907-.234-.653-1.681-.48-1.681-.48l-4.814.03s-.357-.049-.622.11c-.259.155-.425.517-.425.517s-.762 2.029-1.778 3.754c-2.144 3.64-3.001 3.832-3.351 3.606-.815-.527-.612-2.116-.612-3.246 0-3.528.535-4.998-1.042-5.379-.523-.126-.908-.21-2.247-.223-1.718-.018-3.172.005-3.995.409-.548.268-.97.866-.713.9.318.043 1.039.194 1.421.715.493.671.476 2.178.476 2.178s.283 4.153-.662 4.669c-.649.354-1.539-.369-3.45-3.671-.979-1.692-1.719-3.562-1.719-3.562s-.143-.349-.397-.536c-.309-.226-.74-.299-.74-.299l-4.575.03s-.687.019-.939.318c-.224.266-.018.815-.018.815s3.582 8.379 7.637 12.602c3.718 3.871 7.941 3.617 7.941 3.617z"/></symbol></svg>