<?xml version="1.0" encoding="utf-8"?><svg xmlns="http://www.w3.org/2000/svg" xmlns:xlink="http://www.w3.org/1999/xlink"><symbol viewBox="0 0 1024 1024" id="arrow-l" xmlns="http://www.w3.org/2000/svg"><path d="M214.993 511.615a78.851 78.851 0 0 1-.032-2.32c0-23.067 9.373-43.946 24.517-59.035l425.71-425.766C680.329 9.36 701.242 0 724.342 0c46.213 0 83.676 37.463 83.676 83.676 0 23.113-9.372 44.038-24.522 59.182L414.962 511.616 783.496 880.15c15.759 15.235 25.543 36.566 25.543 60.182 0 46.21-37.46 83.669-83.669 83.669-23.616 0-44.947-9.785-60.16-25.519L239.423 572.974c-15.114-15.136-24.461-36.035-24.461-59.118 0-.787.011-1.572.033-2.354l-.003.115z"/></symbol><symbol viewBox="0 0 1024 1024" id="arrow-r" xmlns="http://www.w3.org/2000/svg"><path d="M808.465 512.644a79.2 79.2 0 0 0 .037-2.486c0-23.005-9.353-43.826-24.465-58.868L358.327 25.524C343.186 10.39 322.273 1.03 299.174 1.03c-46.213 0-83.676 37.464-83.676 83.676 0 23.113 9.372 44.038 24.522 59.182l368.533 368.756L240.02 881.177c-14.532 15.03-23.487 35.532-23.487 58.125 0 46.209 37.46 83.669 83.669 83.669 22.594 0 43.095-8.955 58.149-23.509l425.684-425.684c15.112-15.069 24.46-35.908 24.46-58.933 0-.774-.011-1.546-.032-2.315l.002.113z"/></symbol><symbol viewBox="0 0 97.16 97.16" id="clock" xmlns="http://www.w3.org/2000/svg"><path d="M48.58 0C21.793 0 0 21.793 0 48.58s21.793 48.58 48.58 48.58 48.58-21.793 48.58-48.58S75.367 0 48.58 0zm0 86.823c-21.087 0-38.244-17.155-38.244-38.243S27.493 10.337 48.58 10.337 86.824 27.492 86.824 48.58 69.667 86.823 48.58 86.823z"/><path d="M73.898 47.08H52.066V20.83a4 4 0 0 0-8 0v30.25a4 4 0 0 0 4 4h25.832a4 4 0 0 0 0-8z"/></symbol><symbol viewBox="0 0 1024 1024" id="close" xmlns="http://www.w3.org/2000/svg"><path d="M395.318 512L25.578 142.26C10.999 127.18 2.014 106.611 2.014 83.944 2.014 37.583 39.597.001 85.957.001c22.668 0 43.236 8.984 58.34 23.586L512 391.29 879.726 23.564C894.806 8.985 915.375 0 938.042 0c46.361 0 83.943 37.583 83.943 83.943 0 22.668-8.984 43.236-23.586 58.34L628.682 512l369.74 369.74c14.579 15.08 23.564 35.649 23.564 58.316 0 46.361-37.583 83.943-83.943 83.943-22.668 0-43.236-8.984-58.34-23.586L512 632.71l-367.726 367.726c-15.08 14.579-35.649 23.564-58.316 23.564-46.361 0-83.943-37.583-83.943-83.943 0-22.668 8.984-43.236 23.586-58.34l-.023.023z"/></symbol><symbol viewBox="0 0 34.094 34.062" id="fabric" xmlns="http://www.w3.org/2000/svg"><defs><style>.aecls-1{fill:#fff;fill-rule:evenodd}</style></defs><path id="aeСлой_39" data-name="Слой 39" class="aecls-1" d="M705.443 267.045h-2.965v-8.893h2.965v8.893zm6.67-13.34v12.229a1.111 1.111 0 0 1-1.113 1.111h-3.335v-10a1.111 1.111 0 0 0-1.112-1.111h-5.187a1.111 1.111 0 0 0-1.112 1.111v10h-21.121a1.111 1.111 0 0 1-1.111-1.111v-12.229h34.091zm-24.086 8.895a1.112 1.112 0 0 0 1.111-1.112v-4.448a1.111 1.111 0 0 0-1.111-1.111h-4.447a1.111 1.111 0 0 0-1.112 1.111v4.447a1.112 1.112 0 0 0 1.112 1.112h4.447zm8.893 0a1.112 1.112 0 0 0 1.112-1.112v-4.448a1.111 1.111 0 0 0-1.112-1.111h-4.447a1.111 1.111 0 0 0-1.111 1.111v4.447a1.112 1.112 0 0 0 1.111 1.112h4.447zm-10-2.224h-2.223v-2.223h2.223v2.223zm8.893 0h-2.223v-2.223h2.223v2.223zm12.97-27.42a1.111 1.111 0 0 1 1.1.929l2.223 13.339c0 .031 0 .06.006.091a.924.924 0 0 1 .01.092v4.076h-34.1v-10.747a1.112 1.112 0 0 1 1.9-.786l4.773 4.773v-3.987a1.112 1.112 0 0 1 1.9-.786l4.773 4.773v-3.987a1.112 1.112 0 0 1 1.9-.786l6.345 6.344h.821l2.068-12.41a1.112 1.112 0 0 1 1.1-.929h5.188zm.17 8.893l-.371-2.223h-4.792l-.37 2.223h5.528zm-10.633-7.411a1.7 1.7 0 0 1-2.79 0 3.9 3.9 0 0 0-6.1 0 1.111 1.111 0 1 0 1.656 1.482 1.7 1.7 0 0 1 2.791 0 3.9 3.9 0 0 0 6.1 0 1.111 1.111 0 1 0-1.662-1.483z" transform="translate(-678.031 -232.969)"/></symbol><symbol viewBox="0 0 32 32" id="facebook" xmlns="http://www.w3.org/2000/svg"><path d="M22.482 15.787h-4.326v15.848h-6.554V15.787H8.485v-5.569h3.117V6.614c0-2.577 1.224-6.613 6.612-6.613l4.855.02v5.406h-3.522c-.578 0-1.39.289-1.39 1.518v3.278h4.898l-.573 5.564z"/></symbol><symbol viewBox="0 0 32 32" id="flikr" xmlns="http://www.w3.org/2000/svg"><path d="M14.658 15.433c0 4.048-3.281 7.329-7.329 7.329S0 19.481 0 15.433s3.281-7.329 7.329-7.329 7.329 3.281 7.329 7.329zm17.039.831c0 4.048-3.281 7.329-7.329 7.329s-7.329-3.281-7.329-7.329 3.281-7.329 7.329-7.329 7.329 3.281 7.329 7.329z"/></symbol><symbol viewBox="0 0 20 20" id="gear"><path d="M17.498 11.697A2.384 2.384 0 0 1 16.794 10a2.384 2.384 0 0 1 .961-1.917.39.39 0 0 0 .137-.417 8.169 8.169 0 0 0-.662-1.597.385.385 0 0 0-.391-.199c-.13.02-.238.027-.336.027a2.402 2.402 0 0 1-2.401-2.4c0-.099.008-.207.027-.336a.388.388 0 0 0-.199-.391 8.144 8.144 0 0 0-1.597-.662.388.388 0 0 0-.416.137A2.38 2.38 0 0 1 10 3.207a2.38 2.38 0 0 1-1.917-.961.388.388 0 0 0-.416-.137 8.216 8.216 0 0 0-1.597.662.387.387 0 0 0-.199.391c.02.129.027.237.027.336 0 1.325-1.076 2.4-2.401 2.4a2.15 2.15 0 0 1-.335-.027.387.387 0 0 0-.392.199 8.241 8.241 0 0 0-.662 1.597.39.39 0 0 0 .137.417 2.399 2.399 0 0 1 0 3.835.388.388 0 0 0-.137.416c.166.557.388 1.096.662 1.596a.381.381 0 0 0 .392.199 2.15 2.15 0 0 1 .335-.027 2.403 2.403 0 0 1 2.401 2.402c0 .098-.007.205-.027.334a.388.388 0 0 0 .199.391c.501.273 1.04.496 1.597.66a.382.382 0 0 0 .417-.137 2.385 2.385 0 0 1 1.917-.959 2.382 2.382 0 0 1 1.917.959.382.382 0 0 0 .416.136 8.148 8.148 0 0 0 1.597-.66.39.39 0 0 0 .199-.393 2.138 2.138 0 0 1-.027-.334 2.403 2.403 0 0 1 2.401-2.402c.098 0 .206.008.336.027a.385.385 0 0 0 .391-.199c.274-.5.496-1.039.662-1.596a.388.388 0 0 0-.137-.416 1.776 1.776 0 0 1-.258-.219m-.827 1.637c-.059-.002-.114-.002-.168-.002a3.176 3.176 0 0 0-3.173 3.172c0 .053.002.109.004.166a7.09 7.09 0 0 1-.976.406A3.152 3.152 0 0 0 10 16.023a3.15 3.15 0 0 0-2.359 1.053 7.09 7.09 0 0 1-.976-.406c.002-.057.004-.113.004-.166a3.175 3.175 0 0 0-3.172-3.172c-.054 0-.11 0-.168.002a7.198 7.198 0 0 1-.405-.975c.044-.039.085-.078.124-.115a3.177 3.177 0 0 0-.124-4.602 7.21 7.21 0 0 1 .405-.976c.058.002.114.004.168.004a3.175 3.175 0 0 0 3.172-3.172c0-.054-.002-.11-.004-.168a7.21 7.21 0 0 1 .976-.405A3.15 3.15 0 0 0 10 3.978a3.15 3.15 0 0 0 2.358-1.053c.336.112.663.247.976.405-.002.058-.004.114-.004.168a3.177 3.177 0 0 0 3.173 3.172c.054 0 .109-.002.168-.004.158.312.293.64.405.976A3.15 3.15 0 0 0 16.022 10a3.151 3.151 0 0 0 1.054 2.359 7.252 7.252 0 0 1-.405.975M10 5.417A4.588 4.588 0 0 0 5.416 10c0 2.529 2.056 4.584 4.584 4.584s4.584-2.055 4.584-4.584A4.588 4.588 0 0 0 10 5.417m0 8.395A3.816 3.816 0 0 1 6.188 10 3.816 3.816 0 0 1 10 6.188 3.816 3.816 0 0 1 13.812 10 3.815 3.815 0 0 1 10 13.812"/></symbol><symbol viewBox="0 0 1024 1024" id="google" xmlns="http://www.w3.org/2000/svg"><path d="M662.211 0h-244.21C309.175 0 233.846 23.856 166.05 79.867c-53.323 46.003-85.147 112.864-85.147 178.851 0 101.67 77.521 209.724 221.165 209.724 13.811 0 29.102-1.418 42.595-2.675l-1.988 4.831c-5.776 13.834-11.239 26.883-11.239 47.255 0 39.655 19.13 64.119 37.628 87.758l2.33 2.991-4.132.287c-59.317 4.063-169.727 11.631-250.378 61.203-95.257 56.631-102.657 139.017-102.657 162.91 0 95.055 88.582 190.998 286.496 190.998 230.122 0 350.54-126.958 350.54-252.367.024-92.761-54.368-138.549-112.098-187.168l-48.7-37.881c-15.05-12.468-33.789-27.985-33.789-56.73 0-28.255 18.739-46.913 35.282-63.37l1.724-1.747c52.59-41.426 112.197-88.392 112.197-189.983 0-102.139-63.826-154.919-94.512-180.293h81.043c.991 0 1.988-.277 2.813-.812L665.03 9.762a5.303 5.303 0 0 0 2.266-5.942c-.622-2.266-2.719-3.815-5.067-3.815zm-296.15 968.034c-140.273 0-234.528-65.514-234.528-163.036 0-63.675 38.551-109.943 114.467-137.449 60.799-20.462 139.282-21.476 140.064-21.476 13.291 0 19.978 0 30.595 1.332 98.149 69.856 145.34 106.528 145.34 176.379-.012 88.986-75.1 144.251-195.941 144.251zm-1.32-537.018c-117.728 0-166.586-154.752-166.586-237.61 0-42.136 9.579-74.47 29.292-98.894 21.396-26.769 58.026-44.061 93.331-44.061 108.093 0 167.866 145.288 167.866 245.703 0 15.839 0 64.032-33.294 97.504-22.387 22.347-58.798 37.35-90.61 37.35zm639.749 47.242H875.809V350.032a5.296 5.296 0 0 0-5.285-5.285h-55.351a5.289 5.289 0 0 0-5.285 5.285v128.226H681.853a5.289 5.289 0 0 0-5.285 5.285v56.096a5.292 5.292 0 0 0 5.285 5.285h128.035V673.98a5.292 5.292 0 0 0 5.285 5.285h55.351c2.911 0 5.285-2.381 5.285-5.285V544.906h128.681a5.28 5.28 0 0 0 5.285-5.285v-56.073a5.274 5.274 0 0 0-5.285-5.285z"/></symbol><symbol viewBox="0 0 32 32" id="instagram" xmlns="http://www.w3.org/2000/svg"><path d="M31.82 23.793c0 4.427-3.6 8.027-8.027 8.027H8.027C3.601 31.82 0 28.22 0 23.793V8.027C0 3.601 3.601 0 8.027 0h15.766c4.427 0 8.027 3.601 8.027 8.027v15.766zm-8.027-20.33H8.027a4.569 4.569 0 0 0-4.564 4.564v15.766a4.569 4.569 0 0 0 4.564 4.564h15.766a4.569 4.569 0 0 0 4.564-4.564V8.027a4.569 4.569 0 0 0-4.564-4.564zM15.91 24.105c-4.519 0-8.195-3.676-8.195-8.195s3.676-8.195 8.195-8.195 8.195 3.676 8.195 8.195-3.677 8.195-8.195 8.195zm0-12.927a4.738 4.738 0 0 0-4.732 4.731 4.739 4.739 0 0 0 4.732 4.733 4.737 4.737 0 0 0 4.732-4.733 4.737 4.737 0 0 0-4.732-4.731zm8.459-1.769c-1.07 0-1.94-.87-1.94-1.939s.87-1.939 1.94-1.939c1.069 0 1.939.87 1.939 1.939s-.87 1.939-1.939 1.939z"/></symbol><symbol viewBox="0 0 1024 1024" id="link" xmlns="http://www.w3.org/2000/svg"><path d="M383.11 840.711l228.546-229.446c34.828-34.881 56.364-83.04 56.364-136.23 0-18.074-2.487-35.566-7.137-52.155l.324 1.358-347.061 347.061c-17.544 17.565-41.791 28.432-68.577 28.432s-51.033-10.866-68.575-28.43l-.001-.001-51.866-51.417C107.7 702.324 96.93 678.137 96.93 651.435s10.77-50.889 28.203-68.454l347.055-347.055c-15.175-4.313-32.602-6.794-50.61-6.794-53.031 0-101.038 21.51-135.773 56.281L56.872 514.218C21.734 549.326-.001 597.842-.001 651.436s21.735 102.11 56.872 137.216l.002.002 51.417 52.06c35.162 35.175 83.746 56.933 137.411 56.933s102.248-21.757 137.41-56.932l.001-.001zm-20.567-241.658l347.061-347.704c17.726-17.295 41.986-27.964 68.738-27.964s51.012 10.668 68.758 27.983l-.02-.02 51.417 52.06c17.603 17.598 28.491 41.912 28.491 68.77s-10.888 51.171-28.491 68.769L551.436 787.366c15.237 4.342 32.736 6.839 50.818 6.839 53.096 0 101.163-21.526 135.952-56.327l228.869-228.804c35.169-35.093 56.927-83.614 56.927-137.218s-21.757-102.125-56.923-137.214l-51.42-51.42c-35.156-35.137-83.713-56.869-137.346-56.869s-102.19 21.732-137.347 56.869L412.099 412.025c-34.762 35.025-56.245 83.27-56.245 136.534 0 17.96 2.443 35.35 7.014 51.856l-.321-1.363z"/></symbol><symbol viewBox="0 0 32 32" id="linkedin" xmlns="http://www.w3.org/2000/svg"><path d="M3.844 0c2.089.002 3.812 1.727 3.808 3.827-.005 2.199-1.829 3.856-3.834 3.808-2.033.041-3.819-1.657-3.819-3.822 0-2.1 1.73-3.814 3.844-3.812zm2.141 31.714H1.509a1.052 1.052 0 0 1-1.052-1.052V11.566c0-.581.471-1.052 1.052-1.052h4.476c.581 0 1.052.471 1.052 1.052v19.096c0 .581-.471 1.052-1.052 1.052zm26-14.408a7.249 7.249 0 0 0-7.249-7.249h-1.148a6.435 6.435 0 0 0-5.641 3.329.817.817 0 0 0-.06-.008v-2.344a.437.437 0 0 0-.437-.437h-5.585a.437.437 0 0 0-.437.437v20.327c0 .241.195.437.437.437l5.706.001a.437.437 0 0 0 .437-.437V19.619c0-2.03 1.619-3.715 3.649-3.738a3.676 3.676 0 0 1 2.653 1.081 3.68 3.68 0 0 1 1.081 2.61v11.792c0 .241.195.437.436.437l5.721.001a.437.437 0 0 0 .437-.437v-14.06z"/></symbol><symbol id="list" viewBox="0 0 25.5 23.91" xmlns="http://www.w3.org/2000/svg"><defs><style>.amcls-1,.amcls-2{fill-rule:evenodd}.amcls-1{stroke:#56b3c2;stroke-linecap:square;stroke-miterlimit:1.5;stroke-width:1px;fill:none}.amcls-2{fill:#56b3c2}</style></defs><path id="amСлой_211" data-name="Слой 211" class="amcls-1" d="M101.482 6138.81a11.46 11.46 0 1 1-11.459 11.46 11.461 11.461 0 0 1 11.459-11.46z" transform="translate(-89.531 -6138.31)"/><path id="amСлой_212" data-name="Слой 212" class="amcls-2" d="M101.591 6152.37l11.14-11.14 2.292 2.29-11.14 11.14.025.02-2.292 2.3-6.963-6.97 2.292-2.29z" transform="translate(-89.531 -6138.31)"/></symbol><symbol viewBox="0 0 80 80" id="location" xmlns="http://www.w3.org/2000/svg"><path d="M40 0C26.191 0 15 11.194 15 25c0 23.87 25 55 25 55s25-31.13 25-55C65 11.194 53.807 0 40 0zm0 38.8c-7.457 0-13.5-6.044-13.5-13.5S32.543 11.8 40 11.8c7.455 0 13.5 6.044 13.5 13.5S47.455 38.8 40 38.8z"/></symbol><symbol viewBox="0 0 32 32" id="mailru" xmlns="http://www.w3.org/2000/svg"><path d="M16 .5C7.434.5.5 7.432.5 16c0 8.566 6.932 15.5 15.5 15.5 3.01 0 5.959-.884 8.463-2.514.75-.488.914-1.518.347-2.211l-.636-.777a1.496 1.496 0 0 0-1.961-.321A11.531 11.531 0 0 1 16 27.499c-6.341 0-11.5-5.159-11.5-11.5s5.159-11.5 11.5-11.5c6.259 0 11.5 3.601 11.5 10 0 2.424-1.318 4.984-3.636 5.231-1.084-.028-1.057-.804-.842-1.877l1.465-7.569a1.5 1.5 0 0 0-1.473-1.785h-2.811a.845.845 0 0 0-.839.746v.004l-.001.006c-.919-1.119-2.528-1.361-3.748-1.361-4.661 0-8.614 3.89-8.614 9.466 0 4.081 2.299 6.617 6 6.617 1.687 0 3.586-.977 4.687-2.396.595 2.131 2.538 2.131 4.419 2.131 6.807 0 9.394-4.476 9.394-9.213 0-8.522-6.874-14-15.5-14zm-1.355 19.027c-1.391 0-2.254-.976-2.254-2.548 0-2.812 1.924-4.546 3.664-4.546 1.393 0 2.225.953 2.225 2.548 0 2.816-2.117 4.546-3.635 4.546z"/></symbol><symbol viewBox="0 0 36.031 36" id="med" xmlns="http://www.w3.org/2000/svg"><defs><style>.apcls-1{fill:#fff;fill-rule:evenodd}</style></defs><path id="apСлой_18" data-name="Слой 18" class="apcls-1" d="M214.328 234.347c-1.137-.928-1.924-.715-3.058 1.324a2.766 2.766 0 0 1-2.687 1.464v-.267a2.579 2.579 0 1 0-2.251 0v.267a2.765 2.765 0 0 1-2.686-1.464c-1.135-2.039-1.933-2.252-3.059-1.324-1.149.936-5.652 6.318-11.139 5.826a3.63 3.63 0 0 0 4.059 1.924 3.655 3.655 0 0 0 4.148.492 3.062 3.062 0 0 0 3.472.1 2.977 2.977 0 0 0 3.26.165 3 3 0 0 0 2 .517l.069 6.2c-.117-.024-.21-.048-.339-.069 0 0-1.843-.4-3.788-.94-1.864-.492-3.917-1.29-4.22-1.7a.328.328 0 0 1 .117-.072 3.17 3.17 0 0 1 .786-.246 18.682 18.682 0 0 1 2.555-.258 13.394 13.394 0 0 1 2.227.024 1.351 1.351 0 0 0 1.372-.96.2.2 0 0 0 0-.084 1.01 1.01 0 0 0-1.114-.88 5.093 5.093 0 0 0-1.4-.045c-1.711.129-6.951-.294-7.609 2.461a1.054 1.054 0 0 1-.024.2c.225 2.4 5.208 3.446 8.807 4.161a4.886 4.886 0 0 0-2.137 3.343c-.126 1.5 1.071 2.93 3.848 4.527-2.11 1.485-3.494 2.9-3.377 4.583a6.387 6.387 0 0 0 3.8 4.385h.024s-1.678-2.557-1.783-3.953c-.117-.819.351-2.029 2.38-3.469l.057 5.1h.012a.775.775 0 1 0 1.549 0l.069-4.97c1.876 1.4 2.3 2.557 2.194 3.34-.1 1.4-1.783 3.953-1.783 3.953h.024a6.384 6.384 0 0 0 3.8-4.385c.117-1.687-1.266-3.1-3.367-4.583 2.767-1.6 3.965-3.026 3.836-4.527a4.927 4.927 0 0 0-2.134-3.343c3.6-.715 8.581-1.759 8.8-4.161a1.378 1.378 0 0 1-.021-.2c-.657-2.755-5.9-2.332-7.609-2.461a5.63 5.63 0 0 0-1.4.045 1.027 1.027 0 0 0-1.125.88c-.012.023.024.072.012.084a1.35 1.35 0 0 0 1.372.96 13.028 13.028 0 0 1 2.227-.012 16.742 16.742 0 0 1 2.542.246 3.316 3.316 0 0 1 .8.246.5.5 0 0 1 .117.072c-.3.409-2.357 1.207-4.221 1.7-1.948.541-3.788.94-3.8.94a.61.61 0 0 1-.129.021l.084-6.165a3 3 0 0 0 2.026-.5 2.984 2.984 0 0 0 3.26-.165 3.041 3.041 0 0 0 3.461-.1 3.671 3.671 0 0 0 4.16-.492 3.628 3.628 0 0 0 4.058-1.924c-5.472.487-9.974-4.895-11.124-5.831zm-10.235 20.636c.036-.541-.153-1.831 2.4-2.768l.057 5.124c-.492-.306-1-.634-1.524-.961a1.6 1.6 0 0 1-.933-1.395zm5.556 1.395c-.456.291-.888.562-1.324.832l.06-4.914c2.345.928 2.167 2.17 2.2 2.7a1.606 1.606 0 0 1-.936 1.382z" transform="translate(-189.438 -232)"/></symbol><symbol viewBox="0 0 32 32" id="menu-1" xmlns="http://www.w3.org/2000/svg"><path d="M25.43 0l.034-.001a.938.938 0 0 1 0 1.876l-.036-.001h.002v1.941h2.351c.424 0 .782.282.898.668l.002.007 3.289 11.249a.938.938 0 0 1-.899 1.201h-1.625v10h1.625c.518 0 .937.419.938.937v3.188c0 .518-.42.938-.938.938H.948a.938.938 0 0 1-.938-.938v-3.188a.938.938 0 0 1 .938-.937h1.625v-10H.948a.939.939 0 0 1-.898-1.208l-.002.007L3.338 4.49a.938.938 0 0 1 .893-.674h15.57V1.878l-.034.001a.938.938 0 1 1 .036-1.875h-.002 5.625zm4.703 30.124v-1.312H1.884v1.312h28.25zm-5.687-3.186v-5.313a1.563 1.563 0 0 0-3.124-.002v5.315h3.125zm-3.139-10a.933.933 0 0 1-.685-.299l-.001-.001-4.613-4.946-4.613 4.951a.933.933 0 0 1-.685.299H4.447v10h14.999v-5.318a3.438 3.438 0 0 1 6.876 0v5.313h1.25v-10h-6.265zm-4.048 1.249c.518 0 .938.42.938.938v3.75c0 .518-.42.938-.938.938h-3.75a.938.938 0 0 1-.938-.938v-3.75c0-.518.42-.938.938-.938h3.75zm-6.875 0c.518 0 .938.42.938.938v3.75c0 .518-.42.938-.938.938h-3.75a.938.938 0 0 1-.938-.938v-3.75c0-.518.42-.938.938-.938h3.75zm5.937 3.75v-1.876h-1.876v1.874h1.874zm-6.875 0v-1.876H7.572v1.874h1.874zm20.373-6.875l-2.741-9.375H4.939l-2.741 9.375h8.105l5.02-5.388a.935.935 0 0 1 1.372 0l.001.001 5.02 5.388h8.105zM23.553 3.815V1.877H21.68v1.938h1.873z"/></symbol><symbol viewBox="0 0 32 32" id="menu-2" xmlns="http://www.w3.org/2000/svg"><path d="M22.259 0c.517 0 .937.419.937.937V5.12h7.875c.517 0 .937.42.937.937v25.001a.937.937 0 0 1-.937.937H.944a.937.937 0 0 1-.937-.937V6.057c0-.517.419-.937.937-.937h7.875V.932A.937.937 0 0 1 9.756 0H22.26zm7.875 30.125V7.001h-6.938v23.124h6.938zm-12.563 0V25.5h-3.123v4.625h3.124zm3.75 0V1.875H10.697v28.25h1.875v-5.563c0-.517.419-.937.937-.937h5.001c.517 0 .937.419.937.937v5.563h1.875zm-12.501 0V7.001H1.882v23.124H8.82zm-2.187-6.5c.517 0 .937.419.937.937v2.56a.937.937 0 0 1-.937.938h-2.56a.938.938 0 0 1-.937-.938v-2.56c0-.517.42-.937.937-.937h2.56zm21.312 0c.517 0 .937.419.937.937v2.56a.937.937 0 0 1-.937.938h-2.56a.938.938 0 0 1-.937-.938v-2.56c0-.517.419-.937.937-.937h2.56zm-22.25 2.56v-.687H5.01v.687h.687zm21.312 0v-.687h-.685v.687h.687zm.937-7.688a.938.938 0 0 1 .937.938v2.56a.937.937 0 0 1-.937.938h-2.56a.938.938 0 0 1-.937-.938v-2.56c0-.518.419-.938.937-.938h2.56zm-21.312 0a.938.938 0 0 1 .937.938v2.56a.937.937 0 0 1-.937.938h-2.56a.938.938 0 0 1-.937-.938v-2.56c0-.518.419-.938.937-.938h2.56zm12.5 0c.518 0 .938.42.938.938v2.56c0 .518-.42.938-.938.938h-6.248a.938.938 0 0 1-.937-.938v-2.56c0-.518.419-.938.937-.938h6.25zm7.875 2.56v-.687h-.685v.687h.687zm-21.312 0v-.687H5.01v.687h.687zm12.5 0v-.687h-4.374v.687h4.375zM6.633 13.37a.938.938 0 0 1 .937.938v2.56c0 .517-.42.937-.937.937h-2.56a.937.937 0 0 1-.937-.937v-2.56c0-.518.419-.938.937-.938h2.56zm21.312 0a.938.938 0 0 1 .937.938v2.56a.937.937 0 0 1-.937.937h-2.56a.937.937 0 0 1-.937-.937v-2.56c0-.518.419-.938.937-.938h2.56zm-8.813 0c.518 0 .938.42.938.938v2.56a.937.937 0 0 1-.937.937h-6.249a.937.937 0 0 1-.937-.937v-2.56c0-.518.419-.938.937-.938h6.25zm-13.44 2.56v-.687H5.01v.687h.687zm21.312 0v-.687h-.682v.687h.687zm-8.813 0v-.687h-4.37v.687h4.375zM6.629 8.242a.938.938 0 0 1 .937.938v2.56c0 .517-.42.937-.937.937h-2.56a.937.937 0 0 1-.937-.937V9.18c0-.518.419-.938.937-.938h2.56zm21.312 0a.938.938 0 0 1 .937.938v2.56a.937.937 0 0 1-.937.937h-2.56a.937.937 0 0 1-.937-.937V9.18c0-.518.419-.938.937-.938h2.56zm-8.813 0c.518 0 .938.42.938.938v2.56a.937.937 0 0 1-.937.937h-6.245a.937.937 0 0 1-.937-.937V9.18c0-.518.419-.938.937-.938h6.25zm-13.44 2.56v-.677H5.01v.687h.687zm21.312 0v-.677h-.678v.687h.687zm-8.812 0v-.677h-4.366v.687h4.375zm.936-7.688c.518 0 .938.42.938.938v2.56a.937.937 0 0 1-.937.937h-6.241a.938.938 0 0 1-.937-.937v-2.56c0-.518.419-.938.937-.938h6.25zm-.936 2.56v-.687h-4.366v.687h4.375z"/></symbol><symbol viewBox="0 0 30 32" id="menu-3" xmlns="http://www.w3.org/2000/svg"><path d="M26.714 30.127v-2.185l.001-.034a.902.902 0 0 0-.865-.902h-.002v-2.204a.933.933 0 0 0-.572-.86l-.006-.002v-7.858l.001-.034a.902.902 0 0 0-.865-.902h-5.784a.903.903 0 0 0-.867.939v-.002 7.858a.936.936 0 0 0-.578.863v.019-.001 2.184a.905.905 0 0 0-.867.904l.001.034v-.002 2.185H1.75V11.275h26.127v18.852h-1.161zm-8.67 0v-1.249h6.936v1.249h-6.942zm.866-4.369h5.203v1.248H18.91v-1.248zm4.624-1.873h-4.046v-6.866h4.046v6.866zM20.761 6.084l4.938 3.315h-8.538zM13.934 8.31l-3.551-3.265 3.551-2.385v5.65zm1.734-5.65l3.551 2.384-3.551 3.266V2.66zM8.841 6.084l3.606 3.315H3.909zM29.19 9.543L15.259.18a.809.809 0 0 0-.452-.143h-.001a.82.82 0 0 0-.461.144l.003-.002L.418 9.543a.955.955 0 0 0-.408.783v.012-.001 20.725l-.001.035c0 .485.382.881.862.902h27.867a.903.903 0 0 0 .867-.903l-.001-.036v.002V10.325a.959.959 0 0 0-.405-.783l-.003-.002z"/></symbol><symbol viewBox="0 0 26.531 26.5" id="menu-4" xmlns="http://www.w3.org/2000/svg"><defs><style>.atcls-1{fill:#fff;fill-rule:evenodd}</style></defs><path id="atСлой_93" data-name="Слой 93" class="atcls-1" d="M39.46 297.172l-2.48-6.059a.776.776 0 0 0-.432-.428l-6.69-2.655a.776.776 0 0 0-.573 0l-6.69 2.655a.776.776 0 0 0-.432.428l-2.48 6.059h-1.454l2.845-7.361a.775.775 0 0 1 .39-.347l7.815-3.105a.789.789 0 0 1 .581 0l7.812 3.1a.852.852 0 0 1 .492.6l2.746 7.105h-1.45m-11.992-2.946l-5.855 2.326 1.638-4zm2.1-.836l-4.789-1.9 4.789-1.9 4.789 1.9zm5.312 3.782H24.258l5.312-2.111zm-3.209-2.946l4.217-1.676 1.638 4zm8.042 6.1H19.426v-1.6h20.289v1.6zm0 3.106H33.5v-1.553h6.211v1.553zm0 3.105H33.5v-1.553h6.211v1.553zm0 3.157H33.5v-1.6h6.211v1.6zm-7.764-4.71h-.774a.777.777 0 0 0 0 1.553h.776v3.171h-4.762v-7.815h4.762v3.105zm-6.309-1.552h-6.214v-1.553h6.216v1.553zm0 3.105h-6.214v-1.553h6.216v1.553zm0 3.157h-6.214v-1.6h6.216v1.6zM36.609 286.3h1.553v1.683l-1.553-.617V286.3zm3.105 3.466v-4.243a.777.777 0 0 0-.776-.776h-3.105a.777.777 0 0 0-.776.776v1.226l-4.623-1.837a2.335 2.335 0 0 0-1.726 0l-7.818 3.106a2.336 2.336 0 0 0-1.216 1.12c-.026.052.159-.42-3.3 8.526a.777.777 0 0 0 .084.719.786.786 0 0 0 .646.338h.776v11.749a.772.772 0 0 0 .771.776h21.84a.777.777 0 0 0 .776-.776v-11.745h.776a.777.777 0 0 0 .724-1.057z" transform="translate(-16.313 -284.75)"/></symbol><symbol viewBox="0 0 28 32" id="menu-5" xmlns="http://www.w3.org/2000/svg"><path d="M1.884 1.875h24.37v1.874H1.884V1.875zm20.625 3.75h1.875v20.75h-1.875V5.625zm-1.879 20.75h-5.625v-5.688h5.625v5.688zm-5.625-20.75h5.625v5.688h-5.625V5.625zm5.625 13.188h-5.625v-5.625h5.625v5.625zm-7.501 7.562H7.504v-5.688h5.625v5.688zM7.504 5.625h5.625v5.688H7.504V5.625zm5.625 13.188H7.504v-5.625h5.625v5.625zM3.755 5.625h1.879v20.75H3.755V5.625zm22.5 24.5H1.885v-1.872h24.37v1.874zm.942-24.5c.518 0 .937-.42.937-.937V.937A.937.937 0 0 0 27.197 0H.942a.937.937 0 0 0-.937.937v3.751c0 .518.42.937.937.937h.937v20.75H.942a.937.937 0 0 0-.937.937v3.753c0 .518.42.937.937.937h26.255c.518 0 .937-.42.937-.937v-3.751a.937.937 0 0 0-.937-.937h-.942V5.624h.937z"/></symbol><symbol viewBox="0 0 27 32" id="menu-6" xmlns="http://www.w3.org/2000/svg"><path d="M23.629 0l.043-.001c.528 0 .959.415.984.937v29.196h1.027a.942.942 0 1 1-.004 1.876h.004H1.034a.942.942 0 1 1 .004-1.876h-.004 1.027V.938A.987.987 0 0 1 3.09 0h-.002 20.54zm-1.027 18.754V1.875H4.117v28.257h18.486v-9.503h-3.081a.942.942 0 1 1 .004-1.876h-.004 3.081zM19.521 3.751l.044-.001c.527 0 .958.415.983.936v11.255a.985.985 0 0 1-.983.938l-.046-.001h.002H7.198l-.044.001a.984.984 0 0 1-.983-.936V4.688A.985.985 0 0 1 7.2 3.751h-.002 12.324zm-1.028 11.252v-3.751h-4.106v3.751h4.108zm-6.162 0v-3.751H8.225v3.751h4.109zm0-5.626V5.626H8.225v3.751h4.109zm6.162 0V5.626h-4.106v3.751h4.108z"/></symbol><symbol viewBox="0 0 32 32" id="menu-7" xmlns="http://www.w3.org/2000/svg"><path d="M.009 32h32V0h-32v32zM1.884 1.875h28.251v28.251H28.26V3.75H3.76v26.376H1.885V1.875zm15.067 16.933V5.621h9.437v24.5h-9.441V18.808zM5.639 5.621h9.437v24.5H5.635V5.625z"/><path d="M11.323 26.375h-1.94v-3.812h1.937v3.812zm1.874-5.687H7.516v7.561h5.688v-7.561zm-1.874-7.5h-1.94V9.375h1.937v3.813zM13.197 7.5H7.516v7.567h5.688V7.504zm7.5 15.063h1.937v3.812h-1.937v-3.812zm-1.874 5.686h5.688v-7.561h-5.688v7.561zm3.812-15.061h-1.937V9.375h1.937v3.813zM24.509 7.5h-5.687v7.567h5.688V7.504z"/></symbol><symbol viewBox="0 0 32 32" id="menu-9" xmlns="http://www.w3.org/2000/svg"><path d="M13.33 7.369L8.749 11.95 5.888 9.09l4.581-4.581zm-.928-3.246a9.392 9.392 0 0 1 4.976-2.383l.052-.006-3.707 3.715zm.269 6.222l6.733 6.733-.947.947-6.735-6.733zm17.21 16.546l-1.61 1.616a.247.247 0 0 1-.177.074h-.005a.25.25 0 0 1-.179-.074l-8.627-8.627a.254.254 0 0 1-.074-.18v-.004c0-.069.028-.132.074-.177l1.617-1.617a.257.257 0 0 1 .362 0l8.627 8.627a.247.247 0 0 1 .074.177v.006c0 .07-.028.134-.074.18zM4.848 15.849l-2.861-2.861.909-.909 2.861 2.86zm1.105-3.03l-.937-.937.672-.672.936.937zm16.468 3.923a1.88 1.88 0 0 0-1.336-.555h-.004c-.082 0-.161.006-.24.017l.009-.001-7.018-7.018 1.238-1.238a.817.817 0 0 0 0-1.158l-.186-.186 5.181-5.181a.82.82 0 0 0-.52-1.397h-.003Q19.157 0 18.779 0a11.038 11.038 0 0 0-7.547 2.969l.007-.006-.193-.193a.817.817 0 0 0-1.158 0L4.145 8.512c-.148.148-.239.353-.239.579s.091.431.239.579l.383.383-.672.674-.383-.384a.817.817 0 0 0-1.158 0L.247 12.41a.817.817 0 0 0 0 1.158l4.019 4.019a.817.817 0 0 0 1.158 0l2.068-2.068a.817.817 0 0 0 0-1.158l-.383-.384.672-.672.384.383a.817.817 0 0 0 1.158 0l1.238-1.238 7.018 7.018a1.975 1.975 0 0 0-.016.229v.004c0 .522.212.994.555 1.336l8.632 8.633c.343.343.817.555 1.34.555s.997-.212 1.34-.555l1.61-1.61c.342-.343.554-.816.554-1.339s-.212-.996-.554-1.339z"/><path d="M19.238 13.094a.82.82 0 1 0 1.158 1.16v-.001l1.238-1.238a6.915 6.915 0 0 0 2.064-4.907v-.002c0-.266-.015-.529-.045-.788l.003.032a3.458 3.458 0 0 1 1.157-2.992l.004-.003c.088-.077.185-.153.285-.223l.011-.007-.291.934a2.714 2.714 0 0 0 5.176 1.635l.006-.019.313-1.003c.151.366.242.791.248 1.236v.06a3.47 3.47 0 0 1-2.374 3.288l-.024.007a7.176 7.176 0 0 0-2.848 1.734l-3.021 3.021a.819.819 0 0 0 .602 1.377.819.819 0 0 0 .557-.218h-.001l3.021-3.021a5.5 5.5 0 0 1 2.158-1.32l.039-.011a5.144 5.144 0 0 0 2.041-1.248 5.046 5.046 0 0 0 1.495-3.59v-.099a5.064 5.064 0 0 0-1.607-3.641l-.003-.003a.824.824 0 0 0-.561-.222h-.002a.788.788 0 0 0-.213.029l.006-.001a.822.822 0 0 0-.572.543l-.002.006-.818 2.595a1.076 1.076 0 0 1-2.105-.315v-.005c0-.115.018-.225.052-.328l-.002.008.8-2.564a.818.818 0 0 0-.781-1.062h-.001a.896.896 0 0 0-.138.011l.005-.001c-2.44.413-4.276 2.511-4.276 5.038 0 .199.011.395.034.588l-.002-.024c.02.171.032.37.032.572a5.286 5.286 0 0 1-1.584 3.752l-.001.001zm-1.673 7.807a.817.817 0 0 0-1.158 0 6.915 6.915 0 0 0-2.064 4.907v.002c0 .266.015.529.045.788l-.003-.032a3.458 3.458 0 0 1-1.157 2.992l-.004.003a3.384 3.384 0 0 1-.285.223l-.011.007.291-.934a2.64 2.64 0 0 0 .124-.81c0-.46-.115-.894-.319-1.273l.007.014a2.72 2.72 0 0 0-2.404-1.454 2.716 2.716 0 0 0-2.586 1.888l-.005.019-.313 1.003a3.407 3.407 0 0 1-.248-1.236V26.949a3.468 3.468 0 0 1 2.374-3.289l.024-.007a7.147 7.147 0 0 0 2.848-1.734l3.069-3.069a.82.82 0 1 0-1.158-1.16v.001l-3.069 3.07a5.5 5.5 0 0 1-2.158 1.32l-.039.011c-.8.264-1.484.692-2.041 1.248a5.046 5.046 0 0 0-1.495 3.591v.016-.001.084a5.064 5.064 0 0 0 1.607 3.641l.003.003a.819.819 0 0 0 .561.222h.001c.074 0 .145-.01.213-.029l-.006.001a.822.822 0 0 0 .572-.543l.002-.006.809-2.593c.087-.277.276-.5.522-.63l.006-.003a1.057 1.057 0 0 1 .828-.072l-.008-.002a1.076 1.076 0 0 1 .705 1.355l.002-.008-.801 2.568a.818.818 0 0 0 .164.781l-.001-.001a.827.827 0 0 0 .755.27l-.005.001a5.073 5.073 0 0 0 2.539-1.198l-.006.005a5.105 5.105 0 0 0 1.706-4.432l.002.024a5.051 5.051 0 0 1-.032-.572 5.287 5.287 0 0 1 1.583-3.752l.001-.001a.817.817 0 0 0 0-1.158z"/></symbol><symbol viewBox="0 0 1024 1024" id="msg" xmlns="http://www.w3.org/2000/svg"><path d="M932.557 914.408c.283.003.616.006.951.006 22.727 0 43.44-8.624 59.045-22.777l-.074.066-290.032-290.198c-6.979 4.985-13.846 9.968-20.103 14.399-21.709 16.061-39.321 28.522-52.834 37.659-15.372 9.784-33.135 18.979-51.715 26.587l-2.282.827c-18.489 8.237-40.013 13.276-62.648 13.841l-.211.004h-1.274c-22.845-.563-44.369-5.602-63.929-14.269l1.072.424c-20.856-8.417-38.618-17.613-55.387-28.237l1.39.823c-13.541-9.138-31.152-21.598-52.862-37.659-6.064-4.43-12.765-9.138-20.021-14.399L31.5 891.703c15.524 14.088 36.23 22.712 58.95 22.712.342 0 .683-.002 1.024-.006l-.052.001h841.132zM57.782 419.022C35.947 404.377 17.013 387.94.312 369.447l-.237-.267v441.389l255.696-255.585q-76.675-53.581-197.988-135.961zm909.056 0q-116.716 78.919-198.431 135.961l255.585 255.585V369.179c-16.881 18.623-35.619 35.04-56.077 49.141l-1.077.702z"/><path d="M932.557 109.717H91.509a78.557 78.557 0 0 0-4.603-.13c-25.399 0-48.077 11.646-62.985 29.891l-.116.145C8.954 158.801-.001 183.197-.001 209.685c0 1.46.028 2.912.081 4.358l-.006-.209c1.966 30.014 13.516 57.002 31.588 78.28l-.16-.193c18.741 25.663 40.845 47.469 65.964 65.31l.882.594q19.383 13.707 117.16 81.411c35.167 24.368 65.738 45.69 92.016 63.965 22.402 15.507 41.73 29.075 57.68 40.151 1.828 1.385 4.707 3.6 8.528 6.092 4.098 3.046 9.332 6.923 15.756 11.353 12.377 9.138 22.651 16.337 30.847 21.876s18.082 11.631 29.713 18.553c9.388 5.76 20.234 10.99 31.612 15.109l1.257.398c8.487 2.995 18.278 4.806 28.466 4.983l.083.001h1.136c10.28-.175 20.081-1.987 29.232-5.183l-.655.199c12.638-4.524 23.483-9.755 33.669-15.96l-.8.453c11.602-6.923 21.487-13.015 29.713-18.553s18.469-12.737 30.847-21.876c6.424-4.43 11.631-8.307 15.756-11.353 3.821-2.492 6.701-4.707 8.528-6.092 12.433-8.584 31.789-21.876 57.819-40.151 47.379-32.952 117.131-81.134 209.59-145.376 27.521-19.252 50.659-42.594 69.1-69.415l.597-.919c17.26-24.025 27.705-53.962 27.994-86.325l.001-.07c.003-.284.006-.619.006-.956 0-24.974-10.403-47.517-27.111-63.534l-.031-.03c-16.197-16.58-38.779-26.861-63.762-26.861l-.564.002h.029z"/></symbol><symbol viewBox="0 0 32 32" id="odnoklasniki" xmlns="http://www.w3.org/2000/svg"><path d="M16.012 12.134c2.191-.008 3.936-1.768 3.928-3.963s-1.757-3.944-3.948-3.946a3.942 3.942 0 0 0-3.958 3.994 3.936 3.936 0 0 0 3.979 3.915zM15.916 0c4.469.012 8.056 3.668 8.033 8.186-.023 4.414-3.668 7.991-8.129 7.976-4.416-.015-8.037-3.676-8.011-8.099C7.834 3.592 11.457-.012 15.917 0zm9.155 19.218c-.988 1.014-2.178 1.749-3.499 2.261-1.249.484-2.617.728-3.972.89.205.223.301.332.429.46 1.838 1.848 3.685 3.687 5.517 5.54.624.632.754 1.415.411 2.148-.375.803-1.217 1.33-2.042 1.274-.523-.036-.931-.296-1.293-.66-1.388-1.396-2.801-2.767-4.16-4.189-.397-.414-.586-.335-.936.024a274.614 274.614 0 0 1-4.241 4.258c-.641.632-1.403.746-2.147.385-.79-.382-1.292-1.189-1.254-2.001.027-.547.297-.967.673-1.342 1.82-1.816 3.634-3.638 5.449-5.458.121-.121.232-.249.407-.437-2.475-.259-4.707-.868-6.618-2.362-.238-.186-.482-.365-.698-.574-.837-.803-.921-1.724-.26-2.671.567-.811 1.517-1.028 2.505-.562.192.09.374.203.548.323 3.561 2.447 8.453 2.514 12.028.109.354-.27.733-.493 1.172-.605.852-.22 1.649.094 2.106.841.523.853.517 1.685-.127 2.347z"/></symbol><symbol id="palette" viewBox="0 0 36 36" xmlns="http://www.w3.org/2000/svg"><defs><style>.bacls-1{fill:#fff;fill-rule:evenodd}</style></defs><path id="baСлой_59" data-name="Слой 59" class="bacls-1" d="M467.693 697.781l-18.325 10.581v.645A5.1 5.1 0 0 1 448.4 712h18.607a3 3 0 0 0 2.993-2.993v-8.313a3 3 0 0 0-2.307-2.913z" transform="translate(-434 -676)"/><path id="baСлой_60" data-name="Слой 60" class="bacls-1" d="M449.368 704.915v.979l16.808-9.705a2.993 2.993 0 0 0 .969-4.011l-3.089-5.352a2.983 2.983 0 0 0-3.454-1.368z" transform="translate(-434 -676)"/><path id="baСлой_61" data-name="Слой 61" class="bacls-1" d="M449.368 700.637l9.049-15.675a2.993 2.993 0 0 0-1.095-4.088l-5.347-3.087a2.983 2.983 0 0 0-2.779-.11 5.1 5.1 0 0 1 .172 1.316v21.644z" transform="translate(-434 -676)"/><path id="baСлой_62" data-name="Слой 62" class="bacls-1" d="M440.615 703.378a2.007 2.007 0 1 1-2.007 2.007 2.009 2.009 0 0 1 2.007-2.007zm6.615 5.629v-30.014a3 3 0 0 0-2.993-2.993h-7.244a3 3 0 0 0-2.993 2.993v30.014a3 3 0 0 0 2.993 2.993h7.244a3 3 0 0 0 2.993-2.993z" transform="translate(-434 -676)"/></symbol><symbol viewBox="0 0 32 32" id="pinterest" xmlns="http://www.w3.org/2000/svg"><path d="M9.606 30.579C2.561 27.635-2.024 19.246.892 10.725c2.885-8.429 12.217-12.843 20.62-9.722 8.427 3.129 12.595 12.428 9.328 20.763-3.382 8.63-12.449 11.683-19.248 9.53.508-1.255 1.087-2.494 1.51-3.783.425-1.295.697-2.64 1.016-3.887.275.231.551.476.84.705 1.502 1.187 3.202 1.302 4.982.874 1.892-.455 3.387-1.528 4.495-3.105 1.873-2.667 2.534-5.685 2.081-8.86-.468-3.284-2.412-5.66-5.46-6.856-4.592-1.803-8.946-1.196-12.717 2.108-2.9 2.541-3.875 6.849-2.48 10.203.484 1.163 1.248 2.075 2.404 2.623.586.278.835.165 1.004-.447.013-.046.028-.09.045-.135.325-.856.249-1.56-.329-2.387-1.053-1.507-.865-3.251-.357-4.921.963-3.169 3.794-5.283 7.115-5.314.889-.008 1.805.068 2.666.278 2.562.625 4.216 2.606 4.382 5.233.133 2.107-.196 4.153-1.112 6.077-.454.952-1.052 1.799-1.943 2.399-.837.563-1.752.79-2.745.531-1.368-.357-2.145-1.605-1.799-2.975.359-1.419.823-2.812 1.174-4.233.149-.601.227-1.253.166-1.865-.166-1.667-1.742-2.444-3.214-1.631-1.031.57-1.528 1.523-1.758 2.625-.237 1.136-.122 2.255.247 3.357.074.221.085.495.033.723-.669 2.917-1.384 5.824-2.018 8.749-.185.853-.151 1.755-.212 2.634-.012.168-.002.338-.002.563z"/></symbol><symbol viewBox="0 0 473.806 473.806" id="ring" xmlns="http://www.w3.org/2000/svg"><path d="M374.456 293.506c-9.7-10.1-21.4-15.5-33.8-15.5-12.3 0-24.1 5.3-34.2 15.4l-31.6 31.5c-2.6-1.4-5.2-2.7-7.7-4-3.6-1.8-7-3.5-9.9-5.3-29.6-18.8-56.5-43.3-82.3-75-12.5-15.8-20.9-29.1-27-42.6 8.2-7.5 15.8-15.3 23.2-22.8 2.8-2.8 5.6-5.7 8.4-8.5 21-21 21-48.2 0-69.2l-27.3-27.3c-3.1-3.1-6.3-6.3-9.3-9.5-6-6.2-12.3-12.6-18.8-18.6-9.7-9.6-21.3-14.7-33.5-14.7s-24 5.1-34 14.7l-.2.2-34 34.3c-12.8 12.8-20.1 28.4-21.7 46.5-2.4 29.2 6.2 56.4 12.8 74.2 16.2 43.7 40.4 84.2 76.5 127.6 43.8 52.3 96.5 93.6 156.7 122.7 23 10.9 53.7 23.8 88 26 2.1.1 4.3.2 6.3.2 23.1 0 42.5-8.3 57.7-24.8.1-.2.3-.3.4-.5 5.2-6.3 11.2-12 17.5-18.1 4.3-4.1 8.7-8.4 13-12.9 9.9-10.3 15.1-22.3 15.1-34.6 0-12.4-5.3-24.3-15.4-34.3l-54.9-55.1zm35.8 105.3c-.1 0-.1.1 0 0-3.9 4.2-7.9 8-12.2 12.2-6.5 6.2-13.1 12.7-19.3 20-10.1 10.8-22 15.9-37.6 15.9-1.5 0-3.1 0-4.6-.1-29.7-1.9-57.3-13.5-78-23.4-56.6-27.4-106.3-66.3-147.6-115.6-34.1-41.1-56.9-79.1-72-119.9-9.3-24.9-12.7-44.3-11.2-62.6 1-11.7 5.5-21.4 13.8-29.7l34.1-34.1c4.9-4.6 10.1-7.1 15.2-7.1 6.3 0 11.4 3.8 14.6 7l.3.3c6.1 5.7 11.9 11.6 18 17.9 3.1 3.2 6.3 6.4 9.5 9.7l27.3 27.3c10.6 10.6 10.6 20.4 0 31-2.9 2.9-5.7 5.8-8.6 8.6-8.4 8.6-16.4 16.6-25.1 24.4-.2.2-.4.3-.5.5-8.6 8.6-7 17-5.2 22.7l.3.9c7.1 17.2 17.1 33.4 32.3 52.7l.1.1c27.6 34 56.7 60.5 88.8 80.8 4.1 2.6 8.3 4.7 12.3 6.7 3.6 1.8 7 3.5 9.9 5.3.4.2.8.5 1.2.7 3.4 1.7 6.6 2.5 9.9 2.5 8.3 0 13.5-5.2 15.2-6.9l34.2-34.2c3.4-3.4 8.8-7.5 15.1-7.5 6.2 0 11.3 3.9 14.4 7.3l.2.2 55.1 55.1c10.3 10.2 10.3 20.7.1 31.3zm-154.2-286.1c26.2 4.4 50 16.8 69 35.8s31.3 42.8 35.8 69c1.1 6.6 6.8 11.2 13.3 11.2.8 0 1.5-.1 2.3-.2 7.4-1.2 12.3-8.2 11.1-15.6-5.4-31.7-20.4-60.6-43.3-83.5s-51.8-37.9-83.5-43.3c-7.4-1.2-14.3 3.7-15.6 11s3.5 14.4 10.9 15.6zm217.2 96.3c-8.9-52.2-33.5-99.7-71.3-137.5s-85.3-62.4-137.5-71.3c-7.3-1.3-14.2 3.7-15.5 11-1.2 7.4 3.7 14.3 11.1 15.6 46.6 7.9 89.1 30 122.9 63.7 33.8 33.8 55.8 76.3 63.7 122.9 1.1 6.6 6.8 11.2 13.3 11.2.8 0 1.5-.1 2.3-.2 7.3-1.1 12.3-8.1 11-15.4z"/></symbol><symbol viewBox="0 0 1024 1024" id="rule" xmlns="http://www.w3.org/2000/svg"><path d="M554.672 513.554v.228c0 95.563-77.469 173.033-173.033 173.033s-173.033-77.469-173.033-173.033c0-95.563 77.469-173.033 173.033-173.033 47.782 0 91.04 19.368 122.353 50.68 31.307 31.186 50.68 74.333 50.68 122.006v.126-.006zM381.867 294.852c-120.786 0-218.702 97.916-218.702 218.702s97.916 218.702 218.702 218.702 218.702-97.916 218.702-218.702c-.151-120.725-97.977-218.55-218.687-218.702h-.014z"/><path d="M719.087 339.382c-18.175-34.377-39.646-63.963-64.674-90.116l.138.145c-27.718-29.069-59.744-53.699-95.123-72.944l-2.022-1.007a9.818 9.818 0 0 1 4.061-.873h.014c1.822 0 3.531.479 5.01 1.317l-.05-.026c64.849 35.991 116.921 88.064 151.909 150.947l1.004 1.965a10.203 10.203 0 0 1 1.291 4.999v.013-.001.045c0 2.08-.638 4.012-1.73 5.608l.022-.034zm-4.252 507.331a9.683 9.683 0 0 1-6.871 2.847H389.538c-93.581 0-178.519-37.002-240.983-97.174l.109.104C86.64 693.473 47.535 610.865 45.791 519.113l-.004-.32v-5.277c.043-185.49 150.401-335.849 335.888-335.892h5.547c92.069 1.768 174.672 40.868 233.568 102.741l.129.137c60.045 62.362 97.032 147.294 97.032 240.866v.246-.013 318.2a9.682 9.682 0 0 1-2.81 6.835l.001-.001zm309.129-127.478c-1.452-4.839-4.299-8.891-8.07-11.804l-.054-.04a22.63 22.63 0 0 0-14.086-4.878c-12.58 0-22.778 10.198-22.778 22.778l.002.34v-.017 74.976H763.845V521.411c0-49.182-9.008-96.261-25.464-139.675l.902 2.71 11.389-11.389c9.995-10.064 16.172-23.93 16.172-39.24v-.174.009c-.004-9.899-2.564-19.199-7.055-27.279l.147.287c-40.274-72.548-98.539-130.8-168.898-169.936l-2.199-1.123c-7.67-4.287-16.816-6.838-26.553-6.909h-.439c-15.319.011-29.189 6.201-39.256 16.212l.002-.002L512.457 155c-36.872-14.148-79.509-22.639-124.042-23.306l-.286-.004h-6.264C170.993 131.69.044 302.614 0 513.475v5.926C1.68 624.654 46.499 719.12 117.501 786.145l.183.171c70.386 67.458 166.084 108.991 271.482 108.991l.628-.001h318.283c28.335-.012 51.709-21.243 55.095-48.664l.027-.269h238.518l.135.001c10.376 0 19.133-6.939 21.881-16.429l.04-.161v-.342l.228-.683V720.3z"/><path d="M468.687 256.7v.304l3.417 1.215c13.414 4.766 24.589 9.709 35.334 15.358l-1.471-.705c3.051 1.624 6.671 2.578 10.515 2.581h.001c12.58 0 22.778-10.198 22.778-22.778v-.379c-.035-8.795-5.008-16.419-12.288-20.249l-.126-.061c-10.843-5.778-23.922-11.566-37.429-16.461l-2.204-.698c-2.251-.818-4.85-1.291-7.558-1.291h-.452a22.858 22.858 0 0 0-12.981 4.149l.073-.049c-3.89 2.724-6.849 6.54-8.453 11.002l-.05.159c-.826 2.259-1.311 4.866-1.328 7.585v.277c0 8.585 4.75 16.061 11.765 19.943l.117.059zm199.227 126.301a22.685 22.685 0 0 0-2.451-10.266l.06.129c-22.205-43.87-52.607-80.559-89.488-109.33l-.71-.534a22.624 22.624 0 0 0-13.927-4.821h-.308c-7.291.031-13.77 3.482-17.917 8.831l-.039.052a23.036 23.036 0 0 0-4.783 13.883v.011c.071 7.29 3.527 13.758 8.87 17.917l.052.039c32.149 25.074 58.15 56.464 76.423 92.44l.717 1.555c3.827 7.534 11.482 12.626 20.335 12.717H645c3.703 0 7.199-.884 10.29-2.451l-.129.06c7.531-3.786 12.621-11.428 12.679-20.264v.03zm-204.542 51.591zm31.546-9.187h-.379a22.78 22.78 0 0 0-6.539 1.069l.162-.044-.304-.531-4.404 2.581-4.442 2.543.304.531c-4.468 4.163-7.27 10.063-7.326 16.617v.201a22.674 22.674 0 0 0 3.133 11.496l-.058-.107c9.028 15.402 14.36 33.918 14.36 53.679 0 59.376-48.133 107.51-107.51 107.51s-107.51-48.133-107.51-107.51c0-59.359 48.106-107.483 107.459-107.51h.003l.439-.001c25.376 0 48.675 8.892 66.951 23.73l-.197-.155a22.63 22.63 0 0 0 13.873 5.049h.592c12.486 0 22.626-10.047 22.776-22.498v-.464c0-7.19-3.331-13.602-8.535-17.777l-.045-.034c-26.015-20.959-59.465-33.642-95.877-33.642-84.745 0-153.444 68.699-153.444 153.444s68.699 153.444 153.444 153.444c84.745 0 153.444-68.699 153.444-153.444 0-28.246-7.632-54.709-20.946-77.44l.392.724c-4.012-6.856-11.339-11.389-19.726-11.389l-.135.001h.007z"/></symbol><symbol viewBox="0 0 56.966 56.966" id="search" xmlns="http://www.w3.org/2000/svg"><path d="M55.146 51.887L41.588 37.786A22.926 22.926 0 0 0 46.984 23c0-12.682-10.318-23-23-23s-23 10.318-23 23 10.318 23 23 23c4.761 0 9.298-1.436 13.177-4.162l13.661 14.208c.571.593 1.339.92 2.162.92.779 0 1.518-.297 2.079-.837a3.004 3.004 0 0 0 .083-4.242zM23.984 6c9.374 0 17 7.626 17 17s-7.626 17-17 17-17-7.626-17-17 7.626-17 17-17z"/></symbol><symbol viewBox="0 0 32 32" id="skype" xmlns="http://www.w3.org/2000/svg"><path d="M30.388 18.639c.18-.925.275-1.881.275-2.859C30.663 7.56 24 .897 15.78.897c-.978 0-1.933.095-2.859.275A8.591 8.591 0 0 0 1.172 12.921c-.18.925-.275 1.881-.275 2.859C.897 24 7.56 30.663 15.78 30.663c.978 0 1.933-.095 2.859-.275a8.591 8.591 0 0 0 11.749-11.749zm-14.325 7.363c-5.289 0-7.933-1.983-8.746-4.475s.966-3.204 1.526-3.255c.559-.051 1.746.085 2.085 1.119.352 1.075 1.526 3.204 4.068 3.458s4.221-.915 4.729-2.136c.509-1.22-.407-2.899-4.322-3.458s-7.984-2.288-7.984-6.204 4.475-5.492 8.747-5.492 6.437 2.413 6.916 3.356c.593 1.17.39 3.118-1.017 3.458-1.475.356-2.237-.458-3.305-2.441-1.104-2.051-5.034-1.526-6.356-.356s-.966 2.848 4.526 3.916 7.526 3.051 7.526 6.153-3.102 6.356-8.391 6.356z"/></symbol><symbol viewBox="0 0 32 32" id="telegram" xmlns="http://www.w3.org/2000/svg"><path d="M29.572 2.699L.672 13.961c-.936.365-.879 1.708.084 1.993L8.1 18.123l2.741 8.697a1.261 1.261 0 0 0 2.104.503l3.797-3.877 7.45 5.468c.912.669 2.21.172 2.442-.935l4.934-23.59c.242-1.156-.895-2.118-1.995-1.69zm-3.624 5.235L12.524 19.805a.72.72 0 0 0-.239.46l-.517 4.594c-.017.15-.227.17-.271.026l-2.126-6.852a.722.722 0 0 1 .309-.827l15.852-9.832c.365-.226.738.276.416.56z"/></symbol><symbol viewBox="0 0 20 32" id="tumblr" xmlns="http://www.w3.org/2000/svg"><path d="M19.542 25.142v5.02a14.56 14.56 0 0 1-6.4 1.711c-.138.005-.276.015-.415.022-.303 0-.95-.008-.971-.008a14.013 14.013 0 0 1-1.446-.114 10.503 10.503 0 0 1-2.303-.564c-1.185-.442-2.229-1.097-3.095-2.027-.671-.721-1.121-1.551-1.299-2.527a12.579 12.579 0 0 1-.188-2.25c-.003-3.744-.002-7.573-.002-11.317H-.002V8.522c.379-.15.76-.281 1.129-.452 1.955-.908 3.385-2.348 4.293-4.302.444-.957.693-1.973.864-3.01.042-.252.075-.505.112-.757h4.523l.002 8.08h7.567v5.007h-7.57s.005 8.908.012 9.205c.016.677.049 1.352.152 2.023.112.721.472 1.28 1.08 1.679a4.365 4.365 0 0 0 1.959.691 6.844 6.844 0 0 0 2.093-.117c1.208-.243 2.304-.751 3.328-1.426z"/></symbol><symbol viewBox="0 0 32 32" id="twitter" xmlns="http://www.w3.org/2000/svg"><path d="M31.872 5.905c-1.172.52-2.433.871-3.756 1.028a6.558 6.558 0 0 0 2.876-3.617 13.086 13.086 0 0 1-4.152 1.586 6.533 6.533 0 0 0-4.774-2.064 6.54 6.54 0 0 0-6.369 8.029A18.564 18.564 0 0 1 2.219 4.034a6.511 6.511 0 0 0-.886 3.288 6.54 6.54 0 0 0 2.909 5.443 6.504 6.504 0 0 1-2.962-.819v.083a6.543 6.543 0 0 0 5.246 6.411 6.523 6.523 0 0 1-2.952.113 6.546 6.546 0 0 0 6.108 4.541 13.119 13.119 0 0 1-8.122 2.799c-.527 0-1.048-.031-1.559-.092a18.495 18.495 0 0 0 10.023 2.938c12.027 0 18.605-9.964 18.605-18.605 0-.283-.006-.566-.019-.846a13.256 13.256 0 0 0 3.263-3.384z"/></symbol><symbol viewBox="0 0 32 32" id="viber" xmlns="http://www.w3.org/2000/svg"><path d="M30.467 7.626l-.009-.037c-.74-2.993-4.078-6.205-7.144-6.873l-.035-.007a39.69 39.69 0 0 0-14.942 0l-.036.007c-3.064.668-6.402 3.88-7.144 6.873l-.008.037a29.257 29.257 0 0 0 0 12.599l.008.037c.71 2.865 3.799 5.93 6.75 6.772v3.341c0 1.209 1.474 1.803 2.312.931l3.385-3.519c.734.041 1.469.064 2.203.064 2.496 0 4.993-.236 7.471-.709l.035-.007c3.065-.668 6.403-3.88 7.144-6.873l.009-.037c.915-4.18.915-8.419 0-12.599zm-2.679 11.993c-.494 1.953-3.029 4.38-5.042 4.829a36.989 36.989 0 0 1-7.948.642.187.187 0 0 0-.14.057l-2.472 2.537-2.629 2.698a.308.308 0 0 1-.53-.213v-5.535a.191.191 0 0 0-.155-.187H8.87c-2.014-.448-4.547-2.876-5.042-4.829a26.535 26.535 0 0 1 0-11.387c.495-1.953 3.029-4.38 5.042-4.829a36.956 36.956 0 0 1 13.875 0c2.015.449 4.548 2.876 5.042 4.829a26.504 26.504 0 0 1 0 11.387z"/><path d="M20.254 22.203c-.31-.094-.605-.157-.879-.271-2.839-1.178-5.452-2.698-7.522-5.027-1.177-1.325-2.098-2.82-2.877-4.403-.369-.751-.681-1.531-.998-2.305-.289-.707.137-1.437.585-1.969.421-.5.963-.882 1.549-1.164.458-.22.91-.093 1.244.295.723.839 1.387 1.721 1.925 2.694.331.598.24 1.329-.359 1.737-.146.099-.278.215-.414.327a1.363 1.363 0 0 0-.313.33.903.903 0 0 0-.06.793c.739 2.031 1.985 3.61 4.029 4.46.327.136.656.295 1.032.251.631-.074.835-.766 1.278-1.128.432-.353.985-.358 1.45-.063s.917.611 1.366.931c.44.314.879.621 1.285.979.391.344.525.795.305 1.262-.403.855-.989 1.567-1.834 2.021-.239.128-.524.17-.793.252-.31-.094.269-.083 0 0zm-4.28-16.172c3.714.104 6.764 2.569 7.418 6.24.111.626.151 1.265.201 1.9.021.267-.13.521-.419.524-.298.004-.432-.245-.451-.512-.038-.528-.065-1.059-.138-1.583-.384-2.766-2.59-5.055-5.344-5.546-.414-.074-.838-.093-1.258-.137-.265-.028-.613-.044-.672-.374-.049-.277.184-.497.447-.511.072-.004.144-.001.216 0 3.714.104-.072 0 0 0z"/><path d="M21.399 13.217c-.006.046-.009.155-.037.258-.099.373-.664.42-.794.043a1.135 1.135 0 0 1-.045-.359c-.001-.787-.172-1.572-.569-2.257a4.2 4.2 0 0 0-1.761-1.652 5.078 5.078 0 0 0-1.404-.431c-.212-.035-.426-.056-.638-.086-.258-.036-.395-.2-.383-.454.011-.238.185-.409.445-.394.852.048 1.675.233 2.433.634 1.541.816 2.421 2.104 2.678 3.824.012.078.03.155.036.233.015.193.024.386.039.641-.006.046-.015-.255 0 0z"/><path d="M18.989 12.948c-.311.006-.477-.166-.509-.451-.022-.199-.04-.4-.087-.593-.093-.381-.296-.733-.616-.966a1.609 1.609 0 0 0-.502-.242c-.228-.066-.465-.048-.692-.103-.247-.06-.384-.26-.345-.492a.447.447 0 0 1 .471-.359c1.44.104 2.469.848 2.616 2.543.01.12.023.246-.004.36a.37.37 0 0 1-.332.304c-.311.006.141-.01 0 0z"/></symbol><symbol viewBox="0 0 32 32" id="vkontakte" xmlns="http://www.w3.org/2000/svg"><path d="M15.665 24.958h1.914s.578-.063.873-.382c.272-.292.263-.841.263-.841s-.037-2.568 1.154-2.946c1.175-.372 2.684 2.482 4.283 3.579 1.209.831 2.128.648 2.128.648l4.276-.06s2.237-.138 1.176-1.896c-.087-.144-.618-1.301-3.179-3.678-2.681-2.488-2.322-2.086.908-6.39 1.967-2.621 2.753-4.222 2.508-4.907-.234-.653-1.681-.48-1.681-.48l-4.814.03s-.357-.049-.622.11c-.259.155-.425.517-.425.517s-.762 2.029-1.778 3.754c-2.144 3.64-3.001 3.832-3.351 3.606-.815-.527-.612-2.116-.612-3.246 0-3.528.535-4.998-1.042-5.379-.523-.126-.908-.21-2.247-.223-1.718-.018-3.172.005-3.995.409-.548.268-.97.866-.713.9.318.043 1.039.194 1.421.715.493.671.476 2.178.476 2.178s.283 4.153-.662 4.669c-.649.354-1.539-.369-3.45-3.671-.979-1.692-1.719-3.562-1.719-3.562s-.143-.349-.397-.536c-.309-.226-.74-.299-.74-.299l-4.575.03s-.687.019-.939.318c-.224.266-.018.815-.018.815s3.582 8.379 7.637 12.602c3.718 3.871 7.941 3.617 7.941 3.617z"/></symbol><symbol viewBox="0 0 32 32" id="whatsapp" xmlns="http://www.w3.org/2000/svg"><path d="M0 31.989l2.238-7.948a15.908 15.908 0 0 1-2.197-8.084C.041 7.158 7.199 0 15.998 0s15.957 7.158 15.957 15.957-7.158 15.957-15.957 15.957a15.94 15.94 0 0 1-7.801-2.034L0 31.99zm8.616-5.013l.488.298a13.223 13.223 0 0 0 6.893 1.932c7.306 0 13.25-5.944 13.25-13.25s-5.944-13.25-13.25-13.25-13.25 5.944-13.25 13.25c0 2.546.724 5.018 2.092 7.149l.329.512-1.289 4.577 4.736-1.219z"/><path d="M11.357 8.744l-1.035-.056a1.253 1.253 0 0 0-.89.304c-.502.436-1.305 1.279-1.551 2.377-.368 1.637.2 3.642 1.671 5.647s4.211 5.213 9.056 6.583c1.561.442 2.79.144 3.737-.462a3.339 3.339 0 0 0 1.454-2.122l.165-.772a.535.535 0 0 0-.3-.599l-3.499-1.613a.536.536 0 0 0-.649.16l-1.374 1.781a.393.393 0 0 1-.442.132c-.941-.331-4.092-1.65-5.821-4.981a.398.398 0 0 1 .05-.443l1.313-1.519a.536.536 0 0 0 .087-.562L11.821 9.07a.536.536 0 0 0-.464-.325z"/></symbol><symbol viewBox="0 0 32 32" id="youtube" xmlns="http://www.w3.org/2000/svg"><path d="M25.299 4.615H6.631a6.632 6.632 0 0 0-6.632 6.632v9.332a6.632 6.632 0 0 0 6.632 6.632h18.668a6.632 6.632 0 0 0 6.632-6.632v-9.332a6.632 6.632 0 0 0-6.632-6.632zm-4.485 11.752l-8.731 4.164a.35.35 0 0 1-.501-.316v-8.589a.35.35 0 0 1 .509-.313l8.731 4.425a.35.35 0 0 1-.008.629z"/></symbol><symbol viewBox="0 0 32 32" id="youtube2" xmlns="http://www.w3.org/2000/svg"><path d="M19.297 21.95a1.37 1.37 0 0 0-.11-.486c-.081-.201-.254-.301-.471-.322-.255-.025-.459.078-.643.241a.427.427 0 0 0-.108.161l.004 5.188v.128s.044.06.051.067c.15.162.325.291.549.337.369.076.63-.078.702-.42a1.28 1.28 0 0 0 .029-.261c.002-1.545.005-3.089-.003-4.633zm0 0a1.37 1.37 0 0 0-.11-.486c-.081-.201-.254-.301-.471-.322-.255-.025-.459.078-.643.241a.427.427 0 0 0-.108.161l.004 5.188v.128s.044.06.051.067c.15.162.325.291.549.337.369.076.63-.078.702-.42a1.28 1.28 0 0 0 .029-.261c.002-1.545.005-3.089-.003-4.633zm5.809-7.824a428.594 428.594 0 0 0-18.423 0 3.919 3.919 0 0 0-3.834 3.918v9.59a3.918 3.918 0 0 0 3.834 3.919c6.141.132 12.284.132 18.423 0a3.92 3.92 0 0 0 3.835-3.919v-9.59a3.918 3.918 0 0 0-3.835-3.918zM8.486 28.508H6.715v-10.01H4.882v-1.675h5.441v1.671H8.486v10.014zm6.337-4.154v4.156h-1.568v-.95c-.057.061-.088.093-.118.127-.337.381-.72.698-1.208.866-.238.082-.484.11-.734.066-.342-.057-.572-.254-.71-.565-.129-.287-.162-.595-.162-.905-.004-1.144-.002-7.198-.002-7.257h1.564c.003.053.009 4.399.01 6.519 0 .115.001.234.024.346.058.285.276.407.55.307.315-.115.556-.333.758-.593.03-.038.03-.105.03-.159v-6.429l1.569-.004v4.475zm5.965 3.325c-.21.631-.671.952-1.334.945-.539-.005-.977-.219-1.337-.61l-.152-.162v.656h-1.571V16.823h1.571v3.846s.088-.177.169-.268c.243-.272.539-.483.905-.575.603-.151 1.298.036 1.628.74.195.416.25.86.25 1.312.003 1.633.003 3.267.001 4.9a2.87 2.87 0 0 1-.13.901zm5.802-.329c-.272.797-.834 1.239-1.659 1.36-.511.075-1.018.064-1.498-.153-.657-.296-1.029-.832-1.188-1.513a4.51 4.51 0 0 1-.114-.976c-.012-1.279-.007-2.56-.004-3.839.001-.669.161-1.286.619-1.799.523-.585 1.192-.804 1.956-.755.23.014.464.052.683.124.743.244 1.14.801 1.296 1.539.06.285.082.58.087.871.012.683-.005 2.187-.005 2.187h-3.008v2.156a.7.7 0 1 0 1.401 0v-1.108h1.616s.024 1.308-.181 1.905zm-1.435-5.501a.701.701 0 1 0-1.401 0v1.21h1.401v-1.21zm-5.967-.385c-.081-.201-.254-.301-.471-.322-.255-.025-.459.078-.643.241a.427.427 0 0 0-.108.161l.004 5.188v.128s.044.06.051.067c.15.162.325.291.549.337.369.076.63-.078.702-.42a1.28 1.28 0 0 0 .029-.261c.002-1.545.005-3.089-.003-4.633a1.365 1.365 0 0 0-.11-.486zm3.975-18.396v8.675h-1.607l.002-.932c-.178.175-.329.339-.496.485-.296.26-.63.454-1.022.531-.601.118-1.113-.072-1.305-.695a2.297 2.297 0 0 1-.104-.647V3.068h1.595v6.616c0 .088.007.176.022.262.048.273.25.401.512.31.32-.111.564-.332.771-.593.029-.037.024-.107.024-.162V3.068h1.607zM10.142 4.576C9.793 3.105 9.062 0 9.062 0H7.233s1.405 4.661 2.034 6.74a.816.816 0 0 1 .033.236l-.001 4.767h1.687l-.001-4.767c0-.079.01-.16.033-.236C11.647 4.661 13.052 0 13.052 0h-1.829s-.731 3.105-1.08 4.576h-.001zm5.091-1.946a2.302 2.302 0 0 0-2.302 2.302v4.505a2.302 2.302 0 0 0 4.604 0V4.932a2.302 2.302 0 0 0-2.302-2.302zm.665 6.897a.665.665 0 0 1-1.328 0V4.84a.665.665 0 0 1 1.328 0v4.687z"/></symbol></svg>