<?xml version="1.0" encoding="utf-8"?><svg xmlns="http://www.w3.org/2000/svg" xmlns:xlink="http://www.w3.org/1999/xlink"><symbol viewBox="0 0 1024 1024" id="add" xmlns="http://www.w3.org/2000/svg"><path d="M512 984.61c-260.583 0-472.616-212.021-472.616-472.616C39.384 251.411 251.417 39.378 512 39.378s472.616 212.033 472.616 472.616c0 260.595-212.033 472.616-472.616 472.616zM512 0C229.697 0 .006 229.664.006 511.994S229.696 1024 512 1024c282.303 0 511.994-229.678 511.994-512.006S794.304 0 512 0z"/><path d="M758.153 492.303H544.438V275.684h-52.129v216.619H265.842v52.129h226.467v223.562h52.129V544.432h213.715z"/></symbol><symbol viewBox="0 0 32 32" id="arrow-double-l" xmlns="http://www.w3.org/2000/svg"><path d="M25.336 22.619c-.16 0-.48-.16-.64-.32l-6.72-7.04 6.72-7.52c.32-.32.8-.32 1.12 0s.32.8 0 1.12l-5.76 6.4 5.76 5.92c.32.32.32.8 0 1.12-.16.32-.32.32-.48.32zm-11.36.32c-.16 0-.48-.16-.64-.32l-6.72-7.04 6.72-7.52c.32-.32.8-.32 1.12 0s.32.8 0 1.12l-5.76 6.4 5.76 5.92c.32.32.32.8 0 1.12 0 .32-.32.32-.48.32z"/></symbol><symbol viewBox="0 0 32 32" id="arrow-double-r" xmlns="http://www.w3.org/2000/svg"><path d="M6.664 22.619c.16 0 .48-.16.64-.32l6.72-7.04-6.72-7.52c-.32-.32-.8-.32-1.12 0s-.32.8 0 1.12l5.76 6.4-5.76 5.92c-.32.32-.32.8 0 1.12.16.32.32.32.48.32zm11.36.32c.16 0 .48-.16.64-.32l6.72-7.04-6.72-7.52c-.32-.32-.8-.32-1.12 0s-.32.8 0 1.12l5.76 6.4-5.76 5.92c-.32.32-.32.8 0 1.12 0 .32.32.32.48.32z"/></symbol><symbol viewBox="0 0 32 32" id="arrow-down" xmlns="http://www.w3.org/2000/svg"><path d="M10.687 23.685l2.374 2.28c.51.486 1.337.121 1.337-.587V1.335c0-.891.718-1.334 1.603-1.334h-.013c.883 0 1.613.443 1.613 1.334v24.019c0 .712.864 1.075 1.371.581l2.334-2.265a1.582 1.582 0 0 1 2.257.064l.006.005a1.608 1.608 0 0 1-.069 2.253l-5.346 5.129a3.185 3.185 0 0 1-4.409-.011l-5.252-5.082a1.61 1.61 0 0 1-.067-2.245l.018-.016a1.574 1.574 0 0 1 2.243-.08z"/></symbol><symbol viewBox="0 0 1024 1024" id="arrow-l" xmlns="http://www.w3.org/2000/svg"><path d="M311.432 198.899l66.948 66.948-198.809 198.809H1024v94.689H179.571L378.38 758.154l-66.948 66.948L31.805 545.475 0 512.001l31.805-33.474z"/></symbol><symbol viewBox="0 0 1024 1024" id="arrow-r" xmlns="http://www.w3.org/2000/svg"><path d="M712.568 198.899l-66.948 66.948 198.809 198.809H0v94.689h844.429L645.62 758.154l66.948 66.948 279.627-279.627L1024 512.001l-31.805-33.474z"/></symbol><symbol viewBox="0 0 32 32" id="arrow-up" xmlns="http://www.w3.org/2000/svg"><path d="M10.687 8.315l2.374-2.28c.51-.486 1.337-.121 1.337.587v24.043c0 .891.718 1.334 1.603 1.334h-.013c.883 0 1.613-.443 1.613-1.334V6.646c0-.712.864-1.075 1.371-.581l2.334 2.265a1.582 1.582 0 0 0 2.257-.064l.006-.005a1.608 1.608 0 0 0-.069-2.253L18.154.879a3.185 3.185 0 0 0-4.409.011L8.493 5.972a1.61 1.61 0 0 0-.067 2.245l.018.016a1.574 1.574 0 0 0 2.243.08z"/></symbol><symbol viewBox="0 0 1024 1024" id="beontop" xmlns="http://www.w3.org/2000/svg"><path d="M560.441 398.563H1000.7c12.263 0 23.301 9.811 23.301 23.301v180.273c0 12.263-9.811 23.301-23.301 23.301H560.441c-12.263 0-23.301-9.811-23.301-23.301V421.864c1.226-13.49 11.037-23.301 23.301-23.301zm150.84 72.354v-25.753h-100.56v26.98h35.564V577.61h29.432V470.918h35.564zm117.73 12.264c0-19.622-13.49-40.469-51.507-40.469-36.79 0-51.507 20.848-51.507 40.469v55.186c0 19.622 13.49 40.469 51.507 40.469 36.79 0 51.507-20.848 51.507-40.469v-55.186zm-30.659 52.733c0 9.811-6.132 17.169-22.074 17.169-14.716 0-22.074-6.132-22.074-17.169v-50.28c0-9.811 6.132-17.169 22.074-17.169 14.716 0 22.074 6.132 22.074 17.169v50.28zm154.52-35.564v-17.169c0-24.527-12.263-38.017-44.149-38.017h-53.959V577.61h29.432v-40.469h22.074c33.111 0 46.601-12.263 46.601-36.79zm-30.659-3.679c0 9.811-2.453 14.716-15.943 14.716h-22.074v-40.469h22.074c12.263 0 15.943 4.905 15.943 13.49v12.263zM55.186 576.383c24.527 0 36.79-12.263 36.79-30.659v-14.716c0-13.49-7.358-22.074-19.622-24.527 9.811-4.905 14.716-11.037 14.716-22.074v-12.263c0-18.395-9.811-28.206-35.564-28.206H-.001v132.446h55.186zm11.037-33.111c0 9.811-4.905 13.49-15.943 13.49H24.527v-36.79h28.206c9.811 0 13.49 4.905 13.49 13.49v9.811zm-3.679-56.412c0 7.358-3.679 12.263-13.49 12.263H25.753v-34.338H50.28c8.584 0 13.49 3.679 13.49 11.037v11.037h-1.226zm52.733 89.523h72.354v-20.848h-47.827v-22.074h44.149v-19.622h-44.149v-20.848h47.827v-19.622h-72.354v103.013zm228.1-72.354c0-17.169-12.263-33.111-44.149-33.111s-44.149 14.716-44.149 33.111v41.696c0 17.169 12.263 33.111 44.149 33.111s44.149-14.716 44.149-33.111v-41.696zm-24.527 2.452v36.79c0 8.584-4.905 14.716-19.622 14.716s-19.622-4.905-19.622-14.716v-36.79c0-8.584 4.905-14.716 19.622-14.716s19.622 6.132 19.622 14.716zm117.73 69.902h29.432V473.37h-23.301v72.354l-40.469-72.354H372.81v103.013h23.301v-72.354l40.469 72.354z"/></symbol><symbol viewBox="0 0 32 32" id="cart" xmlns="http://www.w3.org/2000/svg"><path d="M29.82 7.563l-3.214 11.25H11.065l-2.5-11.25zM10.31 20.688h17.002a.938.938 0 0 0 .901-.68l3.75-13.125a.937.937 0 0 0-.901-1.195H8.147l-.67-3.016a.937.937 0 0 0-.915-.734H.937a.938.938 0 0 0 0 1.876H5.81l3.385 15.232A2.817 2.817 0 0 0 7.5 21.627a2.816 2.816 0 0 0 2.813 2.813h17a.938.938 0 0 0 0-1.876h-17a.937.937 0 1 1-.003-1.875z"/><path d="M12.187 26.313c.517 0 .938.421.938.938s-.421.938-.938.938c-.517 0-.938-.421-.938-.938s.421-.938.938-.938zm-2.812.937c0 1.551 1.262 2.813 2.813 2.813s2.813-1.262 2.813-2.813c0-1.551-1.262-2.813-2.813-2.813s-2.813 1.262-2.813 2.813zm16.063-.937c.517 0 .938.421.938.938s-.421.938-.938.938c-.517 0-.938-.421-.938-.938s.421-.938.938-.938zm-2.813.937c0 1.551 1.262 2.813 2.813 2.813s2.813-1.262 2.813-2.813c0-1.551-1.262-2.813-2.813-2.813s-2.813 1.262-2.813 2.813z"/></symbol><symbol viewBox="0 0 1024 1024" id="cash" xmlns="http://www.w3.org/2000/svg"><path d="M942.043 782.364a3.547 3.547 0 0 1-3.544 3.542H759.21c-30.225 0-56.576-16.906-70.093-41.757a78.618 78.618 0 0 1-4.79-10.587c-3.135-8.544-4.845-17.769-4.845-27.385s1.712-18.841 4.845-27.385a80.386 80.386 0 0 1 3.027-7.151 82.296 82.296 0 0 1 1.763-3.436c13.516-24.851 39.868-41.757 70.093-41.757h179.289a3.548 3.548 0 0 1 3.544 3.542zm-47.091 167.15c0 19.244-15.655 34.902-34.902 34.902H63.455c-19.246 0-34.904-15.657-34.904-34.902v-39.616h76.989c7.886 0 14.276-6.391 14.276-14.276s-6.391-14.276-14.276-14.276H28.551V531.008h866.4v66.887H759.206c-42.77 0-79.819 24.931-97.401 61.019-.059.121-.125.239-.186.36-.149.307-.278.626-.423.935a107.605 107.605 0 0 0-5.395 13.804l-.012.039a107.939 107.939 0 0 0-4.865 32.125c0 59.707 48.575 108.282 108.28 108.282h135.745v66.887H196.955c-7.886 0-14.276 6.391-14.276 14.276s6.391 14.276 14.276 14.276h697.996zm-866.4-486.675c0-19.244 15.657-34.902 34.904-34.902h796.595c19.246 0 34.902 15.657 34.902 34.902v39.616h-866.4zm37.015-70.204c0-10.931 8.89-19.824 19.822-19.824h33.745l-2.624 26.573H65.568zm565.85 6.751H453.935c4.09-45.379 42.316-81.063 88.74-81.063 46.426-.002 84.654 35.684 88.742 81.063zm-88.742-109.618c-62.173 0-113.209 48.479-117.368 109.617h-72.365l168.49-247.242c.957-1.407 2.544-2.245 4.174-2.245.217 0 .434.016.652.045 22.97 3.213 46.796-1.182 67.093-12.389 1.597-.885 3.648-.757 5.229.319l150.68 102.685c1.577 1.076 2.444 2.939 2.209 4.747-3.008 22.992 1.614 46.776 13.01 66.975.914 1.622.802 3.701-.282 5.295l-55.749 81.807h-48.4c-4.162-61.136-55.197-109.615-117.374-109.615zm-6.288-242.444a17.583 17.583 0 0 1 11.325-7.419 17.576 17.576 0 0 1 13.253 2.761l290.662 198.079c8.059 5.493 10.149 16.518 4.657 24.577l-91.36 134.06h-21.925l44.792-65.727c7.264-10.659 7.863-24.225 1.558-35.404-8.38-14.853-11.777-32.342-9.565-49.248 1.644-12.577-3.89-24.855-14.442-32.044L614.664 114.276c-10.554-7.192-24.005-7.851-35.109-1.72-14.921 8.239-32.442 11.473-49.33 9.109-12.524-1.757-25.227 3.898-32.383 14.397L318.395 399.384H296.47zm311.85 325.491c10.931-.002 19.822 8.89 19.822 19.822v7.274a63.557 63.557 0 0 0-8.008-.522h-60.576l18.107-26.573zM938.5 597.896h-14.994V462.84c0-21.381-10.642-40.312-26.894-51.815v-18.389c0-26.675-21.7-48.375-48.375-48.375h-11.196l42.835-62.856c14.358-21.068 8.898-49.892-12.17-64.251L577.044 19.075c-10.205-6.957-22.506-9.524-34.647-7.221-12.135 2.299-22.649 9.186-29.604 19.393l-250.878 368.14h-69.813l16.843-170.506c.19-1.922 1.438-3.587 3.18-4.243 21.7-8.182 40.506-23.461 52.952-43.023.98-1.54 2.83-2.421 4.744-2.227l109.499 10.818c7.851.761 14.835-4.957 15.61-12.804s-4.957-14.835-12.804-15.61l-109.499-10.818c-12.71-1.245-24.831 4.612-31.641 15.313-9.151 14.383-22.978 25.616-38.933 31.632-12.01 4.528-20.256 15.315-21.524 28.154L163.41 399.385h-18.205l26.638-269.671c.959-9.706 9.622-16.837 19.34-15.865l221.276 21.859c7.847.757 14.835-4.957 15.61-12.804s-4.957-14.835-12.804-15.61L193.989 85.435c-25.369-2.503-48.056 16.098-50.563 41.471L121.955 344.26H85.39c-26.673 0-48.375 21.7-48.375 48.375v12.544C15.193 415.226 0 437.284 0 462.839v486.675c0 34.99 28.465 63.455 63.457 63.455h796.595c34.99 0 63.455-28.465 63.455-63.455V814.46h14.994c17.698 0 32.095-14.397 32.095-32.093V629.992c.002-17.698-14.397-32.095-32.095-32.095z"/><path d="M966.074 735.547c-16.195 0-29.371-13.176-29.371-29.369s13.176-29.371 29.371-29.371 29.371 13.176 29.371 29.371-13.176 29.369-29.371 29.369zm0-87.294c-31.941 0-57.925 25.986-57.925 57.925s25.984 57.923 57.925 57.923c31.941 0 57.925-25.984 57.925-57.923s-25.984-57.925-57.925-57.925z"/></symbol><symbol viewBox="0 0 32 32" id="celsius" xmlns="http://www.w3.org/2000/svg"><path d="M16 0C7.178 0 0 7.178 0 16c0 8.824 7.178 16 16 16s16-7.176 16-16c0-8.822-7.178-16-16-16zm0 28.8C8.942 28.8 3.2 23.058 3.2 16S8.942 3.2 16 3.2c7.058 0 12.8 5.742 12.8 12.8S23.058 28.8 16 28.8z"/><path d="M11.2 17.6v3.2c0 2.646 2.154 4.8 4.8 4.8h6.4v-3.2H16c-.882 0-1.6-.717-1.6-1.6v-3.2c0-.882.718-1.6 1.6-1.6h6.4v-3.2H16a4.806 4.806 0 0 0-4.8 4.8zm0-4.8a3.2 3.2 0 1 0 0-6.4 3.2 3.2 0 0 0 0 6.4z"/></symbol><symbol viewBox="0 0 1024 1024" id="check" xmlns="http://www.w3.org/2000/svg"><path d="M886.038 105.129L344.649 642.821l-206.56-205.285L0 576.517 344.649 918.87 1024 244.109z"/></symbol><symbol viewBox="0 0 32 32" id="clock" xmlns="http://www.w3.org/2000/svg"><path d="M25.597 17.609c0 .884-.717 1.601-1.601 1.601h-6.403a3.202 3.202 0 0 1-3.202-3.202V8.004a1.601 1.601 0 0 1 3.202 0v6.403c0 .884.717 1.601 1.601 1.601h4.802c.884 0 1.601.717 1.601 1.601zM32 16.008C31.995 24.841 24.834 32 16 32 7.163 32 0 24.837 0 16 0 7.166 7.159.005 15.992 0 24.833 0 32 7.167 32 16.008zm-3.202 0c0-7.073-5.734-12.806-12.806-12.806S3.186 8.936 3.186 16.008c0 7.073 5.734 12.806 12.806 12.806 7.07-.007 12.799-5.737 12.806-12.806v-.001z"/></symbol><symbol viewBox="0 0 1024 1024" id="close" xmlns="http://www.w3.org/2000/svg"><path d="M1024 102.4L921.6 0 512 409.6 102.4 0 0 102.4 409.6 512 0 921.6 102.4 1024 512 614.4 921.6 1024 1024 921.6 614.4 512 1024 102.4z"/></symbol><symbol viewBox="0 0 32 32" id="crystal" xmlns="http://www.w3.org/2000/svg"><path d="M17 .35a1.603 1.603 0 0 0-2 0l-8 6.4c-.378.304-.6.763-.6 1.25v16c0 .486.222.946.6 1.25l8 6.4a1.6 1.6 0 0 0 2 0l8-6.4c.378-.304.6-.763.6-1.25V8c0-.486-.222-.946-.6-1.25l-8-6.4zm-2.6 9.624l-3.603-2.163 3.603-2.88v5.043zm3.2-5.043l3.603 2.882L17.6 9.975V4.932zm-8 5.895l4.8 2.88v13.365l-4.8-3.84V10.826zm8 16.244V13.705l4.8-2.88V23.23l-4.8 3.84zM32 14.4h-4.8v3.2H32v-3.2zm-.471-11.67L29.267.469l-3.199 3.2L28.33 5.93l3.199-3.2zm-5.46 25.602l3.199 3.2 2.262-2.262-3.199-3.199-2.262 2.262zM4.8 14.4H0v3.2h4.8v-3.2zM.469 2.732l3.2 3.199 2.262-2.262-3.2-3.2L.469 2.731zm.002 26.539l2.262 2.261 3.199-3.2-2.262-2.261-3.199 3.2z"/></symbol><symbol viewBox="0 0 1024 1024" id="developer" xmlns="http://www.w3.org/2000/svg"><path d="M964.116 283.213c-39.775-65.604-95.68-116.382-167.716-152.334S641.569 76.901 548.008 76.801H88.469c-23.493.086-45.995 9.558-62.577 26.342S-.001 142.656-.001 166.35v75.521l538.194.298c86.323 0 155.381 24.253 206.51 72.759 51.128 48.508 77.051 114.077 77.051 197.059s-25.626 148.603-77.099 197.084c-51.474 48.481-120.212 72.734-206.512 72.734H319.845V574.174h-77.594c-21.191-.01-41.658 7.785-57.553 21.921-15.895 14.134-26.126 33.639-28.771 54.843v296.26h392.157c93.724 0 176.529-18.035 248.417-54.103s127.79-86.838 167.713-152.31C1004.27 675.191 1024 598.997 1024 511.936c0-87.063-19.83-163.131-59.883-228.725z"/><path d="M319.052 440.615a82.068 82.068 0 0 0-13.637-45.327c-8.894-13.417-21.53-23.87-36.316-30.039a80.2 80.2 0 0 0-46.742-4.621c-15.691 3.157-30.101 10.936-41.406 22.357s-18.998 25.966-22.105 41.794c-3.107 15.831-1.487 32.235 4.653 47.138s16.525 27.63 29.841 36.58a80.4 80.4 0 0 0 44.964 13.686c21.428-.028 41.973-8.633 57.112-23.928 15.143-15.293 23.644-36.025 23.637-57.638z"/></symbol><symbol viewBox="0 0 32 32" id="doc" xmlns="http://www.w3.org/2000/svg"><path d="M22.383 0H.027v32h31.946V9.769zm6.392 28.799H3.223V3.201h15.981v9.604h9.588v15.998zM6.41 16.002h19.167v3.196H6.41v-3.196zm0 6.392h19.167v3.196H6.41v-3.196z"/></symbol><symbol viewBox="0 0 32 32" id="down" xmlns="http://www.w3.org/2000/svg"><path d="M.003 9.075c.032.581.289 1.097.685 1.465l.001.001 15.344 14.651 15.299-14.604a2.153 2.153 0 1 0-2.972-3.116l.001-.001-12.328 11.767L3.663 7.426A2.153 2.153 0 0 0 .002 9.08v-.006z"/></symbol><symbol viewBox="0 0 32 32" id="edit" xmlns="http://www.w3.org/2000/svg"><path d="M25.322.009L0 26.798v5.192h6.283L32 6.179zM6.283 29.169l-2.276-2.37 16.48-17.27 2.276 2.389zm16.48-22.011l2.276-2.389 2.276 2.389-2.276 2.37z"/></symbol><symbol viewBox="0 0 1024 1024" id="email" xmlns="http://www.w3.org/2000/svg"><path d="M921.625 1023.998H102.426C45.953 1023.998.027 978.072.027 921.599V460.8c0-19.866 11.52-37.939 29.491-46.336 17.92-8.448 39.27-5.683 54.476 7.014L376.96 665.6h270.131l292.966-244.172c15.258-12.697 36.455-15.412 54.476-7.014 17.971 8.396 29.44 26.521 29.44 46.336v460.799c.052 56.525-45.824 102.451-102.349 102.451zM102.426 570.111v351.488h819.301l-.052-351.488-223.232 186.061a51.518 51.518 0 0 1-32.819 11.827H358.425c-11.929 0-23.552-4.199-32.768-11.827L102.425 570.111zm819.199-211.712H819.226V102.4H204.827v255.999H102.428V-.001h819.199v358.4z"/><path d="M716.825 204.8h-409.6v102.399h409.6V204.8zm-102.4 153.599H307.226v102.399h307.199V358.399z"/></symbol><symbol viewBox="0 0 32 32" id="facebook" xmlns="http://www.w3.org/2000/svg"><path d="M22.482 15.787h-4.326v15.848h-6.554V15.787H8.485v-5.569h3.117V6.614c0-2.577 1.224-6.613 6.612-6.613l4.855.02v5.406h-3.522c-.578 0-1.39.289-1.39 1.518v3.278h4.898l-.573 5.564z"/></symbol><symbol viewBox="0 0 1024 1024" id="file" xmlns="http://www.w3.org/2000/svg"><path d="M910.222 0H113.208C50.403 0 .568 50.916.568 113.777l-.569 796.445c0 62.805 50.404 113.777 113.209 113.777h797.014c62.863 0 113.777-50.972 113.777-113.777V113.777C1023.999 50.914 973.083 0 910.222 0zm0 682.668H682.666c0 94.265-76.401 170.667-170.667 170.667s-170.667-76.401-170.667-170.667H113.208v-568.89h797.014v568.89zM739.555 398.224H625.778V227.557H398.222v170.667H284.445L512.001 625.78l227.556-227.556z"/></symbol><symbol viewBox="0 0 32 32" id="flikr" xmlns="http://www.w3.org/2000/svg"><path d="M14.658 15.433c0 4.048-3.281 7.329-7.329 7.329S0 19.481 0 15.433s3.281-7.329 7.329-7.329 7.329 3.281 7.329 7.329zm17.039.831c0 4.048-3.281 7.329-7.329 7.329s-7.329-3.281-7.329-7.329 3.281-7.329 7.329-7.329 7.329 3.281 7.329 7.329z"/></symbol><symbol viewBox="0 0 20 20" id="gear"><path d="M17.498 11.697A2.384 2.384 0 0 1 16.794 10a2.384 2.384 0 0 1 .961-1.917.39.39 0 0 0 .137-.417 8.169 8.169 0 0 0-.662-1.597.385.385 0 0 0-.391-.199c-.13.02-.238.027-.336.027a2.402 2.402 0 0 1-2.401-2.4c0-.099.008-.207.027-.336a.388.388 0 0 0-.199-.391 8.144 8.144 0 0 0-1.597-.662.388.388 0 0 0-.416.137A2.38 2.38 0 0 1 10 3.207a2.38 2.38 0 0 1-1.917-.961.388.388 0 0 0-.416-.137 8.216 8.216 0 0 0-1.597.662.387.387 0 0 0-.199.391c.02.129.027.237.027.336 0 1.325-1.076 2.4-2.401 2.4a2.15 2.15 0 0 1-.335-.027.387.387 0 0 0-.392.199 8.241 8.241 0 0 0-.662 1.597.39.39 0 0 0 .137.417 2.399 2.399 0 0 1 0 3.835.388.388 0 0 0-.137.416c.166.557.388 1.096.662 1.596a.381.381 0 0 0 .392.199 2.15 2.15 0 0 1 .335-.027 2.403 2.403 0 0 1 2.401 2.402c0 .098-.007.205-.027.334a.388.388 0 0 0 .199.391c.501.273 1.04.496 1.597.66a.382.382 0 0 0 .417-.137 2.385 2.385 0 0 1 1.917-.959 2.382 2.382 0 0 1 1.917.959.382.382 0 0 0 .416.136 8.148 8.148 0 0 0 1.597-.66.39.39 0 0 0 .199-.393 2.138 2.138 0 0 1-.027-.334 2.403 2.403 0 0 1 2.401-2.402c.098 0 .206.008.336.027a.385.385 0 0 0 .391-.199c.274-.5.496-1.039.662-1.596a.388.388 0 0 0-.137-.416 1.776 1.776 0 0 1-.258-.219m-.827 1.637c-.059-.002-.114-.002-.168-.002a3.176 3.176 0 0 0-3.173 3.172c0 .053.002.109.004.166a7.09 7.09 0 0 1-.976.406A3.152 3.152 0 0 0 10 16.023a3.15 3.15 0 0 0-2.359 1.053 7.09 7.09 0 0 1-.976-.406c.002-.057.004-.113.004-.166a3.175 3.175 0 0 0-3.172-3.172c-.054 0-.11 0-.168.002a7.198 7.198 0 0 1-.405-.975c.044-.039.085-.078.124-.115a3.177 3.177 0 0 0-.124-4.602 7.21 7.21 0 0 1 .405-.976c.058.002.114.004.168.004a3.175 3.175 0 0 0 3.172-3.172c0-.054-.002-.11-.004-.168a7.21 7.21 0 0 1 .976-.405A3.15 3.15 0 0 0 10 3.978a3.15 3.15 0 0 0 2.358-1.053c.336.112.663.247.976.405-.002.058-.004.114-.004.168a3.177 3.177 0 0 0 3.173 3.172c.054 0 .109-.002.168-.004.158.312.293.64.405.976A3.15 3.15 0 0 0 16.022 10a3.151 3.151 0 0 0 1.054 2.359 7.252 7.252 0 0 1-.405.975M10 5.417A4.588 4.588 0 0 0 5.416 10c0 2.529 2.056 4.584 4.584 4.584s4.584-2.055 4.584-4.584A4.588 4.588 0 0 0 10 5.417m0 8.395A3.816 3.816 0 0 1 6.188 10 3.816 3.816 0 0 1 10 6.188 3.816 3.816 0 0 1 13.812 10 3.815 3.815 0 0 1 10 13.812"/></symbol><symbol viewBox="0 0 32 32" id="google" xmlns="http://www.w3.org/2000/svg"><path d="M.006 15.907C-.192 10.703 4.367 5.893 9.577 5.832c2.655-.226 5.238.805 7.248 2.486-.824.906-1.662 1.802-2.559 2.641-1.769-1.075-3.899-1.894-5.966-1.166-3.334.949-5.353 4.886-4.12 8.149 1.022 3.407 5.166 5.277 8.413 3.845 1.682-.602 2.79-2.154 3.277-3.821-1.927-.039-3.855-.014-5.782-.068-.005-1.147-.01-2.289-.005-3.436 3.214-.005 6.433-.014 9.652.014.198 2.809-.217 5.816-2.043 8.071-2.501 3.219-7.122 4.164-10.881 2.901-3.99-1.311-6.891-5.33-6.804-9.541zm25.993-4.338h2.867c.005.959.014 1.922.02 2.882.959.01 1.923.014 2.882.019v2.872l-2.882.014c-.01.964-.014 1.922-.02 2.886-.959-.005-1.918 0-2.872 0-.01-.964-.01-1.922-.019-2.882-.959-.01-1.922-.015-2.882-.02v-2.872c.959-.005 1.918-.01 2.882-.019.005-.959.015-1.922.024-2.882z"/></symbol><symbol viewBox="0 0 32 32" id="heart" xmlns="http://www.w3.org/2000/svg"><path d="M8.674 1.993c-1.9 0-3.877.794-5.874 2.791-3.724 3.722-3.742 9.704 0 13.406 13.112 11.795 13.156 11.816 13.156 11.816s.105-.038 13.242-11.816c3.744-3.702 3.725-9.684.001-13.406-1.734-1.734-3.463-2.556-5.142-2.736a6.82 6.82 0 0 0-.726-.039c-2.643 0-5.146 1.522-7.332 3.486l-.002-.001c-2.189-1.966-4.681-3.501-7.323-3.501zm0 2.287c1.691 0 3.641.981 5.795 2.916l.065.059 1.576 1.216 1.417-1.273c2.142-1.925 4.095-2.9 5.804-2.9.161 0 .323.009.482.026 1.274.137 2.506.817 3.769 2.08a7.172 7.172 0 0 1 2.13 5.121 7.071 7.071 0 0 1-2.085 5.005 3552.782 3552.782 0 0 1-11.659 10.424c-1.583-1.42-4.852-4.355-11.597-10.422a7.072 7.072 0 0 1-2.085-5.007 7.172 7.172 0 0 1 2.13-5.121c1.428-1.428 2.82-2.121 4.257-2.121z"/></symbol><symbol viewBox="0 0 32 32" id="instagram" xmlns="http://www.w3.org/2000/svg"><path d="M31.82 23.793c0 4.427-3.6 8.027-8.027 8.027H8.027C3.601 31.82 0 28.22 0 23.793V8.027C0 3.601 3.601 0 8.027 0h15.766c4.427 0 8.027 3.601 8.027 8.027v15.766zm-8.027-20.33H8.027a4.569 4.569 0 0 0-4.564 4.564v15.766a4.569 4.569 0 0 0 4.564 4.564h15.766a4.569 4.569 0 0 0 4.564-4.564V8.027a4.569 4.569 0 0 0-4.564-4.564zM15.91 24.105c-4.519 0-8.195-3.676-8.195-8.195s3.676-8.195 8.195-8.195 8.195 3.676 8.195 8.195-3.677 8.195-8.195 8.195zm0-12.927a4.738 4.738 0 0 0-4.732 4.731 4.739 4.739 0 0 0 4.732 4.733 4.737 4.737 0 0 0 4.732-4.733 4.737 4.737 0 0 0-4.732-4.731zm8.459-1.769c-1.07 0-1.94-.87-1.94-1.939s.87-1.939 1.94-1.939c1.069 0 1.939.87 1.939 1.939s-.87 1.939-1.939 1.939z"/></symbol><symbol viewBox="0 0 32 32" id="left" xmlns="http://www.w3.org/2000/svg"><path d="M22.925 31.997a2.154 2.154 0 0 1-1.465-.685l-.001-.001L6.808 15.967 21.412.668a2.153 2.153 0 1 1 3.116 2.972l.001-.001-11.767 12.328 11.812 12.37a2.153 2.153 0 0 1-1.654 3.661h.006z"/></symbol><symbol viewBox="0 0 1024 1024" id="lightbulb" xmlns="http://www.w3.org/2000/svg"><path d="M384 981.333h85.333V1024h85.333v-42.667h85.333V896h-256v85.333zm128-768c-164.651 0-298.667 133.973-298.667 298.667 0 115.797 67.456 220.587 170.667 269.611v29.056c0 23.552 19.072 42.667 42.667 42.667h170.667c23.595 0 42.667-19.115 42.667-42.667v-29.056C743.212 732.63 810.668 627.84 810.668 512c0-164.693-134.016-298.667-298.667-298.667zm71.083 499.584c-16.981 6.016-28.416 22.144-28.416 40.192V768h-85.333v-14.891c0-18.091-11.435-34.176-28.416-40.192C355.841 682.794 298.667 602.026 298.667 512c0-117.632 95.701-213.333 213.333-213.333S725.333 394.368 725.333 512c0 90.027-57.173 170.795-142.251 200.917zM554.667 0h-85.333v170.667h85.333V0zm-384 469.333H0v85.333h170.667v-85.333zm853.333 0H853.333v85.333H1024v-85.333zm-97.903-311.189l-60.318-60.301-127.991 128.028 60.318 60.301 127.991-128.028zm-639.908 67.699L158.18 97.834l-60.309 60.309 128.01 128.01 60.309-60.309z"/></symbol><symbol viewBox="0 0 32 32" id="linkedin" xmlns="http://www.w3.org/2000/svg"><path d="M3.844 0c2.089.002 3.812 1.727 3.808 3.827-.005 2.199-1.829 3.856-3.834 3.808-2.033.041-3.819-1.657-3.819-3.822 0-2.1 1.73-3.814 3.844-3.812zm2.141 31.714H1.509a1.052 1.052 0 0 1-1.052-1.052V11.566c0-.581.471-1.052 1.052-1.052h4.476c.581 0 1.052.471 1.052 1.052v19.096c0 .581-.471 1.052-1.052 1.052zm26-14.408a7.249 7.249 0 0 0-7.249-7.249h-1.148a6.435 6.435 0 0 0-5.641 3.329.817.817 0 0 0-.06-.008v-2.344a.437.437 0 0 0-.437-.437h-5.585a.437.437 0 0 0-.437.437v20.327c0 .241.195.437.437.437l5.706.001a.437.437 0 0 0 .437-.437V19.619c0-2.03 1.619-3.715 3.649-3.738a3.676 3.676 0 0 1 2.653 1.081 3.68 3.68 0 0 1 1.081 2.61v11.792c0 .241.195.437.436.437l5.721.001a.437.437 0 0 0 .437-.437v-14.06z"/></symbol><symbol viewBox="0 0 8 11" id="location" xmlns="http://www.w3.org/2000/svg"><path fill-rule="evenodd" clip-rule="evenodd" d="M0 3.915c0 2.162 4 7.22 4 7.082 0-.137 4-4.92 4-7.082S6.208 0 4 0 0 1.753 0 3.915zm2-.392c0 1.082.896 1.958 2 1.958s2-.876 2-1.958c0-1.08-.896-1.957-2-1.957s-2 .876-2 1.957z"/></symbol><symbol viewBox="0 0 32 32" id="mailru" xmlns="http://www.w3.org/2000/svg"><path d="M16 .5C7.434.5.5 7.432.5 16c0 8.566 6.932 15.5 15.5 15.5 3.01 0 5.959-.884 8.463-2.514.75-.488.914-1.518.347-2.211l-.636-.777a1.496 1.496 0 0 0-1.961-.321A11.531 11.531 0 0 1 16 27.499c-6.341 0-11.5-5.159-11.5-11.5s5.159-11.5 11.5-11.5c6.259 0 11.5 3.601 11.5 10 0 2.424-1.318 4.984-3.636 5.231-1.084-.028-1.057-.804-.842-1.877l1.465-7.569a1.5 1.5 0 0 0-1.473-1.785h-2.811a.845.845 0 0 0-.839.746v.004l-.001.006c-.919-1.119-2.528-1.361-3.748-1.361-4.661 0-8.614 3.89-8.614 9.466 0 4.081 2.299 6.617 6 6.617 1.687 0 3.586-.977 4.687-2.396.595 2.131 2.538 2.131 4.419 2.131 6.807 0 9.394-4.476 9.394-9.213 0-8.522-6.874-14-15.5-14zm-1.355 19.027c-1.391 0-2.254-.976-2.254-2.548 0-2.812 1.924-4.546 3.664-4.546 1.393 0 2.225.953 2.225 2.548 0 2.816-2.117 4.546-3.635 4.546z"/></symbol><symbol viewBox="0 0 32 32" id="odnoklasniki" xmlns="http://www.w3.org/2000/svg"><path d="M16.012 12.134c2.191-.008 3.936-1.768 3.928-3.963s-1.757-3.944-3.948-3.946a3.942 3.942 0 0 0-3.958 3.994 3.936 3.936 0 0 0 3.979 3.915zM15.916 0c4.469.012 8.056 3.668 8.033 8.186-.023 4.414-3.668 7.991-8.129 7.976-4.416-.015-8.037-3.676-8.011-8.099C7.834 3.592 11.457-.012 15.917 0zm9.155 19.218c-.988 1.014-2.178 1.749-3.499 2.261-1.249.484-2.617.728-3.972.89.205.223.301.332.429.46 1.838 1.848 3.685 3.687 5.517 5.54.624.632.754 1.415.411 2.148-.375.803-1.217 1.33-2.042 1.274-.523-.036-.931-.296-1.293-.66-1.388-1.396-2.801-2.767-4.16-4.189-.397-.414-.586-.335-.936.024a274.614 274.614 0 0 1-4.241 4.258c-.641.632-1.403.746-2.147.385-.79-.382-1.292-1.189-1.254-2.001.027-.547.297-.967.673-1.342 1.82-1.816 3.634-3.638 5.449-5.458.121-.121.232-.249.407-.437-2.475-.259-4.707-.868-6.618-2.362-.238-.186-.482-.365-.698-.574-.837-.803-.921-1.724-.26-2.671.567-.811 1.517-1.028 2.505-.562.192.09.374.203.548.323 3.561 2.447 8.453 2.514 12.028.109.354-.27.733-.493 1.172-.605.852-.22 1.649.094 2.106.841.523.853.517 1.685-.127 2.347z"/></symbol><symbol viewBox="0 0 32 32" id="ok" xmlns="http://www.w3.org/2000/svg"><path d="M15.111 21.997L9.456 16.34l2.261-2.263 3.394 3.394 6.787-6.788 2.263 2.263-9.049 9.051zM31.995 0v32H.005V0h31.99zm-3.199 3.2H3.203v25.599h25.593V3.2z"/></symbol><symbol viewBox="0 0 1024 1024" id="password" xmlns="http://www.w3.org/2000/svg"><path d="M739.999 651.999c22.092 0 40 17.908 40 40s-17.908 40-40 40-40-17.908-40-40 17.908-40 40-40z"/><path d="M671.926 375.999h-320V234.931c0-85.43 71.776-154.932 160-154.932s160 69.502 160 154.932zm248.074 348c22.092 0 40-17.908 40-40V536c0-88.224-71.776-160-160-160h-48.074V234.932C751.926 105.39 644.262 0 511.926 0s-240 105.39-240 234.932V376H224c-88.224 0-160 71.776-160 160v328c0 88.224 71.776 160 160 160h576c88.224 0 160-71.776 160-160 0-22.092-17.908-40-40-40s-40 17.908-40 40c0 44.112-35.888 80-80 80H224c-44.112 0-80-35.888-80-80V536c0-44.112 35.888-80 80-80h576c44.112 0 80 35.888 80 80v147.999c0 22.092 17.908 40 40 40z"/><path d="M438 651.999c22.092 0 40 17.908 40 40s-17.908 40-40 40-40-17.908-40-40 17.908-40 40-40zm-150.001 0c22.092 0 40 17.908 40 40s-17.908 40-40 40-40-17.908-40-40 17.908-40 40-40zm300 0c22.092 0 40 17.908 40 40s-17.908 40-40 40-40-17.908-40-40 17.908-40 40-40z"/></symbol><symbol viewBox="0 0 1024 1024" id="pencil" xmlns="http://www.w3.org/2000/svg"><path d="M833.678 9.101L112.952 771.703v148.376h178.523l732.397-735.016zm-542.06 830.213l-64.765-67.754 469.581-491.586 64.765 67.754zm469.58-627.151l64.651-67.64 64.765 67.811-64.651 67.64zM0 920.466h1024v94.433H0v-94.433z"/></symbol><symbol viewBox="0 0 32 32" id="phone" xmlns="http://www.w3.org/2000/svg"><path d="M31.423 27.724c-.981 3.006-4.86 4.498-7.61 4.242-4.191-.626-7.92-2.236-11.063-4.586l.064.046C7.979 23.918 4.12 19.355 1.525 14.059l-.094-.212a11.22 11.22 0 0 1-1.432-5.52c0-2.344.71-4.521 1.926-6.33l-.026.041A4.519 4.519 0 0 1 5.493.013h.008c2.196-.107 2.494 1.151 3.24 3.112a37.745 37.745 0 0 1 1.642 4.16l.085.295c.789 2.835-1.94 2.942-2.302 5.265-.213 1.449 1.556 3.389 2.366 4.434a20.997 20.997 0 0 0 5.479 5.066l.084.05c1.194.767 3.155 2.153 4.562 1.386 2.132-1.172 1.94-4.775 4.924-3.56 1.556.639 3.048 1.556 4.54 2.345 2.281 1.236 2.174 2.515 1.3 5.158-.639 1.982.661-1.982 0 0z"/></symbol><symbol viewBox="0 0 32 32" id="pinterest" xmlns="http://www.w3.org/2000/svg"><path d="M9.606 30.579C2.561 27.635-2.024 19.246.892 10.725c2.885-8.429 12.217-12.843 20.62-9.722 8.427 3.129 12.595 12.428 9.328 20.763-3.382 8.63-12.449 11.683-19.248 9.53.508-1.255 1.087-2.494 1.51-3.783.425-1.295.697-2.64 1.016-3.887.275.231.551.476.84.705 1.502 1.187 3.202 1.302 4.982.874 1.892-.455 3.387-1.528 4.495-3.105 1.873-2.667 2.534-5.685 2.081-8.86-.468-3.284-2.412-5.66-5.46-6.856-4.592-1.803-8.946-1.196-12.717 2.108-2.9 2.541-3.875 6.849-2.48 10.203.484 1.163 1.248 2.075 2.404 2.623.586.278.835.165 1.004-.447.013-.046.028-.09.045-.135.325-.856.249-1.56-.329-2.387-1.053-1.507-.865-3.251-.357-4.921.963-3.169 3.794-5.283 7.115-5.314.889-.008 1.805.068 2.666.278 2.562.625 4.216 2.606 4.382 5.233.133 2.107-.196 4.153-1.112 6.077-.454.952-1.052 1.799-1.943 2.399-.837.563-1.752.79-2.745.531-1.368-.357-2.145-1.605-1.799-2.975.359-1.419.823-2.812 1.174-4.233.149-.601.227-1.253.166-1.865-.166-1.667-1.742-2.444-3.214-1.631-1.031.57-1.528 1.523-1.758 2.625-.237 1.136-.122 2.255.247 3.357.074.221.085.495.033.723-.669 2.917-1.384 5.824-2.018 8.749-.185.853-.151 1.755-.212 2.634-.012.168-.002.338-.002.563z"/></symbol><symbol viewBox="0 0 32 32" id="profile" xmlns="http://www.w3.org/2000/svg"><path d="M31.914 28.205c-1.147-5.2-4.837-9.336-9.669-11.091l-.106-.034c2.231-1.759 3.649-4.462 3.649-7.495 0-.516-.041-1.022-.12-1.516l.007.054c-.834-4.639-4.84-8.114-9.658-8.114-5.339 0-9.681 4.268-9.802 9.578v.011a9.476 9.476 0 0 0 3.64 7.466l.021.016C4.933 18.867 1.238 23.003.103 28.104l-.019.101a3.199 3.199 0 0 0 3.145 3.786l.076-.001h-.004 25.396l.072.001a3.199 3.199 0 0 0 3.141-3.806l.003.02zM9.469 9.598l-.001-.135a6.533 6.533 0 1 1 6.542 6.533h-.073A6.467 6.467 0 0 1 9.47 9.602v-.004zm17.025 19.193H5.47a1.59 1.59 0 0 1-1.489-2.144l-.004.011c2.242-4.459 6.781-7.465 12.023-7.465s9.78 3.006 11.987 7.388l.035.077a1.582 1.582 0 0 1-1.483 2.134l-.048-.001h.002z"/></symbol><symbol viewBox="0 0 32 32" id="right" xmlns="http://www.w3.org/2000/svg"><path d="M9.075 31.997a2.154 2.154 0 0 0 1.465-.685l.001-.001 14.651-15.344L10.588.668A2.153 2.153 0 1 0 7.472 3.64l-.001-.001 11.767 12.328-11.812 12.37a2.153 2.153 0 0 0 1.654 3.661h-.006z"/></symbol><symbol viewBox="0 0 2585 1024" id="rule" xmlns="http://www.w3.org/2000/svg"><path d="M0 0v1024.039h2585.481V0zm136.078 136.078h2313.325v751.884H136.078z"/><path d="M2109.208 438.859h136.078v438.858h-136.078V438.859zm-272.156 219.429h136.078v219.429h-136.078V658.288zm-272.156-219.429h136.078v438.858h-136.078V438.859zM1292.74 658.288h136.078v219.429H1292.74V658.288zm-272.156-219.429h136.078v438.858h-136.078V438.859zM748.429 658.288h136.078v219.429H748.429V658.288zm-204.117-36.571c0 60.594-45.693 109.715-102.058 109.715s-102.058-49.121-102.058-109.715 45.693-109.715 102.058-109.715 102.058 49.121 102.058 109.715z"/></symbol><symbol viewBox="0 0 1024 1024" id="search" xmlns="http://www.w3.org/2000/svg"><path d="M431.127 107.853c168.504 0 305.586 137.082 305.586 305.586S599.631 719.025 431.127 719.025c-168.504 0-305.586-137.082-305.586-305.586s137.082-305.586 305.586-305.586zm560.156 824.848L747.569 679.227c62.663-74.491 96.997-168.216 96.997-265.788 0-227.967-185.473-413.44-413.44-413.44s-413.44 185.473-413.44 413.44c0 227.967 185.473 413.44 413.44 413.44 85.582 0 167.137-25.813 236.865-74.815l245.565 255.398c10.264 10.66 24.069 16.538 38.863 16.538 14.003 0 27.287-5.339 37.371-15.046 21.427-20.618 22.11-54.808 1.492-76.253z"/></symbol><symbol viewBox="0 0 32 32" id="skype" xmlns="http://www.w3.org/2000/svg"><path d="M30.388 18.639c.18-.925.275-1.881.275-2.859C30.663 7.56 24 .897 15.78.897c-.978 0-1.933.095-2.859.275A8.591 8.591 0 0 0 1.172 12.921c-.18.925-.275 1.881-.275 2.859C.897 24 7.56 30.663 15.78 30.663c.978 0 1.933-.095 2.859-.275a8.591 8.591 0 0 0 11.749-11.749zm-14.325 7.363c-5.289 0-7.933-1.983-8.746-4.475s.966-3.204 1.526-3.255c.559-.051 1.746.085 2.085 1.119.352 1.075 1.526 3.204 4.068 3.458s4.221-.915 4.729-2.136c.509-1.22-.407-2.899-4.322-3.458s-7.984-2.288-7.984-6.204 4.475-5.492 8.747-5.492 6.437 2.413 6.916 3.356c.593 1.17.39 3.118-1.017 3.458-1.475.356-2.237-.458-3.305-2.441-1.104-2.051-5.034-1.526-6.356-.356s-.966 2.848 4.526 3.916 7.526 3.051 7.526 6.153-3.102 6.356-8.391 6.356z"/></symbol><symbol viewBox="0 0 32 32" id="star" xmlns="http://www.w3.org/2000/svg"><path d="M7.771 31.118a1.522 1.522 0 0 1-2.205-1.623l-.001.009 1.568-9.179-6.667-6.484a1.522 1.522 0 0 1 .845-2.602l.008-.001 9.209-1.34 4.11-8.341a1.521 1.521 0 1 1 2.736-.009l.004.009 4.11 8.341 9.224 1.34c.735.117 1.29.746 1.29 1.504 0 .424-.173.807-.453 1.083l-6.667 6.5 1.583 9.179a1.522 1.522 0 0 1-2.23 1.609l.008.004-8.22-4.338-8.25 4.338zm7.535-7.413a1.514 1.514 0 0 1 1.424.004l-.008-.004 6.21 3.273-1.187-6.926a1.521 1.521 0 0 1 .441-1.34l5.023-4.901-6.941-1.02a1.529 1.529 0 0 1-1.153-.813l-.004-.009-3.105-6.302-3.105 6.302c-.223.437-.64.747-1.133.821l-.008.001-6.956 1.02 5.023 4.901a1.518 1.518 0 0 1 .456 1.349l.001-.009-1.203 6.926 6.226-3.273z"/></symbol><symbol viewBox="0 0 1024 1024" id="success" xmlns="http://www.w3.org/2000/svg"><path d="M704 324.097L456.192 576.513 329.215 449.025l-68.095 68.098 200.192 199.68L782.85 404.995z"/><path d="M512 931.329c-231.588 0-419.329-187.74-419.329-419.329S280.411 92.671 512 92.671C743.471 92.952 931.045 280.526 931.329 512c0 231.591-187.738 419.329-419.329 419.329zM512 0C229.232 0 0 229.232 0 512s229.232 512 512 512c282.768 0 512-229.232 512-512S794.771 0 512 0z"/></symbol><symbol viewBox="0 0 32 32" id="telegram" xmlns="http://www.w3.org/2000/svg"><path d="M29.572 2.699L.672 13.961c-.936.365-.879 1.708.084 1.993L8.1 18.123l2.741 8.697a1.261 1.261 0 0 0 2.104.503l3.797-3.877 7.45 5.468c.912.669 2.21.172 2.442-.935l4.934-23.59c.242-1.156-.895-2.118-1.995-1.69zm-3.624 5.235L12.524 19.805a.72.72 0 0 0-.239.46l-.517 4.594c-.017.15-.227.17-.271.026l-2.126-6.852a.722.722 0 0 1 .309-.827l15.852-9.832c.365-.226.738.276.416.56z"/></symbol><symbol viewBox="0 0 32 32" id="thumbs-up" xmlns="http://www.w3.org/2000/svg"><path d="M31.647 10.452a1.527 1.527 0 0 0-1.17-.547h-9.143V3.81c0-.841-.681-1.524-1.524-1.524h-4.571c-.61 0-1.161.363-1.4.922l-4.175 9.745h-.52c0-.841-.681-1.524-1.524-1.524H1.525c-.843 0-1.524.683-1.524 1.524v15.238c0 .841.681 1.524 1.524 1.524H7.62c.843 0 1.524-.683 1.524-1.524v-.795l5.53 2.211c.178.072.372.108.565.108h12.19c.736 0 1.367-.527 1.499-1.251l3.048-16.762a1.531 1.531 0 0 0-.329-1.25zM6.095 26.667H3.047v-12.19h3.048v12.19zm20.063 0H15.531l-6.388-2.555v-8.111h1.524c.61 0 1.161-.363 1.4-.923l4.175-9.743h2.043v6.095c0 .841.681 1.524 1.524 1.524h8.841l-2.493 13.714z"/></symbol><symbol viewBox="0 0 32 32" id="time" xmlns="http://www.w3.org/2000/svg"><path d="M24 14.667h-5.333a1.332 1.332 0 0 1-1.333-1.333v-8h2.667v6.667h4v2.667z"/><path d="M8.785 17.333a10.59 10.59 0 0 1-.785-4C8 7.452 12.785 2.666 18.667 2.666s10.667 4.785 10.667 10.667c0 2.523-.884 4.839-2.355 6.667h3.216A13.227 13.227 0 0 0 32 13.333C32 5.981 26.019 0 18.667 0S5.334 5.981 5.334 13.333c0 1.393.216 2.737.615 4h2.837z"/><path d="M27.86 23.403a1.334 1.334 0 0 0-1.193-.736H16.552l.391-.391a1.333 1.333 0 0 0 .251-1.539l-1.333-2.667a1.335 1.335 0 0 0-1.615-.669l-6.343 2.115a1.328 1.328 0 0 0-1.236-.849H1.334c-.737 0-1.333.597-1.333 1.333v10.667C.001 31.404.597 32 1.334 32h5.333C7.404 32 8 31.404 8 30.667h14.667c.419 0 .815-.197 1.067-.533l4-5.333c.303-.405.352-.945.127-1.397zm-25.193 5.93v-8h2.667v8H2.667zM22 28H8v-5.707l5.992-1.996.385.772-1.987 1.988a1.32 1.32 0 0 0-.377.943H12v1.333h12L22 28z"/></symbol><symbol viewBox="0 0 20 32" id="tumblr" xmlns="http://www.w3.org/2000/svg"><path d="M19.542 25.142v5.02a14.56 14.56 0 0 1-6.4 1.711c-.138.005-.276.015-.415.022-.303 0-.95-.008-.971-.008a14.013 14.013 0 0 1-1.446-.114 10.503 10.503 0 0 1-2.303-.564c-1.185-.442-2.229-1.097-3.095-2.027-.671-.721-1.121-1.551-1.299-2.527a12.579 12.579 0 0 1-.188-2.25c-.003-3.744-.002-7.573-.002-11.317H-.002V8.522c.379-.15.76-.281 1.129-.452 1.955-.908 3.385-2.348 4.293-4.302.444-.957.693-1.973.864-3.01.042-.252.075-.505.112-.757h4.523l.002 8.08h7.567v5.007h-7.57s.005 8.908.012 9.205c.016.677.049 1.352.152 2.023.112.721.472 1.28 1.08 1.679a4.365 4.365 0 0 0 1.959.691 6.844 6.844 0 0 0 2.093-.117c1.208-.243 2.304-.751 3.328-1.426z"/></symbol><symbol viewBox="0 0 32 32" id="twitter" xmlns="http://www.w3.org/2000/svg"><path d="M31.872 5.905c-1.172.52-2.433.871-3.756 1.028a6.558 6.558 0 0 0 2.876-3.617 13.086 13.086 0 0 1-4.152 1.586 6.533 6.533 0 0 0-4.774-2.064 6.54 6.54 0 0 0-6.369 8.029A18.564 18.564 0 0 1 2.219 4.034a6.511 6.511 0 0 0-.886 3.288 6.54 6.54 0 0 0 2.909 5.443 6.504 6.504 0 0 1-2.962-.819v.083a6.543 6.543 0 0 0 5.246 6.411 6.523 6.523 0 0 1-2.952.113 6.546 6.546 0 0 0 6.108 4.541 13.119 13.119 0 0 1-8.122 2.799c-.527 0-1.048-.031-1.559-.092a18.495 18.495 0 0 0 10.023 2.938c12.027 0 18.605-9.964 18.605-18.605 0-.283-.006-.566-.019-.846a13.256 13.256 0 0 0 3.263-3.384z"/></symbol><symbol viewBox="0 0 1024 1024" id="up" xmlns="http://www.w3.org/2000/svg"><path d="M.096 733.6c1.024-18.592 9.248-35.104 21.92-46.88l.032-.032 491.008-468.832 489.568 467.328c13.184 12.576 21.344 30.272 21.344 49.856 0 38.048-30.848 68.896-68.896 68.896-18.432 0-35.2-7.264-47.552-19.04l.032.032-394.496-376.544-395.84 377.984c-12.416 12.256-29.504 19.808-48.352 19.808-38.048 0-68.896-30.848-68.896-68.896 0-1.28.032-2.56.096-3.84v.192z"/></symbol><symbol viewBox="0 0 32 32" id="viber" xmlns="http://www.w3.org/2000/svg"><path d="M30.467 7.626l-.009-.037c-.74-2.993-4.078-6.205-7.144-6.873l-.035-.007a39.69 39.69 0 0 0-14.942 0l-.036.007c-3.064.668-6.402 3.88-7.144 6.873l-.008.037a29.257 29.257 0 0 0 0 12.599l.008.037c.71 2.865 3.799 5.93 6.75 6.772v3.341c0 1.209 1.474 1.803 2.312.931l3.385-3.519c.734.041 1.469.064 2.203.064 2.496 0 4.993-.236 7.471-.709l.035-.007c3.065-.668 6.403-3.88 7.144-6.873l.009-.037c.915-4.18.915-8.419 0-12.599zm-2.679 11.993c-.494 1.953-3.029 4.38-5.042 4.829a36.989 36.989 0 0 1-7.948.642.187.187 0 0 0-.14.057l-2.472 2.537-2.629 2.698a.308.308 0 0 1-.53-.213v-5.535a.191.191 0 0 0-.155-.187H8.87c-2.014-.448-4.547-2.876-5.042-4.829a26.535 26.535 0 0 1 0-11.387c.495-1.953 3.029-4.38 5.042-4.829a36.956 36.956 0 0 1 13.875 0c2.015.449 4.548 2.876 5.042 4.829a26.504 26.504 0 0 1 0 11.387z"/><path d="M20.254 22.203c-.31-.094-.605-.157-.879-.271-2.839-1.178-5.452-2.698-7.522-5.027-1.177-1.325-2.098-2.82-2.877-4.403-.369-.751-.681-1.531-.998-2.305-.289-.707.137-1.437.585-1.969.421-.5.963-.882 1.549-1.164.458-.22.91-.093 1.244.295.723.839 1.387 1.721 1.925 2.694.331.598.24 1.329-.359 1.737-.146.099-.278.215-.414.327a1.363 1.363 0 0 0-.313.33.903.903 0 0 0-.06.793c.739 2.031 1.985 3.61 4.029 4.46.327.136.656.295 1.032.251.631-.074.835-.766 1.278-1.128.432-.353.985-.358 1.45-.063s.917.611 1.366.931c.44.314.879.621 1.285.979.391.344.525.795.305 1.262-.403.855-.989 1.567-1.834 2.021-.239.128-.524.17-.793.252-.31-.094.269-.083 0 0zm-4.28-16.172c3.714.104 6.764 2.569 7.418 6.24.111.626.151 1.265.201 1.9.021.267-.13.521-.419.524-.298.004-.432-.245-.451-.512-.038-.528-.065-1.059-.138-1.583-.384-2.766-2.59-5.055-5.344-5.546-.414-.074-.838-.093-1.258-.137-.265-.028-.613-.044-.672-.374-.049-.277.184-.497.447-.511.072-.004.144-.001.216 0 3.714.104-.072 0 0 0z"/><path d="M21.399 13.217c-.006.046-.009.155-.037.258-.099.373-.664.42-.794.043a1.135 1.135 0 0 1-.045-.359c-.001-.787-.172-1.572-.569-2.257a4.2 4.2 0 0 0-1.761-1.652 5.078 5.078 0 0 0-1.404-.431c-.212-.035-.426-.056-.638-.086-.258-.036-.395-.2-.383-.454.011-.238.185-.409.445-.394.852.048 1.675.233 2.433.634 1.541.816 2.421 2.104 2.678 3.824.012.078.03.155.036.233.015.193.024.386.039.641-.006.046-.015-.255 0 0z"/><path d="M18.989 12.948c-.311.006-.477-.166-.509-.451-.022-.199-.04-.4-.087-.593-.093-.381-.296-.733-.616-.966a1.609 1.609 0 0 0-.502-.242c-.228-.066-.465-.048-.692-.103-.247-.06-.384-.26-.345-.492a.447.447 0 0 1 .471-.359c1.44.104 2.469.848 2.616 2.543.01.12.023.246-.004.36a.37.37 0 0 1-.332.304c-.311.006.141-.01 0 0z"/></symbol><symbol viewBox="0 0 32 32" id="vkontakte" xmlns="http://www.w3.org/2000/svg"><path d="M15.665 24.958h1.914s.578-.063.873-.382c.272-.292.263-.841.263-.841s-.037-2.568 1.154-2.946c1.175-.372 2.684 2.482 4.283 3.579 1.209.831 2.128.648 2.128.648l4.276-.06s2.237-.138 1.176-1.896c-.087-.144-.618-1.301-3.179-3.678-2.681-2.488-2.322-2.086.908-6.39 1.967-2.621 2.753-4.222 2.508-4.907-.234-.653-1.681-.48-1.681-.48l-4.814.03s-.357-.049-.622.11c-.259.155-.425.517-.425.517s-.762 2.029-1.778 3.754c-2.144 3.64-3.001 3.832-3.351 3.606-.815-.527-.612-2.116-.612-3.246 0-3.528.535-4.998-1.042-5.379-.523-.126-.908-.21-2.247-.223-1.718-.018-3.172.005-3.995.409-.548.268-.97.866-.713.9.318.043 1.039.194 1.421.715.493.671.476 2.178.476 2.178s.283 4.153-.662 4.669c-.649.354-1.539-.369-3.45-3.671-.979-1.692-1.719-3.562-1.719-3.562s-.143-.349-.397-.536c-.309-.226-.74-.299-.74-.299l-4.575.03s-.687.019-.939.318c-.224.266-.018.815-.018.815s3.582 8.379 7.637 12.602c3.718 3.871 7.941 3.617 7.941 3.617z"/></symbol><symbol viewBox="0 0 1024 1024" id="warning" xmlns="http://www.w3.org/2000/svg"><path d="M512 0C228.994 0 0 229.014 0 512c0 283.006 229.014 512 512 512 283.006 0 512-229.014 512-512C1024 228.994 794.986 0 512 0zm0 944C273.214 944 80 750.77 80 512 80 273.214 273.23 80 512 80c238.786 0 432 193.23 432 432 0 238.786-193.23 432-432 432z"/><path d="M512 257.754c-22.092 0-40 17.908-40 40V555.34c0 22.092 17.908 40 40 40s40-17.908 40-40V297.754c0-22.092-17.908-40-40-40zm54 440.566c0 29.823-24.177 54-54 54s-54-24.177-54-54 24.177-54 54-54 54 24.177 54 54z"/></symbol><symbol viewBox="0 0 32 32" id="whatsapp" xmlns="http://www.w3.org/2000/svg"><path d="M0 31.989l2.238-7.948a15.908 15.908 0 0 1-2.197-8.084C.041 7.158 7.199 0 15.998 0s15.957 7.158 15.957 15.957-7.158 15.957-15.957 15.957a15.94 15.94 0 0 1-7.801-2.034L0 31.99zm8.616-5.013l.488.298a13.223 13.223 0 0 0 6.893 1.932c7.306 0 13.25-5.944 13.25-13.25s-5.944-13.25-13.25-13.25-13.25 5.944-13.25 13.25c0 2.546.724 5.018 2.092 7.149l.329.512-1.289 4.577 4.736-1.219z"/><path d="M11.357 8.744l-1.035-.056a1.253 1.253 0 0 0-.89.304c-.502.436-1.305 1.279-1.551 2.377-.368 1.637.2 3.642 1.671 5.647s4.211 5.213 9.056 6.583c1.561.442 2.79.144 3.737-.462a3.339 3.339 0 0 0 1.454-2.122l.165-.772a.535.535 0 0 0-.3-.599l-3.499-1.613a.536.536 0 0 0-.649.16l-1.374 1.781a.393.393 0 0 1-.442.132c-.941-.331-4.092-1.65-5.821-4.981a.398.398 0 0 1 .05-.443l1.313-1.519a.536.536 0 0 0 .087-.562L11.821 9.07a.536.536 0 0 0-.464-.325z"/></symbol><symbol viewBox="0 0 32 32" id="youtube" xmlns="http://www.w3.org/2000/svg"><path d="M25.299 4.615H6.631a6.632 6.632 0 0 0-6.632 6.632v9.332a6.632 6.632 0 0 0 6.632 6.632h18.668a6.632 6.632 0 0 0 6.632-6.632v-9.332a6.632 6.632 0 0 0-6.632-6.632zm-4.485 11.752l-8.731 4.164a.35.35 0 0 1-.501-.316v-8.589a.35.35 0 0 1 .509-.313l8.731 4.425a.35.35 0 0 1-.008.629z"/></symbol><symbol viewBox="0 0 32 32" id="youtube2" xmlns="http://www.w3.org/2000/svg"><path d="M19.297 21.95a1.37 1.37 0 0 0-.11-.486c-.081-.201-.254-.301-.471-.322-.255-.025-.459.078-.643.241a.427.427 0 0 0-.108.161l.004 5.188v.128s.044.06.051.067c.15.162.325.291.549.337.369.076.63-.078.702-.42a1.28 1.28 0 0 0 .029-.261c.002-1.545.005-3.089-.003-4.633zm0 0a1.37 1.37 0 0 0-.11-.486c-.081-.201-.254-.301-.471-.322-.255-.025-.459.078-.643.241a.427.427 0 0 0-.108.161l.004 5.188v.128s.044.06.051.067c.15.162.325.291.549.337.369.076.63-.078.702-.42a1.28 1.28 0 0 0 .029-.261c.002-1.545.005-3.089-.003-4.633zm5.809-7.824a428.594 428.594 0 0 0-18.423 0 3.919 3.919 0 0 0-3.834 3.918v9.59a3.918 3.918 0 0 0 3.834 3.919c6.141.132 12.284.132 18.423 0a3.92 3.92 0 0 0 3.835-3.919v-9.59a3.918 3.918 0 0 0-3.835-3.918zM8.486 28.508H6.715v-10.01H4.882v-1.675h5.441v1.671H8.486v10.014zm6.337-4.154v4.156h-1.568v-.95c-.057.061-.088.093-.118.127-.337.381-.72.698-1.208.866-.238.082-.484.11-.734.066-.342-.057-.572-.254-.71-.565-.129-.287-.162-.595-.162-.905-.004-1.144-.002-7.198-.002-7.257h1.564c.003.053.009 4.399.01 6.519 0 .115.001.234.024.346.058.285.276.407.55.307.315-.115.556-.333.758-.593.03-.038.03-.105.03-.159v-6.429l1.569-.004v4.475zm5.965 3.325c-.21.631-.671.952-1.334.945-.539-.005-.977-.219-1.337-.61l-.152-.162v.656h-1.571V16.823h1.571v3.846s.088-.177.169-.268c.243-.272.539-.483.905-.575.603-.151 1.298.036 1.628.74.195.416.25.86.25 1.312.003 1.633.003 3.267.001 4.9a2.87 2.87 0 0 1-.13.901zm5.802-.329c-.272.797-.834 1.239-1.659 1.36-.511.075-1.018.064-1.498-.153-.657-.296-1.029-.832-1.188-1.513a4.51 4.51 0 0 1-.114-.976c-.012-1.279-.007-2.56-.004-3.839.001-.669.161-1.286.619-1.799.523-.585 1.192-.804 1.956-.755.23.014.464.052.683.124.743.244 1.14.801 1.296 1.539.06.285.082.58.087.871.012.683-.005 2.187-.005 2.187h-3.008v2.156a.7.7 0 1 0 1.401 0v-1.108h1.616s.024 1.308-.181 1.905zm-1.435-5.501a.701.701 0 1 0-1.401 0v1.21h1.401v-1.21zm-5.967-.385c-.081-.201-.254-.301-.471-.322-.255-.025-.459.078-.643.241a.427.427 0 0 0-.108.161l.004 5.188v.128s.044.06.051.067c.15.162.325.291.549.337.369.076.63-.078.702-.42a1.28 1.28 0 0 0 .029-.261c.002-1.545.005-3.089-.003-4.633a1.365 1.365 0 0 0-.11-.486zm3.975-18.396v8.675h-1.607l.002-.932c-.178.175-.329.339-.496.485-.296.26-.63.454-1.022.531-.601.118-1.113-.072-1.305-.695a2.297 2.297 0 0 1-.104-.647V3.068h1.595v6.616c0 .088.007.176.022.262.048.273.25.401.512.31.32-.111.564-.332.771-.593.029-.037.024-.107.024-.162V3.068h1.607zM10.142 4.576C9.793 3.105 9.062 0 9.062 0H7.233s1.405 4.661 2.034 6.74a.816.816 0 0 1 .033.236l-.001 4.767h1.687l-.001-4.767c0-.079.01-.16.033-.236C11.647 4.661 13.052 0 13.052 0h-1.829s-.731 3.105-1.08 4.576h-.001zm5.091-1.946a2.302 2.302 0 0 0-2.302 2.302v4.505a2.302 2.302 0 0 0 4.604 0V4.932a2.302 2.302 0 0 0-2.302-2.302zm.665 6.897a.665.665 0 0 1-1.328 0V4.84a.665.665 0 0 1 1.328 0v4.687z"/></symbol><symbol viewBox="0 0 1024 1024" id="zoom" xmlns="http://www.w3.org/2000/svg"><path d="M61.19 436.619c0-207.071 168.472-375.315 375.315-375.315 207.071 0 375.315 168.472 375.315 375.315S643.575 812.161 436.505 812.161c-206.843 0-375.315-168.472-375.315-375.542zm953.841 535.159L766.183 722.93c66.753-76.743 107.168-176.873 107.168-286.311C873.351 195.718 677.406 0 436.732 0 195.831 0 .113 195.945.113 436.619s195.945 436.619 436.619 436.619c109.439 0 209.568-40.415 286.311-107.168l248.848 248.848c5.903 5.903 13.85 9.082 21.57 9.082s15.667-2.952 21.57-9.082c11.807-11.807 11.807-31.333 0-43.14z"/><path d="M438.148 672.798c-16.616 0-30.084-13.469-30.084-30.084V238.563c0-16.616 13.469-30.084 30.084-30.084 16.616 0 30.084 13.469 30.084 30.084v404.151c0 16.616-13.469 30.084-30.084 30.084z"/><path d="M670.304 441.886c-.089 16.616-13.63 30.012-30.245 29.923l-404.146-2.175c-16.613-.089-30.009-13.63-29.921-30.245.089-16.613 13.63-30.012 30.245-29.921l404.144 2.173c16.616.089 30.012 13.63 29.923 30.245z"/></symbol></svg>