<svg width="58" height="49" fill="none" xmlns="http://www.w3.org/2000/svg"><g clip-path="url(#clip0)"><path d="M17.723 49H30.64c5.29 0 9.967-1.018 14.013-3.044 4.064-2.027 7.22-4.885 9.456-8.573 2.264-3.69 3.368-7.976 3.368-12.878 0-4.903-1.113-9.19-3.368-12.878-2.227-3.698-5.373-6.556-9.447-8.583C40.616 1.018 35.94 0 30.65 0H4.73C1.984 0-.26 2.26-.26 5.043v4.249h9.716l10.347.019h10.29c4.873 0 8.76 1.363 11.647 4.09 2.905 2.727 4.343 6.425 4.343 11.094 0 4.67-1.438 8.368-4.343 11.095-2.886 2.727-6.784 4.09-11.646 4.09H17.779" fill="#00A7FF"/><path d="M17.723 49H30.64c5.29 0 9.967-1.018 14.013-3.044 4.064-2.027 7.22-4.885 9.456-8.573 2.264-3.69 3.368-7.976 3.368-12.878 0-4.903-1.113-9.19-3.368-12.878-2.227-3.698-5.373-6.556-9.447-8.583C40.616 1.018 35.94 0 30.65 0H4.73C1.984 0-.26 2.26-.26 5.043v4.249h9.716l10.347.019h10.29c4.873 0 8.76 1.363 11.647 4.09 2.905 2.727 4.343 6.425 4.343 11.094 0 4.67-1.438 8.368-4.343 11.095-2.886 2.727-6.784 4.09-11.646 4.09H17.779" fill="url(#paint0_linear)"/><path d="M18.027 28.037h-4.329c-2.476 0-4.522 1.883-4.815 4.316V49h9.089l.055-9.302" fill="#FF368A"/><path d="M8.883 39.68V49h9.144v-9.32" fill="#FFB6FF"/><path d="M18.07 20.484a4.593 4.593 0 0 0-4.586-4.596A4.593 4.593 0 0 0 8.9 20.484c0 2.54 2.05 4.595 4.585 4.595a4.599 4.599 0 0 0 4.585-4.595z" fill="#12E6E2"/></g><defs><linearGradient id="paint0_linear" x1="-.261" y1="0" x2="57.619" y2="48.832" gradientUnits="userSpaceOnUse"><stop stop-color="#12E6E2"/><stop offset="1" stop-color="#fff" stop-opacity="0"/></linearGradient><clipPath id="clip0"><path fill="#fff" d="M0 0h58v49H0z"/></clipPath></defs></svg>