<svg viewBox="0 0 165 51" xmlns="http://www.w3.org/2000/svg" fill-rule="evenodd" clip-rule="evenodd" stroke-linejoin="round" stroke-miterlimit="1.414"><path d="M2.138 50.07h13.67a2.14 2.14 0 0 0 2.135-2.136V27.218c0-1.174-.96-2.135-2.135-2.135H2.138a2.142 2.142 0 0 0-2.135 2.135v20.716c0 1.175.96 2.136 2.135 2.136" fill="#384045"/><path d="M127.512 34.775c.181.026.331.074.451.142.12.07.216.152.287.246a.841.841 0 0 1 .147.303c.026.108.04.21.04.307v.12c0 .278-.038.507-.117.683a.927.927 0 0 1-.352.413 1.52 1.52 0 0 1-.586.205 5.385 5.385 0 0 1-.817.056 10.354 10.354 0 0 1-.673-.026 6.648 6.648 0 0 1-.295-.03 2.147 2.147 0 0 1-.236-.039l-.046-.068.05-.323.024-.044.05-.004c.07.014.152.027.245.04a8.251 8.251 0 0 0 .864.055c.247 0 .459-.014.635-.04.176-.025.321-.071.434-.14a.626.626 0 0 0 .247-.282c.052-.12.079-.271.079-.456v-.102c0-.089-.012-.179-.035-.273a.517.517 0 0 0-.156-.257.905.905 0 0 0-.358-.19 2.195 2.195 0 0 0-.638-.073h-1.186l-.06-.06v-.308l.06-.06h1.203c.188 0 .349-.013.481-.035a1.32 1.32 0 0 0 .328-.102.658.658 0 0 0 .202-.145l.108-.167.042-.178.009-.166v-.064a.837.837 0 0 0-.083-.4.565.565 0 0 0-.257-.233 1.318 1.318 0 0 0-.436-.112 6.085 6.085 0 0 0-.628-.027 6.374 6.374 0 0 0-1.097.094l-.072-.052-.055-.325.046-.067a7.82 7.82 0 0 1 1.211-.09c.314 0 .587.017.82.048.233.034.427.093.582.181a.84.84 0 0 1 .349.355c.076.152.114.342.114.576v.076a1.6 1.6 0 0 1-.04.347.843.843 0 0 1-.425.57 1.084 1.084 0 0 1-.46.12m-6.904 2.386l-.059-.06v-4.45l.06-.06h.371l.06.06v3.788l.02-.04.057-.102.08-.142.1-.168 2.157-3.345.094-.05h.43l.06.059v4.45l-.06.06h-.37l-.06-.06v-3.789l-.024.048-.06.112-.08.146-.087.147-2.16 3.344-.093.052h-.436zm-3.305.093c-.351 0-.648-.04-.894-.125a1.41 1.41 0 0 1-.605-.39 1.627 1.627 0 0 1-.342-.679 3.91 3.91 0 0 1-.109-.99v-.37c0-.384.036-.715.109-.993.072-.277.186-.505.342-.682.157-.178.359-.31.605-.395.246-.085.543-.128.894-.128.35 0 .648.043.896.128.247.085.449.217.602.395a1.6 1.6 0 0 1 .34.682c.071.278.107.609.107.993v.37c0 .384-.036.715-.108.99a1.58 1.58 0 0 1-.339.678 1.373 1.373 0 0 1-.602.391 2.796 2.796 0 0 1-.896.125m0-4.317a2.12 2.12 0 0 0-.711.102.974.974 0 0 0-.454.323 1.356 1.356 0 0 0-.243.56 3.957 3.957 0 0 0-.073.811v.295c0 .315.023.586.07.812.048.226.127.412.242.557.113.145.265.252.454.323.19.07.426.105.715.105.284 0 .521-.035.71-.104a.98.98 0 0 0 .454-.322c.114-.147.195-.333.242-.561.05-.229.073-.5.073-.82v-.285c0-.313-.023-.582-.069-.808a1.365 1.365 0 0 0-.24-.56.97.97 0 0 0-.453-.324 2.1 2.1 0 0 0-.717-.104m-6.63 6.147l-.06-.06v-6.33l.06-.068a7.696 7.696 0 0 1 1.467-.124c.395 0 .726.033.992.102.267.068.48.185.643.348.16.163.276.382.344.655.069.273.103.614.103 1.024v.482c0 .398-.032.732-.098 1.005-.065.27-.178.492-.336.662-.16.168-.373.29-.638.363-.266.075-.602.11-1.006.11-.175 0-.358-.008-.548-.028a4.776 4.776 0 0 1-.506-.077v1.876l-.06.06h-.358zm1.468-6.142c-.18 0-.36.005-.541.016-.18.011-.35.029-.51.051v3.712c.074.017.157.032.244.044l.27.029c.093.009.185.015.276.018.092.005.177.008.26.008.332 0 .605-.03.815-.086a.964.964 0 0 0 .495-.29c.12-.137.2-.318.246-.549a4.72 4.72 0 0 0 .066-.854v-.32a4.55 4.55 0 0 0-.069-.86 1.164 1.164 0 0 0-.247-.549.968.968 0 0 0-.496-.287 3.22 3.22 0 0 0-.81-.083m-6.46 4.219l-.06-.06v-4.45l.06-.06h3.405l.06.06v4.45l-.06.06h-.367l-.059-.06v-4.015h-2.552V37.1l-.06.06h-.366zm-7.132 0l-.06-.06v-4.45l.06-.06h.37l.06.06v3.788l.021-.04.057-.102.08-.142.099-.168 2.158-3.345.093-.05h.431l.06.059v4.45l-.06.06h-.371l-.06-.06v-3.789l-.023.048-.06.112-.08.146-.087.147-2.16 3.344-.092.052h-.436zm-5.349-4.224a7.71 7.71 0 0 0-1.35.116L91.792 33v-.305l.059-.07a8.42 8.42 0 0 1 .722-.095 6.423 6.423 0 0 1 .656-.034c.373 0 .668.03.886.092.22.06.388.16.504.295.114.138.187.315.22.535.032.218.05.486.05.8v2.839l-.06.068a11.946 11.946 0 0 1-1.18.12c-.12.004-.226.007-.318.007-.338 0-.63-.02-.879-.061a1.626 1.626 0 0 1-.618-.221.976.976 0 0 1-.367-.436 1.76 1.76 0 0 1-.12-.698c0-.179.015-.34.043-.477a.999.999 0 0 1 .147-.365.863.863 0 0 1 .284-.263c.119-.07.269-.128.449-.17a4.21 4.21 0 0 1 .637-.092c.246-.019.533-.027.859-.027h.657v-.364c0-.23-.014-.418-.046-.567a.655.655 0 0 0-.181-.35.742.742 0 0 0-.375-.177 3.183 3.183 0 0 0-.621-.049m.131 3.903a7.922 7.922 0 0 0 1.092-.075V34.86h-.703c-.407 0-.737.013-.987.037-.253.026-.447.074-.586.146a.561.561 0 0 0-.28.295 1.4 1.4 0 0 0-.071.494c0 .221.035.4.107.533a.728.728 0 0 0 .31.306c.135.068.295.115.485.136.19.021.4.031.633.031m-5.771.32l-.06-.059v-4.45l.06-.06h.354l.059.06v1.843l2.065-1.864.102-.038h.53l.032.01-.016.028-2.359 2.108 2.415 2.38-.016.043h-.542l-.104-.042-2.107-2.112V37.1l-.059.06h-.354zm-2.94 0l-.06-.059v-4.033H83.1l-.06-.059v-.358l.06-.06h3.409l.06.06v.358l-.06.06h-1.464V37.1l-.06.06h-.366zm-4.28.094c-.35 0-.647-.04-.893-.125a1.41 1.41 0 0 1-.605-.39 1.627 1.627 0 0 1-.342-.679 3.91 3.91 0 0 1-.109-.99v-.37c0-.384.036-.715.109-.993.072-.277.186-.505.342-.682.157-.178.359-.31.605-.395.246-.085.543-.128.894-.128.35 0 .648.043.896.128.247.085.448.217.602.395.156.177.27.405.34.682.071.278.107.609.107.993v.37c0 .384-.036.715-.108.99a1.58 1.58 0 0 1-.339.678 1.373 1.373 0 0 1-.602.391 2.796 2.796 0 0 1-.896.125m0-4.317c-.286 0-.521.034-.711.102a.974.974 0 0 0-.454.323 1.356 1.356 0 0 0-.243.56 3.957 3.957 0 0 0-.073.811v.295c0 .315.023.586.07.812.048.226.127.412.242.557.113.145.265.252.454.323.19.07.426.105.715.105.284 0 .52-.035.71-.104a.975.975 0 0 0 .454-.322c.114-.147.194-.333.242-.561.05-.229.073-.5.073-.82v-.285c0-.313-.023-.582-.07-.808a1.364 1.364 0 0 0-.238-.56.977.977 0 0 0-.454-.324 2.1 2.1 0 0 0-.717-.104m-4.946.02c-.274 0-.5.036-.682.106a.962.962 0 0 0-.438.326 1.442 1.442 0 0 0-.234.568c-.048.23-.071.504-.071.823V35c0 .32.023.598.068.828.045.23.122.42.23.565.11.147.255.254.438.325.184.07.413.105.689.105.27 0 .496-.035.68-.105a.965.965 0 0 0 .436-.326c.11-.15.188-.339.234-.57.047-.233.07-.51.07-.83v-.214c0-.32-.021-.593-.066-.821a1.414 1.414 0 0 0-.233-.565.946.946 0 0 0-.433-.33 1.927 1.927 0 0 0-.688-.106m0 4.296c-.34 0-.632-.042-.872-.127a1.355 1.355 0 0 1-.589-.397 1.65 1.65 0 0 1-.332-.688 4.12 4.12 0 0 1-.106-.997v-.283c0-.425.007-.803.02-1.127.013-.326.042-.612.087-.856a2.38 2.38 0 0 1 .2-.625c.085-.171.202-.319.35-.441a1.92 1.92 0 0 1 .546-.306c.217-.08.478-.153.785-.215.248-.052.46-.102.638-.157.178-.052.326-.11.444-.174a.797.797 0 0 0 .265-.212.497.497 0 0 0 .1-.267l.068-.06h.3l.06.06a1.02 1.02 0 0 1-.105.399.953.953 0 0 1-.284.319c-.128.096-.293.18-.496.256a5.027 5.027 0 0 1-.729.202c-.293.06-.542.123-.748.188a1.6 1.6 0 0 0-.52.266c-.139.11-.249.255-.33.434-.082.18-.14.413-.177.7.163-.197.363-.348.605-.456.242-.11.523-.163.842-.163.332 0 .616.042.851.126.234.084.426.216.574.395.148.18.255.408.325.687.067.279.1.612.1 1.003v.307c0 .385-.033.719-.1.997a1.66 1.66 0 0 1-.33.688c-.15.179-.345.311-.582.397a2.586 2.586 0 0 1-.86.127m-4.94-4.317a7.725 7.725 0 0 0-1.348.116l-.06-.051v-.305l.06-.07a8.298 8.298 0 0 1 .723-.095 6.353 6.353 0 0 1 .655-.034c.372 0 .669.03.887.092.22.06.387.16.502.295.115.138.187.315.221.535.032.218.05.486.05.8v2.839l-.06.068a12.293 12.293 0 0 1-1.18.12c-.12.004-.227.007-.318.007-.339 0-.63-.02-.878-.061a1.637 1.637 0 0 1-.62-.221.976.976 0 0 1-.367-.436c-.08-.184-.119-.417-.119-.698 0-.179.014-.34.042-.477a.882.882 0 0 1 .431-.628c.12-.07.27-.128.45-.17.178-.042.39-.073.637-.092.246-.019.533-.027.86-.027h.656v-.364c0-.23-.015-.418-.047-.567a.655.655 0 0 0-.18-.35.739.739 0 0 0-.374-.177 3.2 3.2 0 0 0-.623-.049m.132 3.903a7.902 7.902 0 0 0 1.092-.075V34.86h-.704c-.406 0-.737.013-.987.037-.252.026-.447.074-.586.146a.565.565 0 0 0-.279.295 1.423 1.423 0 0 0-.071.494c0 .221.035.4.108.533a.723.723 0 0 0 .31.306c.134.068.294.115.483.136.19.021.4.031.634.031m-6.532 2.244l-.06-.06v-6.33l.06-.068c.268-.048.523-.081.768-.1.244-.015.478-.024.7-.024.395 0 .726.033.992.102.267.068.48.185.643.348.16.163.276.382.344.655.069.273.102.614.102 1.024v.482c0 .398-.032.732-.097 1.005a1.44 1.44 0 0 1-.337.662 1.36 1.36 0 0 1-.637.363c-.267.075-.602.11-1.006.11-.176 0-.36-.008-.549-.028a4.756 4.756 0 0 1-.505-.077v1.876l-.06.06h-.358zm1.469-6.142a8.7 8.7 0 0 0-.541.016c-.18.011-.35.029-.51.051v3.712c.074.017.156.032.244.044l.27.029c.093.009.185.015.275.018.092.005.178.008.262.008.331 0 .604-.03.813-.086a.963.963 0 0 0 .495-.29c.12-.137.201-.318.247-.549a4.72 4.72 0 0 0 .065-.854v-.32c0-.345-.023-.631-.069-.86a1.155 1.155 0 0 0-.247-.549.96.96 0 0 0-.495-.287 3.22 3.22 0 0 0-.81-.083m-3.754 1.834c.182.026.332.074.451.142.12.07.216.152.287.246a.83.83 0 0 1 .148.303c.026.108.04.21.04.307v.12c0 .278-.04.507-.118.683a.92.92 0 0 1-.352.413c-.156.1-.352.168-.586.205a5.376 5.376 0 0 1-.817.056 10.412 10.412 0 0 1-.673-.026 6.648 6.648 0 0 1-.295-.03 2.147 2.147 0 0 1-.236-.039l-.047-.068.051-.323.023-.044.05-.004c.071.014.153.027.246.04a8.2 8.2 0 0 0 .863.055c.249 0 .46-.014.636-.04a1.12 1.12 0 0 0 .433-.14.628.628 0 0 0 .249-.282 1.15 1.15 0 0 0 .078-.456v-.102c0-.089-.012-.179-.035-.273a.515.515 0 0 0-.156-.257.919.919 0 0 0-.358-.19 2.195 2.195 0 0 0-.638-.073h-1.185l-.06-.06v-.308l.06-.06h1.203c.187 0 .348-.013.48-.035.133-.026.241-.06.328-.102a.647.647 0 0 0 .202-.145l.108-.167.042-.178.01-.166v-.064a.826.826 0 0 0-.084-.4.56.56 0 0 0-.257-.233 1.312 1.312 0 0 0-.436-.112 6.072 6.072 0 0 0-.628-.027 6.353 6.353 0 0 0-1.096.094l-.073-.052-.056-.325.047-.067a7.826 7.826 0 0 1 1.211-.09c.314 0 .587.017.82.048.234.034.428.093.583.181a.833.833 0 0 1 .348.355c.076.152.115.342.115.576v.076a1.6 1.6 0 0 1-.04.347.848.848 0 0 1-.425.57c-.12.067-.273.107-.46.12m-5.12-1.838a7.725 7.725 0 0 0-1.348.116L55.24 33v-.305l.06-.07a8.256 8.256 0 0 1 .722-.095 6.426 6.426 0 0 1 .655-.034c.373 0 .668.03.887.092.22.06.387.16.503.295.115.138.187.315.22.535.033.218.05.486.05.8v2.839l-.06.068a11.88 11.88 0 0 1-1.18.12c-.12.004-.226.007-.318.007-.338 0-.63-.02-.878-.061a1.637 1.637 0 0 1-.619-.221.976.976 0 0 1-.367-.436 1.76 1.76 0 0 1-.12-.698c0-.179.015-.34.043-.477a.882.882 0 0 1 .431-.628c.119-.07.27-.128.449-.17a4.21 4.21 0 0 1 .637-.092c.246-.019.534-.027.86-.027h.657v-.364c0-.23-.015-.418-.047-.567a.655.655 0 0 0-.181-.35.739.739 0 0 0-.374-.177 3.2 3.2 0 0 0-.622-.049m.131 3.903a7.922 7.922 0 0 0 1.093-.075V34.86h-.704c-.407 0-.737.013-.987.037-.252.026-.447.074-.586.146a.565.565 0 0 0-.28.295 1.421 1.421 0 0 0-.071.494c0 .221.035.4.107.533a.73.73 0 0 0 .311.306c.134.068.295.115.484.136.19.021.4.031.633.031m-6.877.32l-.059-.059v-6.19l.06-.065.332-.017.365-.015.344-.01c.108-.003.198-.004.272-.004.486 0 .902.022 1.245.068.346.046.628.136.848.271.22.135.381.325.484.57.102.245.154.566.154.963v.317c0 .397-.052.718-.154.965a1.177 1.177 0 0 1-.484.57c-.22.133-.502.223-.848.27a9.764 9.764 0 0 1-1.245.068l-.23-.003a25.749 25.749 0 0 1-.523-.015l-.138-.01V37.1l-.06.06h-.363zm1.319-5.91l-.201.006-.254.008a6.85 6.85 0 0 0-.252.013l-.19.013v3.09l.19.012.252.008.254.007.2.001c.421 0 .775-.018 1.06-.056.286-.04.516-.11.693-.22a.882.882 0 0 0 .372-.444c.074-.191.111-.439.111-.743v-.226c0-.304-.037-.552-.11-.744a.89.89 0 0 0-.373-.449 1.795 1.795 0 0 0-.693-.216 8.114 8.114 0 0 0-1.06-.06m107.669 6.005c-.351 0-.648-.04-.895-.125a1.413 1.413 0 0 1-.604-.39 1.616 1.616 0 0 1-.342-.679 3.91 3.91 0 0 1-.109-.99v-.37c0-.385.036-.715.109-.993.071-.278.186-.505.342-.683.157-.177.359-.31.604-.394.247-.085.544-.128.895-.128.35 0 .647.043.896.128.247.084.447.217.602.394.157.178.27.405.34.683.071.278.107.608.107.993v.37c0 .384-.036.715-.108.99a1.58 1.58 0 0 1-.339.678 1.379 1.379 0 0 1-.602.391 2.8 2.8 0 0 1-.896.125m0-4.317a2.12 2.12 0 0 0-.711.102.972.972 0 0 0-.454.322 1.356 1.356 0 0 0-.243.56 3.974 3.974 0 0 0-.073.812v.295c0 .315.023.586.07.812.048.226.127.412.242.557.113.145.265.252.454.323.19.069.426.105.715.105a2.1 2.1 0 0 0 .71-.104.975.975 0 0 0 .454-.322 1.34 1.34 0 0 0 .242-.561c.05-.229.073-.5.073-.82v-.285c0-.313-.023-.582-.069-.808a1.377 1.377 0 0 0-.239-.56.977.977 0 0 0-.454-.324 2.1 2.1 0 0 0-.717-.104m-6.047 1.544h1.639c.137-.033.246-.078.329-.133l.194-.179.092-.2.024-.191v-.086a.713.713 0 0 0-.087-.376.565.565 0 0 0-.267-.216 1.476 1.476 0 0 0-.451-.095 9.116 9.116 0 0 0-.646-.02c-.138 0-.284 0-.438.003a4.012 4.012 0 0 0-.389.025v1.468zm2.548 1.216c0-.17-.026-.309-.074-.416a.615.615 0 0 0-.212-.25.83.83 0 0 0-.325-.119 2.515 2.515 0 0 0-.409-.03h-1.528v1.856c.15.012.3.02.456.022.158.003.316.005.477.005.283 0 .525-.009.73-.027.202-.017.368-.057.5-.118.13-.06.229-.15.29-.27.063-.12.095-.282.095-.487v-.166zm-1.686 1.52c-.09 0-.19 0-.297-.003a10.023 10.023 0 0 1-.667-.026 14.197 14.197 0 0 1-.329-.023l-.06-.064v-4.45l.014-.047.046-.022c.086-.007.18-.015.281-.02.104-.006.207-.012.315-.014a17.738 17.738 0 0 1 .625-.016 7.5 7.5 0 0 1 .904.047c.25.031.455.088.615.168a.786.786 0 0 1 .35.335c.073.142.11.323.11.541v.082c0 .19-.042.36-.13.506a.873.873 0 0 1-.412.343c.11.03.216.074.311.13a.875.875 0 0 1 .257.223c.074.092.132.203.174.334.043.13.065.287.065.47v.182c0 .29-.045.523-.134.698a.904.904 0 0 1-.407.4c-.18.094-.405.154-.678.183-.27.027-.588.042-.953.042m-4.225-.055l-.06-.06v-4.033h-1.458l-.06-.06v-.357l.06-.06h3.41l.058.06v.358l-.059.06h-1.463V37.1l-.06.06h-.368zm-3.203.093a4.23 4.23 0 0 1-.992-.098 1.352 1.352 0 0 1-.653-.347 1.431 1.431 0 0 1-.359-.67 4.442 4.442 0 0 1-.108-1.07v-.39c0-.397.034-.733.1-1.007.066-.277.181-.501.343-.675.164-.175.38-.3.65-.378a3.77 3.77 0 0 1 1.02-.117c.184 0 .36.009.53.025.17.018.324.037.462.06l.048.072-.055.294-.072.052a4.086 4.086 0 0 0-.445-.047 8.705 8.705 0 0 0-.46-.013c-.331 0-.602.029-.813.089a.992.992 0 0 0-.502.295 1.19 1.19 0 0 0-.255.556 4.24 4.24 0 0 0-.073.865v.26c0 .354.024.644.073.877.048.232.132.418.255.554.122.138.29.235.502.292.211.055.482.082.813.082.162 0 .32-.005.477-.016.156-.008.303-.026.44-.048l.067.047.053.303-.053.073a6.3 6.3 0 0 1-.478.056 5.884 5.884 0 0 1-.515.024m-5.708-4.197c0 .258-.003.516-.008.776-.004.26-.013.508-.028.75a12.79 12.79 0 0 1-.06.695c-.028.22-.065.42-.11.603a2.466 2.466 0 0 1-.17.48.933.933 0 0 1-.239.322h2.324v-3.626h-1.71zm-1.57 5.282l-.062-.06v-1.536l.061-.06h.14a.597.597 0 0 0 .442-.186c.12-.124.218-.326.292-.61.074-.283.129-.654.163-1.113.034-.46.051-1.025.051-1.697v-.426l.06-.06h2.559l.06.06v4.032h.286l.06.06v1.536l-.06.06h-.367l-.059-.06V37.16h-3.2v1.118l-.061.06h-.366zm-2.722-1.085c-.35 0-.648-.04-.894-.125a1.407 1.407 0 0 1-.605-.39 1.616 1.616 0 0 1-.342-.679 3.906 3.906 0 0 1-.11-.99v-.37c0-.385.037-.715.11-.993.072-.278.187-.505.342-.683.158-.177.358-.31.605-.394.246-.085.543-.128.894-.128.349 0 .648.043.895.128.248.084.449.217.604.394.155.178.269.405.339.683.071.278.108.608.108.993v.37a4 4 0 0 1-.108.99c-.07.276-.184.502-.34.678a1.382 1.382 0 0 1-.603.391 2.796 2.796 0 0 1-.895.125m0-4.317c-.286 0-.521.034-.71.102a.975.975 0 0 0-.455.322 1.38 1.38 0 0 0-.244.56 3.98 3.98 0 0 0-.072.812v.295c0 .315.023.586.07.812.047.226.128.412.241.557.114.145.265.252.455.323a2.1 2.1 0 0 0 .715.105c.283 0 .521-.036.709-.104a.975.975 0 0 0 .454-.322c.115-.147.195-.333.244-.561.05-.229.072-.5.072-.82v-.285c0-.313-.023-.582-.07-.808a1.364 1.364 0 0 0-.238-.56.973.973 0 0 0-.455-.324 2.1 2.1 0 0 0-.716-.104m-6.046 1.544h1.637a1.04 1.04 0 0 0 .33-.133l.193-.179.094-.2.023-.191v-.086a.704.704 0 0 0-.088-.376.567.567 0 0 0-.266-.216 1.48 1.48 0 0 0-.451-.095 9.068 9.068 0 0 0-.645-.02c-.139 0-.286 0-.439.003a3.992 3.992 0 0 0-.388.025v1.468zm2.546 1.216a.99.99 0 0 0-.074-.416.613.613 0 0 0-.21-.25.83.83 0 0 0-.326-.119 2.535 2.535 0 0 0-.41-.03h-1.526v1.856c.148.012.3.02.455.022.157.003.316.005.478.005.283 0 .524-.009.728-.027.204-.017.37-.057.501-.118a.592.592 0 0 0 .29-.27c.062-.12.094-.282.094-.487v-.166zm-1.684 1.52c-.092 0-.192 0-.297-.003a9.957 9.957 0 0 1-.667-.026 13.552 13.552 0 0 1-.33-.023l-.06-.064v-4.45l.014-.047.047-.022c.085-.007.179-.015.28-.02.104-.006.207-.012.315-.014a18.175 18.175 0 0 1 .625-.016 7.5 7.5 0 0 1 .904.047c.25.031.456.088.614.168a.78.78 0 0 1 .35.335c.074.142.11.323.11.541v.082c0 .19-.042.36-.129.506a.864.864 0 0 1-.412.343c.11.03.215.074.312.13a.884.884 0 0 1 .256.223c.074.092.133.203.175.334.042.13.063.287.063.47v.182c0 .29-.045.523-.134.698a.906.906 0 0 1-.405.4 1.912 1.912 0 0 1-.68.183 9.64 9.64 0 0 1-.951.042m-8.854 8.098l-.06-.06v-.857l.06-.073.391-.076.06.047v.959l-.06.06h-.391zm-5.034 0l-.06-.06v-4.45l.06-.06h.354l.059.06v1.881h2.713v-1.881l.06-.06h.35l.06.06v4.45l-.06.06h-.35l-.06-.06V43.18h-2.713v2.073l-.06.06h-.353zm-3.306.093c-.351 0-.648-.04-.894-.125a1.399 1.399 0 0 1-.605-.39 1.616 1.616 0 0 1-.342-.679 3.906 3.906 0 0 1-.11-.99v-.37c0-.384.037-.715.11-.993.071-.277.187-.505.342-.682.158-.178.358-.31.605-.394a2.72 2.72 0 0 1 .894-.128c.349 0 .648.042.895.128.248.084.449.216.603.394.156.177.27.405.34.682a4.1 4.1 0 0 1 .107.993v.37a4 4 0 0 1-.107.99c-.07.276-.184.502-.34.678a1.368 1.368 0 0 1-.603.391 2.794 2.794 0 0 1-.895.125m0-4.317c-.285 0-.522.034-.71.102a.977.977 0 0 0-.455.323 1.38 1.38 0 0 0-.244.56 3.976 3.976 0 0 0-.072.811v.295c0 .315.023.586.07.812.048.226.128.412.241.558.114.145.265.252.454.322.19.07.428.105.716.105.283 0 .521-.035.709-.103a.983.983 0 0 0 .454-.323c.115-.147.196-.333.244-.56.05-.229.073-.501.073-.82v-.286c0-.313-.024-.582-.07-.808a1.364 1.364 0 0 0-.24-.56.973.973 0 0 0-.454-.324 2.1 2.1 0 0 0-.716-.104m-5.87 4.224l-.06-.06v-4.45l.06-.06h.354l.059.06v1.844l2.065-1.864.102-.04h.53l.032.012-.016.028-2.36 2.107 2.415 2.38-.016.043h-.541l-.104-.042-2.107-2.112v2.094l-.06.06h-.353zm-3.306.093c-.351 0-.648-.04-.895-.125a1.399 1.399 0 0 1-.604-.39 1.616 1.616 0 0 1-.342-.679 3.906 3.906 0 0 1-.11-.99v-.37c0-.384.037-.715.11-.993.071-.277.187-.505.342-.682.157-.178.358-.31.604-.394a2.72 2.72 0 0 1 .895-.128c.349 0 .648.042.895.128.248.084.449.216.603.394.156.177.27.405.34.682a4.1 4.1 0 0 1 .107.993v.37a4 4 0 0 1-.108.99c-.07.276-.183.502-.339.678a1.368 1.368 0 0 1-.603.391 2.794 2.794 0 0 1-.895.125m0-4.317a2.12 2.12 0 0 0-.711.102.977.977 0 0 0-.454.323 1.38 1.38 0 0 0-.244.56 3.976 3.976 0 0 0-.072.811v.295c0 .315.022.586.07.812.048.226.128.412.24.558.114.145.266.252.455.322.19.07.428.105.716.105.283 0 .521-.035.71-.103a.986.986 0 0 0 .453-.323c.115-.147.196-.333.243-.56.05-.229.074-.501.074-.82v-.286c0-.313-.024-.582-.07-.808a1.364 1.364 0 0 0-.24-.56.973.973 0 0 0-.454-.324 2.09 2.09 0 0 0-.716-.104m-5.427 4.224l-.094-.047-1.373-1.928-1.379 1.928-.093.047h-.44l-.026-.047 1.635-2.235-1.635-2.24.026-.047h.44l.093.047 1.38 1.937 1.372-1.937.094-.047h.448l.026.047-1.638 2.24 1.638 2.235-.026.047h-.448zm-8.128.093a11.8 11.8 0 0 1-1.4-.085l-.059-.068v-4.45l.06-.06h.353l.06.06v1.629a10.456 10.456 0 0 1 1.028-.06c.376 0 .688.025.937.072.248.047.448.124.6.23.15.106.257.248.32.425.063.176.093.393.093.648v.286c0 .265-.032.485-.098.66a.874.874 0 0 1-.33.421c-.156.107-.36.183-.614.227a5.846 5.846 0 0 1-.95.065m0-2.602c-.074 0-.155 0-.239.005a11.843 11.843 0 0 0-.514.027c-.085.007-.162.016-.233.023v2.105l.486.024c.165.01.334.014.505.014.31 0 .563-.017.761-.05a1.15 1.15 0 0 0 .467-.167.598.598 0 0 0 .232-.323c.042-.135.062-.304.062-.507v-.13c0-.197-.02-.362-.062-.49a.59.59 0 0 0-.23-.316 1.165 1.165 0 0 0-.465-.165 4.985 4.985 0 0 0-.77-.05m3.299 2.509l-.062-.06v-4.45l.062-.06h.35l.058.06v4.45l-.059.06h-.35zm-9.83 0l-.06-.06v-4.45l.06-.06h.354l.059.06v1.881h2.713v-1.881l.06-.06h.35l.06.06v4.45l-.06.06h-.35l-.06-.06V43.18H85.05v2.073l-.06.06h-.353zm-5.137 0l-.06-.06v-4.45l.06-.06h.355l.06.06v1.881h2.712v-1.881l.06-.06h.35l.06.06v4.45l-.06.06h-.35l-.06-.06V43.18h-2.712v2.073l-.06.06h-.355zm-2.876-4.177c-.28 0-.52.008-.72.02-.2.016-.363.053-.488.114a.57.57 0 0 0-.279.28c-.058.125-.087.297-.087.517v.127c0 .22.024.392.074.518.05.127.136.223.255.287.12.063.28.105.483.123.205.018.46.029.767.029h.173l.221-.005.234-.009.22-.013v-1.963a5.596 5.596 0 0 0-.4-.02 24.715 24.715 0 0 0-.453-.005m-2.282 4.177l-.03-.05 1.118-1.768a1.46 1.46 0 0 1-.409-.15.828.828 0 0 1-.27-.244.948.948 0 0 1-.147-.354c-.03-.138-.045-.3-.045-.485v-.243c0-.29.038-.521.114-.694a.82.82 0 0 1 .36-.4 1.69 1.69 0 0 1 .642-.183c.263-.031.582-.045.958-.045a17.605 17.605 0 0 1 1.271.042l.06.064v4.45l-.06.06h-.366l-.06-.06v-1.685a8.514 8.514 0 0 1-.444.02l-.405.001a8.59 8.59 0 0 1-.725-.025l-1.033 1.698-.09.051h-.44zm-3.921-2.68h1.638a1.05 1.05 0 0 0 .328-.132l.194-.18.094-.2.023-.191v-.085a.701.701 0 0 0-.088-.376.557.557 0 0 0-.266-.216c-.12-.05-.27-.081-.451-.096a9.068 9.068 0 0 0-.645-.02c-.139 0-.286.001-.438.004a3.747 3.747 0 0 0-.39.024v1.468zm2.546 1.217a.992.992 0 0 0-.074-.417.613.613 0 0 0-.21-.25.846.846 0 0 0-.326-.119 2.535 2.535 0 0 0-.409-.03H70.42v1.856c.148.013.3.02.455.023.158.003.316.004.478.004.283 0 .524-.009.728-.027a1.46 1.46 0 0 0 .501-.118.592.592 0 0 0 .29-.27c.063-.12.094-.281.094-.487v-.165zm-1.684 1.518c-.092 0-.191 0-.297-.002-.107 0-.216-.003-.328-.008a22.788 22.788 0 0 1-.669-.04l-.06-.065v-4.45l.014-.046.046-.023c.086-.007.18-.014.281-.02.104-.006.207-.012.315-.014l.322-.013.303-.003c.352 0 .654.016.904.047s.456.088.614.168c.16.082.276.194.35.335.074.143.11.324.11.542v.08c0 .192-.042.36-.129.507a.864.864 0 0 1-.412.343c.11.03.215.074.312.13a.9.9 0 0 1 .256.223c.075.092.133.203.175.334.042.13.064.288.064.47v.183c0 .29-.045.523-.134.697a.908.908 0 0 1-.406.401c-.18.093-.407.153-.68.182a9.36 9.36 0 0 1-.951.042M68.3 42.775a3.716 3.716 0 0 0-.084-.753 1.252 1.252 0 0 0-.247-.526 1.029 1.029 0 0 0-.46-.307 2.214 2.214 0 0 0-.711-.1c-.28 0-.512.034-.697.1a1.02 1.02 0 0 0-.454.31c-.115.14-.197.316-.249.532-.05.214-.078.47-.082.768l2.984-.024zm-1.442 2.63c-.362 0-.67-.037-.925-.115a1.364 1.364 0 0 1-.622-.385 1.624 1.624 0 0 1-.352-.693 4.23 4.23 0 0 1-.111-1.05v-.332c0-.367.035-.688.105-.96.068-.274.182-.5.336-.679.155-.178.357-.312.605-.402.247-.09.549-.134.904-.134.35 0 .646.042.89.128.245.084.447.212.602.381.156.169.271.38.341.63a3.236 3.236 0 0 1 .092 1.168l-.023.184-.073.06-3.31.005c.003.326.03.602.081.826.052.225.137.407.257.546.119.14.276.24.474.302.198.06.445.092.74.092.123 0 .242-.002.357-.003a7.065 7.065 0 0 0 .698-.045c.119-.013.243-.033.376-.055l.067.05.052.292-.052.07a5.987 5.987 0 0 1-.714.095 11.876 11.876 0 0 1-.795.024m-6.69 1.831l-.06-.059v-6.33l.06-.069c.267-.048.522-.081.767-.099.245-.016.477-.024.7-.024.395 0 .725.032.992.102.267.067.48.184.642.347.161.163.277.382.345.656.068.272.102.613.102 1.023v.483c0 .397-.032.732-.097 1.004a1.45 1.45 0 0 1-.337.662c-.16.168-.372.29-.638.363-.266.075-.601.11-1.004.11-.176 0-.36-.008-.549-.028a4.814 4.814 0 0 1-.506-.077v1.877l-.06.06h-.358zm1.467-6.142a7.093 7.093 0 0 0-1.05.067v3.713c.075.016.157.031.244.043l.27.029a5.6 5.6 0 0 0 .536.026c.332 0 .605-.03.815-.086a.964.964 0 0 0 .494-.29c.12-.137.202-.318.247-.549a4.63 4.63 0 0 0 .065-.854v-.32a4.56 4.56 0 0 0-.068-.86 1.164 1.164 0 0 0-.248-.549.968.968 0 0 0-.495-.287 3.258 3.258 0 0 0-.81-.083m-3.157 1.68a3.721 3.721 0 0 0-.083-.752 1.253 1.253 0 0 0-.248-.526 1.026 1.026 0 0 0-.458-.307 2.214 2.214 0 0 0-.712-.1c-.28 0-.512.034-.698.1-.186.066-.337.17-.453.31-.115.14-.197.316-.249.532a3.46 3.46 0 0 0-.081.768l2.982-.024zm-1.442 2.632c-.36 0-.67-.038-.925-.116a1.366 1.366 0 0 1-.62-.385 1.613 1.613 0 0 1-.353-.693 4.186 4.186 0 0 1-.11-1.05v-.332c0-.367.034-.688.103-.96.069-.274.183-.5.337-.679a1.42 1.42 0 0 1 .605-.402c.247-.09.548-.134.904-.134.35 0 .646.042.891.128.245.084.446.212.601.381.156.169.271.38.342.63a3.236 3.236 0 0 1 .091 1.168l-.023.184-.073.06-3.31.005c.003.326.03.602.081.826.052.225.137.407.256.546a1 1 0 0 0 .475.302c.199.06.445.092.74.092.123 0 .242-.002.357-.003a7.11 7.11 0 0 0 .697-.045 6.58 6.58 0 0 0 .376-.055l.068.05.052.292-.052.07a6.114 6.114 0 0 1-1.092.114c-.13.005-.27.006-.418.006m-5.597-4.197c0 .258-.003.517-.008.776-.004.26-.013.509-.028.75-.014.242-.034.474-.06.695a5.14 5.14 0 0 1-.11.603 2.499 2.499 0 0 1-.169.48.95.95 0 0 1-.24.322h2.325V41.21h-1.71zm-1.57 5.282l-.061-.06v-1.536l.06-.06h.14c.174 0 .32-.063.441-.186.121-.124.219-.326.294-.61.074-.283.127-.654.16-1.113.037-.46.053-1.025.053-1.696v-.427l.06-.06h2.559l.06.06v4.032h.287l.06.06v1.537l-.06.059h-.368l-.06-.06v-1.118h-3.2v1.119l-.06.059h-.365zm109.989-29.024a29.51 29.51 0 0 0-2.904.152c-.113.005-.168-.043-.168-.143v-1.518l.032-.133.135-.054a26.29 26.29 0 0 1 1.649-.172c.281-.022.553-.037.814-.05.263-.011.496-.018.704-.018.643 0 1.196.034 1.662.095.463.063.856.157 1.172.284.32.127.575.291.771.49.191.204.341.44.447.716.106.275.176.59.211.945.036.354.052.753.052 1.2v5.83l-.032.133-.138.042a30.14 30.14 0 0 1-1.02.115c-.355.037-.706.067-1.052.09-.347.021-.673.04-.983.052-.31.013-.576.018-.802.018a13.09 13.09 0 0 1-2.055-.142c-.575-.094-1.052-.254-1.426-.478a2.064 2.064 0 0 1-.834-.909c-.182-.381-.272-.864-.272-1.442 0-.403.03-.757.09-1.063.058-.303.163-.569.316-.794a1.94 1.94 0 0 1 .62-.566c.259-.154.585-.278.981-.37a9.21 9.21 0 0 1 1.416-.193 27.28 27.28 0 0 1 1.914-.058h.966v-.463c0-.3-.033-.554-.09-.758a.923.923 0 0 0-.338-.492c-.163-.125-.394-.213-.688-.267a6.89 6.89 0 0 0-1.15-.08m.505 6.283c.307 0 .616-.007.93-.022.316-.015.591-.039.831-.076V21.23h-1.032c-.65 0-1.173.017-1.576.048-.403.033-.719.097-.952.19-.23.098-.387.225-.467.388-.083.16-.122.373-.122.634 0 .285.061.508.182.675.122.167.288.294.502.382.211.088.464.145.752.166.29.025.607.037.952.037m-12.738 1.544c-.112 0-.17-.054-.17-.16V15.95c0-.107.058-.161.17-.161h2.033c.111 0 .165.054.165.161v3.674l3.309-3.71.121-.098.16-.027h2.665c.109 0 .128.04.057.115l-4.192 4.501 4.183 4.764c.077.082.057.124-.054.124h-2.793l-.157-.027-.112-.097-3.187-3.835v3.799c0 .106-.054.16-.165.16h-2.033zm-10.012 4.02c-.111 0-.17-.052-.17-.16v-13.16c0-.112.059-.172.17-.179a40.652 40.652 0 0 1 2.055-.19 29.384 29.384 0 0 1 1.991-.068c.917 0 1.68.073 2.292.219.613.145 1.105.385 1.476.724.37.336.637.781.79 1.335.156.552.236 1.236.236 2.054v1.214c0 .824-.077 1.518-.23 2.08-.154.568-.412 1.025-.777 1.373-.367.348-.85.6-1.457.755-.604.153-1.358.23-2.256.23-.335 0-.672-.019-1.007-.055a8.734 8.734 0 0 1-.92-.14v3.805c0 .109-.058.16-.17.16h-2.023zm4.027-11.81c-.137 0-.291 0-.454.003a12.723 12.723 0 0 0-.981.055c-.153.015-.288.03-.4.048v5.873c.257.036.544.064.867.085.32.02.658.03 1.013.03.515 0 .93-.046 1.256-.136.326-.092.579-.245.758-.458.181-.212.303-.494.37-.848.064-.351.1-.79.1-1.317v-.64c0-.52-.036-.953-.1-1.299-.067-.344-.191-.62-.374-.83-.186-.205-.441-.351-.774-.438-.329-.085-.757-.128-1.28-.128m-9.792 8.038c-.821 0-1.528-.087-2.11-.26-.584-.175-1.057-.448-1.422-.817-.367-.37-.633-.843-.802-1.415-.17-.575-.253-1.26-.253-2.06v-.869c0-.799.084-1.484.253-2.06.17-.573.435-1.045.802-1.414.365-.37.838-.642 1.423-.82.581-.18 1.288-.268 2.109-.268.83 0 1.54.088 2.125.267.588.18 1.065.451 1.428.821.368.37.634.841.802 1.415.17.575.253 1.26.253 2.06v.869c0 .799-.083 1.484-.253 2.059-.168.572-.434 1.045-.802 1.415-.363.369-.84.642-1.428.817-.585.173-1.294.26-2.125.26m0-8.056c-.454 0-.828.046-1.122.142a1.407 1.407 0 0 0-.693.461c-.17.212-.285.49-.352.833a7.054 7.054 0 0 0-.099 1.269v.712c0 .496.035.917.105 1.263.068.344.186.626.355.838.17.213.4.366.694.461.294.097.665.142 1.112.142.45 0 .824-.045 1.121-.142.294-.095.531-.248.707-.464.172-.218.297-.496.364-.845.067-.345.103-.769.103-1.272v-.693a6.81 6.81 0 0 0-.1-1.263c-.063-.345-.182-.627-.354-.839a1.439 1.439 0 0 0-.703-.46c-.294-.097-.675-.143-1.138-.143m-10.62 7.808c-.11 0-.168-.054-.168-.16V15.95c0-.107.057-.161.169-.161h5.804c.114 0 .168.054.168.161v1.908c0 .105-.054.16-.168.16h-3.49v7.115c0 .106-.058.16-.17.16h-2.144zm-9.88-7.632c-.47 0-.85.015-1.137.045-.29.03-.518.085-.68.164a.624.624 0 0 0-.327.339 1.55 1.55 0 0 0-.086.572v.221c0 .243.028.436.08.585a.606.606 0 0 0 .32.342c.158.079.376.13.658.155.28.024.651.036 1.115.036.175 0 .374-.006.598-.012.226-.01.418-.022.581-.034v-2.377a18.785 18.785 0 0 0-1.122-.037m-5.065 7.633c-.115 0-.14-.049-.086-.142l1.94-3.399a2.43 2.43 0 0 1-.745-.381 1.728 1.728 0 0 1-.47-.55 2.39 2.39 0 0 1-.246-.732 5.21 5.21 0 0 1-.076-.935v-.57c0-.54.066-.993.201-1.365.134-.373.38-.673.735-.9.358-.23.844-.393 1.467-.494.62-.1 1.418-.151 2.39-.151.543 0 1.1.012 1.671.03.573.021 1.148.048 1.73.075.111.007.166.064.166.171v9.183c0 .106-.055.16-.166.16h-2.155c-.111 0-.169-.054-.169-.16v-3.077c-.242.02-.454.035-.633.038-.175.004-.354.004-.537.004h-.421c-.138 0-.268-.004-.394-.01l-1.508 3.063-.093.112-.15.03h-2.451zm-5.276-7.826a29.51 29.51 0 0 0-2.904.152c-.113.005-.167-.043-.167-.143v-1.518l.032-.133.135-.054a26.29 26.29 0 0 1 1.649-.172c.28-.022.553-.037.815-.05.261-.011.495-.018.703-.018.641 0 1.195.034 1.662.095.462.063.856.157 1.172.284.32.127.576.291.77.49.192.204.343.44.448.716.106.275.176.59.21.945.036.354.052.753.052 1.2v5.83l-.032.133-.138.042c-.322.042-.664.081-1.019.115-.355.037-.706.067-1.051.09-.349.021-.675.04-.985.052-.31.013-.575.018-.802.018-.792 0-1.476-.049-2.054-.142-.576-.094-1.053-.254-1.426-.478a2.064 2.064 0 0 1-.834-.909c-.183-.381-.272-.864-.272-1.442 0-.403.029-.757.089-1.063a2.09 2.09 0 0 1 .317-.794 1.94 1.94 0 0 1 .62-.566 3.45 3.45 0 0 1 .98-.37c.397-.09.87-.157 1.417-.193a27.3 27.3 0 0 1 1.914-.058h.966v-.463c0-.3-.032-.554-.09-.758a.923.923 0 0 0-.339-.492c-.163-.125-.393-.213-.687-.267a6.89 6.89 0 0 0-1.15-.08m.504 6.283c.308 0 .617-.007.93-.022.316-.015.592-.039.832-.076V21.23h-1.033c-.65 0-1.173.017-1.576.048-.403.033-.718.097-.952.19-.23.098-.387.225-.466.388-.084.16-.122.373-.122.634 0 .285.06.508.183.675.12.167.286.294.5.382.212.088.465.145.752.166.29.025.607.037.952.037m-14.217 1.544c-.112 0-.17-.054-.17-.16V15.95c0-.107.058-.161.17-.161h2.023c.112 0 .166.054.166.161v3.337h4.391V15.95c0-.107.058-.161.17-.161h2.023c.111 0 .168.054.168.161v9.183c0 .106-.057.16-.168.16h-2.024c-.111 0-.169-.054-.169-.16v-3.477h-4.39v3.477c0 .106-.055.16-.167.16h-2.023zm-3.447.248c-.924 0-1.697-.081-2.315-.245-.616-.16-1.114-.42-1.488-.778-.374-.36-.64-.824-.797-1.393-.156-.573-.233-1.267-.233-2.081v-1.002c0-.788.077-1.464.23-2.03.15-.563.416-1.03.787-1.393.37-.364.865-.63 1.483-.803.616-.172 1.396-.258 2.333-.258a13.326 13.326 0 0 1 2.348.204l.132.054.028.134-.14 1.562c-.007.1-.067.146-.18.142a12.62 12.62 0 0 0-1.028-.084 25.322 25.322 0 0 0-1.087-.024c-.536 0-.968.045-1.298.133-.325.09-.582.24-.766.448-.186.212-.308.488-.371.83-.061.342-.093.77-.093 1.278v.63c0 .514.032.945.093 1.287.063.342.185.618.367.824.179.209.435.355.767.44.33.087.765.13 1.3.13.388 0 .755-.013 1.106-.03.349-.022.69-.052 1.02-.086.112-.005.173.04.18.143l.13 1.56-.026.14-.134.056a10.455 10.455 0 0 1-1.116.148 15.134 15.134 0 0 1-1.232.064m-10.341-8.074a29.55 29.55 0 0 0-2.905.152c-.112.005-.166-.043-.166-.143v-1.518l.032-.133.134-.054a26.771 26.771 0 0 1 2.464-.221c.262-.012.495-.019.702-.019.643 0 1.196.034 1.662.095a4.99 4.99 0 0 1 1.173.284c.32.127.576.291.77.49.193.204.343.44.447.716.106.275.177.59.212.945.035.354.05.753.05 1.2v5.83l-.031.133-.138.042c-.322.042-.664.081-1.02.115a32.53 32.53 0 0 1-1.05.09c-.349.021-.675.04-.984.052-.31.013-.575.018-.803.018a13.01 13.01 0 0 1-2.055-.142c-.575-.094-1.05-.254-1.425-.478a2.06 2.06 0 0 1-.835-.909c-.181-.381-.27-.864-.27-1.442 0-.403.028-.757.089-1.063.057-.303.163-.569.316-.794a1.95 1.95 0 0 1 .62-.566c.26-.154.585-.278.98-.37.398-.09.87-.157 1.417-.193a27.28 27.28 0 0 1 1.914-.058h.965v-.463c0-.3-.031-.554-.089-.758a.924.924 0 0 0-.339-.492c-.163-.125-.393-.213-.687-.267a6.89 6.89 0 0 0-1.15-.08m.505 6.283c.306 0 .616-.007.93-.022a8 8 0 0 0 .83-.076V21.23h-1.032c-.648 0-1.173.017-1.575.048-.403.033-.72.097-.953.19-.23.098-.386.225-.466.388-.083.16-.121.373-.121.634 0 .285.06.508.181.675.122.167.288.294.503.382.21.088.462.145.75.166.291.025.607.037.953.037m-13.767 5.563c-.112 0-.17-.051-.17-.16V15.995c0-.112.058-.172.17-.179a40.652 40.652 0 0 1 2.055-.19 29.391 29.391 0 0 1 1.991-.068c.917 0 1.68.073 2.291.219.614.145 1.106.385 1.477.724.37.336.636.781.789 1.335.157.552.237 1.236.237 2.054v1.214c0 .824-.077 1.518-.23 2.08-.154.568-.413 1.025-.778 1.373-.367.348-.85.6-1.456.755-.605.153-1.359.23-2.257.23-.335 0-.671-.019-1.007-.055a8.734 8.734 0 0 1-.92-.14v3.805c0 .109-.058.16-.17.16h-2.022zm4.027-11.809c-.138 0-.292 0-.454.003a12.703 12.703 0 0 0-.982.055c-.152.015-.287.03-.399.048v5.873c.256.036.544.064.866.085.32.02.659.03 1.014.03.514 0 .93-.046 1.255-.136.326-.092.578-.245.758-.458.182-.212.304-.494.37-.848.065-.351.1-.79.1-1.317v-.64c0-.52-.035-.953-.1-1.299-.066-.344-.19-.62-.374-.83-.185-.205-.44-.351-.773-.438-.328-.085-.758-.128-1.281-.128m-14.247 7.79c-.111 0-.169-.054-.169-.16v-12.77c0-.105.058-.157.169-.157h2.154c.112 0 .17.052.17.157v5.14l4.531-5.173.122-.1.157-.024h2.745c.111 0 .131.04.054.124l-5.522 6.093 5.522 6.746c.07.082.048.124-.064.124h-2.848l-.159-.027-.112-.097-4.426-5.51v5.474c0 .106-.058.16-.17.16h-2.154z" fill="#4d4d4d" fill-rule="nonzero"/><path d="M2.182 25.047h13.67a2.14 2.14 0 0 0 2.135-2.135V2.196c0-1.174-.96-2.135-2.135-2.135H2.182A2.142 2.142 0 0 0 .047 2.196v20.716a2.14 2.14 0 0 0 2.135 2.135" fill="#384045"/><path d="M25.95 50.057l14.19-.02c1.721-.002 2.049-1.141.73-2.53L21.974 27.582c-1.317-1.39-3.803-2.524-5.523-2.522l-14.19.02c-1.72.002-2.049 1.141-.73 2.53l18.897 19.923c1.319 1.39 3.803 2.525 5.523 2.523" fill="#e51e31"/><path d="M26.079 0l14.19.02c1.72.002 2.048 1.146.73 2.541L22.102 22.567c-1.318 1.396-3.803 2.535-5.524 2.532l-14.19-.02c-1.72-.002-2.048-1.146-.73-2.54L20.556 2.532C21.874 1.137 24.359-.003 26.079 0" fill="#50b4c1"/></svg>