<svg id="Слой_146" data-name="Слой 146" xmlns="http://www.w3.org/2000/svg" width="18.594" height="22.25"><defs><style>.cls-1{fill:#3d4145;fill-rule:evenodd}</style></defs><path id="Слой_142" data-name="Слой 142" class="cls-1" d="M622.569 1466.12h6.075a.945.945 0 0 0 .949-.94v-9.21a.954.954 0 0 0-.949-.95h-6.075a.954.954 0 0 0-.948.95v9.21a.945.945 0 0 0 .948.94" transform="translate(-621.625 -1443.88)"/><path id="Слой_143" data-name="Слой 143" class="cls-1" d="M622.589 1455.01h6.075a.953.953 0 0 0 .948-.95v-9.21a.953.953 0 0 0-.948-.95h-6.075a.954.954 0 0 0-.949.95v9.21a.954.954 0 0 0 .949.95" transform="translate(-621.625 -1443.88)"/><path id="Слой_144" data-name="Слой 144" d="M633.151 1466.12l6.307-.01c.764 0 .91-.51.324-1.12l-8.4-8.86a3.917 3.917 0 0 0-2.454-1.12l-6.306.01c-.765 0-.911.51-.325 1.12l8.4 8.86a3.919 3.919 0 0 0 2.454 1.12" transform="translate(-621.625 -1443.88)" fill="#de0321" fill-rule="evenodd"/><path id="Слой_145" data-name="Слой 145" d="M633.209 1443.87l6.306.01c.764 0 .91.51.324 1.13l-8.4 8.89a3.93 3.93 0 0 1-2.454 1.13l-6.306-.01c-.764 0-.911-.51-.325-1.13l8.4-8.89a3.933 3.933 0 0 1 2.455-1.13" transform="translate(-621.625 -1443.88)" fill="#56b3c2" fill-rule="evenodd"/></svg>