<svg width="41" height="26" fill="none" xmlns="http://www.w3.org/2000/svg"><path d="M25.427 13c0 7.181-5.691 13-12.714 13C5.691 26 0 20.18 0 13S5.692 0 12.713 0c7.022 0 12.714 5.82 12.714 13z" fill="#E2574C"/><path d="M27.982 0c-2.851 0-5.476.971-7.598 2.592l.01.002c.418.412.878.702 1.233 1.176l-2.645.043c-.415.428-.793.893-1.149 1.377h4.665c.355.435.683.813.98 1.294h-6.49c-.238.419-.458.85-.65 1.296h7.88c.206.446.39.783.546 1.255h-8.893c-.141.449-.262.907-.353 1.375h9.619c.094.45.166.866.216 1.29H15.327a13.31 13.31 0 0 0-.064 1.3h10.162c0 .46-.031.887-.077 1.3H15.327c.043.44.107.874.19 1.3h9.605c-.1.421-.214.845-.358 1.284h-8.922c.135.445.299.877.478 1.298h7.898c-.22.473-.467.851-.74 1.295h-6.513c.257.455.54.889.848 1.305l4.685.071c-.4.49-.912.785-1.379 1.214.026.021-.746-.002-2.266-.027 2.312 2.44 5.544 3.96 9.129 3.96 7.023 0 12.717-5.82 12.717-13S35.007 0 27.982 0z" fill="#F4B459"/></svg>