<svg width="72" height="21" fill="none" xmlns="http://www.w3.org/2000/svg"><path fill-rule="evenodd" clip-rule="evenodd" d="M25.532 20.514L29.147.764h5.781l-3.617 19.75h-5.779zM52.28 1.25c-1.146-.4-2.94-.83-5.182-.83-5.713 0-9.737 2.68-9.771 6.518-.032 2.838 2.873 4.421 5.066 5.366 2.25.968 3.007 1.585 2.996 2.45-.014 1.324-1.797 1.928-3.46 1.928-2.313 0-3.542-.299-5.44-1.036l-.746-.314-.811 4.42c1.35.552 3.847 1.03 6.44 1.055 6.077 0 10.022-2.648 10.067-6.748.022-2.246-1.519-3.956-4.854-5.366-2.02-.913-3.258-1.523-3.245-2.448 0-.821 1.047-1.699 3.31-1.699a11.37 11.37 0 0 1 4.328.757l.518.228.783-4.28zM67.104.783h-4.467c-1.384 0-2.42.352-3.027 1.638l-8.587 18.1h6.072s.992-2.434 1.217-2.969c.663 0 6.56.009 7.404.009.173.69.703 2.96.703 2.96h5.365L67.104.782zm-7.128 12.73a4196.3 4196.3 0 0 0 2.303-5.521c-.035.052.475-1.144.766-1.885l.391 1.703 1.339 5.703h-4.8zM20.683.778l-5.66 13.468-.603-2.737c-1.054-3.155-4.337-6.573-8.007-8.284l5.175 17.272 6.117-.007L26.807.778h-6.124z" fill="#004F8B"/><path fill-rule="evenodd" clip-rule="evenodd" d="M9.772.767H.45l-.074.41C7.629 2.812 12.428 6.763 14.42 11.51l-2.027-9.075c-.35-1.25-1.365-1.624-2.62-1.667z" fill="#ED9F2D"/></svg>