<svg width="80" height="51" xmlns="http://www.w3.org/2000/svg"><title>Group 4</title><path d="M.015 25.266C-.479 12.256 10.918.233 23.942.078c6.638-.567 13.095 2.011 18.12 6.215-2.06 2.265-4.157 4.505-6.398 6.602-4.422-2.687-9.746-4.734-14.915-2.916-8.335 2.373-13.383 12.216-10.3 20.372 2.555 8.517 12.915 13.191 21.034 9.613 4.205-1.505 6.976-5.384 8.192-9.552-4.818-.097-9.637-.036-14.456-.17-.012-2.866-.025-5.722-.012-8.589 8.036-.012 16.083-.036 24.13.036.494 7.023-.543 14.54-5.108 20.179-6.253 8.047-17.806 10.409-27.203 7.252C7.05 45.843-.202 35.795.016 25.266zm64.983-10.843l7.167.001c.013 2.397.036 4.807.05 7.204 2.397.024 4.807.036 7.203.048v7.18l-7.204.036c-.025 2.41-.036 4.807-.049 7.216-2.396-.012-4.794 0-7.18 0-.024-2.41-.024-4.806-.048-7.204-2.396-.025-4.806-.037-7.204-.049v-7.18c2.398-.012 4.795-.024 7.204-.048.012-2.396.037-4.806.061-7.204z" fill="#DD4B39"/></svg>