<svg width="70" height="70" xmlns="http://www.w3.org/2000/svg"><title>Group 7</title><path d="M8.41 0c4.57.004 8.34 3.779 8.33 8.372-.012 4.809-4.003 8.434-8.387 8.33C3.907 16.791 0 13.076 0 8.34 0 3.745 3.784-.004 8.41 0zm4.683 69.375H3.3A2.301 2.301 0 0 1 1 67.074V25.3C1 24.031 2.03 23 3.301 23h9.792a2.3 2.3 0 0 1 2.3 2.301v41.773a2.3 2.3 0 0 1-2.3 2.3zm56.874-31.518C69.967 29.099 62.868 22 54.11 22H51.6a14.075 14.075 0 0 0-12.342 7.283 1.057 1.057 0 0 0-.13-.016v-5.128a.955.955 0 0 0-.956-.955H25.955a.955.955 0 0 0-.955.955v44.465c0 .528.427.955.955.955l12.483.003a.955.955 0 0 0 .955-.955V42.92c0-4.44 3.542-8.128 7.982-8.178a8.047 8.047 0 0 1 5.803 2.365 8.048 8.048 0 0 1 2.365 5.71V68.61c0 .528.427.956.955.956l12.513.003a.955.955 0 0 0 .956-.955V37.857z" fill="#0084B1"/></svg>