<svg width="346" height="332" fill="none" xmlns="http://www.w3.org/2000/svg"><path style="mix-blend-mode:multiply" d="M136.05 231.408l14.263-18.463-8.156-2.906-6.945 7.773.838 13.596z" fill="url(#paint0_linear_1_938)"/><path style="mix-blend-mode:multiply" d="M136.084 230.96l14.229-18.015-8.592-.828-6.336 5.874.699 12.969z" fill="url(#paint1_linear_1_938)"/><path d="M83.765 186.447l4.252 44.065 49.81 32.871-2.442-45.392-51.62-31.544z" fill="url(#paint2_linear_1_938)"/><path style="mix-blend-mode:multiply" d="M83.765 186.447l4.252 44.065 49.81 32.871-2.442-45.392-51.62-31.544z" fill="url(#paint3_radial_1_938)"/><path d="M121.486 80.834l-30.765 27.193 5.787 22.55 35.81-7.75 21.202-33.314-19.771-12.918-12.263 4.239z" fill="url(#paint4_linear_1_938)"/><path style="mix-blend-mode:multiply" d="M121.486 80.834l-30.765 27.193 5.787 22.55 35.81-7.75 21.202-33.314-19.771-12.918-12.263 4.239z" fill="url(#paint5_radial_1_938)"/><path d="M125.246 99.067l53.888 30.194-8.62 37.553-43.425-24.175-1.843-43.572z" fill="url(#paint6_linear_1_938)"/><path style="mix-blend-mode:multiply" d="M125.235 99.061l53.888 30.189-8.62 37.558-43.425-24.18-1.843-43.567z" fill="url(#paint7_linear_1_938)"/><path d="M122.218 181.81l2.575 45.835 16.939-15.472 23.883-70.469-43.397 40.106z" fill="url(#paint8_linear_1_938)"/><path style="mix-blend-mode:multiply" d="M122.218 181.81l2.575 45.835 16.939-15.472 23.492-69.248-43.006 38.885z" fill="url(#paint9_linear_1_938)"/><path d="M92.09 272.819l-4.073-42.307 49.81 32.871 2.698 41.82-48.436-32.384z" fill="url(#paint10_linear_1_938)"/><path style="mix-blend-mode:multiply" d="M92.1 272.825l-4.083-42.313 49.81 32.871 2.698 41.82-48.424-32.378z" fill="url(#paint11_linear_1_938)"/><path d="M134.112 237.523l-15.916 52.941 51.396 34.562 17.76-53.45-53.24-34.053z" fill="url(#paint12_linear_1_938)"/><path d="M60.106 175.706l20.19-9.251-6.15 19.841-14.04-10.59z" fill="#262626"/><path d="M35.425 156.908l48.34 29.539 4.252 44.065-46.095-30.513-6.497-43.091z" fill="url(#paint13_linear_1_938)"/><path style="mix-blend-mode:multiply" d="M35.425 156.908l48.34 29.539 4.252 44.065-46.095-30.513-6.497-43.091z" fill="url(#paint14_radial_1_938)"/><path d="M99.263 100.478l2.743 46.462-44.257 39.742-4.704-45.353 46.218-40.851z" fill="url(#paint15_linear_1_938)"/><path style="mix-blend-mode:multiply" d="M99.263 100.478l2.743 46.462-44.257 39.742-4.704-45.353 46.218-40.851z" fill="url(#paint16_linear_1_938)"/><path d="M122.218 181.81l2.575 45.835-52.597-32.238-4.375-45.432 54.397 31.835z" fill="url(#paint17_linear_1_938)"/><path d="M122.218 181.81l46.665-42.251-54.71-30.704-46.352 41.12 54.397 31.835z" fill="url(#paint18_linear_1_938)"/><path d="M169.592 325.026l17.76-53.45 39.224-21.621-16.945 50.992-40.039 24.079z" fill="url(#paint19_linear_1_938)"/><path style="mix-blend-mode:multiply" d="M169.592 325.026l17.76-53.45 39.224-21.621-16.945 50.992-40.039 24.079z" fill="url(#paint20_linear_1_938)"/><path d="M245.564 279.276l17.782-49.733-36.771 20.412-16.944 50.992 35.933-21.671z" fill="url(#paint21_linear_1_938)"/><path style="mix-blend-mode:multiply" d="M245.564 279.276l17.782-49.733-36.771 20.412-16.944 50.992 35.933-21.671z" fill="url(#paint22_linear_1_938)"/><path d="M226.575 249.955l36.833-20.445-33.888-19.891-2.945 40.336z" fill="url(#paint23_linear_1_938)"/><path style="mix-blend-mode:multiply" d="M226.575 249.955l36.833-20.445-33.888-19.891-2.945 40.336z" fill="url(#paint24_linear_1_938)"/><path d="M274.782 261.653l17.66-48.002-29.095 15.892-17.783 49.733 29.218-17.623z" fill="url(#paint25_linear_1_938)"/><path d="M274.782 261.653l17.66-48.002-29.095 15.892-17.783 49.733 29.218-17.623z" fill="url(#paint26_linear_1_938)"/><path style="mix-blend-mode:multiply" d="M274.782 261.653l17.66-48.002-29.095 15.892-17.783 49.733 29.218-17.623z" fill="url(#paint27_radial_1_938)"/><path d="M265.978 231.022l13.503-38.074-33.308-1.96-7.899 23.766 27.704 16.268z" fill="url(#paint28_linear_1_938)"/><path style="mix-blend-mode:multiply" d="M265.978 231.022l13.503-38.074-33.308-1.96-7.899 23.766 27.704 16.268z" fill="url(#paint29_linear_1_938)"/><path d="M244.045 218.181l9.899-29.785-7.771 2.592-10.586 31.858 8.458-4.665z" fill="url(#paint30_linear_1_938)"/><path style="mix-blend-mode:multiply" d="M244.045 218.181l9.899-29.785-7.771 2.592-10.586 31.858 8.458-4.665z" fill="url(#paint31_linear_1_938)"/><path d="M207.933 209.641l-20.581 61.935 39.224-21.621 19.597-58.967-38.24 18.653z" fill="url(#paint32_linear_1_938)"/><path style="mix-blend-mode:multiply" d="M207.933 209.641l-20.581 61.935 39.224-21.621 19.597-58.967-38.24 18.653z" fill="url(#paint33_linear_1_938)"/><path d="M229.084 146.061l-21.151 63.58 38.24-18.653 20.218-60.713-37.307 15.786z" fill="url(#paint34_linear_1_938)"/><path style="mix-blend-mode:multiply" d="M229.084 146.061l-21.151 63.58 38.24-18.653 20.218-60.713-37.307 15.786z" fill="url(#paint35_linear_1_938)"/><path d="M121.486 80.834l-2.709-46.3 49.463 26.527-13.726 38.348-33.028-18.575z" fill="url(#paint36_linear_1_938)"/><path style="mix-blend-mode:multiply" d="M121.486 80.834l-2.709-46.3 49.463 26.527-13.726 38.348-33.028-18.575z" fill="url(#paint37_radial_1_938)"/><path d="M246.279 91.53L245 117.703l-18.508-3.248 3.05-6.148 16.737-16.778z" fill="url(#paint38_linear_1_938)"/><path style="mix-blend-mode:multiply" d="M246.279 91.53L245 117.703l-18.508-3.248 3.05-6.148 16.737-16.778z" fill="url(#paint39_linear_1_938)"/><path d="M212.95 64.527l-8.531-4.609 2.162 10.242 6.369-5.633z" fill="url(#paint40_linear_1_938)"/><path d="M183.419 38.807l25.218-13.45-2.056 44.803-2.112 3.646-38.016 32.317 1.787-45.062 15.179-22.254z" fill="url(#paint41_linear_1_938)"/><path d="M205.955 74.573l.626-4.412 6.369-5.634-1.184 25.356-13.257-12.588 7.446-2.722z" fill="url(#paint42_linear_1_938)"/><path style="mix-blend-mode:multiply" d="M205.955 74.573l.626-4.412 6.369-5.634-1.184 25.356-13.257-12.588 7.446-2.722z" fill="url(#paint43_linear_1_938)"/><path d="M206.581 70.16l39.699 21.37-16.933 16.973-39.023-22.35 8.185-8.858 8.072-7.135z" fill="url(#paint44_linear_1_938)"/><path style="mix-blend-mode:multiply" d="M206.57 70.16l39.71 21.37-16.933 16.973-39.023-22.35 8.185-8.858 8.061-7.135z" fill="url(#paint45_linear_1_938)"/><path style="mix-blend-mode:multiply" d="M206.581 70.16l39.699 21.37-16.933 16.973-39.023-22.35 8.185-8.858 8.072-7.135z" fill="url(#paint46_linear_1_938)"/><path d="M222.453 90.14l-1.241 26.505-17.217-14.655 18.458-11.85z" fill="url(#paint47_linear_1_938)"/><path style="mix-blend-mode:multiply" d="M222.453 90.14l-1.241 26.505-17.217-14.655 18.458-11.85z" fill="url(#paint48_linear_1_938)"/><path style="mix-blend-mode:multiply" d="M183.419 38.807l25.218-13.45-2.056 44.803-3.285 3.993-36.843 31.97 1.787-45.062 15.179-22.254z" fill="url(#paint49_linear_1_938)"/><path style="mix-blend-mode:multiply" d="M183.973 38.369l25.218-13.451-2.056 44.804-3.285 3.993-36.843 31.97 1.788-45.062 15.178-22.254z" fill="url(#paint50_linear_1_938)"/><path d="M125.246 99.067l53.888 30.194 43.319-39.12-54.213-29.08-42.994 38.006z" fill="url(#paint51_linear_1_938)"/><path d="M171.369 113.582l57.715 32.479 37.307-15.786-53.503-31.443-41.519 14.75z" fill="url(#paint52_linear_1_938)"/><path d="M265.978 231.022l28.81-15.831 20.519-55.663-8.458 3.405-27.368 30.015-13.503 38.074z" fill="url(#paint53_linear_1_938)"/><path style="mix-blend-mode:multiply" d="M265.978 231.022l28.81-15.831 20.519-55.663-8.458 3.405-27.368 30.015-13.503 38.074z" fill="url(#paint54_linear_1_938)"/><path d="M255.899 108.055l54.023 27.288 7.1-21.644-52.821-28.508-8.302 22.864z" fill="url(#paint55_linear_1_938)"/><path style="mix-blend-mode:multiply" d="M255.899 108.055l54.023 27.288 7.1-21.644-52.821-28.508-8.302 22.864z" fill="url(#paint56_radial_1_938)"/><path d="M325.095 156.773l20.201-55.035-28.274 11.961-20.826 57.141 28.899-14.067z" fill="url(#paint57_linear_1_938)"/><path style="mix-blend-mode:multiply" d="M325.095 156.773l20.201-55.035-28.274 11.961-20.826 57.141 28.899-14.067z" fill="url(#paint58_linear_1_938)"/><path d="M271.654 96.211l53.391 28.811-38.939 16.839-53.502-31.443 39.05-14.207z" fill="url(#paint59_linear_1_938)"/><path d="M293.955 74.668l51.341 27.07-28.274 11.961-52.821-28.508 29.754-10.523z" fill="url(#paint60_linear_1_938)"/><path d="M305.877 177.661l19.168-52.639-38.939 16.839-21.324 59.599 41.095-23.799z" fill="url(#paint61_linear_1_938)"/><path style="mix-blend-mode:multiply" d="M305.877 177.661l19.168-52.639-38.939 16.839-21.324 59.599 41.095-23.799z" fill="url(#paint62_linear_1_938)"/><path d="M246.173 190.988l20.218-60.713 19.715 11.586-21.324 59.599-18.609-10.472z" fill="url(#paint63_linear_1_938)"/><path style="mix-blend-mode:multiply" d="M246.173 190.988l20.218-60.713 19.715 11.586-21.324 59.599-18.609-10.472z" fill="url(#paint64_linear_1_938)"/><path d="M171.369 113.582l-19.017 63.267 55.581 32.792 21.151-63.58-57.715-32.479z" fill="url(#paint65_linear_1_938)"/><path d="M152.352 176.849l-18.24 60.674 53.24 34.053 20.581-61.935-55.581-32.792z" fill="url(#paint66_linear_1_938)"/><path d="M48.665 243.711L92.1 272.825l-4.084-42.313-46.095-30.513 6.743 43.712z" fill="url(#paint67_linear_1_938)"/><path d="M1.011 110.877l52.034 30.452 46.218-40.851-51.213-28.76-47.039 39.159z" fill="url(#paint68_linear_1_938)"/><path d="M1.011 110.877l7.095 45.471 49.643 30.334-4.704-45.353L1.01 110.877z" fill="url(#paint69_linear_1_938)"/><path d="M160.542 0l-41.765 34.534 49.463 26.527 40.397-35.705L160.542 0z" fill="url(#paint70_linear_1_938)"/><path d="M118.648 34.78l.263-.492 49.463 26.532-.262.487-49.464-26.526z" fill="url(#paint71_radial_1_938)" opacity=".56"/><path style="mix-blend-mode:screen" opacity=".55" d="M160.548.022l-.297.247 48.09 25.35.257-.224.017-.017L160.548.022z" fill="url(#paint72_radial_1_938)"/><path d="M168.425 61.273l-.369-.42 40.318-35.631.263.134-.017.392-40.195 35.525z" fill="url(#paint73_radial_1_938)" opacity=".35"/><path opacity=".34" d="M121.794 80.283l-.615 1.099 14.904 8.38.615-1.099-14.904-8.38z" fill="#1A1A1A"/><path d="M207.905 209.725l-55.553-32.876.162-.555 55.603 32.821 38.274-18.793-.218.666-38.268 18.737z" fill="#1A1A1A" opacity=".67"/><path d="M207.698 210.336l-55.547-32.832.201-.655 55.553 32.876 38.268-18.737-.251.745-38.224 18.603z" fill="#E6E6E6" opacity=".67"/><path d="M187.352 271.576l-53.24-34.053.179-.599 53.262 34.069 39.257-21.738-.262.778-39.196 21.543z" fill="#1A1A1A" opacity=".67"/><path d="M187.168 272.136l-53.224-34.053.168-.56 53.24 34.053 39.257-21.728-.257.779-39.184 21.509z" fill="url(#paint74_radial_1_938)"/><path d="M187.201 270.876l20.151-60.658.704.235-20.157 60.658-.698-.235z" fill="#F2F2F2" opacity=".35"/><path d="M171.263 113.94l.111-.364.459-.162 57.43 32.322-.363.65-57.637-32.446z" fill="url(#paint75_radial_1_938)" opacity=".4"/><path d="M152.514 176.294l18.749-62.354.329.19-18.709 62.388-.369-.224z" fill="url(#paint76_radial_1_938)" opacity=".62"/><path d="M207.855 209.025L229 145.652l.525.174-21.145 63.379-.525-.18z" fill="url(#paint77_radial_1_938)" opacity=".29"/><path d="M228.888 146.57l-.218-.509 37.419-15.965.302.179-.117.353-37.386 15.942z" fill="url(#paint78_radial_1_938)" opacity=".33"/><path d="M246.173 190.988l20.218-60.713.246.14-20.218 60.713-.246-.14z" fill="#000" opacity=".77"/><path d="M169.352 324.864l17.553-52.902.263.174.352-.196-17.565 52.862-.363.224-.24-.162z" fill="url(#paint79_radial_1_938)" opacity=".38"/><path d="M172.151 113.593l-.318-.179 41.055-14.582.308.179-41.045 14.582z" fill="url(#paint80_radial_1_938)" opacity=".45"/><g opacity=".72"><path opacity=".47" d="M212.855 99.134l.341-.123 52.894 31.085-.319.134-52.916-31.096z" fill="url(#paint81_radial_1_938)"/></g><g opacity=".66"><path opacity=".92" d="M41.922 199.999l-.106-.684 86.581 57.208-.157.532-86.318-57.056z" fill="url(#paint82_radial_1_938)"/></g><path style="mix-blend-mode:screen" d="M41.922 199.999l.123.8 46.039 30.424-.073-.761-46.09-30.463z" fill="url(#paint83_radial_1_938)"/><path style="mix-blend-mode:color-dodge" opacity=".35" d="M128.24 257.055l-40.229-26.593.073.761 39.978 26.426.178-.594z" fill="url(#paint84_radial_1_938)"/><path d="M91.503 272.427l-6.665-69.276.576.364 6.687 69.31-.598-.398z" fill="url(#paint85_radial_1_938)" opacity=".92"/><path style="mix-blend-mode:screen" d="M85.397 203.498l2.597 26.952.593.398-2.598-26.991-.592-.359z" fill="url(#paint86_radial_1_938)"/><path style="mix-blend-mode:color-dodge" opacity=".35" d="M92.09 272.819l.586.392-4.09-42.363-.592-.398 4.095 42.369z" fill="url(#paint87_radial_1_938)"/><path d="M48.665 243.711L38.1 174.67l.413.252 10.492 68.576 69.301 46.596-.067.213-69.586-46.602.01.006z" fill="url(#paint88_radial_1_938)" opacity=".35"/><path d="M118.196 290.464l.083-.286 51.403 34.574-.09.274-51.396-34.562z" fill="url(#paint89_radial_1_938)" opacity=".55"/><path d="M124.514 227.477l-2.581-45.779 39.793-36.04-.156.52-.156.516-38.911 35.234 2.553 45.476-.268.241-.274-.168z" fill="url(#paint90_radial_1_938)" opacity=".26"/><path d="M67.676 150.216l.285-.482 54.19 31.763-.196.162-.005.37-54.274-31.813z" fill="url(#paint91_radial_1_938)" opacity=".51"/><path d="M57.475 186.71l-4.72-45.493 46.323-40.946.369.414-46.112 40.756 4.693 45.207-.553.062z" fill="url(#paint92_radial_1_938)" opacity=".3"/><path d="M.872 111.118l.279-.482L53.475 141.2l-.28.482L.873 111.118z" fill="url(#paint93_radial_1_938)" opacity=".55"/><path d="M264.43 201.337l21.386-59.756 39.083-16.895.297.678-38.794 16.771-21.274 59.454-.698-.252z" fill="url(#paint94_radial_1_938)" opacity=".33"/><path d="M266.447 130.734l.374-.638 19.486 11.44-.374.638-19.486-11.44z" fill="url(#paint95_radial_1_938)" opacity=".48"/><path opacity=".55" d="M271.654 96.211l.134-.246 43.201 23.312-.095.269-43.24-23.335z" fill="url(#paint96_linear_1_938)"/><path d="M169.972 324.752l.162-.487 104.855-63.172-.201.554-104.833 63.155.017-.05z" fill="url(#paint97_radial_1_938)" opacity=".5"/><path d="M208.916 301.333l16.721-50.314.972-1.171-16.978 51.099-.715.386z" fill="#1A1A1A" opacity=".69"/><g opacity=".38"><path opacity=".44" d="M209.631 300.947l16.978-51.099.676-.285-16.721 50.342-.933 1.042z" fill="#fff"/></g><path d="M60.397 268.849l-37.665 42.872L.14 269.761l37.938-43.214 22.319 42.302z" fill="url(#paint98_linear_1_938)"/><path d="M106.81 280.608l-41.536 41.579-42.542-10.466 37.665-42.872 46.413 11.759z" fill="url(#paint99_linear_1_938)"/><path style="mix-blend-mode:multiply" d="M106.81 280.608l-41.536 41.579-42.542-10.466 37.665-42.872 46.413 11.759z" fill="url(#paint100_linear_1_938)"/><path d="M87.374 239.147l19.436 41.461-46.413-11.759-22.319-42.302 49.296 12.6z" fill="url(#paint101_linear_1_938)"/><path d="M245.469 278.15l-37.664 42.867-22.598-41.96 37.938-43.214 22.324 42.307z" fill="url(#paint102_linear_1_938)"/><path d="M291.877 289.91l-41.536 41.579-42.536-10.472 37.665-42.867 46.407 11.76z" fill="url(#paint103_linear_1_938)"/><path style="mix-blend-mode:multiply" d="M291.877 289.91l-41.536 41.579-42.536-10.472 37.665-42.867 46.407 11.76z" fill="url(#paint104_linear_1_938)"/><path d="M272.441 248.448l19.436 41.462-46.408-11.76-22.324-42.307 49.296 12.605z" fill="url(#paint105_linear_1_938)"/><path d="M160.296 290.072l-1.838-1.327.665-1.982-15.615-11.267-.664 1.982-1.838-1.327.664-1.983-4.592-3.315-3.078 9.184c-.799 2.386.196 5.51 2.224 6.972l21.43 15.461c2.028 1.467 4.324.717 5.123-1.674l3.078-9.19-4.9-3.533-.664 1.982.005.017zm5.09-10.645l-4.995-3.601s-.028.05-.045.073l-.905-.655c.012-.028.017-.062.023-.09l-9.598-6.927-.033.084-.906-.655c0-.034.012-.062.017-.095l-4.994-3.607c-2.028-1.461-4.324-.716-5.123 1.675l-1.089 3.242 4.592 3.315 1.838 1.327 15.614 11.267 1.838 1.327 4.9 3.534 1.083-3.242c.799-2.392-.195-5.511-2.223-6.972h.006z" fill="#666"/><path d="M156.212 267.096c2.626 1.893 4.068 5.482 3.257 8.064l.922.666a4.85 4.85 0 00.43-.93c1.051-3.135-.703-7.554-3.916-9.872-3.212-2.318-6.67-1.658-7.72 1.478-.118.342-.19.7-.241 1.064l.922.667c.9-2.515 3.715-3.03 6.341-1.137h.005z" fill="#666"/><path d="M159.447 275.244l.905.655s.028-.051.045-.073l-.922-.666a.482.482 0 00-.022.089l-.006-.005zm-9.609-6.927l.034-.084-.922-.667c0 .028-.011.062-.017.095l.905.656z" fill="#666"/><path fill-rule="evenodd" clip-rule="evenodd" d="M13.738 267.913l10.005-16.446c1.553-2.548 3.587-3.388 4.514-1.871l11.15 18.267c.928 1.518.414 4.844-1.144 7.392l-2.18 3.573c-.96-.247-2.055.24-3.586 1.4l-9.346-17.069-.056-.101-.112.056-9.257 4.794.011.005z" fill="#fff"/><path fill-rule="evenodd" clip-rule="evenodd" d="M22.53 264.156l9.414 17.191c3.91-3.023 4.928-1.663 8.023 5.175l-12.43 6.361-14.526-23.788 9.52-4.933v-.006z" fill="#fff"/><path fill-rule="evenodd" clip-rule="evenodd" d="M264.67 110.95l-14.245 3.572 17.664 8.983 14.246-3.573 14.24-3.573-17.659-8.982-14.24 3.573h-.006zm29.14 5.241l-12.62 3.164-12.62 3.164-15.374-7.823 12.62-3.164 12.62-3.164 15.374 7.823zm-1.296 6.541l-6.279 1.573-7.039-3.584 6.273-1.573 7.045 3.584z" fill="#666"/><path fill-rule="evenodd" clip-rule="evenodd" d="M297.614 122.418l-13.921 3.495-1.28-.65 13.922-3.494 1.279.649zm-4.932-6.4l-24.257 6.087-14.19-7.219 24.257-6.087 14.19 7.219z" fill="#666"/><path d="M180.011 225.646l-1.19 4.233-3.391-2.156 1.229-4.362-11.586-7.369 1.815-6.451c.648-2.302 3.134-2.918 5.553-1.378l2.833 1.803c2.419 1.54 3.86 4.654 3.212 6.955l-.821 2.918 3.106 1.976 1.067-3.802c.888-3.147-1.078-7.408-4.397-9.52l-5.821-3.701c-3.313-2.106-6.715-1.266-7.603 1.887l-2.078 7.381c-1.336-.577-2.576-.179-2.917 1.03l-3.229 11.485c-.385 1.378.542 3.293 2.084 4.267l16.71 10.629c1.536.98 3.1.655 3.486-.722l.223-.784.391-1.384.536-1.898.386-1.383.581-2.072.391-1.383.095-.331.631-2.251c.319-1.12-.251-2.587-1.296-3.623v.006zm-10.86 4.233l-.486 1.731c-.112.403-.643.453-1.179.112-.536-.342-.883-.947-.771-1.35l.486-1.73c-.654-.823-.972-1.887-.732-2.733.33-1.182 1.609-1.495 2.849-.706 1.246.79 1.984 2.392 1.648 3.573-.24.851-.966 1.249-1.815 1.114v-.011z" fill="#666"/><path d="M30.603 113.671l-4.246-2.912 23.308-22.382 4.245 2.912-23.307 22.382zm6.374 4.368l-4.245-2.912 12.575-12.079 4.252 2.907-12.581 12.084zm6.369 4.362l-4.246-2.906 15.37-14.761 4.25 2.912-15.374 14.755zm6.374 4.368l-4.245-2.912 18.268-17.538 4.246 2.912-18.268 17.538zm-2.731-25.524s7.162 2.319 12.184-1.579l-.547-3.018 6.765 2.514-4.38 5.964-1.073-2.862s-6.312 3.534-12.95-1.013v-.006zm26.609 150.804l-1.687-6.305c-.084-.303.117-.499.441-.432.324.068.654.37.737.678l1.688 6.305c.497.297.916.784 1.05 1.283.044.162.05.313.028.442l3.832 3.73c.28.274.358.616.168.773-.084.072-.213.089-.358.061a.987.987 0 01-.48-.269l-3.838-3.735c-.106.006-.224 0-.352-.022-.738-.151-1.486-.84-1.67-1.535-.135-.498.06-.856.446-.968l-.005-.006z" fill="#fff"/><path d="M85.028 255.493c-1.04-3.881-4.307-7.733-8.196-10.085l.135-.633 2.541 1.405c.218-1.052-.692-2.531-2.089-3.499l.084-.398c.033-.162-.168-.431-.458-.588-.285-.162-.548-.157-.587.011l-.084.398c-1.491-.639-2.787-.375-3.005.689l2.553 1.411-.134.621c-1.29-.672-2.626-1.17-3.961-1.45-1.352-.28-2.576-.308-3.648-.118l-.442-.655 2.017-.459c-.849-1.271-2.419-2.122-3.71-2.083l-.401-.605a.678.678 0 00-.66-.269c-.229.051-.313.258-.178.459l.396.6c-1.039.464-1.223 1.736-.368 3.018l2.067-.47.44.666c-2.982.924-4.44 3.78-3.407 7.649 1.073 4.004 4.514 7.975 8.564 10.298l-.76 3.517c-.039.168.168.431.459.588.285.163.547.157.586-.011l.766-3.539a15.217 15.217 0 003.586 1.26c1.235.257 2.369.302 3.369.162l2.882 4.323a.68.68 0 00.66.269c.229-.05.307-.258.173-.459l-2.866-4.301c3.162-.834 4.726-3.746 3.665-7.722h.011zm-8.179 6.625c-5.173-1.087-10.408-5.897-11.72-10.763-1.297-4.867 1.832-7.935 7-6.871 5.173 1.086 10.407 5.896 11.726 10.768 1.29 4.866-1.833 7.935-7.006 6.866zm153.352-131.233l-11.335-7.302-.637-.409-1.257.101-13.726 1.086c2.201 2.386 5.737 4.407 9.726 5.751.581.196 1.162.376 1.765.544 3.542.985 7.336 1.444 10.816 1.164 1.788-.14 3.341-.464 4.648-.935zm-19.771-17.813c-1.519.123-2.871.375-4.05.734-.442.134-.866.285-1.252.453-2.441 1.036-3.843 2.638-4.039 4.514 0 0-.061.347 0 .913 0 0 .006.033.011.05.028.224.073.476.151.756v.005c.073.275.174.572.319.891.223.504.519 1.019.899 1.54l14.352-1.137.821-.067.285-.482 3.978-6.815c-3.732-1.12-7.782-1.652-11.475-1.355zm10.162 9.811l11.413 7.353c3.671-1.798 4.66-4.984 2.129-8.428-.095-.129-.201-.258-.302-.387l-13.804 1.092.564.364v.006zm5.743-9.15l-4.262 6.406-.419.633 13.162-1.803c-1.984-2.106-5-3.926-8.475-5.242l-.006.006zm21.581 193.34c-.352.336-.38.874.028 1.585l2.14-2.117a3.311 3.311 0 00-1.173.051c-.458.1-.766.257-1 .481h.005zm-1.866 4.491l-2.419 2.397c.481.09.939.084 1.397-.011.514-.112.888-.297 1.184-.588.218-.219.324-.471.296-.767-.022-.258-.173-.605-.463-1.031h.005z" fill="#fff"/><path d="M255.704 312.723c.877-1.153 1.436-1.988 1.436-1.988l.022-.028.028-.028c2.732-2.693 2.034-5.751-.492-8.002l-4.72-1.271c-5.017.219-10.268 1.669-12.984 4.368l-.027.028-.034.022s-4.05 2.879-6.57 5.376c-1.274 1.243-2.095 2.403-1.933 2.923.363 1.552 3.559 3.231 7.408 4.256 3.827 1.042 8.335 1.434 11 .7.922-.229 2.291-1.243 3.542-2.492 1.257-1.243 2.452-2.716 3.335-3.869l-.011.005zm-9.715 1.949a6.771 6.771 0 01-3.039-.039l-.877.868-.816-.218.883-.874c-1.224-.392-1.95-.986-2.123-1.781l-.017-.061 2.246-1.669.603.162-.089.112c-1.056 1.299-1.017 2.106.067 2.559l2.827-2.8c-.548-.929-.838-1.64-.872-2.15-.033-.521.196-1.036.687-1.517.598-.6 1.447-1.036 2.492-1.288.983-.247 1.927-.275 2.799-.101l.491-.487.118-.118.815.218-.609.605c1.034.336 1.682.857 1.917 1.551l.016.056-2.067 1.708-.62-.168.106-.117c.57-.633.822-1.154.788-1.557-.033-.37-.29-.638-.804-.818l-2.576 2.548c.687 1.036 1.039 1.82 1.067 2.386.023.571-.24 1.131-.776 1.663-.648.644-1.548 1.098-2.632 1.322l-.005.005zm7.318-14.565c-.184-.05-.525.095-.759.33-.235.23-.274.46-.09.51l4.849 1.305c.185.05.525-.095.76-.331.235-.229.274-.459.084-.509l-4.849-1.305h.005zm1.375-.263c2.257.795 3.765 1.204 6.547-.034 2.782-1.237 5.302-2.402 4.045-2.553-1.257-.146-3.503-.325-4.872-1.12-1.368-.795-3.458-2.587-4.044-1.938-.587.644-1.112 1.546-1.112 1.546s-2.827 3.304-.564 4.104v-.005z" fill="#fff"/><path d="M117.989 144.588c-.386.347-.458.991-.101 1.921l2.347-2.195a2.809 2.809 0 00-1.196-.14c-.475.045-.799.179-1.056.414h.006zm-2.263 5.101l-2.653 2.481c.48.191.949.263 1.419.224.536-.045.927-.207 1.251-.504.24-.229.369-.515.369-.873 0-.314-.129-.762-.386-1.322v-.006z" fill="#666"/><path d="M125.447 152.753a44.36 44.36 0 001.62-2.162l.022-.034.034-.028c3-2.788 2.536-6.602.156-9.754l-4.698-2.347c-5.117-.599-10.57.258-13.553 3.058l-.034.028-.039.022s-4.352 2.783-7.117 5.37c-1.397 1.283-2.324 2.543-2.207 3.203.24 1.938 3.352 4.52 7.179 6.418 3.805 1.915 8.358 3.164 11.123 2.733.955-.124 2.43-1.109 3.804-2.403 1.38-1.288 2.716-2.861 3.704-4.104h.006zm-10.034.688a5.946 5.946 0 01-3.083-.571l-.967.902-.81-.403.967-.902c-1.213-.683-1.9-1.529-2.017-2.52l-.011-.073 2.419-1.629.597.302-.1.118c-1.179 1.388-1.207 2.368-.14 3.102l3.101-2.901c-.481-1.215-.721-2.122-.71-2.749.011-.639.285-1.215.821-1.714.66-.621 1.559-1.002 2.643-1.131a5.604 5.604 0 012.855.358l.542-.504.134-.123.81.403-.671.628c1.028.588 1.637 1.327 1.822 2.2l.011.073-2.24 1.714-.621-.308.118-.123c.631-.667.927-1.249.927-1.748 0-.453-.246-.817-.754-1.125l-2.827 2.643c.609 1.366.905 2.38.888 3.063-.022.694-.335 1.327-.921 1.876-.71.666-1.66 1.058-2.783 1.148v-.006zm8.632-16.351c-.185-.095-.542.028-.799.269-.257.24-.319.509-.129.604l4.822 2.408c.184.096.542-.028.799-.268.257-.241.312-.51.128-.6l-4.816-2.408-.005-.005zm1.413-.084c2.229 1.349 3.732 2.1 6.659 1.081 2.928-1.02 5.581-1.994 4.319-2.392-1.263-.397-3.531-.996-4.855-2.189-1.324-1.193-3.302-3.718-3.95-3.041-.648.678-1.257 1.675-1.257 1.675s-3.145 3.511-.91 4.86l-.006.006z" fill="#666"/><path d="M173.983 26.129l-19.637-7.605-2.866 10.254 12.28 6.708 10.223-9.357z" fill="#fff"/><path d="M184.38 27.26l-4.995-2.733h-.016a1.157 1.157 0 00-.196-.061c-.045-.012-.084-.034-.134-.034-.056-.011-.117 0-.173.006-.051.005-.101 0-.151.017-.045.01-.078.039-.123.061a.618.618 0 00-.156.09c-.006 0-.012.005-.023.01l-14.279 12.561-12.19-6.658c-.43-.235-.939-.1-1.145.308-.201.403-.023.918.408 1.154l12.72 6.95c.095.05.196.083.296.094.034.006.067 0 .095 0 .073 0 .14 0 .207-.017a.288.288 0 00.095-.016.875.875 0 00.19-.095c.022-.012.05-.023.067-.04 0-.005.017 0 .017-.01l14.279-12.561 4.458 2.436c.425.23.933.095 1.14-.308.201-.404.022-.919-.402-1.154h.011zm-31.749 6.67c-.966-.527-2.117-.219-2.581.694-.458.907-.05 2.077.916 2.604.967.526 2.118.213 2.576-.695.458-.912.05-2.077-.916-2.604h.005zm9.24 5.05c-.96-.526-2.117-.218-2.581.695-.458.907-.044 2.078.917 2.604.966.526 2.117.213 2.581-.695.458-.912.05-2.077-.917-2.604zm103.09 236.527l-2.492-.611-.916-2.833a15.68 15.68 0 01-4.776-2.604c-1.442-1.148-2.615-2.559-3.531-4.233l3.888.106c1.045 1.865 2.654 3.057 4.827 3.589.771.191 1.425.208 1.955.045.503-.179.637-.621.408-1.316a2.785 2.785 0 00-1.302-1.59c-.648-.375-1.553-.818-2.692-1.316-1.498-.627-2.771-1.243-3.838-1.854a12.275 12.275 0 01-2.917-2.329c-.882-.941-1.525-2.05-1.938-3.326-.508-1.58-.413-2.778.285-3.607.698-.829 1.827-1.159 3.38-.98l-.771-2.396 2.491.61.771 2.397c.71.173 1.408.442 2.095.812.687.369 1.391.823 2.112 1.372 1.279.957 2.38 2.189 3.291 3.69l-3.397.319c-.978-1.613-2.313-2.626-4-3.041-1.799-.442-2.503-.067-2.123 1.109.19.594.575 1.081 1.134 1.45.486.297 1.24.678 2.268 1.148 2.481 1.02 4.263 1.91 5.341 2.666 2.156 1.562 3.553 3.321 4.184 5.286.375 1.165.408 2.128.095 2.895-.301.773-.894 1.3-1.759 1.58a5.122 5.122 0 01-1.38.268 5.2 5.2 0 01-1.604-.156l.917 2.839-.006.011zm-58.481 16.105c-.262.297-.636.319-.838.045l-1.826-2.531c-.202-.275-.146-.739.117-1.036.262-.297.637-.319.838-.045l1.827 2.531c.195.274.145.739-.118 1.042v-.006z" fill="#fff"/><path d="M203.872 287.888l2.748 3.808c.095-.006.257-.022.542-.05.374-.034.615-.084.76-.146l-3.771-5.225c-.017.034-.028.073-.039.107-.034.14-.201 1.232-.24 1.506zm6.564 1.137c-.151.173-.352.207-.447.073l-3.704-5.13c-.095-.129-.05-.375.101-.549.15-.168.351-.201.446-.072l3.704 5.129c.095.129.045.375-.1.549zm-.805.918c-.15.174-.352.207-.447.073l-3.703-5.129c-.095-.129-.051-.381.1-.549.151-.174.352-.207.447-.073l3.704 5.129c.095.129.05.376-.101.549zm-.804.919c-.151.173-.352.207-.447.072l-3.704-5.129c-.095-.129-.05-.381.101-.554.15-.174.352-.202.447-.073l3.703 5.129c.095.129.051.375-.1.549v.006z" fill="#fff"/><path d="M208.173 291.522c-.095.112-.251.09-.346-.039l-3.676-5.09c-.095-.129-.095-.325 0-.431.095-.112.251-.09.346.039l3.676 5.09c.095.129.095.325 0 .437v-.006zm3.106-3.376c-.151.173-.352.207-.447.072l-3.765-5.207c-.095-.135-.05-.381.1-.555.151-.168.352-.201.447-.067l3.766 5.208c.095.134.05.381-.101.549zm-3.056-6.211l-.178-.252.033-.341c.078-.79.235-1.708.805-2.542.156-.23.324-.46.491-.689.28-.381.542-.745.743-1.087.481-.823.799-1.741 1.106-2.637.084-.252.168-.499.257-.739l.146-.409a62.455 62.455 0 011.229-3.248c.536-1.271 1.329-2.537 2.497-3.981l.447-.51c.978-1.064 1.989-1.854 3.095-2.43 1.056-.555 1.989-.7 2.838-.784 2.151-.208 3.832.487 5.134 2.116l.341.471c1.279 2.032 1.765 4.418 1.413 6.916-.38 2.732-1.464 5.135-3.307 7.347l-.19.218c-2.05 2.15-3.911 2.968-5.715 3.763l-.754.336c-.196.09-.391.174-.598.263-.766.342-1.559.689-2.296 1.171-.268.173-.581.453-.916.75-.805.717-1.721 1.534-2.66 1.434l-.223-.023-.285-.392a99.156 99.156 0 01-1.006-1.417c-.324-.453-.637-.907-.961-1.355a48.942 48.942 0 00-1.474-1.943l-.012-.011v.005zm17.76-15.718l-.301-.42c-1.045-1.316-2.431-1.887-4.202-1.714-.709.067-1.486.191-2.318.622-.911.476-1.743 1.125-2.536 1.988l-.397.448c-.989 1.22-1.665 2.29-2.101 3.332a60.057 60.057 0 00-1.178 3.119l-.146.414c-.083.23-.162.465-.245.7-.33.963-.704 2.061-1.319 3.114a15.6 15.6 0 01-.877 1.293c-.156.213-.307.42-.452.633-.185.269-.274.633-.33 1.014a47.76 47.76 0 011.335 1.769c.324.454.648.907.972 1.366.319.454.643.908.978 1.367.357-.107.855-.549 1.335-.98.374-.336.76-.678 1.151-.935.855-.555 1.749-.952 2.542-1.3.195-.084.391-.173.575-.257.257-.118.514-.23.771-.347 1.715-.756 3.33-1.467 5.067-3.287l.14-.163c1.514-1.809 2.413-3.797 2.726-6.053.291-2.083-.106-4.004-1.184-5.718l-.006-.005z" fill="#fff"/><path d="M175.631 97.919V95.37l-1.955-.414a7.635 7.635 0 00-.486-1.501l1.33-1.49-1.498-2.055-1.826.812a8.129 8.129 0 00-1.274-.93l.207-1.987-2.414-.784-1 1.73a7.27 7.27 0 00-.788-.04c-.268 0-.53.012-.787.04l-1-1.73-2.414.79.207 1.987a7.632 7.632 0 00-1.274.93l-1.821-.812-1.492 2.06 1.336 1.49c-.213.476-.375.98-.486 1.5l-1.95.42v2.543l1.955.42a7.97 7.97 0 00.486 1.5l-1.329 1.49 1.497 2.061 1.827-.812c.391.353.815.661 1.273.93l-.206 1.993 2.419.784 1-1.73c.257.028.525.039.787.039.263 0 .531-.011.788-.039l1 1.73 2.413-.789-.206-1.988a7.788 7.788 0 001.274-.93l1.826.812 1.492-2.061-1.335-1.49c.206-.475.374-.98.486-1.5l1.949-.42-.011-.011zm-9.698 4.424c-3.134 0-5.676-2.548-5.676-5.69a5.68 5.68 0 015.676-5.69c3.14 0 5.67 2.549 5.67 5.69 0 3.142-2.542 5.69-5.67 5.69z" fill="#666"/><path d="M185.536 90.51v-1.512l-1.162-.246a4.565 4.565 0 00-.29-.896l.787-.885-.888-1.22-1.084.481a4.603 4.603 0 00-.759-.549l.123-1.181-1.436-.465-.598 1.03a4.249 4.249 0 00-.469-.022 4.34 4.34 0 00-.47.022l-.597-1.024-1.436.47.123 1.181a4.292 4.292 0 00-.754.555l-1.084-.482-.888 1.227.793.884a4.871 4.871 0 00-.291.89l-1.162.253v1.512l1.162.246c.067.308.168.605.291.89l-.793.885.888 1.227 1.084-.482c.234.207.486.392.759.549l-.122 1.181 1.435.465.592-1.03c.157.017.313.022.47.022.156 0 .318-.005.469-.022l.592 1.03 1.436-.47-.123-1.182a4.08 4.08 0 00.754-.554l1.09.481.888-1.22-.793-.885c.123-.286.223-.582.29-.896l1.162-.252.011-.006zm-5.765 2.627a3.379 3.379 0 01-3.374-3.383 3.375 3.375 0 116.748 0 3.375 3.375 0 01-3.374 3.383z" fill="#666"/><path fill-rule="evenodd" clip-rule="evenodd" d="M169.927 171.378s1.118-6.995 3.023-10.209c1.899-3.22 2.748-3.662 5.838-2.402 3.089 1.26 5.145.532 5.703.213.559-.32 1.375-.516 1.838-.532 0 0 1.017-4.637.23-8.243 0 0-.47-.672-.419-1.344.055-.667.435-3.523 1.122-4.374 0 0 .397-.353.464-.75.067-.398.581-3.965 3.207-5.421 0 0 .927-1.053-.408-2.195 0 0 .777-.101 1.553 1.282 0 0-.168-1.159.57-1.243 0 0-.62 1.283.519 1.467 1.146.18 2.704.7 3.537 1.882.832 1.182.871 2.1 2.084 3.013 1.206.907 1.05 3.623.854 4.564-.195.935-1.178 4.614-1.072 5.263.106.644.089 1.059-.207 1.904-.296.846-1.335 2.856-1.603 2.727-.269-.128-.57.068-.626.202-.05.134-1.581 2.85-1.849 3.993-.268 1.142-.57 2.441-.067 3.08.508.638.86 2.716 1.139 3.718.285 1.008 2.749 3.718 3.755 5.393 1.005 1.674 1.536 1.864 1.34 6.014-.195 4.149-.569 8.299-1.229 11.004l-29.296-18.995v-.011z" fill="#fff"/><defs><linearGradient id="paint0_linear_1_938" x1="69.502" y1="206.01" x2="155.715" y2="224.134" gradientUnits="userSpaceOnUse"><stop offset=".795" stop-color="#fff"/><stop offset="1" stop-color="#7A7A7A"/></linearGradient><linearGradient id="paint1_linear_1_938" x1="134.592" y1="219.279" x2="145.812" y2="223.019" gradientUnits="userSpaceOnUse"><stop offset=".288" stop-color="#fff"/><stop offset="1" stop-color="#6D6D6D"/></linearGradient><linearGradient id="paint2_linear_1_938" x1="-211.354" y1="256.65" x2="288.835" y2="207.583" gradientUnits="userSpaceOnUse"><stop stop-color="#fff"/><stop offset=".45" stop-color="#E9F5F8"/><stop offset="1" stop-color="#828282"/></linearGradient><linearGradient id="paint4_linear_1_938" x1="65.828" y1="62.661" x2="196.781" y2="167.001" gradientUnits="userSpaceOnUse"><stop stop-color="#FF6972"/><stop offset=".41" stop-color="#FF1422"/><stop offset=".94" stop-color="#BC000B"/></linearGradient><linearGradient id="paint6_linear_1_938" x1="158.388" y1="50.374" x2="147.351" y2="163.121" gradientUnits="userSpaceOnUse"><stop stop-color="#fff"/><stop offset=".45" stop-color="#E9F5F8"/><stop offset="1" stop-color="#828282"/></linearGradient><linearGradient id="paint7_linear_1_938" x1="155.872" y1="117.194" x2="146.815" y2="134.876" gradientUnits="userSpaceOnUse"><stop offset=".1" stop-color="#fff"/><stop offset=".17" stop-color="#F8F8F8"/><stop offset=".28" stop-color="#E5E5E5"/><stop offset=".41" stop-color="#C6C6C6"/><stop offset=".56" stop-color="#9A9A9A"/><stop offset=".72" stop-color="#636363"/><stop offset=".88" stop-color="#202020"/><stop offset=".96"/></linearGradient><linearGradient id="paint8_linear_1_938" x1="223.513" y1="239.925" x2="127.682" y2="172.622" gradientUnits="userSpaceOnUse"><stop stop-color="#fff"/><stop offset=".45" stop-color="#E9F5F8"/><stop offset="1" stop-color="#828282"/></linearGradient><linearGradient id="paint9_linear_1_938" x1="138.115" y1="175.896" x2="179.048" y2="231.39" gradientUnits="userSpaceOnUse"><stop stop-color="#fff"/><stop offset="1"/></linearGradient><linearGradient id="paint10_linear_1_938" x1="-145.107" y1="284.36" x2="216.631" y2="261.431" gradientUnits="userSpaceOnUse"><stop stop-color="#FF848B"/><stop offset=".41" stop-color="#FF1422"/><stop offset=".94" stop-color="#D3000D"/></linearGradient><linearGradient id="paint11_linear_1_938" x1="117.672" y1="269.943" x2="159.331" y2="298.171" gradientUnits="userSpaceOnUse"><stop stop-color="#fff"/><stop offset="1"/></linearGradient><linearGradient id="paint12_linear_1_938" x1="96.431" y1="293.871" x2="214.897" y2="267.035" gradientUnits="userSpaceOnUse"><stop stop-color="#fff"/><stop offset=".45" stop-color="#E9F5F8"/><stop offset="1" stop-color="#828282"/></linearGradient><linearGradient id="paint13_linear_1_938" x1="-150.009" y1="207.174" x2="211.748" y2="184.249" gradientUnits="userSpaceOnUse"><stop stop-color="#F1FF98"/><stop offset=".448" stop-color="#D2F400"/><stop offset="1" stop-color="#91A800"/></linearGradient><linearGradient id="paint15_linear_1_938" x1="-13.755" y1="50.291" x2="106.345" y2="171.149" gradientUnits="userSpaceOnUse"><stop stop-color="#A9E7FF"/><stop offset=".41" stop-color="#32C5FF"/><stop offset=".94" stop-color="#0080B3"/></linearGradient><linearGradient id="paint16_linear_1_938" x1="100.781" y1="152.657" x2="-15.931" y2="105.274" gradientUnits="userSpaceOnUse"><stop stop-color="#fff"/><stop offset="1"/></linearGradient><linearGradient id="paint17_linear_1_938" x1="-24.91" y1="187.954" x2="163.559" y2="189.254" gradientUnits="userSpaceOnUse"><stop stop-color="#fff"/><stop offset=".45" stop-color="#E9F5F8"/><stop offset="1" stop-color="#828282"/></linearGradient><linearGradient id="paint18_linear_1_938" x1="103.206" y1="112.141" x2="170.061" y2="255.559" gradientUnits="userSpaceOnUse"><stop stop-color="#fff"/><stop offset=".45" stop-color="#E9F5F8"/><stop offset="1" stop-color="#828282"/></linearGradient><linearGradient id="paint19_linear_1_938" x1="393.851" y1="280.242" x2="166.789" y2="288.593" gradientUnits="userSpaceOnUse"><stop stop-color="#fff"/><stop offset=".45" stop-color="#E9F5F8"/><stop offset="1" stop-color="#828282"/></linearGradient><linearGradient id="paint20_linear_1_938" x1="177.634" y1="276.869" x2="236.331" y2="307.189" gradientUnits="userSpaceOnUse"><stop stop-color="#fff"/><stop offset="1"/></linearGradient><linearGradient id="paint21_linear_1_938" x1="358.326" y1="394.95" x2="206.225" y2="233.791" gradientUnits="userSpaceOnUse"><stop stop-color="#F5DEB1"/><stop offset=".41" stop-color="#E7B977"/><stop offset=".94" stop-color="#B42829"/></linearGradient><linearGradient id="paint22_linear_1_938" x1="282.14" y1="352.962" x2="181.677" y2="160.863" gradientUnits="userSpaceOnUse"><stop stop-color="#fff"/><stop offset="1"/></linearGradient><linearGradient id="paint23_linear_1_938" x1="278.189" y1="280.69" x2="236.101" y2="229.01" gradientUnits="userSpaceOnUse"><stop stop-color="#CE000C"/><stop offset=".41" stop-color="#FF1422"/><stop offset=".94" stop-color="#B42829"/></linearGradient><linearGradient id="paint24_linear_1_938" x1="261.385" y1="272.446" x2="228.049" y2="206.267" gradientUnits="userSpaceOnUse"><stop offset=".1" stop-color="#fff"/><stop offset=".17" stop-color="#F8F8F8"/><stop offset=".28" stop-color="#E5E5E5"/><stop offset=".41" stop-color="#C6C6C6"/><stop offset=".56" stop-color="#9A9A9A"/><stop offset=".72" stop-color="#636363"/><stop offset=".88" stop-color="#202020"/><stop offset=".96"/></linearGradient><linearGradient id="paint25_linear_1_938" x1="313.743" y1="287.405" x2="255.089" y2="233.977" gradientUnits="userSpaceOnUse"><stop stop-color="#F5DEB1"/><stop offset=".41" stop-color="#E7B977"/><stop offset=".94" stop-color="#B42829"/></linearGradient><linearGradient id="paint26_linear_1_938" x1="374.451" y1="287.912" x2="279.078" y2="250.591" gradientUnits="userSpaceOnUse"><stop stop-color="#fff"/><stop offset=".45" stop-color="#E9F5F8"/><stop offset="1" stop-color="#828282"/></linearGradient><linearGradient id="paint28_linear_1_938" x1="382.146" y1="247.238" x2="231.813" y2="199.015" gradientUnits="userSpaceOnUse"><stop stop-color="#CAF0FF"/><stop offset=".41" stop-color="#32C5FF"/><stop offset=".945" stop-color="#028EC6"/></linearGradient><linearGradient id="paint29_linear_1_938" x1="280.67" y1="215.062" x2="241.16" y2="198.783" gradientUnits="userSpaceOnUse"><stop offset=".1" stop-color="#fff"/><stop offset=".17" stop-color="#F8F8F8"/><stop offset=".28" stop-color="#E5E5E5"/><stop offset=".41" stop-color="#C6C6C6"/><stop offset=".56" stop-color="#9A9A9A"/><stop offset=".72" stop-color="#636363"/><stop offset=".88" stop-color="#202020"/><stop offset=".96"/></linearGradient><linearGradient id="paint30_linear_1_938" x1="183.5" y1="180.177" x2="236.796" y2="202.198" gradientUnits="userSpaceOnUse"><stop stop-color="#C0EDFF"/><stop offset=".41" stop-color="#6BD5FF"/><stop offset=".94" stop-color="#32C5FF"/></linearGradient><linearGradient id="paint31_linear_1_938" x1="226.602" y1="200.969" x2="251.366" y2="207.265" gradientUnits="userSpaceOnUse"><stop stop-color="#fff"/><stop offset="1"/></linearGradient><linearGradient id="paint32_linear_1_938" x1="297.151" y1="287.477" x2="202.355" y2="221.521" gradientUnits="userSpaceOnUse"><stop stop-color="#fff"/><stop offset=".45" stop-color="#E9F5F8"/><stop offset=".55" stop-color="#DAE5E7"/><stop offset=".75" stop-color="#B6BCBD"/><stop offset="1" stop-color="#828282"/></linearGradient><linearGradient id="paint33_linear_1_938" x1="169.844" y1="209.847" x2="308.376" y2="272.82" gradientUnits="userSpaceOnUse"><stop stop-color="#fff"/><stop offset="1"/></linearGradient><linearGradient id="paint34_linear_1_938" x1="170.808" y1="109.983" x2="255.184" y2="185.882" gradientUnits="userSpaceOnUse"><stop stop-color="#E4FF3C"/><stop offset=".41" stop-color="#DFFF13"/><stop offset=".94" stop-color="#91A800"/></linearGradient><linearGradient id="paint35_linear_1_938" x1="276.096" y1="198.851" x2="155.346" y2="109.651" gradientUnits="userSpaceOnUse"><stop stop-color="#DCFF00"/><stop offset=".521" stop-color="#7B8E00"/></linearGradient><linearGradient id="paint36_linear_1_938" x1="58.437" y1="17.453" x2="209.05" y2="110.223" gradientUnits="userSpaceOnUse"><stop stop-color="#EEFF83"/><stop offset=".459" stop-color="#E4FF3C"/><stop offset=".94" stop-color="#91A800"/></linearGradient><linearGradient id="paint38_linear_1_938" x1="211.382" y1="69.662" x2="239.47" y2="106.926" gradientUnits="userSpaceOnUse"><stop stop-color="#FF6A73"/><stop offset=".385" stop-color="#E6202B"/><stop offset=".94" stop-color="#BF1D1F"/></linearGradient><linearGradient id="paint39_linear_1_938" x1="237" y1="94.509" x2="235.142" y2="125.972" gradientUnits="userSpaceOnUse"><stop stop-color="#fff"/><stop offset="1"/></linearGradient><linearGradient id="paint40_linear_1_938" x1="176.465" y1="46.066" x2="224.776" y2="76.781" gradientUnits="userSpaceOnUse"><stop stop-color="#84DCFF"/><stop offset=".41" stop-color="#32C5FF"/><stop offset=".94" stop-color="#006E99"/></linearGradient><linearGradient id="paint41_linear_1_938" x1="130.183" y1="-7.746" x2="197.057" y2="77.522" gradientUnits="userSpaceOnUse"><stop stop-color="#EBFF71"/><stop offset=".41" stop-color="#E4FF3C"/><stop offset=".737" stop-color="#E2FD3A"/><stop offset=".94" stop-color="#91A800"/></linearGradient><linearGradient id="paint42_linear_1_938" x1="231.244" y1="91.923" x2="213.919" y2="78.484" gradientUnits="userSpaceOnUse"><stop stop-color="#86DDFF"/><stop offset=".41" stop-color="#32C5FF"/><stop offset=".94" stop-color="#0088BE"/></linearGradient><linearGradient id="paint43_linear_1_938" x1="217.224" y1="81.125" x2="199.684" y2="67.046" gradientUnits="userSpaceOnUse"><stop offset=".1" stop-color="#fff"/><stop offset=".17" stop-color="#F8F8F8"/><stop offset=".28" stop-color="#E5E5E5"/><stop offset=".41" stop-color="#C6C6C6"/><stop offset=".56" stop-color="#9A9A9A"/><stop offset=".72" stop-color="#636363"/><stop offset=".88" stop-color="#202020"/><stop offset=".96"/></linearGradient><linearGradient id="paint44_linear_1_938" x1="242.269" y1="102.785" x2="177.644" y2="65.34" gradientUnits="userSpaceOnUse"><stop stop-color="#FF646D"/><stop offset=".41" stop-color="#FF1422"/><stop offset=".94" stop-color="#BA000B"/></linearGradient><linearGradient id="paint45_linear_1_938" x1="233.468" y1="97.954" x2="195.134" y2="75.004" gradientUnits="userSpaceOnUse"><stop offset=".1" stop-color="#fff"/><stop offset=".17" stop-color="#F8F8F8"/><stop offset=".28" stop-color="#E5E5E5"/><stop offset=".41" stop-color="#C6C6C6"/><stop offset=".56" stop-color="#9A9A9A"/><stop offset=".72" stop-color="#636363"/><stop offset=".88" stop-color="#202020"/><stop offset=".96"/></linearGradient><linearGradient id="paint46_linear_1_938" x1="217.517" y1="89.987" x2="205.9" y2="107.372" gradientUnits="userSpaceOnUse"><stop offset=".1" stop-color="#fff"/><stop offset=".17" stop-color="#F8F8F8"/><stop offset=".28" stop-color="#E5E5E5"/><stop offset=".41" stop-color="#C6C6C6"/><stop offset=".56" stop-color="#9A9A9A"/><stop offset=".72" stop-color="#636363"/><stop offset=".88" stop-color="#202020"/><stop offset=".96"/></linearGradient><linearGradient id="paint47_linear_1_938" x1="152.747" y1="102.753" x2="187.02" y2="103.06" gradientUnits="userSpaceOnUse"><stop stop-color="#fff"/><stop offset=".45" stop-color="#E9F5F8"/><stop offset="1" stop-color="#828282"/></linearGradient><linearGradient id="paint48_linear_1_938" x1="213.626" y1="97.293" x2="217.2" y2="107.991" gradientUnits="userSpaceOnUse"><stop stop-color="#fff"/><stop offset="1"/></linearGradient><linearGradient id="paint49_linear_1_938" x1="199.227" y1="77.918" x2="153.334" y2="30.3" gradientUnits="userSpaceOnUse"><stop stop-color="#fff"/><stop offset="1"/></linearGradient><linearGradient id="paint50_linear_1_938" x1="184.497" y1="49.291" x2="192.116" y2="83.115" gradientUnits="userSpaceOnUse"><stop offset=".1" stop-color="#fff"/><stop offset=".17" stop-color="#F8F8F8"/><stop offset=".28" stop-color="#E5E5E5"/><stop offset=".41" stop-color="#C6C6C6"/><stop offset=".56" stop-color="#9A9A9A"/><stop offset=".72" stop-color="#636363"/><stop offset=".88" stop-color="#202020"/><stop offset=".96"/></linearGradient><linearGradient id="paint51_linear_1_938" x1="91.549" y1="54.524" x2="390.383" y2="201.635" gradientUnits="userSpaceOnUse"><stop stop-color="#fff"/><stop offset=".45" stop-color="#E9F5F8"/><stop offset="1" stop-color="#828282"/></linearGradient><linearGradient id="paint52_linear_1_938" x1="201.115" y1="101.003" x2="462.323" y2="407.117" gradientUnits="userSpaceOnUse"><stop stop-color="#E4FF40"/><stop offset=".41" stop-color="#C6E404"/><stop offset=".94" stop-color="#91A800"/></linearGradient><linearGradient id="paint53_linear_1_938" x1="396.517" y1="240.332" x2="267.011" y2="185.466" gradientUnits="userSpaceOnUse"><stop stop-color="#A8E6FF"/><stop offset=".41" stop-color="#32C5FF"/><stop offset=".94" stop-color="#008DC6"/></linearGradient><linearGradient id="paint54_linear_1_938" x1="308.362" y1="272.659" x2="271.605" y2="112.96" gradientUnits="userSpaceOnUse"><stop stop-color="#fff"/><stop offset="1"/></linearGradient><linearGradient id="paint55_linear_1_938" x1="280.682" y1="37.933" x2="290.243" y2="158.3" gradientUnits="userSpaceOnUse"><stop stop-color="#68D4FF"/><stop offset=".41" stop-color="#32C5FF"/><stop offset=".94" stop-color="#00A7EA"/></linearGradient><linearGradient id="paint57_linear_1_938" x1="406.298" y1="181.729" x2="301.479" y2="126.313" gradientUnits="userSpaceOnUse"><stop stop-color="#9CE3FF"/><stop offset=".41" stop-color="#2EBDF6"/><stop offset=".94" stop-color="#AFE8FF"/></linearGradient><linearGradient id="paint58_linear_1_938" x1="365.914" y1="100.528" x2="305.913" y2="145.01" gradientUnits="userSpaceOnUse"><stop stop-color="#2FBDF5"/><stop offset="1" stop-color="#18A9E2"/></linearGradient><linearGradient id="paint59_linear_1_938" x1="246.713" y1="64.261" x2="324.584" y2="193.295" gradientUnits="userSpaceOnUse"><stop stop-color="#fff"/><stop offset=".45" stop-color="#E9F5F8"/><stop offset="1" stop-color="#828282"/></linearGradient><linearGradient id="paint60_linear_1_938" x1="264.916" y1="46.561" x2="526.124" y2="352.676" gradientUnits="userSpaceOnUse"><stop stop-color="#31BCF3"/><stop offset=".211" stop-color="#1BBEFF"/><stop offset=".41" stop-color="#27BDFA"/><stop offset=".94" stop-color="#0076A5"/></linearGradient><linearGradient id="paint61_linear_1_938" x1="488.287" y1="158.64" x2="293.007" y2="163.251" gradientUnits="userSpaceOnUse"><stop stop-color="#fff"/><stop offset=".45" stop-color="#E9F5F8"/><stop offset="1" stop-color="#828282"/></linearGradient><linearGradient id="paint62_linear_1_938" x1="279.924" y1="115.179" x2="342.966" y2="316.444" gradientUnits="userSpaceOnUse"><stop stop-color="#fff"/><stop offset="1"/></linearGradient><linearGradient id="paint63_linear_1_938" x1="177.749" y1="132.217" x2="288.729" y2="174.517" gradientUnits="userSpaceOnUse"><stop stop-color="#fff"/><stop offset=".45" stop-color="#E9F5F8"/><stop offset="1" stop-color="#828282"/></linearGradient><linearGradient id="paint64_linear_1_938" x1="280.339" y1="170.08" x2="255.455" y2="162.987" gradientUnits="userSpaceOnUse"><stop offset=".1" stop-color="#fff"/><stop offset=".31" stop-color="#FCFCFC"/><stop offset=".44" stop-color="#F3F3F3"/><stop offset=".55" stop-color="#E4E4E4"/><stop offset=".65" stop-color="#CFCFCF"/><stop offset=".75" stop-color="#B4B4B4"/><stop offset=".83" stop-color="#939393"/><stop offset=".92" stop-color="#6C6C6C"/><stop offset=".99" stop-color="#3F3F3F"/><stop offset="1" stop-color="#3B3B3B"/></linearGradient><linearGradient id="paint65_linear_1_938" x1="43.205" y1="64.407" x2="322.147" y2="247.047" gradientUnits="userSpaceOnUse"><stop stop-color="#E4FF3C"/><stop offset=".41" stop-color="#DFFF13"/><stop offset=".94" stop-color="#718300"/></linearGradient><linearGradient id="paint66_linear_1_938" x1="66.053" y1="248.375" x2="247.579" y2="206.295" gradientUnits="userSpaceOnUse"><stop stop-color="#fff"/><stop offset=".45" stop-color="#E9F5F8"/><stop offset="1" stop-color="#828282"/></linearGradient><linearGradient id="paint67_linear_1_938" x1="-210.666" y1="263.762" x2="289.534" y2="214.699" gradientUnits="userSpaceOnUse"><stop stop-color="#fff"/><stop offset=".45" stop-color="#E9F5F8"/><stop offset="1" stop-color="#828282"/></linearGradient><linearGradient id="paint68_linear_1_938" x1="27.814" y1="90.248" x2="294.571" y2="273.676" gradientUnits="userSpaceOnUse"><stop stop-color="#8DF"/><stop offset=".41" stop-color="#32C5FF"/><stop offset=".94" stop-color="#009AD8"/></linearGradient><linearGradient id="paint69_linear_1_938" x1="-41.881" y1="112.435" x2="95.755" y2="182.281" gradientUnits="userSpaceOnUse"><stop stop-color="#87DDFF"/><stop offset=".41" stop-color="#32C5FF"/><stop offset=".94" stop-color="#008EC7"/></linearGradient><linearGradient id="paint70_linear_1_938" x1="115.31" y1="6.244" x2="414.171" y2="153.366" gradientUnits="userSpaceOnUse"><stop stop-color="#EEFF84"/><stop offset=".41" stop-color="#C2E100"/><stop offset=".94" stop-color="#91A800"/></linearGradient><linearGradient id="paint96_linear_1_938" x1="260.066" y1="90.11" x2="320.046" y2="121.749" gradientUnits="userSpaceOnUse"><stop stop-color="#fff"/><stop offset="1"/></linearGradient><linearGradient id="paint98_linear_1_938" x1="-101.134" y1="202.44" x2="139.075" y2="323.655" gradientUnits="userSpaceOnUse"><stop stop-color="#EAFF6B"/><stop offset=".41" stop-color="#E4FF3C"/><stop offset=".861" stop-color="#91A800"/></linearGradient><linearGradient id="paint99_linear_1_938" x1="5.788" y1="11.2" x2="77.386" y2="355.484" gradientUnits="userSpaceOnUse"><stop stop-color="#EFFF8B"/><stop offset=".41" stop-color="#E4FF3C"/><stop offset=".94" stop-color="#91A800"/></linearGradient><linearGradient id="paint100_linear_1_938" x1="73.637" y1="328.425" x2="29.258" y2="167.736" gradientUnits="userSpaceOnUse"><stop stop-color="#fff"/><stop offset="1"/></linearGradient><linearGradient id="paint101_linear_1_938" x1="73.106" y1="246.544" x2="62.066" y2="362.983" gradientUnits="userSpaceOnUse"><stop stop-color="#E5FF47"/><stop offset=".41" stop-color="#CBE818"/><stop offset=".94" stop-color="#91A800"/></linearGradient><linearGradient id="paint102_linear_1_938" x1="83.939" y1="211.741" x2="324.148" y2="332.956" gradientUnits="userSpaceOnUse"><stop stop-color="#FF9CA2"/><stop offset=".396" stop-color="#FF1422"/><stop offset=".94" stop-color="#C7000C"/></linearGradient><linearGradient id="paint103_linear_1_938" x1="190.861" y1="20.495" x2="262.459" y2="364.785" gradientUnits="userSpaceOnUse"><stop stop-color="#FF9197"/><stop offset=".41" stop-color="#FF1422"/><stop offset=".94" stop-color="#B4000B"/></linearGradient><linearGradient id="paint104_linear_1_938" x1="258.71" y1="337.727" x2="214.325" y2="177.031" gradientUnits="userSpaceOnUse"><stop stop-color="#fff"/><stop offset="1"/></linearGradient><linearGradient id="paint105_linear_1_938" x1="258.173" y1="255.846" x2="247.138" y2="372.284" gradientUnits="userSpaceOnUse"><stop stop-color="#FF4550"/><stop offset=".41" stop-color="#FF1422"/><stop offset=".94" stop-color="#960009"/></linearGradient><radialGradient id="paint3_radial_1_938" cx="0" cy="0" r="1" gradientUnits="userSpaceOnUse" gradientTransform="rotate(-45.068 341.709 27.332) scale(78.445 78.4447)"><stop stop-color="#fff"/><stop offset=".33" stop-color="#FDFDFD"/><stop offset=".45" stop-color="#F6F6F6"/><stop offset=".53" stop-color="#EAEAEA"/><stop offset=".6" stop-color="#D9D9D9"/><stop offset=".66" stop-color="#C3C3C3"/><stop offset=".71" stop-color="#A8A8A8"/><stop offset=".76" stop-color="#878787"/><stop offset=".8" stop-color="#626262"/><stop offset=".84" stop-color="#373737"/><stop offset=".88" stop-color="#090909"/><stop offset=".89"/></radialGradient><radialGradient id="paint5_radial_1_938" cx="0" cy="0" r="1" gradientUnits="userSpaceOnUse" gradientTransform="matrix(28.17758 -28.24455 28.2444 28.17744 106.549 93.34)"><stop stop-color="#fff"/><stop offset=".33" stop-color="#FDFDFD"/><stop offset=".45" stop-color="#F6F6F6"/><stop offset=".53" stop-color="#EAEAEA"/><stop offset=".6" stop-color="#D9D9D9"/><stop offset=".66" stop-color="#C3C3C3"/><stop offset=".71" stop-color="#A8A8A8"/><stop offset=".76" stop-color="#878787"/><stop offset=".8" stop-color="#626262"/><stop offset=".84" stop-color="#373737"/><stop offset=".88" stop-color="#090909"/><stop offset=".89"/></radialGradient><radialGradient id="paint14_radial_1_938" cx="0" cy="0" r="1" gradientUnits="userSpaceOnUse" gradientTransform="matrix(40.1313 -40.22653 40.22638 40.13115 50.857 214.777)"><stop stop-color="#fff"/><stop offset=".33" stop-color="#FDFDFD"/><stop offset=".45" stop-color="#F6F6F6"/><stop offset=".53" stop-color="#EAEAEA"/><stop offset=".6" stop-color="#D9D9D9"/><stop offset=".66" stop-color="#C3C3C3"/><stop offset=".71" stop-color="#A8A8A8"/><stop offset=".76" stop-color="#878787"/><stop offset=".8" stop-color="#626262"/><stop offset=".84" stop-color="#373737"/><stop offset=".88" stop-color="#090909"/><stop offset=".89"/></radialGradient><radialGradient id="paint27_radial_1_938" cx="0" cy="0" r="1" gradientUnits="userSpaceOnUse" gradientTransform="matrix(41.3874 -41.48575 41.48568 41.38732 280.158 266.65)"><stop stop-color="#fff"/><stop offset=".33" stop-color="#FDFDFD"/><stop offset=".45" stop-color="#F6F6F6"/><stop offset=".53" stop-color="#EAEAEA"/><stop offset=".6" stop-color="#D9D9D9"/><stop offset=".66" stop-color="#C3C3C3"/><stop offset=".71" stop-color="#A8A8A8"/><stop offset=".76" stop-color="#878787"/><stop offset=".8" stop-color="#626262"/><stop offset=".84" stop-color="#373737"/><stop offset=".88" stop-color="#090909"/><stop offset=".89"/></radialGradient><radialGradient id="paint37_radial_1_938" cx="0" cy="0" r="1" gradientUnits="userSpaceOnUse" gradientTransform="rotate(-45.068 100.983 -125.865) scale(75.5533 75.5531)"><stop stop-color="#fff"/><stop offset=".33" stop-color="#FDFDFD"/><stop offset=".45" stop-color="#F6F6F6"/><stop offset=".53" stop-color="#EAEAEA"/><stop offset=".6" stop-color="#D9D9D9"/><stop offset=".66" stop-color="#C3C3C3"/><stop offset=".71" stop-color="#A8A8A8"/><stop offset=".76" stop-color="#878787"/><stop offset=".8" stop-color="#626262"/><stop offset=".84" stop-color="#373737"/><stop offset=".88" stop-color="#090909"/><stop offset=".89"/></radialGradient><radialGradient id="paint56_radial_1_938" cx="0" cy="0" r="1" gradientUnits="userSpaceOnUse" gradientTransform="rotate(-45.068 252.06 -313.823) scale(66.6712 66.671)"><stop stop-color="#fff"/><stop offset=".33" stop-color="#FDFDFD"/><stop offset=".45" stop-color="#F6F6F6"/><stop offset=".53" stop-color="#EAEAEA"/><stop offset=".6" stop-color="#D9D9D9"/><stop offset=".66" stop-color="#C3C3C3"/><stop offset=".71" stop-color="#A8A8A8"/><stop offset=".76" stop-color="#878787"/><stop offset=".8" stop-color="#626262"/><stop offset=".84" stop-color="#373737"/><stop offset=".88" stop-color="#090909"/><stop offset=".89"/></radialGradient><radialGradient id="paint71_radial_1_938" cx="0" cy="0" r="1" gradientUnits="userSpaceOnUse" gradientTransform="matrix(41.48613 -41.58472 41.58465 41.48606 109.325 30.362)"><stop stop-color="#fff"/><stop offset="1"/></radialGradient><radialGradient id="paint72_radial_1_938" cx="0" cy="0" r="1" gradientUnits="userSpaceOnUse" gradientTransform="matrix(32.97716 -33.05553 33.05546 32.9771 161.94 1.373)"><stop stop-color="#fff"/><stop offset="1"/></radialGradient><radialGradient id="paint73_radial_1_938" cx="0" cy="0" r="1" gradientUnits="userSpaceOnUse" gradientTransform="matrix(36.46534 -36.55187 36.5518 36.46527 174.478 56.547)"><stop stop-color="#fff"/><stop offset="1"/></radialGradient><radialGradient id="paint74_radial_1_938" cx="0" cy="0" r="1" gradientUnits="userSpaceOnUse" gradientTransform="rotate(-45.068 384.167 -95.277) scale(33.2461 33.246)"><stop stop-color="#fff"/><stop offset="1"/></radialGradient><radialGradient id="paint75_radial_1_938" cx="0" cy="0" r="1" gradientUnits="userSpaceOnUse" gradientTransform="matrix(41.26895 -41.36688 41.36674 41.26881 182.24 117.673)"><stop stop-color="#F9EF79"/><stop offset="1"/></radialGradient><radialGradient id="paint76_radial_1_938" cx="0" cy="0" r="1" gradientUnits="userSpaceOnUse" gradientTransform="matrix(34.68773 -34.77005 34.76997 34.68766 172.59 116.893)"><stop stop-color="#F9EF79"/><stop offset="1"/></radialGradient><radialGradient id="paint77_radial_1_938" cx="0" cy="0" r="1" gradientUnits="userSpaceOnUse" gradientTransform="matrix(40.77916 -40.87592 40.87578 40.77901 226.231 141.986)"><stop stop-color="#F9EF79"/><stop offset="1"/></radialGradient><radialGradient id="paint78_radial_1_938" cx="0" cy="0" r="1" gradientUnits="userSpaceOnUse" gradientTransform="matrix(34.94446 -35.02738 35.02731 34.94439 227.057 147.43)"><stop stop-color="#F9EF79"/><stop offset="1"/></radialGradient><radialGradient id="paint79_radial_1_938" cx="0" cy="0" r="1" gradientUnits="userSpaceOnUse" gradientTransform="matrix(59.48767 -59.62905 59.6289 59.48753 183.339 281.447)"><stop stop-color="#fff"/><stop offset="1"/></radialGradient><radialGradient id="paint80_radial_1_938" cx="0" cy="0" r="1" gradientUnits="userSpaceOnUse" gradientTransform="rotate(-45.068 223.247 -160.42) scale(31.0032)"><stop stop-color="#F9EF79"/><stop offset="1"/></radialGradient><radialGradient id="paint81_radial_1_938" cx="0" cy="0" r="1" gradientUnits="userSpaceOnUse" gradientTransform="matrix(32.96931 -33.04755 33.04748 32.96924 217.138 100.884)"><stop stop-color="#F9EF79"/><stop offset="1"/></radialGradient><radialGradient id="paint82_radial_1_938" cx="0" cy="0" r="1" gradientUnits="userSpaceOnUse" gradientTransform="rotate(-45.068 320.19 11.172) scale(82.0973 82.0971)"><stop/><stop offset="1" stop-color="#F5F5F5"/></radialGradient><radialGradient id="paint83_radial_1_938" cx="0" cy="0" r="1" gradientUnits="userSpaceOnUse" gradientTransform="matrix(26.36834 -26.431 26.43093 26.36827 85.351 232.746)"><stop stop-color="#fff"/><stop offset="1"/></radialGradient><radialGradient id="paint84_radial_1_938" cx="0" cy="0" r="1" gradientUnits="userSpaceOnUse" gradientTransform="matrix(52.4601 -52.58478 52.58463 52.45996 71.556 212.282)"><stop stop-color="#F9EF79"/><stop offset="1"/></radialGradient><radialGradient id="paint85_radial_1_938" cx="0" cy="0" r="1" gradientUnits="userSpaceOnUse" gradientTransform="matrix(58.07757 -58.21539 58.21525 58.07743 86.113 230.033)"><stop/><stop offset="1" stop-color="#F5F5F5"/></radialGradient><radialGradient id="paint86_radial_1_938" cx="0" cy="0" r="1" gradientUnits="userSpaceOnUse" gradientTransform="matrix(21.624 -21.67538 21.6753 21.62392 90.123 239.85)"><stop stop-color="#fff"/><stop offset="1"/></radialGradient><radialGradient id="paint87_radial_1_938" cx="0" cy="0" r="1" gradientUnits="userSpaceOnUse" gradientTransform="rotate(-45.068 291.176 20.076) scale(75.3407 75.3405)"><stop stop-color="#F9EF79"/><stop offset="1"/></radialGradient><radialGradient id="paint88_radial_1_938" cx="0" cy="0" r="1" gradientUnits="userSpaceOnUse" gradientTransform="matrix(11.8391 -11.8672 11.86713 11.83903 98.691 279.244)"><stop stop-color="#F9EF79"/><stop offset="1"/></radialGradient><radialGradient id="paint89_radial_1_938" cx="0" cy="0" r="1" gradientUnits="userSpaceOnUse" gradientTransform="rotate(-45.068 401.74 7.667) scale(51.4521 51.4519)"><stop stop-color="#F9EF79"/><stop offset="1"/></radialGradient><radialGradient id="paint90_radial_1_938" cx="0" cy="0" r="1" gradientUnits="userSpaceOnUse" gradientTransform="rotate(-45.068 267.36 -47.626) scale(58.6897 58.6895)"><stop stop-color="#F9EF79"/><stop offset="1"/></radialGradient><radialGradient id="paint91_radial_1_938" cx="0" cy="0" r="1" gradientUnits="userSpaceOnUse" gradientTransform="rotate(-45.068 275.322 -54.103) scale(23.3237)"><stop stop-color="#F9EF79"/><stop offset="1"/></radialGradient><radialGradient id="paint92_radial_1_938" cx="0" cy="0" r="1" gradientUnits="userSpaceOnUse" gradientTransform="matrix(31.56306 -31.63796 31.63782 31.56292 64.825 146.702)"><stop stop-color="#F9EF79"/><stop offset="1"/></radialGradient><radialGradient id="paint93_radial_1_938" cx="0" cy="0" r="1" gradientUnits="userSpaceOnUse" gradientTransform="matrix(25.4203 -25.48061 25.48054 25.42022 23.355 125.343)"><stop stop-color="#F9EF79"/><stop offset="1"/></radialGradient><radialGradient id="paint94_radial_1_938" cx="0" cy="0" r="1" gradientUnits="userSpaceOnUse" gradientTransform="matrix(25.11215 -25.17174 25.17167 25.11208 281.342 148.523)"><stop stop-color="#F9EF79"/><stop offset="1"/></radialGradient><radialGradient id="paint95_radial_1_938" cx="0" cy="0" r="1" gradientUnits="userSpaceOnUse" gradientTransform="rotate(-45.068 312.28 -273.224) scale(32.2114 32.2113)"><stop stop-color="#F9EF79"/><stop offset="1"/></radialGradient><radialGradient id="paint97_radial_1_938" cx="0" cy="0" r="1" gradientUnits="userSpaceOnUse" gradientTransform="rotate(-45.068 455.683 -176.133) scale(166.941)"><stop stop-color="#F9EF79"/><stop offset="1"/></radialGradient></defs></svg>