<svg width="67" height="58" fill="none" xmlns="http://www.w3.org/2000/svg"><path d="M56.313 0H11.148a4.49 4.49 0 00-4.494 4.483V26.49a4.49 4.49 0 004.494 4.482h33.233l6.901 6.884v-6.884h5.027a4.49 4.49 0 004.494-4.482V4.483A4.49 4.49 0 0056.309 0h.004z" fill="url(#paint0_linear_1_556)"/><path d="M54.087 8.676H14.352a.867.867 0 01-.866-.864c0-.475.39-.864.866-.864h39.736c.476 0 .865.389.865.864s-.39.864-.866.864zm-10.364 7.428H14.352a.867.867 0 01-.866-.864c0-.475.39-.864.866-.864h29.37c.477 0 .867.39.867.864 0 .475-.39.864-.866.864zm0 7.428H14.352a.867.867 0 01-.866-.864c0-.475.39-.864.866-.864h29.37c.477 0 .867.389.867.864s-.39.864-.866.864z" fill="#fff"/><path d="M61.253 11.349c2.818 0 5.109 2.289 5.109 5.096V43.59c0 2.811-2.295 5.096-5.11 5.096H55.05a.434.434 0 00-.433.431v7.45l-7.776-7.756a.429.429 0 00-.307-.125H5.542c-2.819 0-5.11-2.29-5.11-5.096V16.445c0-2.812 2.296-5.096 5.11-5.096h55.707m0-.432H5.542C2.48 10.917 0 13.392 0 16.445V43.59c0 3.053 2.48 5.527 5.542 5.527h40.99l8.513 8.49v-8.49h6.204c3.06 0 5.541-2.474 5.541-5.527V16.445a5.534 5.534 0 00-5.541-5.528z" fill="#fff"/><path d="M13.14 39.674a2.5 2.5 0 10-5 0 2.499 2.499 0 105 0zm11 0a2.5 2.5 0 10-5 0 2.499 2.499 0 105 0zm11 0a2.5 2.5 0 10-5 0 2.499 2.499 0 105 0z" fill="#fff" opacity=".6"/><defs><linearGradient id="paint0_linear_1_556" x1="45.333" y1=".013" x2="23.84" y2="29.534" gradientUnits="userSpaceOnUse"><stop offset=".341" stop-color="#32C5FF"/><stop offset=".958" stop-color="#DFFF13"/></linearGradient></defs></svg>