<svg width="61" height="70" fill="none" xmlns="http://www.w3.org/2000/svg"><path d="M53.306 3.555v34.473c0 1.965-1.6 3.555-3.578 3.555H3.792a3.564 3.564 0 01-3.574-3.555V3.555C.218 1.59 1.818 0 3.792 0h45.936c1.978 0 3.578 1.59 3.578 3.555z" fill="url(#paint0_linear_1_592)"/><path d="M53.306 16.94v21.088c0 1.965-1.6 3.555-3.578 3.555H3.792a3.564 3.564 0 01-3.574-3.555v-11.2s10.363 10.2 23.189 3.306c12.822-6.89 20.762-13.808 29.9-13.195z" fill="#2E025A" opacity=".2"/><path d="M45.465 6.111H6.219a.762.762 0 01-.762-.757.76.76 0 01.762-.757h39.246c.419 0 .762.34.762.757a.762.762 0 01-.762.757zm-17.23 10.26H6.215a.762.762 0 01-.762-.757c0-.416.343-.757.762-.757h22.02c.419 0 .762.34.762.757a.762.762 0 01-.762.757zm14.079-5.418H6.215a.762.762 0 01-.762-.757c0-.416.343-.757.762-.757h36.099c.419 0 .762.34.762.757a.762.762 0 01-.762.757z" fill="#fff"/><path d="M19.261 22.752H6.881c-.768 0-1.39.618-1.39 1.381v10.62c0 .764.622 1.382 1.39 1.382h12.38c.768 0 1.39-.618 1.39-1.381v-10.62c0-.764-.622-1.383-1.39-1.383z" fill="#fff" opacity=".6"/><path d="M51.698 56.535l-3.711 3.21-7.56-8.64-2.286-2.604a18.986 18.986 0 001.955-1.488 19.22 19.22 0 001.753-1.719l2.286 2.605 7.567 8.64-.004-.004z" fill="url(#paint1_linear_1_592)"/><path d="M44.135 47.895a24.288 24.288 0 01-1.776 1.7 23.3 23.3 0 01-1.932 1.51l-2.286-2.604a18.986 18.986 0 001.955-1.488 19.22 19.22 0 001.753-1.719l2.286 2.605v-.004z" fill="#2B9EDE" opacity=".2"/><mask id="a" style="mask-type:luminance" maskUnits="userSpaceOnUse" x="7" y="12" width="40" height="40"><path d="M36.763 49.35c9.576-5.329 12.992-17.363 7.629-26.88-5.363-9.515-17.475-12.91-27.052-7.58-9.576 5.33-12.992 17.364-7.629 26.88 5.363 9.516 17.475 12.91 27.052 7.58z" fill="#fff"/></mask><g mask="url(#a)"><path d="M46.999 7.039H2.204V51.55h44.795V7.039z" fill="#fff" opacity=".6"/></g><path d="M27.23 44.83c7.072-.096 12.726-5.871 12.628-12.899-.097-7.027-5.91-12.645-12.981-12.548-7.073.097-12.727 5.872-12.63 12.9.098 7.027 5.91 12.645 12.983 12.548z" fill="#fff" opacity=".6"/><path d="M36.896 32.951h-.008a.757.757 0 01-.754-.764 8.944 8.944 0 00-2.606-6.403 9.05 9.05 0 00-6.401-2.696.757.757 0 11.007-1.514h.008a10.572 10.572 0 017.476 3.146 10.44 10.44 0 013.044 7.478c0 .416-.343.75-.762.75l-.004.003z" fill="#fff"/><path d="M42.302 53.876l4.332-3.745a1.35 1.35 0 011.892.13L59.06 62.288a2.928 2.928 0 01-.29 4.145l-1.894 1.638a2.973 2.973 0 01-4.171-.287L42.17 55.757a1.329 1.329 0 01.131-1.88z" fill="url(#paint2_linear_1_592)"/><path d="M27.042 12.744A19.555 19.555 0 0141.758 19.4c3.417 3.904 5.102 8.894 4.74 14.058-.362 5.16-2.72 9.875-6.65 13.27a19.559 19.559 0 01-12.787 4.76 19.554 19.554 0 01-14.715-6.656c-3.418-3.904-5.102-8.894-4.74-14.058.362-5.164 2.72-9.874 6.649-13.27a19.56 19.56 0 0112.787-4.76zm0-.378a19.888 19.888 0 00-13.039 4.85c-8.28 7.16-9.152 19.635-1.947 27.862 3.929 4.486 9.45 6.785 15.002 6.785 4.625 0 9.274-1.598 13.038-4.85 8.28-7.16 9.153-19.635 1.948-27.862-3.929-4.487-9.45-6.785-15.002-6.785z" fill="#fff"/><defs><linearGradient id="paint0_linear_1_592" x1="52.796" y1="20.035" x2=".463" y2="24.18" gradientUnits="userSpaceOnUse"><stop offset=".23" stop-color="#32C5FF"/><stop offset=".847" stop-color="#DFFF13"/></linearGradient><linearGradient id="paint1_linear_1_592" x1="49.855" y1="56.584" x2="40.896" y2="48.598" gradientUnits="userSpaceOnUse"><stop offset=".461" stop-color="#E4FF3C"/><stop offset="1" stop-color="#32C5FF"/></linearGradient><linearGradient id="paint2_linear_1_592" x1="44.577" y1="52.5" x2="56.702" y2="67.704" gradientUnits="userSpaceOnUse"><stop offset=".23" stop-color="#32C5FF"/><stop offset=".847" stop-color="#DFFF13"/></linearGradient></defs></svg>