<svg width="61" height="60" fill="none" xmlns="http://www.w3.org/2000/svg"><path d="M57.734 10.787H12.25a3.262 3.262 0 00-3.265 3.258V41.18c0 1.8 1.462 3.259 3.265 3.259h45.484A3.262 3.262 0 0061 41.179V14.045c0-1.8-1.462-3.258-3.266-3.258z" fill="url(#paint0_linear_1_571)"/><path d="M56.285 13.947h-7.092c-.58 0-1.05.47-1.05 1.049v3.374c0 .58.47 1.05 1.05 1.05h7.092c.58 0 1.051-.47 1.051-1.05v-3.375c0-.579-.47-1.048-1.05-1.048zM61 32.004H8.984v5.67h52.014v-5.67z" fill="#fff" opacity=".6"/><path d="M57.34 24.36H13.03a.707.707 0 01-.705-.703c0-.388.317-.704.705-.704h44.31c.387 0 .704.316.704.704a.707.707 0 01-.705.703zm-26.27 5.085H13.03a.707.707 0 01-.705-.704c0-.387.317-.703.705-.703h18.04c.389 0 .706.316.706.703a.707.707 0 01-.705.704zM57.163 41.28h-9.02a.707.707 0 01-.706-.703c0-.387.317-.704.705-.704h9.02c.389 0 .706.317.706.704a.707.707 0 01-.705.704z" fill="#fff"/><path d="M40.222.352a2.96 2.96 0 012.959 2.953v53.39a2.96 2.96 0 01-2.959 2.953H3.312a2.96 2.96 0 01-2.96-2.953V3.305A2.96 2.96 0 013.313.352h36.91zm0-.352H3.312A3.308 3.308 0 000 3.305v53.39A3.308 3.308 0 003.311 60h36.911a3.308 3.308 0 003.312-3.305V3.305A3.308 3.308 0 0040.222 0z" fill="#fff"/><path d="M14.617 56.146c5.58 0 10.104-4.514 10.104-10.082 0-5.569-4.524-10.083-10.104-10.083-5.58 0-10.103 4.514-10.103 10.083 0 5.568 4.524 10.082 10.103 10.082z" fill="#fff" opacity=".6"/><path d="M17.352 52.65c3.645-1.507 5.377-5.678 3.867-9.316-1.51-3.638-5.69-5.366-9.335-3.859-3.646 1.507-5.377 5.678-3.867 9.316 1.51 3.638 5.69 5.366 9.335 3.859zm-4.305-42.594A3.477 3.477 0 006.28 8.462a3.477 3.477 0 006.768 1.594zm12.535 0a3.477 3.477 0 00-6.768-1.594 3.47 3.47 0 002.585 4.174 3.477 3.477 0 004.183-2.58zm12.535-.003a3.47 3.47 0 00-2.585-4.174 3.47 3.47 0 10-1.597 6.754 3.477 3.477 0 004.182-2.58z" fill="#fff" opacity=".6"/><defs><linearGradient id="paint0_linear_1_571" x1="60.5" y1="27" x2="9.374" y2="31.903" gradientUnits="userSpaceOnUse"><stop offset=".1" stop-color="#DFFF13"/><stop offset=".796" stop-color="#32C5FF"/></linearGradient></defs></svg>