<svg width="9" height="9" fill="none" xmlns="http://www.w3.org/2000/svg"><path d="M8.5 2.095a.084.084 0 00.032-.03.076.076 0 000-.08.084.084 0 00-.032-.029L5.196.174a1.47 1.47 0 00-1.392 0L.5 1.956a.084.084 0 00-.031.03.076.076 0 000 .08.084.084 0 00.031.03l3.957 2.16a.092.092 0 00.088 0L8.5 2.096zm-8.37.547a.092.092 0 00-.087 0 .084.084 0 00-.032.03.076.076 0 00-.011.04v3.493a.91.91 0 00.139.48c.09.145.22.266.377.351L4.024 8.99a.092.092 0 00.087 0 .084.084 0 00.031-.03.076.076 0 00.012-.04V4.868a.076.076 0 00-.012-.04.084.084 0 00-.031-.03L.13 2.643zm4.716 2.24v4.037c0 .014.004.028.012.04a.084.084 0 00.031.03.092.092 0 00.087 0l3.508-1.954a.996.996 0 00.377-.351.912.912 0 00.139-.48V2.713a.076.076 0 00-.012-.04.084.084 0 00-.031-.03.092.092 0 00-.087 0l-3.98 2.17a.084.084 0 00-.032.03.076.076 0 00-.012.04z" fill="#32C5FF"/></svg>