<svg width="126" height="37" fill="none" xmlns="http://www.w3.org/2000/svg"><mask id="a" style="mask-type:luminance" maskUnits="userSpaceOnUse" x="0" y="0" width="27" height="32"><path d="M0 0v31.488h26.776V0H0z" fill="#fff"/></mask><g mask="url(#a)"><path d="M26.647 15.251l-3.968 2.462-6.516 12.436-.044.085-.09.036-2.938 1.166-.135.053-.116-.083-.76-.546a149.877 149.877 0 01-3.763-2.801c-1.368-1.06-2.547-2.053-2.701-2.433C5.293 24.82.1 14.676.086 14.647l-.003-.01H.08c-.006-.014-.26-1.006.173-1.543 0 0 15.304-12.883 15.542-12.99.561-.254 1.21.036 1.213.037 0 0 7.837 4.722 9.22 5.589.653.408.54 1.326.54 1.326v7.975h-.26l.14.22z" fill="#141414"/></g><path d="M9.89 20.019c-.401-.131-1.99-1.12-2.443-1.394-.77-.464-2.32-1.036-1.144-1.996a58.97 58.97 0 002.118-1.8c2.256-2.033 2.077-1.67 4.94.044 2.006 1.2 2.17 1.036.112 2.933l-1.042.916c-.537.435-1.443 1.655-2.541 1.297z" fill="#FDFEFF"/><path d="M4.299 16.586c-.563-.238-1.68-1.165-2.213-1.555-1.477-1.08-2.112-1.114.172-2.925 1.188-.94 2.515-2.583 3.588-2.086l2.238 1.52c1.059.726 1.802.924.685 2.021l-3.035 2.672c-.321.269-.856.596-1.435.353zm5.649-5.101c-.701-.35-1.534-.989-2.224-1.458-.828-.565-1.882-.977-.7-1.929l2.995-2.542c1.132-.912 2.217.283 3.67 1.185 1.57.975 1.797 1.106-.294 2.757-1.106.873-2.325 2.547-3.447 1.987zm8.842 1.64c-.756.362-2.417.687-2.87 1.158.016.458.135.467.466.665-1.196-.029-.683.12-2.272-.832-2.394-1.43-3.29-1.398-1.332-3.017.602-.5 1.135-1.044 1.739-1.498.522-.393 1.087-1.26 2.207-.877.395.134 1.649.941 2.054 1.18 1.462.862 2.434 1.105.85 2.397-.173.143-.233.213-.397.367-.108.101-.142.119-.226.198l-.092.09c-.113.128-.028 0-.126.17z" fill="#E4FF3C"/><path d="M21.105 10.083c-.378-.104-2.868-1.573-3.444-1.95-1.087-.715.418-1.539 1.364-2.375.223-.196.267-.258.5-.435.202-.15.254-.237.448-.403.207-.174.316-.232.515-.422 1.115-1.06 2.22-.052 3.694.822 2.114 1.255 1.98 1.165.225 2.726-.165.148-.251.275-.429.422L22.524 9.74c-.346.334-.841.5-1.42.343z" fill="#FDFEFF"/><path d="M15.431 6.639c-.785-.382-1.483-.886-2.191-1.32-.79-.487-1.889-.888-.786-1.836.614-.528 1.247-1.056 1.898-1.596.522-.433 1.335-1.479 2.447-1.034.495.198 1.657.971 2.205 1.288 1.051.613 2 .919.199 2.269-1.174.878-2.515 2.841-3.772 2.229z" fill="#E4FF3C"/><path d="M11.119 25.04c-.492-.027-3.04-1.73-3.492-2.112-.665-.56-1-1.823-1.361-2.808-.615-1.678-.177-1.288 1.57-.2 1.537.957 2.597 1.265 2.881 2.75.095.492.453 1.955.402 2.37zm-6.586-7.182c.587.72.663 1.073.974 1.923.182.496.721 1.759.755 2.225-.48-.086-2.797-1.956-3.263-2.624-.229-.326-2.004-3.807-1.842-3.967.376-.372 3.22 2.253 3.376 2.444zm3.013 5.682c.537-.059 2.3 1.287 2.795 1.612.387.255.947.694 1.085 1.137.097.312.344 1.576.348 1.888-.399-.042-2.219-1.384-2.685-1.696-.55-.37-.714-.515-.97-1.243-.186-.525-.508-1.234-.573-1.699z" fill="#2DAFE2"/><path d="M3.698 20.652c.336.12 2.028 1.49 2.43 1.815.627.508 1.252 1.955 1.385 2.835-.345-.055-2.14-1.515-2.414-1.814-.28-.306-1.399-2.3-1.4-2.836z" fill="#FDFEFF"/><path d="M8.669 26.686c.416-.02 2.937 1.792 3.21 2.199.208.312.317 1.093.328 1.53-.395-.04-1.782-1.152-2.205-1.448-.785-.55-1.07-1.058-1.333-2.28z" fill="#2DAFE2"/><path d="M5.319 24.056c.359.105 1.476 1.092 1.892 1.406.398.298.543.398.731.875.125.314.394.96.423 1.238-.277-.031-1.633-1.152-1.881-1.391-.268-.258-.456-.556-.65-.962-.155-.328-.46-.801-.515-1.166z" fill="#FDFEFF"/><path d="M14.917 14.714s0-.005.003-.013l.038-.196h.025a1.67 1.67 0 011.028-.984c.69-.238 2.247-.787 4.075-1.432 3.82-1.347 8.838-3.117 10.036-3.487.335-.104.713-.09.877-.009.164.082 4.383 2.2 4.842 2.656.487.484.157 1.403.144 1.437l-.012.039c-.275.901-4.065 13.31-4.683 15.524-.135.483-.592.971-.592.971l-13.635 7.685s-.13.095-.398.095c-.266 0-.442-.093-.442-.093s-4.83-2.47-4.83-2.998c0-.778 3.513-19.139 3.523-19.193l.001-.002z" fill="#141414"/><path d="M18.436 23.144c-.385-.127-1.682-.993-2.096-1.238-2.349-1.391-2.066-1.193-1.459-4.389.149-.784.145-2.464 1.213-2.082.368.132 1.669.97 2.111 1.229.624.366 1.649.778 1.834 1.553.131.554-.515 3.336-.688 4.218-.101.516-.305.908-.915.709z" fill="#32C5FF"/><path d="M17.112 29.636c-.672-.313-1.475-.857-2.104-1.242-2.358-1.439-1.975-1.18-1.385-4.341.138-.737.122-2.376 1.165-1.966.524.207 1.526.913 2.083 1.236 2.338 1.351 2.064 1.149 1.428 4.355-.154.777-.176 2.429-1.187 1.958zm-1.162 6.516c-.756-.355-2.234-1.334-3.11-1.87-1.335-.818-.945-1.299-.498-3.615.616-3.198.28-2.496 4.208-.233 1.36.782.882 1.775.463 3.694-.158.729-.205 2.425-1.064 2.023" fill="#FDFEFF"/><path d="M20.069 23.635c-.426-.286.17-2.124.291-2.652.652-2.86.405-2.944 2.77-3.854.376-.146 2.19-.957 2.472-.783.468.291-.946 4.876-1.125 5.162-.434.694-1.223.894-2.057 1.276-.408.186-2.033 1.065-2.351.851z" fill="#FF1321"/><path d="M20.634 17.007c-.874-.156-1.66-.713-2.34-1.117-2.704-1.611-3.34-1.487-.313-2.518 2.913-.992 2.348-1.104 5.049.369 3.063 1.668 2.805 1.504.154 2.595-.725.299-1.662.83-2.55.67z" fill="#FDFEFF"/><path d="M18.504 30.137c-.274-.296.621-4.306 1.162-5.003.518-.667 4.032-2.23 4.295-1.975.272.264-.354 2.16-.455 2.566-.21.843-.339 1.808-.859 2.367-.372.402-.35.384-.896.633-.639.293-2.976 1.705-3.247 1.412z" fill="#32C5FF"/><path d="M25.58 21.134c-.33-.319.274-2.017.392-2.467.16-.611.41-1.873.686-2.371.448-.81.916-.894 1.827-1.247.36-.14 2.04-.93 2.29-.684.282.278-.94 4.315-1.173 4.761-.399.768-.927.857-1.81 1.258-.569.257-1.93 1.02-2.212.75z" fill="#FF1321"/><path d="M21.954 12.16c.25-.425 1.555-.74 2.15-.95 2.266-.797 2.007-.632 4.447.698.373.202.64.365.987.549 1.654.877.766.961-1.14 1.746-2.209.91-2.182.63-4.582-.736-.54-.308-1.685-.748-1.862-1.307z" fill="#E4FF3C"/><path d="M22.398 29.383c.168.413-.322 1.946-.445 2.429-.209.814-.378 1.709-.84 2.225-.303.342-1.335.878-1.883 1.18-.33.182-1.752 1.151-2.09.967-.363-.198-.04-.905.031-1.225.832-3.727.478-3.313 2.992-4.666.435-.235 1.663-1.035 2.235-.91z" fill="#32C5FF"/><path d="M29.015 20.851c.104.606-.954 4.113-1.275 4.58-.418.604-1.012.784-1.8 1.186-2.526 1.286-2.381 1.326-1.62-1.597.628-2.408.41-2.492 2.536-3.43.442-.196 1.652-.956 2.16-.739m1.507-1.828c-.31-.48.19-1.593.36-2.186.203-.697.402-1.577.643-2.24.307-.841.726-1.013 1.56-1.336 2.721-1.053 2.672-1.315 1.8 1.435-.769 2.428-.417 2.695-2.263 3.532-.453.205-1.662.84-2.1.795z" fill="#FF1321"/><path d="M22.364 33.194c-.197-.16.737-3.845 1.196-4.447.407-.534 1.136-.775 1.777-1.117.316-.167 1.715-1.017 1.942-.801.247.233-.344 1.88-.456 2.274-.634 2.254-.37 2.05-2.52 3.264-.347.195-1.634 1.071-1.94.827" fill="#32C5FF"/><path d="M27.182 10.166c.367-.24 1.463-.551 2.024-.758 1.746-.645 1.954-.383 4.05.792.335.188.575.324.939.503.368.18.772.452.772.687 0 .235-1.388.684-1.92.9-.864.347-1.272.624-2.315.16-.604-.269-1.32-.711-1.878-1.02-.874-.484-1.606-.699-1.672-1.264z" fill="#FDFEFF"/><path d="M33.467 18.74c.17.482-1.045 4.04-1.17 4.26-.405.701-.834.803-1.602 1.198-.411.21-1.526.851-1.937.823-.236-.495.255-1.602.41-2.148.694-2.43.465-2.549 2.274-3.36.449-.2 1.577-.867 2.025-.773zm-6.383 11.855c-.077-.473.89-3.75 1.158-4.158.54-.825 3.262-2.022 3.427-1.929.284.16-.015.721-.099.996-.098.323-.217.683-.322 1.03-.187.622-.39 1.55-.688 2.031-.368.595-2.843 2.058-3.476 2.03z" fill="#32C5FF"/><path d="M52.192 17.575h-1.588V8.61h-3.305V7.237h8.197V8.61h-3.304v8.965zm6.102 0H56.72V7.237h4.263c2.26 0 3.476 1.07 3.476 2.978 0 1.316-.786 2.27-1.917 2.53v.03c2.375.448 1.503 4.526 2.06 4.7v.1h-1.688c-.457-.433.515-4.048-1.988-4.048h-2.632v4.048zm0-5.422h2.346c1.445 0 2.231-.636 2.231-1.822 0-1.113-.629-1.72-2.203-1.72h-2.374v3.542zm15.196 5.422h-7.382V7.237h7.239V8.61h-5.665v2.936h4.964v1.373h-4.964v3.283h5.808v1.373zm3.05 0h-1.575V7.237h1.803l4.75 7.953h.028V7.237h1.588v10.338h-1.802l-4.764-7.953h-.029v7.953zm12.544 0h-3.92V7.237h3.891c2.833 0 4.55 1.85 4.55 5.176s-1.689 5.162-4.521 5.162zm-2.346-1.373h2.246c2.374 0 2.99-1.793 2.99-3.789 0-1.995-.616-3.803-2.99-3.803h-2.246v7.592zm12.992 1.373h-1.573V7.237h4.263c1.931 0 3.347.91 3.347 3.08 0 2.168-1.416 3.065-3.347 3.065h-2.69v4.193zm0-5.567h2.618c1.188 0 1.788-.535 1.788-1.691 0-1.172-.6-1.707-1.788-1.707H99.73v3.398zm8.927 5.567h-1.573V7.237h4.263c2.26 0 3.476 1.07 3.476 2.978 0 1.316-.787 2.27-1.917 2.53v.03c2.375.448 1.502 4.526 2.06 4.7v.1h-1.688c-.458-.433.515-4.048-1.988-4.048h-2.633v4.048zm0-5.422h2.346c1.445 0 2.232-.636 2.232-1.822 0-1.113-.629-1.72-2.203-1.72h-2.375v3.542zm12.322 5.625c-3.062 0-5.022-2.27-5.022-5.38 0-3.108 1.96-5.364 5.022-5.364C124.04 7.034 126 9.29 126 12.4c0 3.109-1.96 5.379-5.021 5.379zm0-1.374c2.417 0 3.376-1.88 3.376-4.005 0-2.126-.959-3.991-3.376-3.991-2.418 0-3.377 1.865-3.377 3.99 0 2.126.959 4.006 3.377 4.006zM50.397 29.512h-2.616v-7.384h2.647c2.044 0 3.178 1.425 3.178 3.707 0 2.283-1.165 3.677-3.209 3.677zm-1.87-.66h1.87c1.83 0 2.432-1.385 2.432-3.017 0-1.642-.572-3.046-2.411-3.046h-1.89v6.062zm6.823-5.66h-.86v-.868h.86v.867zm-.093 6.32h-.664v-5.267h.664v5.267zm5.033-4.441v-.826h.665v4.937c0 1.498-.92 2.22-2.35 2.22-1.41 0-2.157-.692-2.238-1.61h.695c.102.567.541 1.022 1.553 1.022 1.052 0 1.675-.465 1.675-1.54v-.98h-.02c-.306.547-.879.97-1.758.97-1.246 0-2.288-.826-2.288-2.581 0-1.736 1.042-2.562 2.289-2.562.878 0 1.45.424 1.757.95h.02zm-1.685 3.605c.96 0 1.686-.64 1.686-1.993 0-1.333-.726-1.973-1.686-1.973-1.073 0-1.687.785-1.687 1.973 0 1.208.614 1.993 1.687 1.993zm4.318-5.484h-.858v-.868h.858v.867zm-.092 6.32h-.664v-5.267h.664v5.267zm3.225-5.267v.589h-1.053v3.325c0 .651.143.806.654.806.164 0 .246-.01.399-.02v.567a2.934 2.934 0 01-.49.042c-.757 0-1.227-.258-1.227-1.405v-3.315h-.766v-.589h.766v-1.756h.664v1.756h1.053zm2.292 5.402c-1.043 0-1.707-.589-1.707-1.467 0-1.136.797-1.497 2.146-1.735.858-.155 1.41-.217 1.41-.847 0-.537-.347-.899-1.185-.899-1.012 0-1.37.362-1.42 1.136h-.706c.052-.929.634-1.724 2.146-1.724.96 0 1.809.413 1.809 1.673v2.634c0 .423.061.62.296.62.041 0 .082 0 .143-.011v.485a1.85 1.85 0 01-.347.042c-.44 0-.695-.176-.736-.837h-.02c-.358.6-.981.93-1.83.93zm.081-.589c1.063 0 1.768-.568 1.768-1.518v-.982c-.153.217-.705.341-1.328.445-1.012.186-1.533.444-1.533 1.115 0 .61.337.94 1.093.94zm4.401.454h-.664v-7.384h.664v7.384zm4.888.135c-1.042 0-1.707-.589-1.707-1.467 0-1.136.797-1.497 2.146-1.735.859-.155 1.41-.217 1.41-.847 0-.537-.347-.899-1.185-.899-1.012 0-1.37.362-1.42 1.136h-.705c.05-.929.633-1.724 2.145-1.724.961 0 1.81.413 1.81 1.673v2.634c0 .423.06.62.295.62.041 0 .082 0 .143-.011v.485c-.112.021-.224.042-.347.042-.44 0-.695-.176-.736-.837h-.02c-.358.6-.981.93-1.83.93zm.082-.589c1.062 0 1.767-.568 1.767-1.518v-.982c-.153.217-.705.341-1.328.445-1.012.186-1.533.444-1.533 1.115 0 .61.337.94 1.094.94zm7.488-3.987v-.826h.664v4.937c0 1.498-.92 2.22-2.35 2.22-1.41 0-2.156-.692-2.238-1.61h.695c.102.567.541 1.022 1.553 1.022 1.052 0 1.676-.465 1.676-1.54v-.98h-.02c-.307.547-.88.97-1.758.97-1.247 0-2.29-.826-2.29-2.581 0-1.736 1.043-2.562 2.29-2.562.879 0 1.45.424 1.757.95h.02zm-1.686 3.605c.96 0 1.686-.64 1.686-1.993 0-1.333-.726-1.973-1.686-1.973-1.073 0-1.686.785-1.686 1.973 0 1.208.613 1.993 1.686 1.993zm8.12-2.035c0 .145 0 .29-.01.372h-4.129c.01 1.064.573 2.066 1.799 2.066 1.073 0 1.492-.744 1.594-1.178h.674c-.255.96-.97 1.756-2.279 1.756-1.594 0-2.483-1.177-2.483-2.778 0-1.684.981-2.768 2.483-2.768 1.503 0 2.35 1.063 2.35 2.53zm-4.139-.217h3.434c0-.94-.603-1.735-1.676-1.735-1.012 0-1.707.754-1.758 1.735zm7.543-2.303c.93 0 1.706.527 1.706 1.694v3.697h-.664V25.96c0-.67-.307-1.25-1.206-1.25-.991 0-1.645.703-1.645 1.478v3.325h-.664v-5.267h.664V25h.02c.297-.434.859-.878 1.789-.878zm5.103 5.526c-1.492 0-2.494-1.116-2.494-2.768 0-1.643 1.002-2.758 2.494-2.758 1.267 0 2.125.857 2.237 1.973h-.694c-.041-.589-.46-1.384-1.543-1.384-1.278 0-1.799 1.095-1.799 2.169 0 1.084.521 2.19 1.799 2.19 1.093 0 1.502-.796 1.543-1.436h.694c-.071 1.136-.97 2.014-2.237 2.014zm3.501 1.714c-.163 0-.286-.01-.501-.041v-.579c.154.021.235.032.399.032.49 0 .889-.32 1.175-1.292l-2.105-5.236h.736l1.696 4.39h.02l1.615-4.39h.715l-2.084 5.422c-.511 1.312-.971 1.694-1.666 1.694z" fill="#fff"/></svg>