<svg width="106" height="38" fill="none" xmlns="http://www.w3.org/2000/svg"><circle cx="19" cy="19" r="19" fill="#F78B3D"/><circle cx="19" cy="19" r="19" fill="url(#paint0_linear)"/><path d="M7 20a2 2 0 114 0v5a1 1 0 01-1 1H8a1 1 0 01-1-1v-5zm20 0a2 2 0 114 0v5a1 1 0 01-1 1h-2a1 1 0 01-1-1v-5zm-10-6a2 2 0 114 0v10.68A1.32 1.32 0 0119.68 26h-1.36A1.32 1.32 0 0117 24.68V14zm5 0a2 2 0 114 0v10.68A1.32 1.32 0 0124.68 26h-1.36A1.32 1.32 0 0122 24.68V14zm-10 0a2 2 0 114 0v11a1 1 0 01-1 1h-2a1 1 0 01-1-1V14z" fill="#fff"/><path d="M14 20.5a2.5 2.5 0 00-2.5 2.5v2a1.5 1.5 0 001.5 1.5h2a1.5 1.5 0 001.5-1.5v-2a2.5 2.5 0 00-2.5-2.5zm5 0a2.5 2.5 0 00-2.5 2.5v2a1.5 1.5 0 001.5 1.5h2a1.5 1.5 0 001.5-1.5v-2a2.5 2.5 0 00-2.5-2.5zm5 0a2.5 2.5 0 00-2.5 2.5v2a1.5 1.5 0 001.5 1.5h2a1.5 1.5 0 001.5-1.5v-2a2.5 2.5 0 00-2.5-2.5z" fill="#fff" stroke="#F98029"/><path d="M60.686 6.303v11.172h-2.208v-7.246l-3.174 5.187h-.258l-3.175-5.17v7.229h-2.224V6.303h2.288l3.24 5.283 3.223-5.283h2.288zm3.762 8.027c.28 1 1.037 1.501 2.273 1.501.795 0 1.396-.266 1.805-.798l1.676.958c-.795 1.138-1.966 1.707-3.514 1.707-1.332 0-2.4-.399-3.207-1.197-.806-.798-1.208-1.803-1.208-3.016 0-1.202.397-2.202 1.192-3 .795-.809 1.816-1.213 3.062-1.213 1.182 0 2.154.404 2.917 1.213.774.808 1.16 1.808 1.16 3 0 .266-.026.548-.08.846h-6.076zm-.032-1.595h4.11c-.119-.543-.366-.947-.742-1.213a2.08 2.08 0 00-1.257-.4c-.558 0-1.02.145-1.386.432-.365.277-.607.67-.725 1.18zm11.397 4.963c-1.268 0-2.294-.404-3.079-1.213-.773-.808-1.16-1.835-1.16-3.08 0-1.362.204-2.41.612-3.144.409-.745 1.23-1.42 2.466-2.027.183-.085.44-.202.774-.35.333-.16.558-.272.677-.336a8.2 8.2 0 00.515-.287 2.05 2.05 0 00.452-.335c.096-.107.198-.24.306-.4.107-.159.193-.335.258-.526l1.708.974c-.14.649-.457 1.154-.951 1.516-.483.35-1.214.713-2.192 1.085-.687.266-1.187.532-1.498.798a2.308 2.308 0 00-.677.957c.601-.606 1.407-.91 2.417-.91.892 0 1.687.325 2.385.974.699.639 1.048 1.49 1.048 2.554 0 1.096-.376 1.995-1.128 2.697-.742.702-1.72 1.053-2.933 1.053zm-1.483-2.426c.397.362.886.543 1.466.543s1.059-.176 1.435-.527c.376-.35.564-.798.564-1.34 0-.543-.188-.99-.564-1.34-.376-.363-.86-.543-1.45-.543-.527 0-1 .165-1.419.494-.408.33-.612.772-.612 1.325 0 .564.193 1.027.58 1.388zm8.564-.942c.279 1 1.036 1.501 2.272 1.501.795 0 1.397-.266 1.805-.798l1.676.958c-.795 1.138-1.966 1.707-3.513 1.707-1.333 0-2.402-.399-3.207-1.197-.806-.798-1.21-1.803-1.21-3.016 0-1.202.398-2.202 1.194-3 .795-.809 1.815-1.213 3.061-1.213 1.182 0 2.155.404 2.918 1.213.773.808 1.16 1.808 1.16 3 0 .266-.027.548-.08.846h-6.076zm-.033-1.595h4.11c-.118-.543-.365-.947-.741-1.213a2.08 2.08 0 00-1.258-.4c-.558 0-1.02.145-1.385.432-.366.277-.608.67-.726 1.18zM97.1 9.495v7.98h-2.079v-6.001h-2.224v2.665c0 2.469-1.133 3.58-3.4 3.336v-1.931c.43.106.757.037.983-.208.226-.255.338-.691.338-1.309V9.495H97.1zm5.526 2.554c.914 0 1.65.25 2.208.75.559.49.838 1.143.838 1.963 0 .819-.279 1.479-.838 1.979-.558.49-1.294.734-2.208.734h-3.642v-7.98h2.079v2.554h1.563zm.017 3.606c.29 0 .526-.08.709-.239a.833.833 0 00.29-.654.834.834 0 00-.29-.655c-.183-.17-.419-.255-.709-.255h-1.58v1.803h1.58zM54.175 29.588v-5.944h-4.671v3.295c0 1.305-.266 2.016-.732 2.65H48V32h.679v-1.766h5.75V32h.678v-2.412h-.931zm-4.578 0c.373-.672.572-1.476.572-2.65V24.29h3.328v5.298h-3.9zm13.041-5.944h-4.685v3.822c0 1.7-.545 2.24-1.57 2.148v.62c1.25.092 2.236-.461 2.236-2.768V24.29h3.354v5.944h.665v-6.59zm7.315 0h-2.636c-1.184 0-2.196.804-2.196 2.016 0 1.108.852 1.872 1.904 1.99l-2.13 2.584h.865l2.09-2.57h1.437v2.57h.666v-6.59zm-2.636 3.387c-.838 0-1.517-.527-1.517-1.37 0-.83.679-1.371 1.517-1.371h1.97v2.741h-1.97zm13.663-.197c.573-.277.852-.818.852-1.463 0-.963-.678-1.727-1.983-1.727h-2.968v6.59h3.221c1.384 0 2.05-.817 2.05-1.819 0-.751-.4-1.331-1.171-1.581zm-1.13-2.544c.838 0 1.304.422 1.304 1.12 0 .738-.453 1.16-1.305 1.16h-2.302v-2.28h2.302zm.252 5.298h-2.555v-2.372h2.555c.879 0 1.384.448 1.384 1.173 0 .75-.492 1.2-1.384 1.2zm7.238.791c1.305 0 2.423-.66 2.955-1.674l-.559-.33c-.44.818-1.318 1.371-2.396 1.371-1.61 0-2.821-1.239-2.821-2.807 0-1.569 1.21-2.807 2.821-2.807 1.065 0 1.97.54 2.356 1.37l.546-.316c-.48-1.028-1.597-1.687-2.902-1.687-2.01 0-3.5 1.49-3.5 3.44s1.49 3.44 3.5 3.44zm8.008-6.88c-2.036 0-3.447 1.503-3.447 3.44 0 1.99 1.45 3.44 3.5 3.44 1.318 0 2.356-.593 2.902-1.49l-.586-.342c-.386.698-1.211 1.2-2.302 1.2-1.518 0-2.662-.976-2.822-2.465h6.03c0-.106.012-.211.012-.317 0-1.805-1.264-3.466-3.287-3.466zm0 .633c1.304 0 2.449.896 2.595 2.504h-5.35c.133-1.463 1.238-2.504 2.755-2.504zM106 30.234l-2.649-3.4 2.489-3.19h-.798l-2.103 2.675-2.09-2.675h-.812l2.503 3.203-2.662 3.387h.812l2.249-2.873 2.249 2.873H106z" fill="#000"/><defs><linearGradient id="paint0_linear" x1="19" y1="-9.5" x2="19" y2="38" gradientUnits="userSpaceOnUse"><stop stop-color="#FF6B00"/><stop offset="1" stop-color="#F78B3D"/></linearGradient></defs></svg>