<svg width="24" height="16" fill="none" xmlns="http://www.w3.org/2000/svg"><path d="M14.88 8.01c0 3.959-3.138 7.167-7.01 7.167-3.873 0-7.01-3.209-7.01-7.168S3.997.841 7.87.841c3.871 0 7.01 3.209 7.01 7.168z" fill="#E2574C"/><path d="M16.289.84c-1.572 0-3.02.536-4.19 1.43h.006c.23.228.484.388.68.65l-1.459.023a7.321 7.321 0 00-.633.76h2.572c.196.24.377.448.54.713h-3.578a7.21 7.21 0 00-.359.715h4.345c.114.246.216.431.302.692H9.61c-.078.247-.144.5-.195.758h5.304c.052.248.092.477.12.711H9.31a7.341 7.341 0 00-.035.717h5.603c0 .254-.017.489-.042.717H9.31c.024.243.059.481.105.717h5.296a8.577 8.577 0 01-.197.708h-4.92c.074.245.165.483.264.715h4.354c-.12.261-.257.47-.408.714h-3.59c.14.251.297.49.467.72l2.583.04c-.22.27-.503.432-.76.669.014.011-.412-.002-1.25-.015 1.275 1.345 3.057 2.183 5.034 2.183 3.873 0 7.012-3.21 7.012-7.168 0-3.96-3.138-7.168-7.012-7.168z" fill="#F4B459"/></svg>