<svg width="40" height="13" fill="none" xmlns="http://www.w3.org/2000/svg"><path fill-rule="evenodd" clip-rule="evenodd" d="M14.323 12.091L16.321.866h3.194l-1.998 11.225h-3.194zm14.78-10.949a8.573 8.573 0 00-2.863-.47c-3.157 0-5.38 1.521-5.4 3.703-.017 1.613 1.588 2.513 2.8 3.05 1.243.55 1.662.901 1.655 1.392-.007.753-.993 1.096-1.91 1.096-1.28 0-1.959-.17-3.008-.589l-.411-.178-.449 2.513c.747.313 2.126.584 3.559.598 3.358 0 5.538-1.505 5.563-3.835.012-1.276-.84-2.248-2.682-3.05-1.117-.518-1.8-.865-1.794-1.39 0-.467.58-.966 1.83-.966a6.119 6.119 0 012.39.43l.287.13.433-2.434zm8.192-.265h-2.469c-.764 0-1.337.2-1.672.93l-4.745 10.288h3.355s.548-1.384.673-1.687l4.09.005c.096.392.39 1.682.39 1.682h2.964L37.295.877zm-3.94 7.235c.265-.647 1.274-3.138 1.274-3.138-.02.03.262-.65.423-1.071l.216.968.74 3.24h-2.652zM11.644.874L8.516 8.53l-.333-1.556C7.601 5.18 5.787 3.237 3.76 2.265l2.86 9.816 3.38-.003L15.028.874h-3.384z" fill="#004F8B"/><path fill-rule="evenodd" clip-rule="evenodd" d="M5.615.867H.464l-.041.234c4.008.93 6.66 3.174 7.76 5.872l-1.12-5.158c-.193-.71-.754-.923-1.448-.948z" fill="#ED9F2D"/></svg>