<svg width="48" height="56" fill="none" xmlns="http://www.w3.org/2000/svg"><path d="M23.98 10.063a3.8 3.8 0 014.156-.862l5.234 2.172A7.087 7.087 0 0030.986.686c-2.655-1.38-5.92-.586-8.034 1.56l-1.4 1.421-1.586-1.61c-3.207-3.251-8.79-2.622-11.07 1.904-1.366 2.697-.586 6.016 1.526 8.163l10.24 10.403c.492.5 1.289.5 1.781 0l2.893-2.94-2.171-5.291a3.903 3.903 0 01.814-4.232z" fill="#91A800"/><path d="M39.285 23.066l-3.21-3.234 1.855-1.424c1.053-.809.838-2.474-.383-2.98l-10.215-4.232a1.683 1.683 0 00-1.85.384 1.749 1.749 0 00-.362 1.883l4.254 10.34c.51 1.238 2.15 1.44 2.936.364l1.386-1.898 3.211 3.234a1.672 1.672 0 002.39-.01 1.737 1.737 0 00-.01-2.428h-.002z" fill="#B9D700"/><path d="M6.5 35h1.23l-2.1 5.24c-.267.687-.55 1.163-.85 1.43-.294.26-.677.39-1.15.39-.3 0-.604-.02-.91-.06v-.87c.26.027.486.04.68.04.24 0 .44-.057.6-.17.16-.113.306-.33.44-.65l.09-.25h-.49L1.53 35h1.25l2.08 4.52L6.5 35zm1.534 7v-5.24h4.58V42h-1.07v-4.36h-2.44V42h-1.07zm5.639-1.39c0-.96.703-1.507 2.11-1.64l1.48-.14v-.4c0-.307-.097-.553-.29-.74-.187-.187-.47-.28-.85-.28-.34 0-.62.08-.84.24-.22.153-.34.38-.36.68h-.98c.02-.58.23-1.007.63-1.28.4-.273.916-.41 1.55-.41.713 0 1.26.17 1.64.51.38.34.57.84.57 1.5V42h-.99v-1.02c-.167.36-.417.64-.75.84-.334.2-.737.3-1.21.3-.567 0-.994-.14-1.28-.42-.287-.28-.43-.643-.43-1.09zm1.06-.05c0 .24.08.437.24.59.166.147.413.22.74.22.473 0 .85-.147 1.13-.44.28-.3.42-.683.42-1.15v-.28l-1.34.13c-.794.08-1.19.39-1.19.93zM24.436 42h-1.33l-1.81-2.23h-.62V42h-1.07v-5.24h1.07v2.17h.64l1.71-2.17h1.27l-2.22 2.5 2.36 2.74zm.795-.61c-.46-.493-.69-1.163-.69-2.01 0-.847.23-1.513.69-2 .467-.493 1.09-.74 1.87-.74.787 0 1.41.247 1.87.74.467.487.7 1.153.7 2s-.233 1.517-.7 2.01c-.46.487-1.083.73-1.87.73-.78 0-1.403-.243-1.87-.73zm.77-3.39c-.266.347-.4.807-.4 1.38 0 .573.134 1.033.4 1.38.274.347.64.52 1.1.52.46 0 .827-.173 1.1-.52.274-.347.41-.807.41-1.38 0-.573-.136-1.033-.41-1.38-.273-.347-.64-.52-1.1-.52-.46 0-.826.173-1.1.52zm7.669 1.29c1.047.107 1.57.533 1.57 1.28a1.3 1.3 0 01-.47 1.02c-.307.273-.807.41-1.5.41h-2.56v-5.24h2.43c.64 0 1.12.123 1.44.37.327.24.49.557.49.95 0 .68-.467 1.083-1.4 1.21zm-1.89-1.73v1.42h1.28c.627 0 .94-.237.94-.71s-.33-.71-.99-.71h-1.23zm1.39 3.64c.667 0 1-.257 1-.77 0-.5-.35-.75-1.05-.75h-1.34v1.52h1.39zm7.927.8h-1.33l-1.81-2.23h-.62V42h-1.07v-5.24h1.07v2.17h.64l1.71-2.17h1.27l-2.22 2.5 2.36 2.74zm.31-1.39c0-.96.703-1.507 2.11-1.64l1.48-.14v-.4c0-.307-.097-.553-.29-.74-.187-.187-.47-.28-.85-.28-.34 0-.62.08-.84.24-.22.153-.34.38-.36.68h-.98c.02-.58.23-1.007.63-1.28.4-.273.917-.41 1.55-.41.713 0 1.26.17 1.64.51.38.34.57.84.57 1.5V42h-.99v-1.02c-.167.36-.417.64-.75.84-.333.2-.737.3-1.21.3-.567 0-.993-.14-1.28-.42-.287-.28-.43-.643-.43-1.09zm1.06-.05c0 .24.08.437.24.59.167.147.413.22.74.22.473 0 .85-.147 1.13-.44.28-.3.42-.683.42-1.15v-.28l-1.34.13c-.793.08-1.19.39-1.19.93zM.552 51.38c0-.873.223-1.547.67-2.02.447-.48 1.053-.72 1.82-.72.627 0 1.153.167 1.58.5.427.327.68.79.76 1.39l-1.03.09c-.067-.373-.22-.657-.46-.85a1.289 1.289 0 00-.85-.29c-.433 0-.78.167-1.04.5-.26.333-.39.8-.39 1.4 0 .6.13 1.067.39 1.4.267.333.623.5 1.07.5.353 0 .647-.1.88-.3.24-.207.393-.503.46-.89l1.03.08c-.08.62-.337 1.1-.77 1.44-.427.34-.96.51-1.6.51-.78 0-1.397-.237-1.85-.71-.447-.473-.67-1.15-.67-2.03zm6.266 2.01c-.46-.493-.69-1.163-.69-2.01 0-.847.23-1.513.69-2 .467-.493 1.09-.74 1.87-.74.787 0 1.41.247 1.87.74.467.487.7 1.153.7 2s-.233 1.517-.7 2.01c-.46.487-1.083.73-1.87.73-.78 0-1.403-.243-1.87-.73zm.77-3.39c-.266.347-.4.807-.4 1.38 0 .573.134 1.033.4 1.38.274.347.64.52 1.1.52.46 0 .827-.173 1.1-.52.274-.347.41-.807.41-1.38 0-.573-.136-1.033-.41-1.38-.273-.347-.64-.52-1.1-.52-.46 0-.826.173-1.1.52zm4.709 4v-5.24h1.07v4.36h2.44v-4.36h1.07v4.36h.63v2.28h-1.01V54h-4.2zm8.069-2.62c0-.873.224-1.547.67-2.02.447-.48 1.054-.72 1.82-.72.627 0 1.154.167 1.58.5.427.327.68.79.76 1.39l-1.03.09c-.066-.373-.22-.657-.46-.85a1.289 1.289 0 00-.85-.29c-.433 0-.78.167-1.04.5-.26.333-.39.8-.39 1.4 0 .6.13 1.067.39 1.4.267.333.624.5 1.07.5.354 0 .647-.1.88-.3.24-.207.394-.503.46-.89l1.03.08c-.08.62-.336 1.1-.77 1.44-.426.34-.96.51-1.6.51-.78 0-1.396-.237-1.85-.71-.446-.473-.67-1.15-.67-2.03zm5.577 0c0-.9.233-1.58.7-2.04.466-.467 1.086-.7 1.86-.7 1.633 0 2.45.973 2.45 2.92v.13h-3.94c.04.54.196.953.47 1.24.28.28.643.42 1.09.42.633 0 1.063-.27 1.29-.81l1.02.07a1.96 1.96 0 01-.81 1.11c-.394.267-.894.4-1.5.4-.807 0-1.447-.23-1.92-.69-.474-.46-.71-1.143-.71-2.05zm1.08-.39h2.87c-.02-.493-.154-.88-.4-1.16-.247-.28-.577-.42-.99-.42-.414 0-.754.133-1.02.4-.26.267-.414.66-.46 1.18zm4.317-1.35v-.88h4.59v.88h-1.76V54H33.1v-4.36h-1.76zm4.974 1.74c0-.9.233-1.58.7-2.04.466-.467 1.086-.7 1.86-.7 1.633 0 2.45.973 2.45 2.92v.13h-3.94c.04.54.196.953.47 1.24.28.28.643.42 1.09.42.633 0 1.063-.27 1.29-.81l1.02.07a1.96 1.96 0 01-.81 1.11c-.394.267-.894.4-1.5.4-.807 0-1.447-.23-1.92-.69-.474-.46-.71-1.143-.71-2.05zm1.08-.39h2.87c-.02-.493-.154-.88-.4-1.16-.247-.28-.577-.42-.99-.42-.414 0-.754.133-1.02.4-.26.267-.414.66-.46 1.18zm8.452-3.28c-.247.253-.61.38-1.09.38-.48 0-.847-.127-1.1-.38-.247-.253-.377-.597-.39-1.03h.71c.02.213.09.4.21.56.126.153.316.23.57.23.46 0 .72-.263.78-.79h.7c-.014.433-.144.777-.39 1.03zm-.27 1.05h1.59V54h-1.03v-4.46l-2.2 4.46h-1.59v-5.24h1.03v4.46l2.2-4.46z" fill="#383838"/></svg>