<svg width="47" height="49" fill="none" xmlns="http://www.w3.org/2000/svg"><path d="M36.82 19.998l-5.83-4.04a.432.432 0 00-.675.405l.827 7.044c.041.356.473.51.731.26l1.468-1.428 1.228 2.047a.432.432 0 00.593.148l.672-.404a.431.431 0 00.148-.593l-1.23-2.047 1.951-.625a.432.432 0 00.115-.767h.002z" fill="#91A800"/><path d="M29.048 0H17.961a1.998 1.998 0 00-1.998 1.998v9.054c0 1.104.896 1.998 1.998 1.998h.91l-.277 3.25a.657.657 0 001.119.52l3.772-3.77h5.562a1.997 1.997 0 001.998-1.998V2A1.998 1.998 0 0029.047.001L29.048 0zm-7.791 2.457a1.19 1.19 0 110 2.38 1.19 1.19 0 010-2.38zm6.886 8.138h-9.276a.43.43 0 01-.367-.657l2.24-3.624a.395.395 0 01.673 0l1.17 1.895 1.946-3.15a.566.566 0 01.964 0l3.014 4.88a.43.43 0 01-.367.656h.003z" fill="#B9D700"/><path d="M29.7 22.664l-.367-3.094h-17.87V6.952h3.153V5.497H10.6a.59.59 0 00-.6.587v15.994c0 .33.27.587.6.587h10.179l-.635 3.614H18.39a.47.47 0 00-.47.472v.777c0 .26.21.472.47.472h9.603a.47.47 0 00.47-.471v-.778a.47.47 0 00-.47-.472h-1.754l-.63-3.614h4.09l.001-.001zm-6.67-2.12h.324c.337 0 .6.267.6.598 0 .33-.263.6-.6.6h-.324c-.33 0-.6-.264-.6-.6 0-.337.27-.599.6-.599zM35.79 5.496h-3.4V6.95h2.531v10.094l1.462 1.015V6.083a.585.585 0 00-.594-.587z" fill="#91A800"/><path d="M3.836 42.85c.72 0 1.313.17 1.78.51.467.333.7.853.7 1.56 0 .713-.233 1.24-.7 1.58-.467.333-1.06.5-1.78.5H.946v-7h4.85v.87h-3.73v1.98h1.77zm-.1 3.28c.473 0 .833-.103 1.08-.31.253-.213.38-.513.38-.9 0-.393-.127-.693-.38-.9-.247-.207-.607-.31-1.08-.31h-1.67v2.42h1.67zM7.349 49v-7.24h.99v1.05c.166-.373.41-.66.73-.86.32-.207.68-.31 1.08-.31.653 0 1.183.247 1.59.74.413.487.62 1.153.62 2s-.207 1.517-.62 2.01c-.407.487-.934.73-1.58.73-.787 0-1.367-.35-1.74-1.05V49h-1.07zm1.41-6c-.26.347-.39.807-.39 1.38 0 .573.13 1.033.39 1.38.266.347.623.52 1.07.52.453 0 .81-.173 1.07-.52.266-.347.4-.807.4-1.38 0-.573-.134-1.033-.4-1.38-.26-.347-.617-.52-1.07-.52a1.28 1.28 0 00-1.07.52zm4.364 1.38c0-.9.234-1.58.7-2.04.467-.467 1.087-.7 1.86-.7 1.634 0 2.45.973 2.45 2.92v.13h-3.94c.04.54.197.953.47 1.24.28.28.644.42 1.09.42.634 0 1.064-.27 1.29-.81l1.02.07a1.96 1.96 0 01-.81 1.11c-.393.267-.893.4-1.5.4-.806 0-1.446-.23-1.92-.69-.473-.46-.71-1.143-.71-2.05zm1.08-.39h2.87c-.02-.493-.153-.88-.4-1.16-.246-.28-.576-.42-.99-.42-.413 0-.753.133-1.02.4-.26.267-.413.66-.46 1.18zM19.155 47v-5.24h1.07v2.13h2.5v-2.13h1.07V47h-1.07v-2.23h-2.5V47h-1.07zm10.237-.88h.64v2.28h-1.01V47h-3.44v1.4h-1.01v-2.28h.4c.107-.233.194-.58.26-1.04.067-.467.114-.897.14-1.29.027-.4.067-1.077.12-2.03h3.9v4.36zm-1.07 0v-3.48h-1.91c-.006.107-.02.27-.04.49a47.78 47.78 0 01-.06.88l-.03.4c-.006.08-.017.193-.03.34-.013.14-.026.25-.04.33l-.05.29a1.92 1.92 0 01-.05.28c-.013.073-.03.153-.05.24-.02.08-.043.157-.07.23h2.33zm5.782-4.36h1.59V47h-1.03v-4.46l-2.2 4.46h-1.59v-5.24h1.03v4.46l2.2-4.46zM37.017 47v-5.24h1.07v2.13h2.5v-2.13h1.07V47h-1.07v-2.23h-2.5V47h-1.07zm5.957 0v-5.24h3.64v.88h-2.57V47h-1.07z" fill="#383838"/></svg>