<svg width="56" height="56" fill="none" xmlns="http://www.w3.org/2000/svg"><path d="M.014 43v-7h2.88c.7 0 1.28.177 1.74.53.46.353.69.897.69 1.63 0 .733-.223 1.27-.67 1.61-.446.333-1.023.5-1.73.5h-1.79V43H.014zm1.12-3.59h1.63c.447 0 .797-.103 1.05-.31.26-.207.39-.52.39-.94 0-.413-.13-.723-.39-.93-.253-.207-.603-.31-1.05-.31h-1.63v2.49zm4.681 2.2c0-.96.703-1.507 2.11-1.64l1.48-.14v-.4c0-.307-.097-.553-.29-.74-.187-.187-.47-.28-.85-.28-.34 0-.62.08-.84.24-.22.153-.34.38-.36.68h-.98c.02-.58.23-1.007.63-1.28.4-.273.917-.41 1.55-.41.713 0 1.26.17 1.64.51.38.34.57.84.57 1.5V43h-.99v-1.02c-.167.36-.417.64-.75.84-.333.2-.737.3-1.21.3-.567 0-.993-.14-1.28-.42-.287-.28-.43-.643-.43-1.09zm1.06-.05c0 .24.08.437.24.59.167.147.413.22.74.22.473 0 .85-.147 1.13-.44.28-.3.42-.683.42-1.15v-.28l-1.34.13c-.793.08-1.19.39-1.19.93zm7.544-1.27c1.08.107 1.62.547 1.62 1.32 0 .447-.177.81-.53 1.09-.353.28-.943.42-1.77.42-1.513 0-2.31-.583-2.39-1.75l1.03-.05c.053.653.507.98 1.36.98.82 0 1.23-.28 1.23-.84 0-.52-.44-.78-1.32-.78h-.61v-.7h.56c.407 0 .707-.067.9-.2.2-.14.3-.323.3-.55a.642.642 0 00-.29-.56c-.187-.14-.44-.21-.76-.21-.333 0-.61.077-.83.23-.213.153-.337.387-.37.7l-1.03-.06c.04-.573.26-.997.66-1.27.407-.28.93-.42 1.57-.42.707 0 1.237.127 1.59.38.353.247.53.58.53 1 0 .707-.483 1.13-1.45 1.27zM17.071 45v-7.24h.99v1.05a1.948 1.948 0 011.81-1.17c.653 0 1.183.247 1.59.74.414.487.62 1.153.62 2s-.206 1.517-.62 2.01c-.406.487-.933.73-1.58.73-.787 0-1.366-.35-1.74-1.05V45h-1.07zm1.41-6c-.26.347-.39.807-.39 1.38 0 .573.13 1.033.39 1.38.267.347.623.52 1.07.52.454 0 .81-.173 1.07-.52.267-.347.4-.807.4-1.38 0-.573-.133-1.033-.4-1.38-.26-.347-.616-.52-1.07-.52-.446 0-.803.173-1.07.52zm4.326 2.61c0-.96.704-1.507 2.11-1.64l1.48-.14v-.4c0-.307-.096-.553-.29-.74-.186-.187-.47-.28-.85-.28-.34 0-.62.08-.84.24-.22.153-.34.38-.36.68h-.98c.02-.58.23-1.007.63-1.28.4-.273.917-.41 1.55-.41.714 0 1.26.17 1.64.51.38.34.57.84.57 1.5V43h-.99v-1.02c-.166.36-.416.64-.75.84-.333.2-.736.3-1.21.3-.566 0-.993-.14-1.28-.42-.286-.28-.43-.643-.43-1.09zm1.06-.05c0 .24.08.437.24.59.167.147.414.22.74.22.474 0 .85-.147 1.13-.44.28-.3.42-.683.42-1.15v-.28l-1.34.13c-.793.08-1.19.39-1.19.93zm7.424-3.63c.7 0 1.267.237 1.7.71.44.467.66 1.097.66 1.89 0 .8-.23 1.433-.69 1.9-.46.46-1.086.69-1.88.69-1.706 0-2.56-1.12-2.56-3.36 0-1.133.163-2.003.49-2.61.327-.613.857-1.003 1.59-1.17.114-.027.58-.097 1.4-.21.494-.073.867-.157 1.12-.25v.84c-.193.107-.527.197-1 .27-.133.02-.303.043-.51.07a25.4 25.4 0 00-.48.05c-.26.033-.483.093-.67.18a1.761 1.761 0 00-.54.41c-.173.187-.313.457-.42.81-.107.347-.18.777-.22 1.29.14-.473.38-.843.72-1.11.347-.267.777-.4 1.29-.4zm-1.31 3.88c.267.313.633.47 1.1.47.467 0 .834-.157 1.1-.47.274-.313.41-.74.41-1.28s-.136-.967-.41-1.28c-.266-.32-.633-.48-1.1-.48-.46 0-.826.16-1.1.48-.267.313-.4.74-.4 1.28s.134.967.4 1.28zm5.117.58c-.46-.493-.69-1.163-.69-2.01 0-.847.23-1.513.69-2 .467-.493 1.09-.74 1.87-.74.787 0 1.41.247 1.87.74.467.487.7 1.153.7 2s-.233 1.517-.7 2.01c-.46.487-1.083.73-1.87.73-.78 0-1.403-.243-1.87-.73zm.77-3.39c-.266.347-.4.807-.4 1.38 0 .573.134 1.033.4 1.38.274.347.64.52 1.1.52.46 0 .827-.173 1.1-.52.274-.347.41-.807.41-1.38 0-.573-.136-1.033-.41-1.38-.273-.347-.64-.52-1.1-.52-.46 0-.826.173-1.1.52zm4.054-.36v-.88h4.59v.88h-1.76V43h-1.07v-4.36h-1.76zM50.221 43h-1.33l-1.81-2.23h-.62V43h-1.07v-5.24h1.07v2.17h.64l1.71-2.17h1.27l-2.22 2.5 2.36 2.74zm.311-1.39c0-.96.703-1.507 2.11-1.64l1.48-.14v-.4c0-.307-.097-.553-.29-.74-.187-.187-.47-.28-.85-.28-.34 0-.62.08-.84.24-.22.153-.34.38-.36.68h-.98c.02-.58.23-1.007.63-1.28.4-.273.917-.41 1.55-.41.713 0 1.26.17 1.64.51.38.34.57.84.57 1.5V43h-.99v-1.02c-.167.36-.417.64-.75.84-.333.2-.737.3-1.21.3-.567 0-.993-.14-1.28-.42-.287-.28-.43-.643-.43-1.09zm1.06-.05c0 .24.08.437.24.59.167.147.413.22.74.22.473 0 .85-.147 1.13-.44.28-.3.42-.683.42-1.15v-.28l-1.34.13c-.793.08-1.19.39-1.19.93zM11.054 52.38c0-.873.223-1.547.67-2.02.447-.48 1.053-.72 1.82-.72.627 0 1.153.167 1.58.5.427.327.68.79.76 1.39l-1.03.09c-.067-.373-.22-.657-.46-.85a1.289 1.289 0 00-.85-.29c-.433 0-.78.167-1.04.5-.26.333-.39.8-.39 1.4 0 .6.13 1.067.39 1.4.267.333.623.5 1.07.5.353 0 .647-.1.88-.3.24-.207.393-.503.46-.89l1.03.08c-.08.62-.337 1.1-.77 1.44-.427.34-.96.51-1.6.51-.78 0-1.397-.237-1.85-.71-.447-.473-.67-1.15-.67-2.03zm5.596 1.23c0-.96.703-1.507 2.11-1.64l1.48-.14v-.4c0-.307-.097-.553-.29-.74-.187-.187-.47-.28-.85-.28-.34 0-.62.08-.84.24-.22.153-.34.38-.36.68h-.98c.02-.58.23-1.007.63-1.28.4-.273.917-.41 1.55-.41.713 0 1.26.17 1.64.51.38.34.57.84.57 1.5V55h-.99v-1.02c-.167.36-.417.64-.75.84-.333.2-.737.3-1.21.3-.567 0-.993-.14-1.28-.42-.287-.28-.43-.643-.43-1.09zm1.06-.05c0 .24.08.437.24.59.167.147.413.22.74.22.473 0 .85-.147 1.13-.44.28-.3.42-.683.42-1.15v-.28l-1.34.13c-.793.08-1.19.39-1.19.93zm8.374-4.85c-.247.253-.61.38-1.09.38-.48 0-.847-.127-1.1-.38-.247-.253-.377-.597-.39-1.03h.71c.02.213.09.4.21.56.127.153.317.23.57.23.46 0 .72-.263.78-.79h.7c-.013.433-.143.777-.39 1.03zm-.27 1.05h1.59V55h-1.03v-4.46l-2.2 4.46h-1.59v-5.24h1.03v4.46l2.2-4.46zm2.473.88v-.88h4.59v.88h-1.76V55h-1.07v-4.36h-1.76zm5.663 3.75c-.46-.493-.69-1.163-.69-2.01 0-.847.23-1.513.69-2 .468-.493 1.09-.74 1.87-.74.788 0 1.41.247 1.87.74.468.487.7 1.153.7 2s-.232 1.517-.7 2.01c-.46.487-1.082.73-1.87.73-.78 0-1.402-.243-1.87-.73zm.77-3.39c-.266.347-.4.807-.4 1.38 0 .573.134 1.033.4 1.38.274.347.64.52 1.1.52.46 0 .828-.173 1.1-.52.274-.347.41-.807.41-1.38 0-.573-.136-1.033-.41-1.38-.272-.347-.64-.52-1.1-.52-.46 0-.826.173-1.1.52zm7.67 1.29c1.046.107 1.57.533 1.57 1.28a1.3 1.3 0 01-.47 1.02c-.307.273-.807.41-1.5.41h-2.56v-5.24h2.43c.64 0 1.12.123 1.44.37.326.24.49.557.49.95 0 .68-.467 1.083-1.4 1.21zm-1.89-1.73v1.42h1.28c.626 0 .94-.237.94-.71s-.33-.71-.99-.71H40.5zm1.39 3.64c.666 0 1-.257 1-.77 0-.5-.35-.75-1.05-.75H40.5v1.52h1.39z" fill="#383838"/><path d="M41.46 0H13.54C11.587 0 10 1.562 10 3.48v21.04c0 1.918 1.588 3.48 3.54 3.48h27.92c1.952 0 3.54-1.562 3.54-3.48V3.48C45 1.563 43.412 0 41.46 0zm-8.042 3.053h6.093c.56 0 1.015.447 1.015.999 0 .551-.455.998-1.015.998h-6.093c-.56 0-1.015-.447-1.015-.998 0-.552.454-.999 1.015-.999zM22.63 2.82c.692 0 1.254.552 1.254 1.233 0 .682-.56 1.233-1.254 1.233a1.243 1.243 0 01-1.253-1.233c0-.681.56-1.233 1.253-1.233zm-3.7 0c.693 0 1.255.552 1.255 1.233 0 .682-.561 1.233-1.254 1.233a1.243 1.243 0 01-1.254-1.233c0-.681.56-1.233 1.254-1.233zm-3.699 0c.692 0 1.254.552 1.254 1.233 0 .682-.561 1.233-1.254 1.233a1.243 1.243 0 01-1.254-1.233c0-.681.561-1.233 1.254-1.233zm27.572 21.7c0 .728-.602 1.32-1.342 1.32H13.54c-.74 0-1.342-.592-1.342-1.32V8.118h30.607V24.52z" fill="#B9D700"/><path d="M16.668 22.491h4.616c.74 0 1.342-.592 1.342-1.32v-8.42c0-.729-.602-1.32-1.343-1.32h-4.615c-.74 0-1.343.591-1.343 1.32v8.42c0 .728.603 1.32 1.343 1.32zm9.474-8.901h12.435a1.09 1.09 0 001.098-1.08 1.09 1.09 0 00-1.098-1.08H26.142a1.09 1.09 0 00-1.098 1.08c0 .595.493 1.08 1.098 1.08zm0 4.45h12.435a1.09 1.09 0 001.098-1.08 1.09 1.09 0 00-1.098-1.08H26.142a1.09 1.09 0 00-1.098 1.08c0 .596.493 1.08 1.098 1.08zm0 4.451h12.435a1.09 1.09 0 001.098-1.08 1.09 1.09 0 00-1.098-1.08H26.142a1.09 1.09 0 00-1.098 1.08c0 .596.493 1.08 1.098 1.08z" fill="#91A800"/></svg>