<svg width="68" height="57" fill="none" xmlns="http://www.w3.org/2000/svg"><path d="M6.723 43h-1.33l-2.38-3.1h-.95V43H.943v-7h1.12v3.03h.94L5.213 36h1.3l-2.64 3.39L6.723 43zm.74-.61c-.46-.493-.69-1.163-.69-2.01 0-.847.23-1.513.69-2 .466-.493 1.09-.74 1.87-.74.786 0 1.41.247 1.87.74.466.487.7 1.153.7 2s-.234 1.517-.7 2.01c-.46.487-1.084.73-1.87.73-.78 0-1.404-.243-1.87-.73zm.77-3.39c-.267.347-.4.807-.4 1.38 0 .573.133 1.033.4 1.38.273.347.64.52 1.1.52.46 0 .826-.173 1.1-.52.273-.347.41-.807.41-1.38 0-.573-.137-1.033-.41-1.38-.274-.347-.64-.52-1.1-.52-.46 0-.827.173-1.1.52zm9.428-1.24h1.77V43h-1.02v-4.5l-1.57 4.5h-1.31l-1.56-4.5V43h-1.03v-5.24h1.78l1.48 4.64 1.46-4.64zM20.754 43v-5.24h4.58V43h-1.07v-4.36h-2.44V43h-1.07zm6.458-5.24h3.87V43h-1.07v-4.36h-1.86a53.4 53.4 0 00-.07 1.03c-.02.373-.036.647-.05.82-.013.167-.033.39-.06.67a6.125 6.125 0 01-.08.6c-.026.12-.066.273-.12.46-.046.18-.103.31-.17.39a2.46 2.46 0 01-.23.24.68.68 0 01-.32.17c-.12.033-.256.05-.41.05-.18 0-.34-.013-.48-.04v-.86c.074.007.157.01.25.01.28 0 .474-.35.58-1.05.047-.333.114-1.317.2-2.95l.02-.42zm4.912 2.62c0-.9.233-1.58.7-2.04.467-.467 1.087-.7 1.86-.7 1.634 0 2.45.973 2.45 2.92v.13h-3.94c.04.54.197.953.47 1.24.28.28.643.42 1.09.42.634 0 1.064-.27 1.29-.81l1.02.07a1.96 1.96 0 01-.81 1.11c-.393.267-.893.4-1.5.4-.806 0-1.447-.23-1.92-.69-.473-.46-.71-1.143-.71-2.05zm1.08-.39h2.87c-.02-.493-.153-.88-.4-1.16-.246-.28-.577-.42-.99-.42-.413 0-.753.133-1.02.4-.26.267-.413.66-.46 1.18zM42.986 43h-1.33l-1.81-2.23h-.62V43h-1.07v-5.24h1.07v2.17h.64l1.71-2.17h1.27l-2.22 2.5 2.36 2.74zm.105-2.62c0-.873.223-1.547.67-2.02.447-.48 1.053-.72 1.82-.72.627 0 1.153.167 1.58.5.427.327.68.79.76 1.39l-1.03.09c-.067-.373-.22-.657-.46-.85a1.289 1.289 0 00-.85-.29c-.433 0-.78.167-1.04.5-.26.333-.39.8-.39 1.4 0 .6.13 1.067.39 1.4.267.333.623.5 1.07.5.353 0 .647-.1.88-.3.24-.207.393-.503.46-.89l1.03.08c-.08.62-.337 1.1-.77 1.44-.427.34-.96.51-1.6.51-.78 0-1.397-.237-1.85-.71-.447-.473-.67-1.15-.67-2.03zM48.947 43v-5.24h1.07v2.13h2.5v-2.13h1.07V43h-1.07v-2.23h-2.5V43h-1.07zm8.197-3.31c1.387 0 2.08.55 2.08 1.65 0 1.107-.693 1.66-2.08 1.66h-2.24v-5.24h1.07v1.93h1.17zm2.86-1.93h1.07V43h-1.07v-5.24zm-2.94 4.42c.727 0 1.09-.283 1.09-.85 0-.56-.363-.84-1.09-.84h-1.09v1.69h1.09zm8.83-5.47c-.246.253-.61.38-1.09.38-.48 0-.846-.127-1.1-.38-.246-.253-.376-.597-.39-1.03h.71c.02.213.09.4.21.56.127.153.317.23.57.23.46 0 .72-.263.78-.79h.7c-.013.433-.143.777-.39 1.03zm-.27 1.05h1.59V43h-1.03v-4.46l-2.2 4.46h-1.59v-5.24h1.03v4.46l2.2-4.46zM21.455 54.12h.64v2.28h-1.01V55h-3.44v1.4h-1.01v-2.28h.4c.106-.233.193-.58.26-1.04.066-.467.113-.897.14-1.29.026-.4.066-1.077.12-2.03h3.9v4.36zm-1.07 0v-3.48h-1.91c-.007.107-.02.27-.04.49a47.78 47.78 0 01-.06.88l-.03.4-.03.34c-.014.14-.027.25-.04.33l-.05.29c-.014.113-.03.207-.05.28a2.478 2.478 0 01-.12.47h2.33zm5.781-4.36h1.59V55h-1.03v-4.46l-2.2 4.46h-1.59v-5.24h1.03v4.46l2.2-4.46zm5.583 2.53c1.08.107 1.62.547 1.62 1.32 0 .447-.177.81-.53 1.09-.353.28-.943.42-1.77.42-1.513 0-2.31-.583-2.39-1.75l1.03-.05c.053.653.507.98 1.36.98.82 0 1.23-.28 1.23-.84 0-.52-.44-.78-1.32-.78h-.61v-.7h.56c.407 0 .707-.067.9-.2.2-.14.3-.323.3-.55a.642.642 0 00-.29-.56c-.187-.14-.44-.21-.76-.21-.333 0-.61.077-.83.23-.213.153-.337.387-.37.7l-1.03-.06c.04-.573.26-.997.66-1.27.407-.28.93-.42 1.57-.42.707 0 1.237.127 1.59.38.353.247.53.58.53 1 0 .707-.483 1.13-1.45 1.27zm2.363 1.32c0-.96.703-1.507 2.11-1.64l1.48-.14v-.4c0-.307-.097-.553-.29-.74-.187-.187-.47-.28-.85-.28-.34 0-.62.08-.84.24-.22.153-.34.38-.36.68h-.98c.02-.58.23-1.007.63-1.28.4-.273.917-.41 1.55-.41.713 0 1.26.17 1.64.51.38.34.57.84.57 1.5V55h-.99v-1.02c-.167.36-.417.64-.75.84-.333.2-.737.3-1.21.3-.567 0-.993-.14-1.28-.42-.287-.28-.43-.643-.43-1.09zm1.06-.05c0 .24.08.437.24.59.167.147.413.22.74.22.473 0 .85-.147 1.13-.44.28-.3.42-.683.42-1.15v-.28l-1.34.13c-.793.08-1.19.39-1.19.93zm8.374-4.85c-.247.253-.61.38-1.09.38-.48 0-.847-.127-1.1-.38-.247-.253-.377-.597-.39-1.03h.71c.02.213.09.4.21.56.127.153.316.23.57.23.46 0 .72-.263.78-.79h.7c-.014.433-.144.777-.39 1.03zm-.27 1.05h1.59V55h-1.03v-4.46l-2.2 4.46h-1.59v-5.24h1.03v4.46l2.2-4.46zM46.188 55v-5.24h1.07v2.13h2.5v-2.13h1.07V55h-1.07v-2.23h-2.5V55h-1.07z" fill="#383838"/><path d="M47.057 10.968h-2.162a11.056 11.056 0 00-1.073-2.553l1.523-1.524a.946.946 0 000-1.349L42.43 2.626a.929.929 0 00-1.335 0l-1.538 1.523a10.98 10.98 0 00-2.553-1.044V.943A.944.944 0 0036.046 0h-4.12a.941.941 0 00-.944.943v2.162c-.914.26-1.77.609-2.567 1.073L26.89 2.655a.929.929 0 00-1.334 0L22.64 5.57a.929.929 0 000 1.335l1.524 1.538c-.45.783-.813 1.653-1.045 2.553h-2.162a.957.957 0 00-.957.957v4.12c0 .523.435.944.957.944h2.162c.261.914.61 1.77 1.06 2.567l-1.51 1.524a.929.929 0 000 1.334l2.916 2.917a.929.929 0 001.335 0l1.538-1.524c.784.45 1.64.813 2.553 1.045v2.162c0 .522.421.957.943.957h4.135a.954.954 0 00.943-.957V24.88c.348-.102.697-.218 1.016-.348l-2.858-2.858a6.48 6.48 0 01-1.19.101A7.775 7.775 0 0126.225 14c0-4.293 3.482-7.79 7.775-7.79A7.792 7.792 0 0141.79 14c0 .406-.03.798-.102 1.19l2.858 2.843c.145-.333.247-.682.348-1.044h2.162a.941.941 0 00.943-.943v-4.135a.941.941 0 00-.943-.943l.001-.001z" fill="#B9D700"/><path d="M38.816 15.59c.256-.77.332-1.621.177-2.506-.327-1.867-1.755-3.438-3.577-3.955a5.01 5.01 0 00-2.769-.012.446.446 0 00-.196.743l1.955 1.955a1.824 1.824 0 01-2.579 2.579l-1.954-1.954a.445.445 0 00-.742.195c-.241.85-.268 1.79.008 2.772.514 1.824 2.087 3.251 3.954 3.575a5.148 5.148 0 002.508-.179l7.077 7.076c.34.34.89.34 1.23 0l1.984-1.983a.87.87 0 000-1.23l-7.076-7.076z" fill="#91A800"/></svg>