<svg width="53" height="48" fill="none" xmlns="http://www.w3.org/2000/svg"><path d="M35.106 9.96c-.589 0-1.115-.125-1.578-.376a2.85 2.85 0 01-1.072-1.068c-.253-.46-.38-.984-.38-1.57 0-.193.064-.348.19-.465a.636.636 0 01.467-.189.61.61 0 01.467.189c.126.117.19.272.19.465 0 .36.071.678.214.954.151.277.353.495.606.654.26.15.56.226.896.226.337 0 .635-.075.896-.226.26-.16.463-.377.606-.654.151-.276.227-.594.227-.954V.676a.627.627 0 01.644-.653c.193 0 .353.063.48.189a.607.607 0 01.189.464v6.27c0 .586-.13 1.11-.392 1.57-.26.452-.618.808-1.072 1.068-.455.251-.98.377-1.578.377zm14.404-.02a3.464 3.464 0 01-1.771-.455 3.428 3.428 0 01-1.24-1.263 3.644 3.644 0 01-.468-1.794V.668c0-.194.06-.35.177-.468a.66.66 0 01.468-.177c.194 0 .35.06.468.177a.631.631 0 01.177.467v3.411a3.2 3.2 0 011.063-.833 3.03 3.03 0 011.378-.316c.616 0 1.168.155 1.657.467.489.303.873.72 1.15 1.25.288.523.43 1.117.43 1.782s-.155 1.263-.467 1.794c-.304.53-.717.951-1.24 1.263-.522.303-1.117.455-1.783.455zm0-1.137c.43 0 .813-.101 1.15-.303.337-.21.603-.497.797-.86.202-.361.303-.766.303-1.212 0-.455-.1-.86-.303-1.213a2.167 2.167 0 00-.797-.834 2.128 2.128 0 00-1.15-.315 2.17 2.17 0 00-1.152.315c-.337.203-.602.48-.796.834a2.48 2.48 0 00-.291 1.213c0 .446.097.85.29 1.213.194.362.46.648.797.859.346.202.73.303 1.151.303zm-7.425 1.179c-.683 0-1.286-.147-1.809-.442a3.36 3.36 0 01-1.24-1.238c-.294-.53-.442-1.137-.442-1.819 0-.69.148-1.297.443-1.819a3.24 3.24 0 011.24-1.238c.522-.303 1.125-.455 1.808-.455.674 0 1.273.152 1.796.455.523.295.931.707 1.227 1.238.303.522.455 1.128.455 1.82 0 .681-.148 1.288-.443 1.818a3.265 3.265 0 01-1.227 1.238c-.522.295-1.125.442-1.808.442zm0-1.137a2.22 2.22 0 001.163-.303c.338-.202.6-.48.785-.834.194-.353.29-.762.29-1.225 0-.463-.096-.872-.29-1.225a2.057 2.057 0 00-.785-.847 2.22 2.22 0 00-1.163-.303 2.22 2.22 0 00-1.164.303 2.144 2.144 0 00-.796.847 2.504 2.504 0 00-.291 1.225c0 .463.097.872.29 1.225.194.354.46.632.797.834a2.22 2.22 0 001.164.303z" fill="#383838"/><path d="M26.889 9.987c.657 0 1.248-.151 1.77-.454a3.427 3.427 0 001.24-1.264 3.64 3.64 0 00.468-1.793V.716a.631.631 0 00-.177-.468.66.66 0 00-.468-.177.633.633 0 00-.468.177.632.632 0 00-.177.467v3.41a3.2 3.2 0 00-1.063-.833 3.042 3.042 0 00-1.378-.316c-.616 0-1.168.156-1.657.468-.49.303-.873.72-1.15 1.25-.288.522-.431 1.116-.431 1.782 0 .665.156 1.263.468 1.793.303.531.717.952 1.24 1.264.522.303 1.117.454 1.783.454zm0-1.137c-.43 0-.814-.1-1.151-.303a2.237 2.237 0 01-.797-.859 2.444 2.444 0 01-.303-1.212c0-.455.1-.86.303-1.213.194-.354.46-.632.797-.834.337-.21.72-.316 1.15-.316.422 0 .806.106 1.152.316.337.202.602.48.796.834.194.354.291.758.291 1.213 0 .446-.097.85-.29 1.212-.195.362-.46.649-.797.86a2.25 2.25 0 01-1.151.302zM19.493 10c-.683 0-1.286-.148-1.809-.442a3.36 3.36 0 01-1.24-1.238c-.294-.53-.442-1.137-.442-1.82 0-.69.148-1.296.443-1.818a3.24 3.24 0 011.239-1.238c.523-.304 1.126-.455 1.809-.455.674 0 1.273.151 1.796.455.522.294.931.707 1.226 1.238.304.522.456 1.128.456 1.819 0 .682-.148 1.288-.443 1.819A3.265 3.265 0 0121.3 9.558c-.523.294-1.125.442-1.808.442zm0-1.137a2.22 2.22 0 001.163-.303c.337-.202.599-.48.784-.834.194-.354.291-.762.291-1.225 0-.464-.097-.872-.29-1.226a2.058 2.058 0 00-.785-.846 2.22 2.22 0 00-1.163-.303 2.22 2.22 0 00-1.164.303 2.144 2.144 0 00-.797.846c-.194.354-.29.762-.29 1.226 0 .463.096.871.29 1.225.194.354.46.632.797.834a2.22 2.22 0 001.164.303zM12.097 9.93c-.683 0-1.286-.148-1.809-.443a3.36 3.36 0 01-1.24-1.238c-.294-.53-.442-1.137-.442-1.82 0-.69.148-1.296.443-1.818a3.24 3.24 0 011.24-1.238c.522-.303 1.125-.455 1.808-.455.674 0 1.273.152 1.796.455.522.294.931.707 1.227 1.238.303.522.455 1.128.455 1.819 0 .682-.148 1.288-.443 1.819a3.265 3.265 0 01-1.227 1.238c-.522.295-1.125.442-1.808.442zm0-1.138a2.22 2.22 0 001.163-.303c.338-.202.599-.48.784-.834.194-.354.291-.762.291-1.225 0-.463-.097-.872-.29-1.226a2.057 2.057 0 00-.785-.846 2.22 2.22 0 00-1.163-.303 2.22 2.22 0 00-1.164.303 2.144 2.144 0 00-.796.846 2.51 2.51 0 00-.291 1.226c0 .463.097.871.29 1.225.194.354.46.632.797.834a2.22 2.22 0 001.164.303zm-7.24 1.146a4.91 4.91 0 01-1.913-.373 4.967 4.967 0 01-1.547-1.054A5.112 5.112 0 01.365 6.923 5.196 5.196 0 010 4.963c0-.695.122-1.34.365-1.936a4.961 4.961 0 011.032-1.575C1.84.997 2.357.64 2.944.385A4.727 4.727 0 014.857 0c.646 0 1.2.083 1.66.248.47.166.94.438 1.41.819.067.05.117.103.15.161a.31.31 0 01.076.162c.017.05.026.111.026.186 0 .157-.06.29-.177.397a.612.612 0 01-.415.173.651.651 0 01-.453-.16 3.7 3.7 0 00-.969-.609c-.327-.14-.763-.21-1.308-.21-.495 0-.96.098-1.397.297a3.764 3.764 0 00-1.157.819 3.812 3.812 0 00-.768 1.216 3.857 3.857 0 00-.277 1.464 3.847 3.847 0 001.044 2.692c.336.347.722.62 1.158.819.436.19.902.285 1.397.285.428 0 .83-.07 1.208-.21a4.838 4.838 0 001.107-.609c.151-.107.298-.153.44-.136a.538.538 0 01.378.173c.1.1.15.24.15.422a.656.656 0 01-.05.248.497.497 0 01-.15.211 4.748 4.748 0 01-1.447.82c-.52.173-1.066.26-1.636.26zM8.14 8.399l-1.258-.248v-2.22H5.146a.692.692 0 01-.465-.162.515.515 0 01-.19-.41c0-.165.064-.301.19-.409a.692.692 0 01.465-.161H7.5c.193 0 .348.062.466.186a.616.616 0 01.176.46v2.964z" fill="#32C5FF"/><path d="M15.604 27v7h-1.12v-6.08h-3.34V34h-1.12v-7h5.58zm1.886 6.39c-.46-.493-.69-1.163-.69-2.01 0-.847.23-1.513.69-2 .468-.493 1.09-.74 1.87-.74.788 0 1.41.247 1.87.74.468.487.7 1.153.7 2s-.232 1.517-.7 2.01c-.46.487-1.082.73-1.87.73-.78 0-1.402-.243-1.87-.73zm.77-3.39c-.266.347-.4.807-.4 1.38 0 .573.134 1.033.4 1.38.274.347.64.52 1.1.52.46 0 .828-.173 1.1-.52.274-.347.41-.807.41-1.38 0-.573-.136-1.033-.41-1.38-.273-.347-.64-.52-1.1-.52-.46 0-.826.173-1.1.52zm8.93 3.12h.64v2.28h-1.01V34h-3.44v1.4h-1.01v-2.28h.4c.108-.233.194-.58.26-1.04.068-.467.114-.897.14-1.29.028-.4.068-1.077.12-2.03h3.9v4.36zm-1.07 0v-3.48h-1.91c-.006.107-.02.27-.04.49a47.78 47.78 0 01-.06.88 52.716 52.716 0 01-.06.74 5.01 5.01 0 01-.04.33c-.012.08-.03.177-.05.29-.012.113-.03.207-.05.28-.012.073-.03.153-.05.24a1.99 1.99 0 01-.07.23h2.33zm4.995-4.19c.7 0 1.267.237 1.7.71.44.467.66 1.097.66 1.89 0 .8-.23 1.433-.69 1.9-.46.46-1.086.69-1.88.69-1.707 0-2.56-1.12-2.56-3.36 0-1.133.164-2.003.49-2.61.327-.613.857-1.003 1.59-1.17.113-.027.58-.097 1.4-.21.494-.073.867-.157 1.12-.25v.84c-.193.107-.526.197-1 .27-.133.02-.303.043-.51.07-.206.02-.366.037-.48.05-.26.033-.483.093-.67.18a1.76 1.76 0 00-.54.41c-.173.187-.313.457-.42.81a6.06 6.06 0 00-.22 1.29c.14-.473.38-.843.72-1.11.347-.267.777-.4 1.29-.4zm-1.31 3.88c.267.313.634.47 1.1.47.467 0 .833-.157 1.1-.47.273-.313.41-.74.41-1.28s-.136-.967-.41-1.28c-.267-.32-.633-.48-1.1-.48-.46 0-.827.16-1.1.48-.267.313-.4.74-.4 1.28s.133.967.4 1.28zm5.117.58c-.46-.493-.69-1.163-.69-2.01 0-.847.23-1.513.69-2 .467-.493 1.09-.74 1.87-.74.787 0 1.41.247 1.87.74.467.487.7 1.153.7 2s-.233 1.517-.7 2.01c-.46.487-1.083.73-1.87.73-.78 0-1.403-.243-1.87-.73zm.77-3.39c-.266.347-.4.807-.4 1.38 0 .573.134 1.033.4 1.38.274.347.64.52 1.1.52.46 0 .827-.173 1.1-.52.274-.347.41-.807.41-1.38 0-.573-.136-1.033-.41-1.38-.273-.347-.64-.52-1.1-.52-.46 0-.826.173-1.1.52zm4.709 6v-7.24h.99v1.05a1.948 1.948 0 011.81-1.17c.654 0 1.184.247 1.59.74.414.487.62 1.153.62 2s-.206 1.517-.62 2.01c-.406.487-.933.73-1.58.73-.786 0-1.367-.35-1.74-1.05V36h-1.07zm1.41-6c-.26.347-.39.807-.39 1.38 0 .573.13 1.033.39 1.38.267.347.623.52 1.07.52.453 0 .81-.173 1.07-.52.267-.347.4-.807.4-1.38 0-.573-.133-1.033-.4-1.38-.26-.347-.617-.52-1.07-.52a1.28 1.28 0 00-1.07.52zM2.047 46v-5.24h4.58V46h-1.07v-4.36h-2.44V46h-1.07zm5.618-2.62c0-.9.233-1.58.7-2.04.467-.467 1.087-.7 1.86-.7 1.633 0 2.45.973 2.45 2.92v.13h-3.94c.04.54.197.953.47 1.24.28.28.643.42 1.09.42.633 0 1.063-.27 1.29-.81l1.02.07a1.96 1.96 0 01-.81 1.11c-.393.267-.893.4-1.5.4-.807 0-1.447-.23-1.92-.69-.473-.46-.71-1.143-.71-2.05zm1.08-.39h2.87c-.02-.493-.153-.88-.4-1.16-.247-.28-.577-.42-.99-.42-.413 0-.753.133-1.02.4-.26.267-.413.66-.46 1.18zM13.697 48v-7.24h.99v1.05a1.948 1.948 0 011.81-1.17c.653 0 1.183.247 1.59.74.413.487.62 1.153.62 2s-.207 1.517-.62 2.01c-.407.487-.933.73-1.58.73-.787 0-1.367-.35-1.74-1.05V48h-1.07zm1.41-6c-.26.347-.39.807-.39 1.38 0 .573.13 1.033.39 1.38.267.347.623.52 1.07.52.453 0 .81-.173 1.07-.52.267-.347.4-.807.4-1.38 0-.573-.133-1.033-.4-1.38-.26-.347-.617-.52-1.07-.52a1.28 1.28 0 00-1.07.52zm4.365 1.38c0-.873.223-1.547.67-2.02.446-.48 1.053-.72 1.82-.72.626 0 1.153.167 1.58.5.426.327.68.79.76 1.39l-1.03.09c-.067-.373-.22-.657-.46-.85a1.289 1.289 0 00-.85-.29c-.434 0-.78.167-1.04.5-.26.333-.39.8-.39 1.4 0 .6.13 1.067.39 1.4.266.333.623.5 1.07.5.353 0 .646-.1.88-.3.24-.207.393-.503.46-.89l1.03.08c-.08.62-.337 1.1-.77 1.44-.427.34-.96.51-1.6.51-.78 0-1.397-.237-1.85-.71-.447-.473-.67-1.15-.67-2.03zm6.266 2.01c-.46-.493-.69-1.163-.69-2.01 0-.847.23-1.513.69-2 .466-.493 1.09-.74 1.87-.74.787 0 1.41.247 1.87.74.466.487.7 1.153.7 2s-.233 1.517-.7 2.01c-.46.487-1.084.73-1.87.73-.78 0-1.404-.243-1.87-.73zm.77-3.39c-.267.347-.4.807-.4 1.38 0 .573.133 1.033.4 1.38.273.347.64.52 1.1.52.46 0 .826-.173 1.1-.52.273-.347.41-.807.41-1.38 0-.573-.137-1.033-.41-1.38-.273-.347-.64-.52-1.1-.52-.46 0-.827.173-1.1.52zm4.709 4v-5.24h1.07v2.13h2.5v-2.13h1.07V46h-1.07v-2.23h-2.5V46h-1.07zm5.697-1.39c0-.96.703-1.507 2.11-1.64l1.48-.14v-.4c0-.307-.097-.553-.29-.74-.187-.187-.47-.28-.85-.28-.34 0-.62.08-.84.24-.22.153-.34.38-.36.68h-.98c.02-.58.23-1.007.63-1.28.4-.273.916-.41 1.55-.41.713 0 1.26.17 1.64.51.38.34.57.84.57 1.5V46h-.99v-1.02c-.167.36-.417.64-.75.84-.334.2-.737.3-1.21.3-.567 0-.994-.14-1.28-.42-.287-.28-.43-.643-.43-1.09zm1.06-.05c0 .24.08.437.24.59.166.147.413.22.74.22.473 0 .85-.147 1.13-.44.28-.3.42-.683.42-1.15v-.28l-1.34.13c-.794.08-1.19.39-1.19.93zm5.433-3.8h3.87V46h-1.07v-4.36h-1.86c-.02.247-.043.59-.07 1.03-.02.373-.036.647-.05.82-.013.167-.033.39-.06.67a6.094 6.094 0 01-.08.6c-.026.12-.066.273-.12.46-.046.18-.103.31-.17.39a2.46 2.46 0 01-.23.24.68.68 0 01-.32.17c-.12.033-.256.05-.41.05-.18 0-.34-.013-.48-.04v-.86c.074.007.157.01.25.01.28 0 .474-.35.58-1.05.047-.333.114-1.317.2-2.95l.02-.42zm4.933 3.85c0-.96.703-1.507 2.11-1.64l1.48-.14v-.4c0-.307-.097-.553-.29-.74-.187-.187-.47-.28-.85-.28-.34 0-.62.08-.84.24-.22.153-.34.38-.36.68h-.98c.02-.58.23-1.007.63-1.28.4-.273.916-.41 1.55-.41.713 0 1.26.17 1.64.51.38.34.57.84.57 1.5V46h-.99v-1.02c-.167.36-.417.64-.75.84-.334.2-.737.3-1.21.3-.567 0-.994-.14-1.28-.42-.287-.28-.43-.643-.43-1.09zm1.06-.05c0 .24.08.437.24.59.166.147.413.22.74.22.473 0 .85-.147 1.13-.44.28-.3.42-.683.42-1.15v-.28l-1.34.13c-.794.08-1.19.39-1.19.93z" fill="#383838"/></svg>