<svg width="70" height="57" fill="none" xmlns="http://www.w3.org/2000/svg"><path d="M3.755 39.4c.687.04 1.23.21 1.63.51.407.293.61.72.61 1.28 0 .627-.246 1.107-.74 1.44-.486.326-1.136.49-1.95.49-1.74 0-2.68-.74-2.82-2.22l1.07-.06c.094.94.677 1.41 1.75 1.41.5 0 .887-.103 1.16-.31.274-.207.41-.507.41-.9 0-.787-.526-1.18-1.58-1.18h-.84v-.84h.79c.474 0 .83-.097 1.07-.29.24-.2.36-.48.36-.84 0-.367-.123-.647-.37-.84-.24-.2-.573-.3-1-.3-.433 0-.796.106-1.09.32-.293.213-.463.543-.51.99l-1.07-.09c.08-.7.354-1.224.82-1.57.467-.347 1.084-.52 1.85-.52.734 0 1.33.153 1.79.46.467.306.7.763.7 1.37 0 .507-.173.907-.52 1.2-.34.287-.846.45-1.52.49zm3.002 2.21c0-.96.704-1.507 2.11-1.64l1.48-.14v-.4c0-.307-.096-.553-.29-.74-.186-.187-.47-.28-.85-.28-.34 0-.62.08-.84.24-.22.153-.34.38-.36.68h-.98c.02-.58.23-1.007.63-1.28.4-.273.917-.41 1.55-.41.714 0 1.26.17 1.64.51.38.34.57.84.57 1.5V43h-.99v-1.02c-.166.36-.416.64-.75.84-.333.2-.736.3-1.21.3-.566 0-.993-.14-1.28-.42-.286-.28-.43-.644-.43-1.09zm1.06-.05c0 .24.08.436.24.59.167.147.414.22.74.22.474 0 .85-.147 1.13-.44.28-.3.42-.684.42-1.15v-.28l-1.34.13c-.793.08-1.19.39-1.19.93zM12.691 43v-5.24h4.58V43h-1.07v-4.36h-2.44V43h-1.07zm9.519-5.24h1.14l-1.86 5.77c-.174.606-.397 1.023-.67 1.25-.274.227-.687.34-1.24.34-.207 0-.42-.014-.64-.04v-.82c.266.013.456.02.57.02.28 0 .493-.063.64-.19.146-.12.27-.354.37-.7l.12-.39h-.62l-1.91-5.24h1.15l1.62 4.81 1.33-4.81zm1.52 2.62c0-.873.223-1.547.67-2.02.446-.48 1.053-.72 1.82-.72.626 0 1.153.166 1.58.5.426.327.68.79.76 1.39l-1.03.09c-.067-.373-.22-.657-.46-.85a1.288 1.288 0 00-.85-.29c-.434 0-.78.167-1.04.5-.26.333-.39.8-.39 1.4 0 .6.13 1.066.39 1.4.266.333.623.5 1.07.5.353 0 .646-.1.88-.3.24-.207.393-.503.46-.89l1.03.08c-.08.62-.337 1.1-.77 1.44-.427.34-.96.51-1.6.51-.78 0-1.397-.237-1.85-.71-.447-.473-.67-1.15-.67-2.03zM34.416 43h-1.33l-1.81-2.23h-.62V43h-1.07v-5.24h1.07v2.17h.64l1.71-2.17h1.27l-2.22 2.5 2.36 2.74zm3.217-.61c-.46-.493-.69-1.163-.69-2.01 0-.847.23-1.514.69-2 .466-.494 1.09-.74 1.87-.74.786 0 1.41.246 1.87.74.466.486.7 1.153.7 2 0 .846-.234 1.517-.7 2.01-.46.486-1.084.73-1.87.73-.78 0-1.404-.243-1.87-.73zm.77-3.39c-.267.346-.4.806-.4 1.38 0 .573.133 1.033.4 1.38.273.346.64.52 1.1.52.46 0 .826-.174 1.1-.52.273-.347.41-.807.41-1.38 0-.574-.137-1.034-.41-1.38-.274-.347-.64-.52-1.1-.52-.46 0-.827.173-1.1.52zm4.053-.36v-.88h4.59v.88h-1.76V43h-1.07v-4.36h-1.76zm9.476 3.48h.64v2.28h-1.01V43h-3.44v1.4h-1.01v-2.28h.4c.107-.233.194-.58.26-1.04.067-.467.114-.897.14-1.29.027-.4.067-1.077.12-2.03h3.9v4.36zm-1.07 0v-3.48h-1.91c-.006.106-.02.27-.04.49a47.99 47.99 0 01-.06.88l-.03.4c-.006.08-.016.193-.03.34-.013.14-.026.25-.04.33l-.05.29a1.92 1.92 0 01-.05.28c-.013.073-.03.153-.05.24-.02.08-.043.157-.07.23h2.33zm2.223-1.74c0-.9.233-1.58.7-2.04.467-.467 1.087-.7 1.86-.7 1.633 0 2.45.973 2.45 2.92v.13h-3.94c.04.54.197.953.47 1.24.28.28.644.42 1.09.42.633 0 1.063-.27 1.29-.81l1.02.07a1.96 1.96 0 01-.81 1.11c-.393.267-.893.4-1.5.4-.807 0-1.447-.23-1.92-.69-.473-.46-.71-1.144-.71-2.05zm1.08-.39h2.87c-.02-.494-.153-.88-.4-1.16-.247-.28-.576-.42-.99-.42-.413 0-.753.133-1.02.4-.26.267-.413.66-.46 1.18zm5.434-2.23h3.87V43h-1.07v-4.36h-1.86c-.02.246-.043.59-.07 1.03-.02.373-.037.646-.05.82-.013.166-.033.39-.06.67a6.072 6.072 0 01-.08.6 8.18 8.18 0 01-.12.46c-.047.18-.103.31-.17.39a2.47 2.47 0 01-.23.24.681.681 0 01-.32.17 1.55 1.55 0 01-.41.05c-.18 0-.34-.014-.48-.04v-.86c.073.006.157.01.25.01.28 0 .473-.35.58-1.05.047-.334.113-1.317.2-2.95l.02-.42zm4.931 3.85c0-.96.704-1.507 2.11-1.64l1.48-.14v-.4c0-.307-.096-.553-.29-.74-.186-.187-.47-.28-.85-.28-.34 0-.62.08-.84.24-.22.153-.34.38-.36.68h-.98c.02-.58.23-1.007.63-1.28.4-.273.918-.41 1.55-.41.714 0 1.26.17 1.64.51.38.34.57.84.57 1.5V43h-.99v-1.02c-.166.36-.416.64-.75.84-.332.2-.736.3-1.21.3-.566 0-.992-.14-1.28-.42-.286-.28-.43-.644-.43-1.09zm1.06-.05c0 .24.08.436.24.59.168.147.414.22.74.22.474 0 .85-.147 1.13-.44.28-.3.42-.684.42-1.15v-.28l-1.34.13c-.792.08-1.19.39-1.19.93zM16.95 55v-5.24h4.58V55h-1.07v-4.36h-2.44V55h-1.07zm5.898 2v-7.24h.99v1.05c.166-.373.41-.66.73-.86.32-.207.68-.31 1.08-.31.653 0 1.183.246 1.59.74.413.486.62 1.153.62 2 0 .846-.207 1.517-.62 2.01-.407.486-.934.73-1.58.73-.787 0-1.367-.35-1.74-1.05V57h-1.07zm1.41-6c-.26.346-.39.806-.39 1.38 0 .573.13 1.033.39 1.38.266.346.623.52 1.07.52.453 0 .81-.174 1.07-.52.266-.347.4-.807.4-1.38 0-.574-.134-1.034-.4-1.38-.26-.347-.617-.52-1.07-.52a1.28 1.28 0 00-1.07.52zm5.054 3.39c-.46-.493-.69-1.163-.69-2.01 0-.847.23-1.514.69-2 .467-.494 1.09-.74 1.87-.74.787 0 1.41.246 1.87.74.467.486.7 1.153.7 2 0 .846-.233 1.517-.7 2.01-.46.486-1.083.73-1.87.73-.78 0-1.403-.243-1.87-.73zm.77-3.39c-.266.346-.4.806-.4 1.38 0 .573.134 1.033.4 1.38.274.346.64.52 1.1.52.46 0 .827-.174 1.1-.52.274-.347.41-.807.41-1.38 0-.574-.136-1.034-.41-1.38-.273-.347-.64-.52-1.1-.52-.46 0-.826.173-1.1.52zm8.93 3.12h.64v2.28h-1.01V55h-3.44v1.4h-1.01v-2.28h.4c.107-.233.194-.58.26-1.04.067-.467.114-.897.14-1.29.027-.4.067-1.077.12-2.03h3.9v4.36zm-1.07 0v-3.48h-1.91c-.006.106-.02.27-.04.49a47.99 47.99 0 01-.06.88l-.03.4c-.006.08-.016.193-.03.34a5.01 5.01 0 01-.04.33l-.05.29a1.92 1.92 0 01-.05.28c-.013.073-.03.153-.05.24-.02.08-.043.157-.07.23h2.33zm2.292-.51c0-.96.703-1.507 2.11-1.64l1.48-.14v-.4c0-.307-.097-.553-.29-.74-.187-.187-.47-.28-.85-.28-.34 0-.62.08-.84.24-.22.153-.34.38-.36.68h-.98c.02-.58.23-1.007.63-1.28.4-.273.917-.41 1.55-.41.713 0 1.26.17 1.64.51.38.34.57.84.57 1.5V55h-.99v-1.02c-.167.36-.417.64-.75.84-.333.2-.737.3-1.21.3-.567 0-.993-.14-1.28-.42-.287-.28-.43-.644-.43-1.09zm1.06-.05c0 .24.08.436.24.59.167.147.413.22.74.22.473 0 .85-.147 1.13-.44.28-.3.42-.684.42-1.15v-.28l-1.34.13c-.793.08-1.19.39-1.19.93zM53.609 55h-1.31l-1.64-2.23h-.56V55h-1.03v-2.23h-.56L46.869 55h-1.31l2.16-2.73-2.08-2.51h1.26l1.58 2.17h.59v-2.17h1.03v2.17h.59l1.58-2.17h1.25l-2.08 2.51 2.17 2.73z" fill="#383838"/><path d="M21.212 9.725a.452.452 0 00-.526.273l-2.238 6.4-.514-4.18h.342a.38.38 0 00.377-.376v-1.15a.38.38 0 00-.377-.375h-1.883a.37.37 0 00-.366.375v1.15a.37.37 0 00.366.376h.342l-.514 4.18-2.238-6.4a.445.445 0 00-.525-.273A5.957 5.957 0 009.302 14.7l-.296 3.427c-.08.99.696 1.845 1.7 1.845l13.23.011a10.626 10.626 0 01-.308-2.573c0-1.707.4-3.324 1.107-4.759a6 6 0 00-3.527-2.926h.004zm-3.861-.658a4.54 4.54 0 004.547-4.534A4.54 4.54 0 0017.351 0a4.539 4.539 0 00-4.545 4.533 4.54 4.54 0 004.545 4.534zM59.703 14.7c-.285-2.39-1.964-4.292-4.167-4.975a.451.451 0 00-.526.273l-2.237 6.4-.515-4.18h.343a.38.38 0 00.377-.376v-1.15a.38.38 0 00-.377-.375h-1.872a.38.38 0 00-.377.375v1.15c0 .206.17.376.377.376h.342l-.514 4.18-2.25-6.4a.432.432 0 00-.514-.273 5.968 5.968 0 00-3.516 2.915 10.784 10.784 0 011.107 4.77c0 .889-.103 1.742-.308 2.562l13.207.011a1.713 1.713 0 001.711-1.844l-.296-3.44h.005zm-8.025-5.633a4.539 4.539 0 004.546-4.534A4.54 4.54 0 0051.679 0a4.54 4.54 0 00-4.546 4.533 4.54 4.54 0 004.545 4.534z" fill="#32C5FF"/><g clip-path="url(#clip0_2118_248)" fill="#069EDA"><path d="M35.724 13.852h-3.05v4.66h3.07c.651.029 1.286-.2 1.769-.636a2.462 2.462 0 00.809-1.692 2.452 2.452 0 00-.813-1.704 2.467 2.467 0 00-1.785-.628z"/><path d="M34.265 10.018a8.5 8.5 0 00-4.713 1.426 8.466 8.466 0 00-3.125 3.798 8.441 8.441 0 001.84 9.222 8.505 8.505 0 009.246 1.834 8.48 8.48 0 003.807-3.117 8.447 8.447 0 00-1.055-10.685 8.495 8.495 0 00-6-2.478zm1.459 9.816h-3.05v.762h4.397a.531.531 0 01.53.529.528.528 0 01-.53.528h-4.396v2.645a.66.66 0 01-.663.66.664.664 0 01-.663-.66v-2.645h-.663a.531.531 0 01-.53-.528.528.528 0 01.53-.53h.642v-.761h-.642a.664.664 0 01-.663-.661.66.66 0 01.663-.661h.642v-5.32a.66.66 0 01.663-.662h3.711a3.792 3.792 0 012.709 1.02 3.773 3.773 0 011.194 2.63 3.777 3.777 0 01-1.186 2.623 3.797 3.797 0 01-2.695 1.031z"/></g><defs><clipPath id="clip0_2118_248"><path fill="#fff" transform="translate(24.72 8.96)" d="M0 0h19.089v19.04H0z"/></clipPath></defs></svg>