<svg width="54" height="49" fill="none" xmlns="http://www.w3.org/2000/svg"><path d="M3.256 32.5c0-1.087.27-1.96.81-2.62.54-.667 1.297-1 2.27-1 .8 0 1.453.213 1.96.64.507.42.807.99.9 1.71l-1.06.09a1.717 1.717 0 00-.6-1.11c-.327-.28-.727-.42-1.2-.42-.64 0-1.127.26-1.46.78-.333.52-.5 1.163-.5 1.93 0 .786.18 1.437.54 1.95.36.506.86.76 1.5.76.507 0 .917-.154 1.23-.46.313-.313.5-.707.56-1.18l1.07.07c-.093.76-.387 1.363-.88 1.81-.487.447-1.147.67-1.98.67-1.007 0-1.787-.327-2.34-.98-.547-.66-.82-1.54-.82-2.64zM15.103 36h-1.33l-1.81-2.23h-.62V36h-1.07v-5.24h1.07v2.17h.64l1.71-2.17h1.27l-2.22 2.5 2.36 2.74zm3.717-2.71c1.046.107 1.57.533 1.57 1.28a1.3 1.3 0 01-.47 1.02c-.308.273-.808.41-1.5.41h-2.56v-5.24h2.43c.64 0 1.12.123 1.44.37.326.24.49.556.49.95 0 .68-.467 1.083-1.4 1.21zm-1.89-1.73v1.42h1.28c.626 0 .94-.237.94-.71 0-.474-.33-.71-.99-.71h-1.23zm1.39 3.64c.666 0 1-.257 1-.77 0-.5-.35-.75-1.05-.75h-1.34v1.52h1.39zm3.506.19c-.46-.493-.69-1.163-.69-2.01 0-.847.23-1.514.69-2 .466-.493 1.09-.74 1.87-.74.786 0 1.41.247 1.87.74.466.486.7 1.153.7 2 0 .846-.234 1.517-.7 2.01-.46.486-1.084.73-1.87.73-.78 0-1.404-.243-1.87-.73zm.77-3.39c-.267.346-.4.806-.4 1.38 0 .573.133 1.033.4 1.38.273.346.64.52 1.1.52.46 0 .826-.174 1.1-.52.273-.347.41-.807.41-1.38 0-.574-.137-1.034-.41-1.38-.274-.347-.64-.52-1.1-.52-.46 0-.827.173-1.1.52zm7.378 1.29c1.08.107 1.62.547 1.62 1.32 0 .447-.176.81-.53 1.09-.353.28-.943.42-1.77.42-1.513 0-2.31-.584-2.39-1.75l1.03-.05c.054.653.507.98 1.36.98.82 0 1.23-.28 1.23-.84 0-.52-.44-.78-1.32-.78h-.61v-.7h.56c.407 0 .707-.067.9-.2.2-.14.3-.324.3-.55a.642.642 0 00-.29-.56c-.186-.14-.44-.21-.76-.21-.333 0-.61.076-.83.23-.213.153-.336.387-.37.7l-1.03-.06c.04-.573.26-.997.66-1.27.407-.28.93-.42 1.57-.42.707 0 1.237.127 1.59.38.354.247.53.58.53 1 0 .706-.483 1.13-1.45 1.27zM32.627 36v-5.24h1.07v2.13h2.5v-2.13h1.07V36h-1.07v-2.23h-2.5V36h-1.07zm5.697-1.39c0-.96.703-1.507 2.11-1.64l1.48-.14v-.4c0-.307-.097-.553-.29-.74-.187-.187-.47-.28-.85-.28-.34 0-.62.08-.84.24-.22.153-.34.38-.36.68h-.98c.02-.58.23-1.007.63-1.28.4-.274.916-.41 1.55-.41.713 0 1.26.17 1.64.51.38.34.57.84.57 1.5V36h-.99v-1.02c-.167.36-.417.64-.75.84-.334.2-.737.3-1.21.3-.567 0-.994-.14-1.28-.42-.287-.28-.43-.644-.43-1.09zm1.06-.05c0 .24.08.436.24.59.166.147.413.22.74.22.473 0 .85-.147 1.13-.44.28-.3.42-.684.42-1.15v-.28l-1.34.13c-.794.08-1.19.39-1.19.93zm6.694-3.8h2.44V36h-1.08v-2.09h-.97L45.138 36h-1.26l1.54-2.14c-.907-.167-1.36-.673-1.36-1.52 0-.507.173-.897.52-1.17.346-.274.846-.41 1.5-.41zm1.36 2.46v-1.64h-1.23c-.347 0-.614.073-.8.22-.187.14-.28.34-.28.6 0 .26.093.463.28.61.186.14.453.21.8.21h1.23zM.677 46.61c0-.96.704-1.507 2.11-1.64l1.48-.14v-.4c0-.307-.096-.553-.29-.74-.186-.187-.47-.28-.85-.28-.34 0-.62.08-.84.24-.22.153-.34.38-.36.68h-.98c.02-.58.23-1.007.63-1.28.4-.273.917-.41 1.55-.41.714 0 1.26.17 1.64.51.38.34.57.84.57 1.5V48h-.99v-1.02c-.166.36-.416.64-.75.84-.333.2-.736.3-1.21.3-.566 0-.993-.14-1.28-.42-.286-.28-.43-.644-.43-1.09zm1.06-.05c0 .24.08.436.24.59.167.147.414.22.74.22.474 0 .85-.147 1.13-.44.28-.3.42-.684.42-1.15v-.28l-1.34.13c-.793.08-1.19.39-1.19.93zM6.611 48v-5.24h1.07v2.13h2.5v-2.13h1.07V48h-1.07v-2.23h-2.5V48h-1.07zm5.697-1.39c0-.96.703-1.507 2.11-1.64l1.48-.14v-.4c0-.307-.097-.553-.29-.74-.187-.187-.47-.28-.85-.28-.34 0-.62.08-.84.24-.22.153-.34.38-.36.68h-.98c.02-.58.23-1.007.63-1.28.4-.273.917-.41 1.55-.41.713 0 1.26.17 1.64.51.38.34.57.84.57 1.5V48h-.99v-1.02c-.167.36-.417.64-.75.84-.333.2-.737.3-1.21.3-.567 0-.993-.14-1.28-.42-.287-.28-.43-.644-.43-1.09zm1.06-.05c0 .24.08.436.24.59.167.147.413.22.74.22.473 0 .85-.147 1.13-.44.28-.3.42-.684.42-1.15v-.28l-1.34.13c-.793.08-1.19.39-1.19.93zm5.434-3.8h3.87V48h-1.07v-4.36h-1.86c-.02.246-.043.59-.07 1.03-.02.373-.037.647-.05.82-.013.167-.033.39-.06.67a6.072 6.072 0 01-.08.6 8.18 8.18 0 01-.12.46c-.047.18-.103.31-.17.39a2.47 2.47 0 01-.23.24.681.681 0 01-.32.17 1.55 1.55 0 01-.41.05c-.18 0-.34-.014-.48-.04v-.86c.073.007.157.01.25.01.28 0 .473-.35.58-1.05.047-.334.113-1.317.2-2.95l.02-.42zm8.422 0h1.59V48h-1.03v-4.46l-2.2 4.46h-1.59v-5.24h1.03v4.46l2.2-4.46zm2.473.88v-.88h4.59v.88h-1.76V48h-1.07v-4.36h-1.76zm8.699-.88h1.59V48h-1.03v-4.46l-2.2 4.46h-1.59v-5.24h1.03v4.46l2.2-4.46zM46.138 48h-1.33l-1.81-2.23h-.62V48h-1.07v-5.24h1.07v2.17h.64l1.71-2.17h1.27l-2.22 2.5 2.36 2.74zm.311-1.39c0-.96.703-1.507 2.11-1.64l1.48-.14v-.4c0-.307-.097-.553-.29-.74-.187-.187-.47-.28-.85-.28-.34 0-.62.08-.84.24-.22.153-.34.38-.36.68h-.98c.02-.58.23-1.007.63-1.28.4-.273.916-.41 1.55-.41.713 0 1.26.17 1.64.51.38.34.57.84.57 1.5V48h-.99v-1.02c-.167.36-.417.64-.75.84-.334.2-.737.3-1.21.3-.567 0-.994-.14-1.28-.42-.287-.28-.43-.644-.43-1.09zm1.06-.05c0 .24.08.436.24.59.166.147.413.22.74.22.473 0 .85-.147 1.13-.44.28-.3.42-.684.42-1.15v-.28l-1.34.13c-.794.08-1.19.39-1.19.93z" fill="#383838"/><g clip-path="url(#clip0_2118_243)"><mask id="a" style="mask-type:alpha" maskUnits="userSpaceOnUse" x="0" y="0" width="54" height="13"><path fill-rule="evenodd" clip-rule="evenodd" d="M.87.867h52.26v11.266H.87V.867z" fill="#fff"/></mask><g mask="url(#a)" fill-rule="evenodd" clip-rule="evenodd"><path d="M4.391 6.282c1.24 0 2.033-.202 2.612-.653.512-.405.76-.95.76-1.619 0-.824-.38-1.385-.975-1.758-.645-.405-1.438-.513-2.777-.513H1.88v4.543h2.51zM.871.867h3.206c1.389 0 2.463.156 3.306.67.81.497 1.388 1.306 1.388 2.427a2.816 2.816 0 01-1.256 2.38c-.545.374-1.19.56-1.934.67l4 5.12H8.358l-3.9-5.043h-2.58v5.042H.871V.867zm20.323 3.52h.725v7.746h-.726V4.387zm3.828 6.149c.881.512 2.011.784 3.091.784 1.38 0 2.261-.438 2.261-1.327 0-1.115-1.363-1.235-2.642-1.416-1.363-.196-2.91-.558-2.91-2.065 0-1.401 1.314-2.125 3.175-2.125 1.064 0 2.145.242 2.943.633v.935c-.865-.497-1.962-.754-2.976-.754-1.28 0-2.16.407-2.16 1.251 0 1.04 1.33 1.145 2.559 1.326 1.48.211 2.992.573 2.992 2.14 0 1.462-1.313 2.215-3.291 2.215-1.08 0-2.211-.226-3.042-.648v-.95zm9.36-1.113v-4.12h-1.576v-.787h1.576v-2.09l.949-.15v2.24h2.556v.788h-2.556V9.27c0 1.12.176 2.045 1.43 2.045.418 0 .82-.106 1.126-.273v.848a3.258 3.258 0 01-1.254.242c-.579 0-1.238-.151-1.688-.636-.402-.439-.563-1.105-.563-2.074zm10.014 1.041v-1.67a7.368 7.368 0 00-1.904-.27c-1.093 0-2.217.33-2.217 1.428 0 .963.858 1.384 1.795 1.384.874 0 1.717-.36 2.326-.872zm-4.261 1.158c-.5-.361-.796-.902-.796-1.594 0-.783.374-1.339.967-1.715.578-.36 1.358-.496 2.108-.496.702 0 1.342.105 1.982.27V7.23c0-.722-.14-1.188-.562-1.549-.36-.3-.89-.466-1.577-.466-.905 0-1.732.286-2.356.722v-.888a4.809 4.809 0 012.45-.662c.921 0 1.67.226 2.185.647.515.422.78 1.083.78 1.986v3.203c0 .632.156 1.098.781 1.098.187 0 .36-.045.5-.12v.767c-.172.075-.406.12-.672.12-.655 0-1.17-.3-1.389-.872h-.031a4.124 4.124 0 01-2.56.917c-.655 0-1.31-.15-1.81-.511zm9.489-2.199v-4.12h-1.576v-.787h1.576v-2.09l.949-.15v2.24h2.556v.788h-2.556V9.27c0 1.121.176 2.045 1.43 2.045.418 0 .82-.106 1.126-.273v.848c-.306.137-.772.242-1.254.242-.579 0-1.238-.15-1.688-.636-.402-.439-.563-1.105-.563-2.074z" fill="#383838"/><path d="M16.248 7.159c.222.31.352.69.352 1.101 0 1.055-.842 1.9-1.939 1.9-1.096 0-1.939-.845-1.939-1.9 0-1.054.843-1.898 1.94-1.898.489 0 .926.169 1.262.448l1.426-1.636c-.73-.496-1.654-.786-2.688-.787-2.496 0-4.355 1.688-4.356 3.873 0 2.186 1.86 3.873 4.355 3.873 2.496 0 4.355-1.687 4.355-3.872 0-.908-.321-1.73-.875-2.38l-1.893 1.278zm5.263-4.179l1.86-1.36a4.005 4.005 0 00-.777-.753l-1.4 1.741c.12.109.226.234.317.371z" fill="#26A4F0"/></g></g><defs><clipPath id="clip0_2118_243"><path fill="#fff" d="M0 0h54v13H0z"/></clipPath></defs></svg>