<svg width="66" height="49" fill="none" xmlns="http://www.w3.org/2000/svg"><path d="M3.384 43.41c.653.04 1.177.207 1.57.5.394.287.59.7.59 1.24 0 .593-.226 1.05-.68 1.37-.453.32-1.043.48-1.77.48H.024v-7h3.02c.687 0 1.24.147 1.66.44.427.293.64.733.64 1.32 0 1.007-.653 1.557-1.96 1.65zm-2.24-2.54v2.15h1.84c.393 0 .697-.097.91-.29.22-.193.33-.46.33-.8 0-.333-.113-.593-.34-.78-.226-.187-.543-.28-.95-.28h-1.79zm1.85 5.26c.46 0 .813-.097 1.06-.29.247-.2.37-.48.37-.84 0-.353-.12-.63-.36-.83-.233-.207-.57-.31-1.01-.31h-1.91v2.27h1.85zm6.848-4.37h1.59V47h-1.03v-4.46L8.202 47h-1.59v-5.24h1.03v4.46l2.2-4.46zm7.193 4.36h.64v2.28h-1.01V47h-3.44v1.4h-1.01v-2.28h.4c.107-.233.193-.58.26-1.04.066-.467.113-.897.14-1.29.026-.4.066-1.077.12-2.03h3.9v4.36zm-1.07 0v-3.48h-1.91c-.007.107-.02.27-.04.49a47.78 47.78 0 01-.06.88l-.03.4-.03.34a5.01 5.01 0 01-.04.33l-.05.29c-.014.113-.03.207-.05.28-.014.073-.03.153-.05.24-.02.08-.043.157-.07.23h2.33zm2.223-1.74c0-.9.233-1.58.7-2.04.466-.467 1.086-.7 1.86-.7 1.633 0 2.45.973 2.45 2.92v.13h-3.94c.04.54.196.953.47 1.24.28.28.643.42 1.09.42.633 0 1.063-.27 1.29-.81l1.02.07a1.96 1.96 0 01-.81 1.11c-.394.267-.894.4-1.5.4-.807 0-1.447-.23-1.92-.69-.474-.46-.71-1.143-.71-2.05zm1.08-.39h2.87c-.02-.493-.154-.88-.4-1.16-.247-.28-.577-.42-.99-.42-.414 0-.754.133-1.02.4-.26.267-.414.66-.46 1.18zm5.362 2.4c-.46-.493-.69-1.163-.69-2.01 0-.847.23-1.513.69-2 .466-.493 1.09-.74 1.87-.74.786 0 1.41.247 1.87.74.466.487.7 1.153.7 2s-.234 1.517-.7 2.01c-.46.487-1.084.73-1.87.73-.78 0-1.404-.243-1.87-.73zM25.4 43c-.267.347-.4.807-.4 1.38 0 .573.133 1.033.4 1.38.273.347.64.52 1.1.52.46 0 .826-.173 1.1-.52.273-.347.41-.807.41-1.38 0-.573-.137-1.033-.41-1.38-.274-.347-.64-.52-1.1-.52-.46 0-.827.173-1.1.52zm4.428 1.38c0-.873.224-1.547.67-2.02.447-.48 1.054-.72 1.82-.72.627 0 1.154.167 1.58.5.427.327.68.79.76 1.39l-1.03.09c-.066-.373-.22-.657-.46-.85a1.289 1.289 0 00-.85-.29c-.433 0-.78.167-1.04.5-.26.333-.39.8-.39 1.4 0 .6.13 1.067.39 1.4.267.333.624.5 1.07.5.354 0 .647-.1.88-.3.24-.207.394-.503.46-.89l1.03.08c-.08.62-.336 1.1-.77 1.44-.426.34-.96.51-1.6.51-.78 0-1.396-.237-1.85-.71-.446-.473-.67-1.15-.67-2.03zm8.909-.69c1.386 0 2.08.55 2.08 1.65 0 1.107-.694 1.66-2.08 1.66h-2.36v-4.36h-1.22v-.88h2.29v1.93h1.29zm-.08 2.49c.726 0 1.09-.283 1.09-.85 0-.56-.364-.84-1.09-.84h-1.21v1.69h1.21zm2.88-1.8c0-.9.234-1.58.7-2.04.467-.467 1.087-.7 1.86-.7 1.634 0 2.45.973 2.45 2.92v.13h-3.94c.04.54.197.953.47 1.24.28.28.644.42 1.09.42.634 0 1.064-.27 1.29-.81l1.02.07a1.96 1.96 0 01-.81 1.11c-.393.267-.893.4-1.5.4-.806 0-1.446-.23-1.92-.69-.473-.46-.71-1.143-.71-2.05zm1.08-.39h2.87c-.02-.493-.153-.88-.4-1.16-.246-.28-.576-.42-.99-.42-.413 0-.753.133-1.02.4-.26.267-.413.66-.46 1.18zm9.673-2.23h1.77V47h-1.02v-4.5L51.47 47h-1.31l-1.56-4.5V47h-1.03v-5.24h1.78l1.48 4.64 1.46-4.64zM60.212 47h-1.33l-1.81-2.23h-.62V47h-1.07v-5.24h1.07v2.17h.64l1.71-2.17h1.27l-2.22 2.5 2.36 2.74zm.31-1.39c0-.96.703-1.507 2.11-1.64l1.48-.14v-.4c0-.307-.096-.553-.29-.74-.187-.187-.47-.28-.85-.28-.34 0-.62.08-.84.24-.22.153-.34.38-.36.68h-.98c.02-.58.23-1.007.63-1.28.4-.273.917-.41 1.55-.41.713 0 1.26.17 1.64.51.38.34.57.84.57 1.5V47h-.99v-1.02c-.166.36-.416.64-.75.84-.333.2-.736.3-1.21.3-.566 0-.993-.14-1.28-.42-.286-.28-.43-.643-.43-1.09zm1.06-.05c0 .24.08.437.24.59.167.147.413.22.74.22.474 0 .85-.147 1.13-.44.28-.3.42-.683.42-1.15v-.28l-1.34.13c-.793.08-1.19.39-1.19.93z" fill="#383838"/><path d="M34.65 14.934l2.816-1.967V2.257A2.258 2.258 0 0035.2 0H17.266A2.268 2.268 0 0015 2.258V19.11a2.268 2.268 0 002.266 2.258h11.556v-1.936h-1.618v-2.306h1.764a3.118 3.118 0 012.979-2.194h2.703v.001zM32.335 1.936H35.2c.178 0 .323.145.323.322v1.968h-3.189v-2.29h.001zm-10.262 0h3.19v2.29h-3.19v-2.29zm-1.942 17.498h-2.865a.324.324 0 01-.323-.322v-1.984h3.189v2.306h-.002zm0-15.209h-3.19V2.259c0-.178.147-.322.324-.322h2.864v2.29h.002zm5.13 15.21h-3.189v-2.307h3.189v2.306zm3.512-8.081l-4.24 2.564a.783.783 0 01-1.198-.677V8.112c0-.613.664-1 1.198-.677L28.773 10a.798.798 0 010 1.354zm1.619-7.128h-3.19v-2.29h3.19v2.29z" fill="#91A800"/><path d="M48.407 14.184a.967.967 0 00-1.364 0 .96.96 0 000 1.358c2.71 2.701 2.707 7.099-.007 9.803a.957.957 0 000 1.36.966.966 0 001.363 0c3.465-3.454 3.469-9.07.006-12.52h.002z" fill="#B9D700"/><path d="M45.799 16.783a.967.967 0 00-1.364 0 .957.957 0 000 1.358 3.252 3.252 0 01-.007 4.606.956.956 0 000 1.359.966.966 0 001.363 0 5.17 5.17 0 00.007-7.323zm-5.151-3.676l-5.382 3.765H31.95a1.18 1.18 0 00-1.182 1.178v4.79a1.18 1.18 0 001.182 1.178h3.316l5.382 3.766c.783.548 1.86-.01 1.86-.964V14.072c0-.953-1.077-1.511-1.86-.964v-.001z" fill="#B9D700"/></svg>