<svg width="56" height="56" fill="none" xmlns="http://www.w3.org/2000/svg"><path d="M.014 43v-7h2.88c.7 0 1.28.177 1.74.53.46.353.69.897.69 1.63 0 .733-.223 1.27-.67 1.61-.446.333-1.023.5-1.73.5h-1.79V43H.014zm1.12-3.59h1.63c.447 0 .797-.103 1.05-.31.26-.207.39-.52.39-.94 0-.413-.13-.723-.39-.93-.253-.207-.603-.31-1.05-.31h-1.63v2.49zm4.681 2.2c0-.96.703-1.507 2.11-1.64l1.48-.14v-.4c0-.307-.097-.553-.29-.74-.187-.187-.47-.28-.85-.28-.34 0-.62.08-.84.24-.22.153-.34.38-.36.68h-.98c.02-.58.23-1.007.63-1.28.4-.273.917-.41 1.55-.41.713 0 1.26.17 1.64.51.38.34.57.84.57 1.5V43h-.99v-1.02c-.167.36-.417.64-.75.84-.333.2-.737.3-1.21.3-.567 0-.993-.14-1.28-.42-.287-.28-.43-.643-.43-1.09zm1.06-.05c0 .24.08.437.24.59.167.147.413.22.74.22.473 0 .85-.147 1.13-.44.28-.3.42-.683.42-1.15v-.28l-1.34.13c-.793.08-1.19.39-1.19.93zm7.544-1.27c1.08.107 1.62.547 1.62 1.32 0 .447-.177.81-.53 1.09-.353.28-.943.42-1.77.42-1.513 0-2.31-.583-2.39-1.75l1.03-.05c.053.653.507.98 1.36.98.82 0 1.23-.28 1.23-.84 0-.52-.44-.78-1.32-.78h-.61v-.7h.56c.407 0 .707-.067.9-.2.2-.14.3-.323.3-.55a.642.642 0 00-.29-.56c-.187-.14-.44-.21-.76-.21-.333 0-.61.077-.83.23-.213.153-.337.387-.37.7l-1.03-.06c.04-.573.26-.997.66-1.27.407-.28.93-.42 1.57-.42.707 0 1.237.127 1.59.38.353.247.53.58.53 1 0 .707-.483 1.13-1.45 1.27zM17.071 45v-7.24h.99v1.05a1.948 1.948 0 011.81-1.17c.653 0 1.183.247 1.59.74.414.487.62 1.153.62 2s-.206 1.517-.62 2.01c-.406.487-.933.73-1.58.73-.787 0-1.366-.35-1.74-1.05V45h-1.07zm1.41-6c-.26.347-.39.807-.39 1.38 0 .573.13 1.033.39 1.38.267.347.623.52 1.07.52.454 0 .81-.173 1.07-.52.267-.347.4-.807.4-1.38 0-.573-.133-1.033-.4-1.38-.26-.347-.616-.52-1.07-.52-.446 0-.803.173-1.07.52zm4.326 2.61c0-.96.704-1.507 2.11-1.64l1.48-.14v-.4c0-.307-.096-.553-.29-.74-.186-.187-.47-.28-.85-.28-.34 0-.62.08-.84.24-.22.153-.34.38-.36.68h-.98c.02-.58.23-1.007.63-1.28.4-.273.917-.41 1.55-.41.714 0 1.26.17 1.64.51.38.34.57.84.57 1.5V43h-.99v-1.02c-.166.36-.416.64-.75.84-.333.2-.736.3-1.21.3-.566 0-.993-.14-1.28-.42-.286-.28-.43-.643-.43-1.09zm1.06-.05c0 .24.08.437.24.59.167.147.414.22.74.22.474 0 .85-.147 1.13-.44.28-.3.42-.683.42-1.15v-.28l-1.34.13c-.793.08-1.19.39-1.19.93zm7.424-3.63c.7 0 1.267.237 1.7.71.44.467.66 1.097.66 1.89 0 .8-.23 1.433-.69 1.9-.46.46-1.086.69-1.88.69-1.706 0-2.56-1.12-2.56-3.36 0-1.133.163-2.003.49-2.61.327-.613.857-1.003 1.59-1.17.114-.027.58-.097 1.4-.21.494-.073.867-.157 1.12-.25v.84c-.193.107-.527.197-1 .27-.133.02-.303.043-.51.07a25.4 25.4 0 00-.48.05c-.26.033-.483.093-.67.18a1.761 1.761 0 00-.54.41c-.173.187-.313.457-.42.81-.107.347-.18.777-.22 1.29.14-.473.38-.843.72-1.11.347-.267.777-.4 1.29-.4zm-1.31 3.88c.267.313.633.47 1.1.47.467 0 .834-.157 1.1-.47.274-.313.41-.74.41-1.28s-.136-.967-.41-1.28c-.266-.32-.633-.48-1.1-.48-.46 0-.826.16-1.1.48-.267.313-.4.74-.4 1.28s.134.967.4 1.28zm5.117.58c-.46-.493-.69-1.163-.69-2.01 0-.847.23-1.513.69-2 .467-.493 1.09-.74 1.87-.74.787 0 1.41.247 1.87.74.467.487.7 1.153.7 2s-.233 1.517-.7 2.01c-.46.487-1.083.73-1.87.73-.78 0-1.403-.243-1.87-.73zm.77-3.39c-.266.347-.4.807-.4 1.38 0 .573.134 1.033.4 1.38.274.347.64.52 1.1.52.46 0 .827-.173 1.1-.52.274-.347.41-.807.41-1.38 0-.573-.136-1.033-.41-1.38-.273-.347-.64-.52-1.1-.52-.46 0-.826.173-1.1.52zm4.054-.36v-.88h4.59v.88h-1.76V43h-1.07v-4.36h-1.76zM50.221 43h-1.33l-1.81-2.23h-.62V43h-1.07v-5.24h1.07v2.17h.64l1.71-2.17h1.27l-2.22 2.5 2.36 2.74zm.311-1.39c0-.96.703-1.507 2.11-1.64l1.48-.14v-.4c0-.307-.097-.553-.29-.74-.187-.187-.47-.28-.85-.28-.34 0-.62.08-.84.24-.22.153-.34.38-.36.68h-.98c.02-.58.23-1.007.63-1.28.4-.273.917-.41 1.55-.41.713 0 1.26.17 1.64.51.38.34.57.84.57 1.5V43h-.99v-1.02c-.167.36-.417.64-.75.84-.333.2-.737.3-1.21.3-.567 0-.993-.14-1.28-.42-.287-.28-.43-.643-.43-1.09zm1.06-.05c0 .24.08.437.24.59.167.147.413.22.74.22.473 0 .85-.147 1.13-.44.28-.3.42-.683.42-1.15v-.28l-1.34.13c-.793.08-1.19.39-1.19.93zM7.63 49.76H8.7V55H7.63v-2.1c-.606.133-1.14.2-1.6.2-1.22 0-1.83-.61-1.83-1.83v-1.51h1.07v1.38c0 .393.087.673.26.84.18.16.47.24.87.24.347 0 .757-.067 1.23-.2v-2.26zm2.135 3.85c0-.96.704-1.507 2.11-1.64l1.48-.14v-.4c0-.307-.096-.553-.29-.74-.186-.187-.47-.28-.85-.28-.34 0-.62.08-.84.24-.22.153-.34.38-.36.68h-.98c.02-.58.23-1.007.63-1.28.4-.273.917-.41 1.55-.41.714 0 1.26.17 1.64.51.38.34.57.84.57 1.5V55h-.99v-1.02c-.166.36-.416.64-.75.84-.333.2-.736.3-1.21.3-.566 0-.993-.14-1.28-.42-.286-.28-.43-.643-.43-1.09zm1.06-.05c0 .24.08.437.24.59.167.147.414.22.74.22.474 0 .85-.147 1.13-.44.28-.3.42-.683.42-1.15v-.28l-1.34.13c-.793.08-1.19.39-1.19.93zm4.297-2.92v-.88h4.59v.88h-1.76V55h-1.07v-4.36h-1.76zm5.086.96h2.64v.83h-2.64v-.83zm6.4-1.67c.7 0 1.267.237 1.7.71.44.467.66 1.097.66 1.89 0 .8-.23 1.433-.69 1.9-.46.46-1.086.69-1.88.69-1.706 0-2.56-1.12-2.56-3.36 0-1.133.164-2.003.49-2.61.327-.613.857-1.003 1.59-1.17.114-.027.58-.097 1.4-.21.494-.073.867-.157 1.12-.25v.84c-.193.107-.526.197-1 .27-.133.02-.303.043-.51.07-.206.02-.366.037-.48.05-.26.033-.483.093-.67.18a1.76 1.76 0 00-.54.41c-.173.187-.313.457-.42.81a6.06 6.06 0 00-.22 1.29c.14-.473.38-.843.72-1.11.347-.267.777-.4 1.29-.4zm-1.31 3.88c.267.313.634.47 1.1.47.467 0 .834-.157 1.1-.47.274-.313.41-.74.41-1.28s-.136-.967-.41-1.28c-.266-.32-.633-.48-1.1-.48-.46 0-.826.16-1.1.48-.266.313-.4.74-.4 1.28s.134.967.4 1.28zm5.118.58c-.46-.493-.69-1.163-.69-2.01 0-.847.23-1.513.69-2 .466-.493 1.09-.74 1.87-.74.786 0 1.41.247 1.87.74.466.487.7 1.153.7 2s-.234 1.517-.7 2.01c-.46.487-1.084.73-1.87.73-.78 0-1.404-.243-1.87-.73zm.77-3.39c-.267.347-.4.807-.4 1.38 0 .573.133 1.033.4 1.38.273.347.64.52 1.1.52.46 0 .826-.173 1.1-.52.273-.347.41-.807.41-1.38 0-.573-.137-1.033-.41-1.38-.274-.347-.64-.52-1.1-.52-.46 0-.827.173-1.1.52zm4.054-.36v-.88h4.59v.88h-1.76V55H37v-4.36h-1.76zm5.664 3.75c-.46-.493-.69-1.163-.69-2.01 0-.847.23-1.513.69-2 .467-.493 1.09-.74 1.87-.74.787 0 1.41.247 1.87.74.467.487.7 1.153.7 2s-.233 1.517-.7 2.01c-.46.487-1.083.73-1.87.73-.78 0-1.403-.243-1.87-.73zm.77-3.39c-.267.347-.4.807-.4 1.38 0 .573.133 1.033.4 1.38.273.347.64.52 1.1.52.46 0 .827-.173 1.1-.52.273-.347.41-.807.41-1.38 0-.573-.137-1.033-.41-1.38-.273-.347-.64-.52-1.1-.52-.46 0-.827.173-1.1.52zm7.669 1.29c1.046.107 1.57.533 1.57 1.28a1.3 1.3 0 01-.47 1.02c-.307.273-.807.41-1.5.41h-2.56v-5.24h2.43c.64 0 1.12.123 1.44.37.326.24.49.557.49.95 0 .68-.467 1.083-1.4 1.21zm-1.89-1.73v1.42h1.28c.626 0 .94-.237.94-.71s-.33-.71-.99-.71h-1.23zm1.39 3.64c.666 0 1-.257 1-.77 0-.5-.35-.75-1.05-.75h-1.34v1.52h1.39z" fill="#383838"/><path d="M32.513 7.074H22.488c-4.858 0-8.83 3.904-8.83 8.675v2.481c0 4.772 3.972 8.676 8.83 8.676h1.579V30s3.365-.907 8.446-2.56c5.945-1.933 8.833-4.438 8.833-9.21v-2.48c0-4.771-3.975-8.675-8.833-8.675z" fill="#32C5FF"/><path d="M22.491 7.074h1.575c-4.858 0-8.833 3.904-8.833 8.675v2.481c0 4.772 3.975 8.676 8.833 8.676h-1.575c-4.857 0-8.833-3.904-8.833-8.676v-2.48c0-4.771 3.976-8.675 8.833-8.675z" fill="#069EDA"/><path d="M22.488 22.314c-2.988 0-5.418-2.389-5.418-5.324s2.43-5.322 5.418-5.322h10.025c2.989 0 5.418 2.387 5.418 5.322s-2.429 5.324-5.418 5.324H22.488z" fill="#fff"/><path d="M39.93 13.038c1.777.239 3.07 1.109 3.07 3.717 0 2.47-1.175 3.385-2.825 3.678l-.245-7.395z" fill="#32C5FF"/><path d="M26.942 3.179v3.21h1.114v-3.21c.648-.224-1.76-.226-1.114 0z" fill="#069EDA"/><path d="M31.47 8.311c0-1.326-2.037-2.401-3.968-2.401-1.932 0-3.969 1.075-3.969 2.401 0 1.326 2.038 2.4 3.969 2.4 1.93 0 3.969-1.074 3.969-2.4zm-2.301-6.674C29.169.733 28.422 0 27.502 0s-1.666.733-1.666 1.637.746 1.638 1.666 1.638c.92 0 1.667-.734 1.667-1.638z" fill="#32C5FF"/><path d="M14.239 20.299C12.904 19.9 12 18.935 12 16.755c0-2.455 1.164-3.375 2.8-3.672l-.562 7.216z" fill="#069EDA"/><path opacity=".03" d="M32.513 22.314c2.988 0 5.419-2.389 5.419-5.324s-2.43-5.322-5.42-5.322H22.489l10.025 10.646z" fill="#32C5FF"/><path d="M30.907 16.99c0-.787.651-1.424 1.45-1.424.8 0 1.453.637 1.453 1.424 0 .787-.649 1.425-1.452 1.425-.804 0-1.45-.636-1.45-1.425zm-9.714 0c0-.787.648-1.424 1.449-1.424.8 0 1.45.637 1.45 1.424 0 .787-.648 1.425-1.45 1.425a1.435 1.435 0 01-1.45-1.425z" fill="#069EDA"/></svg>