<svg width="39" height="57" fill="none" xmlns="http://www.w3.org/2000/svg"><path d="M1.807 36h4.73v7h-1.12v-6.08h-2.59c-.007.267-.02.65-.04 1.15-.02.68-.037 1.177-.05 1.49-.014.313-.044.707-.09 1.18-.04.473-.097.817-.17 1.03-.067.207-.16.43-.28.67-.114.24-.26.403-.44.49-.18.08-.397.12-.65.12-.22 0-.44-.013-.66-.04v-.9c.16.02.3.03.42.03.1 0 .19-.027.27-.08a.66.66 0 00.2-.28c.06-.133.11-.273.15-.42.04-.153.073-.353.1-.6.033-.247.056-.483.07-.71.02-.227.036-.513.05-.86.013-.353.023-.673.03-.96a149.175 149.175 0 01.07-2.23zm9.439 1.76h1.59V43h-1.03v-4.46L9.606 43h-1.59v-5.24h1.03v4.46l2.2-4.46zm6.163 0h1.07V43h-1.07v-2.1a7.57 7.57 0 01-1.6.2c-1.22 0-1.83-.61-1.83-1.83v-1.51h1.07v1.38c0 .393.087.673.26.84.18.16.47.24.87.24.347 0 .757-.067 1.23-.2v-2.26zM19.803 43v-5.24h1.07v2.13h2.5v-2.13h1.07V43h-1.07v-2.23h-2.5V43h-1.07zM28 39.69c1.387 0 2.08.55 2.08 1.65 0 1.107-.693 1.66-2.08 1.66h-2.24v-5.24h1.07v1.93H28zm2.86-1.93h1.07V43h-1.07v-5.24zm-2.94 4.42c.727 0 1.09-.283 1.09-.85 0-.56-.363-.84-1.09-.84h-1.09v1.69h1.09zm8.83-5.47c-.246.253-.61.38-1.09.38-.48 0-.846-.127-1.1-.38-.246-.253-.376-.597-.39-1.03h.71c.02.213.09.4.21.56.127.153.317.23.57.23.46 0 .72-.263.78-.79h.7c-.013.433-.143.777-.39 1.03zm-.27 1.05h1.59V43h-1.03v-4.46L34.84 43h-1.59v-5.24h1.03v4.46l2.2-4.46zM7.974 49.93c.7 0 1.266.237 1.7.71.44.467.66 1.097.66 1.89 0 .8-.23 1.433-.69 1.9-.46.46-1.087.69-1.88.69-1.707 0-2.56-1.12-2.56-3.36 0-1.133.163-2.003.49-2.61.326-.613.856-1.003 1.59-1.17.113-.027.58-.097 1.4-.21.493-.073.866-.157 1.12-.25v.84c-.194.107-.527.197-1 .27-.134.02-.304.043-.51.07-.207.02-.367.037-.48.05-.26.033-.484.093-.67.18a1.76 1.76 0 00-.54.41c-.174.187-.314.457-.42.81-.107.347-.18.777-.22 1.29.14-.473.38-.843.72-1.11.346-.267.776-.4 1.29-.4zm-1.31 3.88c.266.313.633.47 1.1.47.466 0 .833-.157 1.1-.47.273-.313.41-.74.41-1.28s-.137-.967-.41-1.28c-.267-.32-.634-.48-1.1-.48-.46 0-.827.16-1.1.48-.267.313-.4.74-.4 1.28s.133.967.4 1.28zM11.37 57v-7.24h.99v1.05a1.948 1.948 0 011.81-1.17c.654 0 1.184.247 1.59.74.414.487.62 1.153.62 2s-.206 1.517-.62 2.01c-.406.487-.932.73-1.58.73-.786 0-1.366-.35-1.74-1.05V57h-1.07zm1.41-6c-.26.347-.39.807-.39 1.38 0 .573.13 1.033.39 1.38.268.347.624.52 1.07.52.454 0 .81-.173 1.07-.52.268-.347.4-.807.4-1.38 0-.573-.133-1.033-.4-1.38-.26-.347-.616-.52-1.07-.52-.446 0-.803.173-1.07.52zm4.366 1.38c0-.9.233-1.58.7-2.04.466-.467 1.086-.7 1.86-.7 1.633 0 2.45.973 2.45 2.92v.13h-3.94c.04.54.196.953.47 1.24.28.28.643.42 1.09.42.633 0 1.063-.27 1.29-.81l1.02.07a1.96 1.96 0 01-.81 1.11c-.394.267-.894.4-1.5.4-.807 0-1.447-.23-1.92-.69-.474-.46-.71-1.143-.71-2.05zm1.08-.39h2.87c-.02-.493-.154-.88-.4-1.16-.247-.28-.577-.42-.99-.42-.414 0-.754.133-1.02.4-.26.267-.414.66-.46 1.18zM23.177 55v-5.24h1.07v2.13h2.5v-2.13h1.07V55h-1.07v-2.23h-2.5V55h-1.07zm10.237-.88h.64v2.28h-1.01V55h-3.44v1.4h-1.01v-2.28h.4c.107-.233.194-.58.26-1.04.067-.467.114-.897.14-1.29.027-.4.067-1.077.12-2.03h3.9v4.36zm-1.07 0v-3.48h-1.91c-.006.107-.02.27-.04.49a47.78 47.78 0 01-.06.88l-.03.4a41.3 41.3 0 01-.03.34c-.013.14-.026.25-.04.33l-.05.29a1.92 1.92 0 01-.05.28c-.013.073-.03.153-.05.24-.02.08-.043.157-.07.23h2.33z" fill="#383838"/><path d="M23.113 16.024H10.298a.855.855 0 00-.86.845c0 .462.383.844.86.844h12.338c-.07-.468.015-.952.282-1.374l.195-.315zM13.82 8.153H10.3a.852.852 0 00-.86.844v3.938c0 .466.385.844.86.844h3.52c.474 0 .86-.378.86-.844V8.997a.852.852 0 00-.86-.844zm9.965 1.645c.203-.545.462-1.098.75-1.643h-7.29a.85.85 0 00-.86.845c0 .47.383.845.86.845h6.524c.009-.015.009-.03.016-.046zm-.492 2.296h-6.048a.848.848 0 00-.86.844c0 .469.383.837.86.837h6.243a4.85 4.85 0 01-.195-1.681z" fill="#B9D700"/><path d="M34.668.015c-.371-.19-2.447 1.42-4.57 3.674a.149.149 0 00-.04.075l-.722 3.733-.584-1.92a.154.154 0 00-.266-.052 24.544 24.544 0 00-1.81 2.506.154.154 0 00-.021.1l.51 3.827-1.372-1.722a.157.157 0 00-.267.04c-.669 1.745-.667 3.319.571 4.326l-1.645 2.654a.295.295 0 00.257.449h1.368a.3.3 0 00.293-.23 14.72 14.72 0 01.744-2.293c2.215.851 3.96-.957 5.229-3.588a.153.153 0 00-.162-.215l-2.202.316 3.332-2.588a.148.148 0 00.052-.074 32.03 32.03 0 00.852-3.115c.023-.105-.072-.198-.18-.178l-2.347.448 2.888-2.405a.157.157 0 00.053-.095c.302-2.021.318-3.533.038-3.675l.001.002z" fill="#91A800"/><path d="M29.66 19.679c0 .383-.311.69-.702.69h-11.33a.87.87 0 00-.562.207l-5.588 4.737v-4.1a.85.85 0 00-.86-.845H7.423a.693.693 0 01-.702-.69V5.521H26.23a33.67 33.67 0 012.75-3.247c.32-.331.626-.645.922-.937-.29-.13-.61-.2-.945-.2H7.422C6.086 1.139 5 2.206 5 3.519v16.16c0 1.314 1.086 2.38 2.422 2.38H9.76v5.098c0 .33.195.63.508.767a.881.881 0 00.914-.122l6.767-5.743h11.01c1.337 0 2.422-1.066 2.422-2.38V15.94c-.585.484-1.165.8-1.72.984v2.756zM12.815 2.536c.445 0 .804.353.804.79a.81.81 0 01-.804.807.813.813 0 01-.813-.806c0-.445.366-.79.813-.79zm-2.47 0c.454 0 .82.353.82.79a.818.818 0 01-.82.807.8.8 0 01-.804-.806c0-.445.36-.79.804-.79zm-2.453 0c.445 0 .805.353.805.79a.81.81 0 01-.805.807.805.805 0 01-.805-.806c0-.445.36-.79.805-.79z" fill="#B9D700"/></svg>