<svg width="54" height="57" fill="none" xmlns="http://www.w3.org/2000/svg"><path d="M6.016 36h1.12v7h-1.12v-3.1h-3.38V43h-1.12v-7h1.12v2.98h3.38V36zm2.336 5.61c0-.96.703-1.507 2.11-1.64l1.48-.14v-.4c0-.307-.097-.553-.29-.74-.186-.187-.47-.28-.85-.28-.34 0-.62.08-.84.24-.22.153-.34.38-.36.68h-.98c.02-.58.23-1.007.63-1.28.4-.273.917-.41 1.55-.41.713 0 1.26.17 1.64.51.38.34.57.84.57 1.5V43h-.99v-1.02c-.167.36-.417.64-.75.84-.333.2-.736.3-1.21.3-.567 0-.993-.14-1.28-.42-.287-.28-.43-.643-.43-1.09zm1.06-.05c0 .24.08.437.24.59.167.147.414.22.74.22.474 0 .85-.147 1.13-.44.28-.3.42-.683.42-1.15v-.28l-1.34.13c-.793.08-1.19.39-1.19.93zm4.594-1.18c0-.873.223-1.547.67-2.02.447-.48 1.053-.72 1.82-.72.627 0 1.153.167 1.58.5.427.327.68.79.76 1.39l-1.03.09c-.067-.373-.22-.657-.46-.85a1.288 1.288 0 00-.85-.29c-.433 0-.78.167-1.04.5-.26.333-.39.8-.39 1.4 0 .6.13 1.067.39 1.4.267.333.623.5 1.07.5.353 0 .647-.1.88-.3.24-.207.393-.503.46-.89l1.03.08c-.08.62-.337 1.1-.77 1.44-.427.34-.96.51-1.6.51-.78 0-1.397-.237-1.85-.71-.447-.473-.67-1.15-.67-2.03zm5.328-1.74v-.88h4.59v.88h-1.76V43h-1.07v-4.36h-1.76zM24.803 45v-7.24h.99v1.05a1.948 1.948 0 011.81-1.17c.654 0 1.184.247 1.59.74.414.487.62 1.153.62 2s-.206 1.517-.62 2.01c-.406.487-.933.73-1.58.73-.786 0-1.366-.35-1.74-1.05V45h-1.07zm1.41-6c-.26.347-.39.807-.39 1.38 0 .573.13 1.033.39 1.38.267.347.624.52 1.07.52.454 0 .81-.173 1.07-.52.267-.347.4-.807.4-1.38 0-.573-.133-1.033-.4-1.38-.26-.347-.616-.52-1.07-.52-.446 0-.803.173-1.07.52zm5.055 3.39c-.46-.493-.69-1.163-.69-2.01 0-.847.23-1.513.69-2 .467-.493 1.09-.74 1.87-.74.787 0 1.41.247 1.87.74.467.487.7 1.153.7 2s-.233 1.517-.7 2.01c-.46.487-1.083.73-1.87.73-.78 0-1.403-.243-1.87-.73zm.77-3.39c-.266.347-.4.807-.4 1.38 0 .573.133 1.033.4 1.38.274.347.64.52 1.1.52.46 0 .827-.173 1.1-.52.273-.347.41-.807.41-1.38 0-.573-.137-1.033-.41-1.38-.273-.347-.64-.52-1.1-.52-.46 0-.826.173-1.1.52zm8.209-2.29c-.247.253-.61.38-1.09.38-.48 0-.847-.127-1.1-.38-.247-.253-.377-.597-.39-1.03h.71c.02.213.09.4.21.56.127.153.316.23.57.23.46 0 .72-.263.78-.79h.7c-.013.433-.143.777-.39 1.03zm-.27 1.05h1.59V43h-1.03v-4.46l-2.2 4.46h-1.59v-5.24h1.03v4.46l2.2-4.46zM47.72 43h-1.33l-1.81-2.23h-.62V43h-1.07v-5.24h1.07v2.17h.64l1.71-2.17h1.27l-2.22 2.5L47.72 43zm.31-1.39c0-.96.703-1.507 2.11-1.64l1.48-.14v-.4c0-.307-.097-.553-.29-.74-.187-.187-.47-.28-.85-.28-.34 0-.62.08-.84.24-.22.153-.34.38-.36.68h-.98c.02-.58.23-1.007.63-1.28.4-.273.916-.41 1.55-.41.713 0 1.26.17 1.64.51.38.34.57.84.57 1.5V43h-.99v-1.02c-.167.36-.417.64-.75.84-.334.2-.737.3-1.21.3-.567 0-.994-.14-1.28-.42-.287-.28-.43-.643-.43-1.09zm1.06-.05c0 .24.08.437.24.59.166.147.413.22.74.22.473 0 .85-.147 1.13-.44.28-.3.42-.683.42-1.15v-.28l-1.34.13c-.794.08-1.19.39-1.19.93zM.408 50.64v-.88h4.59v.88h-1.76V55h-1.07v-4.36H.408zm4.975 1.74c0-.9.233-1.58.7-2.04.467-.467 1.087-.7 1.86-.7 1.633 0 2.45.973 2.45 2.92v.13h-3.94c.04.54.197.953.47 1.24.28.28.643.42 1.09.42.633 0 1.063-.27 1.29-.81l1.02.07a1.96 1.96 0 01-.81 1.11c-.393.267-.893.4-1.5.4-.807 0-1.447-.23-1.92-.69-.473-.46-.71-1.143-.71-2.05zm1.08-.39h2.87c-.02-.493-.153-.88-.4-1.16-.247-.28-.577-.42-.99-.42-.413 0-.753.133-1.02.4-.26.267-.413.66-.46 1.18zm5.434-2.23h3.87V55h-1.07v-4.36h-1.86c-.02.247-.044.59-.07 1.03-.02.373-.037.647-.05.82l-.06.67a6.063 6.063 0 01-.08.6c-.027.12-.067.273-.12.46-.047.18-.104.31-.17.39-.06.073-.137.153-.23.24a.68.68 0 01-.32.17 1.55 1.55 0 01-.41.05c-.18 0-.34-.013-.48-.04v-.86c.073.007.156.01.25.01.28 0 .473-.35.58-1.05.046-.333.113-1.317.2-2.95l.02-.42zm4.912 2.62c0-.9.233-1.58.7-2.04.466-.467 1.086-.7 1.86-.7 1.633 0 2.45.973 2.45 2.92v.13h-3.94c.04.54.196.953.47 1.24.28.28.643.42 1.09.42.633 0 1.063-.27 1.29-.81l1.02.07a1.96 1.96 0 01-.81 1.11c-.394.267-.894.4-1.5.4-.807 0-1.447-.23-1.92-.69-.474-.46-.71-1.143-.71-2.05zm1.08-.39h2.87c-.02-.493-.154-.88-.4-1.16-.247-.28-.577-.42-.99-.42-.414 0-.754.133-1.02.4-.26.267-.414.66-.46 1.18zm8.631-2.35c.874 0 1.55.243 2.03.73.487.487.73 1.157.73 2.01 0 .853-.243 1.523-.73 2.01-.48.487-1.156.73-2.03.73h-.06V57h-1.04v-1.88h-.07c-.873 0-1.553-.243-2.04-.73-.486-.487-.73-1.157-.73-2.01 0-.853.244-1.523.73-2.01.487-.487 1.167-.73 2.04-.73h.07v-2h1.04v2h.06zm-1.14 4.64h.04v-3.8h-.04c-.54 0-.97.17-1.29.51-.313.333-.47.797-.47 1.39 0 .593.157 1.06.47 1.4.32.333.75.5 1.29.5zm1.11 0c.54 0 .964-.167 1.27-.5.314-.34.47-.807.47-1.4 0-.593-.156-1.057-.47-1.39-.306-.34-.73-.51-1.27-.51h-.03v3.8h.03zm4.26.11c-.46-.493-.69-1.163-.69-2.01 0-.847.23-1.513.69-2 .467-.493 1.09-.74 1.87-.74.787 0 1.41.247 1.87.74.467.487.7 1.153.7 2s-.233 1.517-.7 2.01c-.46.487-1.083.73-1.87.73-.78 0-1.403-.243-1.87-.73zm.77-3.39c-.266.347-.4.807-.4 1.38 0 .573.134 1.033.4 1.38.274.347.64.52 1.1.52.46 0 .827-.173 1.1-.52.274-.347.41-.807.41-1.38 0-.573-.136-1.033-.41-1.38-.273-.347-.64-.52-1.1-.52-.46 0-.826.173-1.1.52zm4.71 4v-5.24h1.07v2.13h2.5v-2.13h1.07V55H39.8v-2.23h-2.5V55h-1.07zm9.186-5.24h1.59V55h-1.03v-4.46l-2.2 4.46h-1.59v-5.24h1.03v4.46l2.2-4.46zm6.143 0h1.59V55h-1.03v-4.46l-2.2 4.46h-1.59v-5.24h1.03v4.46l2.2-4.46z" fill="#383838"/><path d="M36.865 20.672a4.324 4.324 0 00-1.413-1.205l-.308-.163a9.607 9.607 0 003.707-7.557c0-5.292-4.303-9.599-9.591-9.599a9.57 9.57 0 00-7.581 3.735l-.18-.34a4.229 4.229 0 00-1.172-1.409A11.664 11.664 0 0129.26 0C35.733 0 41 5.27 41 11.746a11.65 11.65 0 01-4.136 8.924l.001.002zm-2.718 1.307l-4.486-2.317a1.482 1.482 0 00-1.848.404l-1.646 2.11c-1.603-.867-2.82-1.687-4.234-3.1-1.508-1.507-2.308-2.745-3.135-4.303l2.088-1.628a1.479 1.479 0 00.404-1.846l-2.308-4.458a1.481 1.481 0 00-2.136-.552l-2.857 1.903a2.219 2.219 0 00-.984 1.996c.055.813.157 1.837.343 2.551.832 3.198 2.832 6.496 5.629 9.29 2.796 2.795 6.098 4.794 9.299 5.625.717.187 1.745.288 2.563.341a2.22 2.22 0 002.013-1.013l1.86-2.886a1.48 1.48 0 00-.566-2.116v-.001z" fill="#32C5FF"/><path d="M28.797 9.801c0 .277-.055.544-.165.799a3.73 3.73 0 01-.427.739 6.069 6.069 0 01-.592.685c-.22.218-.434.427-.647.623-.11.102-.229.218-.356.345a10.078 10.078 0 00-.68.756.92.92 0 00-.17.28h3.266v1.369h-5.063a1.771 1.771 0 01-.022-.306v-.263c0-.351.057-.672.17-.964.113-.291.261-.563.444-.815a5.09 5.09 0 01.62-.706c.23-.22.459-.438.685-.657.176-.167.34-.326.493-.476a5.32 5.32 0 00.406-.438c.116-.142.207-.284.274-.427a1.02 1.02 0 00.099-.433c0-.32-.091-.547-.274-.68a1.14 1.14 0 00-.68-.197 1.61 1.61 0 00-.553.094 2.93 2.93 0 00-1.068.675l-.811-1.14c.32-.299.696-.545 1.123-.738.428-.193.887-.29 1.375-.29.446 0 .83.051 1.151.153.321.102.586.247.794.433.209.187.362.413.46.68.099.265.148.567.148.902v-.003zm5.885-1.994v4.555h.81v1.336h-.81v1.698h-1.6v-1.698h-3.278v-1.194c.161-.32.362-.685.603-1.09a21.832 21.832 0 011.743-2.502c.328-.408.657-.778.986-1.106h1.546v.001zm-1.6 1.993c-.286.372-.59.777-.91 1.215a8.307 8.307 0 00-.811 1.347h1.72V9.8z" fill="#069EDA"/></svg>