<svg width="64" height="49" fill="none" xmlns="http://www.w3.org/2000/svg"><path d="M6.75 47H5.42l-2.38-3.1h-.95V47H.97v-7h1.12v3.03h.94L5.24 40h1.3L3.9 43.39 6.75 47zm.739-.61c-.46-.493-.69-1.163-.69-2.01 0-.847.23-1.513.69-2 .467-.493 1.09-.74 1.87-.74.787 0 1.41.247 1.87.74.467.487.7 1.153.7 2s-.233 1.517-.7 2.01c-.46.487-1.083.73-1.87.73-.78 0-1.403-.243-1.87-.73zm.77-3.39c-.267.347-.4.807-.4 1.38 0 .573.133 1.033.4 1.38.273.347.64.52 1.1.52.46 0 .827-.173 1.1-.52.273-.347.41-.807.41-1.38 0-.573-.137-1.033-.41-1.38-.273-.347-.64-.52-1.1-.52-.46 0-.827.173-1.1.52zm4.709 4v-5.24h4.58V47h-1.07v-4.36h-2.44V47h-1.07zm9.128-5.24h1.59V47h-1.03v-4.46l-2.2 4.46h-1.59v-5.24h1.03v4.46l2.2-4.46zM25.009 49v-7.24h.99v1.05c.166-.373.41-.66.73-.86.32-.207.68-.31 1.08-.31.653 0 1.183.247 1.59.74.413.487.62 1.153.62 2s-.207 1.517-.62 2.01c-.407.487-.934.73-1.58.73-.787 0-1.367-.35-1.74-1.05V49h-1.07zm1.41-6c-.26.347-.39.807-.39 1.38 0 .573.13 1.033.39 1.38.266.347.623.52 1.07.52.453 0 .81-.173 1.07-.52.266-.347.4-.807.4-1.38 0-.573-.134-1.033-.4-1.38-.26-.347-.617-.52-1.07-.52a1.28 1.28 0 00-1.07.52zm4.326 2.61c0-.96.703-1.507 2.11-1.64l1.48-.14v-.4c0-.307-.097-.553-.29-.74-.187-.187-.47-.28-.85-.28-.34 0-.62.08-.84.24-.22.153-.34.38-.36.68h-.98c.02-.58.23-1.007.63-1.28.4-.273.917-.41 1.55-.41.713 0 1.26.17 1.64.51.38.34.57.84.57 1.5V47h-.99v-1.02c-.167.36-.417.64-.75.84-.334.2-.737.3-1.21.3-.567 0-.993-.14-1.28-.42-.287-.28-.43-.643-.43-1.09zm1.06-.05c0 .24.08.437.24.59.166.147.413.22.74.22.473 0 .85-.147 1.13-.44.28-.3.42-.683.42-1.15v-.28l-1.34.13c-.793.08-1.19.39-1.19.93zm8.374-4.85c-.247.253-.61.38-1.09.38-.48 0-.847-.127-1.1-.38-.247-.253-.377-.597-.39-1.03h.71c.02.213.09.4.21.56.126.153.316.23.57.23.46 0 .72-.263.78-.79h.7c-.014.433-.144.777-.39 1.03zm-.27 1.05h1.59V47h-1.03v-4.46l-2.2 4.46h-1.59v-5.24h1.03v4.46l2.2-4.46zm2.472.88v-.88h4.59v.88h-1.76V47h-1.07v-4.36h-1.76zm8.699-.88h1.59V47h-1.03v-4.46L49.44 47h-1.59v-5.24h1.03v4.46l2.2-4.46zM53.993 47v-5.24h1.07v2.13h2.5v-2.13h1.07V47h-1.07v-2.23h-2.5V47h-1.07zm5.957 0v-5.24h3.64v.88h-2.57V47h-1.07z" fill="#383838"/><path d="M43.967 23.135H27.011c-.285.447-.555.832-.779 1.172l-.57.833h18.305c.572 0 1.033-.448 1.033-1.003 0-.555-.46-1.001-1.033-1.001v-.001zm0-4.717H29.884c-.364.663-.761 1.34-1.158 2.004h15.241c.572 0 1.033-.448 1.033-1.002s-.46-1.002-1.033-1.002zm0-4.731H32.505l-1.097 2.004h12.56c.571 0 1.032-.448 1.032-1.003 0-.555-.46-1.001-1.033-1.001zm0-4.716h-8.86l-1.094 2.004h9.954c.572 0 1.033-.447 1.033-1.002 0-.555-.46-1.002-1.033-1.002zm0-2.727c.572 0 1.033-.447 1.033-1.001 0-.554-.461-1.002-1.033-1.002h-7.066a2.95 2.95 0 01-.285 2.004h7.351v-.001z" fill="#91A800"/><path d="M35.165 5.612c.422-.764.192-1.669-.46-2.21l.874-1.585a.68.68 0 00-.291-.936l-1.535-.8a.724.724 0 00-.965.284l-.874 1.584c-.827-.228-1.73.088-2.15.852l-.625 1.13 5.402 2.81.624-1.13zM19.001 27.304a.65.65 0 00.356.619c.232.12.516.099.725-.055.303-.223 2.524-1.874 3.81-3.16l-4.28-2.228c-.396 1.76-.585 4.456-.61 4.823v.001zM33.773 8.133l-6.65-3.458.584-1.057a.82.82 0 00-.351-1.128.871.871 0 00-1.162.341l-4.01 7.263a.82.82 0 00.35 1.128.87.87 0 001.162-.34l2.66-4.815 1.246.648-4.253 7.7a87.593 87.593 0 00-3.224 6.544l4.79 2.494a84.874 84.874 0 003.837-6.227l5.022-9.09-.001-.003z" fill="#B9D700"/></svg>