<svg width="52" height="57" fill="none" xmlns="http://www.w3.org/2000/svg"><path d="M23.395 14.535a20.04 20.04 0 01-.27 1.39h2.034c.099-.448.18-.914.242-1.39h3.627l2.044-1.453a2.55 2.55 0 01.683-.357 10.5 10.5 0 00.207-2.075C31.962 4.772 27.264 0 21.486 0 15.707 0 11 4.772 11 10.65c0 4.955 3.349 9.132 7.875 10.303v-1.4c0-1.078.469-2.046 1.197-2.715a15.89 15.89 0 01-.504-2.304h3.826v.001zm-10.207-2.011a8.657 8.657 0 010-3.757h4.176a33.168 33.168 0 000 3.757h-4.176zm.711 2.011h3.664c.225 1.6.594 3.081 1.107 4.25a8.607 8.607 0 01-4.77-4.25zm3.664-7.78h-3.664c.99-1.974 2.691-3.51 4.77-4.25-.512 1.17-.881 2.65-1.106 4.25zm12.42 3.895c0 .64-.072 1.27-.206 1.874h-4.176a32.834 32.834 0 000-3.757h4.176c.134.603.207 1.235.207 1.883zm-.917-3.895h-3.663c-.225-1.6-.595-3.08-1.107-4.25 2.079.74 3.78 2.277 4.77 4.25zm-7.578-4.744c.468 0 1.431 1.646 1.908 4.744H19.57c.477-3.099 1.441-4.744 1.918-4.744zm-2.197 8.64c0-.669.018-1.29.063-1.884h4.267c.035.595.053 1.215.053 1.883 0 .668-.018 1.28-.053 1.874h-4.267a24.809 24.809 0 01-.063-1.874z" fill="#91A800"/><path d="M33.435 18.938v-3.514c0-.614-.68-.974-1.175-.622l-2.884 2.057a6.274 6.274 0 01-3.643 1.17h-3.287a1.51 1.51 0 00-1.499 1.521v2.688c0 .84.671 1.52 1.498 1.52h.771l.662 3.825a.5.5 0 00.49.417h1.506a.503.503 0 00.49-.593l-.633-3.648c1.304 0 2.576.408 3.643 1.17l2.883 2.056c.495.353 1.176-.007 1.176-.621V22.85a1.953 1.953 0 001.806-1.957 1.95 1.95 0 00-1.806-1.956l.002.001zm6.687 1.064h-2.586c-.485 0-.879.4-.879.893s.394.892.879.892h2.586c.485 0 .878-.4.878-.892a.887.887 0 00-.878-.893zm-3.827-1.256c.225 0 .45-.088.621-.261l1.83-1.858a.901.901 0 000-1.262.868.868 0 00-1.242 0l-1.83 1.858a.901.901 0 000 1.262.869.869 0 00.62.26zm.621 4.559a.868.868 0 00-1.242 0 .901.901 0 000 1.262l1.83 1.858a.869.869 0 001.24 0 .901.901 0 000-1.262l-1.829-1.858h.002z" fill="#B9D700"/><path d="M12.266 43h-1.33l-2.38-3.1h-.95V43h-1.12v-7h1.12v3.03h.94l2.21-3.03h1.3l-2.64 3.39 2.85 3.61zm.739-.61c-.46-.493-.69-1.163-.69-2.01 0-.847.23-1.513.69-2 .467-.493 1.09-.74 1.87-.74.787 0 1.41.247 1.87.74.467.487.7 1.153.7 2s-.233 1.517-.7 2.01c-.46.487-1.083.73-1.87.73-.78 0-1.403-.243-1.87-.73zm.77-3.39c-.266.347-.4.807-.4 1.38 0 .573.134 1.033.4 1.38.274.347.64.52 1.1.52.46 0 .827-.173 1.1-.52.274-.347.41-.807.41-1.38 0-.573-.136-1.033-.41-1.38-.273-.347-.64-.52-1.1-.52-.46 0-.826.173-1.1.52zm4.709 4v-5.24h1.07v2.13h2.5v-2.13h1.07V43h-1.07v-2.23h-2.5V43h-1.07zm5.517-4.36v-.88h4.59v.88h-1.76V43h-1.07v-4.36h-1.76zm4.975 1.74c0-.9.233-1.58.7-2.04.466-.467 1.086-.7 1.86-.7 1.633 0 2.45.973 2.45 2.92v.13h-3.94c.04.54.196.953.47 1.24.28.28.643.42 1.09.42.633 0 1.063-.27 1.29-.81l1.02.07a1.96 1.96 0 01-.81 1.11c-.394.267-.894.4-1.5.4-.807 0-1.447-.23-1.92-.69-.474-.46-.71-1.143-.71-2.05zm1.08-.39h2.87c-.02-.493-.154-.88-.4-1.16-.247-.28-.577-.42-.99-.42-.414 0-.754.133-1.02.4-.26.267-.414.66-.46 1.18zM35.008 43v-5.24h1.07v2.13h2.5v-2.13h1.07V43h-1.07v-2.23h-2.5V43h-1.07zm5.517-4.36v-.88h4.59v.88h-1.76V43h-1.07v-4.36h-1.76zM4.879 49.76h1.77V55h-1.02v-4.5L4.059 55h-1.31l-1.56-4.5V55H.159v-5.24h1.78l1.48 4.64 1.46-4.64zm2.832 3.85c0-.96.704-1.507 2.11-1.64l1.48-.14v-.4c0-.307-.096-.553-.29-.74-.186-.187-.47-.28-.85-.28-.34 0-.62.08-.84.24-.22.153-.34.38-.36.68h-.98c.02-.58.23-1.007.63-1.28.4-.273.917-.41 1.55-.41.714 0 1.26.17 1.64.51.38.34.57.84.57 1.5V55h-.99v-1.02c-.166.36-.416.64-.75.84-.333.2-.736.3-1.21.3-.566 0-.993-.14-1.28-.42-.286-.28-.43-.643-.43-1.09zm1.06-.05c0 .24.08.437.24.59.167.147.414.22.74.22.474 0 .85-.147 1.13-.44.28-.3.42-.683.42-1.15v-.28l-1.34.13c-.793.08-1.19.39-1.19.93zM13.645 57v-7.24h.99v1.05a1.947 1.947 0 011.81-1.17c.654 0 1.184.247 1.59.74.414.487.62 1.153.62 2s-.206 1.517-.62 2.01c-.406.487-.933.73-1.58.73-.786 0-1.366-.35-1.74-1.05V57h-1.07zm1.41-6c-.26.347-.39.807-.39 1.38 0 .573.13 1.033.39 1.38.267.347.624.52 1.07.52.454 0 .81-.173 1.07-.52.267-.347.4-.807.4-1.38 0-.573-.133-1.033-.4-1.38-.26-.347-.616-.52-1.07-.52-.446 0-.803.173-1.07.52zm9.475 4H23.2l-1.81-2.23h-.62V55H19.7v-5.24h1.07v2.17h.64l1.71-2.17h1.27l-2.22 2.5L24.53 55zm.105-2.62c0-.9.233-1.58.7-2.04.466-.467 1.087-.7 1.86-.7 1.633 0 2.45.973 2.45 2.92v.13h-3.94c.04.54.197.953.47 1.24.28.28.643.42 1.09.42.633 0 1.063-.27 1.29-.81l1.02.07a1.96 1.96 0 01-.81 1.11c-.393.267-.893.4-1.5.4-.807 0-1.447-.23-1.92-.69-.473-.46-.71-1.143-.71-2.05zm1.08-.39h2.87c-.02-.493-.154-.88-.4-1.16-.247-.28-.577-.42-.99-.42-.413 0-.753.133-1.02.4-.26.267-.413.66-.46 1.18zm4.316-1.35v-.88h4.59v.88h-1.76V55h-1.07v-4.36h-1.76zm8.699-.88h1.59V55h-1.03v-4.46L37.09 55H35.5v-5.24h1.03v4.46l2.2-4.46zM41.643 55v-5.24h1.07v2.13h2.5v-2.13h1.07V55h-1.07v-2.23h-2.5V55h-1.07zm5.957 0v-5.24h3.64v.88h-2.57V55H47.6z" fill="#383838"/></svg>