<?xml version="1.0" encoding="utf-8"?><svg xmlns="http://www.w3.org/2000/svg" xmlns:xlink="http://www.w3.org/1999/xlink"><symbol viewBox="0 0 20 20" id="arrow-l" xmlns="http://www.w3.org/2000/svg"><path d="M14 4.418L12.318 3 4 10l8.318 7L14 15.582 7.37 10 14 4.418z"/></symbol><symbol viewBox="0 0 20 20" id="arrow-r" xmlns="http://www.w3.org/2000/svg"><path d="M5 4.418L6.682 3 15 10l-8.318 7L5 15.582 11.63 10 5 4.418z"/></symbol><symbol viewBox="0 0 15 15" id="call" xmlns="http://www.w3.org/2000/svg"><path fill-rule="evenodd" clip-rule="evenodd" d="M14.73 12.996c-.463 1.407-2.277 2.108-3.573 1.991-1.77-.16-3.696-1.098-5.158-2.133C3.85 11.335 1.837 8.985.664 6.49-.165 4.726-.35 2.559.882.95c.456-.594.95-.911 1.69-.948C3.6-.047 3.744.54 4.097 1.457c.263.685.614 1.384.81 2.094.367 1.325-.916 1.38-1.078 2.463-.1.683.727 1.599 1.101 2.086a10.105 10.105 0 0 0 2.608 2.403c.57.358 1.488 1.005 2.14.649 1.004-.55.91-2.243 2.313-1.67.727.296 1.431.723 2.125 1.097 1.073.577 1.023 1.175.614 2.417-.306.928.306-.928 0 0z"/></symbol><symbol viewBox="0 0 32 32" id="facebook" xmlns="http://www.w3.org/2000/svg"><path d="M22.482 15.787h-4.326v15.848h-6.554V15.787H8.485v-5.569h3.117V6.614c0-2.577 1.224-6.613 6.612-6.613l4.855.02v5.406h-3.522c-.578 0-1.39.289-1.39 1.518v3.278h4.898l-.573 5.564z"/></symbol><symbol viewBox="0 0 8 12" id="flash" xmlns="http://www.w3.org/2000/svg"><path d="M0 6.857h3.675L2.398 12 8 5.143H4.325L5.6 0 0 6.857z"/></symbol><symbol viewBox="0 0 32 32" id="flikr" xmlns="http://www.w3.org/2000/svg"><path d="M14.658 15.433c0 4.048-3.281 7.329-7.329 7.329S0 19.481 0 15.433s3.281-7.329 7.329-7.329 7.329 3.281 7.329 7.329zm17.039.831c0 4.048-3.281 7.329-7.329 7.329s-7.329-3.281-7.329-7.329 3.281-7.329 7.329-7.329 7.329 3.281 7.329 7.329z"/></symbol><symbol viewBox="0 0 20 20" id="gear"><path d="M17.498 11.697A2.384 2.384 0 0 1 16.794 10a2.384 2.384 0 0 1 .961-1.917.39.39 0 0 0 .137-.417 8.169 8.169 0 0 0-.662-1.597.385.385 0 0 0-.391-.199c-.13.02-.238.027-.336.027a2.402 2.402 0 0 1-2.401-2.4c0-.099.008-.207.027-.336a.388.388 0 0 0-.199-.391 8.144 8.144 0 0 0-1.597-.662.388.388 0 0 0-.416.137A2.38 2.38 0 0 1 10 3.207a2.38 2.38 0 0 1-1.917-.961.388.388 0 0 0-.416-.137 8.216 8.216 0 0 0-1.597.662.387.387 0 0 0-.199.391c.02.129.027.237.027.336 0 1.325-1.076 2.4-2.401 2.4a2.15 2.15 0 0 1-.335-.027.387.387 0 0 0-.392.199 8.241 8.241 0 0 0-.662 1.597.39.39 0 0 0 .137.417 2.399 2.399 0 0 1 0 3.835.388.388 0 0 0-.137.416c.166.557.388 1.096.662 1.596a.381.381 0 0 0 .392.199 2.15 2.15 0 0 1 .335-.027 2.403 2.403 0 0 1 2.401 2.402c0 .098-.007.205-.027.334a.388.388 0 0 0 .199.391c.501.273 1.04.496 1.597.66a.382.382 0 0 0 .417-.137 2.385 2.385 0 0 1 1.917-.959 2.382 2.382 0 0 1 1.917.959.382.382 0 0 0 .416.136 8.148 8.148 0 0 0 1.597-.66.39.39 0 0 0 .199-.393 2.138 2.138 0 0 1-.027-.334 2.403 2.403 0 0 1 2.401-2.402c.098 0 .206.008.336.027a.385.385 0 0 0 .391-.199c.274-.5.496-1.039.662-1.596a.388.388 0 0 0-.137-.416 1.776 1.776 0 0 1-.258-.219m-.827 1.637c-.059-.002-.114-.002-.168-.002a3.176 3.176 0 0 0-3.173 3.172c0 .053.002.109.004.166a7.09 7.09 0 0 1-.976.406A3.152 3.152 0 0 0 10 16.023a3.15 3.15 0 0 0-2.359 1.053 7.09 7.09 0 0 1-.976-.406c.002-.057.004-.113.004-.166a3.175 3.175 0 0 0-3.172-3.172c-.054 0-.11 0-.168.002a7.198 7.198 0 0 1-.405-.975c.044-.039.085-.078.124-.115a3.177 3.177 0 0 0-.124-4.602 7.21 7.21 0 0 1 .405-.976c.058.002.114.004.168.004a3.175 3.175 0 0 0 3.172-3.172c0-.054-.002-.11-.004-.168a7.21 7.21 0 0 1 .976-.405A3.15 3.15 0 0 0 10 3.978a3.15 3.15 0 0 0 2.358-1.053c.336.112.663.247.976.405-.002.058-.004.114-.004.168a3.177 3.177 0 0 0 3.173 3.172c.054 0 .109-.002.168-.004.158.312.293.64.405.976A3.15 3.15 0 0 0 16.022 10a3.151 3.151 0 0 0 1.054 2.359 7.252 7.252 0 0 1-.405.975M10 5.417A4.588 4.588 0 0 0 5.416 10c0 2.529 2.056 4.584 4.584 4.584s4.584-2.055 4.584-4.584A4.588 4.588 0 0 0 10 5.417m0 8.395A3.816 3.816 0 0 1 6.188 10 3.816 3.816 0 0 1 10 6.188 3.816 3.816 0 0 1 13.812 10 3.815 3.815 0 0 1 10 13.812"/></symbol><symbol viewBox="0 0 32 32" id="google" xmlns="http://www.w3.org/2000/svg"><path d="M.006 15.907C-.192 10.703 4.367 5.893 9.577 5.832c2.655-.226 5.238.805 7.248 2.486-.824.906-1.662 1.802-2.559 2.641-1.769-1.075-3.899-1.894-5.966-1.166-3.334.949-5.353 4.886-4.12 8.149 1.022 3.407 5.166 5.277 8.413 3.845 1.682-.602 2.79-2.154 3.277-3.821-1.927-.039-3.855-.014-5.782-.068-.005-1.147-.01-2.289-.005-3.436 3.214-.005 6.433-.014 9.652.014.198 2.809-.217 5.816-2.043 8.071-2.501 3.219-7.122 4.164-10.881 2.901-3.99-1.311-6.891-5.33-6.804-9.541zm25.993-4.338h2.867c.005.959.014 1.922.02 2.882.959.01 1.923.014 2.882.019v2.872l-2.882.014c-.01.964-.014 1.922-.02 2.886-.959-.005-1.918 0-2.872 0-.01-.964-.01-1.922-.019-2.882-.959-.01-1.922-.015-2.882-.02v-2.872c.959-.005 1.918-.01 2.882-.019.005-.959.015-1.922.024-2.882z"/></symbol><symbol viewBox="0 0 32 32" id="instagram" xmlns="http://www.w3.org/2000/svg"><path d="M31.82 23.793c0 4.427-3.6 8.027-8.027 8.027H8.027C3.601 31.82 0 28.22 0 23.793V8.027C0 3.601 3.601 0 8.027 0h15.766c4.427 0 8.027 3.601 8.027 8.027v15.766zm-8.027-20.33H8.027a4.569 4.569 0 0 0-4.564 4.564v15.766a4.569 4.569 0 0 0 4.564 4.564h15.766a4.569 4.569 0 0 0 4.564-4.564V8.027a4.569 4.569 0 0 0-4.564-4.564zM15.91 24.105c-4.519 0-8.195-3.676-8.195-8.195s3.676-8.195 8.195-8.195 8.195 3.676 8.195 8.195-3.677 8.195-8.195 8.195zm0-12.927a4.738 4.738 0 0 0-4.732 4.731 4.739 4.739 0 0 0 4.732 4.733 4.737 4.737 0 0 0 4.732-4.733 4.737 4.737 0 0 0-4.732-4.731zm8.459-1.769c-1.07 0-1.94-.87-1.94-1.939s.87-1.939 1.94-1.939c1.069 0 1.939.87 1.939 1.939s-.87 1.939-1.939 1.939z"/></symbol><symbol viewBox="0 0 32 32" id="linkedin" xmlns="http://www.w3.org/2000/svg"><path d="M3.844 0c2.089.002 3.812 1.727 3.808 3.827-.005 2.199-1.829 3.856-3.834 3.808-2.033.041-3.819-1.657-3.819-3.822 0-2.1 1.73-3.814 3.844-3.812zm2.141 31.714H1.509a1.052 1.052 0 0 1-1.052-1.052V11.566c0-.581.471-1.052 1.052-1.052h4.476c.581 0 1.052.471 1.052 1.052v19.096c0 .581-.471 1.052-1.052 1.052zm26-14.408a7.249 7.249 0 0 0-7.249-7.249h-1.148a6.435 6.435 0 0 0-5.641 3.329.817.817 0 0 0-.06-.008v-2.344a.437.437 0 0 0-.437-.437h-5.585a.437.437 0 0 0-.437.437v20.327c0 .241.195.437.437.437l5.706.001a.437.437 0 0 0 .437-.437V19.619c0-2.03 1.619-3.715 3.649-3.738a3.676 3.676 0 0 1 2.653 1.081 3.68 3.68 0 0 1 1.081 2.61v11.792c0 .241.195.437.436.437l5.721.001a.437.437 0 0 0 .437-.437v-14.06z"/></symbol><symbol viewBox="0 0 32 32" id="mailru" xmlns="http://www.w3.org/2000/svg"><path d="M16 .5C7.434.5.5 7.432.5 16c0 8.566 6.932 15.5 15.5 15.5 3.01 0 5.959-.884 8.463-2.514.75-.488.914-1.518.347-2.211l-.636-.777a1.496 1.496 0 0 0-1.961-.321A11.531 11.531 0 0 1 16 27.499c-6.341 0-11.5-5.159-11.5-11.5s5.159-11.5 11.5-11.5c6.259 0 11.5 3.601 11.5 10 0 2.424-1.318 4.984-3.636 5.231-1.084-.028-1.057-.804-.842-1.877l1.465-7.569a1.5 1.5 0 0 0-1.473-1.785h-2.811a.845.845 0 0 0-.839.746v.004l-.001.006c-.919-1.119-2.528-1.361-3.748-1.361-4.661 0-8.614 3.89-8.614 9.466 0 4.081 2.299 6.617 6 6.617 1.687 0 3.586-.977 4.687-2.396.595 2.131 2.538 2.131 4.419 2.131 6.807 0 9.394-4.476 9.394-9.213 0-8.522-6.874-14-15.5-14zm-1.355 19.027c-1.391 0-2.254-.976-2.254-2.548 0-2.812 1.924-4.546 3.664-4.546 1.393 0 2.225.953 2.225 2.548 0 2.816-2.117 4.546-3.635 4.546z"/></symbol><symbol viewBox="0 0 32 32" id="odnoklasniki" xmlns="http://www.w3.org/2000/svg"><path d="M16.012 12.134c2.191-.008 3.936-1.768 3.928-3.963s-1.757-3.944-3.948-3.946a3.942 3.942 0 0 0-3.958 3.994 3.936 3.936 0 0 0 3.979 3.915zM15.916 0c4.469.012 8.056 3.668 8.033 8.186-.023 4.414-3.668 7.991-8.129 7.976-4.416-.015-8.037-3.676-8.011-8.099C7.834 3.592 11.457-.012 15.917 0zm9.155 19.218c-.988 1.014-2.178 1.749-3.499 2.261-1.249.484-2.617.728-3.972.89.205.223.301.332.429.46 1.838 1.848 3.685 3.687 5.517 5.54.624.632.754 1.415.411 2.148-.375.803-1.217 1.33-2.042 1.274-.523-.036-.931-.296-1.293-.66-1.388-1.396-2.801-2.767-4.16-4.189-.397-.414-.586-.335-.936.024a274.614 274.614 0 0 1-4.241 4.258c-.641.632-1.403.746-2.147.385-.79-.382-1.292-1.189-1.254-2.001.027-.547.297-.967.673-1.342 1.82-1.816 3.634-3.638 5.449-5.458.121-.121.232-.249.407-.437-2.475-.259-4.707-.868-6.618-2.362-.238-.186-.482-.365-.698-.574-.837-.803-.921-1.724-.26-2.671.567-.811 1.517-1.028 2.505-.562.192.09.374.203.548.323 3.561 2.447 8.453 2.514 12.028.109.354-.27.733-.493 1.172-.605.852-.22 1.649.094 2.106.841.523.853.517 1.685-.127 2.347z"/></symbol><symbol viewBox="0 0 32 32" id="pinterest" xmlns="http://www.w3.org/2000/svg"><path d="M9.606 30.579C2.561 27.635-2.024 19.246.892 10.725c2.885-8.429 12.217-12.843 20.62-9.722 8.427 3.129 12.595 12.428 9.328 20.763-3.382 8.63-12.449 11.683-19.248 9.53.508-1.255 1.087-2.494 1.51-3.783.425-1.295.697-2.64 1.016-3.887.275.231.551.476.84.705 1.502 1.187 3.202 1.302 4.982.874 1.892-.455 3.387-1.528 4.495-3.105 1.873-2.667 2.534-5.685 2.081-8.86-.468-3.284-2.412-5.66-5.46-6.856-4.592-1.803-8.946-1.196-12.717 2.108-2.9 2.541-3.875 6.849-2.48 10.203.484 1.163 1.248 2.075 2.404 2.623.586.278.835.165 1.004-.447.013-.046.028-.09.045-.135.325-.856.249-1.56-.329-2.387-1.053-1.507-.865-3.251-.357-4.921.963-3.169 3.794-5.283 7.115-5.314.889-.008 1.805.068 2.666.278 2.562.625 4.216 2.606 4.382 5.233.133 2.107-.196 4.153-1.112 6.077-.454.952-1.052 1.799-1.943 2.399-.837.563-1.752.79-2.745.531-1.368-.357-2.145-1.605-1.799-2.975.359-1.419.823-2.812 1.174-4.233.149-.601.227-1.253.166-1.865-.166-1.667-1.742-2.444-3.214-1.631-1.031.57-1.528 1.523-1.758 2.625-.237 1.136-.122 2.255.247 3.357.074.221.085.495.033.723-.669 2.917-1.384 5.824-2.018 8.749-.185.853-.151 1.755-.212 2.634-.012.168-.002.338-.002.563z"/></symbol><symbol viewBox="0 0 32 32" id="skype" xmlns="http://www.w3.org/2000/svg"><path d="M30.388 18.639c.18-.925.275-1.881.275-2.859C30.663 7.56 24 .897 15.78.897c-.978 0-1.933.095-2.859.275A8.591 8.591 0 0 0 1.172 12.921c-.18.925-.275 1.881-.275 2.859C.897 24 7.56 30.663 15.78 30.663c.978 0 1.933-.095 2.859-.275a8.591 8.591 0 0 0 11.749-11.749zm-14.325 7.363c-5.289 0-7.933-1.983-8.746-4.475s.966-3.204 1.526-3.255c.559-.051 1.746.085 2.085 1.119.352 1.075 1.526 3.204 4.068 3.458s4.221-.915 4.729-2.136c.509-1.22-.407-2.899-4.322-3.458s-7.984-2.288-7.984-6.204 4.475-5.492 8.747-5.492 6.437 2.413 6.916 3.356c.593 1.17.39 3.118-1.017 3.458-1.475.356-2.237-.458-3.305-2.441-1.104-2.051-5.034-1.526-6.356-.356s-.966 2.848 4.526 3.916 7.526 3.051 7.526 6.153-3.102 6.356-8.391 6.356z"/></symbol><symbol viewBox="0 0 32 32" id="telegram" xmlns="http://www.w3.org/2000/svg"><path d="M29.572 2.699L.672 13.961c-.936.365-.879 1.708.084 1.993L8.1 18.123l2.741 8.697a1.261 1.261 0 0 0 2.104.503l3.797-3.877 7.45 5.468c.912.669 2.21.172 2.442-.935l4.934-23.59c.242-1.156-.895-2.118-1.995-1.69zm-3.624 5.235L12.524 19.805a.72.72 0 0 0-.239.46l-.517 4.594c-.017.15-.227.17-.271.026l-2.126-6.852a.722.722 0 0 1 .309-.827l15.852-9.832c.365-.226.738.276.416.56z"/></symbol><symbol viewBox="0 0 20 32" id="tumblr" xmlns="http://www.w3.org/2000/svg"><path d="M19.542 25.142v5.02a14.56 14.56 0 0 1-6.4 1.711c-.138.005-.276.015-.415.022-.303 0-.95-.008-.971-.008a14.013 14.013 0 0 1-1.446-.114 10.503 10.503 0 0 1-2.303-.564c-1.185-.442-2.229-1.097-3.095-2.027-.671-.721-1.121-1.551-1.299-2.527a12.579 12.579 0 0 1-.188-2.25c-.003-3.744-.002-7.573-.002-11.317H-.002V8.522c.379-.15.76-.281 1.129-.452 1.955-.908 3.385-2.348 4.293-4.302.444-.957.693-1.973.864-3.01.042-.252.075-.505.112-.757h4.523l.002 8.08h7.567v5.007h-7.57s.005 8.908.012 9.205c.016.677.049 1.352.152 2.023.112.721.472 1.28 1.08 1.679a4.365 4.365 0 0 0 1.959.691 6.844 6.844 0 0 0 2.093-.117c1.208-.243 2.304-.751 3.328-1.426z"/></symbol><symbol viewBox="0 0 32 32" id="twitter" xmlns="http://www.w3.org/2000/svg"><path d="M31.872 5.905c-1.172.52-2.433.871-3.756 1.028a6.558 6.558 0 0 0 2.876-3.617 13.086 13.086 0 0 1-4.152 1.586 6.533 6.533 0 0 0-4.774-2.064 6.54 6.54 0 0 0-6.369 8.029A18.564 18.564 0 0 1 2.219 4.034a6.511 6.511 0 0 0-.886 3.288 6.54 6.54 0 0 0 2.909 5.443 6.504 6.504 0 0 1-2.962-.819v.083a6.543 6.543 0 0 0 5.246 6.411 6.523 6.523 0 0 1-2.952.113 6.546 6.546 0 0 0 6.108 4.541 13.119 13.119 0 0 1-8.122 2.799c-.527 0-1.048-.031-1.559-.092a18.495 18.495 0 0 0 10.023 2.938c12.027 0 18.605-9.964 18.605-18.605 0-.283-.006-.566-.019-.846a13.256 13.256 0 0 0 3.263-3.384z"/></symbol><symbol viewBox="0 0 19 24" id="user" xmlns="http://www.w3.org/2000/svg"><path d="M9.5 10.845c2.895 0 5.242-2.428 5.242-5.422C14.742 2.428 12.395 0 9.5 0S4.26 2.428 4.26 5.423c0 2.994 2.346 5.422 5.241 5.422zm0 2.711c-5.247 0-9.5 4.4-9.5 9.829h19c0-5.428-4.253-9.829-9.5-9.829z"/></symbol><symbol viewBox="0 0 32 32" id="viber" xmlns="http://www.w3.org/2000/svg"><path d="M30.467 7.626l-.009-.037c-.74-2.993-4.078-6.205-7.144-6.873l-.035-.007a39.69 39.69 0 0 0-14.942 0l-.036.007c-3.064.668-6.402 3.88-7.144 6.873l-.008.037a29.257 29.257 0 0 0 0 12.599l.008.037c.71 2.865 3.799 5.93 6.75 6.772v3.341c0 1.209 1.474 1.803 2.312.931l3.385-3.519c.734.041 1.469.064 2.203.064 2.496 0 4.993-.236 7.471-.709l.035-.007c3.065-.668 6.403-3.88 7.144-6.873l.009-.037c.915-4.18.915-8.419 0-12.599zm-2.679 11.993c-.494 1.953-3.029 4.38-5.042 4.829a36.989 36.989 0 0 1-7.948.642.187.187 0 0 0-.14.057l-2.472 2.537-2.629 2.698a.308.308 0 0 1-.53-.213v-5.535a.191.191 0 0 0-.155-.187H8.87c-2.014-.448-4.547-2.876-5.042-4.829a26.535 26.535 0 0 1 0-11.387c.495-1.953 3.029-4.38 5.042-4.829a36.956 36.956 0 0 1 13.875 0c2.015.449 4.548 2.876 5.042 4.829a26.504 26.504 0 0 1 0 11.387z"/><path d="M20.254 22.203c-.31-.094-.605-.157-.879-.271-2.839-1.178-5.452-2.698-7.522-5.027-1.177-1.325-2.098-2.82-2.877-4.403-.369-.751-.681-1.531-.998-2.305-.289-.707.137-1.437.585-1.969.421-.5.963-.882 1.549-1.164.458-.22.91-.093 1.244.295.723.839 1.387 1.721 1.925 2.694.331.598.24 1.329-.359 1.737-.146.099-.278.215-.414.327a1.363 1.363 0 0 0-.313.33.903.903 0 0 0-.06.793c.739 2.031 1.985 3.61 4.029 4.46.327.136.656.295 1.032.251.631-.074.835-.766 1.278-1.128.432-.353.985-.358 1.45-.063s.917.611 1.366.931c.44.314.879.621 1.285.979.391.344.525.795.305 1.262-.403.855-.989 1.567-1.834 2.021-.239.128-.524.17-.793.252-.31-.094.269-.083 0 0zm-4.28-16.172c3.714.104 6.764 2.569 7.418 6.24.111.626.151 1.265.201 1.9.021.267-.13.521-.419.524-.298.004-.432-.245-.451-.512-.038-.528-.065-1.059-.138-1.583-.384-2.766-2.59-5.055-5.344-5.546-.414-.074-.838-.093-1.258-.137-.265-.028-.613-.044-.672-.374-.049-.277.184-.497.447-.511.072-.004.144-.001.216 0 3.714.104-.072 0 0 0z"/><path d="M21.399 13.217c-.006.046-.009.155-.037.258-.099.373-.664.42-.794.043a1.135 1.135 0 0 1-.045-.359c-.001-.787-.172-1.572-.569-2.257a4.2 4.2 0 0 0-1.761-1.652 5.078 5.078 0 0 0-1.404-.431c-.212-.035-.426-.056-.638-.086-.258-.036-.395-.2-.383-.454.011-.238.185-.409.445-.394.852.048 1.675.233 2.433.634 1.541.816 2.421 2.104 2.678 3.824.012.078.03.155.036.233.015.193.024.386.039.641-.006.046-.015-.255 0 0z"/><path d="M18.989 12.948c-.311.006-.477-.166-.509-.451-.022-.199-.04-.4-.087-.593-.093-.381-.296-.733-.616-.966a1.609 1.609 0 0 0-.502-.242c-.228-.066-.465-.048-.692-.103-.247-.06-.384-.26-.345-.492a.447.447 0 0 1 .471-.359c1.44.104 2.469.848 2.616 2.543.01.12.023.246-.004.36a.37.37 0 0 1-.332.304c-.311.006.141-.01 0 0z"/></symbol><symbol viewBox="0 0 32 32" id="vkontakte" xmlns="http://www.w3.org/2000/svg"><path d="M15.665 24.958h1.914s.578-.063.873-.382c.272-.292.263-.841.263-.841s-.037-2.568 1.154-2.946c1.175-.372 2.684 2.482 4.283 3.579 1.209.831 2.128.648 2.128.648l4.276-.06s2.237-.138 1.176-1.896c-.087-.144-.618-1.301-3.179-3.678-2.681-2.488-2.322-2.086.908-6.39 1.967-2.621 2.753-4.222 2.508-4.907-.234-.653-1.681-.48-1.681-.48l-4.814.03s-.357-.049-.622.11c-.259.155-.425.517-.425.517s-.762 2.029-1.778 3.754c-2.144 3.64-3.001 3.832-3.351 3.606-.815-.527-.612-2.116-.612-3.246 0-3.528.535-4.998-1.042-5.379-.523-.126-.908-.21-2.247-.223-1.718-.018-3.172.005-3.995.409-.548.268-.97.866-.713.9.318.043 1.039.194 1.421.715.493.671.476 2.178.476 2.178s.283 4.153-.662 4.669c-.649.354-1.539-.369-3.45-3.671-.979-1.692-1.719-3.562-1.719-3.562s-.143-.349-.397-.536c-.309-.226-.74-.299-.74-.299l-4.575.03s-.687.019-.939.318c-.224.266-.018.815-.018.815s3.582 8.379 7.637 12.602c3.718 3.871 7.941 3.617 7.941 3.617z"/></symbol><symbol viewBox="0 0 32 32" id="whatsapp" xmlns="http://www.w3.org/2000/svg"><path d="M0 31.989l2.238-7.948a15.908 15.908 0 0 1-2.197-8.084C.041 7.158 7.199 0 15.998 0s15.957 7.158 15.957 15.957-7.158 15.957-15.957 15.957a15.94 15.94 0 0 1-7.801-2.034L0 31.99zm8.616-5.013l.488.298a13.223 13.223 0 0 0 6.893 1.932c7.306 0 13.25-5.944 13.25-13.25s-5.944-13.25-13.25-13.25-13.25 5.944-13.25 13.25c0 2.546.724 5.018 2.092 7.149l.329.512-1.289 4.577 4.736-1.219z"/><path d="M11.357 8.744l-1.035-.056a1.253 1.253 0 0 0-.89.304c-.502.436-1.305 1.279-1.551 2.377-.368 1.637.2 3.642 1.671 5.647s4.211 5.213 9.056 6.583c1.561.442 2.79.144 3.737-.462a3.339 3.339 0 0 0 1.454-2.122l.165-.772a.535.535 0 0 0-.3-.599l-3.499-1.613a.536.536 0 0 0-.649.16l-1.374 1.781a.393.393 0 0 1-.442.132c-.941-.331-4.092-1.65-5.821-4.981a.398.398 0 0 1 .05-.443l1.313-1.519a.536.536 0 0 0 .087-.562L11.821 9.07a.536.536 0 0 0-.464-.325z"/></symbol><symbol viewBox="0 0 26 24" id="wheel" xmlns="http://www.w3.org/2000/svg"><path fill-rule="evenodd" clip-rule="evenodd" d="M13.499.001c5.596.211 10.425 3.92 11.985 9.203 1.56 5.284-.498 10.956-5.11 14.077a4.2 4.2 0 0 1-2.353.719H7.98a4.2 4.2 0 0 1-2.353-.72c-4.612-3.12-6.67-8.792-5.11-14.076C2.076 3.92 6.906.212 12.5.001c.37 0 .636-.002.998 0zm-.46 3.026h-.001a.593.593 0 0 1-.076 0c-4.453.017-8.347 2.949-9.521 7.168.037.01.037.01 0 0a.428.428 0 0 0 .418.54H22.14a.428.428 0 0 0 .42-.54c-.038.01-.038.01 0 0-1.175-4.22-5.07-7.151-9.521-7.168zm9.354 10.603a.438.438 0 0 0-.11.012c-3.518.827-6.349 3.387-7.48 6.763a.428.428 0 0 0 .413.56h2.805c.215 0 .424-.064.6-.183a9.715 9.715 0 0 0 4.193-6.666.43.43 0 0 0-.421-.486zm-18.786 0a.43.43 0 0 0-.421.486 9.715 9.715 0 0 0 4.192 6.666c.177.12.386.183.6.183h2.806a.428.428 0 0 0 .412-.56c-1.13-3.376-3.96-5.936-7.48-6.763a.438.438 0 0 0-.109-.012z"/></symbol><symbol viewBox="0 0 32 32" id="youtube" xmlns="http://www.w3.org/2000/svg"><path d="M25.299 4.615H6.631a6.632 6.632 0 0 0-6.632 6.632v9.332a6.632 6.632 0 0 0 6.632 6.632h18.668a6.632 6.632 0 0 0 6.632-6.632v-9.332a6.632 6.632 0 0 0-6.632-6.632zm-4.485 11.752l-8.731 4.164a.35.35 0 0 1-.501-.316v-8.589a.35.35 0 0 1 .509-.313l8.731 4.425a.35.35 0 0 1-.008.629z"/></symbol><symbol viewBox="0 0 32 32" id="youtube2" xmlns="http://www.w3.org/2000/svg"><path d="M19.297 21.95a1.37 1.37 0 0 0-.11-.486c-.081-.201-.254-.301-.471-.322-.255-.025-.459.078-.643.241a.427.427 0 0 0-.108.161l.004 5.188v.128s.044.06.051.067c.15.162.325.291.549.337.369.076.63-.078.702-.42a1.28 1.28 0 0 0 .029-.261c.002-1.545.005-3.089-.003-4.633zm0 0a1.37 1.37 0 0 0-.11-.486c-.081-.201-.254-.301-.471-.322-.255-.025-.459.078-.643.241a.427.427 0 0 0-.108.161l.004 5.188v.128s.044.06.051.067c.15.162.325.291.549.337.369.076.63-.078.702-.42a1.28 1.28 0 0 0 .029-.261c.002-1.545.005-3.089-.003-4.633zm5.809-7.824a428.594 428.594 0 0 0-18.423 0 3.919 3.919 0 0 0-3.834 3.918v9.59a3.918 3.918 0 0 0 3.834 3.919c6.141.132 12.284.132 18.423 0a3.92 3.92 0 0 0 3.835-3.919v-9.59a3.918 3.918 0 0 0-3.835-3.918zM8.486 28.508H6.715v-10.01H4.882v-1.675h5.441v1.671H8.486v10.014zm6.337-4.154v4.156h-1.568v-.95c-.057.061-.088.093-.118.127-.337.381-.72.698-1.208.866-.238.082-.484.11-.734.066-.342-.057-.572-.254-.71-.565-.129-.287-.162-.595-.162-.905-.004-1.144-.002-7.198-.002-7.257h1.564c.003.053.009 4.399.01 6.519 0 .115.001.234.024.346.058.285.276.407.55.307.315-.115.556-.333.758-.593.03-.038.03-.105.03-.159v-6.429l1.569-.004v4.475zm5.965 3.325c-.21.631-.671.952-1.334.945-.539-.005-.977-.219-1.337-.61l-.152-.162v.656h-1.571V16.823h1.571v3.846s.088-.177.169-.268c.243-.272.539-.483.905-.575.603-.151 1.298.036 1.628.74.195.416.25.86.25 1.312.003 1.633.003 3.267.001 4.9a2.87 2.87 0 0 1-.13.901zm5.802-.329c-.272.797-.834 1.239-1.659 1.36-.511.075-1.018.064-1.498-.153-.657-.296-1.029-.832-1.188-1.513a4.51 4.51 0 0 1-.114-.976c-.012-1.279-.007-2.56-.004-3.839.001-.669.161-1.286.619-1.799.523-.585 1.192-.804 1.956-.755.23.014.464.052.683.124.743.244 1.14.801 1.296 1.539.06.285.082.58.087.871.012.683-.005 2.187-.005 2.187h-3.008v2.156a.7.7 0 1 0 1.401 0v-1.108h1.616s.024 1.308-.181 1.905zm-1.435-5.501a.701.701 0 1 0-1.401 0v1.21h1.401v-1.21zm-5.967-.385c-.081-.201-.254-.301-.471-.322-.255-.025-.459.078-.643.241a.427.427 0 0 0-.108.161l.004 5.188v.128s.044.06.051.067c.15.162.325.291.549.337.369.076.63-.078.702-.42a1.28 1.28 0 0 0 .029-.261c.002-1.545.005-3.089-.003-4.633a1.365 1.365 0 0 0-.11-.486zm3.975-18.396v8.675h-1.607l.002-.932c-.178.175-.329.339-.496.485-.296.26-.63.454-1.022.531-.601.118-1.113-.072-1.305-.695a2.297 2.297 0 0 1-.104-.647V3.068h1.595v6.616c0 .088.007.176.022.262.048.273.25.401.512.31.32-.111.564-.332.771-.593.029-.037.024-.107.024-.162V3.068h1.607zM10.142 4.576C9.793 3.105 9.062 0 9.062 0H7.233s1.405 4.661 2.034 6.74a.816.816 0 0 1 .033.236l-.001 4.767h1.687l-.001-4.767c0-.079.01-.16.033-.236C11.647 4.661 13.052 0 13.052 0h-1.829s-.731 3.105-1.08 4.576h-.001zm5.091-1.946a2.302 2.302 0 0 0-2.302 2.302v4.505a2.302 2.302 0 0 0 4.604 0V4.932a2.302 2.302 0 0 0-2.302-2.302zm.665 6.897a.665.665 0 0 1-1.328 0V4.84a.665.665 0 0 1 1.328 0v4.687z"/></symbol></svg>