<svg xmlns="http://www.w3.org/2000/svg" width="301.686" height="22.41" fill="none"><path d="M275.703.812c3.626.004 7.254-.009 10.88.007-1.492 2.437-2.969 4.884-4.47 7.317 1.636.006 3.271-.005 4.908.006-2.904 4.738-5.817 9.469-8.723 14.204-1.74-.004-3.479.009-5.219-.007 2.368-3.84 4.72-7.69 7.088-11.528-1.633-.025-3.267.004-4.9-.016.95-1.55 1.897-3.101 2.843-4.653-1.897-.011-3.795.009-5.69-.009 1.099-1.771 2.186-3.55 3.283-5.321zm14.662-.001c3.626.002 7.255-.006 10.881.005-1.49 2.44-2.972 4.886-4.471 7.321 1.637.003 3.274-.004 4.911.005l-8.725 14.204c-1.742-.005-3.482.008-5.22-.007 2.37-3.839 4.719-7.69 7.091-11.529-1.635-.024-3.27.005-4.902-.015.95-1.55 1.897-3.102 2.842-4.656-1.897-.006-3.794.01-5.689-.006 1.098-1.772 2.186-3.55 3.282-5.322z" fill="#f3d93e"/><path d="M5.58 21.81H0L8.91.57h4.98l8.82 21.24h-5.7l-1.65-4.17H7.14zm3.03-8.28h5.34l-2.64-7.29zm15.855 8.28V.57h5.1v7.71c.28 0 .55.01.81.03.28 0 .55.01.81.03l6.51-7.77h5.58l-7.11 8.97c.9.44 1.73 1.01 2.49 1.71.76.68 1.45 1.52 2.07 2.52.62 1 1.16 2.17 1.62 3.51.46 1.32.85 2.83 1.17 4.53h-5.58c-.3-1.62-.68-3.02-1.14-4.2-.44-1.18-.99-2.14-1.65-2.88a5.728 5.728 0 0 0-2.37-1.65c-.92-.36-1.99-.52-3.21-.48v9.21zm21.387 0V.57h5.1v7.71c.28 0 .55.01.81.03.28 0 .55.01.81.03l6.51-7.77h5.58l-7.11 8.97c.9.44 1.73 1.01 2.49 1.71.76.68 1.45 1.52 2.07 2.52.62 1 1.16 2.17 1.62 3.51.46 1.32.85 2.83 1.17 4.53h-5.58c-.3-1.62-.68-3.02-1.14-4.2-.44-1.18-.99-2.14-1.65-2.88a5.728 5.728 0 0 0-2.37-1.65c-.92-.36-1.99-.52-3.21-.48v9.21zM70.66.57l4.44 10.56L79.359.57h5.49l-7.23 16.62c-.32.74-.69 1.43-1.11 2.07-.4.64-.89 1.19-1.47 1.65-.56.46-1.23.82-2.01 1.08-.78.28-1.7.42-2.76.42-.94 0-1.72-.08-2.34-.24-.6-.14-1.1-.31-1.5-.51-.38-.22-.69-.45-.93-.69-.22-.24-.42-.45-.6-.63l3.18-3.57c.26.28.59.58.99.9.4.3.86.45 1.38.45.4 0 .76-.07 1.08-.21.32-.16.62-.42.9-.78L64.959.57zm35.352 21.24l.12-15.03h-.09l-5.52 15.03h-3.6L91.55 6.78h-.09l.12 15.03h-4.83V.57h7.29l4.83 13.62h.12L103.61.57h7.41v21.24zM118.823.57l4.44 10.56 4.26-10.56h5.49l-7.23 16.62c-.32.74-.69 1.43-1.11 2.07-.4.64-.89 1.19-1.47 1.65-.56.46-1.23.82-2.01 1.08-.78.28-1.7.42-2.76.42-.94 0-1.72-.08-2.34-.24-.6-.14-1.1-.31-1.5-.51-.38-.22-.69-.45-.93-.69-.22-.24-.42-.45-.6-.63l3.18-3.57c.26.28.59.58.99.9.4.3.86.45 1.38.45.4 0 .76-.07 1.08-.21.32-.16.62-.42.9-.78L113.123.57zm18.972 21.24h-5.49l8.25-21.24h5.25l8.43 21.24h-5.61l-5.4-14.16zm22.023-9.63c-1.44-.24-2.6-.78-3.48-1.62-.88-.86-1.32-2-1.32-3.42 0-2.08.8-3.69 2.4-4.83 1.62-1.16 4.01-1.74 7.17-1.74h7.77v21.24h-5.1V14.1h-1.83c-1.5 0-2.77.66-3.81 1.98-1.04 1.32-1.73 3.23-2.07 5.73h-5.58c.08-1.26.3-2.4.66-3.42.36-1.02.8-1.92 1.32-2.7a9.59 9.59 0 0 1 1.77-2.01c.68-.58 1.38-1.06 2.1-1.44zm7.44-7.29h-2.22c-1.6 0-2.76.21-3.48.63-.7.42-1.05 1.05-1.05 1.89 0 .32.07.63.21.93.16.28.41.53.75.75.36.2.83.37 1.41.51.6.12 1.34.18 2.22.18h2.16zm18.583.06v16.86h-5.13V4.95h-6V.57h17.13v4.38zm30.481 6.15c0 1.68-.29 3.22-.87 4.62-.58 1.38-1.39 2.57-2.43 3.57-1.02.98-2.24 1.74-3.66 2.28-1.42.54-2.96.81-4.62.81-1.66 0-3.2-.27-4.62-.81-1.4-.54-2.62-1.3-3.66-2.28-1.02-1-1.82-2.19-2.4-3.57-.58-1.4-.87-2.94-.87-4.62 0-1.7.29-3.23.87-4.59.58-1.38 1.38-2.55 2.4-3.51 1.04-.96 2.26-1.7 3.66-2.22 1.42-.52 2.96-.78 4.62-.78 1.66 0 3.2.26 4.62.78s2.64 1.26 3.66 2.22c1.04.96 1.85 2.13 2.43 3.51.58 1.36.87 2.89.87 4.59zm-5.49 0c0-.92-.15-1.78-.45-2.58-.3-.8-.72-1.48-1.26-2.04a5.3 5.3 0 0 0-1.92-1.35c-.74-.34-1.56-.51-2.46-.51-.9 0-1.72.17-2.46.51-.74.32-1.38.77-1.92 1.35-.54.56-.96 1.24-1.26 2.04-.28.8-.42 1.66-.42 2.58 0 .96.15 1.85.45 2.67.3.8.71 1.49 1.23 2.07.54.58 1.18 1.04 1.92 1.38.74.32 1.56.48 2.46.48.9 0 1.72-.16 2.46-.48.74-.34 1.38-.8 1.92-1.38.54-.58.96-1.27 1.26-2.07.3-.82.45-1.71.45-2.67zm24.978-3.99c0 1.24-.23 2.29-.69 3.15-.46.84-1.08 1.52-1.86 2.04s-1.68.9-2.7 1.14c-1.02.24-2.08.36-3.18.36h-2.55v8.01h-5.13V.57h7.8c1.16 0 2.24.12 3.24.36 1.02.22 1.9.59 2.64 1.11.76.5 1.35 1.17 1.77 2.01.44.82.66 1.84.66 3.06zm-5.13.03c0-.5-.1-.91-.3-1.23-.2-.32-.47-.57-.81-.75-.34-.18-.73-.3-1.17-.36-.42-.06-.86-.09-1.32-.09h-2.25v5.01h2.16c.48 0 .94-.04 1.38-.12.44-.08.83-.22 1.17-.42.36-.2.64-.46.84-.78.2-.34.3-.76.3-1.26zM243.989.57v7.74h1.32c1.22 0 2.37.1 3.45.3 1.1.2 2.05.55 2.85 1.05.8.48 1.43 1.13 1.89 1.95.48.82.72 1.84.72 3.06s-.24 2.28-.72 3.18c-.46.9-1.1 1.64-1.92 2.22-.82.58-1.78 1.02-2.88 1.32-1.08.28-2.24.42-3.48.42h-6.33V.57zm0 16.92h1.71c1.28 0 2.15-.23 2.61-.69.48-.46.72-1.07.72-1.83 0-.34-.06-.65-.18-.93-.1-.28-.28-.52-.54-.72-.24-.22-.58-.39-1.02-.51-.42-.12-.95-.18-1.59-.18h-1.71zM260.639.57v21.24h-5.1V.57z" fill="#fff"/></svg>