<svg width="30" height="30" fill="none" xmlns="http://www.w3.org/2000/svg"><path d="M15 4c-4.563 0-7.918.777-10.156 1.563-2.239.785-3.438 1.625-3.438 1.625L1 7.5V26h5v-2h18v2h5V7.5l-.406-.313s-1.2-.84-3.438-1.625C22.918 4.777 19.563 4 15 4zm0 2c4.336 0 7.465.723 9.5 1.438 1.754.613 2.285 1.042 2.5 1.187V15h-2v-2.594l-.5-.281S22.445 11 19.5 11a11.5 11.5 0 00-4.5.906A11.496 11.496 0 0010.5 11c-2.945 0-5 1.125-5 1.125l-.5.281V15H3V8.625c.215-.145.746-.574 2.5-1.188C7.535 6.723 10.664 6 15 6zm-4.5 7c1.871 0 2.965.414 3.5.656V15H7v-1.344c.535-.242 1.629-.656 3.5-.656zm9 0c1.871 0 2.965.414 3.5.656V15h-7v-1.344c.535-.242 1.629-.656 3.5-.656zM3 17h24v7h-1v-2H4v2H3v-7z" fill="#737373"/></svg>