<svg width="30" height="30" fill="none" xmlns="http://www.w3.org/2000/svg"><path d="M15 1c-3.854 0-7 3.146-7 7v2.955c0 3.854 3.146 7 7 7 3.855 0 7-3.146 7-7V8c0-3.854-3.146-7-7-7zm0 2c1.149 0 2.192.397 3.033 1.041L13.557 6.77l-.854.521 1.041 1.707.854-.52 4.615-2.812.142-.086c.233.42.421.867.526 1.352l-7.256 4.53-.85.53 1.06 1.697.849-.529L20 9.215v1.74c0 2.773-2.227 5-5 5-2.774 0-5-2.226-5-5V8c0-2.774 2.226-5 5-5zM2 19v2h1v7h1.979L5 29.021l2-.043L6.98 28H23v1h2v-1h2v-7h1v-2H2zm3 2h4v2h2v-2h3v5H5v-5zm11 0h3v2h2v-2h4v5h-9v-5z" fill="#737373"/></svg>