<svg width="30" height="30" fill="none" xmlns="http://www.w3.org/2000/svg"><path d="M6.333 7c-1.425 0-2.6 1.141-2.6 2.526v1.842C2.731 11.72 2 12.648 2 13.737V23h1.733v-1.684h22.534V23H28v-9.263c0-1.089-.731-2.017-1.733-2.369V9.526c0-1.385-1.175-2.526-2.6-2.526H6.333zm0 1.684h17.334c.48 0 .866.375.866.842v1.842c-1.002.352-1.733 1.28-1.733 2.369v1.684H7.2v-1.684c0-1.089-.731-2.017-1.733-2.369V9.526c0-.467.386-.842.866-.842zM4.6 12.894c.48 0 .867.376.867.843v3.368h19.066v-3.368c0-.467.386-.842.867-.842.48 0 .867.375.867.842v5.895H3.733v-5.895c0-.467.386-.842.867-.842z" fill="#737373"/></svg>