<svg width="30" height="30" fill="none" xmlns="http://www.w3.org/2000/svg"><path d="M15 4L4 8.89V27h1.833V11.418h18.334V27H26V8.89L15 4zm0 2.005l8.051 3.58H6.95L15 6.005zm2.66 9.996L10.127 27h2.212l7.534-10.999H17.66zm-6.327.917c-1.003 0-1.833.83-1.833 1.833 0 1.003.83 1.833 1.833 1.833 1.003 0 1.834-.83 1.834-1.833 0-1.003-.83-1.833-1.834-1.833zm7.334 5.5c-1.003 0-1.834.83-1.834 1.832 0 1.003.83 1.833 1.834 1.833 1.003 0 1.833-.83 1.833-1.833 0-1.003-.83-1.833-1.833-1.833z" fill="#F78B3D"/></svg>