<svg width="66" height="66" viewBox="0 0 66 66" xmlns="http://www.w3.org/2000/svg"><title>Group 8</title><path d="M19.811 63.07C5.281 56.998-4.176 39.695 1.84 22.12 7.789 4.738 27.037-4.366 44.369 2.07 61.748 8.523 70.344 27.7 63.606 44.893 56.632 62.692 37.93 68.99 23.91 64.55c1.048-2.59 2.24-5.144 3.114-7.803.878-2.671 1.437-5.446 2.096-8.017.566.477 1.135.982 1.732 1.453 3.098 2.45 6.603 2.687 10.276 1.804 3.902-.938 6.986-3.151 9.27-6.404 3.863-5.5 5.226-11.724 4.292-18.274-.965-6.772-4.975-11.673-11.262-14.14-9.471-3.72-18.45-2.467-26.229 4.347-5.982 5.242-7.993 14.127-5.115 21.044.997 2.398 2.573 4.28 4.957 5.41 1.209.573 1.722.34 2.071-.923.026-.093.058-.186.092-.277.67-1.766.514-3.218-.678-4.923-2.172-3.107-1.784-6.704-.737-10.15 1.987-6.536 7.826-10.896 14.674-10.96 1.834-.017 3.723.14 5.5.574 5.283 1.29 8.695 5.376 9.037 10.794.274 4.345-.405 8.566-2.294 12.533-.935 1.964-2.17 3.71-4.007 4.947-1.726 1.162-3.613 1.63-5.66 1.095-2.822-.738-4.424-3.312-3.71-6.136.74-2.927 1.696-5.8 2.422-8.73.306-1.24.468-2.585.342-3.847-.343-3.439-3.592-5.042-6.629-3.364-2.127 1.176-3.151 3.141-3.626 5.415-.49 2.343-.253 4.652.51 6.923a2.89 2.89 0 0 1 .067 1.492c-1.38 6.016-2.855 12.012-4.162 18.044-.381 1.76-.31 3.619-.437 5.433-.024.348-.004.699-.004 1.16z" fill="#C9353D"/></svg>