<svg width="74" height="62" viewBox="0 0 74 62" xmlns="http://www.w3.org/2000/svg"><title>Group 14</title><path d="M68.384.24L1.552 26.284c-2.164.844-2.033 3.95.195 4.608l16.983 5.015 6.338 20.11c.662 2.101 3.324 2.738 4.865 1.165l8.78-8.966 17.228 12.646c2.109 1.548 5.111.398 5.647-2.162l11.41-54.552c.559-2.673-2.07-4.899-4.614-3.908zm-8.379 12.107L28.962 39.798c-.31.274-.506.653-.552 1.063l-1.195 10.625c-.04.346-.524.392-.628.06L21.67 35.7a1.668 1.668 0 0 1 .714-1.911l36.658-22.736c.843-.524 1.706.637.963 1.294z" fill="#61A8DE"/></svg>