<svg width="70" height="70" viewBox="0 0 70 70" xmlns="http://www.w3.org/2000/svg"><title>Group 11</title><g fill="#1BD741"><path d="M0 69.976l4.895-17.387A34.797 34.797 0 0 1 .09 34.905C.09 15.658 15.748 0 34.995 0S69.9 15.658 69.9 34.905 54.242 69.81 34.995 69.81a34.86 34.86 0 0 1-17.065-4.45L0 69.976zM18.847 59.01l1.069.652a28.925 28.925 0 0 0 15.079 4.227c15.982 0 28.984-13.002 28.984-28.984 0-15.982-13.002-28.984-28.984-28.984-15.982 0-28.984 13.002-28.984 28.984a28.88 28.88 0 0 0 4.577 15.638l.719 1.12-2.82 10.014 10.36-2.667z"/><path d="M24.842 19.128l-2.265-.124a2.739 2.739 0 0 0-1.947.666c-1.098.954-2.853 2.797-3.392 5.2-.805 3.581.438 7.967 3.655 12.353 3.216 4.386 9.21 11.403 19.81 14.4 3.415.966 6.102.315 8.175-1.01 1.642-1.051 2.774-2.737 3.181-4.642l.362-1.69a1.173 1.173 0 0 0-.656-1.31l-7.655-3.53a1.174 1.174 0 0 0-1.42.35l-3.005 3.895a.86.86 0 0 1-.967.288c-2.058-.723-8.951-3.61-12.734-10.896a.869.869 0 0 1 .11-.97l2.872-3.322c.293-.339.367-.816.191-1.228l-3.3-7.72a1.174 1.174 0 0 0-1.015-.71z"/></g></svg>