<svg width="60" height="73" viewBox="0 0 60 73" xmlns="http://www.w3.org/2000/svg"><title>Group 9</title><path d="M37.522 50.074c-.002-.373-.112-.761-.25-1.11-.184-.458-.579-.686-1.075-.734-.58-.057-1.046.177-1.467.55-.169.147-.245.366-.245.366l.008 11.836v.292s.101.136.117.153c.342.37.74.665 1.252.77.842.173 1.436-.178 1.6-.959.042-.195.067-.396.067-.596.004-3.524.01-7.046-.007-10.568zm0 0c-.002-.373-.112-.761-.25-1.11-.184-.458-.579-.686-1.075-.734-.58-.057-1.046.177-1.467.55-.169.147-.245.366-.245.366l.008 11.836v.292s.101.136.117.153c.342.37.74.665 1.252.77.842.173 1.436-.178 1.6-.959.042-.195.067-.396.067-.596.004-3.524.01-7.046-.007-10.568zm13.252-17.849c-14.006-.3-28.02-.3-42.028 0C3.886 32.328 0 36.302 0 41.164V63.04c0 4.864 3.886 8.838 8.746 8.94a978.16 978.16 0 0 0 42.028 0c4.862-.102 8.748-4.076 8.748-8.94V41.164c0-4.862-3.886-8.836-8.748-8.939zM12.86 65.035H8.82V42.199H4.638v-3.82H17.05v3.811h-4.19v22.845zm14.456-9.479v9.48h-3.577V62.87c-.13.138-.202.213-.27.29-.77.868-1.642 1.592-2.756 1.975a3.346 3.346 0 0 1-1.676.152c-.78-.13-1.305-.58-1.62-1.29-.294-.655-.369-1.357-.37-2.063-.01-2.61-.005-16.421-.005-16.555h3.568c.006.12.02 10.035.022 14.87 0 .264.002.533.054.79.132.649.63.928 1.255.7.72-.264 1.267-.76 1.728-1.354.068-.085.068-.239.068-.361V45.357l3.579-.009v10.208zm13.607 7.586c-.478 1.439-1.53 2.171-3.044 2.156-1.23-.011-2.228-.5-3.05-1.393l-.347-.368v1.495H30.9V38.377h3.583v8.774s.202-.404.386-.612c.555-.62 1.23-1.101 2.064-1.311 1.375-.345 2.96.08 3.715 1.688.445.95.57 1.963.57 2.994.007 3.725.007 7.451.002 11.177-.002.698-.074 1.386-.296 2.055zm13.235-.75c-.62 1.818-1.904 2.827-3.785 3.103-1.167.171-2.323.147-3.417-.348-1.498-.676-2.346-1.897-2.71-3.452a10.41 10.41 0 0 1-.261-2.226c-.029-2.919-.016-5.84-.01-8.759.003-1.526.367-2.934 1.413-4.103 1.193-1.335 2.72-1.833 4.463-1.721.524.033 1.06.118 1.557.283 1.695.557 2.6 1.826 2.956 3.51.136.65.186 1.323.197 1.987.029 1.557-.01 4.99-.01 4.99h-6.862v4.918a1.598 1.598 0 1 0 3.195 0v-2.528h3.686s.055 2.984-.412 4.346zm-3.274-12.548a1.599 1.599 0 1 0-3.195 0v2.76h3.195v-2.76zm-13.612-.88c-.184-.458-.579-.686-1.075-.734-.58-.057-1.046.178-1.467.55a.974.974 0 0 0-.245.367l.008 11.835v.292s.101.136.117.153c.342.37.74.665 1.252.77.842.173 1.436-.178 1.6-.958.042-.195.067-.397.067-.597.004-3.524.01-7.046-.007-10.568-.002-.373-.112-.761-.25-1.11zM46.34 7v19.79h-3.668l.005-2.126c-.406.4-.752.773-1.132 1.108-.674.594-1.438 1.036-2.331 1.211-1.371.268-2.54-.165-2.977-1.585A5.227 5.227 0 0 1 36 23.92V7h3.64v15.092c0 .2.015.403.05.599.111.622.57.914 1.17.707.73-.253 1.287-.759 1.76-1.354.066-.085.054-.244.054-.369V7h3.666zm-29.703 3.439A7287.04 7287.04 0 0 1 14.173 0H10s3.206 10.633 4.64 15.375c.051.172.075.358.075.537l-.001 10.874h3.848l-.002-10.874c0-.18.024-.365.075-.537C20.07 10.633 23.275 0 23.275 0h-4.173s-1.668 7.084-2.464 10.439h-.001zM28.25 6A5.25 5.25 0 0 0 23 11.25v10.277a5.25 5.25 0 0 0 10.502 0V11.251A5.251 5.251 0 0 0 28.25 6zm1.516 15.734c0 .836-.68 1.516-1.515 1.516-.835 0-1.515-.68-1.515-1.516v-10.69c0-.836.68-1.516 1.515-1.516.835 0 1.515.68 1.515 1.515v10.691z" fill="#DC472E"/></svg>