<?xml version="1.0" standalone="no"?>
<!DOCTYPE svg PUBLIC "-//W3C//DTD SVG 1.1//EN" "http://www.w3.org/Graphics/SVG/1.1/DTD/svg11.dtd" >
<svg xmlns="http://www.w3.org/2000/svg" xmlns:xlink="http://www.w3.org/1999/xlink" version="1.1">
<metadata>
Created by FontForge 20161003 at Sat Oct 13 13:49:18 2018
 By www-data
Copyright (c) 2018 by TypeType. Designers Ivan Gladkikh, Pavel Emelyanov. Technical designers Marina Khodak, Vika Usmanova, Nadyr Rakhimov. All rights reserved.
</metadata>
<defs>
<font id="TTCommonsLight" horiz-adv-x="983" >
  <font-face 
    font-family="TTCommonsLight"
    font-weight="300"
    font-stretch="normal"
    units-per-em="2048"
    panose-1="2 0 5 6 2 0 0 2 0 4"
    ascent="1434"
    descent="-614"
    x-height="901"
    cap-height="1290"
    bbox="-348 -461 2945 1741"
    underline-thickness="0"
    underline-position="0"
    unicode-range="U+000D-FB06"
  />
<missing-glyph horiz-adv-x="0" 
 />
    <glyph glyph-name="uniFB00" unicode="ff" horiz-adv-x="1064" 
d="M696 1034q0 123 67.5 194.5t168.5 71.5q18 0 33.5 -3t25.5 -7q12 -6 23 -10v-82q-8 2 -17 4q-8 2 -19 4t-26 2q-70 0 -117 -41t-47 -133v-133h226v-92h-226v-809h-92v809h-399v-809h-92v809h-144v92h144v92q0 123 67.5 195t167.5 72q18 0 33.5 -3.5t26.5 -7.5
q12 -6 22 -10v-82l-16 4t-19.5 4t-25.5 2q-70 0 -117 -41t-47 -133v-92h399v133z" />
    <glyph glyph-name="uniFB01" unicode="fi" horiz-adv-x="952" 
d="M788 0h-92v809h-399v-809h-92v809h-144v92h144v133q0 123 67.5 194.5t167.5 71.5q18 0 33.5 -3t26.5 -7q12 -6 22 -10v-82l-16 4t-19.5 4t-25.5 2q-70 0 -117 -41t-47 -133v-133h491v-901zM676 1188q0 31 20.5 51.5t51.5 20.5t51 -20.5t20 -51.5t-20.5 -51.5t-50.5 -20.5
q-31 0 -51.5 20.5t-20.5 51.5z" />
    <glyph glyph-name="uniFB02" unicode="fl" horiz-adv-x="931" 
d="M205 963q0 162 88 249.5t250 87.5q18 0 44.5 -3t51.5 -7q29 -6 57 -10h92v-1280h-92v1188q-20 4 -43 10q-20 4 -47.5 7t-62.5 3q-49 0 -94.5 -15t-79 -46t-53 -77t-19.5 -107v-62h225v-92h-225v-809h-92v809h-144v92h144v62z" />
    <glyph glyph-name="uniFB03" unicode="ffi" horiz-adv-x="1443" 
d="M1280 0h-92v809h-400v-809h-92v809h-399v-809h-92v809h-144v92h144v92q0 123 67.5 195t167.5 72q18 0 33.5 -3.5t26.5 -7.5q12 -6 22 -10v-82l-16 4t-19.5 4t-25.5 2q-70 0 -117 -41t-47 -133v-92h399v133q0 123 67.5 194.5t168.5 71.5q18 0 33.5 -3t25.5 -7
q12 -6 23 -10v-82q-8 2 -17 4q-8 2 -19 4t-26 2q-70 0 -117 -41t-47 -133v-133h492v-901zM1167 1188q0 31 20.5 51.5t51.5 20.5t51.5 -20.5t20.5 -51.5t-20.5 -51.5t-51.5 -20.5t-51.5 20.5t-20.5 51.5z" />
    <glyph glyph-name="uniFB04" unicode="ffl" horiz-adv-x="1423" 
d="M696 963q0 162 88 249.5t250 87.5q18 0 45 -3t51 -7q29 -6 58 -10h92v-1280h-92v1188q-20 4 -43 10q-20 4 -48 7t-63 3q-49 0 -94 -15t-79 -46t-53.5 -77t-19.5 -107v-62h226v-92h-226v-809h-92v809h-399v-809h-92v809h-144v92h144v92q0 123 67.5 195t167.5 72
q18 0 33.5 -3.5t26.5 -7.5q12 -6 22 -10v-82l-16 4t-19.5 4t-25.5 2q-70 0 -117 -41t-47 -133v-92h399v62z" />
    <glyph glyph-name="f_f_j.liga" unicode="ffj" horiz-adv-x="1443" 
d="M1188 809h-400v-809h-92v809h-399v-809h-92v809h-144v92h144v92q0 123 67.5 195t167.5 72q18 0 33.5 -3.5t26.5 -7.5q12 -6 22 -10v-82l-16 4t-19.5 4t-25.5 2q-70 0 -117 -41t-47 -133v-92h399v133q0 123 67.5 194.5t168.5 71.5q18 0 33.5 -3t25.5 -7q12 -6 23 -10v-82
q-8 2 -17 4q-8 2 -19 4t-26 2q-70 0 -117 -41t-47 -133v-133h492v-973q0 -123 -67.5 -194.5t-168.5 -71.5q-35 0 -59 10q-12 4 -22 11v81q8 -4 16 -6q20 -4 45 -4q78 0 121 44t43 130v881zM1167 1188q0 31 20.5 51.5t51.5 20.5t51.5 -20.5t20.5 -51.5t-20.5 -51.5
t-51.5 -20.5t-51.5 20.5t-20.5 51.5z" />
    <glyph glyph-name="f_j.liga" unicode="fj" horiz-adv-x="952" 
d="M696 809h-399v-809h-92v809h-144v92h144v92q0 123 67.5 195t167.5 72q18 0 33.5 -3.5t26.5 -7.5q12 -6 22 -10v-82l-16 4t-19.5 4t-25.5 2q-70 0 -117 -41t-47 -133v-92h491v-973q0 -123 -67.5 -194.5t-167.5 -71.5q-35 0 -59 10q-12 4 -23 11v81q8 -4 16 -6q20 -4 45 -4
q78 0 121 44t43 130v881zM676 1188q0 31 20.5 51.5t51.5 20.5t51 -20.5t20 -51.5t-20.5 -51.5t-50.5 -20.5q-31 0 -51.5 20.5t-20.5 51.5z" />
    <glyph glyph-name="f_t.liga" unicode="ft" horiz-adv-x="1126" 
d="M205 1034q0 123 67.5 194.5t167.5 71.5q18 0 33.5 -3t26.5 -7q12 -6 22 -10v-82l-16 4t-19.5 4t-25.5 2q-70 0 -117 -41t-47 -133v-133h317q102 0 103 103v163h82v-266h225v-92h-225v-553q0 -92 47 -133t117 -41q25 0 45 4q8 2 16 6v-82q-10 -6 -23 -10q-25 -10 -59 -10
q-100 0 -167.5 71.5t-67.5 194.5v553h-410v-809h-92v809h-144v92h144v133z" />
    <glyph glyph-name="f_h.liga" unicode="fh" horiz-adv-x="1576" 
d="M1085 911q76 0 142.5 -27.5t114 -77.5t75 -120t27.5 -154v-532h-92v532q0 61 -21.5 113.5t-59.5 91.5t-88 60.5t-108 21.5q-61 0 -113.5 -21.5t-91.5 -60.5t-60.5 -91t-21.5 -114v-532h-92v1188q-20 4 -43 10q-20 4 -47.5 7t-62.5 3q-49 0 -94.5 -15t-79 -46t-53 -77
t-19.5 -107v-62h225v-92h-225v-809h-92v809h-144v92h144v62q0 162 88 249.5t250 87.5q18 0 44.5 -3t51.5 -7q29 -6 57 -10h92v-512h11q25 39 65 72q35 27 89 49t132 22z" />
    <glyph glyph-name="f_k.liga" unicode="fk" horiz-adv-x="1361" 
d="M1362 0h-123l-451 471v-471h-92v1188q-20 4 -43 10q-20 4 -47.5 7t-62.5 3q-49 0 -94.5 -15t-79 -46t-53 -77t-19.5 -107v-62h225v-92h-225v-809h-92v809h-144v92h144v62q0 162 88 249.5t250 87.5q18 0 44.5 -3t51.5 -7q29 -6 57 -10h92v-809l410 430h123l-410 -430z" />
    <glyph glyph-name="f_b.liga" unicode="fb" horiz-adv-x="1607" 
d="M205 963q0 162 88 249.5t250 87.5q18 0 44.5 -3t51.5 -7q29 -6 57 -10h92v-532h11q31 45 75 81q39 31 96.5 56.5t135.5 25.5q88 0 165 -34.5t133 -96t89 -145.5t33 -184t-33 -184.5t-89 -146t-133 -96t-165 -34.5q-78 0 -135.5 25.5t-96.5 56.5q-45 37 -75 82h-11
l-30 -154h-62v1188q-20 4 -43 10q-20 4 -47.5 7t-62.5 3q-49 0 -94.5 -15t-79 -46t-53 -77t-19.5 -107v-62h225v-92h-225v-809h-92v809h-144v92h144v62zM1106 819q-66 0 -125 -27.5t-104.5 -76.5t-72 -117t-26.5 -147q0 -80 26.5 -147.5t72 -117t104.5 -77t125 -27.5
t125 27.5t104 77t72 117t27 147.5t-27 147.5t-72 116.5t-104 76.5t-125 27.5z" />
    <glyph glyph-name="f_f_h.liga" unicode="ffh" horiz-adv-x="2068" 
d="M1577 911q76 0 142.5 -27.5t113.5 -77.5t74.5 -120t27.5 -154v-532h-92v532q0 61 -21.5 113.5t-59.5 91.5t-88 60.5t-107 21.5q-61 0 -113.5 -21.5t-91.5 -60.5t-60.5 -91t-21.5 -114v-532h-92v1188q-20 4 -43 10q-20 4 -48 7t-63 3q-49 0 -94 -15t-79 -46t-53.5 -77
t-19.5 -107v-62h226v-92h-226v-809h-92v809h-399v-809h-92v809h-144v92h144v92q0 123 67.5 195t167.5 72q18 0 33.5 -3.5t26.5 -7.5q12 -6 22 -10v-82l-16 4t-19.5 4t-25.5 2q-70 0 -117 -41t-47 -133v-92h399v62q0 162 88 249.5t250 87.5q18 0 45 -3t51 -7q29 -6 58 -10h92
v-512h10q25 39 66 72q35 27 89 49t132 22z" />
    <glyph glyph-name="f_f_k.liga" unicode="ffk" horiz-adv-x="1853" 
d="M1853 0h-122l-451 471v-471h-92v1188q-20 4 -43 10q-20 4 -48 7t-63 3q-49 0 -94 -15t-79 -46t-53.5 -77t-19.5 -107v-62h226v-92h-226v-809h-92v809h-399v-809h-92v809h-144v92h144v92q0 123 67.5 195t167.5 72q18 0 33.5 -3.5t26.5 -7.5q12 -6 22 -10v-82l-16 4
t-19.5 4t-25.5 2q-70 0 -117 -41t-47 -133v-92h399v62q0 162 88 249.5t250 87.5q18 0 45 -3t51 -7q29 -6 58 -10h92v-809l410 430h122l-409 -430z" />
    <glyph glyph-name="f_f_b.liga" unicode="ffb" horiz-adv-x="2099" 
d="M2017 451q0 -100 -32.5 -184.5t-89 -146t-133 -96t-165.5 -34.5q-78 0 -135 25.5t-96 56.5q-45 37 -76 82h-10l-31 -154h-61v1188q-20 4 -43 10q-20 4 -48 7t-63 3q-49 0 -94 -15t-79 -46t-53.5 -77t-19.5 -107v-62h226v-92h-226v-809h-92v809h-399v-809h-92v809h-144v92
h144v92q0 123 67.5 195t167.5 72q18 0 33.5 -3.5t26.5 -7.5q12 -6 22 -10v-82l-16 4t-19.5 4t-25.5 2q-70 0 -117 -41t-47 -133v-92h399v62q0 162 88 249.5t250 87.5q18 0 45 -3t51 -7q29 -6 58 -10h92v-532h10q31 45 76 81q39 31 96.5 56.5t134.5 25.5q88 0 165 -34.5
t133.5 -96t89 -145.5t32.5 -184zM1597 819q-66 0 -125 -27.5t-104 -76.5t-71.5 -117t-26.5 -147q0 -80 26.5 -147.5t71.5 -117t104.5 -77t124.5 -27.5q66 0 125.5 27.5t104.5 77t71.5 117t26.5 147.5t-26.5 147.5t-71.5 116.5t-104.5 76.5t-125.5 27.5z" />
    <glyph glyph-name=".notdef" horiz-adv-x="0" 
 />
    <glyph glyph-name="glyph1" horiz-adv-x="0" 
 />
    <glyph glyph-name="glyph1" horiz-adv-x="0" 
 />
    <glyph glyph-name="uni000D" unicode="&#xd;" horiz-adv-x="0" 
 />
    <glyph glyph-name="space" unicode=" " horiz-adv-x="430" 
 />
    <glyph glyph-name="exclam" unicode="!" horiz-adv-x="491" 
d="M205 307l-21 983h123l-20 -983h-82zM174 61q0 31 20.5 51.5t51.5 20.5t51 -20.5t20 -51.5t-20.5 -51t-50.5 -20q-31 0 -51.5 20t-20.5 51z" />
    <glyph glyph-name="quotedbl" unicode="&#x22;" horiz-adv-x="583" 
d="M123 1290h92v-379h-92v379zM369 1290h92v-379h-92v379z" />
    <glyph glyph-name="numbersign" unicode="#" horiz-adv-x="1228" 
d="M727 389h-338l-82 -389h-92l82 389h-246l21 92h245l72 328h-256l21 92h256l82 389h92l-82 -389h338l82 389h92l-82 -389h246l-21 -92h-246l-71 -328h256l-21 -92h-256l-82 -389h-92zM410 481h338l71 328h-338z" />
    <glyph glyph-name="dollar" unicode="$" horiz-adv-x="1003" 
d="M461 -10q-170 16 -266.5 116.5t-102.5 251.5h103q16 -123 97 -199.5t220 -76.5q147 0 227 74.5t80 191.5q0 92 -52 144.5t-131 85t-170 56t-170 62.5t-131 102.5t-52 174.5q0 61 24.5 116.5t69.5 99.5t109.5 73.5t144.5 37.5v185h92v-185q74 -8 135.5 -38.5t107.5 -78.5
t73.5 -110.5t31.5 -130.5h-102q-8 115 -86 190.5t-201 75.5q-70 0 -125 -19.5t-93 -52t-58.5 -75.5t-20.5 -88q0 -88 52 -136.5t131 -79t170 -54t170 -64.5t131.5 -107.5t52.5 -183.5q0 -147 -95.5 -244.5t-273.5 -113.5v-185h-92v185z" />
    <glyph glyph-name="percent" unicode="%" horiz-adv-x="1218" 
d="M952 1290h103l-789 -1290h-102zM1065 256q0 78 -47 126t-117 48t-117 -48t-47 -126t47 -126t117 -48t117 48t47 126zM645 256q0 53 19.5 100t54.5 82t82 54.5t100 19.5t100.5 -19.5t82 -54.5t54 -82t19.5 -100t-19.5 -100t-54 -82t-82 -54.5t-100.5 -19.5t-100 19.5
t-82 54.5t-54.5 82t-19.5 100zM154 1034q0 -78 47 -126t116 -48q70 0 117 48t47 126t-47 126t-117 48t-116.5 -48t-46.5 -126zM573 1034q0 -53 -19 -100t-54 -82t-82 -54.5t-101 -19.5q-53 0 -100 19.5t-82 54.5t-54.5 82t-19.5 100t19.5 100.5t54.5 82t82 54t100 19.5
t100.5 -19.5t82.5 -54t54 -82t19 -100.5z" />
    <glyph glyph-name="ampersand" unicode="&#x26;" horiz-adv-x="1085" 
d="M92 287q0 78 38 147.5t85 122.5q53 63 123 119l-72 72q-39 35 -67 75q-25 35 -45.5 83t-20.5 108q0 61 21.5 113.5t60.5 91t91 60t114 21.5q61 0 113.5 -21.5t91.5 -60t60.5 -91t21.5 -113.5q0 -53 -22.5 -100.5t-49.5 -82.5q-33 -41 -72 -73l-96 -82l311 -318
q18 29 45 70t51 78q29 43 58 88h112l-204 -297l297 -297h-133l-216 215q-43 -63 -100 -113q-49 -43 -119.5 -77.5t-158.5 -34.5q-70 0 -128.5 23.5t-100.5 63.5t-65.5 94.5t-23.5 115.5zM410 737l92 82q31 25 55 55q23 27 40 62t17 78q0 86 -54 140t-140 54t-140.5 -54
t-54.5 -140q0 -43 19.5 -82t42.5 -68q27 -35 61 -65zM184 287q0 -86 61.5 -145.5t164.5 -59.5q70 0 127 29.5t100 66.5q49 43 90 98l-328 338q-61 -45 -108 -98q-41 -45 -74 -104t-33 -125z" />
    <glyph glyph-name="quotesingle" unicode="'" horiz-adv-x="337" 
d="M215 911h-92v379h92v-379z" />
    <glyph glyph-name="parenleft" unicode="(" horiz-adv-x="491" 
d="M205 461q0 -162 38 -306.5t85 -254.5q53 -127 123 -238l-62 -51q-78 113 -139 248q-53 117 -95 270.5t-42 331.5t42 331.5t95 270.5q61 135 139 248l62 -51q-70 -111 -123 -238q-47 -111 -85 -255t-38 -306z" />
    <glyph glyph-name="parenright" unicode=")" horiz-adv-x="491" 
d="M287 461q0 162 -38 306t-85 255q-53 127 -123 238l61 51q76 -113 138 -248q53 -117 96 -270.5t43 -331.5t-43 -332t-96 -270q-61 -135 -138 -248l-61 51q70 111 123 238q47 111 85 255t38 306z" />
    <glyph glyph-name="asterisk" unicode="*" horiz-adv-x="634" 
d="M440 748l-123 204l-122 -204l-72 51l143 184l-215 61l31 72l205 -72l-11 246h82l-10 -246l205 72l31 -72l-215 -61l143 -184z" />
    <glyph glyph-name="plus" unicode="+" horiz-adv-x="890" 
d="M399 133v348h-338v92h338v349h93v-349h337v-92h-337v-348h-93z" />
    <glyph glyph-name="comma" unicode="," horiz-adv-x="286" 
d="M72 61q0 31 20.5 51.5t50.5 20.5q31 0 51.5 -21.5t20.5 -60.5q0 -53 -21.5 -97t-46.5 -75q-29 -37 -65 -63l-21 20q20 20 37 43q14 20 27.5 48t17.5 63q-31 0 -51 20t-20 51z" />
    <glyph glyph-name="hyphen" unicode="-" horiz-adv-x="696" 
d="M625 481h-553v82h553v-82z" />
    <glyph glyph-name="period" unicode="." horiz-adv-x="286" 
d="M72 61q0 31 20.5 51.5t50.5 20.5q31 0 51.5 -20.5t20.5 -51.5t-20.5 -51t-51.5 -20t-51 20t-20 51z" />
    <glyph glyph-name="slash" unicode="/" horiz-adv-x="624" 
d="M92 -369h-92l532 1659h93z" />
    <glyph glyph-name="zero" unicode="0" horiz-adv-x="1187" 
d="M205 645q0 -139 33.5 -243.5t88 -176t124 -107.5t143.5 -36t143.5 36t123.5 107.5t88 176t34 243.5q0 137 -34 242.5t-88 177.5t-123.5 107.5t-143.5 35.5t-143.5 -35.5t-124 -107.5t-88 -177.5t-33.5 -242.5zM1085 645q0 -158 -40.5 -279.5t-108.5 -205.5t-157 -127
t-185 -43t-185.5 43t-157 127t-108.5 205.5t-41 279.5t41 280t108.5 205.5t157 126.5t185.5 43t185 -43t157 -126.5t108.5 -205.5t40.5 -280z" />
    <glyph glyph-name="one" unicode="1" horiz-adv-x="624" 
d="M451 1290v-1290h-103v1157l-235 -164l-52 82l318 215h72z" />
    <glyph glyph-name="two" unicode="2" horiz-adv-x="952" 
d="M860 92v-92h-768v82l492 532q49 49 86 103q33 47 60.5 105.5t27.5 119.5q0 57 -20.5 106.5t-56.5 84t-87 55t-113 20.5q-61 0 -114.5 -21.5t-92 -58t-62.5 -87t-28 -107.5h-102q4 76 34.5 142.5t84 116.5t125 78.5t155.5 28.5t154 -27.5t120 -74.5t77.5 -113.5
t27.5 -142.5q0 -78 -30.5 -145.5t-67.5 -120.5q-43 -61 -96 -113l-441 -471h635z" />
    <glyph glyph-name="three" unicode="3" 
d="M102 973q4 66 34 125t79 104t117.5 71.5t148.5 26.5q88 0 160 -26.5t123 -73.5t78.5 -110.5t27.5 -137.5q0 -82 -33.5 -135t-74.5 -88q-47 -39 -107 -63q70 -25 123 -68q47 -37 85 -97.5t38 -152.5q0 -74 -29.5 -138.5t-83 -113.5t-129 -77.5t-167.5 -28.5
q-88 0 -161 26.5t-126 71.5t-87 104.5t-46 124.5h102q12 -47 39 -89t66.5 -74.5t93 -52t119.5 -19.5q70 0 126 21.5t96 58.5t62.5 85t22.5 101t-22.5 101.5t-62.5 85t-96.5 58t-125.5 21.5h-82v93h71q66 0 119 19t90 53t57.5 79t20.5 94q0 53 -20.5 100.5t-57.5 82t-90 54
t-119 19.5q-57 0 -106 -19.5t-86 -52t-58.5 -75.5t-25.5 -88h-103z" />
    <glyph glyph-name="four" unicode="4" horiz-adv-x="993" 
d="M932 307h-154v-307h-102v307h-604v82l583 901h123v-891h154v-92zM676 399v758l-492 -758h492z" />
    <glyph glyph-name="five" unicode="5" horiz-adv-x="1003" 
d="M512 850q84 0 158.5 -33t130 -90t88.5 -136t33 -171t-33 -171t-89.5 -136.5t-133 -90t-164.5 -32.5q-84 0 -155 26.5t-123 71.5t-86 104.5t-46 124.5h103q12 -47 37.5 -89t65.5 -74.5t91 -52t113 -19.5q66 0 123 25.5t100 70.5t68.5 106.5t25.5 135.5t-25.5 135
t-68.5 106.5t-100.5 71t-122.5 25.5q-70 0 -121 -31t-86 -68q-41 -43 -70 -96h-102l82 727h635v-92h-553l-51 -491q29 39 69 71q35 27 86 49.5t121 22.5z" />
    <glyph glyph-name="six" unicode="6" horiz-adv-x="1024" 
d="M512 -10q-88 0 -165 32.5t-133 90t-89 136.5t-33 171q0 66 16.5 125t38.5 104q25 53 58 99l368 542h113l-338 -481q20 12 45 20q23 8 51.5 14.5t67.5 6.5q88 0 165 -33t133 -90t89 -136t33 -171t-33 -171t-89 -136.5t-133 -90t-165 -32.5zM512 82q66 0 123 25.5t100 70.5
t68.5 106.5t25.5 135.5t-25.5 135t-68.5 106.5t-100 71t-123 25.5t-123 -25.5t-100 -71t-68.5 -106.5t-25.5 -135t25.5 -135.5t68.5 -106.5t100 -70.5t123 -25.5z" />
    <glyph glyph-name="seven" unicode="7" horiz-adv-x="901" 
d="M840 1290v-82l-553 -1208h-113l553 1198h-645v92h758z" />
    <glyph glyph-name="eight" unicode="8" 
d="M492 -10q-92 0 -168 28.5t-129.5 78.5t-83 117t-29.5 144q0 100 40 164t87 101q55 43 129 63q-57 25 -102 64q-39 35 -71 88t-32 135q0 66 27.5 125t75 104t113 71.5t143.5 26.5q76 0 142 -26.5t113.5 -71.5t75 -104.5t27.5 -124.5q0 -82 -32 -135.5t-70 -87.5
q-45 -39 -103 -64q72 -20 127 -63q47 -37 88 -100.5t41 -164.5q0 -78 -29.5 -144.5t-83 -116.5t-129 -78.5t-167.5 -28.5zM236 973q0 -47 19 -89t54 -75t82 -52.5t101 -19.5q53 0 100 19.5t82 52.5t54.5 75t19.5 89q0 45 -19.5 88t-54.5 75.5t-82 52t-100 19.5t-100.5 -19.5
t-82.5 -52t-54 -75.5t-19 -88zM184 358q0 -57 22.5 -107t62.5 -88t96.5 -59.5t126.5 -21.5t126 21.5t96 59.5t62.5 88t22.5 107t-22.5 107.5t-62.5 88.5t-96.5 59.5t-125.5 21.5q-70 0 -126.5 -21.5t-96.5 -59.5t-62.5 -88.5t-22.5 -107.5z" />
    <glyph glyph-name="nine" unicode="9" horiz-adv-x="1024" 
d="M512 1300q88 0 165 -32.5t133 -90t89 -136t33 -171.5q0 -66 -17.5 -125t-40.5 -104q-25 -53 -55 -98l-368 -543h-113l338 481q-20 -12 -45 -20q-23 -8 -52.5 -14.5t-66.5 -6.5q-88 0 -165 33t-133 90.5t-89 136t-33 170.5t33 171t89 136.5t133 90t165 32.5zM512 1208
q-66 0 -123 -25.5t-100 -70.5t-68.5 -106.5t-25.5 -135.5t25.5 -135t68.5 -106t100 -71t123 -26t123 26t100 71t68.5 106.5t25.5 134.5q0 74 -25.5 135.5t-68.5 106.5t-100 70.5t-123 25.5z" />
    <glyph glyph-name="colon" unicode=":" horiz-adv-x="286" 
d="M72 61q0 31 20.5 51.5t50.5 20.5q31 0 51.5 -20.5t20.5 -51.5t-20.5 -51t-51.5 -20t-51 20t-20 51zM72 840q0 31 20.5 51t50.5 20q31 0 51.5 -20.5t20.5 -50.5q0 -31 -20.5 -51.5t-51.5 -20.5t-51 20.5t-20 51.5z" />
    <glyph glyph-name="semicolon" unicode=";" horiz-adv-x="286" 
d="M72 840q0 31 20.5 51t50.5 20q31 0 51.5 -20.5t20.5 -50.5q0 -31 -20.5 -51.5t-51.5 -20.5t-51 20.5t-20 51.5zM72 61q0 31 20.5 51.5t50.5 20.5q31 0 51.5 -21.5t20.5 -60.5q0 -53 -21.5 -97t-46.5 -75q-29 -37 -65 -63l-21 20q20 20 37 43q14 20 27.5 48t17.5 63
q-31 0 -51 20t-20 51z" />
    <glyph glyph-name="less" unicode="&#x3c;" horiz-adv-x="890" 
d="M205 451l594 -318v-102l-707 389v61l707 389v-102z" />
    <glyph glyph-name="equal" unicode="=" horiz-adv-x="901" 
d="M829 758v-92h-757v92h757zM72 389h757v-92h-757v92z" />
    <glyph glyph-name="greater" unicode="&#x3e;" horiz-adv-x="890" 
d="M92 768v102l707 -389v-61l-707 -389v102l594 318z" />
    <glyph glyph-name="question" unicode="?" horiz-adv-x="870" 
d="M788 973q0 -82 -23.5 -137.5t-58 -97.5t-76.5 -77.5t-77 -77.5t-58.5 -97.5t-23.5 -137.5v-20h-102v20q0 92 23.5 154.5t58 107.5t76.5 81t77 75t58.5 87t23.5 120q0 100 -68.5 167.5t-177.5 67.5q-53 0 -100 -20.5t-82 -57t-54.5 -90t-19.5 -118.5v-31h-102v31
q0 84 27.5 153.5t74.5 119.5t112.5 77.5t143.5 27.5q76 0 140.5 -25.5t110.5 -69.5t71.5 -103t25.5 -129zM348 61q0 31 20.5 51.5t51.5 20.5t51.5 -20.5t20.5 -51.5t-20.5 -51t-51.5 -20t-51.5 20t-20.5 51z" />
    <glyph glyph-name="at" unicode="@" horiz-adv-x="1515" 
d="M522 461q0 -117 61.5 -181.5t153.5 -64.5t153.5 64.5t61.5 181.5t-61.5 181.5t-153.5 64.5t-153.5 -64.5t-61.5 -181.5zM973 266q-27 -41 -64 -71q-33 -29 -80 -50.5t-112 -21.5q-61 0 -115.5 23.5t-94.5 68.5t-63.5 106.5t-23.5 139.5q0 76 23.5 138.5t63.5 107.5
t94 68.5t116 23.5q66 0 109.5 -21.5t72.5 -46.5q33 -29 53 -65h11l20 122h61v-409q0 -78 40 -121t94 -43q31 0 61.5 15.5t56 49t41 86t15.5 126.5q0 106 -46 206.5t-126 177t-186.5 122.5t-225.5 46t-225.5 -46t-186.5 -125.5t-126 -186t-46 -225.5t46 -225.5t126 -186.5
t186.5 -126t225.5 -46q70 0 126 14.5t97 30.5q47 20 84 47l41 -82q-45 -29 -98 -51q-47 -20 -109.5 -35.5t-140.5 -15.5q-141 0 -265 52t-215 143.5t-143.5 215t-52.5 265.5q0 141 52.5 265t143.5 215t215 143.5t265 52.5q145 0 269 -53.5t214 -143.5t141.5 -209t51.5 -250
q0 -88 -21.5 -155.5t-56.5 -112.5t-82 -67.5t-96 -22.5q-59 0 -97 21.5t-63 50.5q-29 31 -45 71h-10z" />
    <glyph glyph-name="A" unicode="A" horiz-adv-x="1085" 
d="M1085 0h-112l-133 348h-594l-133 -348h-113l502 1290h82zM543 1126l-267 -686h533z" />
    <glyph glyph-name="B" unicode="B" horiz-adv-x="1146" 
d="M809 686q70 -27 123 -70q47 -37 85 -98t38 -149q0 -78 -30 -144.5t-83 -117t-129 -79t-168 -28.5h-471v1290h451q84 0 152.5 -25.5t116.5 -69.5t73.5 -103.5t25.5 -128.5q0 -78 -28.5 -130.5t-63.5 -84.5q-41 -37 -92 -62zM276 635v-543h369q66 0 122 22.5t97 61.5
t64.5 89t23.5 104q0 49 -23.5 97t-64.5 86t-97 60.5t-122 22.5h-369zM276 727h349q123 0 194.5 67.5t71.5 168.5q0 100 -71.5 167.5t-194.5 67.5h-349v-471z" />
    <glyph glyph-name="C" unicode="C" horiz-adv-x="1290" 
d="M676 1208q-96 0 -183 -41t-154 -114.5t-105.5 -177t-38.5 -230.5t38.5 -230.5t105.5 -177t154 -114.5t183 -41q162 0 269.5 97t160.5 251h102q-31 -96 -80 -177t-116.5 -139.5t-151.5 -91t-184 -32.5q-115 0 -220.5 48t-186.5 134t-129 207t-48 266t48 266t129 207
t186.5 134t220.5 48q100 0 184 -32.5t149.5 -91t113.5 -139.5t75 -177h-102q-47 154 -152.5 251t-267.5 97z" />
    <glyph glyph-name="D" unicode="D" horiz-adv-x="1198" 
d="M481 92q111 0 207 40t166 113.5t110 175t40 224.5t-40 224.5t-110 175t-166 113.5t-207 40h-205v-1106h205zM1106 645q0 -141 -49 -260t-133 -205t-198 -133t-245 -47h-307v1290h307q131 0 245 -47t198 -133t133 -205t49 -260z" />
    <glyph glyph-name="E" unicode="E" horiz-adv-x="1075" 
d="M973 92v-92h-799v1290h778v-92h-676v-481h625v-92h-625v-533h697z" />
    <glyph glyph-name="F" unicode="F" horiz-adv-x="1003" 
d="M174 0v1290h758v-92h-656v-502h543v-92h-543v-604h-102z" />
    <glyph glyph-name="G" unicode="G" horiz-adv-x="1361" 
d="M696 625h523v-625h-82l-11 266q-41 -78 -106 -139q-55 -53 -140 -95t-204 -42q-115 0 -220.5 48t-186.5 134t-129 207t-48 266t48 266t129 207t186.5 134t220.5 48q100 0 184 -31.5t148.5 -87t110.5 -128t69 -152.5h-103q-18 61 -55 116.5t-88 98.5t-118.5 67.5
t-147.5 24.5q-96 0 -183 -41t-154 -114.5t-105.5 -177t-38.5 -230.5t38.5 -230.5t105.5 -177t154 -114.5t183 -41q88 0 168 36t140 97t96 143t36 174h-420v93z" />
    <glyph glyph-name="H" unicode="H" horiz-adv-x="1249" 
d="M276 1290v-583h697v583h102v-1290h-102v614h-697v-614h-102v1290h102z" />
    <glyph glyph-name="I" unicode="I" horiz-adv-x="450" 
d="M276 0h-102v1290h102v-1290z" />
    <glyph glyph-name="J" unicode="J" horiz-adv-x="962" 
d="M819 1290v-901q0 -186 -105.5 -292.5t-283.5 -106.5q-88 0 -159.5 26.5t-123 73.5t-79 110.5t-27.5 137.5h102q4 -53 27 -100.5t59.5 -82t88 -54t112.5 -19.5t113.5 22.5t91.5 62.5t60.5 96t21.5 126v901h102z" />
    <glyph glyph-name="K" unicode="K" horiz-adv-x="1003" 
d="M276 655v-655h-102v1290h102v-635l553 635h134l-564 -635l605 -655h-134z" />
    <glyph glyph-name="L" unicode="L" horiz-adv-x="952" 
d="M922 92v-92h-748v1290h102v-1198h646z" />
    <glyph glyph-name="M" unicode="M" horiz-adv-x="1536" 
d="M1270 1290h92v-1290h-102v1024l-461 -1024h-62l-461 1024v-1024h-102v1290h92l502 -1116z" />
    <glyph glyph-name="N" unicode="N" horiz-adv-x="1249" 
d="M1075 1290v-1290h-92l-707 1096v-1096h-102v1290h92l707 -1095v1095h102z" />
    <glyph glyph-name="O" unicode="O" horiz-adv-x="1351" 
d="M1260 645q0 -145 -48.5 -266t-129.5 -207t-186 -134t-220 -48t-220.5 48t-186.5 134t-129 207t-48 266t48 266t129 207t186.5 134t220.5 48t220 -48t186 -134t129.5 -207t48.5 -266zM195 645q0 -127 38.5 -230.5t105.5 -177t154 -114.5t183 -41t183 41t153.5 114.5
t105.5 177t39 230.5t-39 230.5t-105.5 177t-153.5 114.5t-183 41t-183 -41t-154 -114.5t-105.5 -177t-38.5 -230.5z" />
    <glyph glyph-name="P" unicode="P" horiz-adv-x="1064" 
d="M584 1290q84 0 156.5 -30.5t127 -83t85 -124t30.5 -151.5t-30.5 -151.5t-85 -124t-127 -83t-156.5 -30.5h-308v-512h-102v1290h410zM584 604q61 0 115.5 23.5t94.5 63.5t63.5 94.5t23.5 115.5t-23.5 115.5t-63.5 94.5t-94.5 63.5t-115.5 23.5h-308v-594h308z" />
    <glyph glyph-name="Q" unicode="Q" horiz-adv-x="1351" 
d="M1014 113q-39 -35 -92 -62q-45 -23 -106.5 -42t-139.5 -19q-115 0 -220.5 48t-186.5 134t-129 207t-48 266t48 266t129 207t186.5 134t220.5 48t220 -48t186 -134t129.5 -206.5t48.5 -266.5q0 -117 -29 -204t-64 -146q-41 -70 -92 -121l164 -164l-61 -61zM676 82
q61 0 110.5 14.5t84 31.5t53.5 32l18 14l-174 174l61 62l175 -174q41 47 75 108q29 53 53.5 128t24.5 173q0 127 -39 230.5t-105.5 177t-153.5 114.5t-183 41t-183 -41t-154 -114.5t-105.5 -177t-38.5 -230.5t38.5 -230.5t105.5 -177t154 -114.5t183 -41z" />
    <glyph glyph-name="R" unicode="R" horiz-adv-x="1116" 
d="M1034 0h-123l-307 553h-328v-553h-102v1290h451q84 0 155.5 -28.5t123.5 -78.5t81 -118t29 -143q0 -115 -48 -185.5t-106 -109.5q-68 -45 -153 -64zM276 645h349q61 0 113.5 21.5t91 59.5t60 88t21.5 108q0 57 -21.5 107t-60 88t-91 59.5t-113.5 21.5h-349v-553z" />
    <glyph glyph-name="S" unicode="S" horiz-adv-x="1003" 
d="M113 973q0 66 27.5 125t79.5 104t126 71.5t166 26.5q80 0 149.5 -28.5t122 -77.5t83 -113.5t34.5 -138.5h-102q-8 115 -86 190.5t-201 75.5q-70 0 -125 -19.5t-93 -52t-58.5 -75.5t-20.5 -88q0 -88 52 -136.5t131 -79t170 -54t170 -64.5t131.5 -107.5t52.5 -183.5
q0 -78 -28 -143.5t-81 -112.5t-129 -74.5t-172 -27.5t-172 27.5t-130 76.5t-84 117t-34 147h103q16 -123 97 -199.5t220 -76.5q147 0 227 74.5t80 191.5q0 92 -52 144.5t-131 85t-170 56t-170 62.5t-131 102.5t-52 174.5z" />
    <glyph glyph-name="T" unicode="T" 
d="M41 1290h901v-92h-399v-1198h-103v1198h-399v92z" />
    <glyph glyph-name="U" unicode="U" horiz-adv-x="1228" 
d="M614 -10q-104 0 -189 33.5t-145.5 97t-93 155t-32.5 205.5v809h102v-809q0 -193 98.5 -296t259.5 -103q162 0 260.5 103.5t98.5 295.5v809h102v-809q0 -115 -32.5 -206t-93 -154.5t-146 -97t-189.5 -33.5z" />
    <glyph glyph-name="V" unicode="V" horiz-adv-x="1146" 
d="M625 0h-103l-481 1290h113l419 -1157l420 1157h113z" />
    <glyph glyph-name="W" unicode="W" horiz-adv-x="1617" 
d="M850 1290l297 -1095l317 1095h103l-379 -1290h-82l-297 1096l-297 -1096h-82l-379 1290h103l317 -1095l297 1095h82z" />
    <glyph glyph-name="X" unicode="X" horiz-adv-x="1064" 
d="M881 1290h123l-410 -635l430 -655h-123l-369 573l-368 -573h-123l430 655l-410 635h123l348 -553z" />
    <glyph glyph-name="Y" unicode="Y" horiz-adv-x="1024" 
d="M461 512l-430 778h112l369 -676l369 676h112l-430 -778v-512h-102v512z" />
    <glyph glyph-name="Z" unicode="Z" horiz-adv-x="1003" 
d="M113 1290h798v-71l-696 -1127h707v-92h-840v72l696 1126h-665v92z" />
    <glyph glyph-name="bracketleft" unicode="[" horiz-adv-x="563" 
d="M266 -276h246v-93h-338v1659h338v-92h-246v-1474z" />
    <glyph glyph-name="backslash" unicode="\" horiz-adv-x="624" 
d="M0 1290h92l533 -1659h-93z" />
    <glyph glyph-name="bracketright" unicode="]" horiz-adv-x="563" 
d="M297 1198h-246v92h338v-1659h-338v93h246v1474z" />
    <glyph glyph-name="asciicircum" unicode="^" horiz-adv-x="778" 
d="M594 717l-205 440l-205 -440h-102l276 573h62l276 -573h-102z" />
    <glyph glyph-name="underscore" unicode="_" horiz-adv-x="552" 
d="M594 -317h-635v84h635v-84z" />
    <glyph glyph-name="grave" unicode="`" horiz-adv-x="368" 
d="M307 1044h-71l-175 246h123z" />
    <glyph glyph-name="a" unicode="a" horiz-adv-x="931" 
d="M420 82q131 0 209 78t78 209v82h-113q-119 0 -198 -16.5t-126 -44.5t-66.5 -64.5t-19.5 -79.5q0 -61 59.5 -112.5t176.5 -51.5zM471 911q74 0 134.5 -23.5t103.5 -65.5t66.5 -100t23.5 -128v-594h-62l-30 133h-11q-29 -41 -67 -72q-35 -29 -88.5 -50t-130.5 -21
q-154 0 -236 73.5t-82 182.5q0 61 26.5 115.5t86 94.5t155 63.5t234.5 23.5h113v51q0 100 -63.5 162.5t-172.5 62.5t-166 -47t-80 -117h-92q8 49 35 96.5t70 82t101 56t132 21.5z" />
    <glyph glyph-name="b" unicode="b" horiz-adv-x="1054" 
d="M973 451q0 -100 -33 -184.5t-89 -146t-133 -96t-165 -34.5q-78 0 -135.5 25.5t-95.5 56.5q-45 37 -76 82h-10l-31 -154h-62v1290h93v-542h10q31 45 76 81q39 31 96 56.5t135 25.5q88 0 165 -34.5t133 -96t89 -145.5t33 -184zM553 819q-66 0 -125 -27.5t-104 -76.5
t-72 -117t-27 -147q0 -80 27 -147.5t72 -117t104 -77t125 -27.5t125 27.5t104 77t72 117t27 147.5t-27 147.5t-72 116.5t-104 76.5t-125 27.5z" />
    <glyph glyph-name="c" unicode="c" horiz-adv-x="962" 
d="M502 819q-66 0 -125.5 -27.5t-104.5 -76.5t-71.5 -117t-26.5 -147q0 -80 26.5 -147.5t71.5 -117t104.5 -77t125.5 -27.5q109 0 182.5 66.5t103.5 158.5h103q-39 -139 -137.5 -228t-251.5 -89q-88 0 -165 34.5t-133.5 96t-89 145.5t-32.5 185q0 100 32.5 184t89 145.5
t133.5 96t165 34.5q154 0 252 -89t137 -228h-103q-31 92 -104 158.5t-182 66.5z" />
    <glyph glyph-name="d" unicode="d" horiz-adv-x="1054" 
d="M82 451q0 100 32.5 184t89 145.5t133.5 96t165 34.5q78 0 134 -25.5t95 -56.5q45 -37 78 -81h10v542h92v-1290h-61l-31 154h-10q-33 -45 -78 -82q-39 -31 -95 -56.5t-134 -25.5q-88 0 -165 34.5t-133.5 96t-89 146t-32.5 184.5zM502 819q-66 0 -125.5 -27.5t-104.5 -76.5
t-71.5 -117t-26.5 -147q0 -80 26.5 -147.5t71.5 -117t104.5 -77t125.5 -27.5t125 27.5t104 77t71.5 117t26.5 147.5t-26.5 147.5t-71.5 116.5t-104 76.5t-125 27.5z" />
    <glyph glyph-name="e" unicode="e" horiz-adv-x="993" 
d="M881 225q-18 -43 -51 -85t-79 -75.5t-105.5 -54t-133.5 -20.5q-92 0 -171 34.5t-136.5 96t-90 145.5t-32.5 185q0 100 32.5 184t89 145.5t133.5 96t165 34.5q84 0 158.5 -32.5t130 -90t88 -136.5t32.5 -171q0 -16 -2 -28.5t-4 -22.5l-4 -20h-727q8 -74 36 -134.5
t72 -103.5t102 -66.5t128 -23.5q49 0 90 13.5t73 35t54.5 47t38.5 47.5h113zM502 819q-61 0 -115.5 -23.5t-97.5 -65.5t-73 -100.5t-42 -127.5h645q-8 70 -35.5 128t-69.5 100t-96.5 65.5t-115.5 23.5z" />
    <glyph glyph-name="f" unicode="f" horiz-adv-x="573" 
d="M205 1024q0 123 67.5 194.5t167.5 71.5q18 0 33.5 -3t26.5 -7q12 -6 22 -10v-82l-16 4t-19.5 4t-25.5 2q-70 0 -117 -41t-47 -133v-123h225v-92h-225v-809h-92v809h-144v92h144v123z" />
    <glyph glyph-name="g" unicode="g" horiz-adv-x="1034" 
d="M225 -72q31 -78 97.5 -131t189.5 -53q61 0 113.5 21.5t91.5 60.5t60.5 91t21.5 114v164h-11q-33 -45 -75 -82q-37 -31 -93.5 -56.5t-127.5 -25.5q-84 0 -159 33.5t-130.5 94t-88 140.5t-32.5 172t32.5 172t88 140.5t130.5 94t159 33.5q72 0 128 -25.5t93 -56.5
q43 -37 75 -81h11l30 153h62v-870q0 -80 -28.5 -149.5t-80 -121t-121 -80t-149.5 -28.5q-84 0 -149.5 21.5t-113.5 59.5t-80 88t-46 107h102zM174 471q0 -74 26.5 -137.5t70.5 -110.5t101.5 -73.5t119.5 -26.5q61 0 118.5 26.5t101.5 73.5t70.5 110.5t26.5 137.5
t-26.5 137.5t-70.5 110.5t-101.5 73.5t-118.5 26.5t-119 -26.5t-102 -73.5t-70.5 -110.5t-26.5 -137.5z" />
    <glyph glyph-name="h" unicode="h" horiz-adv-x="1024" 
d="M532 911q76 0 142.5 -27.5t114 -77.5t75 -120t27.5 -154v-532h-92v532q0 61 -21.5 113.5t-59.5 91.5t-88 60.5t-108 21.5q-61 0 -113.5 -21.5t-91 -60.5t-60 -91t-21.5 -114v-532h-93v1290h93v-522h10q25 39 65 72q35 27 89 49t132 22z" />
    <glyph glyph-name="i" unicode="i" horiz-adv-x="409" 
d="M246 0h-92v901h92v-901zM133 1188q0 31 20.5 51.5t51.5 20.5t51 -20.5t20 -51.5t-20 -51.5t-51 -20.5t-51.5 20.5t-20.5 51.5z" />
    <glyph glyph-name="j" unicode="j" horiz-adv-x="409" 
d="M154 901h92v-973q0 -123 -67.5 -194.5t-168.5 -71.5q-35 0 -59 10q-12 4 -23 11v81q8 -4 17 -6q20 -4 45 -4q78 0 121 44t43 130v973zM133 1188q0 31 20.5 51.5t51.5 20.5t51 -20.5t20 -51.5t-20 -51.5t-51 -20.5t-51.5 20.5t-20.5 51.5z" />
    <glyph glyph-name="k" unicode="k" horiz-adv-x="808" 
d="M809 0h-123l-450 471v-471h-93v1290h93v-819l409 430h123l-410 -430z" />
    <glyph glyph-name="l" unicode="l" horiz-adv-x="378" 
d="M236 0h-93v1290h93v-1290z" />
    <glyph glyph-name="m" unicode="m" horiz-adv-x="1474" 
d="M1034 911q66 0 122 -24.5t97 -70.5t64.5 -112.5t23.5 -150.5v-553h-92v553q0 123 -66.5 194.5t-158.5 71.5q-100 0 -168 -71.5t-68 -194.5v-553h-92v553q0 123 -66.5 194.5t-158.5 71.5q-100 0 -167.5 -71.5t-67.5 -194.5v-553h-93v901h62l31 -133h10q20 39 55 72
q29 27 74 49t106 22q78 0 130.5 -28.5t84.5 -63.5q37 -41 62 -92q25 51 61 92q33 35 85 63.5t130 28.5z" />
    <glyph glyph-name="n" unicode="n" horiz-adv-x="1024" 
d="M532 911q76 0 142.5 -27.5t114 -77.5t75 -120t27.5 -154v-532h-92v532q0 61 -21.5 113.5t-59.5 91.5t-88 60.5t-108 21.5q-61 0 -113.5 -21.5t-91 -60.5t-60 -91t-21.5 -114v-532h-93v901h62l31 -133h10q25 39 65 72q35 27 89 49t132 22z" />
    <glyph glyph-name="o" unicode="o" horiz-adv-x="1003" 
d="M922 451q0 -100 -33 -184.5t-89.5 -146t-133 -96t-164.5 -34.5t-165 34.5t-133.5 96t-89 145.5t-32.5 185q0 100 32.5 184t89 145.5t133.5 96t165 34.5t164.5 -34.5t133 -96t89.5 -145.5t33 -184zM174 451q0 -80 26.5 -147.5t71.5 -117t104.5 -77t125.5 -27.5t125 27.5
t104 77t71.5 117t26.5 147.5t-26.5 147.5t-71.5 116.5t-104.5 76.5t-124.5 27.5q-66 0 -125.5 -27.5t-104.5 -76.5t-71.5 -116.5t-26.5 -147.5z" />
    <glyph glyph-name="p" unicode="p" horiz-adv-x="1054" 
d="M973 451q0 -100 -33 -184.5t-89 -146t-133 -96t-165 -34.5q-78 0 -135.5 25.5t-95.5 56.5q-45 37 -76 82h-10v-482h-93v1229h62l31 -153h10q31 45 76 81q39 31 96 56.5t135 25.5q88 0 165 -34.5t133 -96t89 -145.5t33 -184zM553 82q66 0 125 27.5t104 77t72 117t27 147.5
t-27 147.5t-72 116.5t-104.5 76.5t-124.5 27.5q-66 0 -125 -27.5t-104 -76.5t-72 -117t-27 -147q0 -80 27 -147.5t72 -117t104 -77t125 -27.5z" />
    <glyph glyph-name="q" unicode="q" horiz-adv-x="1054" 
d="M82 451q0 100 32.5 184t89 145.5t133.5 96t165 34.5q78 0 134 -25.5t95 -56.5q45 -37 78 -81h10l31 153h61v-1229h-92v482h-10q-33 -45 -78 -82q-39 -31 -95 -56.5t-134 -25.5q-88 0 -165 34.5t-133.5 96t-89 146t-32.5 184.5zM502 82q66 0 125 27.5t104 77t71.5 117
t26.5 147.5t-26.5 147.5t-71.5 116.5t-104.5 76.5t-124.5 27.5q-66 0 -125.5 -27.5t-104.5 -76.5t-71.5 -117t-26.5 -147q0 -80 26.5 -147.5t71.5 -117t104.5 -77t125.5 -27.5z" />
    <glyph glyph-name="r" unicode="r" horiz-adv-x="616" 
d="M573 911v-92h-51q-131 0 -208.5 -78.5t-77.5 -218.5v-522h-93v901h62l31 -133h10q25 39 65 72q35 27 89.5 49t131.5 22h41z" />
    <glyph glyph-name="s" unicode="s" horiz-adv-x="808" 
d="M727 256q0 -53 -22.5 -101.5t-62.5 -85t-96.5 -58t-125.5 -21.5q-74 0 -132.5 21.5t-100.5 59.5t-66.5 88t-28.5 107h92q16 -86 71.5 -135t164.5 -49q100 0 157.5 52t57.5 122q0 61 -39 94t-96.5 50.5t-126 30.5t-126 38t-96 70t-38.5 127q0 49 20.5 94t58 78.5t93 53
t125.5 19.5q66 0 120 -21.5t95 -56t64.5 -81.5t27.5 -97h-92q-16 70 -69.5 117t-145.5 47q-100 0 -152.5 -46t-52.5 -107q0 -59 39 -89t96 -46.5t126 -30t126 -39t96 -72.5t39 -133z" />
    <glyph glyph-name="t" unicode="t" horiz-adv-x="655" 
d="M236 809h-175v92h82q102 0 103 103v163h82v-266h225v-92h-225v-553q0 -92 47 -133t117 -41q25 0 45 4q8 2 16 6v-82q-10 -6 -23 -10q-25 -10 -59 -10q-100 0 -167.5 71.5t-67.5 194.5v553z" />
    <glyph glyph-name="u" unicode="u" horiz-adv-x="1034" 
d="M502 -10q-78 0 -143.5 27.5t-112.5 77.5t-75 120t-28 154v532h93v-532q0 -61 21.5 -113.5t59 -91.5t88 -60.5t107.5 -21.5q61 0 113.5 21.5t91.5 60.5t60.5 91t21.5 114v532h92v-901h-62l-30 133h-11q-29 -41 -67 -72q-35 -29 -88 -50t-131 -21z" />
    <glyph glyph-name="v" unicode="v" horiz-adv-x="880" 
d="M133 901l307 -768l308 768h102l-369 -901h-82l-368 901h102z" />
    <glyph glyph-name="w" unicode="w" horiz-adv-x="1228" 
d="M614 717l-235 -717h-62l-297 901h93l235 -717l236 717h61l236 -717l235 717h92l-297 -901h-61z" />
    <glyph glyph-name="x" unicode="x" horiz-adv-x="819" 
d="M51 901h113l246 -369l245 369h113l-297 -440l317 -461h-112l-266 389l-267 -389h-112l317 461z" />
    <glyph glyph-name="y" unicode="y" horiz-adv-x="880" 
d="M31 901h102l307 -768l308 768h102l-410 -1003q-47 -123 -103 -179.5t-142 -56.5q-12 0 -22.5 1t-20.5 3t-19 6v82h41q61 0 96 33t68 111l51 122z" />
    <glyph glyph-name="z" unicode="z" horiz-adv-x="757" 
d="M563 809h-502v92h625v-72l-502 -737h512v-92h-635v72z" />
    <glyph glyph-name="braceleft" unicode="{" horiz-adv-x="624" 
d="M113 502q143 0 143 143v399q0 117 64.5 181.5t181.5 64.5h71v-92h-71q-70 0 -112 -42t-42 -112v-399q0 -59 -21.5 -94t-45.5 -55q-29 -23 -66 -35q37 -12 66 -35q25 -20 46 -56t21 -94v-399q0 -70 42 -111.5t112 -41.5h71v-93h-71q-117 0 -181.5 64.5t-64.5 181.5v399
q0 143 -143 144v82v0z" />
    <glyph glyph-name="bar" unicode="|" horiz-adv-x="583" 
d="M246 1290h92v-1618h-92v1618z" />
    <glyph glyph-name="braceright" unicode="}" horiz-adv-x="624" 
d="M512 420q-143 0 -143 -144v-399q0 -117 -64.5 -181.5t-181.5 -64.5h-72v93h72q70 0 111.5 41.5t41.5 111.5v399q0 57 20.5 93.5t45.5 56.5q29 23 68 35q-39 12 -68 35q-25 20 -45.5 55t-20.5 94v399q0 70 -41.5 112t-111.5 42h-72v92h72q117 0 181.5 -64.5t64.5 -181.5
v-399q0 -143 143 -143v-82z" />
    <glyph glyph-name="asciitilde" unicode="~" horiz-adv-x="901" 
d="M236 686q61 0 118.5 -28.5t110.5 -63.5t100 -63.5t90 -28.5q61 0 102.5 43t41.5 121h82q0 -123 -61.5 -189.5t-153.5 -66.5q-61 0 -119 28.5t-111 63.5t-100 63.5t-90 28.5q-61 0 -102.5 -43t-41.5 -121h-82q0 123 62 189.5t154 66.5z" />
    <glyph glyph-name="uni00A0" unicode="&#xa0;" horiz-adv-x="430" 
 />
    <glyph glyph-name="exclamdown" unicode="&#xa1;" horiz-adv-x="491" 
d="M287 594l20 -922h-123l11 922h92zM174 840q0 31 20.5 51t51.5 20t51 -20.5t20 -50.5q0 -31 -20.5 -51.5t-50.5 -20.5q-31 0 -51.5 20.5t-20.5 51.5z" />
    <glyph glyph-name="cent" unicode="&#xa2;" horiz-adv-x="962" 
d="M451 -10q-78 12 -144.5 49t-117 96.5t-79 139t-28.5 176.5q0 96 28.5 176t79 139t117 96t144.5 49v205h92v-205q129 -16 219 -97t129 -220h-103q-31 92 -104.5 158.5t-181.5 66.5q-66 0 -125.5 -27.5t-104.5 -76.5t-71.5 -117t-26.5 -147q0 -80 26.5 -147.5t71.5 -117
t104.5 -77t125.5 -27.5q109 0 182.5 66.5t103.5 158.5h103q-39 -139 -128 -220t-220 -97v-185h-92v185z" />
    <glyph glyph-name="sterling" unicode="&#xa3;" horiz-adv-x="1075" 
d="M358 266q0 -47 -15 -78.5t-32 -54.5q-20 -25 -45 -41h717v-92h-860v92q61 16 97 56t36 118v277h-123v92h123v297q0 76 28.5 143.5t78 117.5t117 78.5t145.5 28.5t143.5 -26.5t114.5 -73.5t77.5 -110.5t32.5 -137.5h-102q-4 53 -25.5 100.5t-57.5 82t-83 54t-100 19.5
t-101.5 -21.5t-85.5 -59t-58.5 -88t-21.5 -107.5v-297h369v-92h-369v-277z" />
    <glyph glyph-name="currency" unicode="&#xa4;" horiz-adv-x="1105" 
d="M625 1290q84 0 156 -30q73 -31 127 -82t85 -121t31 -146q0 -78 -31 -146q-31 -69 -85 -120t-127 -82t-156 -31h-297v-194h430v-92h-430v-246h-103v246h-174v92h174v194h-174v93h174v665h400zM625 625q61 0 115 23q54 24 95 63q40 39 63 91q24 52 24 109t-24 110
q-24 52 -63 91q-40 39 -95 63q-54 24 -115 23h-297v-573h297z" />
    <glyph glyph-name="yen" unicode="&#xa5;" horiz-adv-x="1024" 
d="M164 594h256l-389 696h112l369 -676l369 676h112l-389 -696h256v-92h-297v-164h297v-92h-297v-246h-102v246h-297v92h297v164h-297v92z" />
    <glyph glyph-name="brokenbar" unicode="&#xa6;" horiz-adv-x="583" 
d="M246 307h92v-635h-92v635zM246 1290h92v-635h-92v635z" />
    <glyph glyph-name="section" unicode="&#xa7;" horiz-adv-x="962" 
d="M870 532q0 -78 -41 -133t-88 -92q-57 -43 -129 -71q51 -16 93 -48q35 -27 64.5 -69.5t29.5 -108.5q0 -109 -85 -182.5t-233 -73.5q-147 0 -228 82t-89 205h92q16 -92 74.5 -143.5t150.5 -51.5q115 0 170.5 51.5t55.5 112.5t-45.5 98t-114 64t-148.5 51.5t-148.5 61.5
t-113.5 92t-45 145q0 78 41 133.5t92 92.5q57 43 133 71q-53 16 -92 47q-35 27 -63.5 70t-28.5 108q0 53 22.5 100.5t62.5 82.5t96.5 54t125.5 19q66 0 119 -21.5t91 -59t60.5 -88t26.5 -107.5h-92q-16 86 -71.5 135t-133.5 49q-109 0 -162 -51t-53 -113q0 -61 45 -98
t111.5 -63.5t145.5 -51t145.5 -61.5t111.5 -92.5t45 -145.5zM451 778q-76 -27 -134 -63q-51 -33 -92 -80t-41 -113q0 -78 77 -139t261 -107q72 27 127 64q47 33 88 80t41 112q0 78 -74.5 138.5t-252.5 107.5z" />
    <glyph glyph-name="dieresis" unicode="&#xa8;" horiz-adv-x="573" 
d="M512 1188q0 -31 -20.5 -51.5t-51.5 -20.5t-51 20.5t-20 51.5t20.5 51.5t50.5 20.5q31 0 51.5 -20.5t20.5 -51.5zM205 1188q0 -31 -20.5 -51.5t-51.5 -20.5t-51.5 20.5t-20.5 51.5t20.5 51.5t51.5 20.5t51.5 -20.5t20.5 -51.5z" />
    <glyph glyph-name="copyright" unicode="&#xa9;" horiz-adv-x="1454" 
d="M512 645q0 -53 17.5 -98t47 -78t68.5 -51.5t82 -18.5q78 0 125 36t70 97h92q-23 -92 -97.5 -158.5t-189.5 -66.5q-61 0 -116.5 25.5t-98.5 71t-67.5 106.5t-24.5 135t24.5 135.5t67.5 106.5t98.5 70.5t116.5 25.5q115 0 189.5 -66.5t97.5 -158.5h-92q-23 61 -70 97
t-125 36q-43 0 -82 -18.5t-68.5 -51.5t-47 -78t-17.5 -98zM184 645q0 -123 42 -226.5t115 -178t172 -116.5t214 -42t214 42t172 116.5t115 178t42 226.5t-42 226.5t-115 178t-172 116.5t-214 42t-214 -42t-172 -116.5t-115 -178t-42 -226.5zM1362 645q0 -139 -50 -258
t-136 -208t-202 -139t-247 -50t-246.5 50t-201.5 139t-136.5 208t-50.5 258q0 137 50.5 257t136.5 209t201.5 139t246.5 50t247 -50t202 -139t136 -209t50 -257z" />
    <glyph glyph-name="ordfeminine" unicode="&#xaa;" horiz-adv-x="573" 
d="M266 840q61 0 107.5 47t46.5 117v10q-84 0 -136.5 -7.5t-81 -19.5t-38.5 -29.5t-10 -35.5q0 -31 25.5 -56.5t86.5 -25.5zM297 1300q92 0 148.5 -54t56.5 -140v-328h-62l-20 72q-16 -23 -39 -41q-20 -16 -52 -28.5t-73 -12.5q-84 0 -134 45t-50 98q0 39 14 70t52 52.5
t105.5 34.5t176.5 17v21q0 53 -35 88t-88 35t-84 -26.5t-39 -65.5h-82q6 70 59.5 116.5t145.5 46.5z" />
    <glyph glyph-name="guillemotleft" unicode="&#xab;" horiz-adv-x="798" 
d="M174 461l225 -318h-102l-225 318l225 317h102zM502 461l225 -318h-102l-226 318l226 317h102z" />
    <glyph glyph-name="logicalnot" unicode="&#xac;" horiz-adv-x="890" 
d="M850 389h-92v277h-717v92h809v-369z" />
    <glyph glyph-name="uni00AD" unicode="&#xad;" horiz-adv-x="696" 
d="M625 481h-553v82h553v-82z" />
    <glyph glyph-name="registered" unicode="&#xae;" horiz-adv-x="1454" 
d="M973 778q0 -59 -25.5 -94t-56.5 -55q-37 -23 -82 -35l184 -277h-102l-174 267h-113v-267h-82v656h236q100 0 157.5 -58.5t57.5 -136.5zM604 891v-225h154q53 0 88 32.5t35 79.5t-35 80t-88 33h-154zM184 645q0 -123 42 -226.5t115 -178t172 -116.5t214 -42t214 42
t172 116.5t115 178t42 226.5t-42 226.5t-115 178t-172 116.5t-214 42t-214 -42t-172 -116.5t-115 -178t-42 -226.5zM1362 645q0 -139 -50 -258t-136 -208t-202 -139t-247 -50t-246.5 50t-201.5 139t-136.5 208t-50.5 258q0 137 50.5 257t136.5 209t201.5 139t246.5 50
t247 -50t202 -139t136 -209t50 -257z" />
    <glyph glyph-name="macron" unicode="&#xaf;" horiz-adv-x="604" 
d="M543 1116h-482v92h482v-92z" />
    <glyph glyph-name="degree" unicode="&#xb0;" horiz-adv-x="634" 
d="M154 1055q0 -70 47 -117t116 -47q70 0 117 47t47 117t-47 117t-117 47t-116.5 -47t-46.5 -117zM563 1055q0 -49 -19.5 -94.5t-53 -79t-78.5 -53t-95 -19.5q-49 0 -94 19.5t-78.5 53t-53 79t-19.5 94.5t19.5 94t53 79t78.5 53t94 19t94.5 -19t79 -53t53 -79t19.5 -94z" />
    <glyph glyph-name="plusminus" unicode="&#xb1;" horiz-adv-x="890" 
d="M829 82h-768v92h338v389h-338v92h338v349h93v-349h337v-92h-337v-389h337v-92z" />
    <glyph glyph-name="uni00B2" unicode="&#xb2;" horiz-adv-x="522" 
d="M174 952h277v-71h-390v61l236 246q18 20 35 43q14 18 25.5 38.5t11.5 41.5q0 47 -28 74.5t-75 27.5q-96 0 -112 -113h-82q8 86 58 135.5t136 49.5t135.5 -48t49.5 -126q0 -31 -12.5 -58.5t-28.5 -50.5q-18 -25 -41 -45z" />
    <glyph glyph-name="uni00B3" unicode="&#xb3;" horiz-adv-x="542" 
d="M358 1198q31 -10 56 -31q23 -16 40 -45.5t17 -77.5q0 -70 -56.5 -122t-148.5 -52t-148.5 53.5t-56.5 131.5h82q0 -47 35 -80t88 -33t88 33t35 80q0 39 -35 70.5t-88 31.5h-51v72h51q47 0 75 26.5t28 65.5t-28 65.5t-75 26.5t-74.5 -29.5t-27.5 -83.5h-82q0 86 49 135.5
t135 49.5t135.5 -47t49.5 -117q0 -35 -15.5 -58.5t-32.5 -37.5q-20 -17 -45 -27z" />
    <glyph glyph-name="acute" unicode="&#xb4;" horiz-adv-x="368" 
d="M184 1290h123l-174 -246h-72z" />
    <glyph glyph-name="mu" unicode="&#xb5;" horiz-adv-x="1034" 
d="M143 901h93v-532q0 -61 21.5 -113.5t59 -91.5t88 -60.5t107.5 -21.5q61 0 113.5 21.5t91.5 60.5t60.5 91t21.5 114v532h92v-901h-62l-30 133h-11q-29 -41 -67 -72q-35 -29 -88 -50t-131 -21q-66 0 -113 20.5t-80 44.5q-37 29 -63 68h-10v-451h-93v1229z" />
    <glyph glyph-name="paragraph" unicode="&#xb6;" horiz-adv-x="952" 
d="M788 1290v-1474h-92v1382h-215v-1382h-92v901q-66 0 -120 21.5t-94 60.5t-61.5 91t-21.5 114q0 61 21.5 113t61.5 91t94.5 60.5t119.5 21.5h399z" />
    <glyph glyph-name="periodcentered" unicode="&#xb7;" horiz-adv-x="430" 
d="M143 645q0 31 21 51q20 20 51 21q31 0 51 -21q20 -20 21 -51q0 -31 -21 -51q-20 -20 -51 -21q-31 0 -51 21q-21 20 -21 51z" />
    <glyph glyph-name="cedilla" unicode="&#xb8;" horiz-adv-x="378" 
d="M184 -82q61 -8 97 -42t36 -81q0 -61 -44 -102t-130 -41q-20 0 -34.5 1t-24.5 3q-12 2 -23 6v72q10 -4 21 -6q10 -2 22.5 -3t28.5 -1q53 0 78 20t25 51q0 23 -23 42.5t-70 19.5q-12 0 -21 -2t-16 -5q-8 -2 -14 -4l62 154h71z" />
    <glyph glyph-name="uni00B9" unicode="&#xb9;" horiz-adv-x="440" 
d="M72 1372l164 103h61v-594h-82v491l-102 -72z" />
    <glyph glyph-name="ordmasculine" unicode="&#xba;" horiz-adv-x="634" 
d="M143 1034q0 -86 52.5 -140t121.5 -54q70 0 122.5 54t52.5 140t-52.5 140.5t-122.5 54.5t-122 -54.5t-52 -140.5zM573 1034q0 -57 -19 -106t-54 -84t-82 -55.5t-101 -20.5q-53 0 -100 20.5t-82 55.5t-54.5 84t-19.5 106t19.5 106.5t54.5 84.5t82 55t100 20t100.5 -20
t82.5 -55t54 -84.5t19 -106.5z" />
    <glyph glyph-name="guillemotright" unicode="&#xbb;" horiz-adv-x="798" 
d="M399 778h103l225 -317l-225 -318h-103l226 318zM72 778h102l225 -317l-225 -318h-102l225 318z" />
    <glyph glyph-name="onequarter" unicode="&#xbc;" horiz-adv-x="1136" 
d="M993 195h82v-72h-82v-123h-82v123h-266v61l256 410h92v-399zM911 195v286l-184 -286h184zM922 1290h102l-788 -1290h-103zM82 1188l164 102h61v-594h-82v492l-102 -72z" />
    <glyph glyph-name="onehalf" unicode="&#xbd;" horiz-adv-x="1177" 
d="M829 72h277v-72h-389v61l235 246q18 20 35 43q14 18 26 39q11 20 11 41q0 47 -28 75t-74 27q-96 0 -113 -112h-82q8 86 58 135t137 49q86 0 135 -48t49 -126q0 -31 -12 -58q-12 -28 -29 -50q-18 -25 -41 -46zM922 1290h102l-788 -1290h-103zM82 1188l164 102h61v-594h-82
v492l-102 -72z" />
    <glyph glyph-name="threequarters" unicode="&#xbe;" horiz-adv-x="1167" 
d="M358 1014q31 -10 56 -31q23 -16 40 -46t17 -77q0 -70 -56 -122t-149 -52q-92 0 -148 53t-57 131h82q0 -47 35 -79q35 -33 88 -33t88 33t35 79q0 39 -35 71t-88 32h-51v71h51q47 0 75 27t28 66t-28 65q-28 27 -75 27t-75 -30t-27 -83h-82q0 86 49 135t135 49t135 -47
t50 -116q0 -35 -16 -59q-15 -24 -32 -38q-20 -16 -45 -26zM1024 195h82v-72h-82v-123h-82v123h-266v61l256 410h92v-399zM942 195v286l-184 -286h184zM952 1290h103l-789 -1290h-102z" />
    <glyph glyph-name="questiondown" unicode="&#xbf;" horiz-adv-x="870" 
d="M82 -31q0 72 23.5 120t58.5 86t77 71t76.5 73.5t58 96t23.5 137.5v20h103v-20q0 -92 -23.5 -154.5t-58.5 -106.5t-77 -77t-77 -66.5t-58.5 -75.5t-23.5 -104q0 -43 18.5 -82t51.5 -68.5t78 -47t98 -17.5t100.5 20.5t82 57.5t54 90t19.5 119v31h102v-31
q0 -84 -27.5 -153.5t-74.5 -120t-113.5 -78t-142.5 -27.5q-78 0 -141.5 24.5t-109.5 67.5t-71.5 98.5t-25.5 116.5zM532 840q0 -31 -20 -51.5t-51 -20.5t-51.5 20.5t-20.5 51.5t20.5 51t51.5 20t51 -20t20 -51z" />
    <glyph glyph-name="Agrave" unicode="&#xc0;" horiz-adv-x="1085" 
d="M573 1444h-71l-174 246h123zM1085 0h-112l-133 348h-594l-133 -348h-113l502 1290h82zM543 1126l-267 -686h533z" />
    <glyph glyph-name="Aacute" unicode="&#xc1;" horiz-adv-x="1085" 
d="M635 1690h123l-174 -246h-72zM1085 0h-112l-133 348h-594l-133 -348h-113l502 1290h82zM543 1126l-267 -686h533z" />
    <glyph glyph-name="Acircumflex" unicode="&#xc2;" horiz-adv-x="1085" 
d="M584 1669l194 -235h-102l-133 163l-133 -163h-103l195 235h82zM1085 0h-112l-133 348h-594l-133 -348h-113l502 1290h82zM543 1126l-267 -686h533z" />
    <glyph glyph-name="Atilde" unicode="&#xc3;" horiz-adv-x="1085" 
d="M666 1505q31 0 56 30q26 30 26 83h71q0 -100 -46 -153q-46 -52 -107 -52q-39 0 -71 21q-32 20 -59 46q-28 26 -54 46t-52 20q-31 0 -56 -29q-26 -30 -26 -83h-72q0 100 47 152q46 52 107 52q39 0 71 -20t59 -46q28 -26 53 -46q26 -21 53 -21zM1085 0h-112l-133 348h-594
l-133 -348h-113l502 1290h82zM543 1126l-267 -686h533z" />
    <glyph glyph-name="Adieresis" unicode="&#xc4;" horiz-adv-x="1085" 
d="M768 1556q0 -31 -20 -51t-52 -20q-31 0 -51 20t-20 51t20 52q20 20 51 20t52 -20q20 -21 20 -52zM461 1556q0 -31 -21 -51q-20 -20 -51 -20t-51 20t-21 51q0 31 21 52q20 20 51 20t51 -20q21 -21 21 -52zM1085 0h-112l-133 348h-594l-133 -348h-113l502 1290h82z
M543 1126l-267 -686h533z" />
    <glyph glyph-name="Aring" unicode="&#xc5;" horiz-adv-x="1085" 
d="M379 1567q0 70 47 116q47 47 117 48q70 0 116 -48q47 -47 48 -116q0 -70 -48 -117q-47 -47 -116 -47q-70 0 -117 47t-47 117zM451 1567q0 -39 26 -66q27 -27 66 -26q39 0 65 26q27 27 27 66t-27 65q-27 27 -65 27q-39 0 -66 -27q-26 -26 -26 -65zM1085 0h-112l-133 348
h-594l-133 -348h-113l502 1290h82zM543 1126l-267 -686h533z" />
    <glyph glyph-name="AE" unicode="&#xc6;" horiz-adv-x="1587" 
d="M1485 92v-92h-737v348h-502l-195 -348h-112l727 1290h798v-92h-614v-481h563v-92h-563v-533h635zM297 440h451v758h-21z" />
    <glyph glyph-name="Ccedilla" unicode="&#xc7;" horiz-adv-x="1290" 
d="M676 1208q-96 0 -183 -41t-154 -114.5t-105.5 -177t-38.5 -230.5t38.5 -230.5t105.5 -177t154 -114.5t183 -41q162 0 269.5 97t160.5 251h102q-59 -188 -187 -308t-321 -130l-34 -74q61 -8 97 -42t36 -81q0 -61 -44 -102t-130 -41q-20 0 -35 1t-25 3q-12 2 -22 6v72
q10 -4 20 -6t22.5 -3t28.5 -1q53 0 78 20t25 51q0 23 -22.5 42.5t-69.5 19.5q-12 0 -21.5 -2t-15.5 -5q-8 -2 -15 -4l58 146q-109 12 -206 62t-171 134t-118 200t-44 257q0 145 48 266t129 207t186.5 134t220.5 48q100 0 184 -32.5t149.5 -91t113.5 -139.5t75 -177h-102
q-47 154 -152.5 251t-267.5 97z" />
    <glyph glyph-name="Egrave" unicode="&#xc8;" horiz-adv-x="1075" 
d="M625 1444h-72l-174 246h123zM973 92v-92h-799v1290h778v-92h-676v-481h625v-92h-625v-533h697z" />
    <glyph glyph-name="Eacute" unicode="&#xc9;" horiz-adv-x="1075" 
d="M645 1690h123l-174 -246h-72zM973 92v-92h-799v1290h778v-92h-676v-481h625v-92h-625v-533h697z" />
    <glyph glyph-name="Ecircumflex" unicode="&#xca;" horiz-adv-x="1075" 
d="M614 1679l195 -235h-102l-134 164l-133 -164h-102l194 235h82zM973 92v-92h-799v1290h778v-92h-676v-481h625v-92h-625v-533h697z" />
    <glyph glyph-name="Edieresis" unicode="&#xcb;" horiz-adv-x="1075" 
d="M799 1556q0 -31 -21 -51q-20 -20 -51 -20t-51 20t-21 51q0 31 21 52q20 20 51 20t51 -20q21 -21 21 -52zM492 1556q0 -31 -21 -51q-20 -20 -51 -20t-51 20t-21 51q0 31 21 52q20 20 51 20t51 -20q21 -21 21 -52zM973 92v-92h-799v1290h778v-92h-676v-481h625v-92h-625
v-533h697z" />
    <glyph glyph-name="Igrave" unicode="&#xcc;" horiz-adv-x="450" 
d="M266 1444h-71l-175 246h123zM276 0h-102v1290h102v-1290z" />
    <glyph glyph-name="Iacute" unicode="&#xcd;" horiz-adv-x="450" 
d="M317 1690h123l-174 -246h-71zM276 0h-102v1290h102v-1290z" />
    <glyph glyph-name="Icircumflex" unicode="&#xce;" horiz-adv-x="450" 
d="M266 1679l195 -235h-103l-133 164l-133 -164h-102l194 235h82zM276 0h-102v1290h102v-1290z" />
    <glyph glyph-name="Idieresis" unicode="&#xcf;" horiz-adv-x="450" 
d="M451 1556q0 -31 -21 -51q-20 -20 -51 -20t-51 20t-21 51q0 31 21 52q20 20 51 20t51 -20q21 -21 21 -52zM143 1556q0 -31 -20 -51t-51 -20t-52 20q-20 20 -20 51t20 52q20 20 52 20q31 0 51 -20q20 -21 20 -52zM276 0h-102v1290h102v-1290z" />
    <glyph glyph-name="Eth" unicode="&#xd0;" horiz-adv-x="1208" 
d="M41 686h143v604h308q131 0 244 -47q114 -47 198 -133t133 -205t49 -260t-49 -260t-133 -205t-198 -133t-244 -47h-308v594h-143v92zM492 92q111 0 206 40q96 40 166 114t110 175t40 224t-40 224t-110 175t-166 114t-206 40h-205v-512h307v-92h-307v-502h205z" />
    <glyph glyph-name="Ntilde" unicode="&#xd1;" horiz-adv-x="1249" 
d="M758 1526q31 0 56 29q26 30 26 83h71q0 -100 -46 -152t-107 -52q-39 0 -71 20t-59 46q-28 26 -54 46t-52 21q-31 0 -56 -30q-26 -30 -26 -83h-71q0 100 46 153q46 52 107 52q39 0 71 -21q32 -20 59 -46q28 -26 54 -46q25 -20 52 -20zM1075 1290v-1290h-92l-707 1096
v-1096h-102v1290h92l707 -1095v1095h102z" />
    <glyph glyph-name="Ograve" unicode="&#xd2;" horiz-adv-x="1351" 
d="M717 1444h-72l-174 246h123zM1260 645q0 -145 -49 -266q-48 -121 -129 -207t-186 -134t-220 -48t-220 48t-187 134q-81 86 -129 207t-48 266t48 266t129 207t187 134q105 48 220 48t220 -48t186 -134t129 -207q49 -121 49 -266zM195 645q0 -127 38 -230q39 -103 106 -177
t154 -115t183 -41t183 41t154 115t105 177q39 103 39 230t-39 231q-39 103 -105 177q-67 74 -154 114q-87 41 -183 41t-183 -41t-154 -114q-67 -74 -106 -177q-38 -104 -38 -231z" />
    <glyph glyph-name="Oacute" unicode="&#xd3;" horiz-adv-x="1351" 
d="M778 1690h123l-174 -246h-72zM1260 645q0 -145 -49 -266q-48 -121 -129 -207t-186 -134t-220 -48t-220 48t-187 134q-81 86 -129 207t-48 266t48 266t129 207t187 134q105 48 220 48t220 -48t186 -134t129 -207q49 -121 49 -266zM195 645q0 -127 38 -230
q39 -103 106 -177t154 -115t183 -41t183 41t154 115t105 177q39 103 39 230t-39 231q-39 103 -105 177q-67 74 -154 114q-87 41 -183 41t-183 -41t-154 -114q-67 -74 -106 -177q-38 -104 -38 -231z" />
    <glyph glyph-name="Ocircumflex" unicode="&#xd4;" horiz-adv-x="1351" 
d="M717 1669l194 -235h-102l-133 163l-133 -163h-103l195 235h82zM1260 645q0 -145 -49 -266q-48 -121 -129 -207t-186 -134t-220 -48t-220 48t-187 134q-81 86 -129 207t-48 266t48 266t129 207t187 134q105 48 220 48t220 -48t186 -134t129 -207q49 -121 49 -266zM195 645
q0 -127 38 -230q39 -103 106 -177t154 -115t183 -41t183 41t154 115t105 177q39 103 39 230t-39 231q-39 103 -105 177q-67 74 -154 114q-87 41 -183 41t-183 -41t-154 -114q-67 -74 -106 -177q-38 -104 -38 -231z" />
    <glyph glyph-name="Otilde" unicode="&#xd5;" horiz-adv-x="1351" 
d="M799 1526q31 0 56 29q26 30 26 83h71q0 -100 -46 -152t-107 -52q-39 0 -71 20t-59 46q-28 26 -54 46t-52 21q-31 0 -56 -30q-26 -30 -26 -83h-71q0 100 46 153q46 52 107 52q39 0 71 -21q32 -20 59 -46q28 -26 53 -46q26 -20 53 -20zM1260 645q0 -145 -49 -266
q-48 -121 -129 -207t-186 -134t-220 -48t-220 48t-187 134q-81 86 -129 207t-48 266t48 266t129 207t187 134q105 48 220 48t220 -48t186 -134t129 -207q49 -121 49 -266zM195 645q0 -127 38 -230q39 -103 106 -177t154 -115t183 -41t183 41t154 115t105 177q39 103 39 230
t-39 231q-39 103 -105 177q-67 74 -154 114q-87 41 -183 41t-183 -41t-154 -114q-67 -74 -106 -177q-38 -104 -38 -231z" />
    <glyph glyph-name="Odieresis" unicode="&#xd6;" horiz-adv-x="1351" 
d="M901 1556q0 -31 -20 -51t-52 -20q-31 0 -51 20t-20 51t20 52q20 20 51 20t52 -20q20 -21 20 -52zM594 1556q0 -31 -21 -51q-20 -20 -51 -20t-51 20t-20 51t20 52q20 20 51 20t51 -20q21 -21 21 -52zM1260 645q0 -145 -49 -266q-48 -121 -129 -207t-186 -134t-220 -48
t-220 48t-187 134q-81 86 -129 207t-48 266t48 266t129 207t187 134q105 48 220 48t220 -48t186 -134t129 -207q49 -121 49 -266zM195 645q0 -127 38 -230q39 -103 106 -177t154 -115t183 -41t183 41t154 115t105 177q39 103 39 230t-39 231q-39 103 -105 177
q-67 74 -154 114q-87 41 -183 41t-183 -41t-154 -114q-67 -74 -106 -177q-38 -104 -38 -231z" />
    <glyph glyph-name="multiply" unicode="&#xd7;" horiz-adv-x="880" 
d="M758 266l-72 -61l-246 256l-245 -256l-72 61l256 256l-256 256l72 62l245 -256l246 256l72 -62l-256 -256z" />
    <glyph glyph-name="Oslash" unicode="&#xd8;" horiz-adv-x="1351" 
d="M205 256q-53 78 -83 175t-30 214q0 145 48 266t129 207t186.5 134t220.5 48q123 0 228.5 -51t191.5 -143l133 133l61 -61l-143 -144q53 -78 83 -176t30 -213q0 -145 -48.5 -266t-129.5 -207t-186 -134t-220 -48q-117 0 -225.5 51t-194.5 143l-133 -133l-62 62zM1157 645
q0 92 -21.5 170t-60.5 148l-747 -707q70 -86 158.5 -130t189.5 -44q96 0 183 41t153.5 114.5t105.5 177t39 230.5zM195 645q0 -100 21.5 -178t59.5 -139l748 706q-61 84 -154.5 129t-193.5 45q-96 0 -183 -41t-154 -114.5t-105.5 -177t-38.5 -230.5z" />
    <glyph glyph-name="Ugrave" unicode="&#xd9;" horiz-adv-x="1228" 
d="M676 1444h-72l-174 246h123zM614 -10q-104 0 -189 34t-145 97t-94 154q-33 91 -32 206v809h102v-809q0 -193 98 -296t260 -103t260 103t99 296v809h102v-809q0 -115 -33 -206t-93 -154t-145 -97q-86 -34 -190 -34z" />
    <glyph glyph-name="Uacute" unicode="&#xda;" horiz-adv-x="1228" 
d="M696 1690h123l-174 -246h-72zM614 -10q-104 0 -189 34t-145 97t-94 154q-33 91 -32 206v809h102v-809q0 -193 98 -296t260 -103t260 103t99 296v809h102v-809q0 -115 -33 -206t-93 -154t-145 -97q-86 -34 -190 -34z" />
    <glyph glyph-name="Ucircumflex" unicode="&#xdb;" horiz-adv-x="1228" 
d="M655 1669l195 -235h-102l-134 163l-133 -163h-102l194 235h82zM614 -10q-104 0 -189 34t-145 97t-94 154q-33 91 -32 206v809h102v-809q0 -193 98 -296t260 -103t260 103t99 296v809h102v-809q0 -115 -33 -206t-93 -154t-145 -97q-86 -34 -190 -34z" />
    <glyph glyph-name="Udieresis" unicode="&#xdc;" horiz-adv-x="1228" 
d="M840 1556q0 -31 -21 -51q-20 -20 -51 -20t-51 20t-21 51q0 31 21 52q20 20 51 20t51 -20q21 -21 21 -52zM532 1556q0 -31 -20 -51t-51 -20t-51 20t-21 51q0 31 21 52q20 20 51 20t51 -20q20 -21 20 -52zM614 -10q-104 0 -189 34t-145 97t-94 154q-33 91 -32 206v809h102
v-809q0 -193 98 -296t260 -103t260 103t99 296v809h102v-809q0 -115 -33 -206t-93 -154t-145 -97q-86 -34 -190 -34z" />
    <glyph glyph-name="Yacute" unicode="&#xdd;" horiz-adv-x="1024" 
d="M604 1690h123l-174 -246h-72zM461 512l-430 778h112l369 -676l369 676h112l-430 -778v-512h-102v512z" />
    <glyph glyph-name="Thorn" unicode="&#xde;" horiz-adv-x="1157" 
d="M276 1290v-235h400q84 0 156.5 -31t127 -82t85 -120.5t30.5 -145.5q0 -78 -30.5 -146.5t-85 -120t-127 -82t-156.5 -30.5h-400v-297h-102v1290h102zM676 389q61 0 115.5 23.5t94.5 62.5t63.5 91t23.5 110q0 57 -23.5 109.5t-63.5 91t-94.5 62.5t-115.5 24h-400v-574h400z
" />
    <glyph glyph-name="germandbls" unicode="&#xdf;" horiz-adv-x="1024" 
d="M676 676q74 -20 133 -64q49 -37 91 -100t42 -164q0 -74 -26.5 -137.5t-73.5 -110.5t-110.5 -73.5t-137.5 -26.5h-113v92h113q53 0 100 19.5t82 54.5t54.5 82t19.5 100t-19.5 100.5t-54.5 82t-82 54t-100 19.5h-92v92q53 0 100 21.5t82 56.5t54.5 82t19.5 96t-19.5 96.5
t-54.5 82t-82 56t-100 21.5q-57 0 -106.5 -20.5t-84.5 -56t-55 -87t-20 -112.5v-932h-93v932q0 80 28 147.5t75 116.5t112.5 76.5t143.5 27.5q74 0 137 -26.5t110.5 -73.5t74 -110.5t26.5 -137.5t-27.5 -125t-60.5 -86q-37 -38 -86 -65z" />
    <glyph glyph-name="agrave" unicode="&#xe0;" horiz-adv-x="931" 
d="M522 1073h-71l-175 246h123zM420 82q131 0 209 78t78 209v82h-113q-119 0 -198 -17q-79 -16 -126 -44t-66 -64q-19 -37 -20 -80q0 -61 60 -113q59 -51 176 -51zM471 911q74 0 134 -23q60 -24 104 -66q43 -42 66 -100q24 -58 24 -128v-594h-62l-30 133h-11
q-29 -41 -67 -72q-35 -29 -88 -50q-53 -22 -131 -21q-154 0 -236 73q-82 74 -82 183q0 61 27 115t86 95q59 40 154 63q95 24 235 24h113v51q0 100 -64 163q-63 62 -172 62t-166 -47t-80 -117h-92q8 49 35 97q27 47 70 82t101 56t132 21z" />
    <glyph glyph-name="aacute" unicode="&#xe1;" horiz-adv-x="931" 
d="M563 1319h123l-174 -246h-72zM420 82q131 0 209 78t78 209v82h-113q-119 0 -198 -17q-79 -16 -126 -44t-66 -64q-19 -37 -20 -80q0 -61 60 -113q59 -51 176 -51zM471 911q74 0 134 -23q60 -24 104 -66q43 -42 66 -100q24 -58 24 -128v-594h-62l-30 133h-11
q-29 -41 -67 -72q-35 -29 -88 -50q-53 -22 -131 -21q-154 0 -236 73q-82 74 -82 183q0 61 27 115t86 95q59 40 154 63q95 24 235 24h113v51q0 100 -64 163q-63 62 -172 62t-166 -47t-80 -117h-92q8 49 35 97q27 47 70 82t101 56t132 21z" />
    <glyph glyph-name="acircumflex" unicode="&#xe2;" horiz-adv-x="931" 
d="M524 1311l195 -236h-103l-133 164l-133 -164h-102l194 236h82zM420 82q131 0 209 78t78 209v82h-113q-119 0 -198 -17q-79 -16 -126 -44t-66 -64q-19 -37 -20 -80q0 -61 60 -113q59 -51 176 -51zM471 911q74 0 134 -23q60 -24 104 -66q43 -42 66 -100q24 -58 24 -128
v-594h-62l-30 133h-11q-29 -41 -67 -72q-35 -29 -88 -50q-53 -22 -131 -21q-154 0 -236 73q-82 74 -82 183q0 61 27 115t86 95q59 40 154 63q95 24 235 24h113v51q0 100 -64 163q-63 62 -172 62t-166 -47t-80 -117h-92q8 49 35 97q27 47 70 82t101 56t132 21z" />
    <glyph glyph-name="atilde" unicode="&#xe3;" horiz-adv-x="931" 
d="M604 1137q31 0 56 29q26 30 26 83h72q0 -100 -46 -152t-108 -53q-39 0 -70 21q-32 20 -60 46t-53 46q-26 20 -52 21q-31 0 -57 -30t-25 -83h-72q0 100 46 153q46 52 108 52q39 0 70 -21q32 -20 60 -46t53 -46t52 -20zM420 82q131 0 209 78t78 209v82h-113
q-119 0 -198 -17q-79 -16 -126 -44t-66 -64q-19 -37 -20 -80q0 -61 60 -113q59 -51 176 -51zM471 911q74 0 134 -23q60 -24 104 -66q43 -42 66 -100q24 -58 24 -128v-594h-62l-30 133h-11q-29 -41 -67 -72q-35 -29 -88 -50q-53 -22 -131 -21q-154 0 -236 73q-82 74 -82 183
q0 61 27 115t86 95q59 40 154 63q95 24 235 24h113v51q0 100 -64 163q-63 62 -172 62t-166 -47t-80 -117h-92q8 49 35 97q27 47 70 82t101 56t132 21z" />
    <glyph glyph-name="adieresis" unicode="&#xe4;" horiz-adv-x="931" 
d="M717 1178q0 -31 -21 -52q-20 -20 -51 -20t-51 20t-21 52q0 31 21 51q20 20 51 20t51 -20q21 -20 21 -51zM410 1178q0 -31 -21 -52q-20 -20 -51 -20t-51 20t-21 52q0 31 21 51q20 20 51 20t51 -20q21 -20 21 -51zM420 82q131 0 209 78t78 209v82h-113q-119 0 -198 -17
q-79 -16 -126 -44t-66 -64q-19 -37 -20 -80q0 -61 60 -113q59 -51 176 -51zM471 911q74 0 134 -23q60 -24 104 -66q43 -42 66 -100q24 -58 24 -128v-594h-62l-30 133h-11q-29 -41 -67 -72q-35 -29 -88 -50q-53 -22 -131 -21q-154 0 -236 73q-82 74 -82 183q0 61 27 115
t86 95q59 40 154 63q95 24 235 24h113v51q0 100 -64 163q-63 62 -172 62t-166 -47t-80 -117h-92q8 49 35 97q27 47 70 82t101 56t132 21z" />
    <glyph glyph-name="aring" unicode="&#xe5;" horiz-adv-x="931" 
d="M328 1208q0 70 47 117t117 47t116 -47q47 -47 47 -117t-47 -116q-47 -47 -116 -48q-70 0 -117 48q-47 46 -47 116zM399 1208q0 -39 27 -65q27 -27 66 -27t65 27q27 27 27 65q0 39 -27 66t-65 26q-39 0 -66 -26q-27 -27 -27 -66zM420 82q131 0 209 78t78 209v82h-113
q-119 0 -198 -17q-79 -16 -126 -44t-66 -64q-19 -37 -20 -80q0 -61 60 -113q59 -51 176 -51zM471 911q74 0 134 -23q60 -24 104 -66q43 -42 66 -100q24 -58 24 -128v-594h-62l-30 133h-11q-29 -41 -67 -72q-35 -29 -88 -50q-53 -22 -131 -21q-154 0 -236 73q-82 74 -82 183
q0 61 27 115t86 95q59 40 154 63q95 24 235 24h113v51q0 100 -64 163q-63 62 -172 62t-166 -47t-80 -117h-92q8 49 35 97q27 47 70 82t101 56t132 21z" />
    <glyph glyph-name="ae" unicode="&#xe6;" horiz-adv-x="1546" 
d="M1434 225q-18 -47 -50 -89t-75 -74.5t-98.5 -52t-125.5 -19.5q-98 0 -160.5 32.5t-103.5 73.5q-47 47 -73 109q-29 -61 -78 -109q-41 -41 -107.5 -73.5t-163.5 -32.5q-78 0 -135 19.5t-95 53t-57.5 78.5t-19.5 95q0 61 25.5 113t84 91t155 60.5t237.5 21.5h102v72
q0 100 -62.5 162.5t-162.5 62.5q-109 0 -166 -47t-80 -117h-92q8 49 35 96.5t70 82t101 56t132 21.5q86 0 140.5 -30.5t86.5 -67.5q37 -43 60 -96q31 53 78 96q41 37 99 67.5t140 30.5q84 0 156 -29.5t124 -83t80.5 -129t28.5 -167.5q0 -16 -2 -28.5t-4 -22.5t-4 -21h-666
q16 -170 98.5 -259t198.5 -89q92 0 148.5 45t87.5 98h113zM1075 819q-109 0 -186.5 -78.5t-100.5 -218.5h584q-16 139 -95 218t-202 79zM399 82q139 0 218 78t79 209v61h-102q-119 0 -198 -16.5t-126 -43t-66.5 -61.5t-19.5 -73q0 -61 53 -107.5t162 -46.5z" />
    <glyph glyph-name="ccedilla" unicode="&#xe7;" horiz-adv-x="962" 
d="M502 819q-66 0 -125.5 -27.5t-104.5 -76.5t-71.5 -117t-26.5 -147q0 -80 26.5 -147.5t71.5 -117t104.5 -77t125.5 -27.5q109 0 182.5 66.5t103.5 158.5h103q-39 -139 -126 -220t-208 -95l-35 -74q61 -8 97 -42t36 -81q0 -61 -44 -102t-130 -41q-20 0 -34.5 1t-24.5 3
q-12 2 -23 6v72q10 -4 21 -6q10 -2 22.5 -3t28.5 -1q53 0 77.5 20t24.5 51q0 23 -22.5 42.5t-69.5 19.5q-12 0 -21 -2t-16 -5q-8 -2 -14 -4l57 144q-86 4 -160.5 38.5t-129 95t-85 143.5t-30.5 184q0 100 32.5 184t89 145.5t133.5 96t165 34.5q154 0 252 -89t137 -228h-103
q-31 92 -104 158.5t-182 66.5z" />
    <glyph glyph-name="egrave" unicode="&#xe8;" horiz-adv-x="993" 
d="M553 1073h-72l-174 246h123zM881 225q-18 -43 -52 -85q-33 -42 -78 -75q-46 -34 -106 -55q-59 -20 -133 -20q-92 0 -171 35t-136 96t-90 145t-33 185q0 100 33 184t89 145t133 97q77 35 165 34q84 0 158 -32q75 -33 131 -91q55 -57 88 -136t32 -171q0 -16 -2 -28t-4 -23
l-4 -20h-727q8 -74 36 -135q28 -60 72 -103t102 -67t128 -23q49 0 90 13t73 35t54 47q23 26 39 48h113zM502 819q-61 0 -116 -23q-54 -24 -97 -66t-73 -100t-42 -128h645q-8 70 -36 128t-69 100q-42 42 -97 66q-54 23 -115 23z" />
    <glyph glyph-name="eacute" unicode="&#xe9;" horiz-adv-x="993" 
d="M594 1319h123l-174 -246h-72zM881 225q-18 -43 -52 -85q-33 -42 -78 -75q-46 -34 -106 -55q-59 -20 -133 -20q-92 0 -171 35t-136 96t-90 145t-33 185q0 100 33 184t89 145t133 97q77 35 165 34q84 0 158 -32q75 -33 131 -91q55 -57 88 -136t32 -171q0 -16 -2 -28t-4 -23
l-4 -20h-727q8 -74 36 -135q28 -60 72 -103t102 -67t128 -23q49 0 90 13t73 35t54 47q23 26 39 48h113zM502 819q-61 0 -116 -23q-54 -24 -97 -66t-73 -100t-42 -128h645q-8 70 -36 128t-69 100q-42 42 -97 66q-54 23 -115 23z" />
    <glyph glyph-name="ecircumflex" unicode="&#xea;" horiz-adv-x="993" 
d="M543 1300l194 -235h-102l-133 164l-133 -164h-103l195 235h82zM881 225q-18 -43 -52 -85q-33 -42 -78 -75q-46 -34 -106 -55q-59 -20 -133 -20q-92 0 -171 35t-136 96t-90 145t-33 185q0 100 33 184t89 145t133 97q77 35 165 34q84 0 158 -32q75 -33 131 -91
q55 -57 88 -136t32 -171q0 -16 -2 -28t-4 -23l-4 -20h-727q8 -74 36 -135q28 -60 72 -103t102 -67t128 -23q49 0 90 13t73 35t54 47q23 26 39 48h113zM502 819q-61 0 -116 -23q-54 -24 -97 -66t-73 -100t-42 -128h645q-8 70 -36 128t-69 100q-42 42 -97 66q-54 23 -115 23z
" />
    <glyph glyph-name="edieresis" unicode="&#xeb;" horiz-adv-x="993" 
d="M727 1178q0 -31 -20 -52q-20 -20 -52 -20q-31 0 -51 20t-20 52q0 31 20 51t51 20t52 -20q20 -20 20 -51zM420 1178q0 -31 -21 -52q-20 -20 -51 -20t-51 20t-21 52q0 31 21 51q20 20 51 20t51 -20q21 -20 21 -51zM881 225q-18 -43 -52 -85q-33 -42 -78 -75
q-46 -34 -106 -55q-59 -20 -133 -20q-92 0 -171 35t-136 96t-90 145t-33 185q0 100 33 184t89 145t133 97q77 35 165 34q84 0 158 -32q75 -33 131 -91q55 -57 88 -136t32 -171q0 -16 -2 -28t-4 -23l-4 -20h-727q8 -74 36 -135q28 -60 72 -103t102 -67t128 -23q49 0 90 13
t73 35t54 47q23 26 39 48h113zM502 819q-61 0 -116 -23q-54 -24 -97 -66t-73 -100t-42 -128h645q-8 70 -36 128t-69 100q-42 42 -97 66q-54 23 -115 23z" />
    <glyph glyph-name="igrave" unicode="&#xec;" horiz-adv-x="378" 
d="M236 0h-93v901h93v-901zM225 1065h-71l-174 246h122z" />
    <glyph glyph-name="iacute" unicode="&#xed;" horiz-adv-x="378" 
d="M236 0h-93v901h93v-901zM287 1311h123l-174 -246h-72z" />
    <glyph glyph-name="icircumflex" unicode="&#xee;" horiz-adv-x="378" 
d="M236 1311l194 -236h-102l-133 164l-134 -164h-102l195 236h82zM236 0h-93v901h93v-901z" />
    <glyph glyph-name="idieresis" unicode="&#xef;" horiz-adv-x="378" 
d="M236 0h-93v901h93v-901zM420 1178q0 -31 -21 -52q-20 -20 -51 -20t-51 20t-21 52q0 31 21 51q20 20 51 20t51 -20q21 -20 21 -51zM113 1178q0 -31 -21 -52q-20 -20 -51 -20t-51 20t-21 52q0 31 21 51q20 20 51 20t51 -20q21 -20 21 -51z" />
    <glyph glyph-name="eth" unicode="&#xf0;" horiz-adv-x="1013" 
d="M358 1075l174 123q-41 29 -85 51.5t-82 38.5q-45 18 -89 33l31 72q49 -16 103 -39q45 -18 96 -44t98 -61q41 29 82 60.5t82 62.5l51 -72q-39 -27 -71.5 -52t-71.5 -50q70 -68 123 -168q47 -86 85 -217t38 -311q0 -127 -31 -222.5t-87 -160t-133 -97t-169 -32.5
q-88 0 -165 32.5t-133.5 91t-89 139.5t-32.5 177t32.5 177t88 139.5t130.5 91t159 32.5q88 0 149 -27.5t98 -60.5q43 -37 70 -86h10q-16 117 -51 201t-72 139q-43 66 -92 111l-194 -143zM174 430q0 -78 25.5 -141.5t69.5 -109.5t103.5 -71.5t129.5 -25.5t129 25.5t103 71.5
t69.5 109.5t25.5 141.5q0 76 -25.5 140.5t-69.5 110.5t-103.5 71.5t-128.5 25.5q-70 0 -129.5 -25.5t-103.5 -71.5t-69.5 -110.5t-25.5 -140.5z" />
    <glyph glyph-name="ntilde" unicode="&#xf1;" horiz-adv-x="1024" 
d="M641 1157q31 0 56 30q26 30 26 83h72q0 -100 -46 -153q-46 -52 -108 -52q-39 0 -71 20t-59 47q-28 26 -53 46q-26 20 -52 20q-31 0 -57 -30t-25 -83h-72q0 100 46 153q46 52 108 52q39 0 70 -20q32 -20 60 -46t53 -46q25 -21 52 -21zM532 911q76 0 143 -27
q67 -28 113 -78q47 -50 75 -120t28 -154v-532h-92v532q0 61 -22 114q-22 52 -59 91q-38 39 -88 61t-108 21q-61 0 -113 -21q-52 -22 -92 -61q-39 -39 -60 -91q-22 -52 -21 -114v-532h-93v901h62l31 -133h10q25 39 65 72q35 27 89 49t132 22z" />
    <glyph glyph-name="ograve" unicode="&#xf2;" horiz-adv-x="1003" 
d="M543 1065h-72l-174 246h123zM922 451q0 -100 -33 -185q-33 -84 -89 -145t-133 -96t-165 -35t-165 35t-133 96t-89 145t-33 185q0 100 33 184t89 145t133 97q77 35 165 34q88 0 165 -34q77 -35 133 -97q56 -61 89 -145t33 -184zM174 451q0 -80 27 -148t71 -117
q45 -49 105 -76q59 -28 125 -28t125 28t104 76q45 49 72 117t26 148q0 80 -26 147q-27 68 -72 117t-104 77t-125 27q-66 0 -125 -27q-59 -28 -105 -77q-45 -49 -71 -117q-27 -67 -27 -147z" />
    <glyph glyph-name="oacute" unicode="&#xf3;" horiz-adv-x="1003" 
d="M604 1311h123l-174 -246h-72zM922 451q0 -100 -33 -185q-33 -84 -89 -145t-133 -96t-165 -35t-165 35t-133 96t-89 145t-33 185q0 100 33 184t89 145t133 97q77 35 165 34q88 0 165 -34q77 -35 133 -97q56 -61 89 -145t33 -184zM174 451q0 -80 27 -148t71 -117
q45 -49 105 -76q59 -28 125 -28t125 28t104 76q45 49 72 117t26 148q0 80 -26 147q-27 68 -72 117t-104 77t-125 27q-66 0 -125 -27q-59 -28 -105 -77q-45 -49 -71 -117q-27 -67 -27 -147z" />
    <glyph glyph-name="ocircumflex" unicode="&#xf4;" horiz-adv-x="1003" 
d="M543 1311l194 -236h-102l-133 164l-133 -164h-103l195 236h82zM922 451q0 -100 -33 -185q-33 -84 -89 -145t-133 -96t-165 -35t-165 35t-133 96t-89 145t-33 185q0 100 33 184t89 145t133 97q77 35 165 34q88 0 165 -34q77 -35 133 -97q56 -61 89 -145t33 -184zM174 451
q0 -80 27 -148t71 -117q45 -49 105 -76q59 -28 125 -28t125 28t104 76q45 49 72 117t26 148q0 80 -26 147q-27 68 -72 117t-104 77t-125 27q-66 0 -125 -27q-59 -28 -105 -77q-45 -49 -71 -117q-27 -67 -27 -147z" />
    <glyph glyph-name="otilde" unicode="&#xf5;" horiz-adv-x="1003" 
d="M635 1147q31 0 56 30q26 30 26 83h71q0 -100 -46 -153q-46 -52 -107 -52q-39 0 -71 20t-59 46q-28 26 -53 46q-26 20 -53 21q-31 0 -56 -30q-26 -30 -26 -83h-71q0 100 46 153q46 52 107 52q39 0 71 -20t59 -47q28 -26 54 -46q25 -20 52 -20zM922 451q0 -100 -33 -185
q-33 -84 -89 -145t-133 -96t-165 -35t-165 35t-133 96t-89 145t-33 185q0 100 33 184t89 145t133 97q77 35 165 34q88 0 165 -34q77 -35 133 -97q56 -61 89 -145t33 -184zM174 451q0 -80 27 -148t71 -117q45 -49 105 -76q59 -28 125 -28t125 28t104 76q45 49 72 117t26 148
q0 80 -26 147q-27 68 -72 117t-104 77t-125 27q-66 0 -125 -27q-59 -28 -105 -77q-45 -49 -71 -117q-27 -67 -27 -147z" />
    <glyph glyph-name="odieresis" unicode="&#xf6;" horiz-adv-x="1003" 
d="M727 1178q0 -31 -20 -52q-20 -20 -52 -20q-31 0 -51 20t-20 52q0 31 20 51t51 20t52 -20q20 -20 20 -51zM420 1178q0 -31 -21 -52q-20 -20 -51 -20t-51 20t-21 52q0 31 21 51q20 20 51 20t51 -20q21 -20 21 -51zM922 451q0 -100 -33 -185q-33 -84 -89 -145t-133 -96
t-165 -35t-165 35t-133 96t-89 145t-33 185q0 100 33 184t89 145t133 97q77 35 165 34q88 0 165 -34q77 -35 133 -97q56 -61 89 -145t33 -184zM174 451q0 -80 27 -148t71 -117q45 -49 105 -76q59 -28 125 -28t125 28t104 76q45 49 72 117t26 148q0 80 -26 147
q-27 68 -72 117t-104 77t-125 27q-66 0 -125 -27q-59 -28 -105 -77q-45 -49 -71 -117q-27 -67 -27 -147z" />
    <glyph glyph-name="divide" unicode="&#xf7;" horiz-adv-x="890" 
d="M72 573h747v-92h-747v92zM512 870q0 -31 -20.5 -51t-51.5 -20t-51 20.5t-20 50.5q0 31 20.5 51.5t50.5 20.5q31 0 51.5 -20.5t20.5 -51.5zM512 184q0 -31 -20.5 -51t-51.5 -20t-51 20.5t-20 50.5q0 31 20.5 51.5t50.5 20.5q31 0 51.5 -20.5t20.5 -51.5z" />
    <glyph glyph-name="oslash" unicode="&#xf8;" horiz-adv-x="1024" 
d="M850 727q39 -53 60.5 -125t21.5 -151q0 -100 -33 -184.5t-89 -146t-133 -96t-165 -34.5q-86 0 -159.5 34.5t-127.5 88.5l-102 -103l-62 62l113 102q-39 53 -60.5 122t-21.5 155q0 100 33 184t89 145.5t133 96t165 34.5q86 0 159.5 -34.5t127.5 -88.5l102 103l62 -62z
M840 451q0 47 -8.5 82.5t-18.5 64.5q-10 31 -25 57l-501 -481q25 -27 59 -47q29 -16 71 -30.5t95 -14.5q66 0 125 27.5t104 77t72 117t27 147.5zM184 451q0 -47 7.5 -85t17.5 -65q10 -33 27 -55l501 481q-25 25 -59 45q-29 16 -71 31.5t-95 15.5q-66 0 -125 -27.5
t-104 -76.5t-72 -116.5t-27 -147.5z" />
    <glyph glyph-name="ugrave" unicode="&#xf9;" horiz-adv-x="1034" 
d="M573 1075h-71l-174 246h123zM502 -10q-78 0 -144 27q-66 28 -112 78q-47 50 -75 120t-28 154v532h93v-532q0 -61 21 -114q22 -52 59 -91q38 -39 88 -61t108 -21q61 0 114 21q52 22 91 61t60 91q22 52 22 114v532h92v-901h-62l-30 133h-11q-29 -41 -67 -72
q-35 -29 -88 -50t-131 -21z" />
    <glyph glyph-name="uacute" unicode="&#xfa;" horiz-adv-x="1034" 
d="M604 1321h123l-174 -246h-72zM502 -10q-78 0 -144 27q-66 28 -112 78q-47 50 -75 120t-28 154v532h93v-532q0 -61 21 -114q22 -52 59 -91q38 -39 88 -61t108 -21q61 0 114 21q52 22 91 61t60 91q22 52 22 114v532h92v-901h-62l-30 133h-11q-29 -41 -67 -72
q-35 -29 -88 -50t-131 -21z" />
    <glyph glyph-name="ucircumflex" unicode="&#xfb;" horiz-adv-x="1034" 
d="M563 1311l195 -236h-103l-133 164l-133 -164h-102l194 236h82zM502 -10q-78 0 -144 27q-66 28 -112 78q-47 50 -75 120t-28 154v532h93v-532q0 -61 21 -114q22 -52 59 -91q38 -39 88 -61t108 -21q61 0 114 21q52 22 91 61t60 91q22 52 22 114v532h92v-901h-62l-30 133
h-11q-29 -41 -67 -72q-35 -29 -88 -50t-131 -21z" />
    <glyph glyph-name="udieresis" unicode="&#xfc;" horiz-adv-x="1034" 
d="M748 1178q0 -31 -21 -52q-20 -20 -51 -20t-51 20t-21 52q0 31 21 51q20 20 51 20t51 -20q21 -20 21 -51zM440 1178q0 -31 -20 -52q-20 -20 -51 -20t-52 20q-20 20 -20 52q0 31 20 51t52 20q31 0 51 -20t20 -51zM502 -10q-78 0 -144 27q-66 28 -112 78q-47 50 -75 120
t-28 154v532h93v-532q0 -61 21 -114q22 -52 59 -91q38 -39 88 -61t108 -21q61 0 114 21q52 22 91 61t60 91q22 52 22 114v532h92v-901h-62l-30 133h-11q-29 -41 -67 -72q-35 -29 -88 -50t-131 -21z" />
    <glyph glyph-name="yacute" unicode="&#xfd;" horiz-adv-x="880" 
d="M532 1319h123l-174 -246h-71zM31 901h102l307 -768l308 768h102l-410 -1003q-47 -123 -103 -180q-56 -56 -142 -56q-12 0 -23 1q-10 1 -20 3t-19 6v82h41q61 0 96 33t68 111l51 122z" />
    <glyph glyph-name="thorn" unicode="&#xfe;" horiz-adv-x="1054" 
d="M973 451q0 -100 -33 -184.5t-89 -146t-133 -96t-165 -34.5q-78 0 -135.5 25.5t-95.5 56.5q-45 37 -76 82h-10v-482h-93v1618h93v-542h10q31 45 76 81q39 31 96 56.5t135 25.5q88 0 165 -34.5t133 -96t89 -145.5t33 -184zM553 82q66 0 125 27.5t104 77t72 117t27 147.5
t-27 147.5t-72 116.5t-104.5 76.5t-124.5 27.5q-66 0 -125 -27.5t-104 -76.5t-72 -117t-27 -147q0 -80 27 -147.5t72 -117t104 -77t125 -27.5z" />
    <glyph glyph-name="ydieresis" unicode="&#xff;" horiz-adv-x="880" 
d="M666 1178q0 -31 -21 -52q-20 -20 -51 -20t-51 20t-21 52q0 31 21 51q20 20 51 20t51 -20q21 -20 21 -51zM358 1178q0 -31 -20 -52q-20 -20 -51 -20t-51 20t-21 52q0 31 21 51q20 20 51 20t51 -20t20 -51zM31 901h102l307 -768l308 768h102l-410 -1003q-47 -123 -103 -180
q-56 -56 -142 -56q-12 0 -23 1q-10 1 -20 3t-19 6v82h41q61 0 96 33t68 111l51 122z" />
    <glyph glyph-name="Amacron" unicode="&#x100;" horiz-adv-x="1085" 
d="M788 1475h-481v92h481v-92zM1085 0h-112l-133 348h-594l-133 -348h-113l502 1290h82zM543 1126l-267 -686h533z" />
    <glyph glyph-name="amacron" unicode="&#x101;" horiz-adv-x="931" 
d="M727 1126h-481v93h481v-93zM420 82q131 0 209 78t78 209v82h-113q-119 0 -198 -17q-79 -16 -126 -44t-66 -64q-19 -37 -20 -80q0 -61 60 -113q59 -51 176 -51zM471 911q74 0 134 -23q60 -24 104 -66q43 -42 66 -100q24 -58 24 -128v-594h-62l-30 133h-11q-29 -41 -67 -72
q-35 -29 -88 -50q-53 -22 -131 -21q-154 0 -236 73q-82 74 -82 183q0 61 27 115t86 95q59 40 154 63q95 24 235 24h113v51q0 100 -64 163q-63 62 -172 62t-166 -47t-80 -117h-92q8 49 35 97q27 47 70 82t101 56t132 21z" />
    <glyph glyph-name="Abreve" unicode="&#x102;" horiz-adv-x="1085" 
d="M543 1505q61 0 98 40t45 93h82q-8 -92 -71 -153q-62 -61 -154 -62q-92 0 -155 62q-62 61 -71 153h82q8 -53 45 -93q38 -40 99 -40zM1085 0h-112l-133 348h-594l-133 -348h-113l502 1290h82zM543 1126l-267 -686h533z" />
    <glyph glyph-name="abreve" unicode="&#x103;" horiz-adv-x="931" 
d="M481 1147q61 0 99 40q37 40 45 93h82q-8 -92 -71 -154q-62 -61 -155 -61q-92 0 -154 61t-71 154h82q8 -53 45 -93t98 -40zM420 82q131 0 209 78t78 209v82h-113q-119 0 -198 -17q-79 -16 -126 -44t-66 -64q-19 -37 -20 -80q0 -61 60 -113q59 -51 176 -51zM471 911
q74 0 134 -23q60 -24 104 -66q43 -42 66 -100q24 -58 24 -128v-594h-62l-30 133h-11q-29 -41 -67 -72q-35 -29 -88 -50q-53 -22 -131 -21q-154 0 -236 73q-82 74 -82 183q0 61 27 115t86 95q59 40 154 63q95 24 235 24h113v51q0 100 -64 163q-63 62 -172 62t-166 -47
t-80 -117h-92q8 49 35 97q27 47 70 82t101 56t132 21z" />
    <glyph glyph-name="Aogonek" unicode="&#x104;" horiz-adv-x="1085" 
d="M840 348h-594l-133 -348h-113l502 1290h82l501 -1290h-41q-23 -25 -40 -53q-16 -25 -28.5 -55.5t-12.5 -65.5q0 -39 27.5 -65.5t74.5 -26.5q16 0 28.5 1t22.5 3t21 6v-72q-10 -4 -21 -6q-10 -2 -22.5 -3t-28.5 -1q-86 0 -135 47t-49 117q0 35 14 65.5t31 55.5
q20 29 47 53zM543 1126l-267 -686h533z" />
    <glyph glyph-name="aogonek" unicode="&#x105;" horiz-adv-x="931" 
d="M707 133h-11q-29 -41 -67 -72q-35 -29 -88.5 -50t-130.5 -21q-154 0 -236 73.5t-82 182.5q0 61 26.5 115.5t86 94.5t155 63.5t234.5 23.5h113v51q0 100 -63.5 162.5t-172.5 62.5t-166 -47t-80 -117h-92q8 49 35 96.5t70 82t101 56t132 21.5t134.5 -23.5t103.5 -65.5
t66.5 -100t23.5 -128v-594q-23 -25 -41 -53q-16 -25 -28.5 -55.5t-12.5 -65.5q0 -39 27.5 -65.5t74.5 -26.5q16 0 28.5 1t22.5 3t21 6v-72q-10 -4 -21 -6q-10 -2 -22 -3t-29 -1q-86 0 -135 47t-49 117q0 35 15.5 67.5t35.5 59.5q23 31 51 57zM420 82q131 0 209 78t78 209v82
h-113q-119 0 -198 -16.5t-126 -44.5t-66.5 -64.5t-19.5 -79.5q0 -61 59.5 -112.5t176.5 -51.5z" />
    <glyph glyph-name="Cacute" unicode="&#x106;" horiz-adv-x="1290" 
d="M758 1690h123l-174 -246h-72zM676 1208q-96 0 -183 -41t-154 -114q-67 -74 -106 -177t-38 -231q0 -127 38 -230q39 -103 106 -177t154 -115t183 -41q162 0 269 97q108 97 161 251h102q-31 -96 -80 -177t-116 -139q-68 -58 -152 -91t-184 -33q-115 0 -220 48t-187 134
q-81 86 -129 207t-48 266t48 266t129 207t187 134q105 48 220 48q100 0 184 -32q84 -33 150 -91t113 -140q48 -81 75 -177h-102q-47 154 -153 251q-105 97 -267 97z" />
    <glyph glyph-name="cacute" unicode="&#x107;" horiz-adv-x="962" 
d="M584 1319h123l-175 -246h-71zM502 819q-66 0 -125 -27q-59 -28 -105 -77q-45 -49 -71 -117q-27 -68 -27 -147q0 -80 27 -148t71 -117q45 -49 105 -76q59 -28 125 -28q109 0 182 66q74 67 104 159h103q-39 -139 -137 -228t-252 -89q-88 0 -165 35t-133 96t-89 145t-33 185
q0 100 33 184t89 145t133 97q77 35 165 34q154 0 252 -89t137 -228h-103q-31 92 -104 159q-73 66 -182 66z" />
    <glyph glyph-name="Ccircumflex" unicode="&#x108;" horiz-adv-x="1290" 
d="M717 1679l194 -235h-102l-133 164l-133 -164h-103l195 235h82zM676 1208q-96 0 -183 -41t-154 -114q-67 -74 -106 -177t-38 -231q0 -127 38 -230q39 -103 106 -177t154 -115t183 -41q162 0 269 97q108 97 161 251h102q-31 -96 -80 -177t-116 -139q-68 -58 -152 -91
t-184 -33q-115 0 -220 48t-187 134q-81 86 -129 207t-48 266t48 266t129 207t187 134q105 48 220 48q100 0 184 -32q84 -33 150 -91t113 -140q48 -81 75 -177h-102q-47 154 -153 251q-105 97 -267 97z" />
    <glyph glyph-name="ccircumflex" unicode="&#x109;" horiz-adv-x="962" 
d="M543 1311l194 -236h-102l-133 164l-133 -164h-103l195 236h82zM502 819q-66 0 -125 -27q-59 -28 -105 -77q-45 -49 -71 -117q-27 -68 -27 -147q0 -80 27 -148t71 -117q45 -49 105 -76q59 -28 125 -28q109 0 182 66q74 67 104 159h103q-39 -139 -137 -228t-252 -89
q-88 0 -165 35t-133 96t-89 145t-33 185q0 100 33 184t89 145t133 97q77 35 165 34q154 0 252 -89t137 -228h-103q-31 92 -104 159q-73 66 -182 66z" />
    <glyph glyph-name="Ccaron" unicode="&#x10c;" horiz-adv-x="1290" 
d="M625 1444l-195 235h102l134 -163l133 163h102l-194 -235h-82zM676 1208q-96 0 -183 -41t-154 -114q-67 -74 -106 -177t-38 -231q0 -127 38 -230q39 -103 106 -177t154 -115t183 -41q162 0 269 97q108 97 161 251h102q-31 -96 -80 -177t-116 -139q-68 -58 -152 -91
t-184 -33q-115 0 -220 48t-187 134q-81 86 -129 207t-48 266t48 266t129 207t187 134q105 48 220 48q100 0 184 -32q84 -33 150 -91t113 -140q48 -81 75 -177h-102q-47 154 -153 251q-105 97 -267 97z" />
    <glyph glyph-name="ccaron" unicode="&#x10d;" horiz-adv-x="962" 
d="M461 1075l-195 236h103l133 -164l133 164h102l-194 -236h-82zM502 819q-66 0 -125 -27q-59 -28 -105 -77q-45 -49 -71 -117q-27 -68 -27 -147q0 -80 27 -148t71 -117q45 -49 105 -76q59 -28 125 -28q109 0 182 66q74 67 104 159h103q-39 -139 -137 -228t-252 -89
q-88 0 -165 35t-133 96t-89 145t-33 185q0 100 33 184t89 145t133 97q77 35 165 34q154 0 252 -89t137 -228h-103q-31 92 -104 159q-73 66 -182 66z" />
    <glyph glyph-name="Dcaron" unicode="&#x10e;" horiz-adv-x="1198" 
d="M543 1444l-195 235h103l133 -163l133 163h102l-194 -235h-82zM481 92q111 0 207 40t166 114t110 175t40 224t-40 224t-110 175t-166 114t-207 40h-205v-1106h205zM1106 645q0 -141 -49 -260t-133 -205t-198 -133t-245 -47h-307v1290h307q131 0 245 -47t198 -133t133 -205
t49 -260z" />
    <glyph glyph-name="dcaron" unicode="&#x10f;" horiz-adv-x="1146" 
d="M1116 1290h123l-123 -246h-72zM82 451q0 100 32.5 184t89 145.5t133.5 96t165 34.5q78 0 134 -25.5t95 -56.5q45 -37 78 -81h10v542h92v-1290h-61l-31 154h-10q-33 -45 -78 -82q-39 -31 -95 -56.5t-134 -25.5q-88 0 -165 34.5t-133.5 96t-89 146t-32.5 184.5zM502 819
q-66 0 -125.5 -27.5t-104.5 -76.5t-71.5 -117t-26.5 -147q0 -80 26.5 -147.5t71.5 -117t104.5 -77t125.5 -27.5t125 27.5t104 77t71.5 117t26.5 147.5t-26.5 147.5t-71.5 116.5t-104 76.5t-125 27.5z" />
    <glyph glyph-name="Dcroat" unicode="&#x110;" horiz-adv-x="1208" 
d="M41 686h143v604h308q131 0 244.5 -47t197.5 -133t133 -205t49 -260t-49 -260t-133 -205t-197.5 -133t-244.5 -47h-308v594h-143v92zM492 92q111 0 207 40t165.5 113.5t109.5 175t40 224.5t-40 224.5t-109.5 175t-166 113.5t-206.5 40h-205v-512h307v-92h-307v-502h205z
" />
    <glyph glyph-name="dcroat" unicode="&#x111;" horiz-adv-x="1095" 
d="M1075 1004h-164v-1004h-61l-31 154h-10q-33 -45 -78 -82q-39 -31 -95 -56.5t-134 -25.5q-88 0 -165 32.5t-133.5 89t-89 133.5t-32.5 165t32.5 164.5t89 133t133.5 89t165 32.5q78 0 134 -25.5t95 -55.5q45 -37 78 -82h10v338h-297v92h297v194h92v-194h164v-92zM174 410
q0 -70 25.5 -129.5t69.5 -103.5t103.5 -69.5t129.5 -25.5t129 25.5t103 69.5t69.5 103.5t25.5 129.5t-25.5 129t-69.5 103t-103.5 69.5t-128.5 25.5q-70 0 -129.5 -25.5t-103.5 -69.5t-69.5 -103t-25.5 -129z" />
    <glyph glyph-name="Emacron" unicode="&#x112;" horiz-adv-x="1075" 
d="M809 1495h-481v92h481v-92zM973 92v-92h-799v1290h778v-92h-676v-481h625v-92h-625v-533h697z" />
    <glyph glyph-name="emacron" unicode="&#x113;" horiz-adv-x="993" 
d="M748 1126h-482v93h482v-93zM881 225q-18 -43 -52 -85q-33 -42 -78 -75q-46 -34 -106 -55q-59 -20 -133 -20q-92 0 -171 35t-136 96t-90 145t-33 185q0 100 33 184t89 145t133 97q77 35 165 34q84 0 158 -32q75 -33 131 -91q55 -57 88 -136t32 -171q0 -16 -2 -28t-4 -23
l-4 -20h-727q8 -74 36 -135q28 -60 72 -103t102 -67t128 -23q49 0 90 13t73 35t54 47q23 26 39 48h113zM502 819q-61 0 -116 -23q-54 -24 -97 -66t-73 -100t-42 -128h645q-8 70 -36 128t-69 100q-42 42 -97 66q-54 23 -115 23z" />
    <glyph glyph-name="Edotaccent" unicode="&#x116;" horiz-adv-x="1075" 
d="M502 1556q0 31 20 52q20 20 51 20t52 -20q20 -20 20 -52q0 -31 -20 -51t-52 -20q-31 0 -51 20t-20 51zM973 92v-92h-799v1290h778v-92h-676v-481h625v-92h-625v-533h697z" />
    <glyph glyph-name="edotaccent" unicode="&#x117;" horiz-adv-x="993" 
d="M430 1178q0 31 21 51q20 20 51 20t51 -20t20 -51t-20 -52q-20 -20 -51 -20t-51 20q-21 21 -21 52zM881 225q-18 -43 -52 -85q-33 -42 -78 -75q-46 -34 -106 -55q-59 -20 -133 -20q-92 0 -171 35t-136 96t-90 145t-33 185q0 100 33 184t89 145t133 97q77 35 165 34
q84 0 158 -32q75 -33 131 -91q55 -57 88 -136t32 -171q0 -16 -2 -28t-4 -23l-4 -20h-727q8 -74 36 -135q28 -60 72 -103t102 -67t128 -23q49 0 90 13t73 35t54 47q23 26 39 48h113zM502 819q-61 0 -116 -23q-54 -24 -97 -66t-73 -100t-42 -128h645q-8 70 -36 128t-69 100
q-42 42 -97 66q-54 23 -115 23z" />
    <glyph glyph-name="Eogonek" unicode="&#x118;" horiz-adv-x="1075" 
d="M174 0v1290h778v-92h-676v-481h625v-92h-625v-533h697v-92q-23 -25 -41 -53q-16 -25 -28.5 -55.5t-12.5 -65.5q0 -39 27.5 -65.5t74.5 -26.5q16 0 28.5 1t22.5 3t21 6v-72q-10 -4 -21 -6q-10 -2 -22 -3t-29 -1q-86 0 -135 47t-49 117q0 35 14.5 65.5t30.5 55.5
q20 29 47 53h-727z" />
    <glyph glyph-name="eogonek" unicode="&#x119;" horiz-adv-x="993" 
d="M881 225q-16 -39 -46 -77.5t-71 -70.5t-92 -55.5t-109 -31.5l-11 -14q-11 -15 -24.5 -37.5t-24.5 -52t-11 -60.5q0 -39 27.5 -65.5t74.5 -26.5q16 0 28.5 1t22.5 3t21 6v-72q-10 -4 -21 -6q-10 -2 -22.5 -3t-28.5 -1q-86 0 -135 47t-49 117q0 31 12 60.5t29 52.5
q18 27 41 51q-88 4 -163 38.5t-130.5 95t-86 143.5t-30.5 184q0 100 32.5 184t89 145.5t133.5 96t165 34.5q84 0 158.5 -32.5t130 -90t88 -136.5t32.5 -171q0 -16 -2 -28.5t-4 -22.5l-4 -20h-727q8 -74 36 -134.5t72 -103.5t102 -66.5t128 -23.5q49 0 90 13.5t73 35t54.5 47
t38.5 47.5h113zM502 819q-61 0 -115.5 -23.5t-97.5 -65.5t-73 -100.5t-42 -127.5h645q-8 70 -35.5 128t-69.5 100t-96.5 65.5t-115.5 23.5z" />
    <glyph glyph-name="Ecaron" unicode="&#x11a;" horiz-adv-x="1075" 
d="M532 1444l-194 235h102l133 -163l134 163h102l-195 -235h-82zM973 92v-92h-799v1290h778v-92h-676v-481h625v-92h-625v-533h697z" />
    <glyph glyph-name="ecaron" unicode="&#x11b;" horiz-adv-x="993" 
d="M461 1065l-195 235h103l133 -163l133 163h102l-194 -235h-82zM881 225q-18 -43 -52 -85q-33 -42 -78 -75q-46 -34 -106 -55q-59 -20 -133 -20q-92 0 -171 35t-136 96t-90 145t-33 185q0 100 33 184t89 145t133 97q77 35 165 34q84 0 158 -32q75 -33 131 -91
q55 -57 88 -136t32 -171q0 -16 -2 -28t-4 -23l-4 -20h-727q8 -74 36 -135q28 -60 72 -103t102 -67t128 -23q49 0 90 13t73 35t54 47q23 26 39 48h113zM502 819q-61 0 -116 -23q-54 -24 -97 -66t-73 -100t-42 -128h645q-8 70 -36 128t-69 100q-42 42 -97 66q-54 23 -115 23z
" />
    <glyph glyph-name="Gbreve" unicode="&#x11e;" horiz-adv-x="1361" 
d="M676 1516q61 0 98 39q37 40 45 94h82q-8 -92 -71 -154q-62 -61 -154 -61t-155 61q-62 61 -70 154h81q8 -53 46 -94q37 -39 98 -39zM696 625h523v-625h-82l-11 266q-41 -78 -106 -139q-55 -53 -140 -95t-204 -42q-115 0 -220 48t-187 134q-81 86 -129 207t-48 266t48 266
t129 207t187 134q105 48 220 48q100 0 184 -31q84 -32 149 -87t110 -128q46 -73 69 -153h-103q-18 61 -55 117q-37 55 -88 98t-119 68t-147 24q-96 0 -183 -41t-154 -114q-67 -74 -106 -177t-38 -231q0 -127 38 -230q39 -103 106 -177t154 -115t183 -41q88 0 168 36t140 97
t96 143t36 174h-420v93z" />
    <glyph glyph-name="gbreve" unicode="&#x11f;" horiz-adv-x="1034" 
d="M522 1147q61 0 99 40q37 40 45 93h82q-8 -92 -71 -154q-62 -61 -155 -61q-92 0 -154 61t-71 154h82q8 -53 45 -93t98 -40zM225 -72q31 -78 98 -131t189 -53q61 0 114 22q52 22 91 60q39 39 60 91q22 52 22 114v164h-11q-33 -45 -75 -82q-37 -31 -93 -57t-128 -25
q-84 0 -159 34t-130 94t-88 140t-33 172t33 172t88 140t130 95q75 34 159 33q72 0 128 -25q56 -26 93 -57q43 -37 75 -81h11l30 153h62v-870q0 -80 -29 -150t-80 -121t-120 -79q-70 -29 -150 -29q-84 0 -150 21q-66 22 -113 60q-48 38 -80 88t-46 107h102zM174 471
q0 -74 27 -137t70 -111q44 -47 102 -73q57 -27 119 -27q61 0 118 27t102 73q44 47 70 111q27 63 27 137t-27 137t-70 111q-44 47 -102 74q-57 27 -118 26q-61 0 -119 -26q-57 -27 -102 -74q-44 -47 -70 -111q-27 -63 -27 -137z" />
    <glyph glyph-name="uni0122" unicode="&#x122;" horiz-adv-x="1361" 
d="M614 -225q0 31 21 51q20 20 51 20t51 -21q20 -22 21 -61q0 -51 -22 -92t-46 -69q-29 -35 -65 -64l-21 21q20 18 37 41q14 18 28 45q13 27 17 57q-31 0 -51 21q-21 20 -21 51zM696 625h523v-625h-82l-11 266q-41 -78 -106 -139q-55 -53 -140 -95t-204 -42q-115 0 -220 48
t-187 134q-81 86 -129 207t-48 266t48 266t129 207t187 134q105 48 220 48q100 0 184 -31q84 -32 149 -87t110 -128q46 -73 69 -153h-103q-18 61 -55 117q-37 55 -88 98t-119 68t-147 24q-96 0 -183 -41t-154 -114q-67 -74 -106 -177t-38 -231q0 -127 38 -230
q39 -103 106 -177t154 -115t183 -41q88 0 168 36t140 97t96 143t36 174h-420v93z" />
    <glyph glyph-name="uni0123" unicode="&#x123;" horiz-adv-x="1034" 
d="M594 1147q0 -31 -20.5 -51.5t-51.5 -20.5t-51 21.5t-20 60.5q0 49 20.5 91t44.5 71q29 35 68 63l20 -20q-20 -18 -37 -41q-14 -20 -27.5 -46t-17.5 -56q31 0 51.5 -20.5t20.5 -51.5zM225 -72q31 -78 97.5 -131t189.5 -53q61 0 113.5 21.5t91.5 60.5t60.5 91t21.5 114v164
h-11q-33 -45 -75 -82q-37 -31 -93.5 -56.5t-127.5 -25.5q-84 0 -159 33.5t-130.5 94t-88 140.5t-32.5 172t32.5 172t88 140.5t130.5 94t159 33.5q72 0 128 -25.5t93 -56.5q43 -37 75 -81h11l30 153h62v-870q0 -80 -28.5 -149.5t-80 -121t-121 -80t-149.5 -28.5
q-84 0 -149.5 21.5t-113.5 59.5t-80 88t-46 107h102zM174 471q0 -74 26.5 -137.5t70.5 -110.5t101.5 -73.5t119.5 -26.5q61 0 118.5 26.5t101.5 73.5t70.5 110.5t26.5 137.5t-26.5 137.5t-70.5 110.5t-101.5 73.5t-118.5 26.5t-119 -26.5t-102 -73.5t-70.5 -110.5
t-26.5 -137.5z" />
    <glyph glyph-name="Imacron" unicode="&#x12a;" horiz-adv-x="450" 
d="M471 1485h-481v92h481v-92zM276 0h-102v1290h102v-1290z" />
    <glyph glyph-name="imacron" unicode="&#x12b;" horiz-adv-x="378" 
d="M236 0h-93v901h93v-901zM440 1126h-481v93h481v-93z" />
    <glyph glyph-name="Iogonek" unicode="&#x12e;" horiz-adv-x="450" 
d="M174 1290h102v-1290h-30q-23 -25 -41 -53q-16 -25 -28.5 -55.5t-12.5 -65.5q0 -39 27.5 -65.5t74.5 -26.5q16 0 28.5 1t22.5 3t21 6v-72q-10 -4 -21 -6q-10 -2 -22 -3t-29 -1q-86 0 -135 47t-49 117q0 35 14.5 65.5t30.5 55.5q20 29 47 53v1290z" />
    <glyph glyph-name="iogonek" unicode="&#x12f;" horiz-adv-x="378" 
d="M143 901h93v-901h-21q-23 -25 -41 -53q-16 -25 -28.5 -55.5t-12.5 -65.5q0 -39 27.5 -65.5t75.5 -26.5q16 0 28 1t23 3q10 2 20 6v-72q-10 -4 -20 -6t-22.5 -3t-28.5 -1q-86 0 -135.5 47t-49.5 117q0 35 14.5 65.5t30.5 55.5q20 29 47 53v901zM123 1188q0 31 20.5 51.5
t51.5 20.5t51 -20.5t20 -51.5t-20.5 -51.5t-50.5 -20.5q-31 0 -51.5 20.5t-20.5 51.5z" />
    <glyph glyph-name="Idotaccent" unicode="&#x130;" horiz-adv-x="450" 
d="M154 1556q0 31 20 52q20 20 51 20t51 -20t21 -52q0 -31 -21 -51q-20 -20 -51 -20t-51 20t-20 51zM276 0h-102v1290h102v-1290z" />
    <glyph glyph-name="dotlessi" unicode="&#x131;" horiz-adv-x="378" 
d="M236 0h-93v901h93v-901z" />
    <glyph glyph-name="ij" unicode="&#x133;" horiz-adv-x="890" 
d="M727 901v-973q0 -123 -67.5 -194.5t-167.5 -71.5q-35 0 -60 10q-12 4 -22 11v81q8 -4 16 -6q20 -4 45 -4q78 0 121 44t43 130v123q-27 -18 -57 -31q-29 -12 -65 -21t-83 -9q-135 0 -205.5 74.5t-70.5 222.5v614h92v-614q0 -100 51 -152.5t143 -52.5q45 0 82 11t61.5 25.5
t38.5 25.5l13 10v747h92zM133 1188q0 31 20.5 51.5t51.5 20.5t51 -20.5t20 -51.5t-20 -51.5t-51 -20.5t-51.5 20.5t-20.5 51.5zM614 1188q0 31 20.5 51.5t51.5 20.5t51.5 -20.5t20.5 -51.5t-20.5 -51.5t-51.5 -20.5t-51.5 20.5t-20.5 51.5z" />
    <glyph glyph-name="uni0136" unicode="&#x136;" horiz-adv-x="1003" 
d="M461 -225q0 31 20 51t51 20t52 -21q20 -22 20 -61q0 -51 -21 -92q-22 -41 -46 -69q-29 -35 -66 -64l-20 21q20 18 36 41q14 18 28 45q13 27 17 57q-31 0 -51 21q-20 20 -20 51zM276 655v-655h-102v1290h102v-635l553 635h134l-564 -635l605 -655h-134z" />
    <glyph glyph-name="uni0137" unicode="&#x137;" horiz-adv-x="808" 
d="M369 -225q0 31 20 51t51 20t52 -21q20 -22 20 -61q0 -51 -22 -92t-46 -69q-29 -35 -65 -64l-21 21q20 18 37 41q14 18 28 45q13 27 17 57q-31 0 -51 21q-20 20 -20 51zM809 0h-123l-450 471v-471h-93v1290h93v-819l409 430h123l-410 -430z" />
    <glyph glyph-name="Lacute" unicode="&#x139;" horiz-adv-x="952" 
d="M317 1690h123l-174 -246h-71zM922 92v-92h-748v1290h102v-1198h646z" />
    <glyph glyph-name="lacute" unicode="&#x13a;" horiz-adv-x="378" 
d="M236 0h-93v1290h93v-1290zM276 1690h123l-174 -246h-71z" />
    <glyph glyph-name="uni013B" unicode="&#x13b;" horiz-adv-x="952" 
d="M471 -225q0 31 21 51q20 20 51 20t51 -21q20 -22 20 -61q0 -51 -21 -92q-22 -41 -46 -69q-29 -35 -66 -64l-20 21q20 18 37 41q14 18 27 45t18 57q-31 0 -51 21q-21 20 -21 51zM922 92v-92h-748v1290h102v-1198h646z" />
    <glyph glyph-name="uni013C" unicode="&#x13c;" horiz-adv-x="378" 
d="M236 0h-93v1290h93v-1290zM123 -225q0 31 20 51t52 20q31 0 51 -21q20 -22 20 -61q0 -51 -21 -92q-22 -41 -46 -69q-29 -35 -66 -64l-20 21q20 18 37 41q14 18 27 45t18 57q-31 0 -52 21q-20 20 -20 51z" />
    <glyph glyph-name="Lcaron" unicode="&#x13d;" horiz-adv-x="952" 
d="M922 92v-92h-748v1290h102v-1198h646zM502 1290h123l-123 -246h-72z" />
    <glyph glyph-name="lcaron" unicode="&#x13e;" horiz-adv-x="471" 
d="M440 1290h123l-123 -246h-71zM236 0h-93v1290h93v-1290z" />
    <glyph glyph-name="Lslash" unicode="&#x141;" horiz-adv-x="952" 
d="M51 430l123 82v778h102v-706l359 235v-102l-359 -236v-389h646v-92h-748v410l-123 -82v102z" />
    <glyph glyph-name="lslash" unicode="&#x142;" horiz-adv-x="481" 
d="M20 532l175 113v645h92v-583l174 112v-92l-174 -113v-614h-92v553l-175 -113v92z" />
    <glyph glyph-name="Nacute" unicode="&#x143;" horiz-adv-x="1249" 
d="M727 1690h123l-174 -246h-72zM1075 1290v-1290h-92l-707 1096v-1096h-102v1290h92l707 -1095v1095h102z" />
    <glyph glyph-name="nacute" unicode="&#x144;" horiz-adv-x="1024" 
d="M604 1321h123l-174 -246h-72zM532 911q76 0 143 -27q67 -28 113 -78q47 -50 75 -120t28 -154v-532h-92v532q0 61 -22 114q-22 52 -59 91q-38 39 -88 61t-108 21q-61 0 -113 -21q-52 -22 -92 -61q-39 -39 -60 -91q-22 -52 -21 -114v-532h-93v901h62l31 -133h10
q25 39 65 72q35 27 89 49t132 22z" />
    <glyph glyph-name="uni0145" unicode="&#x145;" horiz-adv-x="1249" 
d="M543 -225q0 31 20 51t51 20t52 -21q20 -22 20 -61q0 -51 -21 -92q-22 -41 -47 -69q-29 -35 -65 -64l-21 21q20 18 37 41q14 18 28 45q13 27 17 57q-31 0 -51 21q-20 20 -20 51zM1075 1290v-1290h-92l-707 1096v-1096h-102v1290h92l707 -1095v1095h102z" />
    <glyph glyph-name="uni0146" unicode="&#x146;" horiz-adv-x="1024" 
d="M451 -225q0 31 20 51t51 20t51 -21q20 -22 21 -61q0 -51 -22 -92t-46 -69q-29 -35 -65 -64l-21 21q20 18 37 41q14 18 28 45q13 27 17 57q-31 0 -51 21q-20 20 -20 51zM532 911q76 0 143 -27q67 -28 113 -78q47 -50 75 -120t28 -154v-532h-92v532q0 61 -22 114
q-22 52 -59 91q-38 39 -88 61t-108 21q-61 0 -113 -21q-52 -22 -92 -61q-39 -39 -60 -91q-22 -52 -21 -114v-532h-93v901h62l31 -133h10q25 39 65 72q35 27 89 49t132 22z" />
    <glyph glyph-name="Ncaron" unicode="&#x147;" horiz-adv-x="1249" 
d="M594 1444l-195 235h103l133 -163l133 163h102l-194 -235h-82zM1075 1290v-1290h-92l-707 1096v-1096h-102v1290h92l707 -1095v1095h102z" />
    <glyph glyph-name="ncaron" unicode="&#x148;" horiz-adv-x="1024" 
d="M471 1075l-195 236h103l133 -164l133 164h103l-195 -236h-82zM532 911q76 0 143 -27q67 -28 113 -78q47 -50 75 -120t28 -154v-532h-92v532q0 61 -22 114q-22 52 -59 91q-38 39 -88 61t-108 21q-61 0 -113 -21q-52 -22 -92 -61q-39 -39 -60 -91q-22 -52 -21 -114v-532
h-93v901h62l31 -133h10q25 39 65 72q35 27 89 49t132 22z" />
    <glyph glyph-name="Omacron" unicode="&#x14c;" horiz-adv-x="1351" 
d="M922 1485h-482v92h482v-92zM1260 645q0 -145 -49 -266q-48 -121 -129 -207t-186 -134t-220 -48t-220 48t-187 134q-81 86 -129 207t-48 266t48 266t129 207t187 134q105 48 220 48t220 -48t186 -134t129 -207q49 -121 49 -266zM195 645q0 -127 38 -230q39 -103 106 -177
t154 -115t183 -41t183 41t154 115t105 177q39 103 39 230t-39 231q-39 103 -105 177q-67 74 -154 114q-87 41 -183 41t-183 -41t-154 -114q-67 -74 -106 -177q-38 -104 -38 -231z" />
    <glyph glyph-name="omacron" unicode="&#x14d;" horiz-adv-x="1003" 
d="M748 1126h-482v93h482v-93zM922 451q0 -100 -33 -185q-33 -84 -89 -145t-133 -96t-165 -35t-165 35t-133 96t-89 145t-33 185q0 100 33 184t89 145t133 97q77 35 165 34q88 0 165 -34q77 -35 133 -97q56 -61 89 -145t33 -184zM174 451q0 -80 27 -148t71 -117
q45 -49 105 -76q59 -28 125 -28t125 28t104 76q45 49 72 117t26 148q0 80 -26 147q-27 68 -72 117t-104 77t-125 27q-66 0 -125 -27q-59 -28 -105 -77q-45 -49 -71 -117q-27 -67 -27 -147z" />
    <glyph glyph-name="Ohungarumlaut" unicode="&#x150;" horiz-adv-x="1351" 
d="M666 1690h122l-184 -246h-72zM911 1690h123l-184 -246h-72zM1260 645q0 -145 -49 -266q-48 -121 -129 -207t-186 -134t-220 -48t-220 48t-187 134q-81 86 -129 207t-48 266t48 266t129 207t187 134q105 48 220 48t220 -48t186 -134t129 -207q49 -121 49 -266zM195 645
q0 -127 38 -230q39 -103 106 -177t154 -115t183 -41t183 41t154 115t105 177q39 103 39 230t-39 231q-39 103 -105 177q-67 74 -154 114q-87 41 -183 41t-183 -41t-154 -114q-67 -74 -106 -177q-38 -104 -38 -231z" />
    <glyph glyph-name="ohungarumlaut" unicode="&#x151;" horiz-adv-x="1003" 
d="M492 1311h122l-184 -246h-72zM737 1311h123l-184 -246h-72zM922 451q0 -100 -33 -185q-33 -84 -89 -145t-133 -96t-165 -35t-165 35t-133 96t-89 145t-33 185q0 100 33 184t89 145t133 97q77 35 165 34q88 0 165 -34q77 -35 133 -97q56 -61 89 -145t33 -184zM174 451
q0 -80 27 -148t71 -117q45 -49 105 -76q59 -28 125 -28t125 28t104 76q45 49 72 117t26 148q0 80 -26 147q-27 68 -72 117t-104 77t-125 27q-66 0 -125 -27q-59 -28 -105 -77q-45 -49 -71 -117q-27 -67 -27 -147z" />
    <glyph glyph-name="OE" unicode="&#x152;" horiz-adv-x="1699" 
d="M92 645q0 141 48 260t133 205t199 133t245 47h860v-92h-614v-481h563v-92h-563v-533h634v-92h-880q-131 0 -245 47t-199 133t-133 205t-48 260zM860 92v1106h-143q-111 0 -207 -40t-166 -113.5t-109.5 -175t-39.5 -224.5t39.5 -224.5t109.5 -175t166 -113.5t207 -40h143z
" />
    <glyph glyph-name="oe" unicode="&#x153;" horiz-adv-x="1638" 
d="M1526 225q-27 -66 -74 -119q-41 -45 -107.5 -80.5t-166.5 -35.5q-96 0 -163 36.5t-108 82t-59 81.5l-19 35l-19 -35q-19 -36 -62 -81.5t-109 -82t-158 -36.5q-80 0 -152.5 34.5t-128 96t-87 145.5t-31.5 185q0 100 31.5 184t87 145.5t128 96t152.5 34.5q92 0 158 -36.5
t109 -81.5q49 -53 81 -117q31 63 80 117q41 45 104.5 81.5t153.5 36.5q84 0 156 -29.5t124 -85t80.5 -135t28.5 -180.5q0 -16 -2 -28.5t-4 -22.5l-4 -20h-665q16 -154 98 -241t199 -87q61 0 105 21.5t73 50.5q35 31 57 71h113zM174 451q0 -80 26.5 -147.5t69.5 -117
t98.5 -77t112.5 -27.5t112.5 27.5t98.5 77t69.5 117t26.5 147.5t-26.5 147.5t-69.5 116.5t-98 76.5t-113 27.5q-57 0 -112.5 -27.5t-98.5 -76.5t-69.5 -116.5t-26.5 -147.5zM1167 819q-109 0 -186.5 -82t-99.5 -235h583q-16 154 -95 235.5t-202 81.5z" />
    <glyph glyph-name="Racute" unicode="&#x154;" horiz-adv-x="1116" 
d="M645 1690h123l-174 -246h-72zM1034 0h-123l-307 553h-328v-553h-102v1290h451q84 0 155 -28q72 -29 124 -79t81 -118t29 -143q0 -115 -48 -186t-106 -109q-68 -45 -153 -64zM276 645h349q61 0 113 22t91 59q39 38 61 88t21 108q0 57 -21 107q-22 50 -61 88t-91 60
t-113 21h-349v-553z" />
    <glyph glyph-name="racute" unicode="&#x155;" horiz-adv-x="614" 
d="M440 1311h123l-174 -246h-72zM573 911v-92h-51q-131 0 -209 -79t-77 -218v-522h-93v901h62l31 -133h10q25 39 65 72q35 27 89 49q54 23 132 22h41z" />
    <glyph glyph-name="uni0156" unicode="&#x156;" horiz-adv-x="1116" 
d="M512 -207q0 31 20 51t52 21q31 0 51 -22t20 -60q0 -51 -21 -92q-22 -41 -46 -70q-29 -35 -66 -63l-20 20q20 18 37 41q14 18 27 45t18 57q-31 0 -52 21q-20 20 -20 51zM1034 0h-123l-307 553h-328v-553h-102v1290h451q84 0 155 -28q72 -29 124 -79t81 -118t29 -143
q0 -115 -48 -186t-106 -109q-68 -45 -153 -64zM276 645h349q61 0 113 22t91 59q39 38 61 88t21 108q0 57 -21 107q-22 50 -61 88t-91 60t-113 21h-349v-553z" />
    <glyph glyph-name="uni0157" unicode="&#x157;" horiz-adv-x="614" 
d="M113 -225q0 31 20 51t51 20t52 -21q20 -22 20 -61q0 -51 -22 -92t-46 -69q-29 -35 -65 -64l-21 21q20 18 37 41q14 18 28 45q13 27 17 57q-31 0 -51 21q-20 20 -20 51zM573 911v-92h-51q-131 0 -209 -79t-77 -218v-522h-93v901h62l31 -133h10q25 39 65 72q35 27 89 49
q54 23 132 22h41z" />
    <glyph glyph-name="Rcaron" unicode="&#x158;" horiz-adv-x="1116" 
d="M532 1444l-194 235h102l133 -163l134 163h102l-195 -235h-82zM1034 0h-123l-307 553h-328v-553h-102v1290h451q84 0 155 -28q72 -29 124 -79t81 -118t29 -143q0 -115 -48 -186t-106 -109q-68 -45 -153 -64zM276 645h349q61 0 113 22t91 59q39 38 61 88t21 108
q0 57 -21 107q-22 50 -61 88t-91 60t-113 21h-349v-553z" />
    <glyph glyph-name="rcaron" unicode="&#x159;" horiz-adv-x="614" 
d="M317 1075l-194 236h102l133 -164l134 164h102l-195 -236h-82zM573 911v-92h-51q-131 0 -209 -79t-77 -218v-522h-93v901h62l31 -133h10q25 39 65 72q35 27 89 49q54 23 132 22h41z" />
    <glyph glyph-name="Sacute" unicode="&#x15a;" horiz-adv-x="1003" 
d="M594 1690h123l-174 -246h-72zM113 973q0 66 27 125q28 59 80 104t126 72t166 26q80 0 150 -28q70 -29 121 -78q52 -49 83 -114t35 -138h-102q-8 115 -86 191t-201 75q-70 0 -125 -19t-93 -52t-58 -76t-21 -88q0 -88 52 -136t131 -79t170 -55t170 -64q79 -41 131 -108
t53 -183q0 -78 -28 -143q-28 -66 -81 -113t-129 -75t-172 -27q-96 0 -172 27q-76 28 -130 77t-84 117t-34 147h103q16 -123 97 -199q81 -77 220 -77q147 0 227 75t80 191q0 92 -52 145q-52 52 -131 85t-170 56q-91 24 -170 62q-79 39 -131 103q-52 63 -52 174z" />
    <glyph glyph-name="sacute" unicode="&#x15b;" horiz-adv-x="808" 
d="M492 1311h122l-174 -246h-71zM727 256q0 -53 -22 -101q-23 -48 -63 -85t-96 -59t-126 -21q-74 0 -132 21q-58 22 -101 60q-42 38 -66 88q-25 50 -29 107h92q16 -86 72 -135q55 -49 164 -49q100 0 158 52q57 52 57 122q0 61 -39 94t-96 50t-126 31q-69 13 -126 38t-96 70
t-39 127q0 49 20 94t58 79t94 53q55 19 125 19q66 0 119 -21q54 -22 96 -56q41 -35 64 -82q24 -47 28 -97h-92q-16 70 -70 117q-53 47 -145 47q-100 0 -153 -46q-52 -46 -52 -107q0 -59 39 -89t96 -47q57 -16 126 -29t126 -39t96 -73t39 -133z" />
    <glyph glyph-name="Scedilla" unicode="&#x15e;" horiz-adv-x="1003" 
d="M113 973q0 66 27.5 125t79.5 104t126 71.5t166 26.5q80 0 149.5 -28.5t122 -77.5t83 -113.5t34.5 -138.5h-102q-8 115 -86 190.5t-201 75.5q-70 0 -125 -19.5t-93 -52t-58.5 -75.5t-20.5 -88q0 -88 52 -136.5t131 -79t170 -54t170 -64.5t131.5 -107.5t52.5 -183.5
q0 -74 -27 -137.5t-76 -110.5t-115.5 -76.5t-146.5 -33.5l-35 -72q61 -8 97 -42t36 -81q0 -61 -44 -102t-130 -41q-20 0 -34.5 1t-24.5 3q-12 2 -23 6v72q10 -4 21 -6q10 -2 22.5 -3t28.5 -1q53 0 77.5 20t24.5 51q0 23 -22.5 42.5t-69.5 19.5q-12 0 -21 -2t-16 -5
q-8 -2 -14 -4l57 144q-184 8 -285.5 107.5t-109.5 260.5h103q16 -123 97 -199.5t220 -76.5q147 0 227 74.5t80 191.5q0 92 -52 144.5t-131 85t-170 56t-170 62.5t-131 102.5t-52 174.5z" />
    <glyph glyph-name="scedilla" unicode="&#x15f;" horiz-adv-x="808" 
d="M727 256q0 -53 -20.5 -100t-56.5 -83t-85 -57.5t-108 -23.5l-35 -74q61 -8 97 -42t36 -81q0 -61 -44 -102t-130 -41q-20 0 -34.5 1t-24.5 3q-12 2 -23 6v72q10 -4 20 -6t22.5 -3t29.5 -1q53 0 77.5 20t24.5 51q0 23 -22.5 42.5t-69.5 19.5q-12 0 -21.5 -2t-15.5 -5
q-8 -2 -14 -4l57 144q-61 4 -113.5 25.5t-91.5 58.5t-62.5 86t-27.5 106h92q16 -86 71.5 -135t164.5 -49q100 0 157.5 52t57.5 122q0 61 -39 94t-96.5 50.5t-126 30.5t-126 38t-96 69t-38.5 126q0 51 20.5 96t58 78.5t93 53t125.5 19.5q66 0 120 -21.5t95 -56t64.5 -81.5
t27.5 -97h-92q-16 70 -69.5 117t-145.5 47q-100 0 -152.5 -46t-52.5 -109q0 -59 39 -88t96 -45.5t126 -30t126 -39t96 -72.5t39 -133z" />
    <glyph glyph-name="Scaron" unicode="&#x160;" horiz-adv-x="1003" 
d="M471 1444l-195 235h103l133 -163l133 163h103l-195 -235h-82zM113 973q0 66 27 125q28 59 80 104t126 72t166 26q80 0 150 -28q70 -29 121 -78q52 -49 83 -114t35 -138h-102q-8 115 -86 191t-201 75q-70 0 -125 -19t-93 -52t-58 -76t-21 -88q0 -88 52 -136t131 -79
t170 -55t170 -64q79 -41 131 -108t53 -183q0 -78 -28 -143q-28 -66 -81 -113t-129 -75t-172 -27q-96 0 -172 27q-76 28 -130 77t-84 117t-34 147h103q16 -123 97 -199q81 -77 220 -77q147 0 227 75t80 191q0 92 -52 145q-52 52 -131 85t-170 56q-91 24 -170 62
q-79 39 -131 103q-52 63 -52 174z" />
    <glyph glyph-name="scaron" unicode="&#x161;" horiz-adv-x="808" 
d="M369 1075l-195 236h102l134 -164l133 164h102l-194 -236h-82zM727 256q0 -53 -22 -101q-23 -48 -63 -85t-96 -59t-126 -21q-74 0 -132 21q-58 22 -101 60q-42 38 -66 88q-25 50 -29 107h92q16 -86 72 -135q55 -49 164 -49q100 0 158 52q57 52 57 122q0 61 -39 94t-96 50
t-126 31q-69 13 -126 38t-96 70t-39 127q0 49 20 94t58 79t94 53q55 19 125 19q66 0 119 -21q54 -22 96 -56q41 -35 64 -82q24 -47 28 -97h-92q-16 70 -70 117q-53 47 -145 47q-100 0 -153 -46q-52 -46 -52 -107q0 -59 39 -89t96 -47q57 -16 126 -29t126 -39t96 -73t39 -133
z" />
    <glyph glyph-name="uni0162" unicode="&#x162;" 
d="M420 -225q0 31 20 51t52 20q31 0 51 -21q20 -22 20 -61q0 -51 -21 -92q-22 -41 -46 -69q-29 -35 -66 -64l-20 21q20 18 36 41q14 18 28 45q13 27 18 57q-31 0 -52 21q-20 20 -20 51zM41 1290h901v-92h-399v-1198h-103v1198h-399v92z" />
    <glyph glyph-name="uni0163" unicode="&#x163;" horiz-adv-x="655" 
d="M338 -225q0 31 20 51t52 20q31 0 51 -21q20 -22 20 -61q0 -51 -21 -92q-22 -41 -46 -69q-29 -35 -66 -64l-20 21q20 18 37 41q14 18 27 45t18 57q-31 0 -52 21q-20 20 -20 51zM236 809h-175v92h82q102 0 103 103v163h82v-266h225v-92h-225v-553q0 -92 47 -133t117 -41
q25 0 45 4q8 2 16 6v-82q-10 -6 -23 -10q-25 -10 -59 -10q-100 0 -168 71q-68 72 -67 195v553z" />
    <glyph glyph-name="Tcaron" unicode="&#x164;" 
d="M451 1444l-195 235h102l134 -163l133 163h102l-195 -235h-81zM41 1290h901v-92h-399v-1198h-103v1198h-399v92z" />
    <glyph glyph-name="tcaron" unicode="&#x165;" horiz-adv-x="675" 
d="M635 1290h123l-123 -246h-72zM236 809h-175v92h82q102 0 103 103v163h82v-266h225v-92h-225v-553q0 -92 47 -133t117 -41q25 0 45 4q8 2 16 6v-82q-10 -6 -23 -10q-25 -10 -59 -10q-100 0 -167.5 71.5t-67.5 194.5v553z" />
    <glyph glyph-name="Umacron" unicode="&#x16a;" horiz-adv-x="1228" 
d="M860 1485h-481v92h481v-92zM614 -10q-104 0 -189 34t-145 97t-94 154q-33 91 -32 206v809h102v-809q0 -193 98 -296t260 -103t260 103t99 296v809h102v-809q0 -115 -33 -206t-93 -154t-145 -97q-86 -34 -190 -34z" />
    <glyph glyph-name="umacron" unicode="&#x16b;" horiz-adv-x="1034" 
d="M758 1116h-482v92h482v-92zM502 -10q-78 0 -144 27q-66 28 -112 78q-47 50 -75 120t-28 154v532h93v-532q0 -61 21 -114q22 -52 59 -91q38 -39 88 -61t108 -21q61 0 114 21q52 22 91 61t60 91q22 52 22 114v532h92v-901h-62l-30 133h-11q-29 -41 -67 -72q-35 -29 -88 -50
t-131 -21z" />
    <glyph glyph-name="Uring" unicode="&#x16e;" horiz-adv-x="1228" 
d="M451 1577q0 70 47 117t116 47q70 0 117 -47t47 -117t-47 -117t-117 -47t-116 47q-47 47 -47 117zM522 1577q0 -39 27 -66t65 -26q39 0 66 26q27 27 27 66t-27 65q-27 27 -66 27t-65 -27q-27 -26 -27 -65zM614 -10q-104 0 -189 34t-145 97t-94 154q-33 91 -32 206v809h102
v-809q0 -193 98 -296t260 -103t260 103t99 296v809h102v-809q0 -115 -33 -206t-93 -154t-145 -97q-86 -34 -190 -34z" />
    <glyph glyph-name="uring" unicode="&#x16f;" horiz-adv-x="1034" 
d="M358 1206q0 70 48 117q47 47 116 47q70 0 117 -47t47 -117t-47 -116q-47 -47 -117 -48q-70 0 -116 48q-48 46 -48 116zM430 1206q0 -39 27 -65q27 -27 65 -27q39 0 66 27t26 65q0 39 -26 66q-27 27 -66 26q-39 0 -65 -26q-27 -27 -27 -66zM502 -10q-78 0 -144 27
q-66 28 -112 78q-47 50 -75 120t-28 154v532h93v-532q0 -61 21 -114q22 -52 59 -91q38 -39 88 -61t108 -21q61 0 114 21q52 22 91 61t60 91q22 52 22 114v532h92v-901h-62l-30 133h-11q-29 -41 -67 -72q-35 -29 -88 -50t-131 -21z" />
    <glyph glyph-name="Uhungarumlaut" unicode="&#x170;" horiz-adv-x="1228" 
d="M584 1690h123l-185 -246h-71zM829 1690h123l-184 -246h-72zM614 -10q-104 0 -189 34t-145 97t-94 154q-33 91 -32 206v809h102v-809q0 -193 98 -296t260 -103t260 103t99 296v809h102v-809q0 -115 -33 -206t-93 -154t-145 -97q-86 -34 -190 -34z" />
    <glyph glyph-name="uhungarumlaut" unicode="&#x171;" horiz-adv-x="1034" 
d="M492 1321h122l-184 -246h-72zM737 1321h123l-184 -246h-72zM502 -10q-78 0 -144 27q-66 28 -112 78q-47 50 -75 120t-28 154v532h93v-532q0 -61 21 -114q22 -52 59 -91q38 -39 88 -61t108 -21q61 0 114 21q52 22 91 61t60 91q22 52 22 114v532h92v-901h-62l-30 133h-11
q-29 -41 -67 -72q-35 -29 -88 -50t-131 -21z" />
    <glyph glyph-name="Uogonek" unicode="&#x172;" horiz-adv-x="1228" 
d="M1075 481q0 -217 -105.5 -337.5t-279.5 -147.5q-23 -25 -39 -51q-14 -23 -25.5 -53.5t-11.5 -65.5q0 -39 28 -65.5t75 -26.5q16 0 28.5 1t22.5 3t20 6v-72q-10 -4 -20 -6t-22.5 -3t-28.5 -1q-86 0 -135.5 47t-49.5 117q0 31 12.5 60.5t28.5 52.5q18 27 41 51
q-104 0 -189 33.5t-145.5 97t-93 155t-32.5 205.5v809h102v-809q0 -193 98.5 -296t259.5 -103q162 0 260.5 103.5t98.5 295.5v809h102v-809v0z" />
    <glyph glyph-name="uogonek" unicode="&#x173;" horiz-adv-x="1034" 
d="M799 133h-11q-29 -41 -67 -72q-35 -29 -88 -50t-131 -21t-143.5 27.5t-112.5 77.5t-75 120t-28 154v532h93v-532q0 -61 21.5 -113.5t59 -91.5t88 -60.5t107.5 -21.5q61 0 113.5 21.5t91.5 60.5t60.5 91t21.5 114v532h92v-901q-23 -25 -41 -53q-16 -25 -28.5 -55.5
t-12.5 -65.5q0 -39 27.5 -65.5t74.5 -26.5q16 0 28.5 1t23.5 3q10 2 20 6v-72q-10 -4 -20 -6t-22.5 -3t-29.5 -1q-86 0 -135 47t-49 117q0 35 15.5 67.5t35.5 59.5q23 31 51 57z" />
    <glyph glyph-name="Ydieresis" unicode="&#x178;" horiz-adv-x="1024" 
d="M737 1546q0 -31 -20 -51t-51 -20t-52 20q-20 20 -20 51t20 51t52 21q31 0 51 -21q20 -20 20 -51zM430 1546q0 -31 -20 -51t-52 -20q-31 0 -51 20t-20 51t20 51t51 21q31 0 52 -21q20 -20 20 -51zM461 512l-430 778h112l369 -676l369 676h112l-430 -778v-512h-102v512z
" />
    <glyph glyph-name="Zacute" unicode="&#x179;" horiz-adv-x="1003" 
d="M594 1690h123l-174 -246h-72zM113 1290h798v-71l-696 -1127h707v-92h-840v72l696 1126h-665v92z" />
    <glyph glyph-name="zacute" unicode="&#x17a;" horiz-adv-x="757" 
d="M461 1321h123l-174 -246h-72zM563 809h-502v92h625v-72l-502 -737h512v-92h-635v72z" />
    <glyph glyph-name="Zdotaccent" unicode="&#x17b;" horiz-adv-x="1003" 
d="M440 1546q0 31 21 51q20 20 51 21q31 0 51 -21q20 -20 21 -51q0 -31 -21 -51q-20 -20 -51 -20t-51 20q-21 20 -21 51zM113 1290h798v-71l-696 -1127h707v-92h-840v72l696 1126h-665v92z" />
    <glyph glyph-name="zdotaccent" unicode="&#x17c;" horiz-adv-x="757" 
d="M307 1178q0 31 21 51q20 20 51 20t51 -20t21 -51q0 -31 -21 -52q-20 -20 -51 -20t-51 20q-21 21 -21 52zM563 809h-502v92h625v-72l-502 -737h512v-92h-635v72z" />
    <glyph glyph-name="Zcaron" unicode="&#x17d;" horiz-adv-x="1003" 
d="M471 1434l-195 235h103l133 -164l133 164h103l-195 -235h-82zM113 1290h798v-71l-696 -1127h707v-92h-840v72l696 1126h-665v92z" />
    <glyph glyph-name="zcaron" unicode="&#x17e;" horiz-adv-x="757" 
d="M338 1065l-195 235h103l133 -163l133 163h102l-194 -235h-82zM563 809h-502v92h625v-72l-502 -737h512v-92h-635v72z" />
    <glyph glyph-name="florin" unicode="&#x192;" horiz-adv-x="675" 
d="M379 666l-123 -666q-31 -184 -103.5 -261t-203.5 -77q-35 0 -60 10q-12 4 -22 11l20 81q8 -4 19 -6q10 -2 20.5 -3t22.5 -1q78 0 126 53.5t79 192.5q31 160 62.5 333t59.5 333h-133l21 92h133l41 205q31 184 103.5 260.5t203.5 76.5q18 0 33.5 -3t26.5 -7q12 -6 22 -10
l-20 -82q-8 2 -19 4q-10 2 -21.5 4t-21.5 2q-78 0 -126 -53t-79 -192q-6 -23 -13 -58t-13 -67q-8 -37 -15 -80h226l-21 -92h-225z" />
    <glyph glyph-name="uni0218" unicode="&#x218;" horiz-adv-x="1003" 
d="M440 -205q0 31 21 51q20 20 51 21q31 0 51 -22t21 -60q0 -51 -22 -92t-46 -70q-29 -35 -65 -63l-21 20q20 18 37 41q14 18 28 45q13 27 17 58q-31 0 -51 20q-21 20 -21 51zM113 973q0 66 27 125q28 59 80 104t126 72t166 26q80 0 150 -28q70 -29 121 -78q52 -49 83 -114
t35 -138h-102q-8 115 -86 191t-201 75q-70 0 -125 -19t-93 -52t-58 -76t-21 -88q0 -88 52 -136t131 -79t170 -55t170 -64q79 -41 131 -108t53 -183q0 -78 -28 -143q-28 -66 -81 -113t-129 -75t-172 -27q-96 0 -172 27q-76 28 -130 77t-84 117t-34 147h103q16 -123 97 -199
q81 -77 220 -77q147 0 227 75t80 191q0 92 -52 145q-52 52 -131 85t-170 56q-91 24 -170 62q-79 39 -131 103q-52 63 -52 174z" />
    <glyph glyph-name="uni0219" unicode="&#x219;" horiz-adv-x="808" 
d="M348 -225q0 31 21 51q20 20 51 20t51 -21q20 -22 21 -61q0 -51 -22 -92t-46 -69q-29 -35 -66 -64l-20 21q20 18 37 41q14 18 27 45t18 57q-31 0 -51 21q-21 20 -21 51zM727 256q0 -53 -22 -101q-23 -48 -63 -85t-96 -59t-126 -21q-74 0 -132 21q-58 22 -101 60
q-42 38 -66 88q-25 50 -29 107h92q16 -86 72 -135q55 -49 164 -49q100 0 158 52q57 52 57 122q0 61 -39 94t-96 50t-126 31q-69 13 -126 38t-96 70t-39 127q0 49 20 94t58 79t94 53q55 19 125 19q66 0 119 -21q54 -22 96 -56q41 -35 64 -82q24 -47 28 -97h-92
q-16 70 -70 117q-53 47 -145 47q-100 0 -153 -46q-52 -46 -52 -107q0 -59 39 -89t96 -47q57 -16 126 -29t126 -39t96 -73t39 -133z" />
    <glyph glyph-name="uni021A" unicode="&#x21a;" 
d="M420 -225q0 31 20 51t52 20q31 0 51 -21q20 -22 20 -61q0 -51 -21 -92q-22 -41 -46 -69q-29 -35 -66 -64l-20 21q20 18 36 41q14 18 28 45q13 27 18 57q-31 0 -52 21q-20 20 -20 51zM41 1290h901v-92h-399v-1198h-103v1198h-399v92z" />
    <glyph glyph-name="uni021B" unicode="&#x21b;" horiz-adv-x="655" 
d="M338 -225q0 31 20 51t52 20q31 0 51 -21q20 -22 20 -61q0 -51 -21 -92q-22 -41 -46 -69q-29 -35 -66 -64l-20 21q20 18 37 41q14 18 27 45t18 57q-31 0 -52 21q-20 20 -20 51zM236 809h-175v92h82q102 0 103 103v163h82v-266h225v-92h-225v-553q0 -92 47 -133t117 -41
q25 0 45 4q8 2 16 6v-82q-10 -6 -23 -10q-25 -10 -59 -10q-100 0 -168 71q-68 72 -67 195v553z" />
    <glyph glyph-name="uni02BC" unicode="&#x2bc;" horiz-adv-x="276" 
d="M72 1219q0 31 20.5 51t50.5 20q31 0 51.5 -21.5t20.5 -60.5q0 -51 -21.5 -92t-46.5 -69q-29 -35 -65 -64l-21 21q20 18 37 40q14 18 27.5 45t17.5 58q-31 0 -51 20.5t-20 51.5z" />
    <glyph glyph-name="circumflex" unicode="&#x2c6;" horiz-adv-x="593" 
d="M338 1270l194 -236h-102l-133 164l-133 -164h-103l195 236h82z" />
    <glyph glyph-name="caron" unicode="&#x2c7;" horiz-adv-x="593" 
d="M256 1034l-195 236h103l133 -164l133 164h102l-194 -236h-82z" />
    <glyph glyph-name="breve" unicode="&#x2d8;" horiz-adv-x="573" 
d="M287 1137q61 0 98 40t45 93h82q-8 -92 -70.5 -153.5t-154.5 -61.5t-154.5 61.5t-71.5 153.5h82q8 -53 45.5 -93t98.5 -40z" />
    <glyph glyph-name="dotaccent" unicode="&#x2d9;" horiz-adv-x="266" 
d="M61 1198q0 31 20.5 51.5t51.5 20.5t51.5 -20.5t20.5 -51.5t-20.5 -51.5t-51.5 -20.5t-51.5 20.5t-20.5 51.5z" />
    <glyph glyph-name="ring" unicode="&#x2da;" horiz-adv-x="450" 
d="M61 1188q0 70 47.5 117t116.5 47q70 0 117 -47.5t47 -116.5q0 -70 -47 -117t-117 -47t-117 47t-47 117zM133 1188q0 -39 26.5 -65.5t65.5 -26.5t65.5 26.5t26.5 65.5t-26.5 65.5t-65.5 26.5t-65.5 -26.5t-26.5 -65.5z" />
    <glyph glyph-name="ogonek" unicode="&#x2db;" horiz-adv-x="378" 
d="M225 0q-23 -25 -41 -53q-16 -25 -28.5 -55.5t-12.5 -65.5q0 -39 28 -65.5t75 -26.5q16 0 28.5 1t22.5 3t20 6v-72q-10 -4 -20 -6t-22.5 -3t-28.5 -1q-86 0 -135.5 47t-49.5 117q0 35 14.5 65.5t30.5 55.5q20 29 48 53h71z" />
    <glyph glyph-name="tilde" unicode="&#x2dc;" horiz-adv-x="665" 
d="M451 1147q31 0 56 29.5t25 83.5h72q0 -100 -46 -152.5t-107 -52.5q-39 0 -71 20.5t-59.5 46t-53 46t-52.5 20.5q-31 0 -56.5 -30t-25.5 -83h-72q0 100 46.5 152.5t107.5 52.5q39 0 70.5 -20.5t59.5 -46t53.5 -46t52.5 -20.5z" />
    <glyph glyph-name="hungarumlaut" unicode="&#x2dd;" horiz-adv-x="624" 
d="M195 1290h122l-184 -246h-72zM440 1290h123l-184 -246h-72z" />
    <glyph glyph-name="uni0401" unicode="&#x401;" horiz-adv-x="1075" 
d="M799 1556q0 -31 -21 -51q-20 -20 -51 -20t-51 20t-21 51q0 31 21 52q20 20 51 20t51 -20q21 -21 21 -52zM492 1556q0 -31 -21 -51q-20 -20 -51 -20t-51 20t-21 51q0 31 21 52q20 20 51 20t51 -20q21 -21 21 -52zM973 92v-92h-799v1290h778v-92h-676v-481h625v-92h-625
v-533h697z" />
    <glyph glyph-name="uni0402" unicode="&#x402;" horiz-adv-x="1239" 
d="M1167 389q0 -223 -120.5 -348t-329.5 -133v92q162 8 255 105.5t93 283.5q0 76 -23.5 140.5t-65.5 110.5t-100.5 71.5t-127.5 25.5q-66 0 -123.5 -25.5t-100.5 -69.5t-68.5 -103.5t-25.5 -128.5v-410h-102v1198h-328v92h768v-92h-338v-543h10q29 49 74 86q39 33 98.5 60.5
t145.5 27.5q88 0 162.5 -32.5t130 -91t86 -139.5t30.5 -177z" />
    <glyph glyph-name="uni0403" unicode="&#x403;" horiz-adv-x="911" 
d="M276 1198v-1198h-102v1290h717v-92h-615zM614 1690h123l-174 -246h-71z" />
    <glyph glyph-name="uni0404" unicode="&#x404;" horiz-adv-x="1280" 
d="M195 604q6 -111 45 -207t102.5 -165.5t148 -109.5t185.5 -40q80 0 147.5 25.5t119.5 68.5t91 100.5t62 122.5h102q-27 -84 -75 -158.5t-113.5 -130t-149.5 -88t-184 -32.5q-115 0 -220.5 48t-186.5 134t-129 207t-48 266t48 266t129 207t186.5 134t220.5 48
q100 0 184 -32.5t148.5 -88t110.5 -130t69 -158.5h-103q-18 66 -55 123t-88 100t-118.5 68.5t-147.5 25.5q-109 0 -196 -45t-149.5 -118.5t-97 -165t-38.5 -183.5h553v-92h-553z" />
    <glyph glyph-name="uni0405" unicode="&#x405;" horiz-adv-x="1003" 
d="M113 973q0 66 27 125q28 59 80 104t126 72t166 26q80 0 150 -28q70 -29 121 -78q52 -49 83 -114t35 -138h-102q-8 115 -86 191t-201 75q-70 0 -125 -19t-93 -52t-58 -76t-21 -88q0 -88 52 -136t131 -79t170 -55t170 -64q79 -41 131 -108t53 -183q0 -78 -28 -143
q-28 -66 -81 -113t-129 -75t-172 -27q-96 0 -172 27q-76 28 -130 77t-84 117t-34 147h103q16 -123 97 -199q81 -77 220 -77q147 0 227 75t80 191q0 92 -52 145q-52 52 -131 85t-170 56q-91 24 -170 62q-79 39 -131 103q-52 63 -52 174z" />
    <glyph glyph-name="uni0406" unicode="&#x406;" horiz-adv-x="450" 
d="M276 0h-102v1290h102v-1290z" />
    <glyph glyph-name="uni0407" unicode="&#x407;" horiz-adv-x="450" 
d="M451 1556q0 -31 -21 -51q-20 -20 -51 -20t-51 20t-21 51q0 31 21 52q20 20 51 20t51 -20q21 -21 21 -52zM143 1556q0 -31 -20 -51t-51 -20t-52 20q-20 20 -20 51t20 52q20 20 52 20q31 0 51 -20q20 -21 20 -52zM276 0h-102v1290h102v-1290z" />
    <glyph glyph-name="uni0408" unicode="&#x408;" horiz-adv-x="962" 
d="M819 1290v-901q0 -186 -105 -293q-105 -106 -284 -106q-88 0 -160 26q-72 27 -123 74t-78 111q-28 63 -28 137h102q4 -53 27 -100t59 -82q37 -35 88 -55q51 -19 113 -19q61 0 114 22q52 23 91 63t60 96q22 56 22 126v901h102z" />
    <glyph glyph-name="uni0409" unicode="&#x409;" horiz-adv-x="1853" 
d="M963 0v1198h-523l-61 -829q-14 -193 -99 -286t-208 -93q-12 0 -22.5 1t-20.5 3t-19 6v82h31q100 0 162.5 69.5t72.5 217.5l72 921h717v-512h317q84 0 157 -30.5t127 -83t85 -124t31 -151.5t-31 -151.5t-85 -124t-127 -83t-157 -30.5h-419zM1065 686v-594h317
q61 0 115.5 23.5t94.5 63.5t63.5 94.5t23.5 115.5t-23.5 115.5t-63.5 94.5t-94 63.5t-116 23.5h-317z" />
    <glyph glyph-name="uni040A" unicode="&#x40a;" horiz-adv-x="1843" 
d="M952 0v686h-676v-686h-102v1290h102v-512h676v512h103v-512h317q84 0 157 -30.5t127 -83t85 -124t31 -151.5t-31 -151.5t-85 -124t-127 -83t-157 -30.5h-420zM1055 686v-594h317q61 0 115.5 23.5t94.5 63.5t63.5 94.5t23.5 115.5t-23.5 115.5t-63.5 94.5t-94 63.5
t-116 23.5h-317z" />
    <glyph glyph-name="uni040B" unicode="&#x40b;" horiz-adv-x="1290" 
d="M0 1290h768v-92h-338v-543h10q31 49 76 86q39 33 96.5 60.5t135.5 27.5q84 0 156.5 -30.5t126.5 -87t85 -133t31 -168.5v-410h-103v410q0 70 -24.5 129t-67.5 103t-98 69.5t-117 25.5q-61 0 -116.5 -25.5t-98.5 -69.5t-67.5 -103.5t-24.5 -128.5v-410h-102v1198h-328v92z
" />
    <glyph glyph-name="uni040C" unicode="&#x40c;" horiz-adv-x="1003" 
d="M614 1690h123l-174 -246h-71zM276 655v-655h-102v1290h102v-635l553 635h134l-564 -635l605 -655h-134z" />
    <glyph glyph-name="uni040E" unicode="&#x40e;" horiz-adv-x="1024" 
d="M1004 1290l-482 -1054q-31 -70 -61 -118q-31 -48 -64 -79t-72 -45q-40 -14 -89 -14q-35 0 -60 10q-12 4 -22 10v82q10 -4 20 -6t23 -3q12 -1 28 -1q61 0 104 40q42 40 81 124l61 133l-440 921h112l379 -809h10q27 59 56 127q25 57 56 129q32 72 67 150q80 178 180 403
h113zM532 1495q61 0 99 40q37 40 45 93h82q-8 -92 -71 -153q-62 -61 -155 -62q-92 0 -154 62q-62 61 -71 153h82q8 -53 45 -93t98 -40z" />
    <glyph glyph-name="uni040F" unicode="&#x40f;" horiz-adv-x="1228" 
d="M174 0v1290h102v-1198h676v1198h103v-1290h-389v-276h-103v276h-389z" />
    <glyph glyph-name="uni0410" unicode="&#x410;" horiz-adv-x="1085" 
d="M1085 0h-112l-133 348h-594l-133 -348h-113l502 1290h82zM543 1126l-267 -686h533z" />
    <glyph glyph-name="uni0411" unicode="&#x411;" horiz-adv-x="1126" 
d="M174 1290h758v-92h-656v-461h369q84 0 155.5 -28.5t124 -78.5t81 -118t28.5 -143q0 -78 -28.5 -144.5t-81 -117t-124 -79t-155.5 -28.5h-471v1290zM276 645v-553h369q61 0 113.5 21.5t91.5 59.5t60.5 88t21.5 108q0 57 -21.5 107t-60.5 88t-91 59.5t-114 21.5h-369z" />
    <glyph glyph-name="uni0412" unicode="&#x412;" horiz-adv-x="1146" 
d="M809 686q70 -27 123 -70q47 -37 85 -98t38 -149q0 -78 -30 -145t-83 -116q-53 -50 -129 -79t-168 -29h-471v1290h451q84 0 152 -25q69 -26 117 -70t74 -103t25 -129q0 -78 -28 -130q-29 -52 -64 -85q-41 -37 -92 -62zM276 635v-543h369q66 0 122 23t97 61q41 39 65 89
t23 104q0 49 -23 97q-24 48 -65 86t-97 60q-56 23 -122 23h-369zM276 727h349q123 0 194 68q72 68 72 168t-72 167q-72 68 -194 68h-349v-471z" />
    <glyph glyph-name="uni0413" unicode="&#x413;" horiz-adv-x="911" 
d="M276 1198v-1198h-102v1290h717v-92h-615z" />
    <glyph glyph-name="uni0414" unicode="&#x414;" horiz-adv-x="1218" 
d="M10 92h62q37 27 69 64q27 33 51.5 80t32.5 112l113 942h676v-1198h143v-368h-102v276h-942v-276h-103v368zM328 348q-8 -66 -27.5 -113t-42.5 -79q-25 -37 -53 -64h706v1106h-481z" />
    <glyph glyph-name="uni0415" unicode="&#x415;" horiz-adv-x="1075" 
d="M973 92v-92h-799v1290h778v-92h-676v-481h625v-92h-625v-533h697z" />
    <glyph glyph-name="uni0416" unicode="&#x416;" horiz-adv-x="1392" 
d="M748 1290v-635l481 635h123l-492 -635l533 -655h-123l-522 655v-655h-103v1290h103zM123 0h-123l532 655l-491 635h123l481 -635z" />
    <glyph glyph-name="uni0417" unicode="&#x417;" horiz-adv-x="993" 
d="M92 952q4 74 34 137.5t80 110.5t120.5 73.5t154.5 26.5q88 0 160 -26.5t123 -73.5t78.5 -110.5t27.5 -137.5q0 -82 -33.5 -135t-74.5 -88q-47 -39 -107 -63q70 -25 123 -68q47 -37 85 -97.5t38 -152.5q0 -74 -29.5 -138.5t-83 -113.5t-129 -77.5t-167.5 -28.5
q-96 0 -172 27.5t-131.5 74.5t-87 112.5t-40.5 143.5h103q16 -117 98 -191.5t230 -74.5q70 0 126 21.5t96 58.5t62.5 85t22.5 101t-22.5 101.5t-62.5 85t-96.5 58t-125.5 21.5h-93v93h82q66 0 119 19t90 53t57.5 79t20.5 94q0 53 -20.5 100.5t-57.5 82t-90 54t-119 19.5
q-61 0 -112.5 -19.5t-88 -54t-59 -81.5t-26.5 -101h-103z" />
    <glyph glyph-name="uni0418" unicode="&#x418;" horiz-adv-x="1249" 
d="M276 1290v-1106l707 1106h92v-1290h-102v1106l-707 -1106h-92v1290h102z" />
    <glyph glyph-name="uni0419" unicode="&#x419;" horiz-adv-x="1249" 
d="M276 1290v-1106l707 1106h92v-1290h-102v1106l-707 -1106h-92v1290h102zM625 1505q61 0 103 40t50 93h82q-8 -92 -72 -153q-63 -61 -163 -62q-100 0 -164 62q-63 61 -72 153h82q8 -53 50 -93q43 -40 104 -40z" />
    <glyph glyph-name="uni041A" unicode="&#x41a;" horiz-adv-x="1003" 
d="M276 655v-655h-102v1290h102v-635l553 635h134l-564 -635l605 -655h-134z" />
    <glyph glyph-name="uni041B" unicode="&#x41b;" horiz-adv-x="1259" 
d="M1085 1290v-1290h-102v1198h-543l-61 -829q-14 -193 -99 -286t-208 -93q-12 0 -22.5 1t-20.5 3t-19 6v82h31q100 0 162.5 69.5t72.5 217.5l72 921h737z" />
    <glyph glyph-name="uni041C" unicode="&#x41c;" horiz-adv-x="1536" 
d="M1270 1290h92v-1290h-102v1024l-461 -1024h-62l-461 1024v-1024h-102v1290h92l502 -1116z" />
    <glyph glyph-name="uni041D" unicode="&#x41d;" horiz-adv-x="1249" 
d="M276 1290v-583h697v583h102v-1290h-102v614h-697v-614h-102v1290h102z" />
    <glyph glyph-name="uni041E" unicode="&#x41e;" horiz-adv-x="1351" 
d="M1260 645q0 -145 -49 -266q-48 -121 -129 -207t-186 -134t-220 -48t-220 48t-187 134q-81 86 -129 207t-48 266t48 266t129 207t187 134q105 48 220 48t220 -48t186 -134t129 -207q49 -121 49 -266zM195 645q0 -127 38 -230q39 -103 106 -177t154 -115t183 -41t183 41
t154 115t105 177q39 103 39 230t-39 231q-39 103 -105 177q-67 74 -154 114q-87 41 -183 41t-183 -41t-154 -114q-67 -74 -106 -177q-38 -104 -38 -231z" />
    <glyph glyph-name="uni041F" unicode="&#x41f;" horiz-adv-x="1239" 
d="M1065 1290v-1290h-102v1198h-687v-1198h-102v1290h891z" />
    <glyph glyph-name="uni0420" unicode="&#x420;" horiz-adv-x="1064" 
d="M584 1290q84 0 156 -30q73 -31 127 -83t85 -124t31 -152t-31 -151q-31 -72 -85 -124t-127 -83t-156 -31h-308v-512h-102v1290h410zM584 604q61 0 115 24t95 63q40 40 63 94q24 54 24 116q0 61 -24 116q-24 54 -63 94q-40 40 -95 64q-54 24 -115 23h-308v-594h308z" />
    <glyph glyph-name="uni0421" unicode="&#x421;" horiz-adv-x="1290" 
d="M676 1208q-96 0 -183 -41t-154 -114q-67 -74 -106 -177t-38 -231q0 -127 38 -230q39 -103 106 -177t154 -115t183 -41q162 0 269 97q108 97 161 251h102q-31 -96 -80 -177t-116 -139q-68 -58 -152 -91t-184 -33q-115 0 -220 48t-187 134q-81 86 -129 207t-48 266t48 266
t129 207t187 134q105 48 220 48q100 0 184 -32q84 -33 150 -91t113 -140q48 -81 75 -177h-102q-47 154 -153 251q-105 97 -267 97z" />
    <glyph glyph-name="uni0422" unicode="&#x422;" 
d="M41 1290h901v-92h-399v-1198h-103v1198h-399v92z" />
    <glyph glyph-name="uni0423" unicode="&#x423;" horiz-adv-x="1024" 
d="M1004 1290l-482 -1054q-31 -70 -61.5 -118t-63 -79t-72.5 -45t-89 -14q-35 0 -60 10q-12 4 -22 10v82q10 -4 20 -6t22.5 -3t28.5 -1q61 0 103.5 40t81.5 124l61 133l-440 921h112l379 -809h10q27 59 56 127q25 57 56.5 129t66.5 150q80 178 180 403h113z" />
    <glyph glyph-name="uni0424" unicode="&#x424;" horiz-adv-x="1474" 
d="M788 -10h-102v174q-141 4 -251.5 44t-186.5 107.5t-116 156.5t-40 194q0 104 40 193t116 156.5t186.5 107.5t251.5 44v123h102v-123q141 -4 252 -44t187 -107.5t115.5 -156.5t39.5 -193t-39.5 -193.5t-115.5 -157t-186.5 -107.5t-252.5 -44v-174zM686 1075
q-119 -4 -211 -36.5t-154.5 -87t-94 -128t-31.5 -157.5t31.5 -158t94 -128t154.5 -87t211 -37v819zM788 256q119 4 211.5 37t155 87t94 128t31.5 158t-31.5 157.5t-94 128t-155 87t-211.5 36.5v-819z" />
    <glyph glyph-name="uni0425" unicode="&#x425;" horiz-adv-x="1064" 
d="M881 1290h123l-410 -635l430 -655h-123l-369 573l-368 -573h-123l430 655l-410 635h123l348 -553z" />
    <glyph glyph-name="uni0426" unicode="&#x426;" horiz-adv-x="1239" 
d="M174 0v1290h102v-1198h666v1198h102v-1198h144v-368h-103v276h-911z" />
    <glyph glyph-name="uni0427" unicode="&#x427;" horiz-adv-x="1177" 
d="M1004 1290v-1290h-103v532q-43 -35 -96 -61q-45 -23 -107.5 -42t-134.5 -19q-96 0 -174 29.5t-132 84t-84 132t-30 173.5v461h103v-461q0 -154 85 -240.5t232 -86.5q72 0 134.5 19.5t107.5 41.5q53 27 96 62v665h103z" />
    <glyph glyph-name="uni0428" unicode="&#x428;" horiz-adv-x="1699" 
d="M276 1290v-1198h523v1198h102v-1198h522v1198h103v-1290h-1352v1290h102z" />
    <glyph glyph-name="uni0429" unicode="&#x429;" horiz-adv-x="1720" 
d="M276 1290v-1198h523v1198h102v-1198h522v1198h103v-1198h143v-368h-102v276h-1393v1290h102z" />
    <glyph glyph-name="uni042A" unicode="&#x42a;" horiz-adv-x="1198" 
d="M0 1290h410v-512h317q84 0 156.5 -30.5t127 -83t85 -124t30.5 -151.5t-30.5 -151.5t-85 -124t-127 -83t-156.5 -30.5h-420v1198h-307v92zM410 686v-594h317q61 0 115.5 23.5t94.5 63.5t63.5 94.5t23.5 115.5t-23.5 115.5t-63.5 94.5t-94.5 63.5t-115.5 23.5h-317z" />
    <glyph glyph-name="uni042B" unicode="&#x42b;" horiz-adv-x="1433" 
d="M1157 1290h103v-1290h-103v1290zM174 0v1290h102v-512h297q84 0 157 -30.5t127 -83t85 -124t31 -151.5t-31 -151.5t-85 -124t-127 -83t-157 -30.5h-399zM276 686v-594h297q61 0 115.5 23.5t94.5 63.5t63.5 94.5t23.5 115.5t-23.5 115.5t-63.5 94.5t-94 63.5t-116 23.5
h-297z" />
    <glyph glyph-name="uni042C" unicode="&#x42c;" horiz-adv-x="1064" 
d="M174 0v1290h102v-512h318q84 0 156.5 -30.5t127 -83t85 -124t30.5 -151.5t-30.5 -151.5t-85 -124t-127 -83t-156.5 -30.5h-420zM276 686v-594h318q61 0 115.5 23.5t94.5 63.5t63.5 94.5t23.5 115.5t-23.5 115.5t-63.5 94.5t-94.5 63.5t-115.5 23.5h-318z" />
    <glyph glyph-name="uni042D" unicode="&#x42d;" horiz-adv-x="1269" 
d="M522 696h553q-4 92 -39 183.5t-97 165t-150.5 118.5t-194.5 45q-80 0 -147.5 -25.5t-119 -68.5t-88 -100.5t-55.5 -122.5h-102q23 84 69 158.5t110.5 130t148.5 88t184 32.5q115 0 220.5 -48t186 -134t129 -206.5t48.5 -266.5q0 -145 -48.5 -266t-129 -207t-186 -134
t-220.5 -48q-100 0 -184 32.5t-149.5 88t-114 130t-74.5 158.5h102q23 -66 61.5 -123t91 -100t120 -68.5t147.5 -25.5q100 0 185 40t148.5 109.5t102.5 166t45 206.5h-553v92z" />
    <glyph glyph-name="uni042E" unicode="&#x42e;" horiz-adv-x="1720" 
d="M1628 645q0 -150 -46 -270.5t-124 -206.5t-180 -132t-213 -46t-210 44t-175 124t-123 190.5t-55 245.5h-226v-594h-102v1290h102v-604h226q8 135 53 248t121 193.5t175 126.5t214 46q111 0 213 -46t180 -132t124 -206.5t46 -270.5zM1526 645q0 131 -38 235.5t-100.5 177
t-146.5 111.5t-176 39t-176 -39t-147.5 -111.5t-100.5 -177t-37 -235.5t38 -235.5t100.5 -177t146.5 -111.5t176 -39t176 39t146.5 111.5t100.5 177t38 235.5z" />
    <glyph glyph-name="uni042F" unicode="&#x42f;" horiz-adv-x="1126" 
d="M420 563q-84 18 -150 64q-55 39 -101 109.5t-46 185.5q0 76 28.5 143.5t81 117.5t124 78.5t155.5 28.5h440v-1290h-102v553h-328l-317 -553h-123zM850 1198h-338q-61 0 -113.5 -21.5t-91.5 -59.5t-60.5 -88t-21.5 -107t21.5 -107.5t60.5 -88.5t91.5 -59.5t113.5 -21.5
h338v553z" />
    <glyph glyph-name="uni0430" unicode="&#x430;" horiz-adv-x="931" 
d="M420 82q131 0 209 78t78 209v82h-113q-119 0 -198 -17q-79 -16 -126 -44t-66 -64q-19 -37 -20 -80q0 -61 60 -113q59 -51 176 -51zM471 911q74 0 134 -23q60 -24 104 -66q43 -42 66 -100q24 -58 24 -128v-594h-62l-30 133h-11q-29 -41 -67 -72q-35 -29 -88 -50
q-53 -22 -131 -21q-154 0 -236 73q-82 74 -82 183q0 61 27 115t86 95q59 40 154 63q95 24 235 24h113v51q0 100 -64 163q-63 62 -172 62t-166 -47t-80 -117h-92q8 49 35 97q27 47 70 82t101 56t132 21z" />
    <glyph glyph-name="uni0431" unicode="&#x431;" horiz-adv-x="993" 
d="M184 655q29 59 76 107q41 41 101.5 74.5t150.5 33.5q84 0 156.5 -32.5t127 -91t85 -139.5t30.5 -177t-30.5 -177t-85 -139.5t-127 -91t-156.5 -32.5t-161 35.5t-134 107.5t-91 176.5t-34 243.5q0 197 37 332t123 222t225 132t342 61v-92q-172 -8 -291.5 -43
t-195.5 -102.5t-113 -168.5t-45 -239h10zM205 430q0 -78 24.5 -141.5t67.5 -109.5t98.5 -71.5t116.5 -25.5t116.5 24.5t98.5 69.5t67.5 109.5t24.5 144.5q0 76 -24.5 140.5t-67.5 110.5t-98.5 71.5t-116.5 25.5t-116.5 -25.5t-98.5 -71.5t-67.5 -110.5t-24.5 -140.5z" />
    <glyph glyph-name="uni0432" unicode="&#x432;" horiz-adv-x="901" 
d="M645 471q45 -18 82 -47q31 -25 56.5 -66t25.5 -102q0 -53 -21.5 -100t-59.5 -82t-88 -54.5t-108 -19.5h-389v901h359q61 0 112.5 -18.5t87 -50t56 -74.5t20.5 -92q0 -53 -21.5 -91t-45.5 -61q-29 -27 -66 -43zM236 809v-297h266q86 0 135 46t49 108q0 53 -50 98t-134 45
h-266zM236 420v-328h296q39 0 73 14.5t58.5 37t39 52t14.5 60.5t-14.5 60.5t-39 52t-58.5 37t-73 14.5h-296z" />
    <glyph glyph-name="uni0433" unicode="&#x433;" horiz-adv-x="716" 
d="M696 809h-460v-809h-93v901h553v-92z" />
    <glyph glyph-name="uni0434" unicode="&#x434;" horiz-adv-x="993" 
d="M942 92v-328h-92v236h-758v-236h-92v328h51q33 16 60 45q23 25 44 67t29 103l62 594h563v-809h133zM276 307q-6 -61 -24.5 -103t-38.5 -67q-23 -29 -49 -45h553v717h-389z" />
    <glyph glyph-name="uni0435" unicode="&#x435;" horiz-adv-x="993" 
d="M881 225q-18 -43 -52 -85q-33 -42 -78 -75q-46 -34 -106 -55q-59 -20 -133 -20q-92 0 -171 35t-136 96t-90 145t-33 185q0 100 33 184t89 145t133 97q77 35 165 34q84 0 158 -32q75 -33 131 -91q55 -57 88 -136t32 -171q0 -16 -2 -28t-4 -23l-4 -20h-727q8 -74 36 -135
q28 -60 72 -103t102 -67t128 -23q49 0 90 13t73 35t54 47q23 26 39 48h113zM502 819q-61 0 -116 -23q-54 -24 -97 -66t-73 -100t-42 -128h645q-8 70 -36 128t-69 100q-42 42 -97 66q-54 23 -115 23z" />
    <glyph glyph-name="uni0436" unicode="&#x436;" horiz-adv-x="1177" 
d="M635 901v-430l379 430h123l-389 -430l430 -471h-123l-420 471v-471h-92v901h92zM123 0h-123l430 471l-389 430h123l379 -430z" />
    <glyph glyph-name="uni0437" unicode="&#x437;" horiz-adv-x="768" 
d="M522 471q45 -18 82 -47q31 -25 56.5 -66t25.5 -102q0 -53 -21.5 -101.5t-61.5 -85t-94 -58t-120 -21.5q-74 0 -132 21.5t-100 59.5t-66.5 88t-29.5 107h93q16 -86 71.5 -135t163.5 -49q92 0 148.5 52t56.5 122q0 61 -52.5 112.5t-152.5 51.5h-92v92h82q49 0 86 14.5
t61.5 36t35.5 49t11 54.5q0 61 -47 107t-147 46q-92 0 -145.5 -47t-69.5 -117h-92q4 49 27.5 96.5t64.5 82t95 56t120 21.5t119 -19.5t90 -52t57.5 -75.5t20.5 -88q0 -59 -22.5 -97t-49.5 -63q-33 -29 -72 -45z" />
    <glyph glyph-name="uni0438" unicode="&#x438;" horiz-adv-x="1024" 
d="M881 901v-901h-93v748l-563 -748h-82v901h93v-747l563 747h82z" />
    <glyph glyph-name="uni0439" unicode="&#x439;" horiz-adv-x="1024" 
d="M881 901v-901h-93v748l-563 -748h-82v901h93v-747l563 747h82zM512 1147q61 0 98 40t45 93h82q-8 -92 -70 -154q-62 -61 -155 -61q-92 0 -155 61q-62 61 -70 154h82q8 -53 45 -93t98 -40z" />
    <glyph glyph-name="uni043A" unicode="&#x43a;" horiz-adv-x="808" 
d="M236 471v-471h-93v901h93v-430l409 430h123l-410 -430l451 -471h-123z" />
    <glyph glyph-name="uni043B" unicode="&#x43b;" 
d="M840 901v-901h-92v809h-410l-41 -502q-14 -170 -78.5 -243.5t-157.5 -73.5q-12 0 -22 1t-21 3q-10 2 -18 6v82h41q61 0 107.5 54t56.5 171l51 594h584z" />
    <glyph glyph-name="uni043C" unicode="&#x43c;" horiz-adv-x="1187" 
d="M553 0l-317 696v-696h-93v901h93l358 -788l358 788h92v-901h-92v696l-317 -696h-82z" />
    <glyph glyph-name="uni043D" unicode="&#x43d;" horiz-adv-x="1024" 
d="M881 901v-901h-93v420h-552v-420h-93v901h93v-389h552v389h93z" />
    <glyph glyph-name="uni043E" unicode="&#x43e;" horiz-adv-x="1003" 
d="M922 451q0 -100 -33 -185q-33 -84 -89 -145t-133 -96t-165 -35t-165 35t-133 96t-89 145t-33 185q0 100 33 184t89 145t133 97q77 35 165 34q88 0 165 -34q77 -35 133 -97q56 -61 89 -145t33 -184zM174 451q0 -80 27 -148t71 -117q45 -49 105 -76q59 -28 125 -28t125 28
t104 76q45 49 72 117t26 148q0 80 -26 147q-27 68 -72 117t-104 77t-125 27q-66 0 -125 -27q-59 -28 -105 -77q-45 -49 -71 -117q-27 -67 -27 -147z" />
    <glyph glyph-name="uni043F" unicode="&#x43f;" horiz-adv-x="1024" 
d="M881 901v-901h-93v809h-552v-809h-93v901h738z" />
    <glyph glyph-name="uni0440" unicode="&#x440;" horiz-adv-x="1054" 
d="M973 451q0 -100 -33 -185q-33 -84 -89 -145t-133 -96t-165 -35q-78 0 -135 25q-57 26 -96 57q-45 37 -76 82h-10v-482h-93v1229h62l31 -153h10q31 45 76 81q39 31 96 57t135 25q88 0 165 -34q77 -35 133 -97q56 -61 89 -145t33 -184zM553 82q66 0 125 28t104 76
q45 49 72 117t27 148t-27 147q-27 68 -72 117t-104 77t-125 27q-66 0 -125 -27q-59 -28 -104 -77t-72 -117t-27 -147q0 -80 27 -148t72 -117t104 -76q59 -28 125 -28z" />
    <glyph glyph-name="uni0441" unicode="&#x441;" horiz-adv-x="962" 
d="M502 819q-66 0 -125 -27q-59 -28 -105 -77q-45 -49 -71 -117q-27 -68 -27 -147q0 -80 27 -148t71 -117q45 -49 105 -76q59 -28 125 -28q109 0 182 66q74 67 104 159h103q-39 -139 -137 -228t-252 -89q-88 0 -165 35t-133 96t-89 145t-33 185q0 100 33 184t89 145t133 97
q77 35 165 34q154 0 252 -89t137 -228h-103q-31 92 -104 159q-73 66 -182 66z" />
    <glyph glyph-name="uni0442" unicode="&#x442;" horiz-adv-x="768" 
d="M31 901h706v-92h-307v-809h-92v809h-307v92z" />
    <glyph glyph-name="uni0443" unicode="&#x443;" horiz-adv-x="880" 
d="M31 901h102l307 -768l308 768h102l-410 -1003q-47 -123 -103 -180q-56 -56 -142 -56q-12 0 -23 1q-10 1 -20 3t-19 6v82h41q61 0 96 33t68 111l51 122z" />
    <glyph glyph-name="uni0444" unicode="&#x444;" horiz-adv-x="1402" 
d="M748 184q23 -29 53 -51q27 -20 63.5 -35.5t87.5 -15.5q53 0 103.5 24.5t88.5 71.5t61.5 115.5t23.5 157.5q0 88 -23.5 156.5t-61.5 115.5t-88 71.5t-104 24.5q-51 0 -88 -16.5t-63 -34.5q-31 -23 -53 -51v-533zM655 82q-27 -27 -57 -47q-29 -16 -64.5 -30.5t-82.5 -14.5
q-78 0 -144.5 30.5t-117 89t-79 144.5t-28.5 197t28.5 196.5t79 144t117 89t144.5 30.5q47 0 82.5 -15t64.5 -32q31 -20 57 -45v471h93v-471q23 25 55 45q27 16 64.5 31.5t84.5 15.5q76 0 143.5 -30.5t118 -89t79 -144.5t28.5 -196q0 -111 -28.5 -197t-79 -144.5t-118 -89
t-143.5 -30.5q-47 0 -85 14t-64 31q-33 20 -55 47v-410h-93v410zM655 717q-23 29 -53 51q-27 18 -64.5 34.5t-86.5 16.5q-53 0 -103.5 -24.5t-89.5 -71.5t-61.5 -115.5t-22.5 -156.5t22.5 -157t61.5 -116t89 -71.5t104 -24.5q49 0 86.5 15.5t64.5 35.5q31 23 53 51v533z" />
    <glyph glyph-name="uni0445" unicode="&#x445;" horiz-adv-x="757" 
d="M20 901h113l246 -369l246 369h112l-297 -440l318 -461h-113l-266 389l-266 -389h-113l317 461z" />
    <glyph glyph-name="uni0446" unicode="&#x446;" horiz-adv-x="1044" 
d="M993 92v-328h-92v236h-758v901h93v-809h532v809h92v-809h133z" />
    <glyph glyph-name="uni0447" unicode="&#x447;" horiz-adv-x="942" 
d="M799 901v-901h-92v369q-35 -23 -76 -41q-35 -16 -84 -28.5t-107 -12.5q-147 0 -232 85t-85 232v297h92v-297q0 -100 63.5 -162.5t172.5 -62.5q53 0 100 14.5t82 30.5q39 20 74 47v430h92z" />
    <glyph glyph-name="uni0448" unicode="&#x448;" horiz-adv-x="1361" 
d="M143 901h93v-809h399v809h92v-809h399v809h93v-901h-1076v901z" />
    <glyph glyph-name="uni0449" unicode="&#x449;" horiz-adv-x="1402" 
d="M1352 92v-328h-92v236h-1117v901h93v-809h399v809h92v-809h399v809h93v-809h133z" />
    <glyph glyph-name="uni044A" unicode="&#x44a;" horiz-adv-x="952" 
d="M584 573q70 0 126 -21.5t96 -60t62.5 -91t22.5 -113.5t-22.5 -113.5t-62.5 -91.5t-96.5 -60.5t-125.5 -21.5h-348v809h-236v92h328v-328h256zM584 92q100 0 157.5 54.5t57.5 140.5t-57.5 140t-157.5 54h-256v-389h256z" />
    <glyph glyph-name="uni044B" unicode="&#x44b;" horiz-adv-x="1167" 
d="M932 901h92v-901h-92v901zM471 573q70 0 126 -21.5t96 -60t62.5 -91t22.5 -113.5t-22.5 -113.5t-62.5 -91.5t-96 -60.5t-126 -21.5h-328v901h93v-328h235zM471 92q100 0 157.5 54.5t57.5 140.5t-57.5 140t-157.5 54h-235v-389h235z" />
    <glyph glyph-name="uni044C" unicode="&#x44c;" horiz-adv-x="860" 
d="M492 573q70 0 126 -21.5t96 -60t62.5 -91t22.5 -113.5t-22.5 -113.5t-62.5 -91.5t-96.5 -60.5t-125.5 -21.5h-349v901h93v-328h256zM492 92q100 0 157.5 54.5t57.5 140.5t-57.5 140t-157.5 54h-256v-389h256z" />
    <glyph glyph-name="uni044D" unicode="&#x44d;" horiz-adv-x="952" 
d="M399 502h379q-8 66 -35.5 123t-70.5 100t-99.5 68.5t-121.5 25.5q-109 0 -178.5 -61.5t-108.5 -153.5h-103q18 66 53.5 122t84.5 97t111.5 64.5t140.5 23.5q88 0 164.5 -34.5t133 -96t89 -145.5t32.5 -184t-32.5 -184.5t-89 -146t-133 -96t-164.5 -34.5
q-78 0 -140.5 23.5t-111.5 64.5t-84 97t-54 122h103q39 -92 108.5 -153.5t178.5 -61.5q66 0 122 25.5t99 69.5t70.5 103.5t35.5 129.5h-379v92z" />
    <glyph glyph-name="uni044E" unicode="&#x44e;" horiz-adv-x="1300" 
d="M1219 451q0 -100 -31 -184.5t-85 -146t-127 -96t-157 -34.5t-155.5 33.5t-125 91t-84 134.5t-34.5 161h-184v-410h-93v901h93v-399h184q8 84 40 158.5t83 130t121.5 88t154.5 32.5t157 -34.5t127 -96t85 -145.5t31 -184zM1126 451q0 80 -24.5 147.5t-67.5 116.5t-98 76.5
t-117 27.5q-61 0 -116.5 -27.5t-98.5 -76.5t-67.5 -117t-24.5 -147q0 -80 24.5 -147.5t67.5 -117t98.5 -77t116.5 -27.5t116.5 27.5t98.5 77t67.5 117t24.5 147.5z" />
    <glyph glyph-name="uni044F" unicode="&#x44f;" horiz-adv-x="921" 
d="M686 440v369h-276q-92 0 -148.5 -53.5t-56.5 -130.5q0 -78 56 -131.5t149 -53.5h276zM328 358q-61 18 -109 54q-41 29 -73.5 80t-32.5 133q0 57 21.5 107t61.5 88t94 59.5t120 21.5h368v-901h-92v348h-256l-235 -348h-113z" />
    <glyph glyph-name="uni0451" unicode="&#x451;" horiz-adv-x="993" 
d="M727 1178q0 -31 -20 -52q-20 -20 -52 -20q-31 0 -51 20t-20 52q0 31 20 51t51 20t52 -20q20 -20 20 -51zM420 1178q0 -31 -21 -52q-20 -20 -51 -20t-51 20t-21 52q0 31 21 51q20 20 51 20t51 -20q21 -20 21 -51zM881 225q-18 -43 -52 -85q-33 -42 -78 -75
q-46 -34 -106 -55q-59 -20 -133 -20q-92 0 -171 35t-136 96t-90 145t-33 185q0 100 33 184t89 145t133 97q77 35 165 34q84 0 158 -32q75 -33 131 -91q55 -57 88 -136t32 -171q0 -16 -2 -28t-4 -23l-4 -20h-727q8 -74 36 -135q28 -60 72 -103t102 -67t128 -23q49 0 90 13
t73 35t54 47q23 26 39 48h113zM502 819q-61 0 -116 -23q-54 -24 -97 -66t-73 -100t-42 -128h645q-8 70 -36 128t-69 100q-42 42 -97 66q-54 23 -115 23z" />
    <glyph glyph-name="uni0452" unicode="&#x452;" horiz-adv-x="1024" 
d="M932 399q0 -119 -29 -209t-78 -151.5t-113.5 -94t-138.5 -36.5v92q53 8 101.5 34.5t85.5 76t58.5 121t21.5 167.5q0 80 -21.5 143.5t-59.5 106.5t-88 65.5t-108 22.5q-61 0 -113.5 -21.5t-91.5 -60.5t-60.5 -91t-21.5 -113v-451h-92v1004h-164v92h164v194h92v-194h297
v-92h-297v-318h11q25 39 65 72q35 27 89.5 49t131.5 22q76 0 142.5 -28.5t114 -82.5t75 -134.5t27.5 -184.5z" />
    <glyph glyph-name="uni0453" unicode="&#x453;" horiz-adv-x="716" 
d="M696 809h-460v-809h-93v901h553v-92zM502 1311h123l-174 -246h-72z" />
    <glyph glyph-name="uni0454" unicode="&#x454;" horiz-adv-x="962" 
d="M174 410q8 -70 36 -129.5t71 -103.5t99 -69.5t122 -25.5q109 0 178.5 61.5t107.5 153.5h103q-18 -66 -53 -122t-84 -97t-112.5 -64.5t-139.5 -23.5q-88 0 -165 34.5t-133.5 96t-89 145.5t-32.5 185q0 100 32.5 184t89 145.5t133.5 96t165 34.5q76 0 139.5 -23.5
t112.5 -64.5t83.5 -97t53.5 -122h-103q-39 92 -108.5 153.5t-177.5 61.5q-66 0 -122 -25.5t-99 -68.5t-71 -100.5t-36 -122.5h379v-92h-379z" />
    <glyph glyph-name="uni0455" unicode="&#x455;" horiz-adv-x="808" 
d="M727 256q0 -53 -22 -101q-23 -48 -63 -85t-96 -59t-126 -21q-74 0 -132 21q-58 22 -101 60q-42 38 -66 88q-25 50 -29 107h92q16 -86 72 -135q55 -49 164 -49q100 0 158 52q57 52 57 122q0 61 -39 94t-96 50t-126 31q-69 13 -126 38t-96 70t-39 127q0 49 20 94t58 79
t94 53q55 19 125 19q66 0 119 -21q54 -22 96 -56q41 -35 64 -82q24 -47 28 -97h-92q-16 70 -70 117q-53 47 -145 47q-100 0 -153 -46q-52 -46 -52 -107q0 -59 39 -89t96 -47q57 -16 126 -29t126 -39t96 -73t39 -133z" />
    <glyph glyph-name="uni0456" unicode="&#x456;" horiz-adv-x="409" 
d="M246 0h-92v901h92v-901zM133 1188q0 31 21 51q20 20 51 21q31 0 51 -21q20 -20 20 -51t-20 -51t-51 -21q-31 0 -51 21q-21 20 -21 51z" />
    <glyph glyph-name="uni0457" unicode="&#x457;" horiz-adv-x="378" 
d="M246 0h-92v901h92v-901zM420 1178q0 -31 -21 -52q-20 -20 -51 -20t-51 20t-21 52q0 31 21 51q20 20 51 20t51 -20q21 -20 21 -51zM113 1178q0 -31 -21 -52q-20 -20 -51 -20t-51 20t-21 52q0 31 21 51q20 20 51 20t51 -20q21 -20 21 -51z" />
    <glyph glyph-name="uni0458" unicode="&#x458;" horiz-adv-x="409" 
d="M154 901h92v-973q0 -123 -68 -194q-68 -72 -168 -72q-35 0 -59 10q-12 4 -23 11v81q8 -4 17 -6q20 -4 45 -4q78 0 121 44t43 130v973zM133 1188q0 31 21 51q20 20 51 21q31 0 51 -21q20 -20 20 -51t-20 -51t-51 -21q-31 0 -51 21q-21 20 -21 51z" />
    <glyph glyph-name="uni0459" unicode="&#x459;" horiz-adv-x="1413" 
d="M1044 573q70 0 126.5 -21.5t96.5 -60t62.5 -91t22.5 -113.5t-22.5 -113.5t-62.5 -91.5t-96.5 -60.5t-126.5 -21.5h-337v809h-369l-41 -502q-14 -170 -78.5 -243.5t-157.5 -73.5q-12 0 -22 1t-21 3q-10 2 -18 6v82h41q61 0 107.5 54t56.5 171l51 594h543v-328h245z
M1044 92q100 0 158 54.5t58 140.5t-57.5 140t-158.5 54h-245v-389h245z" />
    <glyph glyph-name="uni045A" unicode="&#x45a;" horiz-adv-x="1454" 
d="M840 901v-348h245q70 0 126.5 -21.5t96.5 -59.5t62.5 -88t22.5 -108q0 -57 -22.5 -107t-62.5 -88t-96.5 -59.5t-126.5 -21.5h-337v461h-512v-461h-93v901h93v-348h512v348h92zM1085 92q100 0 157.5 53.5t57.5 130.5q0 78 -57 131.5t-158 53.5h-245v-369h245z" />
    <glyph glyph-name="uni045B" unicode="&#x45b;" horiz-adv-x="1064" 
d="M20 1096h164v194h92v-194h297v-92h-297v-318h11q25 39 65 72q35 27 89.5 49t131.5 22q76 0 142.5 -27.5t114 -77.5t75 -119.5t27.5 -153.5v-451h-92v451q0 61 -21.5 113t-59.5 91t-88 60.5t-108 21.5q-61 0 -113.5 -21.5t-91.5 -60.5t-60.5 -91t-21.5 -113v-451h-92v1004
h-164v92z" />
    <glyph glyph-name="uni045C" unicode="&#x45c;" horiz-adv-x="808" 
d="M236 471v-471h-93v901h93v-430l409 430h123l-410 -430l451 -471h-123zM522 1311h123l-174 -246h-72z" />
    <glyph glyph-name="uni045E" unicode="&#x45e;" horiz-adv-x="880" 
d="M440 1116q61 0 99 40q37 40 45 93h82q-8 -92 -71 -153q-62 -61 -155 -62q-92 0 -154 62q-62 61 -71 153h82q8 -53 45 -93t98 -40zM31 901h102l307 -768l308 768h102l-410 -1003q-47 -123 -103 -180q-56 -56 -142 -56q-12 0 -23 1q-10 1 -20 3t-19 6v82h41q61 0 96 33
t68 111l51 122z" />
    <glyph glyph-name="uni045F" unicode="&#x45f;" horiz-adv-x="1003" 
d="M461 0h-318v901h93v-809h532v809h92v-901h-317v-236h-82v236z" />
    <glyph glyph-name="uni0490" unicode="&#x490;" horiz-adv-x="911" 
d="M276 0h-102v1290h614v236h103v-328h-615v-1198z" />
    <glyph glyph-name="uni0491" unicode="&#x491;" horiz-adv-x="716" 
d="M696 809h-460v-809h-93v901h461v215h92v-307z" />
    <glyph glyph-name="uni1E9E" unicode="&#x1e9e;" horiz-adv-x="1198" 
d="M737 737q80 0 150 -28q70 -29 121 -79t79 -118q29 -68 29 -143q0 -78 -29 -145t-79 -116q-51 -50 -121 -79t-150 -29h-143v92h143q57 0 108 22q50 22 88 59q38 38 59 88q22 50 22 108q0 57 -22 107t-59 88q-38 38 -88 60t-108 21h-112v92l297 461h-390q-49 0 -96 -21
q-47 -22 -82 -60t-56 -88q-22 -50 -22 -107v-922h-102v922q0 80 28 147q28 68 74 117q47 49 113 77t143 27h512v-82z" />
    <glyph glyph-name="endash" unicode="&#x2013;" horiz-adv-x="942" 
d="M870 481h-798v92h798v-92z" />
    <glyph glyph-name="emdash" unicode="&#x2014;" horiz-adv-x="1433" 
d="M1362 481h-1290v92h1290v-92z" />
    <glyph glyph-name="quoteleft" unicode="&#x2018;" horiz-adv-x="286" 
d="M215 1044q0 -31 -20.5 -51t-51.5 -20t-51 21.5t-20 60.5q0 53 20.5 97t44.5 75q29 37 68 63l20 -20q-20 -20 -37 -43q-14 -20 -27.5 -48t-17.5 -63q31 0 51.5 -20.5t20.5 -51.5z" />
    <glyph glyph-name="quoteright" unicode="&#x2019;" horiz-adv-x="286" 
d="M72 1229q0 31 20.5 51t50.5 20q31 0 51.5 -21.5t20.5 -59.5q0 -53 -21.5 -97.5t-46.5 -74.5q-29 -37 -65 -64l-21 21q20 20 37 43q14 20 27.5 47.5t17.5 62.5q-31 0 -51 20.5t-20 51.5z" />
    <glyph glyph-name="quotesinglbase" unicode="&#x201a;" horiz-adv-x="286" 
d="M72 61q0 31 20.5 51.5t50.5 20.5q31 0 51.5 -21.5t20.5 -60.5q0 -53 -21.5 -97t-46.5 -75q-29 -37 -65 -63l-21 20q20 20 37 43q14 20 27.5 48t17.5 63q-31 0 -51 20t-20 51z" />
    <glyph glyph-name="quotedblleft" unicode="&#x201c;" horiz-adv-x="532" 
d="M461 1044q0 -31 -20.5 -51t-51.5 -20t-51.5 21.5t-20.5 60.5q0 53 20.5 97t45.5 75q29 37 68 63l20 -20q-20 -20 -37 -43q-14 -20 -27.5 -48t-17.5 -63q31 0 51.5 -20.5t20.5 -51.5zM215 1044q0 -31 -20.5 -51t-51.5 -20t-51 21.5t-20 60.5q0 53 20.5 97t44.5 75
q29 37 68 63l20 -20q-20 -20 -37 -43q-14 -20 -27.5 -48t-17.5 -63q31 0 51.5 -20.5t20.5 -51.5z" />
    <glyph glyph-name="quotedblright" unicode="&#x201d;" horiz-adv-x="532" 
d="M72 1229q0 31 20.5 51t50.5 20q31 0 51.5 -21.5t20.5 -59.5q0 -53 -21.5 -97.5t-46.5 -74.5q-29 -37 -65 -64l-21 21q20 20 37 43q14 20 27.5 47.5t17.5 62.5q-31 0 -51 20.5t-20 51.5zM317 1229q0 31 20.5 51t51.5 20t51.5 -21.5t20.5 -59.5q0 -53 -21.5 -97.5
t-46.5 -74.5q-29 -37 -65 -64l-21 21q20 20 37 43q14 20 27.5 47.5t17.5 62.5q-31 0 -51.5 20.5t-20.5 51.5z" />
    <glyph glyph-name="quotedblbase" unicode="&#x201e;" horiz-adv-x="532" 
d="M72 61q0 31 20.5 51.5t50.5 20.5q31 0 51.5 -21.5t20.5 -60.5q0 -53 -21.5 -97t-46.5 -75q-29 -37 -65 -63l-21 20q20 20 37 43q14 20 27.5 48t17.5 63q-31 0 -51 20t-20 51zM317 61q0 31 20.5 51.5t51.5 20.5t51.5 -21.5t20.5 -60.5q0 -53 -21.5 -97t-46.5 -75
q-29 -37 -65 -63l-21 20q20 20 37 43q14 20 27.5 48t17.5 63q-31 0 -51.5 20t-20.5 51z" />
    <glyph glyph-name="dagger" unicode="&#x2020;" horiz-adv-x="675" 
d="M297 1024v266h82v-266h225v-82h-225v-573h-82v573h-225v82h225z" />
    <glyph glyph-name="daggerdbl" unicode="&#x2021;" horiz-adv-x="675" 
d="M297 1024v266h82v-266h225v-82h-225v-225h225v-82h-225v-266h-82v266h-225v82h225v225h-225v82h225z" />
    <glyph glyph-name="bullet" unicode="&#x2022;" horiz-adv-x="696" 
d="M492 553q0 -61 -41 -102t-103 -41q-61 0 -102 41t-41 102t41 102t102 41t102.5 -41t41.5 -102z" />
    <glyph glyph-name="ellipsis" unicode="&#x2026;" horiz-adv-x="942" 
d="M72 61q0 31 20.5 51.5t50.5 20.5q31 0 51.5 -20.5t20.5 -51.5t-20.5 -51t-51.5 -20t-51 20t-20 51zM399 61q0 31 20.5 51.5t51.5 20.5t51.5 -20.5t20.5 -51.5t-20.5 -51t-51.5 -20t-51.5 20t-20.5 51zM727 61q0 31 20.5 51.5t51.5 20.5t51 -20.5t20 -51.5t-20.5 -51
t-50.5 -20q-31 0 -51.5 20t-20.5 51z" />
    <glyph glyph-name="perthousand" unicode="&#x2030;" horiz-adv-x="1751" 
d="M952 1290h103l-789 -1290h-102zM1024 256q0 78 -47 126t-117 48t-117 -48t-47 -126t47.5 -126t116.5 -48q70 0 117 48t47 126zM604 256q0 53 19.5 100t54.5 82t82 54.5t100 19.5t100.5 -19.5t82 -54.5t54 -82t19.5 -100t-19.5 -100t-54 -82t-82 -54.5t-100.5 -19.5
t-100 19.5t-82 54.5t-54.5 82t-19.5 100zM154 1034q0 -78 47 -126t116 -48q70 0 117 48t47 126t-47 126t-117 48t-116.5 -48t-46.5 -126zM573 1034q0 -53 -19 -100t-54 -82t-82 -54.5t-101 -19.5q-53 0 -100 19.5t-82 54.5t-54.5 82t-19.5 100t19.5 100.5t54.5 82t82 54
t100 19.5t100.5 -19.5t82.5 -54t54 -82t19 -100.5zM1597 256q0 78 -47 126t-116 48q-70 0 -117 -48t-47 -126t47 -126t117 -48t116.5 48t46.5 126zM1178 256q0 53 19.5 100t54 82t81.5 54.5t101 19.5q53 0 100 -19.5t82 -54.5t54.5 -82t19.5 -100t-19.5 -100t-54.5 -82
t-82 -54.5t-100 -19.5t-100.5 19.5t-82 54.5t-54 82t-19.5 100z" />
    <glyph glyph-name="guilsinglleft" unicode="&#x2039;" horiz-adv-x="471" 
d="M174 461l225 -318h-102l-225 318l225 317h102z" />
    <glyph glyph-name="guilsinglright" unicode="&#x203a;" horiz-adv-x="471" 
d="M72 778h102l225 -317l-225 -318h-102l225 318z" />
    <glyph glyph-name="fraction" unicode="&#x2044;" horiz-adv-x="194" 
d="M440 1290h103l-789 -1290h-102z" />
    <glyph glyph-name="uni2070" unicode="&#x2070;" horiz-adv-x="593" 
d="M532 1178q0 -74 -19 -130.5t-52 -96.5t-76 -60.5t-88 -20.5q-47 0 -89 20.5t-75 60.5t-52.5 96.5t-19.5 130.5t19.5 130t52.5 96t75 60.5t89 20.5q45 0 88 -20.5t76 -60.5t52 -96t19 -130zM143 1178q0 -57 14.5 -101.5t36 -74t49 -45t54.5 -15.5t54.5 15.5t49 45t36 73.5
t14.5 102q0 57 -14.5 101t-36 73.5t-49 45t-54.5 15.5t-54.5 -15.5t-49 -45t-36 -73.5t-14.5 -101z" />
    <glyph glyph-name="uni2074" unicode="&#x2074;" horiz-adv-x="491" 
d="M369 1075h82v-71h-82v-123h-82v123h-267v61l256 410h93v-400zM287 1075v287l-185 -287h185z" />
    <glyph glyph-name="uni2075" unicode="&#x2075;" horiz-adv-x="522" 
d="M276 1260q86 0 140.5 -54.5t54.5 -140.5t-56.5 -140.5t-148.5 -54.5t-144 47.5t-61 116.5h82q8 -39 39 -65.5t84 -26.5t88 35t35 88t-35 88t-88 35q-29 0 -47 -10.5t-31 -20.5q-14 -14 -24 -31h-82l41 349h317v-72h-256l-20 -174q12 6 29 14q14 6 34 11.5t49 5.5z" />
    <glyph glyph-name="uni2076" unicode="&#x2076;" horiz-adv-x="522" 
d="M266 870q-92 0 -148.5 54.5t-56.5 140.5q0 35 10.5 67.5t24.5 59.5q16 31 37 57l154 226h92l-154 -226q31 12 73 7t81 -26.5t65.5 -62.5t26.5 -102q0 -86 -56.5 -140.5t-148.5 -54.5zM143 1065q0 -53 35 -88t88 -35t88 35t35 88t-35 88t-88 35t-88 -35t-35 -88z" />
    <glyph glyph-name="uni2077" unicode="&#x2077;" horiz-adv-x="460" 
d="M61 1475h379v-52l-256 -542h-82l246 522h-287v72z" />
    <glyph glyph-name="uni2078" unicode="&#x2078;" horiz-adv-x="552" 
d="M276 1413q-47 0 -74.5 -26.5t-27.5 -65.5t27.5 -65.5t74.5 -26.5t75 26.5t28 65.5t-28 65.5t-75 26.5zM276 1167q-53 0 -87.5 -32.5t-34.5 -79.5t34.5 -80t87.5 -33t88 33t35 80t-35 79.5t-88 32.5zM276 1485q86 0 135.5 -47t49.5 -117q0 -35 -15.5 -58.5t-31.5 -37.5
q-20 -16 -45 -27q31 -10 55 -31q23 -16 40 -45.5t17 -77.5q0 -70 -56 -122t-149 -52q-92 0 -148 52.5t-56 121.5q0 47 16 77t39 46q25 20 57 31q-27 10 -47 27q-16 14 -30.5 37.5t-14.5 58.5q0 70 49 117t135 47z" />
    <glyph glyph-name="uni2079" unicode="&#x2079;" horiz-adv-x="522" 
d="M256 1485q92 0 148.5 -54.5t56.5 -140.5q0 -35 -11.5 -67.5t-25.5 -59.5q-16 -31 -35 -57l-153 -225h-93l154 225q-31 -12 -73 -7t-81 26.5t-65.5 62.5t-26.5 102q0 86 56.5 140.5t148.5 54.5zM379 1290q0 53 -35 88t-88 35t-88 -35t-35 -88t35 -88t88 -35t88 35t35 88z
" />
    <glyph glyph-name="uni2080" unicode="&#x2080;" horiz-adv-x="593" 
d="M532 113q0 -74 -19 -130t-52 -97q-33 -40 -76 -60t-88 -21q-47 0 -89 21q-42 20 -75 60t-52 97q-19 56 -20 130q0 74 20 130q19 56 52 96t75 60t89 21q45 0 88 -21q43 -20 76 -60t52 -96t19 -130zM143 113q0 -57 15 -102q14 -44 36 -73q22 -30 49 -46q28 -15 54 -15
q27 0 54 15q28 15 49 46q22 30 36 73q14 44 15 102q0 57 -15 101q-14 44 -36 74t-49 45q-28 15 -54 15q-27 0 -54 -15q-28 -15 -49 -45q-22 -30 -36 -74q-15 -44 -15 -101z" />
    <glyph glyph-name="uni2081" unicode="&#x2081;" horiz-adv-x="440" 
d="M72 307l164 103h61v-594h-82v491l-102 -71z" />
    <glyph glyph-name="uni2082" unicode="&#x2082;" horiz-adv-x="522" 
d="M174 -113h277v-71h-390v61l236 246q18 20 35 43q14 18 25 39q11 20 12 41q0 47 -28 75t-75 27q-96 0 -112 -112h-82q8 86 58 135t136 49t135 -48t50 -126q0 -31 -13 -59q-12 -28 -28 -50q-18 -25 -41 -45z" />
    <glyph glyph-name="uni2083" unicode="&#x2083;" horiz-adv-x="542" 
d="M358 133q31 -10 56 -31q23 -16 40 -46t17 -76q0 -70 -56 -122t-149 -53q-92 0 -148 54q-56 53 -57 131h82q0 -47 35 -80t88 -33t88 33t35 80q0 39 -35 70q-35 32 -88 32h-51v72h51q47 0 75 26q28 27 28 66t-28 66t-75 26q-47 0 -75 -30t-27 -82h-82q0 86 49 135t135 49
t135 -47t50 -117q0 -35 -16 -58q-15 -24 -32 -38q-20 -17 -45 -27z" />
    <glyph glyph-name="uni2084" unicode="&#x2084;" horiz-adv-x="491" 
d="M369 10h82v-71h-82v-123h-82v123h-267v61l256 410h93v-400zM287 10v287l-185 -287h185z" />
    <glyph glyph-name="uni2085" unicode="&#x2085;" horiz-adv-x="512" 
d="M266 195q86 0 141 -55q54 -54 54 -140t-57 -140q-56 -54 -148 -55q-92 0 -144 48q-52 47 -61 116h82q8 -39 39 -65q31 -27 84 -27t88 35t35 88t-35 88t-88 35q-29 0 -47 -10t-31 -21q-14 -14 -24 -31h-82l41 349h317v-72h-256l-20 -174l28 14q14 6 35 11q20 6 49 6z" />
    <glyph glyph-name="uni2086" unicode="&#x2086;" horiz-adv-x="522" 
d="M266 -195q-92 0 -148 55q-56 54 -57 140q0 35 11 68q10 33 24 59q16 31 37 57l154 226h92l-154 -226q31 12 73 7t81 -26q39 -22 65 -63q27 -41 27 -102q0 -86 -56 -140q-57 -55 -149 -55zM143 0q0 -53 35 -88t88 -35t88 35t35 88t-35 88t-88 35t-88 -35t-35 -88z" />
    <glyph glyph-name="uni2087" unicode="&#x2087;" horiz-adv-x="460" 
d="M61 410h379v-52l-256 -542h-82l246 522h-287v72z" />
    <glyph glyph-name="uni2088" unicode="&#x2088;" horiz-adv-x="552" 
d="M276 348q-47 0 -74 -26q-28 -27 -28 -66t28 -66t74 -26q47 0 75 26q28 27 28 66t-28 66q-28 26 -75 26zM276 102q-53 0 -88 -32q-35 -33 -34 -80q0 -47 34 -80q35 -33 88 -33t89 33q35 33 34 80q0 47 -34 80q-36 32 -89 32zM276 420q86 0 136 -47q49 -47 49 -117
q0 -35 -16 -58q-15 -24 -31 -38q-20 -16 -45 -27q31 -10 55 -31q23 -16 40 -46t17 -76q0 -70 -56 -122t-149 -53q-92 0 -148 53q-56 52 -56 122q0 47 16 76q16 30 39 46q25 20 57 31q-27 10 -47 27q-16 14 -31 38q-14 24 -14 58q0 70 49 117t135 47z" />
    <glyph glyph-name="uni2089" unicode="&#x2089;" horiz-adv-x="522" 
d="M256 420q92 0 148 -54t57 -141q0 -35 -11 -67q-11 -33 -26 -60q-16 -31 -35 -57l-153 -225h-93l154 225q-31 -12 -73 -7t-81 26q-39 22 -65 63q-27 41 -27 102q0 86 57 141q56 54 148 54zM379 225q0 53 -35 88t-88 35t-88 -35t-35 -88t35 -88t88 -35t88 35t35 88z" />
    <glyph glyph-name="Euro" unicode="&#x20ac;" horiz-adv-x="1372" 
d="M195 635v40t2 30q2 12 4 22h-150v82h164q23 106 72 197.5t119.5 156t161.5 101t200 36.5q96 0 178 -32.5t147.5 -91t112.5 -139.5t74 -177h-102q-47 154 -151.5 251t-258.5 97q-88 0 -163 -30.5t-132 -85t-97 -127t-59 -156.5h441v-82h-455q-2 -10 -4 -22t-2 -30v-40
v-41.5t2 -32.5q2 -16 4 -29h455v-81h-441q18 -74 58.5 -140.5t97.5 -117t132 -81t163 -30.5q154 0 260.5 97t159.5 251h102q-31 -96 -80 -177t-115.5 -139.5t-148.5 -91t-178 -32.5q-109 0 -200 35.5t-161.5 98t-119.5 146.5t-72 181h-164v81h150q-2 12 -4 29q-2 14 -2 32.5
v41.5z" />
    <glyph glyph-name="uni20B4" unicode="&#x20b4;" horiz-adv-x="1075" 
d="M983 829v-92h-891v92h563q35 16 62 41q23 23 42 54.5t19 79.5q0 86 -64.5 145t-181.5 59q-109 0 -173 -59t-72 -145h-103q4 57 32 110t74 95t107.5 66.5t134.5 24.5q76 0 140.5 -24.5t110.5 -66.5t72 -95t26 -110q0 -47 -15.5 -79t-31.5 -55q-20 -25 -46 -41h195zM92 461
v92h891v-92h-563q-35 -16 -62 -41q-23 -23 -42 -54.5t-19 -78.5q0 -86 64.5 -145.5t181.5 -59.5q109 0 173 59.5t72 145.5h103q-4 -57 -32 -110.5t-74 -95.5t-107.5 -66.5t-134.5 -24.5q-78 0 -141.5 24.5t-109.5 66.5t-71.5 95t-25.5 111q0 47 14 78.5t31 54.5q20 25 47 41
h-195z" />
    <glyph glyph-name="uni20BD" unicode="&#x20bd;" horiz-adv-x="1105" 
d="M625 1290q84 0 156.5 -30.5t127 -82t85 -121t30.5 -145.5q0 -78 -30.5 -146.5t-85 -119.5t-127 -82t-156.5 -31h-297v-194h430v-92h-430v-246h-103v246h-174v92h174v194h-174v93h174v665h400zM625 625q61 0 115.5 23.5t94 62.5t63.5 91t24 109t-24 109.5t-63.5 91.5
t-94 62.5t-115.5 23.5h-297v-573h297z" />
    <glyph glyph-name="uni2116" unicode="&#x2116;" horiz-adv-x="1843" 
d="M1239 133h492v-92h-492v92zM1075 1290v-1290h-92l-707 1096v-1096h-102v1290h92l707 -1095v1095h102zM1751 573q0 -53 -21.5 -101t-58.5 -85t-85 -58.5t-101 -21.5t-101.5 21.5t-85 58.5t-58 85t-21.5 101t21.5 101.5t58 85.5t85 58.5t101.5 21.5t101 -21.5t85 -58.5
t58.5 -85.5t21.5 -101.5zM1311 573q0 -78 52 -131t122 -53t122 53.5t52 130.5q0 78 -52.5 131.5t-121.5 53.5q-70 0 -122 -53.5t-52 -131.5z" />
    <glyph glyph-name="trademark" unicode="&#x2122;" horiz-adv-x="1085" 
d="M420 1208h-164v-440h-82v440h-164v82h410v-82zM727 922l-143 204v-358h-82v522h61l185 -266l184 266h61v-522h-82v358l-143 -204h-41z" />
    <glyph glyph-name="arrowleft" unicode="&#x2190;" horiz-adv-x="2048" 
d="M788 1167v-143l-337 -338h1341v-102h-1341l337 -338v-144l-532 533z" />
    <glyph glyph-name="arrowup" unicode="&#x2191;" horiz-adv-x="2048" 
d="M1556 891h-143l-338 338v-1342h-102v1342l-338 -338h-143l532 532z" />
    <glyph glyph-name="arrowright" unicode="&#x2192;" horiz-adv-x="2048" 
d="M1792 635l-532 -533v144l337 338h-1341v102h1341l-337 338v143z" />
    <glyph glyph-name="arrowdown" unicode="&#x2193;" horiz-adv-x="2048" 
d="M1024 -113l-532 533h143l338 -338v1341h102v-1341l338 338h143z" />
    <glyph glyph-name="arrowboth" unicode="&#x2194;" horiz-adv-x="2048" 
d="M1792 635l-532 -533v144l337 338h-1146l337 -338v-144l-532 533l532 532v-143l-337 -338h1146l-337 338v143z" />
    <glyph glyph-name="arrowupdn" unicode="&#x2195;" horiz-adv-x="2048" 
d="M1024 -111l-532 533h143l338 -338v1147l-338 -338h-143l532 532l532 -532h-143l-338 338v-1147l338 338h143z" />
    <glyph glyph-name="uni2196" unicode="&#x2196;" horiz-adv-x="2048" 
d="M1587 143l-71 -71l-953 952v-471l-102 -102v747h747l-102 -102h-471z" />
    <glyph glyph-name="uni2197" unicode="&#x2197;" horiz-adv-x="2048" 
d="M1413 1096h-471l-102 102h747v-747l-102 102v471l-953 -952l-71 71z" />
    <glyph glyph-name="uni2198" unicode="&#x2198;" horiz-adv-x="2048" 
d="M461 1126l71 72l953 -952v471l102 102v-747h-747l102 102h471z" />
    <glyph glyph-name="uni2199" unicode="&#x2199;" horiz-adv-x="2048" 
d="M635 174h471l102 -102h-747v747l102 -102v-471l953 952l71 -72z" />
    <glyph glyph-name="minus" unicode="&#x2212;" horiz-adv-x="880" 
d="M819 481h-758v92h758v-92z" />
    <glyph glyph-name="approxequal" unicode="&#x2248;" horiz-adv-x="901" 
d="M236 881q61 0 118.5 -29t110.5 -63.5t100 -63.5t90 -29q61 0 102.5 43t41.5 121h82q0 -123 -61.5 -189.5t-153.5 -66.5q-61 0 -119 29t-111 63.5t-100 63t-90 28.5q-61 0 -102.5 -43t-41.5 -120h-82q0 123 62 189.5t154 66.5zM236 481q61 0 118.5 -28.5t110.5 -63.5
t100 -63.5t90 -28.5q61 0 102.5 43t41.5 121h82q0 -123 -61.5 -189.5t-153.5 -66.5q-61 0 -119 28.5t-111 63.5t-100 63.5t-90 28.5q-61 0 -102.5 -43t-41.5 -121h-82q0 123 62 189.5t154 66.5z" />
    <glyph glyph-name="notequal" unicode="&#x2260;" horiz-adv-x="931" 
d="M82 379h276l123 287h-399v92h440l103 246h92l-103 -246h236v-92h-277l-122 -287h399v-92h-440l-103 -246h-92l102 246h-235v92z" />
    <glyph glyph-name="lessequal" unicode="&#x2264;" horiz-adv-x="901" 
d="M809 891l-573 -277l573 -276v-92l-707 338v61l707 338v-92zM92 92h717v-92h-717v92z" />
    <glyph glyph-name="greaterequal" unicode="&#x2265;" horiz-adv-x="901" 
d="M92 983l707 -338v-61l-707 -338v92l574 276l-574 277v92zM809 0h-717v92h717v-92z" />
    <glyph glyph-name="uni2460" unicode="&#x2460;" horiz-adv-x="2048" 
d="M184 655q0 172 66.5 326t180.5 267.5t267.5 180t325.5 66.5t325.5 -66.5t267.5 -180t180.5 -267.5t66.5 -326t-66.5 -325.5t-180.5 -267t-267.5 -180t-325.5 -66.5t-324.5 66.5t-267.5 180t-181.5 267t-66.5 325.5zM287 655q0 -154 57 -288t157.5 -234t234.5 -157.5
t288 -57.5t288 57.5t234.5 157.5t157.5 234.5t57 287.5q0 154 -57 288t-157.5 234.5t-234.5 158t-288 57.5t-288 -57.5t-234.5 -158t-157.5 -234.5t-57 -288zM1126 1065v-819h-102v706l-143 -102l-52 72l205 143h92z" />
    <glyph glyph-name="uni2461" unicode="&#x2461;" horiz-adv-x="2048" 
d="M184 655q0 172 66.5 326t180.5 267.5t267.5 180t325.5 66.5t325.5 -66.5t267.5 -180t180.5 -267.5t66.5 -326t-66.5 -325.5t-180.5 -267t-267.5 -180t-325.5 -66.5t-324.5 66.5t-267.5 180t-181.5 267t-66.5 325.5zM287 655q0 -154 57 -288t157.5 -234t234.5 -157.5
t288 -57.5t288 57.5t234.5 157.5t157.5 234.5t57 287.5q0 154 -57 288t-157.5 234.5t-234.5 158t-288 57.5t-288 -57.5t-234.5 -158t-157.5 -234.5t-57 -288zM1280 338v-92h-512v71l307 328q14 14 32.5 33.5t34 43t26 50.5t10.5 57q0 61 -46.5 107.5t-107.5 46.5
q-70 0 -114 -42t-50 -112h-102q8 109 78.5 177.5t187.5 68.5q53 0 100 -19.5t82 -53t54.5 -78.5t19.5 -95q0 -47 -12.5 -82.5t-29.5 -64.5t-36.5 -50.5t-34.5 -37.5l-235 -256h348z" />
    <glyph glyph-name="uni2462" unicode="&#x2462;" horiz-adv-x="2048" 
d="M1167 676q39 -14 72 -39q27 -23 49.5 -60.5t22.5 -95.5q0 -49 -20.5 -94t-57.5 -79t-90 -53t-119 -19q-123 0 -196.5 66.5t-90.5 158.5h103q8 -47 57 -90t127 -43q86 0 135 46t49 107t-46 102.5t-138 41.5h-72v92h72q78 0 121 40t43 93t-43 93t-121 40q-70 0 -113 -40
t-51 -93h-102q8 92 78.5 158.5t187.5 66.5q123 0 194.5 -66.5t71.5 -158.5q0 -53 -19.5 -88t-41.5 -53q-27 -23 -62 -33zM184 655q0 172 66.5 326t180.5 267.5t267.5 180t325.5 66.5t325.5 -66.5t267.5 -180t180.5 -267.5t66.5 -326t-66.5 -325.5t-180.5 -267t-267.5 -180
t-325.5 -66.5t-324.5 66.5t-267.5 180t-181.5 267t-66.5 325.5zM287 655q0 -154 57 -288t157.5 -234t234.5 -157.5t288 -57.5t288 57.5t234.5 157.5t157.5 234.5t57 287.5q0 154 -57 288t-157.5 234.5t-234.5 158t-288 57.5t-288 -57.5t-234.5 -158t-157.5 -234.5t-57 -288z
" />
    <glyph glyph-name="uni2463" unicode="&#x2463;" horiz-adv-x="2048" 
d="M1249 430h-92v-184h-102v184h-379v82l379 553h102v-543h92v-92zM1055 522v389l-267 -389h267zM184 655q0 172 66.5 326t180.5 267.5t267.5 180t325.5 66.5t325.5 -66.5t267.5 -180t180.5 -267.5t66.5 -326t-66.5 -325.5t-180.5 -267t-267.5 -180t-325.5 -66.5
t-324.5 66.5t-267.5 180t-181.5 267t-66.5 325.5zM287 655q0 -154 57 -288t157.5 -234t234.5 -157.5t288 -57.5t288 57.5t234.5 157.5t157.5 234.5t57 287.5q0 154 -57 288t-157.5 234.5t-234.5 158t-288 57.5t-288 -57.5t-234.5 -158t-157.5 -234.5t-57 -288z" />
    <glyph glyph-name="uni2464" unicode="&#x2464;" horiz-adv-x="2048" 
d="M1034 778q57 0 107.5 -21.5t88.5 -58t59.5 -85t21.5 -101.5q0 -57 -21.5 -107.5t-60.5 -88t-91.5 -59t-113.5 -21.5q-123 0 -196.5 67.5t-90.5 167.5h103q16 -61 61 -102t123 -41t131 53t53 131q0 70 -53 122t-131 52q-45 0 -74.5 -15.5t-50.5 -31.5q-23 -20 -39 -45h-92
l51 471h430v-92h-338l-30 -236q16 12 39 21q18 8 46.5 14t67.5 6zM184 655q0 172 66.5 326t180.5 267.5t267.5 180t325.5 66.5t325.5 -66.5t267.5 -180t180.5 -267.5t66.5 -326t-66.5 -325.5t-180.5 -267t-267.5 -180t-325.5 -66.5t-324.5 66.5t-267.5 180t-181.5 267
t-66.5 325.5zM287 655q0 -154 57 -288t157.5 -234t234.5 -157.5t288 -57.5t288 57.5t234.5 157.5t157.5 234.5t57 287.5q0 154 -57 288t-157.5 234.5t-234.5 158t-288 57.5t-288 -57.5t-234.5 -158t-157.5 -234.5t-57 -288z" />
    <glyph glyph-name="uni2465" unicode="&#x2465;" horiz-adv-x="2048" 
d="M1024 236q-61 0 -113.5 21.5t-91.5 59t-60.5 88t-21.5 107.5q0 41 9.5 77t21.5 62q12 31 31 56l245 358h113l-194 -287q6 2 14 4t19.5 4t27.5 2q57 0 109.5 -21.5t91.5 -59t62.5 -88t23.5 -107.5t-21.5 -107.5t-60.5 -88t-91.5 -59t-113.5 -21.5zM840 512q0 -78 53 -131
t131 -53t131 53t53 131t-53 131t-131 53t-131 -53t-53 -131zM184 655q0 172 66.5 326t180.5 267.5t267.5 180t325.5 66.5t325.5 -66.5t267.5 -180t180.5 -267.5t66.5 -326t-66.5 -325.5t-180.5 -267t-267.5 -180t-325.5 -66.5t-324.5 66.5t-267.5 180t-181.5 267
t-66.5 325.5zM287 655q0 -154 57 -288t157.5 -234t234.5 -157.5t288 -57.5t288 57.5t234.5 157.5t157.5 234.5t57 287.5q0 154 -57 288t-157.5 234.5t-234.5 158t-288 57.5t-288 -57.5t-234.5 -158t-157.5 -234.5t-57 -288z" />
    <glyph glyph-name="uni2466" unicode="&#x2466;" horiz-adv-x="2048" 
d="M1290 1065v-82l-348 -737h-102l348 727h-400v92h502zM184 655q0 172 66.5 326t180.5 267.5t267.5 180t325.5 66.5t325.5 -66.5t267.5 -180t180.5 -267.5t66.5 -326t-66.5 -325.5t-180.5 -267t-267.5 -180t-325.5 -66.5t-324.5 66.5t-267.5 180t-181.5 267t-66.5 325.5z
M287 655q0 -154 57 -288t157.5 -234t234.5 -157.5t288 -57.5t288 57.5t234.5 157.5t157.5 234.5t57 287.5q0 154 -57 288t-157.5 234.5t-234.5 158t-288 57.5t-288 -57.5t-234.5 -158t-157.5 -234.5t-57 -288z" />
    <glyph glyph-name="uni2467" unicode="&#x2467;" horiz-adv-x="2048" 
d="M1024 328q86 0 135 46t49 107t-50 107.5t-134 46.5t-134 -46t-50 -108q0 -61 49 -107t135 -46zM1024 717q68 0 111 40t43 93t-42 93t-112 40t-112 -40t-42 -93t43 -93t111 -40zM184 655q0 172 66.5 326t180.5 267.5t267.5 180t325.5 66.5t325.5 -66.5t267.5 -180
t180.5 -267.5t66.5 -326t-66.5 -325.5t-180.5 -267t-267.5 -180t-325.5 -66.5t-324.5 66.5t-267.5 180t-181.5 267t-66.5 325.5zM287 655q0 -154 57 -288t157.5 -234t234.5 -157.5t288 -57.5t288 57.5t234.5 157.5t157.5 234.5t57 287.5q0 154 -57 288t-157.5 234.5
t-234.5 158t-288 57.5t-288 -57.5t-234.5 -158t-157.5 -234.5t-57 -288zM1024 236q-66 0 -119 19t-90 53t-57.5 79t-20.5 94q0 57 21.5 95t50.5 61q31 25 72 39q-33 14 -58 37q-23 20 -39 53t-16 84q0 45 18.5 86t52 71.5t81 49t104.5 18.5t104.5 -18.5t81 -49t52 -71.5
t18.5 -86q0 -51 -17.5 -84t-39.5 -53q-25 -23 -56 -37q39 -14 72 -39q27 -23 49.5 -60.5t22.5 -95.5q0 -49 -20.5 -94t-57.5 -79t-90 -53t-119 -19z" />
    <glyph glyph-name="uni2468" unicode="&#x2468;" horiz-adv-x="2048" 
d="M1024 1075q61 0 113.5 -21.5t91.5 -59.5t60.5 -88t21.5 -107q0 -43 -10.5 -78t-20.5 -62q-14 -31 -31 -55l-245 -358h-113l194 286q-8 -4 -16 -6t-18.5 -3t-26.5 -1q-57 0 -109.5 21.5t-91.5 59.5t-62.5 88t-23.5 108q0 57 21.5 107t60.5 88t91.5 59.5t113.5 21.5z
M1208 799q0 78 -53 131t-131 53t-131 -53t-53 -131t53 -131.5t131 -53.5t131 53.5t53 131.5zM1864 655q0 -172 -66.5 -325.5t-180.5 -267t-267.5 -180t-325.5 -66.5t-325.5 66.5t-267.5 180t-180.5 267t-66.5 325.5t66.5 326t180.5 267.5t267.5 180t325.5 66.5t324.5 -66.5
t267.5 -180t181.5 -267.5t66.5 -326zM1761 655q0 154 -57 288t-157.5 234.5t-234.5 158t-288 57.5t-288 -57.5t-234.5 -158t-157.5 -234.5t-57 -288t57 -288t157.5 -234t234.5 -157.5t288 -57.5t288 57.5t234.5 157.5t157.5 234t57 288z" />
    <glyph glyph-name="uni24EA" unicode="&#x24ea;" horiz-adv-x="2048" 
d="M799 655q0 -80 19.5 -141t51 -103t71.5 -62.5t83 -20.5t83 20.5t71.5 62.5t51 103t19.5 141t-19.5 141.5t-51 103.5t-71.5 62.5t-83 20.5t-83 -20.5t-71.5 -62.5t-51 -103.5t-19.5 -141.5zM1352 655q0 -100 -27 -178t-72 -132t-104 -81.5t-125 -27.5t-125 27.5t-104 81.5
t-72 132t-27 178t27 178t72 131.5t104 82t125 28.5t125 -28.5t104 -82t72 -131.5t27 -178zM184 655q0 172 66.5 326t180.5 267.5t267.5 180t325.5 66.5t325.5 -66.5t267.5 -180t180.5 -267.5t66.5 -326t-66.5 -325.5t-180.5 -267t-267.5 -180t-325.5 -66.5t-324.5 66.5
t-267.5 180t-181.5 267t-66.5 325.5zM287 655q0 -154 57 -288t157.5 -234t234.5 -157.5t288 -57.5t288 57.5t234.5 157.5t157.5 234.5t57 287.5q0 154 -57 288t-157.5 234.5t-234.5 158t-288 57.5t-288 -57.5t-234.5 -158t-157.5 -234.5t-57 -288z" />
    <glyph glyph-name="uni24FF" unicode="&#x24ff;" horiz-adv-x="2048" 
d="M799 655q0 80 19.5 141.5t51 103.5t71.5 62.5t83 20.5t83 -20.5t71.5 -62.5t51 -103.5t19.5 -141.5t-19.5 -141t-51 -103t-71.5 -62.5t-83 -20.5t-83 20.5t-71.5 62.5t-51 103t-19.5 141zM1352 655q0 100 -27 178t-72 131.5t-104 82t-125 28.5t-125 -28.5t-104 -82
t-72 -131t-27 -178.5q0 -100 27 -178t72 -132t104 -81.5t125 -27.5t125 27.5t104 81.5t72 132t27 178zM184 655q0 172 66.5 326t180.5 267.5t267.5 180t325.5 66.5t325.5 -66.5t267.5 -180t180.5 -267.5t66.5 -326t-66.5 -325.5t-180.5 -267t-267.5 -180t-325.5 -66.5
t-324.5 66.5t-267.5 180t-181.5 267t-66.5 325.5z" />
    <glyph glyph-name="uni2776" unicode="&#x2776;" horiz-adv-x="2048" 
d="M184 655q0 172 66.5 326t180.5 267.5t267.5 180t325.5 66.5t325.5 -66.5t267.5 -180t180.5 -267.5t66.5 -326t-66.5 -325.5t-180.5 -267t-267.5 -180t-325.5 -66.5t-324.5 66.5t-267.5 180t-181.5 267t-66.5 325.5zM1034 1065l-205 -143l52 -72l143 102v-706h102v819h-92
z" />
    <glyph glyph-name="uni2777" unicode="&#x2777;" horiz-adv-x="2048" 
d="M184 655q0 172 66.5 326t180.5 267.5t267.5 180t325.5 66.5t325.5 -66.5t267.5 -180t180.5 -267.5t66.5 -326t-66.5 -325.5t-180.5 -267t-267.5 -180t-325.5 -66.5t-324.5 66.5t-267.5 180t-181.5 267t-66.5 325.5zM932 338l235 256q14 16 34 37.5t37 50.5t29.5 64.5
t12.5 82.5q0 49 -19.5 94.5t-54.5 79t-82 53t-100 19.5q-117 0 -187.5 -68.5t-78.5 -177.5h102q6 70 50 112t114 42q61 0 107.5 -46t46.5 -108q0 -31 -10.5 -57.5t-26 -50t-33.5 -43t-33 -33.5l-307 -328v-71h512v92h-348z" />
    <glyph glyph-name="uni2778" unicode="&#x2778;" horiz-adv-x="2048" 
d="M1167 676q35 10 62 33q23 18 42 53t19 88q0 92 -71.5 158.5t-194.5 66.5q-117 0 -187.5 -66.5t-78.5 -158.5h102q8 53 51 93t113 40q78 0 121 -40t43 -93t-43 -93t-121 -40h-72v-92h72q92 0 138 -41t46 -103q0 -61 -49 -107t-135 -46q-78 0 -127 43t-57 90h-103
q16 -92 90 -158.5t197 -66.5q66 0 119 19t90 53t57.5 79t20.5 94q0 57 -22.5 95t-49.5 61q-33 25 -72 39zM184 655q0 172 66.5 326t180.5 267.5t267.5 180t325.5 66.5t325.5 -66.5t267.5 -180t180.5 -267.5t66.5 -326t-66.5 -325.5t-180.5 -267t-267.5 -180t-325.5 -66.5
t-324.5 66.5t-267.5 180t-181.5 267t-66.5 325.5z" />
    <glyph glyph-name="uni2779" unicode="&#x2779;" horiz-adv-x="2048" 
d="M1249 522h-92v543h-102l-379 -553v-82h379v-184h102v184h92v92zM788 522l267 389v-389h-267zM184 655q0 172 66.5 326t180.5 267.5t267.5 180t325.5 66.5t325.5 -66.5t267.5 -180t180.5 -267.5t66.5 -326t-66.5 -325.5t-180.5 -267t-267.5 -180t-325.5 -66.5t-324.5 66.5
t-267.5 180t-181.5 267t-66.5 325.5z" />
    <glyph glyph-name="uni277A" unicode="&#x277a;" horiz-adv-x="2048" 
d="M1034 778q-39 0 -67.5 -6t-46.5 -14q-23 -8 -39 -21l30 236h338v92h-430l-51 -471h92q16 25 39 45q20 16 50 31.5t75 15.5q78 0 131 -52t53 -122q0 -78 -53 -131t-131 -53t-123 41t-61 102h-103q16 -100 90 -167.5t197 -67.5q61 0 113.5 21.5t91.5 59t60.5 88t21.5 107.5
q0 53 -21.5 101.5t-59.5 85t-88.5 58t-107.5 21.5zM184 655q0 172 66.5 326t180.5 267.5t267.5 180t325.5 66.5t325.5 -66.5t267.5 -180t180.5 -267.5t66.5 -326t-66.5 -325.5t-180.5 -267t-267.5 -180t-325.5 -66.5t-324.5 66.5t-267.5 180t-181.5 267t-66.5 325.5z" />
    <glyph glyph-name="uni277B" unicode="&#x277b;" horiz-adv-x="2048" 
d="M1024 236q61 0 113.5 21.5t91.5 59t60.5 88t21.5 107.5t-23.5 107.5t-62.5 88t-91.5 59t-109.5 21.5q-16 0 -27.5 -2t-19.5 -4t-14 -4l194 287h-113l-245 -358q-18 -25 -31 -56q-12 -27 -21.5 -62.5t-9.5 -76.5q0 -57 21.5 -107.5t60.5 -88t91.5 -59t113.5 -21.5z
M840 512q0 78 53 131t131 53t131 -53t53 -131t-53 -131t-131 -53t-131 53t-53 131zM184 655q0 172 66.5 326t180.5 267.5t267.5 180t325.5 66.5t325.5 -66.5t267.5 -180t180.5 -267.5t66.5 -326t-66.5 -325.5t-180.5 -267t-267.5 -180t-325.5 -66.5t-324.5 66.5t-267.5 180
t-181.5 267t-66.5 325.5z" />
    <glyph glyph-name="uni277C" unicode="&#x277c;" horiz-adv-x="2048" 
d="M788 1065v-92h400l-348 -727h102l348 737v82h-502zM184 655q0 172 66.5 326t180.5 267.5t267.5 180t325.5 66.5t325.5 -66.5t267.5 -180t180.5 -267.5t66.5 -326t-66.5 -325.5t-180.5 -267t-267.5 -180t-325.5 -66.5t-324.5 66.5t-267.5 180t-181.5 267t-66.5 325.5z" />
    <glyph glyph-name="uni277D" unicode="&#x277d;" horiz-adv-x="2048" 
d="M1024 328q-86 0 -135 46t-49 107t50 107.5t134 46.5t134 -46t50 -108q0 -61 -49 -107t-135 -46zM1024 717q-68 0 -111 40t-43 93t42 93t112 40t112 -40t42 -93t-43 -93t-111 -40zM184 655q0 172 66.5 326t180.5 267.5t267.5 180t325.5 66.5t325.5 -66.5t267.5 -180
t180.5 -267.5t66.5 -326t-66.5 -325.5t-180.5 -267t-267.5 -180t-325.5 -66.5t-324.5 66.5t-267.5 180t-181.5 267t-66.5 325.5zM1024 236q66 0 119 19t90 53t57.5 79t20.5 94q0 57 -22.5 95t-49.5 61q-33 25 -72 39q31 14 56 37q23 20 40 53t17 84q0 45 -18.5 86t-52 71.5
t-81 49t-104.5 18.5t-104.5 -18.5t-81 -49t-52 -71.5t-18.5 -86q0 -51 16.5 -84t38.5 -53q25 -23 58 -37q-41 -14 -72 -39q-29 -23 -50.5 -60.5t-21.5 -95.5q0 -49 20.5 -94t57.5 -79t90 -53t119 -19z" />
    <glyph glyph-name="uni277E" unicode="&#x277e;" horiz-adv-x="2048" 
d="M1024 1075q-61 0 -113.5 -21.5t-91.5 -59.5t-60.5 -88t-21.5 -107t23.5 -107.5t62.5 -88.5t91.5 -59.5t109.5 -21.5q16 0 26.5 1t18.5 3t16 6l-194 -286h113l245 358q16 25 31 55q10 27 20.5 62t10.5 78q0 57 -21.5 107t-60.5 88t-91.5 59.5t-113.5 21.5zM1208 799
q0 -78 -53 -131.5t-131 -53.5t-131 53.5t-53 131.5t53 131t131 53t131 -53t53 -131zM1864 655q0 -172 -66.5 -325.5t-180.5 -267t-267.5 -180t-325.5 -66.5t-325.5 66.5t-267.5 180t-180.5 267t-66.5 325.5t66.5 326t180.5 267.5t267.5 180t325.5 66.5t324.5 -66.5
t267.5 -180t181.5 -267.5t66.5 -326z" />
    <glyph glyph-name="uniF6C3" unicode="&#xf6c3;" horiz-adv-x="276" 
d="M72 -225q0 31 20.5 51t50.5 20q31 0 51.5 -21.5t20.5 -60.5q0 -51 -21.5 -92t-46.5 -69q-29 -35 -65 -64l-21 21q20 18 37 41q14 18 27.5 44.5t17.5 57.5q-31 0 -51 20.5t-20 51.5z" />
    <glyph glyph-name="uniF6D1" unicode="&#xf6d1;" horiz-adv-x="593" 
d="M297 1516q61 0 103 39.5t51 93.5h81q-8 -92 -71.5 -153.5t-163.5 -61.5t-163.5 61t-72.5 154h82q8 -53 50.5 -93t103.5 -40z" />
    <glyph glyph-name="uniF6D4" unicode="&#xf6d4;" horiz-adv-x="573" 
d="M287 1147q61 0 98 40t45 93h82q-8 -92 -70.5 -153.5t-154.5 -61.5t-154.5 61.5t-71.5 153.5h82q8 -53 45.5 -93t98.5 -40z" />
    <glyph glyph-name="uniFB06" unicode="&#xfb06;" horiz-adv-x="1443" 
d="M727 256q0 -53 -22.5 -101.5t-62.5 -85t-96.5 -58t-125.5 -21.5q-74 0 -132.5 21.5t-100.5 59.5t-66.5 88t-28.5 107h92q16 -86 71.5 -135t164.5 -49q100 0 157.5 52t57.5 122q0 61 -39 94t-96.5 50.5t-126 30.5t-126 38t-96 70t-38.5 127q0 49 20.5 94t57 78.5t90 53
t118.5 19.5q16 0 28.5 -2t23.5 -4q10 -2 22 -4q-14 23 -22 47q-8 23 -14.5 52.5t-6.5 64.5q0 70 23.5 128t66.5 100t103.5 65.5t134.5 23.5q162 0 260 -100t98 -278v-103h225v-92h-225v-553q0 -92 47 -133t117 -41q25 0 45 4q8 2 16 6v-82q-10 -6 -22 -10q-25 -10 -59 -10
q-100 0 -168 71.5t-68 194.5v553h-174v92h82q53 0 77.5 27.5t24.5 75.5q0 139 -76.5 217.5t-199.5 78.5q-109 0 -172.5 -63t-63.5 -172q0 -74 29 -123t64.5 -91t66.5 -87t35 -109h-92q-16 70 -69.5 117t-145.5 47q-100 0 -152.5 -46t-52.5 -107q0 -59 39 -89t96 -46.5
t126 -30t126 -39t96 -72.5t39 -133z" />
    <glyph glyph-name="lslash.salt" horiz-adv-x="532" 
d="M20 532l175 113v645h92v-583l174 112v-92l-174 -113v-358q0 -86 43 -130t121 -44q25 0 45 4q8 2 16 6v-82q-10 -6 -23 -10q-25 -10 -59 -10q-100 0 -167.5 71.5t-67.5 194.5v297l-175 -113v92z" />
    <glyph glyph-name="glyph474" horiz-adv-x="1198" 
d="M737 737q80 0 149.5 -28.5t121 -78.5t80 -118t28.5 -143q0 -78 -28.5 -144.5t-80 -117t-121 -79t-149.5 -28.5h-143v92h143q57 0 107.5 21.5t88.5 59.5t59.5 88t21.5 108q0 57 -21.5 107t-59.5 88t-88 59.5t-108 21.5h-112v92l297 461h-390q-49 0 -96 -21.5t-82 -59.5
t-56.5 -88t-21.5 -107v-922h-102v922q0 80 27.5 147.5t75 116.5t113 76.5t142.5 27.5h512v-82z" />
    <glyph glyph-name="a.salt" horiz-adv-x="1054" 
d="M82 451q0 100 32.5 184t89 145.5t133.5 96t165 34.5q78 0 134 -25.5t95 -56.5q45 -37 78 -81h10l31 153h61v-901h-61l-31 154h-10q-33 -45 -78 -82q-39 -31 -95 -56.5t-134 -25.5q-88 0 -165 34.5t-133.5 96t-89 146t-32.5 184.5zM502 82q66 0 125 27.5t104 77t71.5 117
t26.5 147.5t-26.5 147.5t-71.5 116.5t-104.5 76.5t-124.5 27.5q-66 0 -125.5 -27.5t-104.5 -76.5t-71.5 -117t-26.5 -147q0 -80 26.5 -147.5t71.5 -117t104.5 -77t125.5 -27.5z" />
    <glyph glyph-name="uni0443.salt" horiz-adv-x="880" 
d="M31 901h102l307 -768l308 768h102l-502 -1229h-102l143 348z" />
    <glyph glyph-name="l.salt" horiz-adv-x="481" 
d="M236 256q0 -86 43 -130t120 -44q25 0 45 4q8 2 17 6v-82q-10 -6 -23 -10q-25 -10 -59 -10q-100 0 -168 71.5t-68 194.5v1034h93v-1034z" />
    <glyph glyph-name="y.salt" horiz-adv-x="1034" 
d="M225 -72q31 -78 97.5 -131t189.5 -53q61 0 113.5 21.5t91.5 60.5t60.5 91t21.5 114v143h-11q-29 -41 -67 -72q-35 -29 -88 -50t-131 -21t-143.5 27.5t-112.5 77.5t-75 120t-28 154v491h93v-491q0 -131 76.5 -209t199.5 -78q59 0 111.5 20.5t91.5 56.5t61.5 86t22.5 109
v506h92v-870q0 -80 -28.5 -149.5t-80 -121t-121 -80t-149.5 -28.5q-84 0 -149.5 21.5t-113.5 59.5t-80 88t-46 107h102z" />
    <glyph glyph-name="I.salt" horiz-adv-x="655" 
d="M72 1198v92h512v-92h-205v-1106h205v-92h-512v92h204v1106h-204z" />
    <glyph glyph-name="c_t.dlig" horiz-adv-x="1576" 
d="M655 1065q0 -66 30 -120t69 -108.5t78.5 -111.5t58.5 -131h-103q-31 92 -104.5 158.5t-181.5 66.5q-66 0 -125.5 -27.5t-104.5 -76.5t-71.5 -117t-26.5 -147q0 -80 26.5 -147.5t71.5 -117t104.5 -77t125.5 -27.5q109 0 182.5 66.5t103.5 158.5h103q-39 -139 -137.5 -228
t-251.5 -89q-88 0 -165 34.5t-133.5 96t-89 145.5t-32.5 185q0 100 32.5 184t89 145.5t133.5 96t165 34.5q16 0 34.5 -2t34.5 -6q20 -4 39 -8q-14 20 -24 47q-10 23 -16.5 53.5t-6.5 69.5q0 70 23.5 128t66.5 100t103.5 65.5t134.5 23.5q162 0 260 -100t98 -278v-103h226
v-92h-226v-553q0 -92 47 -133t117 -41q25 0 45 4q8 2 17 6v-82q-10 -6 -23 -10q-25 -10 -59 -10q-100 0 -168 71.5t-68 194.5v553h-174v92h82q53 0 77.5 27.5t24.5 75.5q0 139 -76.5 217.5t-199.5 78.5q-109 0 -172.5 -63t-63.5 -172z" />
    <glyph glyph-name="r_f.dlig" horiz-adv-x="1044" 
d="M676 901v123q0 123 67.5 194.5t167.5 71.5q18 0 34 -3t26 -7q12 -6 22 -10v-82l-16 4t-19.5 4t-25.5 2q-70 0 -117 -41t-47 -133v-123h225v-92h-225v-809h-92v809h-154q-66 0 -119 -21.5t-90 -60.5t-57 -91t-20 -114v-522h-93v901h62l31 -133h10q25 37 65 66
q35 25 89.5 46t131.5 21h144z" />
    <glyph glyph-name="r_t.dlig" horiz-adv-x="1095" 
d="M584 901q102 0 102 103v163h82v-266h225v-92h-225v-553q0 -92 47 -133t117 -41q25 0 45 4q8 2 16 6v-82q-10 -6 -22 -10q-25 -10 -60 -10q-100 0 -167.5 71.5t-67.5 194.5v553h-154q-66 0 -119 -21.5t-90 -60.5t-57 -91t-20 -114v-522h-93v901h62l31 -133h10q25 37 65 66
q35 25 89.5 46t131.5 21h52z" />
    <glyph glyph-name="uni0430.salt" horiz-adv-x="1054" 
d="M82 451q0 100 33 184t89 145t133 97q77 35 165 34q78 0 134 -25q56 -26 95 -57q45 -37 78 -81h10l31 153h61v-901h-61l-31 154h-10q-33 -45 -78 -82q-39 -31 -95 -57t-134 -25q-88 0 -165 35t-133 96t-89 145q-33 85 -33 185zM502 82q66 0 125 28t104 76q45 49 72 117
t26 148q0 80 -26 147q-27 68 -72 117t-104 77t-125 27q-66 0 -125 -27q-59 -28 -105 -77q-45 -49 -71 -117q-27 -68 -27 -147q0 -80 27 -148t71 -117q45 -49 105 -76q59 -28 125 -28z" />
    <glyph glyph-name="uni045E.salt" horiz-adv-x="880" 
d="M31 901h102l307 -768l308 768h102l-502 -1229h-102l143 348zM440 1137q61 0 99 40q37 40 45 93h82q-8 -92 -71 -154q-62 -61 -155 -61q-92 0 -154 61t-71 154h82q8 -53 45 -93t98 -40z" />
    <glyph glyph-name="agrave.salt" horiz-adv-x="1054" 
d="M563 1075h-71l-175 246h123zM82 451q0 100 33 184t89 145t133 97q77 35 165 34q78 0 134 -25q56 -26 95 -57q45 -37 78 -81h10l31 153h61v-901h-61l-31 154h-10q-33 -45 -78 -82q-39 -31 -95 -57t-134 -25q-88 0 -165 35t-133 96t-89 145q-33 85 -33 185zM502 82
q66 0 125 28t104 76q45 49 72 117t26 148q0 80 -26 147q-27 68 -72 117t-104 77t-125 27q-66 0 -125 -27q-59 -28 -105 -77q-45 -49 -71 -117q-27 -68 -27 -147q0 -80 27 -148t71 -117q45 -49 105 -76q59 -28 125 -28z" />
    <glyph glyph-name="aacute.salt" horiz-adv-x="1054" 
d="M610 1321h123l-174 -246h-72zM82 451q0 100 33 184t89 145t133 97q77 35 165 34q78 0 134 -25q56 -26 95 -57q45 -37 78 -81h10l31 153h61v-901h-61l-31 154h-10q-33 -45 -78 -82q-39 -31 -95 -57t-134 -25q-88 0 -165 35t-133 96t-89 145q-33 85 -33 185zM502 82
q66 0 125 28t104 76q45 49 72 117t26 148q0 80 -26 147q-27 68 -72 117t-104 77t-125 27q-66 0 -125 -27q-59 -28 -105 -77q-45 -49 -71 -117q-27 -68 -27 -147q0 -80 27 -148t71 -117q45 -49 105 -76q59 -28 125 -28z" />
    <glyph glyph-name="abreve.salt" horiz-adv-x="1054" 
d="M532 1137q61 0 99 40q37 40 45 93h82q-8 -92 -71 -154q-62 -61 -155 -61q-92 0 -154 61t-71 154h82q8 -53 45 -93t98 -40zM82 451q0 100 33 184t89 145t133 97q77 35 165 34q78 0 134 -25q56 -26 95 -57q45 -37 78 -81h10l31 153h61v-901h-61l-31 154h-10
q-33 -45 -78 -82q-39 -31 -95 -57t-134 -25q-88 0 -165 35t-133 96t-89 145q-33 85 -33 185zM502 82q66 0 125 28t104 76q45 49 72 117t26 148q0 80 -26 147q-27 68 -72 117t-104 77t-125 27q-66 0 -125 -27q-59 -28 -105 -77q-45 -49 -71 -117q-27 -68 -27 -147
q0 -80 27 -148t71 -117q45 -49 105 -76q59 -28 125 -28z" />
    <glyph glyph-name="acircumflex.salt" horiz-adv-x="1054" 
d="M563 1311l195 -236h-103l-133 164l-133 -164h-102l194 236h82zM82 451q0 100 33 184t89 145t133 97q77 35 165 34q78 0 134 -25q56 -26 95 -57q45 -37 78 -81h10l31 153h61v-901h-61l-31 154h-10q-33 -45 -78 -82q-39 -31 -95 -57t-134 -25q-88 0 -165 35t-133 96
t-89 145q-33 85 -33 185zM502 82q66 0 125 28t104 76q45 49 72 117t26 148q0 80 -26 147q-27 68 -72 117t-104 77t-125 27q-66 0 -125 -27q-59 -28 -105 -77q-45 -49 -71 -117q-27 -68 -27 -147q0 -80 27 -148t71 -117q45 -49 105 -76q59 -28 125 -28z" />
    <glyph glyph-name="adieresis.salt" horiz-adv-x="1054" 
d="M748 1178q0 -31 -21 -52q-20 -20 -51 -20t-51 20t-21 52q0 31 21 51q20 20 51 20t51 -20q21 -20 21 -51zM440 1178q0 -31 -20 -52q-20 -20 -51 -20t-52 20q-20 20 -20 52q0 31 20 51t52 20q31 0 51 -20t20 -51zM82 451q0 100 33 184t89 145t133 97q77 35 165 34
q78 0 134 -25q56 -26 95 -57q45 -37 78 -81h10l31 153h61v-901h-61l-31 154h-10q-33 -45 -78 -82q-39 -31 -95 -57t-134 -25q-88 0 -165 35t-133 96t-89 145q-33 85 -33 185zM502 82q66 0 125 28t104 76q45 49 72 117t26 148q0 80 -26 147q-27 68 -72 117t-104 77t-125 27
q-66 0 -125 -27q-59 -28 -105 -77q-45 -49 -71 -117q-27 -68 -27 -147q0 -80 27 -148t71 -117q45 -49 105 -76q59 -28 125 -28z" />
    <glyph glyph-name="amacron.salt" horiz-adv-x="1054" 
d="M758 1126h-482v93h482v-93zM82 451q0 100 33 184t89 145t133 97q77 35 165 34q78 0 134 -25q56 -26 95 -57q45 -37 78 -81h10l31 153h61v-901h-61l-31 154h-10q-33 -45 -78 -82q-39 -31 -95 -57t-134 -25q-88 0 -165 35t-133 96t-89 145q-33 85 -33 185zM502 82
q66 0 125 28t104 76q45 49 72 117t26 148q0 80 -26 147q-27 68 -72 117t-104 77t-125 27q-66 0 -125 -27q-59 -28 -105 -77q-45 -49 -71 -117q-27 -68 -27 -147q0 -80 27 -148t71 -117q45 -49 105 -76q59 -28 125 -28z" />
    <glyph glyph-name="aogonek.salt" horiz-adv-x="1054" 
d="M819 154h-10q-33 -45 -78 -82q-39 -31 -95 -56.5t-134 -25.5q-88 0 -165 34.5t-133.5 96t-89 145.5t-32.5 185q0 100 32.5 184t89 145.5t133.5 96t165 34.5q78 0 134 -25.5t95 -56.5q45 -37 78 -81h10l31 153h61v-901q-23 -25 -41 -53q-16 -25 -28.5 -55.5t-12.5 -65.5
q0 -39 28 -65.5t75 -26.5q16 0 28.5 1t22.5 3t21 6v-72q-10 -4 -21 -6q-10 -2 -22.5 -3t-28.5 -1q-86 0 -135 47t-49 117q0 35 15 67.5t36 59.5q23 31 51 57zM502 82q66 0 125 27.5t104 77t71.5 117t26.5 147.5t-26.5 147.5t-71.5 116.5t-104.5 76.5t-124.5 27.5
q-66 0 -125.5 -27.5t-104.5 -76.5t-71.5 -117t-26.5 -147q0 -80 26.5 -147.5t71.5 -117t104.5 -77t125.5 -27.5z" />
    <glyph glyph-name="aring.salt" horiz-adv-x="1054" 
d="M82 451q0 100 33 184t89 145t133 97q77 35 165 34q78 0 134 -25q56 -26 95 -57q45 -37 78 -81h10l31 153h61v-901h-61l-31 154h-10q-33 -45 -78 -82q-39 -31 -95 -57t-134 -25q-88 0 -165 35t-133 96t-89 145q-33 85 -33 185zM502 82q66 0 125 28t104 76q45 49 72 117
t26 148q0 80 -26 147q-27 68 -72 117t-104 77t-125 27q-66 0 -125 -27q-59 -28 -105 -77q-45 -49 -71 -117q-27 -68 -27 -147q0 -80 27 -148t71 -117q45 -49 105 -76q59 -28 125 -28zM348 1208q0 70 47 117t117 47t117 -47t47 -117t-47 -116q-47 -47 -117 -48q-70 0 -117 48
q-47 46 -47 116zM420 1208q0 -39 26 -65q27 -27 66 -27t66 27t26 65q0 39 -26 66q-27 27 -66 26q-39 0 -66 -26q-26 -27 -26 -66z" />
    <glyph glyph-name="atilde.salt" horiz-adv-x="1054" 
d="M651 1147q31 0 57 30t25 83h72q0 -100 -46 -153q-46 -52 -108 -52q-39 0 -70 20q-32 20 -60 46t-53 46q-26 20 -52 21q-31 0 -57 -30t-25 -83h-72q0 100 46 153q46 52 108 52q39 0 70 -20q32 -20 60 -47q28 -26 53 -46t52 -20zM82 451q0 100 33 184t89 145t133 97
q77 35 165 34q78 0 134 -25q56 -26 95 -57q45 -37 78 -81h10l31 153h61v-901h-61l-31 154h-10q-33 -45 -78 -82q-39 -31 -95 -57t-134 -25q-88 0 -165 35t-133 96t-89 145q-33 85 -33 185zM502 82q66 0 125 28t104 76q45 49 72 117t26 148q0 80 -26 147q-27 68 -72 117
t-104 77t-125 27q-66 0 -125 -27q-59 -28 -105 -77q-45 -49 -71 -117q-27 -68 -27 -147q0 -80 27 -148t71 -117q45 -49 105 -76q59 -28 125 -28z" />
    <glyph glyph-name="lacute.salt" horiz-adv-x="481" 
d="M236 256q0 -86 43 -130t120 -44q25 0 45 4q8 2 17 6v-82q-10 -6 -23 -10q-25 -10 -59 -10q-100 0 -168 71q-68 72 -68 195v1034h93v-1034zM276 1690h123l-174 -246h-71z" />
    <glyph glyph-name="lcaron.salt" horiz-adv-x="491" 
d="M440 1290h123l-123 -246h-71zM236 256q0 -86 43 -130t120 -44q25 0 45 4q8 2 17 6v-82q-10 -6 -23 -10q-25 -10 -59 -10q-100 0 -168 71.5t-68 194.5v1034h93v-1034z" />
    <glyph glyph-name="uni013C.salt" horiz-adv-x="481" 
d="M236 -225q0 31 20 51t51 20t51 -21q20 -22 21 -61q0 -51 -22 -92t-46 -69q-29 -35 -65 -64l-21 21q20 18 37 41q14 18 28 45q13 27 17 57q-31 0 -51 21q-20 20 -20 51zM236 256q0 -86 43 -130t120 -44q25 0 45 4q8 2 17 6v-82q-10 -6 -23 -10q-25 -10 -59 -10
q-100 0 -168 71q-68 72 -68 195v1034h93v-1034z" />
    <glyph glyph-name="Igrave.salt" horiz-adv-x="655" 
d="M369 1444h-72l-174 246h123zM72 1198v92h512v-92h-205v-1106h205v-92h-512v92h204v1106h-204z" />
    <glyph glyph-name="Iacute.salt" horiz-adv-x="655" 
d="M420 1690h123l-174 -246h-72zM72 1198v92h512v-92h-205v-1106h205v-92h-512v92h204v1106h-204z" />
    <glyph glyph-name="Icircumflex.salt" horiz-adv-x="655" 
d="M369 1663l194 -236h-102l-133 164l-133 -164h-103l195 236h82zM72 1198v92h512v-92h-205v-1106h205v-92h-512v92h204v1106h-204z" />
    <glyph glyph-name="Idieresis.salt" horiz-adv-x="655" 
d="M553 1556q0 -31 -21 -51q-20 -20 -51 -20t-51 20t-20 51t20 52q20 20 51 20t51 -20q21 -21 21 -52zM246 1556q0 -31 -21 -51q-20 -20 -51 -20t-51 20t-21 51q0 31 21 52q20 20 51 20t51 -20q21 -21 21 -52zM72 1198v92h512v-92h-205v-1106h205v-92h-512v92h204v1106h-204
z" />
    <glyph glyph-name="Idotaccent.salt" horiz-adv-x="655" 
d="M256 1556q0 31 20 52q20 20 52 20q31 0 51 -20t20 -52q0 -31 -20 -51t-51 -20t-52 20q-20 20 -20 51zM72 1198v92h512v-92h-205v-1106h205v-92h-512v92h204v1106h-204z" />
    <glyph glyph-name="Imacron.salt" horiz-adv-x="655" 
d="M573 1485h-481v92h481v-92zM72 1198v92h512v-92h-205v-1106h205v-92h-512v92h204v1106h-204z" />
    <glyph glyph-name="Iogonek.salt" horiz-adv-x="655" 
d="M72 0v92h204v1106h-204v92h512v-92h-205v-1106h205v-92q-23 -25 -41 -53q-16 -25 -28.5 -55.5t-12.5 -65.5q0 -39 27.5 -65.5t74.5 -26.5q16 0 28.5 1t22.5 3t21 6v-72q-10 -4 -21 -6q-10 -2 -22 -3t-29 -1q-86 0 -135 47t-49 117q0 35 14.5 65.5t30.5 55.5q20 29 47 53
h-440z" />
    <glyph glyph-name="yacute.salt" horiz-adv-x="1034" 
d="M225 -72q31 -78 98 -131t189 -53q61 0 114 22q52 22 91 60q39 39 60 91q22 52 22 114v143h-11q-29 -41 -67 -72q-35 -29 -88 -50q-53 -22 -131 -21q-78 0 -144 27q-66 28 -112 78q-47 50 -75 120t-28 154v491h93v-491q0 -131 76 -209q77 -78 200 -78q59 0 112 20
q52 20 91 57q39 36 61 86q23 50 23 109v506h92v-870q0 -80 -29 -150t-80 -121t-120 -79q-70 -29 -150 -29q-84 0 -150 21q-66 22 -113 60q-48 38 -80 88t-46 107h102zM604 1321h123l-174 -246h-72z" />
    <glyph glyph-name="ydieresis.salt" horiz-adv-x="1034" 
d="M748 1178q0 -31 -21 -52q-20 -20 -51 -20t-51 20t-21 52q0 31 21 51q20 20 51 20t51 -20q21 -20 21 -51zM440 1178q0 -31 -20 -52q-20 -20 -51 -20t-52 20q-20 20 -20 52q0 31 20 51t52 20q31 0 51 -20t20 -51zM225 -72q31 -78 98 -131t189 -53q61 0 114 22q52 22 91 60
q39 39 60 91q22 52 22 114v143h-11q-29 -41 -67 -72q-35 -29 -88 -50q-53 -22 -131 -21q-78 0 -144 27q-66 28 -112 78q-47 50 -75 120t-28 154v491h93v-491q0 -131 76 -209q77 -78 200 -78q59 0 112 20q52 20 91 57q39 36 61 86q23 50 23 109v506h92v-870q0 -80 -29 -150
t-80 -121t-120 -79q-70 -29 -150 -29q-84 0 -150 21q-66 22 -113 60q-48 38 -80 88t-46 107h102z" />
    <glyph glyph-name="zero.tnum" 
d="M102 645q0 -139 34 -244q34 -104 88 -176t124 -107q70 -36 144 -36t143 36q70 36 124 107q54 72 88 176t34 244q0 137 -34 243q-34 105 -88 177t-124 107q-70 36 -143 36q-74 0 -144 -36t-124 -107q-54 -72 -88 -177q-34 -106 -34 -243zM983 645q0 -158 -41 -279
q-41 -122 -108 -206q-68 -84 -157 -127t-185 -43t-186 43q-89 43 -156 127q-68 84 -109 206t-41 279q0 158 41 280t109 205q68 84 156 127q89 43 186 43q96 0 185 -43t157 -127t108 -205q41 -122 41 -280z" />
    <glyph glyph-name="one.tnum" 
d="M563 1290v-1198h277v-92h-656v92h277v1065l-236 -164l-51 82l318 215h71z" />
    <glyph glyph-name="two.tnum" 
d="M881 92v-92h-768v82l491 532q49 49 86 103q33 47 61 105t27 120q0 57 -20 107q-20 49 -57 84q-36 35 -87 55t-112 20t-115 -21q-53 -22 -92 -59t-63 -87t-27 -107h-103q4 76 35 142q31 67 84 117t125 79t156 28q84 0 153 -27q70 -28 120 -75t78 -114t28 -142
q0 -78 -31 -145q-31 -68 -68 -121q-43 -61 -96 -113l-440 -471h635z" />
    <glyph glyph-name="three.tnum" 
d="M102 973q4 66 34 125t79 104t118 72t148 26q88 0 160 -26q72 -27 123 -74t79 -110t27 -138q0 -82 -33 -135q-34 -53 -75 -88q-47 -39 -107 -63q70 -25 123 -68q47 -37 85 -97t38 -153q0 -74 -30 -138q-30 -65 -83 -114t-129 -78t-167 -28q-88 0 -161 26q-73 27 -126 72
t-87 105q-34 59 -46 124h102q12 -47 39 -89t67 -74q40 -33 93 -53q53 -19 119 -19q70 0 125 21q56 22 97 59q40 37 62 85q23 48 23 101t-23 102q-23 48 -62 85q-40 37 -97 58q-56 22 -125 21h-82v93h71q66 0 119 19t90 53t58 79q20 45 20 94q0 53 -20 101q-20 47 -58 82
q-37 35 -90 54t-119 19q-57 0 -106 -19t-86 -52t-59 -76t-25 -88h-103z" />
    <glyph glyph-name="four.tnum" 
d="M932 307h-154v-307h-102v307h-604v82l583 901h123v-891h154v-92zM676 399v758l-492 -758h492z" />
    <glyph glyph-name="five.tnum" 
d="M502 850q84 0 158 -33q75 -33 131 -90q55 -57 88 -136t32 -171q0 -92 -32 -171q-33 -79 -89 -136t-134 -90q-77 -33 -164 -33q-84 0 -155 26q-71 27 -123 72t-86 105q-34 59 -46 124h102q12 -47 38 -89t66 -74q40 -33 91 -53q51 -19 113 -19q66 0 122 26q57 26 101 70
q43 45 68 107q26 61 26 135t-26 135t-68 107q-43 45 -101 70q-57 26 -122 26q-70 0 -121 -31t-86 -68q-41 -43 -70 -96h-102l82 727h634v-92h-553l-51 -491q29 39 70 71q35 27 86 49q51 23 121 23z" />
    <glyph glyph-name="six.tnum" 
d="M502 -10q-88 0 -165 33t-133 90t-89 136t-33 171q0 66 16 125t39 104q25 53 58 99l368 542h113l-338 -481q20 12 45 20q23 8 51 15q29 6 68 6q88 0 165 -33t133 -90t89 -136t33 -171t-33 -171t-89 -136t-133 -90t-165 -33zM502 82q66 0 123 26t100 70q43 45 69 107
q26 61 25 135q0 74 -25 135q-26 61 -69 107q-43 45 -100 70q-57 26 -123 26t-123 -26t-100 -70q-43 -45 -69 -107q-26 -61 -26 -135t26 -135t69 -107q43 -45 100 -70q57 -26 123 -26z" />
    <glyph glyph-name="seven.tnum" 
d="M891 1290v-82l-553 -1208h-113l553 1198h-645v92h758z" />
    <glyph glyph-name="eight.tnum" 
d="M492 -10q-92 0 -168 28q-76 29 -129 79t-83 117t-30 144q0 100 40 164q40 63 87 101q55 43 129 63q-57 25 -102 64q-39 35 -71 88t-32 135q0 66 28 125t75 104t112 72q66 27 144 26q76 0 142 -26q67 -27 114 -72t74 -104q28 -59 28 -125q0 -82 -32 -135t-70 -88
q-45 -39 -103 -64q72 -20 127 -63q47 -37 88 -101q41 -63 41 -164q0 -78 -30 -144q-30 -67 -83 -117t-129 -79q-75 -28 -167 -28zM236 973q0 -47 19 -89t54 -75t82 -52t101 -20q53 0 100 20q47 19 82 52t54 75t20 89q0 45 -20 88q-19 43 -54 76t-82 52t-100 19t-101 -19
q-47 -19 -82 -52t-54 -76t-19 -88zM184 358q0 -57 23 -107t62 -88q40 -38 97 -60q56 -22 126 -21q70 0 125 21q56 22 97 60q40 38 62 88q23 50 23 107t-23 108q-23 50 -62 88q-40 38 -97 59q-56 22 -125 22q-70 0 -126 -22t-97 -59q-40 -38 -62 -88q-23 -51 -23 -108z" />
    <glyph glyph-name="nine.tnum" 
d="M492 1300q88 0 164 -32q77 -33 134 -90q56 -57 89 -137q33 -79 32 -171q0 -66 -17 -125t-40 -104q-25 -53 -55 -98l-369 -543h-113l338 481q-20 -12 -45 -20q-23 -8 -52 -15q-30 -6 -66 -6q-88 0 -165 33t-133 90t-90 136q-33 79 -32 171q0 92 32 171q33 79 90 137
q56 57 133 90q77 32 165 32zM492 1208q-66 0 -123 -25q-57 -26 -101 -71q-43 -45 -68 -106q-26 -61 -26 -136q0 -74 26 -135t68 -106q43 -45 101 -71q57 -26 123 -26t122 26q57 26 101 71q43 45 68 106q26 61 26 135t-26 136q-26 61 -68 106q-43 45 -101 71q-56 25 -122 25z
" />
    <glyph glyph-name="at.case" horiz-adv-x="1515" 
d="M522 604q0 -117 62 -181q61 -65 153 -65t154 65q61 65 61 181q0 117 -61 181q-61 65 -154 65q-92 0 -153 -65q-62 -64 -62 -181zM973 410q-27 -41 -64 -72q-33 -29 -80 -50q-47 -22 -112 -22q-61 0 -116 24q-54 24 -94 68q-40 45 -64 107q-24 61 -23 139q0 76 23 138
q24 62 64 108q40 45 94 69t116 23q66 0 109 -21q44 -22 73 -47q33 -29 53 -65h11l20 123h61v-410q0 -78 40 -121t94 -43q31 0 61 16q31 15 56 49q26 34 41 86t16 126q0 106 -46 207q-46 100 -126 177t-187 123q-106 46 -225 46t-225 -46t-187 -126q-80 -80 -126 -187
q-46 -106 -46 -225t46 -225t126 -186t187 -126q106 -46 225 -47q70 0 126 15q56 14 97 31q47 20 84 47l41 -82q-45 -29 -98 -51q-47 -20 -110 -36q-62 -15 -140 -16q-141 0 -265 53q-124 52 -215 143t-144 215q-52 124 -52 265t52 265t144 215q91 91 215 144q124 52 265 52
q145 0 269 -53t214 -144q90 -90 142 -209q51 -119 51 -249q0 -88 -22 -156t-56 -113q-35 -45 -82 -67q-47 -23 -96 -23q-59 0 -97 22t-63 50q-29 31 -45 72h-10z" />
    <glyph glyph-name="parenleft.case" horiz-adv-x="491" 
d="M205 604q0 -162 38 -306t85 -255q53 -127 123 -238l-62 -51q-78 113 -139 248q-53 117 -95 270q-42 154 -42 332t42 332t95 270q61 135 139 248l62 -51q-70 -111 -123 -238q-47 -111 -85 -255t-38 -306z" />
    <glyph glyph-name="parenright.case" horiz-adv-x="491" 
d="M287 604q0 162 -38 306t-85 255q-53 127 -123 238l61 51q76 -113 138 -248q53 -117 96 -270q43 -154 43 -332t-43 -332t-96 -270q-61 -135 -138 -248l-61 51q70 111 123 238q47 111 85 255t38 306z" />
    <glyph glyph-name="bracketleft.case" horiz-adv-x="563" 
d="M266 -123h246v-92h-338v1659h338v-92h-246v-1475z" />
    <glyph glyph-name="bracketright.case" horiz-adv-x="563" 
d="M297 1352h-246v92h338v-1659h-338v92h246v1475z" />
    <glyph glyph-name="braceleft.case" horiz-adv-x="624" 
d="M113 655q143 0 143 144v399q0 117 65 181q65 65 181 65h71v-92h-71q-70 0 -112 -42t-42 -112v-399q0 -59 -21 -94q-22 -35 -46 -56q-29 -23 -66 -35q37 -12 66 -34q25 -20 46 -57q22 -36 21 -93v-399q0 -70 42 -112t112 -42h71v-92h-71q-117 0 -181 64q-65 65 -65 182
v399q0 143 -143 143v82v0z" />
    <glyph glyph-name="braceright.case" horiz-adv-x="624" 
d="M512 573q-143 0 -143 -143v-399q0 -117 -65 -182t-181 -64h-72v92h72q70 0 111 42q42 42 42 112v399q0 57 21 93q20 36 45 57q29 23 68 34q-39 12 -68 35q-25 20 -45 56q-20 35 -21 94v399q0 70 -42 112t-111 42h-72v92h72q117 0 181 -65q65 -65 65 -181v-399
q0 -143 143 -144v-82z" />
    <glyph glyph-name="exclamdown.case" horiz-adv-x="491" 
d="M287 983l20 -983h-123l11 983h92zM174 1229q0 31 20.5 51t51.5 20t51 -20t20 -51t-20.5 -51.5t-50.5 -20.5q-31 0 -51.5 20.5t-20.5 51.5z" />
    <glyph glyph-name="questiondown.case" horiz-adv-x="870" 
d="M82 307q0 82 23.5 137.5t58.5 97.5t77 77.5t76.5 77.5t58 97.5t23.5 137.5v20h103v-20q0 -92 -23.5 -154.5t-58.5 -107.5t-77 -81t-77 -75t-58.5 -87t-23.5 -120q0 -100 69 -167.5t177 -67.5q53 0 100.5 20.5t82 57t54 90t19.5 118.5v31h102v-31q0 -84 -27.5 -153.5
t-74.5 -119.5t-113.5 -77.5t-142.5 -27.5q-78 0 -141.5 25.5t-109.5 69.5t-71.5 103t-25.5 129zM532 1219q0 -31 -20 -51.5t-51 -20.5t-51.5 20.5t-20.5 51.5t20.5 51t51.5 20t51 -20t20 -51z" />
    <glyph glyph-name="guillemotleft.case" horiz-adv-x="798" 
d="M174 604l225 -317h-102l-225 317l225 318h102zM502 604l225 -317h-102l-226 317l226 318h102z" />
    <glyph glyph-name="guillemotright.case" horiz-adv-x="798" 
d="M399 922h103l225 -318l-225 -317h-103l226 317zM72 922h102l225 -318l-225 -317h-102l225 317z" />
    <glyph glyph-name="guilsinglleft.case" horiz-adv-x="471" 
d="M174 604l225 -317h-102l-225 317l225 318h102z" />
    <glyph glyph-name="guilsinglright.case" horiz-adv-x="471" 
d="M72 922h102l225 -318l-225 -317h-102l225 317z" />
    <glyph glyph-name="hyphen.case" horiz-adv-x="696" 
d="M625 625h-553v82h553v-82z" />
    <glyph glyph-name="endash.case" horiz-adv-x="942" 
d="M870 635h-798v92h798v-92z" />
    <glyph glyph-name="emdash.case" horiz-adv-x="1433" 
d="M1362 635h-1290v92h1290v-92z" />
    <glyph glyph-name="glyph541" horiz-adv-x="3149" 
d="M569 879h-147v-408h-72v408h-145v63h364v-63zM1063 811q66 0 112 -50t46 -122q0 -74 -46.5 -124t-111.5 -50q-59 0 -96 43v-162h-70v459h49l19 -39q16 20 41.5 32.5t56.5 12.5zM1057 528q39 0 67.5 32t28.5 79q0 43 -28.5 74.5t-67.5 31.5q-41 0 -68.5 -31.5t-27.5 -74.5
q0 -47 27.5 -79t68.5 -32zM772 805h76l-158 -389q-33 -70 -100 -70q-14 0 -21 2v58q47 0 64 40l12 33l-129 326h76l90 -238zM1436 811q66 0 110.5 -49t44.5 -121q0 -4 -1 -9t-1 -9v-13h-243q4 -35 29.5 -59.5t60.5 -24.5q25 0 45 8.5t30 26.5h72q-18 -47 -59 -71.5
t-88 -24.5q-66 0 -113 50t-47 124q0 35 12 66.5t33.5 55t51.5 37t63 13.5zM1526 666q-2 35 -30 58.5t-60 23.5q-33 0 -59.5 -21.5t-30.5 -60.5h180zM1923 879h-147v-408h-72v408h-145v63h364v-63zM2417 811q66 0 111.5 -50t45.5 -122q0 -74 -46 -124t-111 -50q-59 0 -97 43
v-162h-69v459h49l18 -39q16 20 42 32.5t57 12.5zM2410 528q39 0 68 32t29 79q0 43 -29 74.5t-68 31.5q-41 0 -68.5 -31.5t-27.5 -74.5q0 -47 27.5 -79t68.5 -32zM2126 805h76l-158 -389q-33 -70 -100 -70q-14 0 -21 2v58q47 0 64 40l12 33l-129 326h76l90 -238zM2789 811
q66 0 111 -49t45 -121q0 -4 -1 -9t-1 -9v-13h-244q4 -35 30 -59.5t60 -24.5q25 0 45.5 8.5t30.5 26.5h72q-18 -47 -59.5 -71.5t-88.5 -24.5q-66 0 -112.5 50t-46.5 124q0 35 12 66.5t33.5 55t51 37t62.5 13.5zM2879 666q-2 35 -29.5 58.5t-60.5 23.5t-59.5 -21.5
t-30.5 -60.5h180z" />
    <glyph glyph-name="bullet.case" horiz-adv-x="733" 
d="M492 686q0 -61 -41 -102t-103 -41q-61 0 -102 41t-41 102t41 102t102 41t103 -41q41 -41 41 -102z" />
    <glyph glyph-name="periodcentered.case" horiz-adv-x="430" 
d="M143 686q0 31 21 51q20 20 51 21q31 0 51 -21q20 -20 21 -51q0 -31 -21 -51q-20 -20 -51 -21q-31 0 -51 21q-21 20 -21 51z" />
    <glyph glyph-name="zero.dnom" horiz-adv-x="593" 
d="M532 297q0 -74 -19 -130t-52 -96t-76 -61q-43 -20 -88 -20q-47 0 -89 20t-75 61q-33 40 -52 96t-20 130q0 74 20 130q19 56 52 96t75 61q42 20 89 20q45 0 88 -20t76 -61q33 -40 52 -96t19 -130zM143 297q0 -57 15 -101q14 -44 36 -74t49 -45q28 -15 54 -16q27 0 54 16
q28 15 49 45q22 30 36 74t15 101q0 57 -15 101q-14 44 -36 74t-49 45q-28 15 -54 15q-27 0 -54 -15q-28 -15 -49 -45q-22 -30 -36 -74q-15 -44 -15 -101z" />
    <glyph glyph-name="one.dnom" horiz-adv-x="440" 
d="M72 492l164 102h61v-594h-82v492l-102 -72z" />
    <glyph glyph-name="two.dnom" horiz-adv-x="522" 
d="M174 72h277v-72h-390v61l236 246q18 20 35 43q14 18 25 39q11 20 12 41q0 47 -28 75t-75 27q-96 0 -112 -112h-82q8 86 58 135t136 49t135 -48t50 -126q0 -31 -13 -58q-12 -28 -28 -50q-18 -25 -41 -46z" />
    <glyph glyph-name="three.dnom" horiz-adv-x="542" 
d="M358 317q31 -10 56 -30q23 -16 40 -46t17 -77q0 -70 -56 -122t-149 -52q-92 0 -148 53t-57 131h82q0 -47 35 -80t88 -33t88 33t35 80q0 39 -35 71t-88 31h-51v72h51q47 0 75 27t28 65q0 39 -28 66t-75 26q-47 0 -75 -29q-28 -30 -27 -83h-82q0 86 49 135t135 49t135 -47
t50 -117q0 -35 -16 -58q-15 -24 -32 -38q-20 -17 -45 -27z" />
    <glyph glyph-name="four.dnom" horiz-adv-x="491" 
d="M369 195h82v-72h-82v-123h-82v123h-267v61l256 410h93v-399zM287 195v286l-185 -286h185z" />
    <glyph glyph-name="five.dnom" horiz-adv-x="512" 
d="M266 379q86 0 141 -54q54 -54 54 -141q0 -86 -57 -140q-56 -54 -148 -54t-144 47t-61 117h82q8 -39 39 -66t84 -27t88 35t35 88t-35 88t-88 35q-29 0 -47 -10t-31 -21q-14 -14 -24 -30h-82l41 348h317v-72h-256l-20 -174l28 14q14 6 35 12q20 5 49 5z" />
    <glyph glyph-name="six.dnom" horiz-adv-x="522" 
d="M266 -10q-92 0 -148 54t-57 140q0 35 11 68q10 33 24 59q16 31 37 58l154 225h92l-154 -225q31 12 73 7t81 -27t65 -62q27 -41 27 -103q0 -86 -56 -140q-57 -54 -149 -54zM143 184q0 -53 35 -88t88 -35t88 35t35 88t-35 88t-88 35t-88 -35t-35 -88z" />
    <glyph glyph-name="seven.dnom" horiz-adv-x="460" 
d="M61 594h379v-51l-256 -543h-82l246 522h-287v72z" />
    <glyph glyph-name="eight.dnom" horiz-adv-x="552" 
d="M276 532q-47 0 -74 -26q-28 -27 -28 -66t28 -65q28 -27 74 -27q47 0 75 27t28 65q0 39 -28 66q-28 26 -75 26zM276 287q-53 0 -88 -33t-34 -80q0 -47 34 -80q35 -33 88 -33t89 33q35 33 34 80q0 47 -34 80q-36 33 -89 33zM276 604q86 0 136 -47q49 -47 49 -117
q0 -35 -16 -58q-15 -24 -31 -38q-20 -16 -45 -27q31 -10 55 -30q23 -16 40 -46t17 -77q0 -70 -56 -122t-149 -52q-92 0 -148 52t-56 122q0 47 16 77t39 46q25 20 57 30q-27 10 -47 27q-16 14 -31 38q-14 24 -14 58q0 70 49 117t135 47z" />
    <glyph glyph-name="nine.dnom" horiz-adv-x="522" 
d="M256 604q92 0 148 -54t57 -140q0 -35 -11 -68t-26 -59q-16 -31 -35 -58l-153 -225h-93l154 225q-31 -12 -73 -7t-81 27t-65 62q-27 41 -27 103q0 86 57 140q56 54 148 54zM379 410q0 53 -35 88t-88 34q-53 0 -88 -34q-35 -35 -35 -88t35 -88t88 -35t88 35t35 88z" />
    <glyph glyph-name="zero.frac" horiz-adv-x="593" 
d="M532 993q0 -74 -19 -130t-52 -96t-76 -60t-88 -21q-47 0 -89 21q-42 20 -75 60t-52 96t-20 130q0 74 20 130q19 56 52 97q33 40 75 60t89 20q45 0 88 -20t76 -60t52 -97q19 -56 19 -130zM143 993q0 -57 15 -101q14 -44 36 -74t49 -45q28 -15 54 -15q27 0 54 15
q28 15 49 45q22 30 36 74t15 101q0 57 -15 102q-14 44 -36 73q-22 30 -49 45q-28 15 -54 16q-27 0 -54 -16q-28 -15 -49 -45q-22 -30 -36 -73q-15 -45 -15 -102z" />
    <glyph glyph-name="one.frac" horiz-adv-x="440" 
d="M72 1188l164 102h61v-594h-82v492l-102 -72z" />
    <glyph glyph-name="two.frac" horiz-adv-x="522" 
d="M174 768h277v-72h-390v62l236 246q18 20 35 43q14 18 25 38t12 41q0 47 -28 75t-75 28q-96 0 -112 -113h-82q8 86 58 135t136 49t135 -48t50 -126q0 -31 -13 -58q-12 -28 -28 -50q-18 -25 -41 -45z" />
    <glyph glyph-name="three.frac" horiz-adv-x="542" 
d="M358 1014q31 -10 56 -31q23 -16 40 -46t17 -77q0 -70 -56 -122t-149 -52q-92 0 -148 53t-57 131h82q0 -47 35 -79q35 -33 88 -33t88 33t35 79q0 39 -35 71t-88 32h-51v71h51q47 0 75 27t28 66t-28 65q-28 27 -75 27t-75 -30t-27 -83h-82q0 86 49 135t135 49t135 -47
t50 -116q0 -35 -16 -59q-15 -24 -32 -38q-20 -16 -45 -26z" />
    <glyph glyph-name="four.frac" horiz-adv-x="491" 
d="M369 891h82v-72h-82v-123h-82v123h-267v62l256 409h93v-399zM287 891v287l-185 -287h185z" />
    <glyph glyph-name="five.frac" horiz-adv-x="512" 
d="M266 1075q86 0 141 -54q54 -54 54 -140t-57 -141q-56 -54 -148 -54t-144 47t-61 117h82q8 -39 39 -66t84 -26q53 0 88 35t35 88t-35 88t-88 35q-29 0 -47 -11q-18 -10 -31 -20q-14 -14 -24 -31h-82l41 348h317v-71h-256l-20 -175q12 6 28 15q14 6 35 11q20 5 49 5z" />
    <glyph glyph-name="six.frac" horiz-adv-x="522" 
d="M266 686q-92 0 -148 54t-57 141q0 35 11 67q10 33 24 60q16 31 37 57l154 225h92l-154 -225q31 12 73 7t81 -26q39 -22 65 -63q27 -41 27 -102q0 -86 -56 -141q-57 -54 -149 -54zM143 881q0 -53 35 -88t88 -35t88 35t35 88t-35 88t-88 35t-88 -35t-35 -88z" />
    <glyph glyph-name="seven.frac" horiz-adv-x="460" 
d="M61 1290h379v-51l-256 -543h-82l246 523h-287v71z" />
    <glyph glyph-name="eight.frac" horiz-adv-x="552" 
d="M276 1229q-47 0 -74 -27q-28 -27 -28 -65q0 -39 28 -66t74 -27q47 0 75 27t28 66t-28 65q-28 27 -75 27zM276 983q-53 0 -88 -33t-34 -80q0 -47 34 -79q35 -33 88 -33t89 33q35 33 34 79q0 47 -34 80q-36 33 -89 33zM276 1300q86 0 136 -47q49 -47 49 -116q0 -35 -16 -59
q-15 -24 -31 -38q-20 -16 -45 -26q31 -10 55 -31q23 -16 40 -46t17 -77q0 -70 -56 -122t-149 -52q-92 0 -148 52t-56 122q0 47 16 77t39 46q25 20 57 31q-27 10 -47 26q-16 14 -31 38q-14 24 -14 59q0 70 49 116q49 47 135 47z" />
    <glyph glyph-name="nine.frac" horiz-adv-x="522" 
d="M256 1300q92 0 148 -54t57 -140q0 -35 -11 -68t-26 -59q-16 -31 -35 -57l-153 -226h-93l154 226q-31 -12 -73 -8q-42 5 -81 27t-65 63q-27 41 -27 102q0 86 57 140q56 54 148 54zM379 1106q0 53 -35 88t-88 35t-88 -35t-35 -88t35 -88t88 -35t88 35t35 88z" />
    <glyph glyph-name="zero.oldstyle" horiz-adv-x="1146" 
d="M922 451q0 80 -27 147.5t-74 116.5t-110.5 76.5t-137.5 27.5t-137 -27.5t-110 -76.5t-74 -117t-27 -147q0 -80 27 -147.5t74 -117t110.5 -77t136.5 -27.5q74 0 137.5 27.5t110.5 77t74 117t27 147.5zM1024 451q0 -100 -35 -184.5t-95 -146t-142 -96t-179 -34.5
q-96 0 -178 34.5t-142 96t-95 145.5t-35 185q0 100 35 184t95 145.5t142 96t178 34.5t178.5 -34.5t142.5 -96t95 -145.5t35 -184z" />
    <glyph glyph-name="one.oldstyle" horiz-adv-x="624" 
d="M451 901v-901h-103v768l-235 -164l-52 82l318 215h72z" />
    <glyph glyph-name="two.oldstyle" horiz-adv-x="942" 
d="M829 92v-92h-716v72l440 307q76 53 120 107.5t44 138.5q0 39 -16.5 73.5t-46 61t-71.5 43t-91 16.5q-117 0 -185.5 -61.5t-91.5 -153.5h-102q12 66 41.5 122t78 97t114 64.5t145.5 23.5q74 0 134 -23.5t103 -62.5t66.5 -91t23.5 -109q0 -115 -60.5 -187.5t-144.5 -130.5
l-307 -215h522z" />
    <glyph glyph-name="three.oldstyle" 
d="M154 901h686v-72l-369 -450h21q92 0 167.5 -28.5t129 -81t83 -124t29.5 -155.5t-29.5 -156t-83 -124t-129 -80.5t-167.5 -28.5q-88 0 -161 26.5t-126 72.5t-87 107.5t-46 131.5h102q12 -49 39 -94.5t66.5 -79t93 -53t119.5 -19.5q139 0 223 83t84 214t-84 214t-223 83
q-31 0 -53.5 -3t-39.5 -8l-30 -10l-62 62l400 481h-553v92z" />
    <glyph glyph-name="four.oldstyle" horiz-adv-x="962" 
d="M901 0h-153v-389h-103v389h-604v82l584 819h123v-809h153v-92zM645 92v676l-481 -676h481z" />
    <glyph glyph-name="five.oldstyle" horiz-adv-x="1003" 
d="M512 461q84 0 159 -33t130 -90t88 -136t33 -171t-33 -171t-89 -136t-133 -91q-77 -33 -165 -32q-84 0 -155 26q-71 27 -123 72t-86 104t-46 125h103q12 -47 37 -89q26 -42 66 -75t91 -52t113 -19q66 0 123 25q57 26 100 71t69 107q26 61 25 135q0 74 -25 135
q-26 61 -69 106t-100 71t-123 26q-70 0 -121 -31t-86 -68q-41 -43 -70 -96h-102l82 727h635v-92h-553l-51 -492q29 39 69 72q35 27 86 49q51 23 121 23z" />
    <glyph glyph-name="six.oldstyle" horiz-adv-x="1024" 
d="M512 -10q-88 0 -165 33t-133 90t-89 136t-33 171q0 66 17 125q16 59 38 104q25 53 58 99l368 542h113l-338 -481q20 12 45 20q23 8 51 15q29 6 68 6q88 0 165 -33t133 -90t89 -136t33 -171t-33 -171t-89 -136t-133 -90t-165 -33zM512 82q66 0 123 26t100 70q43 45 69 107
q26 61 25 135q0 74 -25 135q-26 61 -69 107q-43 45 -100 70q-57 26 -123 26t-123 -26t-100 -70q-43 -45 -69 -107q-26 -61 -25 -135q0 -74 25 -135q26 -61 69 -107q43 -45 100 -70q57 -26 123 -26z" />
    <glyph glyph-name="seven.oldstyle" horiz-adv-x="870" 
d="M819 901v-82l-553 -1208h-112l553 1198h-646v92h758z" />
    <glyph glyph-name="eight.oldstyle" 
d="M492 -10q-92 0 -168 28q-76 29 -129 79t-83 117t-30 144q0 100 40 164q40 63 87 101q55 43 129 63q-57 25 -102 64q-39 35 -71 88t-32 135q0 66 28 125t75 104t112 72q66 27 144 26q76 0 142 -26q67 -27 114 -72t74 -104q28 -59 28 -125q0 -82 -32 -135t-70 -88
q-45 -39 -103 -64q72 -20 127 -63q47 -37 88 -101q41 -63 41 -164q0 -78 -30 -144q-30 -67 -83 -117t-129 -79q-75 -28 -167 -28zM236 973q0 -47 19 -89t54 -75t82 -52t101 -20q53 0 100 20q47 19 82 52t54 75t20 89q0 45 -20 88q-19 43 -54 76t-82 52t-100 19t-101 -19
q-47 -19 -82 -52t-54 -76t-19 -88zM184 358q0 -57 23 -107t62 -88q40 -38 97 -60q56 -22 126 -21q70 0 125 21q56 22 97 60q40 38 62 88q23 50 23 107t-23 108q-23 50 -62 88q-40 38 -97 59q-56 22 -125 22q-70 0 -126 -22t-97 -59q-40 -38 -62 -88q-23 -51 -23 -108z" />
    <glyph glyph-name="nine.oldstyle" horiz-adv-x="1024" 
d="M512 918q88 0 165 -33t133 -90t89 -137q33 -79 33 -171q0 -66 -18 -125q-17 -59 -40 -104q-25 -53 -55 -98l-368 -543h-113l338 481q-20 -12 -45 -20q-23 -8 -52 -15q-30 -6 -67 -6q-88 0 -165 33t-133 90t-89 136t-33 171t33 171t89 137q56 57 133 90t165 33zM512 825
q-66 0 -123 -25q-57 -26 -100 -71t-69 -106t-25 -136q0 -74 25 -135q26 -61 69 -106t100 -71t123 -25q66 0 123 25q57 26 100 71t69 106t25 135q0 74 -25 136q-26 61 -69 106t-100 71q-57 25 -123 25z" />
    <glyph glyph-name="zero.tnum.oldstyle" 
d="M840 451q0 80 -27 147q-27 68 -74 117t-110 77t-137 27q-74 0 -138 -27q-63 -28 -110 -77t-74 -117t-27 -147q0 -80 27 -148t74 -117t110 -76q63 -28 138 -28q74 0 137 28t110 76q47 49 74 117t27 148zM942 451q0 -100 -35 -185q-35 -84 -95 -145t-142 -96t-178 -35
t-179 35q-82 35 -142 96t-95 145t-35 185q0 100 35 184t95 145t142 97q82 35 179 34q96 0 178 -34q82 -35 142 -97q60 -61 95 -145t35 -184z" />
    <glyph glyph-name="one.tnum.oldstyle" 
d="M563 901v-809h277v-92h-656v92h277v676l-236 -164l-51 82l318 215h71z" />
    <glyph glyph-name="two.tnum.oldstyle" 
d="M850 92v-92h-717v72l440 307q76 53 120 107t44 139q0 39 -16 73q-16 35 -46 62t-72 43t-91 16q-117 0 -185 -61q-69 -61 -91 -154h-103q12 66 42 122t78 97t114 65t145 23q74 0 134 -23q60 -24 104 -63q43 -39 66 -91q24 -52 24 -109q0 -115 -61 -188q-60 -73 -144 -130
l-307 -215h522z" />
    <glyph glyph-name="three.tnum.oldstyle" 
d="M154 901h686v-72l-369 -450h21q92 0 167 -29q76 -29 129 -81t83 -124t30 -155q0 -84 -30 -156t-83 -124t-129 -81t-167 -28q-88 0 -161 26q-73 27 -126 73t-87 107t-46 132h102q12 -49 39 -95q27 -45 67 -78q40 -34 93 -54q53 -19 119 -19q139 0 223 83t84 214t-84 214
t-223 83q-31 0 -54 -3t-39 -8l-30 -10l-62 62l400 481h-553v92z" />
    <glyph glyph-name="four.tnum.oldstyle" 
d="M932 0h-154v-389h-102v389h-604v82l583 819h123v-809h154v-92zM676 92v676l-481 -676h481z" />
    <glyph glyph-name="five.tnum.oldstyle" 
d="M502 465q84 0 158 -33q75 -33 131 -90q55 -57 88 -136t32 -171q0 -92 -32 -171q-33 -79 -89 -136t-134 -90q-77 -33 -164 -33q-84 0 -155 26q-71 27 -123 72t-86 104t-46 125h102q12 -47 38 -89t66 -74q40 -33 91 -53q51 -19 113 -19q66 0 122 25q57 26 101 71
q43 45 68 107q26 61 26 135t-26 135t-68 106q-43 45 -101 71q-57 26 -122 26q-70 0 -121 -31t-86 -68q-41 -43 -70 -96h-102l82 727h634v-92h-553l-51 -491q29 39 70 71q35 27 86 49q51 23 121 23z" />
    </font>
</defs>
</svg>
