<?xml version="1.0" standalone="no"?>
<!DOCTYPE svg PUBLIC "-//W3C//DTD SVG 1.1//EN" "http://www.w3.org/Graphics/SVG/1.1/DTD/svg11.dtd" >
<svg xmlns="http://www.w3.org/2000/svg" xmlns:xlink="http://www.w3.org/1999/xlink" version="1.1">
<metadata>
Created by FontForge 20161003 at Sat Oct 13 13:50:40 2018
 By www-data
Copyright (c) 2018 by TypeType. Designers Ivan Gladkikh, Pavel Emelyanov. Technical designers Marina Khodak, Vika Usmanova, Nadyr Rakhimov. All rights reserved.
</metadata>
<defs>
<font id="TTCommonsBold" horiz-adv-x="530" >
  <font-face 
    font-family="TTCommonsBold"
    font-weight="700"
    font-stretch="normal"
    units-per-em="1000"
    panose-1="2 0 8 6 3 0 0 2 0 4"
    ascent="700"
    descent="-300"
    x-height="460"
    cap-height="630"
    bbox="-190 -290 1438 865"
    underline-thickness="50"
    underline-position="-200"
    unicode-range="U+000D-FB06"
  />
<missing-glyph horiz-adv-x="0" 
 />
    <glyph glyph-name="ff" unicode="ff" horiz-adv-x="610" 
d="M585 315h-95v-315h-135v315h-140v-315h-135v315h-60v125h60q0 87 43 131t122 44q14 0 26 -1.5t21 -3.5q10 -3 18 -5v-120l-10 2t-11 2t-14 1q-19 0 -30.5 -8t-18.5 -17q-8 -11 -11 -25h140v25q0 83 43 126.5t122 43.5q14 0 26 -1.5t21 -3.5q10 -3 18 -5v-120l-10 2t-11 2
t-14 1q-26 0 -43 -17.5t-17 -47.5v-5h95v-125z" />
    <glyph glyph-name="uniFB01" unicode="fi" horiz-adv-x="550" 
d="M490 0h-135v315h-140v-315h-135v315h-60v125h60v25q0 83 43 126.5t122 43.5q14 0 26 -1.5t21 -3.5q10 -3 18 -5v-120l-10 2t-11 2t-14 1q-26 0 -43 -17.5t-17 -47.5v-5h275v-440zM350 560q0 30 22.5 52.5t52.5 22.5t52.5 -22.5t22.5 -52.5t-22.5 -52.5t-52.5 -22.5
t-52.5 22.5t-22.5 52.5z" />
    <glyph glyph-name="uniFB02" unicode="fl" horiz-adv-x="540" 
d="M490 0h-135v510l-15 5q-8 2 -19 3.5t-26 1.5q-34 0 -57 -23t-23 -57h95v-125h-95v-315h-135v315h-60v125h65q0 49 13.5 87t37.5 64t57 40t72 14q20 0 37 -2.5t29 -5.5q14 -4 24 -7h135v-630z" />
    <glyph glyph-name="ffi" unicode="ffi" horiz-adv-x="825" 
d="M765 0h-135v315h-140v-315h-135v315h-140v-315h-135v315h-60v125h60q0 87 43 131t122 44q14 0 26 -1.5t21 -3.5q10 -3 18 -5v-120l-10 2t-11 2t-14 1q-19 0 -30.5 -8t-18.5 -17q-8 -11 -11 -25h140v25q0 83 43 126.5t122 43.5q14 0 26 -1.5t21 -3.5q10 -3 18 -5v-120
l-10 2t-11 2t-14 1q-26 0 -43 -17.5t-17 -47.5v-5h275v-440zM625 560q0 30 22.5 52.5t52.5 22.5t52.5 -22.5t22.5 -52.5t-22.5 -52.5t-52.5 -22.5t-52.5 22.5t-22.5 52.5z" />
    <glyph glyph-name="ffl" unicode="ffl" horiz-adv-x="815" 
d="M765 0h-135v510l-15 5q-8 2 -19 3.5t-26 1.5q-34 0 -57 -23t-23 -57h95v-125h-95v-315h-135v315h-140v-315h-135v315h-60v125h60q0 87 43 131t122 44q14 0 26 -1.5t21 -3.5q10 -3 18 -5v-120l-10 2t-11 2t-14 1q-19 0 -30.5 -8t-18.5 -17q-8 -11 -11 -25h145
q0 49 13.5 87t37.5 64t57 40t72 14q20 0 37 -2.5t29 -5.5q14 -4 24 -7h135v-630z" />
    <glyph glyph-name="f_f_j" unicode="ffj" horiz-adv-x="825" 
d="M765 5q0 -83 -43 -126.5t-122 -43.5q-26 0 -46 5q-11 2 -19 5v120q5 -2 10 -3t11 -1.5t14 -0.5q26 0 43 17.5t17 47.5v290h-140v-315h-135v315h-140v-315h-135v315h-60v125h60q0 87 43 131t122 44q14 0 26 -1.5t21 -3.5q10 -3 18 -5v-120l-10 2t-11 2t-14 1
q-19 0 -30.5 -8t-18.5 -17q-8 -11 -11 -25h140v25q0 83 43 126.5t122 43.5q14 0 26 -1.5t21 -3.5q10 -3 18 -5v-120l-10 2t-11 2t-14 1q-26 0 -43 -17.5t-17 -47.5v-5h275v-435zM625 560q0 30 22.5 52.5t52.5 22.5t52.5 -22.5t22.5 -52.5t-22.5 -52.5t-52.5 -22.5
t-52.5 22.5t-22.5 52.5z" />
    <glyph glyph-name="f_j" unicode="fj" horiz-adv-x="550" 
d="M490 5q0 -83 -43 -126.5t-122 -43.5q-26 0 -46 5q-11 2 -19 5v120q5 -2 10 -3t11 -1.5t14 -0.5q26 0 43 17.5t17 47.5v290h-140v-315h-135v315h-60v125h60v25q0 83 43 126.5t122 43.5q14 0 26 -1.5t21 -3.5q10 -3 18 -5v-120l-10 2t-11 2t-14 1q-26 0 -43 -17.5
t-17 -47.5v-5h275v-435zM350 560q0 30 22.5 52.5t52.5 22.5t52.5 -22.5t22.5 -52.5t-22.5 -52.5t-52.5 -22.5t-52.5 22.5t-22.5 52.5z" />
    <glyph glyph-name="f_t" unicode="ft" horiz-adv-x="635" 
d="M360 315h-145v-315h-135v315h-60v125h60v25q0 83 43 126.5t122 43.5q14 0 26 -1.5t21 -3.5q10 -3 18 -5v-120l-10 2t-11 2t-14 1q-26 0 -43 -17.5t-17 -47.5v-5h110q55 0 55 55v65h115v-110h95v-135h-95v-130q0 -30 17 -47.5t43 -17.5q8 0 14 0.5t11 1.5t10 3v-120
q-8 -3 -18 -5q-20 -5 -47 -5q-79 0 -122 43.5t-43 126.5v150z" />
    <glyph glyph-name="f_h" unicode="fh" horiz-adv-x="840" 
d="M490 415q13 14 31 25q16 9 40.5 17t58.5 8q37 0 69.5 -13.5t55.5 -39t36.5 -61.5t13.5 -81v-270h-135v245q0 45 -23.5 70t-61.5 25q-37 0 -60.5 -23.5t-24.5 -67.5v-249h-135v510l-15 5q-8 2 -19 3.5t-26 1.5q-34 0 -57 -23t-23 -57h95v-125h-95v-315h-135v315h-60v125
h65q0 49 13.5 87t37.5 64t57 40t72 14q20 0 37 -2.5t29 -5.5q14 -4 24 -7h135v-215z" />
    <glyph glyph-name="f_k" unicode="fk" horiz-adv-x="775" 
d="M630 0l-140 205v-205h-135v510l-15 5q-8 2 -19 3.5t-26 1.5q-34 0 -57 -23t-23 -57h95v-125h-95v-315h-135v315h-60v125h65q0 49 13.5 87t37.5 64t57 40t72 14q20 0 37 -2.5t29 -5.5q14 -4 24 -7h135v-355l125 185h155l-155 -220l170 -240h-155z" />
    <glyph glyph-name="f_b" unicode="fb" horiz-adv-x="850" 
d="M605 -5q-30 0 -54 7.5t-41 17.5q-20 11 -35 25l-20 -45h-100v510l-15 5q-8 2 -19 3.5t-26 1.5q-34 0 -57 -23t-23 -57h95v-125h-95v-315h-135v315h-60v125h65q0 49 13.5 87t37.5 64t57 40t72 14q20 0 37 -2.5t29 -5.5q14 -4 24 -7h135v-205q13 11 31 20q15 8 36.5 14
t47.5 6q43 0 82 -17.5t68.5 -49t47 -74.5t17.5 -94t-17.5 -94t-47 -74.5t-68.5 -49t-82 -17.5zM685 230q0 49 -29 79.5t-71 30.5t-71 -30.5t-29 -79.5t29 -79.5t71 -30.5t71 30.5t29 79.5z" />
    <glyph glyph-name="f_f_h" unicode="ffh" horiz-adv-x="1115" 
d="M765 415q13 14 31 25q16 9 40.5 17t58.5 8q37 0 69.5 -13.5t55.5 -39t36.5 -61.5t13.5 -81v-270h-135v245q0 45 -23.5 70t-61.5 25t-61.5 -25t-23.5 -70v-245h-135v510l-15 5q-8 2 -19 3.5t-26 1.5q-34 0 -57 -23t-23 -57h95v-125h-95v-315h-135v315h-140v-315h-135v315
h-60v125h60q0 87 43 131t122 44q14 0 26 -1.5t21 -3.5q10 -3 18 -5v-120l-10 2t-11 2t-14 1q-19 0 -30.5 -8t-18.5 -17q-8 -11 -11 -25h145q0 49 13.5 87t37.5 64t57 40t72 14q20 0 37 -2.5t29 -5.5q14 -4 24 -7h135v-215z" />
    <glyph glyph-name="f_f_k" unicode="ffk" horiz-adv-x="1050" 
d="M905 0l-140 205v-205h-135v510l-15 5q-8 2 -19 3.5t-26 1.5q-34 0 -57 -23t-23 -57h95v-125h-95v-315h-135v315h-140v-315h-135v315h-60v125h60q0 87 43 131t122 44q14 0 26 -1.5t21 -3.5q10 -3 18 -5v-120l-10 2t-11 2t-14 1q-19 0 -30.5 -8t-18.5 -17q-8 -11 -11 -25
h145q0 49 13.5 87t37.5 64t57 40t72 14q20 0 37 -2.5t29 -5.5q14 -4 24 -7h135v-355l125 185h155l-155 -220l170 -240h-155z" />
    <glyph glyph-name="f_f_b" unicode="ffb" horiz-adv-x="1125" 
d="M880 -5q-30 0 -54 7.5t-41 17.5q-20 11 -35 25l-20 -45h-100v510l-15 5q-8 2 -19 3.5t-26 1.5q-34 0 -57 -23t-23 -57h95v-125h-95v-315h-135v315h-140v-315h-135v315h-60v125h60q0 87 43 131t122 44q14 0 26 -1.5t21 -3.5q10 -3 18 -5v-120l-10 2t-11 2t-14 1
q-19 0 -30.5 -8t-18.5 -17q-8 -11 -11 -25h145q0 49 13.5 87t37.5 64t57 40t72 14q20 0 37 -2.5t29 -5.5q14 -4 24 -7h135v-205q13 11 31 20q15 8 36.5 14t47.5 6q43 0 82 -17.5t68.5 -49t47 -74.5t17.5 -94t-17.5 -94t-47 -74.5t-68.5 -49t-82 -17.5zM960 230
q0 49 -29 79.5t-71 30.5t-71 -30.5t-29 -79.5t29 -79.5t71 -30.5t71 30.5t29 79.5z" />
    <glyph glyph-name=".notdef" horiz-adv-x="0" 
 />
    <glyph glyph-name=".null" horiz-adv-x="0" 
 />
    <glyph glyph-name=".null" horiz-adv-x="0" 
 />
    <glyph glyph-name="nonmarkingreturn" unicode="&#xd;" horiz-adv-x="0" 
 />
    <glyph glyph-name="space" unicode=" " horiz-adv-x="230" 
 />
    <glyph glyph-name="exclam" unicode="!" horiz-adv-x="280" 
d="M205 190h-130l-15 440h160zM215 70q0 -30 -22.5 -52.5t-52.5 -22.5t-52.5 22.5t-22.5 52.5t22.5 52.5t52.5 22.5t52.5 -22.5t22.5 -52.5z" />
    <glyph glyph-name="quotedbl" unicode="&#x22;" horiz-adv-x="425" 
d="M185 425h-125v205h125v-205zM365 425h-125v205h125v-205z" />
    <glyph glyph-name="numbersign" unicode="#" horiz-adv-x="650" 
d="M80 480h110l30 150h110l-30 -150h110l30 150h110l-30 -150h120l-25 -110h-115l-20 -110h115l-25 -110h-110l-30 -150h-110l30 150h-110l-30 -150h-110l30 150h-120l25 110h115l20 110h-115zM260 260h110l20 110h-110z" />
    <glyph glyph-name="dollar" unicode="$" horiz-adv-x="525" 
d="M200 0q-83 15 -126.5 70t-43.5 130l140 10q0 -85 90 -85q42 0 63.5 19.5t21.5 45.5q0 24 -23 37t-57.5 24t-74.5 23t-74.5 33.5t-57.5 56.5t-23 91q0 32 11.5 60.5t33.5 51.5t52 39t68 24v85h130v-90q34 -8 61.5 -25.5t47 -42.5t30.5 -56t11 -66l-140 -10q0 38 -21 59
t-59 21q-34 0 -54.5 -18.5t-20.5 -41.5t23 -35t57.5 -22.5t74.5 -22.5t74.5 -34t57.5 -58t23 -93q0 -32 -11.5 -61t-33.5 -53t-52.5 -41.5t-67.5 -24.5v-85h-130v85z" />
    <glyph glyph-name="percent" unicode="%" horiz-adv-x="660" 
d="M435 135q0 -23 16 -39t39 -16t39 16t16 39t-16 39t-39 16t-39 -16t-16 -39zM630 135q0 -30 -10.5 -55.5t-29.5 -44.5t-44.5 -29.5t-55.5 -10.5t-55.5 10.5t-44.5 29.5t-29.5 44.5t-10.5 55.5t10.5 55.5t29.5 44.5t44.5 29.5t55.5 10.5t55.5 -10.5t44.5 -29.5t29.5 -44.5
t10.5 -55.5zM225 495q0 23 -16 39t-39 16t-39 -16t-16 -39t16 -39t39 -16t39 16t16 39zM30 495q0 30 10.5 55.5t29.5 44.5t44.5 29.5t55.5 10.5t55.5 -10.5t44.5 -29.5t29.5 -44.5t10.5 -55.5t-10.5 -55.5t-29.5 -44.5t-44.5 -29.5t-55.5 -10.5t-55.5 10.5t-44.5 29.5
t-29.5 44.5t-10.5 55.5zM195 0h-115l385 630h115z" />
    <glyph glyph-name="ampersand" unicode="&#x26;" horiz-adv-x="585" 
d="M470 0l-65 65q-21 -21 -48 -38q-23 -14 -57.5 -25.5t-79.5 -11.5t-80.5 12.5t-59.5 34t-37 50.5t-13 63q0 43 17.5 76t39.5 55q26 26 58 44l-30 35q-6 7 -15 18t-16.5 25.5t-13 33.5t-5.5 43q0 30 13.5 58t36.5 49.5t55 34.5t70 13q37 0 69.5 -13t55.5 -34.5t36.5 -49.5
t13.5 -58q0 -24 -6 -43t-14.5 -33t-18 -23.5t-16.5 -15.5l-50 -40l80 -80l45 65h155l-110 -155l155 -155h-165zM235 120q17 0 30.5 6t23.5 14q11 9 21 20l-90 90q-13 -10 -23 -21q-8 -10 -15 -23.5t-7 -30.5q0 -23 17 -39t43 -16zM235 395q26 19 40.5 35.5t14.5 39.5
q0 26 -13.5 40.5t-36.5 14.5t-36.5 -14.5t-13.5 -40.5q0 -23 13 -39.5t32 -35.5z" />
    <glyph glyph-name="quotesingle" unicode="'" horiz-adv-x="205" 
d="M165 425h-125v205h125v-205z" />
    <glyph glyph-name="parenleft" unicode="(" horiz-adv-x="315" 
d="M180 225q0 -78 17.5 -144.5t39.5 -115.5q26 -58 58 -105l-105 -70q-42 54 -75 122q-29 58 -52 137t-23 176q0 96 23 175.5t52 137.5q33 68 75 122l105 -70q-32 -48 -58 -106q-22 -50 -39.5 -116t-17.5 -143z" />
    <glyph glyph-name="parenright" unicode=")" horiz-adv-x="315" 
d="M135 225q0 77 -18 143t-40 116q-26 58 -57 106l105 70q42 -54 75 -122q28 -58 51.5 -137.5t23.5 -175.5q0 -97 -23.5 -176t-51.5 -137q-33 -68 -75 -122l-105 70q31 47 57 105q22 49 40 115.5t18 144.5z" />
    <glyph glyph-name="asterisk" unicode="*" horiz-adv-x="360" 
d="M135 635h90l-5 -100l90 35l25 -80l-95 -25l65 -80l-70 -50l-55 85l-55 -85l-70 50l65 80l-95 25l25 80l90 -35z" />
    <glyph glyph-name="plus" unicode="+" horiz-adv-x="465" 
d="M295 460v-145h140v-120h-140v-145h-125v145h-140v120h140v145h125z" />
    <glyph glyph-name="comma" unicode="," horiz-adv-x="210" 
d="M105 145q30 0 52.5 -23t22.5 -57q0 -48 -15.5 -80.5t-34.5 -53.5q-22 -25 -50 -41l-25 35q11 7 21 18q8 9 16.5 22t12.5 30q-30 0 -52.5 22.5t-22.5 52.5t22.5 52.5t52.5 22.5z" />
    <glyph glyph-name="hyphen" unicode="-" horiz-adv-x="375" 
d="M35 315h305v-120h-305v120z" />
    <glyph glyph-name="period" unicode="." horiz-adv-x="210" 
d="M30 70q0 30 22.5 52.5t52.5 22.5t52.5 -22.5t22.5 -52.5t-22.5 -52.5t-52.5 -22.5t-52.5 22.5t-22.5 52.5z" />
    <glyph glyph-name="slash" unicode="/" horiz-adv-x="390" 
d="M130 -180h-130l260 810h130z" />
    <glyph glyph-name="zero" unicode="0" horiz-adv-x="610" 
d="M430 315q0 45 -10.5 78.5t-27.5 56t-40 34t-47 11.5t-47 -11.5t-40 -34t-27.5 -56t-10.5 -78.5t10.5 -79t27.5 -56.5t40 -33.5t47 -11t47 11t40 33.5t27.5 56.5t10.5 79zM35 315q0 75 21 134.5t57.5 100.5t86 63t105.5 22t105.5 -22t86 -63t57.5 -100.5t21 -134.5
t-21 -134.5t-57.5 -100.5t-86 -63t-105.5 -22t-105.5 22t-86 63t-57.5 100.5t-21 134.5z" />
    <glyph glyph-name="one" unicode="1" horiz-adv-x="345" 
d="M285 630v-630h-145v450l-65 -45l-70 110l165 115h115z" />
    <glyph glyph-name="two" unicode="2" horiz-adv-x="505" 
d="M470 140v-140h-435v100l230 240q15 16 27 33q11 14 19.5 32t8.5 35q0 30 -18 47.5t-52 17.5q-38 0 -59 -21t-21 -59l-140 10q0 43 15.5 79.5t44 63.5t69 42t91.5 15q52 0 93 -14t69.5 -39.5t43 -60.5t14.5 -76q0 -36 -15.5 -68.5t-34.5 -57.5q-22 -29 -50 -54l-120 -125
h220z" />
    <glyph glyph-name="three" unicode="3" horiz-adv-x="515" 
d="M25 455q2 36 18.5 68.5t45.5 57t69.5 39.5t91.5 15t91.5 -14.5t69 -39t44 -56t15.5 -65.5t-13.5 -58.5t-29.5 -40.5q-18 -18 -42 -31q28 -13 50 -34q19 -18 34.5 -48t15.5 -73q0 -36 -15.5 -68.5t-45 -57t-72.5 -39.5t-97 -15t-97 15t-73 40t-46.5 58.5t-18.5 71.5
l145 10q4 -26 25.5 -45.5t59.5 -19.5q42 0 63.5 20t21.5 50q0 26 -22.5 45.5t-67.5 19.5h-60v120h60q42 0 61 17t19 43t-21 45.5t-59 19.5q-34 0 -52.5 -17t-22.5 -43z" />
    <glyph glyph-name="four" unicode="4" horiz-adv-x="525" 
d="M505 110h-65v-110h-145v110h-275v130l248 390h172v-380h65v-140zM170 250h125v200z" />
    <glyph glyph-name="five" unicode="5" 
d="M285 430q45 0 84 -16.5t68.5 -46t46 -68.5t16.5 -84q0 -47 -17 -87t-48 -69.5t-74.5 -46.5t-95.5 -17q-49 0 -89 15t-69.5 39.5t-47.5 57t-24 68.5l145 10q5 -17 16 -30q9 -11 26 -20.5t43 -9.5q38 0 64 26t26 64t-26 64t-64 26q-25 0 -41 -8t-26 -17q-11 -11 -18 -25
h-130l40 375h365v-140h-244l-11 -85q11 7 24 12q11 5 26.5 9t34.5 4z" />
    <glyph glyph-name="six" unicode="6" 
d="M265 -5q-53 0 -96 17t-74 46.5t-48 69.5t-17 87q0 34 9.5 65t20.5 54q13 27 30 51l165 245h150l-135 -200q45 4 86.5 -11t73.5 -44t51 -70t19 -90q0 -47 -17 -87t-48 -69.5t-74.5 -46.5t-95.5 -17zM175 215q0 -42 26 -68.5t64 -26.5t64 26.5t26 68.5t-26 68.5t-64 26.5
t-64 -26.5t-26 -68.5z" />
    <glyph glyph-name="seven" unicode="7" horiz-adv-x="480" 
d="M455 630v-115l-240 -515h-156l231 490h-255v140h420z" />
    <glyph glyph-name="eight" unicode="8" 
d="M265 275q-42 0 -66 -23t-24 -57t24 -57t66 -23t66 23t24 57t-24 57t-66 23zM265 525q-30 0 -50 -19.5t-20 -45.5t20 -45.5t50 -19.5t50 19.5t20 45.5t-20 45.5t-50 19.5zM265 -5q-54 0 -97.5 15.5t-74 42t-47 60.5t-16.5 72q0 42 15.5 71t34.5 48q22 22 50 36
q-21 13 -38 31q-14 16 -25.5 40.5t-11.5 58.5t15 65.5t43 56t66.5 39t85.5 14.5t85.5 -14.5t66.5 -39t43 -56t15 -65.5t-12 -58.5t-26 -40.5q-17 -18 -37 -31q28 -14 50 -36q19 -19 34.5 -48t15.5 -71q0 -38 -16.5 -72t-47 -60.5t-74 -42t-97.5 -15.5z" />
    <glyph glyph-name="nine" unicode="9" 
d="M265 635q52 0 95.5 -17t74.5 -46.5t48 -69.5t17 -87q0 -34 -9.5 -65t-20.5 -54q-13 -27 -30 -51l-165 -245h-150l135 200q-45 -4 -86.5 11t-73.5 44t-51 70t-19 90q0 47 17 87t48 69.5t74 46.5t96 17zM355 415q0 42 -26 68.5t-64 26.5t-64 -26.5t-26 -68.5t26 -68.5
t64 -26.5t64 26.5t26 68.5z" />
    <glyph glyph-name="colon" unicode=":" horiz-adv-x="210" 
d="M30 390q0 30 22.5 52.5t52.5 22.5t52.5 -22.5t22.5 -52.5t-22.5 -52.5t-52.5 -22.5t-52.5 22.5t-22.5 52.5zM30 70q0 30 22.5 52.5t52.5 22.5t52.5 -22.5t22.5 -52.5t-22.5 -52.5t-52.5 -22.5t-52.5 22.5t-22.5 52.5z" />
    <glyph glyph-name="semicolon" unicode=";" horiz-adv-x="210" 
d="M30 390q0 30 22.5 52.5t52.5 22.5t52.5 -22.5t22.5 -52.5t-22.5 -52.5t-52.5 -22.5t-52.5 22.5t-22.5 52.5zM105 145q30 0 52.5 -23t22.5 -57q0 -48 -15.5 -80.5t-34.5 -53.5q-22 -25 -50 -41l-25 35q11 7 21 18q8 9 16.5 22t12.5 30q-30 0 -52.5 22.5t-22.5 52.5
t22.5 52.5t52.5 22.5z" />
    <glyph glyph-name="less" unicode="&#x3c;" horiz-adv-x="460" 
d="M190 225l230 -100v-125l-380 170v110l380 170v-125z" />
    <glyph glyph-name="equal" unicode="=" horiz-adv-x="460" 
d="M425 295h-390v125h390v-125zM425 90h-390v125h390v-125z" />
    <glyph glyph-name="greater" unicode="&#x3e;" horiz-adv-x="460" 
d="M40 325v125l380 -170v-110l-380 -170v125l230 100z" />
    <glyph glyph-name="question" unicode="?" horiz-adv-x="465" 
d="M440 460q0 -34 -10.5 -57.5t-26 -42.5t-34 -35t-34.5 -35t-27.5 -42.5t-12.5 -57.5h-140q0 42 10 72.5t25 52.5t32.5 38t32.5 30.5t25 28.5t10 33q0 26 -17.5 43t-47.5 17q-26 0 -45.5 -21.5t-19.5 -63.5l-145 10q8 94 63.5 149.5t146.5 55.5q51 0 90.5 -14t67.5 -38
t42.5 -55.5t14.5 -67.5zM155 70q0 30 22.5 52.5t52.5 22.5t52.5 -22.5t22.5 -52.5t-22.5 -52.5t-52.5 -22.5t-52.5 22.5t-22.5 52.5z" />
    <glyph glyph-name="at" unicode="@" horiz-adv-x="760" 
d="M380 560q75 0 139 -25.5t111 -70t73.5 -103.5t26.5 -126q0 -43 -12 -77.5t-33 -58.5t-48 -36.5t-57 -12.5q-29 0 -49 9.5t-34 20.5q-16 13 -27 30q-13 -17 -30 -30q-15 -11 -36 -20.5t-49 -9.5q-32 0 -60 12.5t-49 35.5t-33.5 55.5t-12.5 71.5t12.5 71.5t33.5 55.5
t49 35.5t60 12.5q19 0 34.5 -7.5t26.5 -15.5q13 -10 24 -22l15 35h80v-175q0 -42 13 -58.5t32 -16.5q23 0 39 21t16 74q0 49 -19.5 93t-53.5 76.5t-81 51.5t-101 19q-53 0 -98.5 -19.5t-79.5 -53t-53 -79.5t-19 -98q0 -53 19 -98.5t53 -79.5t79.5 -53t98.5 -19q32 0 58 7
t45 16q22 10 40 23q14 -17 26 -35.5t25 -36.5q-23 -17 -53 -30q-26 -11 -61 -20t-80 -9q-73 0 -136 26t-109.5 71t-73 106t-26.5 132q0 70 26.5 131t73 106.5t109.5 71.5t136 26zM445 225q0 38 -22.5 61.5t-52.5 23.5t-52.5 -23.5t-22.5 -61.5t22.5 -61.5t52.5 -23.5
t52.5 23.5t22.5 61.5z" />
    <glyph glyph-name="A" unicode="A" horiz-adv-x="590" 
d="M365 245l-70 210l-70 -210h140zM185 120l-40 -120h-150l225 630h150l225 -630h-150l-40 120h-220z" />
    <glyph glyph-name="B" unicode="B" horiz-adv-x="580" 
d="M450 335q28 -13 50 -34q19 -18 34.5 -46t15.5 -70q0 -38 -15 -71.5t-42.5 -58.5t-65 -40t-82.5 -15h-285v630h270q43 0 79 -14t61.5 -38t40 -55.5t14.5 -67.5q0 -32 -12 -55t-26 -37q-17 -17 -37 -28zM205 380h110q30 0 50 19.5t20 45.5t-20 45.5t-50 19.5h-110v-130z
M330 120q34 0 57 22.5t23 52.5t-23 52.5t-57 22.5h-125v-150h125z" />
    <glyph glyph-name="C" unicode="C" horiz-adv-x="650" 
d="M340 135q60 0 94.5 28.5t45.5 66.5l150 -10q-11 -45 -36 -86t-62 -71.5t-85.5 -49t-106.5 -18.5q-64 0 -120.5 24.5t-98.5 68t-66.5 101.5t-24.5 126q0 67 24.5 125.5t66.5 102t98.5 68t120.5 24.5q56 0 103.5 -18.5t84 -49t61.5 -71.5t36 -86l-150 -10q-6 19 -17 36
t-28 30t-39.5 21t-50.5 8q-34 0 -64 -13.5t-52.5 -37.5t-35.5 -57t-13 -72t13 -72t35.5 -57t52.5 -37.5t64 -13.5z" />
    <glyph glyph-name="D" unicode="D" horiz-adv-x="620" 
d="M275 140q36 0 67 13.5t54 36.5t36 55t13 70q0 37 -13 69.5t-36 55.5t-54 36.5t-67 13.5h-70v-350h70zM60 630h215q66 0 123 -24.5t100 -67.5t67.5 -100t24.5 -123t-24.5 -123t-67.5 -100t-100 -67.5t-123 -24.5h-215v630z" />
    <glyph glyph-name="E" unicode="E" horiz-adv-x="560" 
d="M60 630h450v-140h-305v-100h280v-140h-280v-110h315v-140h-460v630z" />
    <glyph glyph-name="F" unicode="F" horiz-adv-x="520" 
d="M60 630h435v-140h-290v-130h235v-140h-235v-220h-145v630z" />
    <glyph glyph-name="G" unicode="G" horiz-adv-x="695" 
d="M340 340h305v-340h-100l-25 60q-22 -19 -49 -33q-23 -12 -56 -22t-75 -10q-64 0 -120.5 24.5t-98.5 68t-66.5 101.5t-24.5 126q0 67 24.5 125.5t66.5 102t98.5 68t120.5 24.5q56 0 103.5 -18t84 -48.5t61.5 -70.5t36 -83l-150 -10q-6 17 -17 33t-28 29t-39.5 20.5
t-50.5 7.5q-34 0 -64 -13.5t-52.5 -37.5t-35.5 -57t-13 -72t13 -72t35.5 -57t52.5 -37.5t64 -13.5q30 0 53.5 7.5t41 20t28.5 27.5t17 30h-140v120z" />
    <glyph glyph-name="H" unicode="H" horiz-adv-x="650" 
d="M590 630v-630h-145v250h-240v-250h-145v630h145v-240h240v240h145z" />
    <glyph glyph-name="I" unicode="I" horiz-adv-x="265" 
d="M205 0h-145v630h145v-630z" />
    <glyph glyph-name="J" unicode="J" horiz-adv-x="485" 
d="M435 630v-420q0 -49 -15.5 -88.5t-43.5 -67.5t-67.5 -43.5t-88.5 -15.5t-88.5 15t-67.5 42.5t-43.5 65t-15.5 82.5q18 1 42.5 2.5t47.5 3.5q26 2 55 4q0 -34 20 -54.5t50 -20.5t50 20.5t20 54.5v420h145z" />
    <glyph glyph-name="K" unicode="K" horiz-adv-x="565" 
d="M410 0l-205 280v-280h-145v630h145v-270l190 270h165l-222 -310l237 -320h-165z" />
    <glyph glyph-name="L" unicode="L" horiz-adv-x="500" 
d="M60 630h145v-490h285v-140h-430v630z" />
    <glyph glyph-name="M" unicode="M" horiz-adv-x="790" 
d="M600 630h130v-630h-145v315l-145 -315h-90l-145 315v-315h-145v630h130l205 -445z" />
    <glyph glyph-name="N" unicode="N" horiz-adv-x="650" 
d="M590 630v-630h-130l-255 370v-370h-145v630h130l255 -370v370h145z" />
    <glyph glyph-name="O" unicode="O" horiz-adv-x="680" 
d="M505 315q0 39 -13 72t-35.5 57t-52.5 37.5t-64 13.5t-64 -13.5t-52.5 -37.5t-35.5 -57t-13 -72t13 -72t35.5 -57t52.5 -37.5t64 -13.5t64 13.5t52.5 37.5t35.5 57t13 72zM650 315q0 -68 -24.5 -126t-66.5 -101.5t-98.5 -68t-120.5 -24.5t-120.5 24.5t-98.5 68
t-66.5 101.5t-24.5 126q0 67 24.5 125.5t66.5 102t98.5 68t120.5 24.5t120.5 -24.5t98.5 -68t66.5 -102t24.5 -125.5z" />
    <glyph glyph-name="P" unicode="P" horiz-adv-x="560" 
d="M305 630q49 0 90 -16.5t71 -46t47 -68.5t17 -84t-17 -84t-47 -68.5t-71 -46t-90 -16.5h-100v-200h-145v630h245zM305 340q34 0 57 22.5t23 52.5t-23 52.5t-57 22.5h-100v-150h100z" />
    <glyph glyph-name="Q" unicode="Q" horiz-adv-x="680" 
d="M505 45q-19 -14 -45 -25q-22 -10 -52 -17.5t-68 -7.5q-64 0 -120.5 24.5t-98.5 68t-66.5 101.5t-24.5 126q0 67 24.5 125.5t66.5 102t98.5 68t120.5 24.5t120.5 -24.5t98.5 -68t66.5 -102t24.5 -125.5q0 -44 -9.5 -78.5t-20.5 -59.5q-13 -29 -30 -52l60 -60l-80 -85z
M505 315q0 39 -13 72t-35.5 57t-52.5 37.5t-64 13.5t-64 -13.5t-52.5 -37.5t-35.5 -57t-13 -72t13 -72t35.5 -57t52.5 -37.5t64 -13.5q25 0 43 5q10 2 17 5l-65 65l80 85l70 -70q6 13 10 28q4 13 7 29t3 33z" />
    <glyph glyph-name="R" unicode="R" horiz-adv-x="570" 
d="M315 630q49 0 89.5 -16t69.5 -43t45 -63.5t16 -77.5q0 -53 -18.5 -89t-41 -58.5t-41.5 -32.5l-19 -10l140 -240h-160l-115 210h-75v-210h-145v630h255zM315 350q38 0 59 20t21 50t-21 50t-59 20h-110v-140h110z" />
    <glyph glyph-name="S" unicode="S" horiz-adv-x="525" 
d="M35 455q0 36 15.5 68.5t44.5 57t70.5 39.5t94.5 15q51 0 91.5 -15t69 -42t44 -63.5t15.5 -79.5l-140 -10q0 38 -21 59t-59 21q-34 0 -54.5 -18.5t-20.5 -41.5t23 -35t57.5 -22.5t74.5 -22.5t74.5 -34t57.5 -58t23 -93q0 -38 -15.5 -71.5t-45.5 -58.5t-74 -40t-100 -15
q-54 0 -97 15t-72.5 42.5t-45 65t-15.5 82.5l140 10q0 -85 90 -85q42 0 63.5 19.5t21.5 45.5q0 24 -23 37t-57.5 24t-74.5 23t-74.5 33.5t-57.5 56.5t-23 91z" />
    <glyph glyph-name="T" unicode="T" horiz-adv-x="525" 
d="M335 0h-145v490h-180v140h505v-140h-180v-490z" />
    <glyph glyph-name="U" unicode="U" horiz-adv-x="620" 
d="M195 630v-375q0 -57 31 -88.5t84 -31.5t84 31.5t31 88.5v375h145v-375q0 -58 -19 -106t-53 -82t-82 -53t-106 -19t-106 19t-82 53t-53 82t-19 106v375h145z" />
    <glyph glyph-name="V" unicode="V" horiz-adv-x="590" 
d="M585 630l-215 -630h-150l-215 630h150l140 -435l140 435h150z" />
    <glyph glyph-name="W" unicode="W" horiz-adv-x="860" 
d="M315 0h-110l-200 630h140l120 -390l120 390h90l120 -390l120 390h140l-200 -630h-110l-115 370z" />
    <glyph glyph-name="X" unicode="X" horiz-adv-x="580" 
d="M170 630l120 -205l120 205h160l-190 -310l200 -320h-160l-130 215l-130 -215h-160l200 320l-190 310h160z" />
    <glyph glyph-name="Y" unicode="Y" horiz-adv-x="565" 
d="M210 235l-210 395h155l128 -250l127 250h155l-210 -395v-235h-145v235z" />
    <glyph glyph-name="Z" unicode="Z" 
d="M215 140h285v-140h-470v120l270 370h-260v140h445v-120z" />
    <glyph glyph-name="bracketleft" unicode="[" horiz-adv-x="325" 
d="M200 -40h100v-140h-240v810h240v-140h-100v-530z" />
    <glyph glyph-name="backslash" unicode="\" horiz-adv-x="390" 
d="M0 630h130l260 -810h-130z" />
    <glyph glyph-name="bracketright" unicode="]" horiz-adv-x="325" 
d="M125 490h-100v140h240v-810h-240v140h100v530z" />
    <glyph glyph-name="asciicircum" unicode="^" horiz-adv-x="420" 
d="M25 335l145 295h80l145 -295h-115l-70 145l-70 -145h-115z" />
    <glyph glyph-name="underscore" unicode="_" horiz-adv-x="290" 
d="M310 -195h-330v120h330v-120z" />
    <glyph glyph-name="grave" unicode="`" horiz-adv-x="260" 
d="M230 505h-105l-95 130h135z" />
    <glyph glyph-name="a" unicode="a" horiz-adv-x="485" 
d="M250 470q41 0 76 -14t60.5 -39.5t39.5 -60.5t14 -76v-280h-100l-20 45q-17 -14 -38 -25q-18 -10 -42.5 -17.5t-54.5 -7.5q-75 0 -115 36.5t-40 93.5q0 34 13.5 62.5t45.5 49t84.5 32t131.5 11.5q0 34 -17 52t-43 18q-19 0 -30.5 -7.5t-18.5 -15.5q-8 -10 -11 -22l-135 10
q6 34 21 62.5t39.5 49t59.5 32t80 11.5zM220 95q38 0 61.5 23.5t23.5 61.5v20q-43 0 -70.5 -4.5t-43 -12.5t-21 -19t-5.5 -24q0 -19 14.5 -32t40.5 -13z" />
    <glyph glyph-name="b" unicode="b" horiz-adv-x="545" 
d="M300 -5q-30 0 -54 7.5t-41 17.5q-20 11 -35 25l-20 -45h-100v630h135v-205q13 11 31 20q15 8 36.5 14t47.5 6q43 0 82 -17.5t68.5 -49t47 -74.5t17.5 -94t-17.5 -94t-47 -74.5t-68.5 -49t-82 -17.5zM380 230q0 49 -29 79.5t-71 30.5t-71 -30.5t-29 -79.5t29 -79.5
t71 -30.5t71 30.5t29 79.5z" />
    <glyph glyph-name="c" unicode="c" horiz-adv-x="510" 
d="M265 470q34 0 62 -7.5t50 -20.5t38.5 -29t28.5 -33q28 -40 41 -90l-135 -10q-7 18 -18 32q-10 12 -26.5 22.5t-40.5 10.5q-42 0 -71 -31t-29 -84t29 -84t71 -31q24 0 40.5 10t26.5 22q11 14 18 33l135 -10q-13 -50 -41 -90q-12 -17 -28.5 -33t-38.5 -29t-50 -20.5
t-62 -7.5q-49 0 -91.5 18.5t-74.5 51t-50.5 76t-18.5 94.5t18.5 94.5t50.5 76t74.5 51t91.5 18.5z" />
    <glyph glyph-name="d" unicode="d" horiz-adv-x="545" 
d="M245 -5q-43 0 -82 17.5t-68.5 49t-47 74.5t-17.5 94t17.5 94t47 74.5t68.5 49t82 17.5q26 0 47.5 -6t36.5 -14q18 -9 31 -20v205h135v-630h-100l-20 45q-16 -14 -35 -25q-17 -10 -41 -17.5t-54 -7.5zM165 230q0 -49 29 -79.5t71 -30.5t71 30.5t29 79.5t-29 79.5t-71 30.5
t-71 -30.5t-29 -79.5z" />
    <glyph glyph-name="e" unicode="e" horiz-adv-x="515" 
d="M475 135q-9 -28 -27 -54t-45 -46.5t-62.5 -32.5t-80.5 -12q-47 0 -88.5 18.5t-73 51t-50 76t-18.5 94.5t18.5 94.5t50.5 76t74.5 51t91.5 18.5q47 0 88 -17t71.5 -48.5t48 -76t17.5 -98.5q0 -8 -1 -15.5t-2 -14.5q-1 -8 -2 -15h-315q8 -26 32.5 -48t62.5 -22
q19 0 32.5 4.5t21.5 10.5q10 6 16 15zM265 345q-38 0 -62.5 -22.5t-32.5 -52.5h190q-8 30 -32.5 52.5t-62.5 22.5z" />
    <glyph glyph-name="f" unicode="f" horiz-adv-x="335" 
d="M80 465q0 83 43 126.5t122 43.5q14 0 26 -1.5t21 -3.5q10 -3 18 -5v-120l-10 2t-11 2t-14 1q-26 0 -43 -17.5t-17 -47.5v-5h95v-125h-95v-315h-135v315h-60v125h60v25z" />
    <glyph glyph-name="g" unicode="g" horiz-adv-x="540" 
d="M240 465q30 0 54 -8t41 -17q19 -11 35 -25l20 45h100v-420q0 -45 -16.5 -83.5t-46.5 -66.5t-72.5 -44t-94.5 -16q-64 0 -105.5 24t-65.5 53q-29 34 -44 78l135 10q6 -13 17 -23q9 -8 24.5 -15t38.5 -7q42 0 68.5 26t26.5 64v25q-11 -11 -28 -20q-14 -8 -35.5 -14
t-51.5 -6q-43 0 -81.5 17t-67 46.5t-45 69.5t-16.5 87t16.5 87t45 69.5t67 46.5t81.5 17zM165 245q0 -42 26.5 -68.5t68.5 -26.5t68.5 26.5t26.5 68.5t-26.5 68.5t-68.5 26.5t-68.5 -26.5t-26.5 -68.5z" />
    <glyph glyph-name="h" unicode="h" horiz-adv-x="535" 
d="M185 415q13 14 31 25q16 9 40.5 17t58.5 8q37 0 69.5 -13.5t55.5 -39t36.5 -61.5t13.5 -81v-270h-135v245q0 45 -23.5 70t-61.5 25t-61.5 -25t-23.5 -70v-245h-135v630h135v-215z" />
    <glyph glyph-name="i" unicode="i" horiz-adv-x="250" 
d="M190 0h-135v460h135v-460zM50 585q0 30 22.5 52.5t52.5 22.5t52.5 -22.5t22.5 -52.5t-22.5 -52.5t-52.5 -22.5t-52.5 22.5t-22.5 52.5z" />
    <glyph glyph-name="j" unicode="j" horiz-adv-x="255" 
d="M195 5q0 -83 -43 -126.5t-122 -43.5q-26 0 -46 5q-11 2 -19 5v120q5 -2 10 -3t11 -1.5t14 -0.5q26 0 43 17.5t17 47.5v435h135v-455zM55 585q0 30 22.5 52.5t52.5 22.5t52.5 -22.5t22.5 -52.5t-22.5 -52.5t-52.5 -22.5t-52.5 22.5t-22.5 52.5z" />
    <glyph glyph-name="k" unicode="k" horiz-adv-x="470" 
d="M325 0l-140 205v-205h-135v630h135v-355l125 185h155l-155 -220l170 -240h-155z" />
    <glyph glyph-name="l" unicode="l" horiz-adv-x="235" 
d="M185 0h-135v630h135v-630z" />
    <glyph glyph-name="m" unicode="m" horiz-adv-x="760" 
d="M285 465q35 0 60 -9.5t41 -20.5q18 -13 29 -30q16 17 37 30q18 11 43 20.5t55 9.5q75 0 120 -48t45 -142v-275h-135v260q0 38 -19.5 59t-45.5 21t-45.5 -21t-19.5 -59v-260h-135v260q0 38 -19.5 59t-45.5 21t-45.5 -21t-19.5 -59v-260h-135v460h100l20 -45q13 14 31 25
q15 9 36.5 17t47.5 8z" />
    <glyph glyph-name="n" unicode="n" horiz-adv-x="535" 
d="M305 465q41 0 75 -13.5t58.5 -39t38 -61.5t13.5 -81v-270h-135v245q0 45 -23.5 70t-61.5 25t-61.5 -25t-23.5 -70v-245h-135v460h100l20 -45q16 14 37 25q18 9 43 17t55 8z" />
    <glyph glyph-name="o" unicode="o" 
d="M30 230q0 51 18.5 94.5t50.5 76t74.5 51t91.5 18.5t91.5 -18.5t74.5 -51t50.5 -76t18.5 -94.5t-18.5 -94.5t-50.5 -76t-74.5 -51t-91.5 -18.5t-91.5 18.5t-74.5 51t-50.5 76t-18.5 94.5zM365 230q0 53 -29 84t-71 31t-71 -31t-29 -84t29 -84t71 -31t71 31t29 84z" />
    <glyph glyph-name="p" unicode="p" horiz-adv-x="545" 
d="M300 465q43 0 82 -17.5t68.5 -49t47 -74.5t17.5 -94t-17.5 -94t-47 -74.5t-68.5 -49t-82 -17.5q-26 0 -47.5 6t-36.5 14q-18 9 -31 20v-195h-135v620h100l20 -45q15 14 35 25q17 9 41 17t54 8zM380 230q0 49 -29 79.5t-71 30.5t-71 -30.5t-29 -79.5t29 -79.5t71 -30.5
t71 30.5t29 79.5z" />
    <glyph glyph-name="q" unicode="q" horiz-adv-x="545" 
d="M245 465q30 0 54 -8t41 -17q19 -11 35 -25l20 45h100v-620h-135v195q-13 -11 -31 -20q-15 -8 -36.5 -14t-47.5 -6q-43 0 -82 17.5t-68.5 49t-47 74.5t-17.5 94t17.5 94t47 74.5t68.5 49t82 17.5zM165 230q0 -49 29 -79.5t71 -30.5t71 30.5t29 79.5t-29 79.5t-71 30.5
t-71 -30.5t-29 -79.5z" />
    <glyph glyph-name="r" unicode="r" horiz-adv-x="340" 
d="M280 465q9 0 16.5 -1t12.5 -2q6 -1 11 -2v-140q-6 2 -14 5q-7 2 -16 3.5t-20 1.5q-38 0 -61.5 -25t-23.5 -70v-235h-135v460h100l20 -50q12 15 29 27q14 11 34.5 19.5t46.5 8.5z" />
    <glyph glyph-name="s" unicode="s" horiz-adv-x="445" 
d="M160 150q4 -23 19 -36.5t41 -13.5t40.5 12.5t14.5 27.5q0 12 -17.5 19.5t-43.5 15t-56.5 17.5t-56.5 26.5t-43.5 43.5t-17.5 68q0 28 12 53.5t34.5 44.5t55 30.5t73.5 11.5q90 0 137 -40t58 -100l-130 -10q-4 15 -18 27.5t-37 12.5t-34 -10t-11 -25q0 -13 17.5 -20
t43.5 -14.5t56.5 -17.5t56.5 -26.5t43.5 -43.5t17.5 -68q0 -28 -12.5 -54t-36.5 -46.5t-58.5 -32.5t-77.5 -12q-94 0 -141.5 41t-58.5 109z" />
    <glyph glyph-name="t" unicode="t" horiz-adv-x="365" 
d="M90 335h-70v115h35q55 0 55 55v65h115v-110h95v-125h-95v-150q0 -30 17 -47.5t43 -17.5q8 0 14 0.5t11 1.5t10 3v-120q-8 -3 -18 -5q-20 -5 -47 -5q-79 0 -122 43.5t-43 126.5v170z" />
    <glyph glyph-name="u" unicode="u" horiz-adv-x="535" 
d="M230 -5q-41 0 -75 13.5t-58.5 39t-38 61.5t-13.5 81v270h135v-245q0 -45 23.5 -70t61.5 -25t61.5 25t23.5 70v245h135v-460h-100l-20 45q-17 -14 -38 -25q-18 -10 -42.5 -17.5t-54.5 -7.5z" />
    <glyph glyph-name="v" unicode="v" horiz-adv-x="490" 
d="M145 460l100 -300l100 300h145l-175 -460h-140l-175 460h145z" />
    <glyph glyph-name="w" unicode="w" horiz-adv-x="700" 
d="M350 255l-80 -255h-115l-155 460h140l80 -270l85 270h90l85 -270l80 270h140l-155 -460h-115z" />
    <glyph glyph-name="x" unicode="x" horiz-adv-x="460" 
d="M455 460l-140 -225l150 -235h-150l-85 140l-85 -140h-150l150 235l-140 225h150l75 -130l75 130h150z" />
    <glyph glyph-name="y" unicode="y" horiz-adv-x="490" 
d="M0 460h145l100 -285l100 285h145l-185 -460q-35 -86 -75.5 -125.5t-104.5 -39.5q-8 0 -15.5 0.5t-14.5 1.5q-8 1 -15 3v115q42 0 63 17.5t32 47.5z" />
    <glyph glyph-name="z" unicode="z" horiz-adv-x="435" 
d="M220 330h-190v130h365v-110l-190 -220h200v-130h-375v110z" />
    <glyph glyph-name="braceleft" unicode="{" horiz-adv-x="345" 
d="M35 280q55 0 55 55v135q0 83 38.5 121.5t121.5 38.5h70v-130h-40q-55 0 -55 -55v-125q0 -30 -9.5 -48.5t-20.5 -29.5q-13 -12 -30 -17q17 -6 30 -18q11 -11 20.5 -29t9.5 -48v-125q0 -55 55 -55h40v-130h-70q-83 0 -121.5 38.5t-38.5 121.5v135q0 55 -55 55v110z" />
    <glyph glyph-name="bar" unicode="|" horiz-adv-x="380" 
d="M260 -160h-140v790h140v-790z" />
    <glyph glyph-name="braceright" unicode="}" horiz-adv-x="345" 
d="M310 170q-55 0 -55 -55v-135q0 -83 -38.5 -121.5t-121.5 -38.5h-70v130h40q55 0 55 55v125q0 30 9.5 48t20.5 29q13 12 30 18q-17 5 -30 17q-11 11 -20.5 29.5t-9.5 48.5v125q0 55 -55 55h-40v130h70q83 0 121.5 -38.5t38.5 -121.5v-135q0 -55 55 -55v-110z" />
    <glyph glyph-name="asciitilde" unicode="~" horiz-adv-x="465" 
d="M460 345q0 -83 -36.5 -124t-93.5 -41q-26 0 -50.5 8t-46 17t-40 17t-33.5 8q-19 0 -32 -13.5t-13 -36.5l-110 10q0 83 36.5 124t93.5 41q26 0 50.5 -8t46 -17t40 -17t33.5 -8q19 0 32 13.5t13 36.5z" />
    <glyph glyph-name="nonbreakingspace" unicode="&#xa0;" horiz-adv-x="230" 
 />
    <glyph glyph-name="exclamdown" unicode="&#xa1;" horiz-adv-x="280" 
d="M220 -160h-160l15 430h130zM215 390q0 -30 -22.5 -52.5t-52.5 -22.5t-52.5 22.5t-22.5 52.5t22.5 52.5t52.5 22.5t52.5 -22.5t22.5 -52.5z" />
    <glyph glyph-name="cent" unicode="&#xa2;" horiz-adv-x="510" 
d="M335 460q47 -14 76 -41.5t46 -56.5q19 -33 28 -72l-135 -10q-7 18 -18 32q-10 12 -26.5 22.5t-40.5 10.5q-42 0 -71 -31t-29 -84t29 -84t71 -31q24 0 40.5 10t26.5 22q11 14 18 33l135 -10q-9 -37 -28 -70q-17 -29 -46 -57t-76 -43v-85h-135v85q-36 11 -67 31.5t-54 49.5
t-36 66.5t-13 82.5q0 47 14.5 86t38.5 68.5t54.5 48.5t62.5 27v75h135v-75z" />
    <glyph glyph-name="sterling" unicode="&#xa3;" horiz-adv-x="528" 
d="M238 200q0 -15 -5 -26t-10 -19q-7 -9 -15 -15h296v-140h-469v140q25 0 41.5 17t16.5 43v40h-50v120h50v75q0 45 14.5 82t42.5 63t67.5 40.5t90.5 14.5q45 0 82.5 -15t65 -40.5t42.5 -60.5t15 -74l-145 -10q0 34 -19.5 54.5t-45.5 20.5t-45.5 -20.5t-19.5 -54.5v-75h140
v-120h-140v-40z" />
    <glyph glyph-name="currency" unicode="&#xa4;" horiz-adv-x="580" 
d="M25 360h70v270h230q52 0 94 -15t71 -41.5t44.5 -62t15.5 -76.5q0 -39 -15.5 -74t-44.5 -60.5t-71 -40.5t-94 -15h-85v-45h170v-115h-170v-85h-145v85h-70v115h70v45h-70v115zM320 360q38 0 61.5 22.5t23.5 52.5t-23.5 52.5t-61.5 22.5h-80v-150h80z" />
    <glyph glyph-name="yen" unicode="&#xa5;" horiz-adv-x="575" 
d="M90 335h75l-160 295h155l128 -250l127 250h155l-160 -295h75v-105h-125v-40h125v-105h-125v-85h-145v85h-125v105h125v40h-125v105z" />
    <glyph glyph-name="brokenbar" unicode="&#xa6;" horiz-adv-x="380" 
d="M260 320h-140v310h140v-310zM260 -160h-140v310h140v-310z" />
    <glyph glyph-name="section" unicode="&#xa7;" horiz-adv-x="490" 
d="M365 120q15 -12 27 -28q11 -14 19.5 -33.5t8.5 -43.5q0 -26 -12 -50.5t-34 -43.5t-53.5 -30t-70.5 -11q-90 0 -137 41t-58 109l120 10q2 -17 9 -30q6 -11 18 -20.5t33 -9.5q26 0 40.5 13t14.5 32q0 20 -18.5 33t-46.5 24.5t-60 25t-60 33.5t-46.5 49.5t-18.5 74.5
q0 35 13 60t29 41q18 18 43 29q-16 12 -28 28q-11 14 -19 33t-8 44q0 26 11.5 50.5t33.5 43t52 30t68 11.5q43 0 76.5 -11.5t57.5 -31t38 -46t18 -56.5l-120 -10q-3 15 -9 27q-6 11 -16.5 19.5t-29.5 8.5q-23 0 -36.5 -13t-13.5 -32q0 -20 18.5 -33t46.5 -24.5t60 -25
t60 -33.5t46.5 -49.5t18.5 -74.5q0 -36 -13.5 -60.5t-29.5 -40.5q-18 -18 -42 -29zM220 335q-14 -8 -25 -18q-10 -8 -17.5 -20t-7.5 -27q0 -26 23.5 -48.5t76.5 -41.5q14 7 25 17q9 8 17 20.5t8 27.5q0 26 -23.5 48.5t-76.5 41.5z" />
    <glyph glyph-name="dieresis" unicode="&#xa8;" horiz-adv-x="385" 
d="M170 570q0 -30 -20 -50t-50 -20t-50 20t-20 50t20 50t50 20t50 -20t20 -50zM355 570q0 -30 -20 -50t-50 -20t-50 20t-20 50t20 50t50 20t50 -20t20 -50z" />
    <glyph glyph-name="copyright" unicode="&#xa9;" horiz-adv-x="720" 
d="M125 315q0 -51 18.5 -94.5t50.5 -76t74.5 -51t91.5 -18.5t91.5 18.5t74.5 51t50.5 76t18.5 94.5t-18.5 94.5t-50.5 76t-74.5 51t-91.5 18.5t-91.5 -18.5t-74.5 -51t-50.5 -76t-18.5 -94.5zM680 315q0 -68 -24.5 -126t-68 -101.5t-102 -68t-125.5 -24.5q-68 0 -126 24.5
t-101.5 68t-68 101.5t-24.5 126q0 67 24.5 125.5t68 102t101.5 68t126 24.5q67 0 125.5 -24.5t102 -68t68 -102t24.5 -125.5zM195 315q0 36 13 67t35.5 54t52.5 36t64 13q49 0 80 -20t49 -43q21 -27 31 -62l-90 -5q-5 14 -14 25q-8 9 -20 17t-31 8q-34 0 -57 -24t-23 -66
t23 -66t57 -24q19 0 31 7.5t20 17.5q9 11 14 25l90 -5q-10 -36 -31 -63q-18 -23 -49 -42.5t-80 -19.5q-34 0 -64 13t-52.5 36t-35.5 54t-13 67z" />
    <glyph glyph-name="ordfeminine" unicode="&#xaa;" horiz-adv-x="320" 
d="M160 635q57 0 88.5 -30.5t31.5 -79.5v-165h-65l-15 30q-10 -10 -22 -18q-11 -7 -27 -12t-36 -5q-42 0 -66 22.5t-24 52.5q0 21 8.5 38t28 30t52 20t81.5 7q-1 9 -5 17q-4 7 -12 12.5t-23 5.5q-10 0 -15.5 -3t-8.5 -7q-4 -4 -6 -10h-80q0 42 29 68.5t86 26.5zM145 420
q23 0 36.5 13t13.5 32v15q-49 0 -67 -12t-18 -23q0 -25 35 -25z" />
    <glyph glyph-name="guillemotleft" unicode="&#xab;" horiz-adv-x="510" 
d="M165 225l110 -160h-135l-110 160l110 160h135zM370 225l110 -160h-135l-110 160l110 160h135z" />
    <glyph glyph-name="logicalnot" unicode="&#xac;" horiz-adv-x="500" 
d="M330 165v115h-295v120h425v-235h-130z" />
    <glyph glyph-name="uni00AD" unicode="&#xad;" horiz-adv-x="375" 
d="M340 195h-305v120h305v-120z" />
    <glyph glyph-name="registered" unicode="&#xae;" horiz-adv-x="720" 
d="M125 315q0 -51 18.5 -94.5t50.5 -76t74.5 -51t91.5 -18.5t91.5 18.5t74.5 51t50.5 76t18.5 94.5t-18.5 94.5t-50.5 76t-74.5 51t-91.5 18.5t-91.5 -18.5t-74.5 -51t-50.5 -76t-18.5 -94.5zM680 315q0 -68 -24.5 -126t-68 -101.5t-102 -68t-125.5 -24.5q-68 0 -126 24.5
t-101.5 68t-68 101.5t-24.5 126q0 67 24.5 125.5t68 102t101.5 68t126 24.5q67 0 125.5 -24.5t102 -68t68 -102t24.5 -125.5zM495 370q0 -26 -11 -43t-24 -28q-16 -12 -35 -19l95 -130h-95l-75 110h-25v-110h-85v330h135q26 0 48 -9t38 -24t25 -35t9 -42zM370 335
q23 0 34 10t11 25t-11 25t-34 10h-45v-70h45z" />
    <glyph glyph-name="macron" unicode="&#xaf;" horiz-adv-x="325" 
d="M30 620h265v-105h-265v105z" />
    <glyph glyph-name="degree" unicode="&#xb0;" horiz-adv-x="320" 
d="M210 505q0 23 -13.5 36.5t-36.5 13.5t-36.5 -13.5t-13.5 -36.5t13.5 -36.5t36.5 -13.5t36.5 13.5t13.5 36.5zM30 505q0 57 36.5 93.5t93.5 36.5t93.5 -36.5t36.5 -93.5t-36.5 -93.5t-93.5 -36.5t-93.5 36.5t-36.5 93.5z" />
    <glyph glyph-name="plusminus" unicode="&#xb1;" horiz-adv-x="465" 
d="M435 5h-405v120h140v115h-140v120h140v145h125v-145h140v-120h-140v-115h140v-120z" />
    <glyph glyph-name="twosuperior" unicode="&#xb2;" horiz-adv-x="280" 
d="M255 495v-75h-230v60l90 80q14 12 25 23q9 10 17 21t8 21q0 25 -30 25q-15 0 -25 -10t-10 -25l-80 5q8 49 37.5 77t82.5 28q60 0 90 -27.5t30 -72.5q0 -15 -5 -27.5t-10 -20.5q-7 -10 -15 -17l-75 -65h100z" />
    <glyph glyph-name="threesuperior" unicode="&#xb3;" horiz-adv-x="285" 
d="M20 630q4 42 33.5 68.5t86.5 26.5t86 -26t29 -64q0 -15 -5.5 -26t-12.5 -19q-8 -9 -17 -15q12 -6 22 -16q8 -8 15.5 -20t7.5 -29q0 -38 -34 -66.5t-91 -28.5t-89 29t-36 71l13.5 1t29 1.5t29 1.5l13.5 1q0 -11 10.5 -20.5t25.5 -9.5q22 0 30.5 8.5t8.5 16.5q0 11 -8.5 18
t-30.5 7h-31v65h30q11 0 20.5 6t9.5 14q0 25 -30 25q-35 0 -35 -25z" />
    <glyph glyph-name="acute" unicode="&#xb4;" horiz-adv-x="260" 
d="M95 635h135l-95 -130h-105z" />
    <glyph glyph-name="mu" unicode="&#xb5;" horiz-adv-x="540" 
d="M50 460h135v-245q0 -45 23.5 -70t61.5 -25t61.5 25t23.5 70v245h135v-460h-100l-20 45q-11 -14 -26 -25q-14 -10 -33.5 -17.5t-45.5 -7.5q-17 0 -31.5 3.5t-25.5 8.5q-12 5 -23 13v-180h-135v620z" />
    <glyph glyph-name="paragraph" unicode="&#xb6;" horiz-adv-x="540" 
d="M480 630v-720h-110v600h-70v-600h-110v390q-36 0 -67 13t-54 35.5t-36 52.5t-13 64t13 64t36 52.5t54 35.5t67 13h290z" />
    <glyph glyph-name="periodcentered" unicode="&#xb7;" horiz-adv-x="230" 
d="M40 315q0 30 22.5 52.5t52.5 22.5t52.5 -22.5t22.5 -52.5t-22.5 -52.5t-52.5 -22.5t-52.5 22.5t-22.5 52.5z" />
    <glyph glyph-name="cedilla" unicode="&#xb8;" horiz-adv-x="240" 
d="M125 -40q24 -4 42 -14q16 -8 29.5 -24t13.5 -42q0 -34 -28 -57t-92 -23q-25 0 -43 5q-10 2 -17 5v50q5 -2 12 -3q5 -1 12.5 -1.5t15.5 -0.5q26 0 38 10t12 25q0 11 -11 20.5t-34 9.5q-8 0 -16 -2.5t-9 -2.5l35 85h60z" />
    <glyph glyph-name="onesuperior" unicode="&#xb9;" horiz-adv-x="250" 
d="M180 720v-300h-90v190l-35 -20l-40 65l105 65h60z" />
    <glyph glyph-name="ordmasculine" unicode="&#xba;" horiz-adv-x="330" 
d="M210 495q0 26 -13 40.5t-32 14.5t-32 -14.5t-13 -40.5t13 -40.5t32 -14.5t32 14.5t13 40.5zM305 495q0 -28 -11.5 -53.5t-30.5 -44.5t-44.5 -30.5t-53.5 -11.5t-53.5 11.5t-44.5 30.5t-30.5 44.5t-11.5 53.5t11.5 53.5t30.5 44.5t44.5 30.5t53.5 11.5t53.5 -11.5
t44.5 -30.5t30.5 -44.5t11.5 -53.5z" />
    <glyph glyph-name="guillemotright" unicode="&#xbb;" horiz-adv-x="510" 
d="M235 385h135l110 -160l-110 -160h-135l110 160zM30 385h135l110 -160l-110 -160h-135l110 160z" />
    <glyph glyph-name="onequarter" unicode="&#xbc;" horiz-adv-x="615" 
d="M15 0zM180 630v-300h-90v190l-35 -20l-40 65l105 65h60zM170 0h-115l385 630h115zM595 55h-35v-55h-90v55h-135v55l120 190h105v-170h35v-75zM475 130v80l-50 -80h50z" />
    <glyph glyph-name="onehalf" unicode="&#xbd;" horiz-adv-x="630" 
d="M15 0zM180 630v-300h-90v190l-35 -20l-40 65l105 65h60zM170 0h-115l385 630h115zM605 75v-75h-230v60l90 80q14 12 25 23q9 10 17 21t8 21q0 25 -30 25q-15 0 -25 -10t-10 -25l-80 5q8 49 37.5 77t82.5 28q60 0 90 -27.5t30 -72.5q0 -15 -5 -27.5t-10 -20.5
q-7 -10 -15 -17l-75 -65h100z" />
    <glyph glyph-name="threequarters" unicode="&#xbe;" horiz-adv-x="657" 
d="M15 0zM212 0h-115l385 630h115zM637 55h-35v-55h-90v55h-135v55l120 190h105v-170h35v-75zM517 130v80l-50 -80h50zM20 540q4 42 33.5 68.5t86.5 26.5t86 -26t29 -64q0 -15 -5.5 -26t-12.5 -19q-8 -9 -17 -15q12 -6 22 -16q8 -8 15.5 -20t7.5 -29q0 -38 -34 -66.5
t-91 -28.5t-89 29t-36 71l13.5 1t29 1.5t29 1.5l13.5 1q0 -11 10.5 -20.5t25.5 -9.5q22 0 30.5 8.5t8.5 16.5q0 11 -8.5 18t-30.5 7h-31v65h30q11 0 20.5 6t9.5 14q0 25 -30 25q-35 0 -35 -25z" />
    <glyph glyph-name="questiondown" unicode="&#xbf;" horiz-adv-x="455" 
d="M15 10q0 34 10.5 57.5t26 42t34 34t34.5 33.5t27.5 40t12.5 53h140q0 -40 -10 -68.5t-25 -49.5t-32.5 -36.5t-32.5 -29.5t-25 -28t-10 -33q0 -26 17.5 -43t47.5 -17q26 0 45.5 21.5t19.5 63.5l145 -10q-8 -94 -63.5 -149.5t-146.5 -55.5q-51 0 -90.5 14t-67.5 38
t-42.5 55.5t-14.5 67.5zM300 390q0 -30 -22.5 -52.5t-52.5 -22.5t-52.5 22.5t-22.5 52.5t22.5 52.5t52.5 22.5t52.5 -22.5t22.5 -52.5z" />
    <glyph glyph-name="Agrave" unicode="&#xc0;" horiz-adv-x="590" 
d="M0 0zM365 245l-70 210l-70 -210h140zM185 120l-40 -120h-150l225 630h150l225 -630h-150l-40 120h-220zM345 700h-105l-95 130h135z" />
    <glyph glyph-name="Aacute" unicode="&#xc1;" horiz-adv-x="590" 
d="M0 0zM365 245l-70 210l-70 -210h140zM185 120l-40 -120h-150l225 630h150l225 -630h-150l-40 120h-220zM310 830h135l-95 -130h-105z" />
    <glyph glyph-name="Acircumflex" unicode="&#xc2;" horiz-adv-x="590" 
d="M0 0zM365 245l-70 210l-70 -210h140zM185 120l-40 -120h-150l225 630h150l225 -630h-150l-40 120h-220zM250 700h-115l100 130h120l100 -130h-115l-45 60z" />
    <glyph glyph-name="Atilde" unicode="&#xc3;" horiz-adv-x="590" 
d="M0 0zM365 245l-70 210l-70 -210h140zM185 120l-40 -120h-150l225 630h150l225 -630h-150l-40 120h-220zM145 695q0 64 26 94.5t64 30.5q22 0 38 -7t28 -15.5t22.5 -15.5t21.5 -7q15 0 25 11t10 34l75 -10q0 -64 -26 -94.5t-64 -30.5q-23 0 -38.5 7t-27.5 15.5t-22.5 15.5
t-21.5 7q-14 0 -24.5 -11t-10.5 -34z" />
    <glyph glyph-name="Adieresis" unicode="&#xc4;" horiz-adv-x="590" 
d="M0 0zM365 245l-70 210l-70 -210h140zM185 120l-40 -120h-150l225 630h150l225 -630h-150l-40 120h-220zM273 754q0 -30 -20 -50t-50 -20t-50 20t-20 50t20 50t50 20t50 -20t20 -50zM458 754q0 -30 -20 -50t-50 -20t-50 20t-20 50t20 50t50 20t50 -20t20 -50z" />
    <glyph glyph-name="Aring" unicode="&#xc5;" horiz-adv-x="590" 
d="M0 0zM365 245l-70 210l-70 -210h140zM185 120l-40 -120h-150l225 630h150l225 -630h-150l-40 120h-220zM330 767q0 15 -10 25t-25 10t-25 -10t-10 -25t10 -25t25 -10t25 10t10 25zM395 767q0 -42 -27.5 -68.5t-72.5 -26.5t-72.5 26.5t-27.5 68.5t27.5 68.5t72.5 26.5
t72.5 -26.5t27.5 -68.5z" />
    <glyph glyph-name="AE" unicode="&#xc6;" horiz-adv-x="855" 
d="M385 120h-185l-60 -120h-165l325 630h505v-140h-275v-100h250v-140h-250v-110h285v-140h-430v120zM385 490l-115 -230h115v230z" />
    <glyph glyph-name="Ccedilla" unicode="&#xc7;" horiz-adv-x="650" 
d="M340 135q60 0 94.5 28.5t45.5 66.5l150 -10q-11 -43 -34 -82t-57 -69t-78.5 -49.5t-97.5 -23.5l-18 -36q24 -4 42 -14q16 -8 29.5 -24t13.5 -42q0 -34 -28 -57t-92 -23q-25 0 -43 5q-10 2 -17 5v50q5 -2 12 -3q5 -1 12.5 -1.5t15.5 -0.5q26 0 38 10t12 25q0 11 -11 20.5
t-34 9.5q-8 0 -16 -2.5t-9 -2.5l34 83q-58 6 -108 33t-87 69t-58 97t-21 118q0 67 24.5 125.5t66.5 102t98.5 68t120.5 24.5q56 0 103.5 -18.5t84 -49t61.5 -71.5t36 -86l-150 -10q-6 19 -17 36t-28 30t-39.5 21t-50.5 8q-34 0 -64 -13.5t-52.5 -37.5t-35.5 -57t-13 -72
t13 -72t35.5 -57t52.5 -37.5t64 -13.5z" />
    <glyph glyph-name="Egrave" unicode="&#xc8;" horiz-adv-x="560" 
d="M60 0zM60 630h450v-140h-305v-100h280v-140h-280v-110h315v-140h-460v630zM354 700h-105l-95 130h135z" />
    <glyph glyph-name="Eacute" unicode="&#xc9;" horiz-adv-x="560" 
d="M60 0zM60 630h450v-140h-305v-100h280v-140h-280v-110h315v-140h-460v630zM296 830h135l-95 -130h-105z" />
    <glyph glyph-name="Ecircumflex" unicode="&#xca;" horiz-adv-x="560" 
d="M60 0zM60 630h450v-140h-305v-100h280v-140h-280v-110h315v-140h-460v630zM240 700h-115l100 130h120l100 -130h-115l-45 60z" />
    <glyph glyph-name="Edieresis" unicode="&#xcb;" horiz-adv-x="560" 
d="M60 0zM60 630h450v-140h-305v-100h280v-140h-280v-110h315v-140h-460v630zM268 754q0 -30 -20 -50t-50 -20t-50 20t-20 50t20 50t50 20t50 -20t20 -50zM453 754q0 -30 -20 -50t-50 -20t-50 20t-20 50t20 50t50 20t50 -20t20 -50z" />
    <glyph glyph-name="Igrave" unicode="&#xcc;" horiz-adv-x="265" 
d="M0 0zM205 0h-145v630h145v-630zM185 700h-105l-95 130h135z" />
    <glyph glyph-name="Iacute" unicode="&#xcd;" horiz-adv-x="265" 
d="M60 0zM205 0h-145v630h145v-630zM135 830h135l-95 -130h-105z" />
    <glyph glyph-name="Icircumflex" unicode="&#xce;" horiz-adv-x="265" 
d="M0 0zM205 0h-145v630h145v-630zM85 700h-115l100 130h120l100 -130h-115l-45 60z" />
    <glyph glyph-name="Idieresis" unicode="&#xcf;" horiz-adv-x="265" 
d="M0 0zM205 0h-145v630h145v-630zM110 755q0 -30 -20 -50t-50 -20t-50 20t-20 50t20 50t50 20t50 -20t20 -50zM295 755q0 -30 -20 -50t-50 -20t-50 20t-20 50t20 50t50 20t50 -20t20 -50z" />
    <glyph glyph-name="Eth" unicode="&#xd0;" horiz-adv-x="650" 
d="M20 0zM20 370h70v260h215q66 0 123 -24.5t100 -67.5t67.5 -100t24.5 -123t-24.5 -123t-67.5 -100t-100 -67.5t-123 -24.5h-215v250h-70v120zM305 140q36 0 67 13.5t54 36.5t36 55t13 70q0 37 -13 69.5t-36 55.5t-54 36.5t-67 13.5h-70v-120h100v-120h-100v-110h70z" />
    <glyph glyph-name="Ntilde" unicode="&#xd1;" horiz-adv-x="650" 
d="M60 0zM590 630v-630h-130l-255 370v-370h-145v630h130l255 -370v370h145zM175 705q0 64 26 94.5t64 30.5q22 0 38 -7t28 -15.5t22.5 -15.5t21.5 -7q15 0 25 11t10 34l75 -10q0 -64 -26 -94.5t-64 -30.5q-23 0 -38.5 7t-27.5 15.5t-22.5 15.5t-21.5 7q-14 0 -24.5 -11
t-10.5 -34z" />
    <glyph glyph-name="Ograve" unicode="&#xd2;" horiz-adv-x="680" 
d="M30 0zM505 315q0 39 -13 72t-35.5 57t-52.5 37.5t-64 13.5t-64 -13.5t-52.5 -37.5t-35.5 -57t-13 -72t13 -72t35.5 -57t52.5 -37.5t64 -13.5t64 13.5t52.5 37.5t35.5 57t13 72zM650 315q0 -68 -24.5 -126t-66.5 -101.5t-98.5 -68t-120.5 -24.5t-120.5 24.5t-98.5 68
t-66.5 101.5t-24.5 126q0 67 24.5 125.5t66.5 102t98.5 68t120.5 24.5t120.5 -24.5t98.5 -68t66.5 -102t24.5 -125.5zM395 700h-105l-95 130h135z" />
    <glyph glyph-name="Oacute" unicode="&#xd3;" horiz-adv-x="680" 
d="M30 0zM505 315q0 39 -13 72t-35.5 57t-52.5 37.5t-64 13.5t-64 -13.5t-52.5 -37.5t-35.5 -57t-13 -72t13 -72t35.5 -57t52.5 -37.5t64 -13.5t64 13.5t52.5 37.5t35.5 57t13 72zM650 315q0 -68 -24.5 -126t-66.5 -101.5t-98.5 -68t-120.5 -24.5t-120.5 24.5t-98.5 68
t-66.5 101.5t-24.5 126q0 67 24.5 125.5t66.5 102t98.5 68t120.5 24.5t120.5 -24.5t98.5 -68t66.5 -102t24.5 -125.5zM355 830h135l-95 -130h-105z" />
    <glyph glyph-name="Ocircumflex" unicode="&#xd4;" horiz-adv-x="680" 
d="M30 0zM505 315q0 39 -13 72t-35.5 57t-52.5 37.5t-64 13.5t-64 -13.5t-52.5 -37.5t-35.5 -57t-13 -72t13 -72t35.5 -57t52.5 -37.5t64 -13.5t64 13.5t52.5 37.5t35.5 57t13 72zM650 315q0 -68 -24.5 -126t-66.5 -101.5t-98.5 -68t-120.5 -24.5t-120.5 24.5t-98.5 68
t-66.5 101.5t-24.5 126q0 67 24.5 125.5t66.5 102t98.5 68t120.5 24.5t120.5 -24.5t98.5 -68t66.5 -102t24.5 -125.5zM295 700h-115l100 130h120l100 -130h-115l-45 60z" />
    <glyph glyph-name="Otilde" unicode="&#xd5;" horiz-adv-x="680" 
d="M30 0zM505 315q0 39 -13 72t-35.5 57t-52.5 37.5t-64 13.5t-64 -13.5t-52.5 -37.5t-35.5 -57t-13 -72t13 -72t35.5 -57t52.5 -37.5t64 -13.5t64 13.5t52.5 37.5t35.5 57t13 72zM650 315q0 -68 -24.5 -126t-66.5 -101.5t-98.5 -68t-120.5 -24.5t-120.5 24.5t-98.5 68
t-66.5 101.5t-24.5 126q0 67 24.5 125.5t66.5 102t98.5 68t120.5 24.5t120.5 -24.5t98.5 -68t66.5 -102t24.5 -125.5zM185 695q0 64 26 94.5t64 30.5q22 0 38 -7t28 -15.5t22.5 -15.5t21.5 -7q15 0 25 11t10 34l75 -10q0 -64 -26 -94.5t-64 -30.5q-23 0 -38.5 7t-27.5 15.5
t-22.5 15.5t-21.5 7q-14 0 -24.5 -11t-10.5 -34z" />
    <glyph glyph-name="Odieresis" unicode="&#xd6;" horiz-adv-x="680" 
d="M30 0zM505 315q0 39 -13 72t-35.5 57t-52.5 37.5t-64 13.5t-64 -13.5t-52.5 -37.5t-35.5 -57t-13 -72t13 -72t35.5 -57t52.5 -37.5t64 -13.5t64 13.5t52.5 37.5t35.5 57t13 72zM650 315q0 -68 -24.5 -126t-66.5 -101.5t-98.5 -68t-120.5 -24.5t-120.5 24.5t-98.5 68
t-66.5 101.5t-24.5 126q0 67 24.5 125.5t66.5 102t98.5 68t120.5 24.5t120.5 -24.5t98.5 -68t66.5 -102t24.5 -125.5zM320 755q0 -30 -20 -50t-50 -20t-50 20t-20 50t20 50t50 20t50 -20t20 -50zM505 755q0 -30 -20 -50t-50 -20t-50 20t-20 50t20 50t50 20t50 -20t20 -50z
" />
    <glyph glyph-name="multiply" unicode="&#xd7;" horiz-adv-x="470" 
d="M315 255l105 -110l-85 -80l-100 105l-100 -105l-85 80l105 110l-105 110l85 80l100 -105l100 105l85 -80z" />
    <glyph glyph-name="Oslash" unicode="&#xd8;" horiz-adv-x="700" 
d="M80 155q-11 20 -20 46q-8 22 -14 51t-6 63q0 67 24.5 125.5t66.5 102t98.5 68t120.5 24.5q38 0 70 -8.5t55 -19.5q27 -12 50 -27l55 50l95 -100l-55 -55q11 -19 20 -44q8 -21 14 -51t6 -65q0 -68 -24.5 -126t-66.5 -101.5t-98.5 -68t-120.5 -24.5q-38 0 -70 8t-55 19
q-27 12 -50 28l-55 -50l-95 100zM185 315q0 -15 0.5 -25.5t1.5 -17.5q1 -8 3 -12l230 220q-7 3 -18 7q-9 3 -22 5.5t-30 2.5q-34 0 -64 -13.5t-52.5 -37.5t-35.5 -57t-13 -72zM515 315q0 15 -1 25t-2 17q-1 8 -2 13l-230 -220q7 -4 18 -8q9 -3 22 -5t30 -2q34 0 64 13.5
t52.5 37.5t35.5 57t13 72z" />
    <glyph glyph-name="Ugrave" unicode="&#xd9;" horiz-adv-x="620" 
d="M50 0zM195 630v-375q0 -57 31 -88.5t84 -31.5t84 31.5t31 88.5v375h145v-375q0 -58 -19 -106t-53 -82t-82 -53t-106 -19t-106 19t-82 53t-53 82t-19 106v375h145zM370 700h-105l-95 130h135z" />
    <glyph glyph-name="Uacute" unicode="&#xda;" horiz-adv-x="620" 
d="M50 0zM195 630v-375q0 -57 31 -88.5t84 -31.5t84 31.5t31 88.5v375h145v-375q0 -58 -19 -106t-53 -82t-82 -53t-106 -19t-106 19t-82 53t-53 82t-19 106v375h145zM320 830h135l-95 -130h-105z" />
    <glyph glyph-name="Ucircumflex" unicode="&#xdb;" horiz-adv-x="620" 
d="M50 0zM195 630v-375q0 -57 31 -88.5t84 -31.5t84 31.5t31 88.5v375h145v-375q0 -58 -19 -106t-53 -82t-82 -53t-106 -19t-106 19t-82 53t-53 82t-19 106v375h145zM265 700h-115l100 130h120l100 -130h-115l-45 60z" />
    <glyph glyph-name="Udieresis" unicode="&#xdc;" horiz-adv-x="620" 
d="M50 0zM195 630v-375q0 -57 31 -88.5t84 -31.5t84 31.5t31 88.5v375h145v-375q0 -58 -19 -106t-53 -82t-82 -53t-106 -19t-106 19t-82 53t-53 82t-19 106v375h145zM290 756q0 -30 -20 -50t-50 -20t-50 20t-20 50t20 50t50 20t50 -20t20 -50zM475 756q0 -30 -20 -50
t-50 -20t-50 20t-20 50t20 50t50 20t50 -20t20 -50z" />
    <glyph glyph-name="Yacute" unicode="&#xdd;" horiz-adv-x="565" 
d="M0 0zM210 235l-210 395h155l128 -250l127 250h155l-210 -395v-235h-145v235zM295 830h135l-95 -130h-105z" />
    <glyph glyph-name="Thorn" unicode="&#xde;" horiz-adv-x="600" 
d="M195 630v-95h150q49 0 90 -16.5t71 -45t47 -67t17 -81.5t-17 -81.5t-47 -67t-71 -45t-90 -16.5h-150v-115h-145v630h145zM345 255q17 0 31.5 6t25.5 16t17 22.5t6 25.5t-6 25.5t-17 22.5t-25.5 16t-31.5 6h-150v-140h150z" />
    <glyph glyph-name="germandbls" unicode="&#xdf;" horiz-adv-x="545" 
d="M415 340q28 -14 50 -37q19 -20 34.5 -50t15.5 -73q0 -38 -14 -70.5t-39.5 -57t-60.5 -38.5t-76 -14h-60v120h50q26 0 45.5 20t19.5 50t-19.5 50t-45.5 20h-50v120q34 0 52 17.5t18 47.5q0 70 -70 70q-30 0 -50 -20.5t-20 -54.5v-440h-135v440q0 41 15 76.5t42.5 62
t65 41.5t82.5 15q47 0 85 -14t64.5 -38t41 -55.5t14.5 -67.5q0 -30 -8.5 -52.5t-19.5 -37.5q-12 -18 -27 -30z" />
    <glyph glyph-name="agrave" unicode="&#xe0;" horiz-adv-x="485" 
d="M30 0zM250 470q41 0 76 -14t60.5 -39.5t39.5 -60.5t14 -76v-280h-100l-20 45q-17 -14 -38 -25q-18 -10 -42.5 -17.5t-54.5 -7.5q-75 0 -115 36.5t-40 93.5q0 34 13.5 62.5t45.5 49t84.5 32t131.5 11.5q0 34 -17 52t-43 18q-19 0 -30.5 -7.5t-18.5 -15.5q-8 -10 -11 -22
l-135 10q6 34 21 62.5t39.5 49t59.5 32t80 11.5zM220 95q38 0 61.5 23.5t23.5 61.5v20q-43 0 -70.5 -4.5t-43 -12.5t-21 -19t-5.5 -24q0 -19 14.5 -32t40.5 -13zM310 520h-105l-95 130h135z" />
    <glyph glyph-name="aacute" unicode="&#xe1;" horiz-adv-x="485" 
d="M30 0zM250 470q41 0 76 -14t60.5 -39.5t39.5 -60.5t14 -76v-280h-100l-20 45q-17 -14 -38 -25q-18 -10 -42.5 -17.5t-54.5 -7.5q-75 0 -115 36.5t-40 93.5q0 34 13.5 62.5t45.5 49t84.5 32t131.5 11.5q0 34 -17 52t-43 18q-19 0 -30.5 -7.5t-18.5 -15.5q-8 -10 -11 -22
l-135 10q6 34 21 62.5t39.5 49t59.5 32t80 11.5zM220 95q38 0 61.5 23.5t23.5 61.5v20q-43 0 -70.5 -4.5t-43 -12.5t-21 -19t-5.5 -24q0 -19 14.5 -32t40.5 -13zM260 650h135l-95 -130h-105z" />
    <glyph glyph-name="acircumflex" unicode="&#xe2;" horiz-adv-x="485" 
d="M30 0zM250 470q41 0 76 -14t60.5 -39.5t39.5 -60.5t14 -76v-280h-100l-20 45q-17 -14 -38 -25q-18 -10 -42.5 -17.5t-54.5 -7.5q-75 0 -115 36.5t-40 93.5q0 34 13.5 62.5t45.5 49t84.5 32t131.5 11.5q0 34 -17 52t-43 18q-19 0 -30.5 -7.5t-18.5 -15.5q-8 -10 -11 -22
l-135 10q6 34 21 62.5t39.5 49t59.5 32t80 11.5zM220 95q38 0 61.5 23.5t23.5 61.5v20q-43 0 -70.5 -4.5t-43 -12.5t-21 -19t-5.5 -24q0 -19 14.5 -32t40.5 -13zM210 520h-115l100 130h120l100 -130h-115l-45 60z" />
    <glyph glyph-name="atilde" unicode="&#xe3;" horiz-adv-x="485" 
d="M30 0zM250 470q41 0 76 -14t60.5 -39.5t39.5 -60.5t14 -76v-280h-100l-20 45q-17 -14 -38 -25q-18 -10 -42.5 -17.5t-54.5 -7.5q-75 0 -115 36.5t-40 93.5q0 34 13.5 62.5t45.5 49t84.5 32t131.5 11.5q0 34 -17 52t-43 18q-19 0 -30.5 -7.5t-18.5 -15.5q-8 -10 -11 -22
l-135 10q6 34 21 62.5t39.5 49t59.5 32t80 11.5zM220 95q38 0 61.5 23.5t23.5 61.5v20q-43 0 -70.5 -4.5t-43 -12.5t-21 -19t-5.5 -24q0 -19 14.5 -32t40.5 -13zM100 520q0 64 26 94.5t64 30.5q22 0 38 -7t28 -15.5t22.5 -15.5t21.5 -7q15 0 25 11t10 34l75 -10
q0 -64 -26 -94.5t-64 -30.5q-23 0 -38.5 7t-27.5 15.5t-22.5 15.5t-21.5 7q-14 0 -24.5 -11t-10.5 -34z" />
    <glyph glyph-name="adieresis" unicode="&#xe4;" horiz-adv-x="485" 
d="M30 0zM250 470q41 0 76 -14t60.5 -39.5t39.5 -60.5t14 -76v-280h-100l-20 45q-17 -14 -38 -25q-18 -10 -42.5 -17.5t-54.5 -7.5q-75 0 -115 36.5t-40 93.5q0 34 13.5 62.5t45.5 49t84.5 32t131.5 11.5q0 34 -17 52t-43 18q-19 0 -30.5 -7.5t-18.5 -15.5q-8 -10 -11 -22
l-135 10q6 34 21 62.5t39.5 49t59.5 32t80 11.5zM220 95q38 0 61.5 23.5t23.5 61.5v20q-43 0 -70.5 -4.5t-43 -12.5t-21 -19t-5.5 -24q0 -19 14.5 -32t40.5 -13zM233 575q0 -30 -20 -50t-50 -20t-50 20t-20 50t20 50t50 20t50 -20t20 -50zM418 575q0 -30 -20 -50t-50 -20
t-50 20t-20 50t20 50t50 20t50 -20t20 -50z" />
    <glyph glyph-name="aring" unicode="&#xe5;" horiz-adv-x="485" 
d="M30 0zM250 470q41 0 76 -14t60.5 -39.5t39.5 -60.5t14 -76v-280h-100l-20 45q-17 -14 -38 -25q-18 -10 -42.5 -17.5t-54.5 -7.5q-75 0 -115 36.5t-40 93.5q0 34 13.5 62.5t45.5 49t84.5 32t131.5 11.5q0 34 -17 52t-43 18q-19 0 -30.5 -7.5t-18.5 -15.5q-8 -10 -11 -22
l-135 10q6 34 21 62.5t39.5 49t59.5 32t80 11.5zM220 95q38 0 61.5 23.5t23.5 61.5v20q-43 0 -70.5 -4.5t-43 -12.5t-21 -19t-5.5 -24q0 -19 14.5 -32t40.5 -13zM285 595q0 15 -10 25t-25 10t-25 -10t-10 -25t10 -25t25 -10t25 10t10 25zM350 595q0 -42 -27.5 -68.5
t-72.5 -26.5t-72.5 26.5t-27.5 68.5t27.5 68.5t72.5 26.5t72.5 -26.5t27.5 -68.5z" />
    <glyph glyph-name="ae" unicode="&#xe6;" horiz-adv-x="785" 
d="M250 470q39 0 67 -8t45 -17q20 -11 33 -25q14 14 34 25q17 9 43.5 17t62.5 8q47 0 88 -18t71.5 -49.5t48 -76t17.5 -96.5q0 -10 -1 -18t-2 -14q-1 -7 -2 -13h-315q7 -20 19 -35q11 -14 29 -24.5t47 -10.5q19 0 32.5 4.5t21.5 10.5q10 6 16 15l140 -10q-9 -28 -28 -54
t-46 -46.5t-62.5 -32.5t-78.5 -12q-38 0 -65 9.5t-45 20.5q-21 13 -35 30q-18 -17 -44 -30q-22 -11 -53 -20.5t-73 -9.5q-45 0 -79.5 11t-58 30t-35.5 43.5t-12 50.5q0 34 13.5 62.5t45.5 49t84.5 32t131.5 11.5q0 34 -17 52t-43 18q-19 0 -30.5 -7.5t-18.5 -15.5
q-8 -10 -11 -22l-135 10q6 34 21 62.5t39.5 49t59.5 32t80 11.5zM530 350q-38 0 -62 -22.5t-28 -52.5h180q-4 30 -28 52.5t-62 22.5zM220 95q38 0 61.5 23.5t23.5 61.5v20q-43 0 -70.5 -4.5t-43 -12.5t-21 -19t-5.5 -24q0 -19 14.5 -32t40.5 -13z" />
    <glyph glyph-name="ccedilla" unicode="&#xe7;" horiz-adv-x="510" 
d="M265 470q34 0 62 -7.5t50 -20.5t38.5 -29t28.5 -33q28 -40 41 -90l-135 -10q-7 18 -18 32q-10 12 -26.5 22.5t-40.5 10.5q-42 0 -71 -31t-29 -84t29 -84t71 -31q24 0 40.5 10t26.5 22q11 14 18 33l135 -10q-11 -45 -35 -82q-21 -32 -58 -60.5t-96 -35.5l-16 -32
q24 -4 42 -14q16 -8 29.5 -24t13.5 -42q0 -34 -28 -57t-92 -23q-25 0 -43 5q-10 2 -17 5v50q5 -2 12 -3q5 -1 12.5 -1.5t15.5 -0.5q26 0 38 10t12 25q0 11 -11 20.5t-34 9.5q-8 0 -16 -2.5t-9 -2.5l31 77q-44 5 -81.5 25t-65 52t-43.5 73t-16 88q0 51 18.5 94.5t50.5 76
t74.5 51t91.5 18.5z" />
    <glyph glyph-name="egrave" unicode="&#xe8;" horiz-adv-x="515" 
d="M30 0zM475 135q-9 -28 -27 -54t-45 -46.5t-62.5 -32.5t-80.5 -12q-47 0 -88.5 18.5t-73 51t-50 76t-18.5 94.5t18.5 94.5t50.5 76t74.5 51t91.5 18.5q47 0 88 -17t71.5 -48.5t48 -76t17.5 -98.5q0 -8 -1 -15.5t-2 -14.5q-1 -8 -2 -15h-315q8 -26 32.5 -48t62.5 -22
q19 0 32.5 4.5t21.5 10.5q10 6 16 15zM265 345q-38 0 -62.5 -22.5t-32.5 -52.5h190q-8 30 -32.5 52.5t-62.5 22.5zM320 520h-105l-95 130h135z" />
    <glyph glyph-name="eacute" unicode="&#xe9;" horiz-adv-x="515" 
d="M30 0zM475 135q-9 -28 -27 -54t-45 -46.5t-62.5 -32.5t-80.5 -12q-47 0 -88.5 18.5t-73 51t-50 76t-18.5 94.5t18.5 94.5t50.5 76t74.5 51t91.5 18.5q47 0 88 -17t71.5 -48.5t48 -76t17.5 -98.5q0 -8 -1 -15.5t-2 -14.5q-1 -8 -2 -15h-315q8 -26 32.5 -48t62.5 -22
q19 0 32.5 4.5t21.5 10.5q10 6 16 15zM265 345q-38 0 -62.5 -22.5t-32.5 -52.5h190q-8 30 -32.5 52.5t-62.5 22.5zM270 650h135l-95 -130h-105z" />
    <glyph glyph-name="ecircumflex" unicode="&#xea;" horiz-adv-x="515" 
d="M30 0zM475 135q-9 -28 -27 -54t-45 -46.5t-62.5 -32.5t-80.5 -12q-47 0 -88.5 18.5t-73 51t-50 76t-18.5 94.5t18.5 94.5t50.5 76t74.5 51t91.5 18.5q47 0 88 -17t71.5 -48.5t48 -76t17.5 -98.5q0 -8 -1 -15.5t-2 -14.5q-1 -8 -2 -15h-315q8 -26 32.5 -48t62.5 -22
q19 0 32.5 4.5t21.5 10.5q10 6 16 15zM265 345q-38 0 -62.5 -22.5t-32.5 -52.5h190q-8 30 -32.5 52.5t-62.5 22.5zM220 520h-115l100 130h120l100 -130h-115l-45 60z" />
    <glyph glyph-name="edieresis" unicode="&#xeb;" horiz-adv-x="515" 
d="M30 0zM475 135q-9 -28 -27 -54t-45 -46.5t-62.5 -32.5t-80.5 -12q-47 0 -88.5 18.5t-73 51t-50 76t-18.5 94.5t18.5 94.5t50.5 76t74.5 51t91.5 18.5q47 0 88 -17t71.5 -48.5t48 -76t17.5 -98.5q0 -8 -1 -15.5t-2 -14.5q-1 -8 -2 -15h-315q8 -26 32.5 -48t62.5 -22
q19 0 32.5 4.5t21.5 10.5q10 6 16 15zM265 345q-38 0 -62.5 -22.5t-32.5 -52.5h190q-8 30 -32.5 52.5t-62.5 22.5zM250 575q0 -30 -20 -50t-50 -20t-50 20t-20 50t20 50t50 20t50 -20t20 -50zM435 575q0 -30 -20 -50t-50 -20t-50 20t-20 50t20 50t50 20t50 -20t20 -50z" />
    <glyph glyph-name="igrave" unicode="&#xec;" horiz-adv-x="235" 
d="M0 0zM170 515h-105l-95 130h135zM185 0h-135v460h135v-460z" />
    <glyph glyph-name="iacute" unicode="&#xed;" horiz-adv-x="235" 
d="M50 0zM130 645h135l-95 -130h-105zM185 0h-135v460h135v-460z" />
    <glyph glyph-name="icircumflex" unicode="&#xee;" horiz-adv-x="235" 
d="M0 0zM185 0h-135v460h135v-460zM70 520h-115l100 130h120l100 -130h-115l-45 60z" />
    <glyph glyph-name="idieresis" unicode="&#xef;" horiz-adv-x="235" 
d="M0 0zM95 575q0 -30 -20 -50t-50 -20t-50 20t-20 50t20 50t50 20t50 -20t20 -50zM280 575q0 -30 -20 -50t-50 -20t-50 20t-20 50t20 50t50 20t50 -20t20 -50zM185 0h-135v460h135v-460z" />
    <glyph glyph-name="eth" unicode="&#xf0;" horiz-adv-x="565" 
d="M175 540l40 25q-11 6 -23 11q-11 5 -24 10t-28 9l35 100q32 -8 58 -17.5t44 -17.5q21 -10 38 -20l80 55l50 -70l-55 -40q35 -34 62 -81q23 -40 43 -98.5t20 -135.5q0 -64 -18.5 -115t-51.5 -86.5t-78 -54.5t-97 -19q-53 0 -97 17.5t-75.5 48t-49.5 71.5t-18 88t17.5 88
t47.5 71.5t70 48t85 17.5q32 0 55 -7.5t37 -15.5q17 -10 28 -22q-10 28 -23 50t-26 36q-15 17 -31 29l-65 -45zM165 220q0 -21 8 -39t22 -31.5t33 -21.5t42 -8q22 0 41.5 8t33.5 21.5t22 31.5t8 39t-8 39t-22 31.5t-33.5 21.5t-41.5 8q-23 0 -42 -8t-33 -21.5t-22 -31.5
t-8 -39z" />
    <glyph glyph-name="ntilde" unicode="&#xf1;" horiz-adv-x="535" 
d="M50 0zM305 465q41 0 75 -13.5t58.5 -39t38 -61.5t13.5 -81v-270h-135v245q0 45 -23.5 70t-61.5 25t-61.5 -25t-23.5 -70v-245h-135v460h100l20 -45q16 14 37 25q18 9 43 17t55 8zM115 525q0 64 26 94.5t64 30.5q22 0 38 -7t28 -15.5t22.5 -15.5t21.5 -7q15 0 25 11t10 34
l75 -10q0 -64 -26 -94.5t-64 -30.5q-23 0 -38.5 7t-27.5 15.5t-22.5 15.5t-21.5 7q-14 0 -24.5 -11t-10.5 -34z" />
    <glyph glyph-name="ograve" unicode="&#xf2;" 
d="M30 0zM30 230q0 51 18.5 94.5t50.5 76t74.5 51t91.5 18.5t91.5 -18.5t74.5 -51t50.5 -76t18.5 -94.5t-18.5 -94.5t-50.5 -76t-74.5 -51t-91.5 -18.5t-91.5 18.5t-74.5 51t-50.5 76t-18.5 94.5zM365 230q0 53 -29 84t-71 31t-71 -31t-29 -84t29 -84t71 -31t71 31t29 84z
M325 515h-105l-95 130h135z" />
    <glyph glyph-name="oacute" unicode="&#xf3;" 
d="M30 0zM30 230q0 51 18.5 94.5t50.5 76t74.5 51t91.5 18.5t91.5 -18.5t74.5 -51t50.5 -76t18.5 -94.5t-18.5 -94.5t-50.5 -76t-74.5 -51t-91.5 -18.5t-91.5 18.5t-74.5 51t-50.5 76t-18.5 94.5zM365 230q0 53 -29 84t-71 31t-71 -31t-29 -84t29 -84t71 -31t71 31t29 84z
M280 645h135l-95 -130h-105z" />
    <glyph glyph-name="ocircumflex" unicode="&#xf4;" 
d="M30 0zM30 230q0 51 18.5 94.5t50.5 76t74.5 51t91.5 18.5t91.5 -18.5t74.5 -51t50.5 -76t18.5 -94.5t-18.5 -94.5t-50.5 -76t-74.5 -51t-91.5 -18.5t-91.5 18.5t-74.5 51t-50.5 76t-18.5 94.5zM365 230q0 53 -29 84t-71 31t-71 -31t-29 -84t29 -84t71 -31t71 31t29 84z
M220 520h-115l100 130h120l100 -130h-115l-45 60z" />
    <glyph glyph-name="otilde" unicode="&#xf5;" 
d="M30 0zM30 230q0 51 18.5 94.5t50.5 76t74.5 51t91.5 18.5t91.5 -18.5t74.5 -51t50.5 -76t18.5 -94.5t-18.5 -94.5t-50.5 -76t-74.5 -51t-91.5 -18.5t-91.5 18.5t-74.5 51t-50.5 76t-18.5 94.5zM365 230q0 53 -29 84t-71 31t-71 -31t-29 -84t29 -84t71 -31t71 31t29 84z
M110 520q0 64 26 94.5t64 30.5q22 0 38 -7t28 -15.5t22.5 -15.5t21.5 -7q15 0 25 11t10 34l75 -10q0 -64 -26 -94.5t-64 -30.5q-23 0 -38.5 7t-27.5 15.5t-22.5 15.5t-21.5 7q-14 0 -24.5 -11t-10.5 -34z" />
    <glyph glyph-name="odieresis" unicode="&#xf6;" 
d="M30 0zM30 230q0 51 18.5 94.5t50.5 76t74.5 51t91.5 18.5t91.5 -18.5t74.5 -51t50.5 -76t18.5 -94.5t-18.5 -94.5t-50.5 -76t-74.5 -51t-91.5 -18.5t-91.5 18.5t-74.5 51t-50.5 76t-18.5 94.5zM365 230q0 53 -29 84t-71 31t-71 -31t-29 -84t29 -84t71 -31t71 31t29 84z
M245 575q0 -30 -20 -50t-50 -20t-50 20t-20 50t20 50t50 20t50 -20t20 -50zM430 575q0 -30 -20 -50t-50 -20t-50 20t-20 50t20 50t50 20t50 -20t20 -50z" />
    <glyph glyph-name="divide" unicode="&#xf7;" horiz-adv-x="470" 
d="M435 195h-400v120h400v-120zM305 425q0 -30 -20 -50t-50 -20t-50 20t-20 50t20 50t50 20t50 -20t20 -50zM305 85q0 -30 -20 -50t-50 -20t-50 20t-20 50t20 50t50 20t50 -20t20 -50z" />
    <glyph glyph-name="oslash" unicode="&#xf8;" horiz-adv-x="540" 
d="M65 110q-9 16 -15 34q-6 16 -10.5 38t-4.5 48q0 51 18.5 94.5t50.5 76t74.5 51t91.5 18.5q32 0 57 -7.5t42 -15.5q20 -10 36 -22l40 35l70 -75l-40 -35q8 -17 15 -36q5 -17 10 -38.5t5 -45.5q0 -51 -18.5 -94.5t-50.5 -76t-74.5 -51t-91.5 -18.5q-32 0 -57 7t-42 15
q-20 10 -36 23l-40 -35l-70 75zM170 230q0 -6 0.5 -11t1.5 -10t3 -9l140 135q-5 2 -11 5q-6 2 -14.5 3.5t-19.5 1.5q-42 0 -71 -31t-29 -84zM370 230q0 5 -1 10.5t-2 10.5t-2 9l-140 -135q4 -3 11 -5q12 -5 34 -5q42 0 71 31t29 84z" />
    <glyph glyph-name="ugrave" unicode="&#xf9;" horiz-adv-x="535" 
d="M45 0zM230 -5q-41 0 -75 13.5t-58.5 39t-38 61.5t-13.5 81v270h135v-245q0 -45 23.5 -70t61.5 -25t61.5 25t23.5 70v245h135v-460h-100l-20 45q-17 -14 -38 -25q-18 -10 -42.5 -17.5t-54.5 -7.5zM330 520h-105l-95 130h135z" />
    <glyph glyph-name="uacute" unicode="&#xfa;" horiz-adv-x="535" 
d="M45 0zM230 -5q-41 0 -75 13.5t-58.5 39t-38 61.5t-13.5 81v270h135v-245q0 -45 23.5 -70t61.5 -25t61.5 25t23.5 70v245h135v-460h-100l-20 45q-17 -14 -38 -25q-18 -10 -42.5 -17.5t-54.5 -7.5zM275 650h135l-95 -130h-105z" />
    <glyph glyph-name="ucircumflex" unicode="&#xfb;" horiz-adv-x="535" 
d="M45 0zM230 -5q-41 0 -75 13.5t-58.5 39t-38 61.5t-13.5 81v270h135v-245q0 -45 23.5 -70t61.5 -25t61.5 25t23.5 70v245h135v-460h-100l-20 45q-17 -14 -38 -25q-18 -10 -42.5 -17.5t-54.5 -7.5zM220 520h-115l100 130h120l100 -130h-115l-45 60z" />
    <glyph glyph-name="udieresis" unicode="&#xfc;" horiz-adv-x="535" 
d="M45 0zM230 -5q-41 0 -75 13.5t-58.5 39t-38 61.5t-13.5 81v270h135v-245q0 -45 23.5 -70t61.5 -25t61.5 25t23.5 70v245h135v-460h-100l-20 45q-17 -14 -38 -25q-18 -10 -42.5 -17.5t-54.5 -7.5zM250 575q0 -30 -20 -50t-50 -20t-50 20t-20 50t20 50t50 20t50 -20t20 -50
zM435 575q0 -30 -20 -50t-50 -20t-50 20t-20 50t20 50t50 20t50 -20t20 -50z" />
    <glyph glyph-name="yacute" unicode="&#xfd;" horiz-adv-x="490" 
d="M0 0zM0 460h145l100 -285l100 285h145l-185 -460q-35 -86 -75.5 -125.5t-104.5 -39.5q-8 0 -15.5 0.5t-14.5 1.5q-8 1 -15 3v115q42 0 63 17.5t32 47.5zM260 650h135l-95 -130h-105z" />
    <glyph glyph-name="thorn" unicode="&#xfe;" horiz-adv-x="545" 
d="M185 425q13 11 31 20q15 8 36.5 14t47.5 6q43 0 82 -17.5t68.5 -49t47 -74.5t17.5 -94t-17.5 -94t-47 -74.5t-68.5 -49t-82 -17.5q-26 0 -47.5 6t-36.5 14q-18 9 -31 20v-195h-135v790h135v-205zM380 230q0 49 -29 79.5t-71 30.5t-71 -30.5t-29 -79.5t29 -79.5t71 -30.5
t71 30.5t29 79.5z" />
    <glyph glyph-name="ydieresis" unicode="&#xff;" horiz-adv-x="490" 
d="M0 0zM0 460h145l100 -285l100 285h145l-185 -460q-35 -86 -75.5 -125.5t-104.5 -39.5q-8 0 -15.5 0.5t-14.5 1.5q-8 1 -15 3v115q42 0 63 17.5t32 47.5zM230 575q0 -30 -20 -50t-50 -20t-50 20t-20 50t20 50t50 20t50 -20t20 -50zM415 575q0 -30 -20 -50t-50 -20t-50 20
t-20 50t20 50t50 20t50 -20t20 -50z" />
    <glyph glyph-name="Amacron" unicode="&#x100;" horiz-adv-x="590" 
d="M0 0zM365 245l-70 210l-70 -210h140zM185 120l-40 -120h-150l225 630h150l225 -630h-150l-40 120h-220zM163 802h265v-105h-265v105z" />
    <glyph glyph-name="amacron" unicode="&#x101;" horiz-adv-x="485" 
d="M30 0zM250 470q41 0 76 -14t60.5 -39.5t39.5 -60.5t14 -76v-280h-100l-20 45q-17 -14 -38 -25q-18 -10 -42.5 -17.5t-54.5 -7.5q-75 0 -115 36.5t-40 93.5q0 34 13.5 62.5t45.5 49t84.5 32t131.5 11.5q0 34 -17 52t-43 18q-19 0 -30.5 -7.5t-18.5 -15.5q-8 -10 -11 -22
l-135 10q6 34 21 62.5t39.5 49t59.5 32t80 11.5zM220 95q38 0 61.5 23.5t23.5 61.5v20q-43 0 -70.5 -4.5t-43 -12.5t-21 -19t-5.5 -24q0 -19 14.5 -32t40.5 -13zM120 625h265v-105h-265v105z" />
    <glyph glyph-name="Abreve" unicode="&#x102;" horiz-adv-x="590" 
d="M0 0zM365 245l-70 210l-70 -210h140zM185 120l-40 -120h-150l225 630h150l225 -630h-150l-40 120h-220zM295 687q-30 0 -55 10t-44 27t-30.5 41t-15.5 52h95q4 -23 17.5 -36.5t32.5 -13.5t32.5 13.5t17.5 36.5h95q-8 -56 -46.5 -93t-98.5 -37z" />
    <glyph glyph-name="abreve" unicode="&#x103;" horiz-adv-x="485" 
d="M30 0zM250 470q41 0 76 -14t60.5 -39.5t39.5 -60.5t14 -76v-280h-100l-20 45q-17 -14 -38 -25q-18 -10 -42.5 -17.5t-54.5 -7.5q-75 0 -115 36.5t-40 93.5q0 34 13.5 62.5t45.5 49t84.5 32t131.5 11.5q0 34 -17 52t-43 18q-19 0 -30.5 -7.5t-18.5 -15.5q-8 -10 -11 -22
l-135 10q6 34 21 62.5t39.5 49t59.5 32t80 11.5zM220 95q38 0 61.5 23.5t23.5 61.5v20q-43 0 -70.5 -4.5t-43 -12.5t-21 -19t-5.5 -24q0 -19 14.5 -32t40.5 -13zM255 510q-30 0 -55 10t-44 27t-30.5 41t-15.5 52h95q4 -23 17.5 -36.5t32.5 -13.5t32.5 13.5t17.5 36.5h95
q-8 -56 -46.5 -93t-98.5 -37z" />
    <glyph glyph-name="Aogonek" unicode="&#x104;" horiz-adv-x="590" 
d="M405 120h-220l-40 -120h-150l225 630h150l225 -630h-75q-9 -13 -15 -25q-6 -11 -10.5 -24t-4.5 -26q0 -19 13 -32t32 -13q9 0 16.5 0.5t12.5 1.5q6 1 11 3v-65q-8 -3 -18 -5q-18 -5 -47 -5q-53 0 -81.5 26t-28.5 64q0 20 7 38.5t15 32.5q10 16 23 29zM365 245l-70 210
l-70 -210h140z" />
    <glyph glyph-name="aogonek" unicode="&#x105;" horiz-adv-x="485" 
d="M320 45q-17 -14 -38 -25q-18 -10 -42.5 -17.5t-54.5 -7.5q-75 0 -115 36.5t-40 93.5q0 34 13.5 62.5t45.5 49t84.5 32t131.5 11.5q0 34 -17 52t-43 18q-19 0 -30.5 -7.5t-18.5 -15.5q-8 -10 -11 -22l-135 10q6 34 21 62.5t39.5 49t59.5 32t80 11.5q41 0 76 -14
t60.5 -39.5t39.5 -60.5t14 -76v-280h-25q-9 -13 -15 -25q-6 -11 -10.5 -24t-4.5 -26q0 -19 13 -32t32 -13q9 0 16.5 0.5t12.5 1.5q6 1 11 3v-65q-8 -3 -18 -5q-18 -5 -47 -5q-53 0 -81.5 26t-28.5 64q0 20 7 38.5t15 32.5q10 16 23 29zM220 95q38 0 61.5 23.5t23.5 61.5v20
q-43 0 -70.5 -4.5t-43 -12.5t-21 -19t-5.5 -24q0 -19 14.5 -32t40.5 -13z" />
    <glyph glyph-name="Cacute" unicode="&#x106;" horiz-adv-x="650" 
d="M30 0zM340 135q60 0 94.5 28.5t45.5 66.5l150 -10q-11 -45 -36 -86t-62 -71.5t-85.5 -49t-106.5 -18.5q-64 0 -120.5 24.5t-98.5 68t-66.5 101.5t-24.5 126q0 67 24.5 125.5t66.5 102t98.5 68t120.5 24.5q56 0 103.5 -18.5t84 -49t61.5 -71.5t36 -86l-150 -10
q-6 19 -17 36t-28 30t-39.5 21t-50.5 8q-34 0 -64 -13.5t-52.5 -37.5t-35.5 -57t-13 -72t13 -72t35.5 -57t52.5 -37.5t64 -13.5zM355 830h135l-95 -130h-105z" />
    <glyph glyph-name="cacute" unicode="&#x107;" horiz-adv-x="510" 
d="M30 0zM265 470q34 0 62 -7.5t50 -20.5t38.5 -29t28.5 -33q28 -40 41 -90l-135 -10q-7 18 -18 32q-10 12 -26.5 22.5t-40.5 10.5q-42 0 -71 -31t-29 -84t29 -84t71 -31q24 0 40.5 10t26.5 22q11 14 18 33l135 -10q-13 -50 -41 -90q-12 -17 -28.5 -33t-38.5 -29t-50 -20.5
t-62 -7.5q-49 0 -91.5 18.5t-74.5 51t-50.5 76t-18.5 94.5t18.5 94.5t50.5 76t74.5 51t91.5 18.5zM275 650h135l-95 -130h-105z" />
    <glyph glyph-name="Ccircumflex" unicode="&#x108;" horiz-adv-x="650" 
d="M30 0zM340 135q60 0 94.5 28.5t45.5 66.5l150 -10q-11 -45 -36 -86t-62 -71.5t-85.5 -49t-106.5 -18.5q-64 0 -120.5 24.5t-98.5 68t-66.5 101.5t-24.5 126q0 67 24.5 125.5t66.5 102t98.5 68t120.5 24.5q56 0 103.5 -18.5t84 -49t61.5 -71.5t36 -86l-150 -10
q-6 19 -17 36t-28 30t-39.5 21t-50.5 8q-34 0 -64 -13.5t-52.5 -37.5t-35.5 -57t-13 -72t13 -72t35.5 -57t52.5 -37.5t64 -13.5zM305 700h-115l100 130h120l100 -130h-115l-45 60z" />
    <glyph glyph-name="ccircumflex" unicode="&#x109;" horiz-adv-x="510" 
d="M30 0zM265 470q34 0 62 -7.5t50 -20.5t38.5 -29t28.5 -33q28 -40 41 -90l-135 -10q-7 18 -18 32q-10 12 -26.5 22.5t-40.5 10.5q-42 0 -71 -31t-29 -84t29 -84t71 -31q24 0 40.5 10t26.5 22q11 14 18 33l135 -10q-13 -50 -41 -90q-12 -17 -28.5 -33t-38.5 -29t-50 -20.5
t-62 -7.5q-49 0 -91.5 18.5t-74.5 51t-50.5 76t-18.5 94.5t18.5 94.5t50.5 76t74.5 51t91.5 18.5zM220 520h-115l100 130h120l100 -130h-115l-45 60z" />
    <glyph glyph-name="Ccaron" unicode="&#x10c;" horiz-adv-x="650" 
d="M30 0zM340 135q60 0 94.5 28.5t45.5 66.5l150 -10q-11 -45 -36 -86t-62 -71.5t-85.5 -49t-106.5 -18.5q-64 0 -120.5 24.5t-98.5 68t-66.5 101.5t-24.5 126q0 67 24.5 125.5t66.5 102t98.5 68t120.5 24.5q56 0 103.5 -18.5t84 -49t61.5 -71.5t36 -86l-150 -10
q-6 19 -17 36t-28 30t-39.5 21t-50.5 8q-34 0 -64 -13.5t-52.5 -37.5t-35.5 -57t-13 -72t13 -72t35.5 -57t52.5 -37.5t64 -13.5zM345 770l45 60h115l-100 -130h-120l-100 130h115z" />
    <glyph glyph-name="ccaron" unicode="&#x10d;" horiz-adv-x="510" 
d="M30 0zM265 470q34 0 62 -7.5t50 -20.5t38.5 -29t28.5 -33q28 -40 41 -90l-135 -10q-7 18 -18 32q-10 12 -26.5 22.5t-40.5 10.5q-42 0 -71 -31t-29 -84t29 -84t71 -31q24 0 40.5 10t26.5 22q11 14 18 33l135 -10q-13 -50 -41 -90q-12 -17 -28.5 -33t-38.5 -29t-50 -20.5
t-62 -7.5q-49 0 -91.5 18.5t-74.5 51t-50.5 76t-18.5 94.5t18.5 94.5t50.5 76t74.5 51t91.5 18.5zM270 590l45 60h115l-100 -130h-120l-100 130h115z" />
    <glyph glyph-name="Dcaron" unicode="&#x10e;" horiz-adv-x="620" 
d="M60 0zM275 140q36 0 67 13.5t54 36.5t36 55t13 70q0 37 -13 69.5t-36 55.5t-54 36.5t-67 13.5h-70v-350h70zM60 630h215q66 0 123 -24.5t100 -67.5t67.5 -100t24.5 -123t-24.5 -123t-67.5 -100t-100 -67.5t-123 -24.5h-215v630zM304 770l45 60h115l-100 -130h-120
l-100 130h115z" />
    <glyph glyph-name="dcaron" unicode="&#x10f;" horiz-adv-x="660" 
d="M580 630h125l-65 -130h-95zM245 -5q-43 0 -82 17.5t-68.5 49t-47 74.5t-17.5 94t17.5 94t47 74.5t68.5 49t82 17.5q26 0 47.5 -6t36.5 -14q18 -9 31 -20v205h135v-630h-100l-20 45q-16 -14 -35 -25q-17 -10 -41 -17.5t-54 -7.5zM165 230q0 -49 29 -79.5t71 -30.5t71 30.5
t29 79.5t-29 79.5t-71 30.5t-71 -30.5t-29 -79.5z" />
    <glyph glyph-name="Dcroat" unicode="&#x110;" horiz-adv-x="650" 
d="M20 370h70v260h215q66 0 123 -24.5t100 -67.5t67.5 -100t24.5 -123t-24.5 -123t-67.5 -100t-100 -67.5t-123 -24.5h-215v250h-70v120zM305 140q36 0 67 13.5t54 36.5t36 55t13 70q0 37 -13 69.5t-36 55.5t-54 36.5t-67 13.5h-70v-120h100v-120h-100v-110h70z" />
    <glyph glyph-name="dcroat" unicode="&#x111;" horiz-adv-x="560" 
d="M550 460h-65v-460h-100l-20 45q-16 -14 -35 -25q-17 -10 -41 -17.5t-54 -7.5q-41 0 -78.5 16.5t-65.5 46t-44.5 68.5t-16.5 84t16.5 84t44.5 68.5t65.5 46t78.5 16.5q28 0 50 -6t36 -14q17 -9 29 -20v75h-115v110h115v60h135v-60h65v-110zM355 210q0 38 -26.5 64
t-68.5 26t-68.5 -26t-26.5 -64t26.5 -64t68.5 -26t68.5 26t26.5 64z" />
    <glyph glyph-name="Emacron" unicode="&#x112;" horiz-adv-x="560" 
d="M60 0zM60 630h450v-140h-305v-100h280v-140h-280v-110h315v-140h-460v630zM160 805h265v-105h-265v105z" />
    <glyph glyph-name="emacron" unicode="&#x113;" horiz-adv-x="515" 
d="M30 0zM475 135q-9 -28 -27 -54t-45 -46.5t-62.5 -32.5t-80.5 -12q-47 0 -88.5 18.5t-73 51t-50 76t-18.5 94.5t18.5 94.5t50.5 76t74.5 51t91.5 18.5q47 0 88 -17t71.5 -48.5t48 -76t17.5 -98.5q0 -8 -1 -15.5t-2 -14.5q-1 -8 -2 -15h-315q8 -26 32.5 -48t62.5 -22
q19 0 32.5 4.5t21.5 10.5q10 6 16 15zM265 345q-38 0 -62.5 -22.5t-32.5 -52.5h190q-8 30 -32.5 52.5t-62.5 22.5zM135 625h265v-105h-265v105z" />
    <glyph glyph-name="Edotaccent" unicode="&#x116;" horiz-adv-x="560" 
d="M60 0zM60 630h450v-140h-305v-100h280v-140h-280v-110h315v-140h-460v630zM365 760q0 -30 -22.5 -52.5t-52.5 -22.5t-52.5 22.5t-22.5 52.5t22.5 52.5t52.5 22.5t52.5 -22.5t22.5 -52.5z" />
    <glyph glyph-name="edotaccent" unicode="&#x117;" horiz-adv-x="515" 
d="M30 0zM475 135q-9 -28 -27 -54t-45 -46.5t-62.5 -32.5t-80.5 -12q-47 0 -88.5 18.5t-73 51t-50 76t-18.5 94.5t18.5 94.5t50.5 76t74.5 51t91.5 18.5q47 0 88 -17t71.5 -48.5t48 -76t17.5 -98.5q0 -8 -1 -15.5t-2 -14.5q-1 -8 -2 -15h-315q8 -26 32.5 -48t62.5 -22
q19 0 32.5 4.5t21.5 10.5q10 6 16 15zM265 345q-38 0 -62.5 -22.5t-32.5 -52.5h190q-8 30 -32.5 52.5t-62.5 22.5zM345 585q0 -30 -22.5 -52.5t-52.5 -22.5t-52.5 22.5t-22.5 52.5t22.5 52.5t52.5 22.5t52.5 -22.5t22.5 -52.5z" />
    <glyph glyph-name="Eogonek" unicode="&#x118;" horiz-adv-x="560" 
d="M60 630h450v-140h-305v-100h280v-140h-280v-110h315v-140q-9 -13 -15 -25q-6 -11 -10.5 -24t-4.5 -26q0 -19 13 -32t32 -13q9 0 16.5 0.5t12.5 1.5q6 1 11 3v-65q-8 -3 -18 -5q-18 -5 -47 -5q-53 0 -81.5 26t-28.5 64q0 20 7 38.5t15 32.5q10 16 23 29h-385v630z" />
    <glyph glyph-name="eogonek" unicode="&#x119;" horiz-adv-x="515" 
d="M475 135q-8 -24 -22.5 -47t-35.5 -42t-49 -32.5t-63 -19.5q-6 -10 -15.5 -29.5t-9.5 -39.5q0 -19 13 -32t32 -13q9 0 16.5 0.5t12.5 1.5q6 1 11 3v-65q-8 -3 -18 -5q-18 -5 -47 -5q-53 0 -81.5 26t-28.5 64q0 32 14 56.5t24 35.5q-42 6 -78 26.5t-62.5 52t-42 72
t-15.5 87.5q0 51 18.5 94.5t50.5 76t74.5 51t91.5 18.5q47 0 88 -17t71.5 -48.5t48 -76t17.5 -98.5q0 -8 -1 -15.5t-2 -14.5q-1 -8 -2 -15h-315q8 -26 32.5 -48t62.5 -22q19 0 32.5 4.5t21.5 10.5q10 6 16 15zM265 345q-38 0 -62.5 -22.5t-32.5 -52.5h190q-8 30 -32.5 52.5
t-62.5 22.5z" />
    <glyph glyph-name="Ecaron" unicode="&#x11a;" horiz-adv-x="560" 
d="M60 0zM60 630h450v-140h-305v-100h280v-140h-280v-110h315v-140h-460v630zM290 770l45 60h115l-100 -130h-120l-100 130h115z" />
    <glyph glyph-name="ecaron" unicode="&#x11b;" horiz-adv-x="515" 
d="M30 0zM475 135q-9 -28 -27 -54t-45 -46.5t-62.5 -32.5t-80.5 -12q-47 0 -88.5 18.5t-73 51t-50 76t-18.5 94.5t18.5 94.5t50.5 76t74.5 51t91.5 18.5q47 0 88 -17t71.5 -48.5t48 -76t17.5 -98.5q0 -8 -1 -15.5t-2 -14.5q-1 -8 -2 -15h-315q8 -26 32.5 -48t62.5 -22
q19 0 32.5 4.5t21.5 10.5q10 6 16 15zM265 345q-38 0 -62.5 -22.5t-32.5 -52.5h190q-8 30 -32.5 52.5t-62.5 22.5zM260 590l45 60h115l-100 -130h-120l-100 130h115z" />
    <glyph glyph-name="Gbreve" unicode="&#x11e;" horiz-adv-x="695" 
d="M30 0zM340 340h305v-340h-100l-25 60q-22 -19 -49 -33q-23 -12 -56 -22t-75 -10q-64 0 -120.5 24.5t-98.5 68t-66.5 101.5t-24.5 126q0 67 24.5 125.5t66.5 102t98.5 68t120.5 24.5q56 0 103.5 -18t84 -48.5t61.5 -70.5t36 -83l-150 -10q-6 17 -17 33t-28 29t-39.5 20.5
t-50.5 7.5q-34 0 -64 -13.5t-52.5 -37.5t-35.5 -57t-13 -72t13 -72t35.5 -57t52.5 -37.5t64 -13.5q30 0 53.5 7.5t41 20t28.5 27.5t17 30h-140v120zM350 690q-30 0 -55 10t-44 27t-30.5 41t-15.5 52h95q4 -23 17.5 -36.5t32.5 -13.5t32.5 13.5t17.5 36.5h95
q-8 -56 -46.5 -93t-98.5 -37z" />
    <glyph glyph-name="gbreve" unicode="&#x11f;" horiz-adv-x="540" 
d="M30 0zM240 465q30 0 54 -8t41 -17q19 -11 35 -25l20 45h100v-420q0 -45 -16.5 -83.5t-46.5 -66.5t-72.5 -44t-94.5 -16q-64 0 -105.5 24t-65.5 53q-29 34 -44 78l135 10q6 -13 17 -23q9 -8 24.5 -15t38.5 -7q42 0 68.5 26t26.5 64v25q-11 -11 -28 -20q-14 -8 -35.5 -14
t-51.5 -6q-43 0 -81.5 17t-67 46.5t-45 69.5t-16.5 87t16.5 87t45 69.5t67 46.5t81.5 17zM165 245q0 -42 26.5 -68.5t68.5 -26.5t68.5 26.5t26.5 68.5t-26.5 68.5t-68.5 26.5t-68.5 -26.5t-26.5 -68.5zM265 510q-30 0 -55 10t-44 27t-30.5 41t-15.5 52h95q4 -23 17.5 -36.5
t32.5 -13.5t32.5 13.5t17.5 36.5h95q-8 -56 -46.5 -93t-98.5 -37z" />
    <glyph glyph-name="Gcommaaccent" unicode="&#x122;" horiz-adv-x="695" 
d="M30 0zM340 340h305v-340h-100l-25 60q-22 -19 -49 -33q-23 -12 -56 -22t-75 -10q-64 0 -120.5 24.5t-98.5 68t-66.5 101.5t-24.5 126q0 67 24.5 125.5t66.5 102t98.5 68t120.5 24.5q56 0 103.5 -18t84 -48.5t61.5 -70.5t36 -83l-150 -10q-6 17 -17 33t-28 29t-39.5 20.5
t-50.5 7.5q-34 0 -64 -13.5t-52.5 -37.5t-35.5 -57t-13 -72t13 -72t35.5 -57t52.5 -37.5t64 -13.5q30 0 53.5 7.5t41 20t28.5 27.5t17 30h-140v120zM340 -55q30 0 50 -20.5t20 -54.5q0 -40 -15.5 -69.5t-34.5 -49.5q-22 -24 -50 -41l-20 30q11 7 21 17q8 8 16.5 20.5
t12.5 27.5q-30 0 -50 20t-20 50t20 50t50 20z" />
    <glyph glyph-name="gcommaaccent" unicode="&#x123;" horiz-adv-x="540" 
d="M271 510q-30 0 -50 20.5t-20 54.5q0 39 15.5 69t34.5 50q22 24 50 41l20 -30q-11 -8 -21 -18q-8 -8 -16.5 -20t-12.5 -27q30 0 50 -20t20 -50t-20 -50t-50 -20zM240 465q30 0 54 -8t41 -17q19 -11 35 -25l20 45h100v-420q0 -45 -16.5 -83.5t-46.5 -66.5t-72.5 -44
t-94.5 -16q-64 0 -105.5 24t-65.5 53q-29 34 -44 78l135 10q6 -13 17 -23q9 -8 24.5 -15t38.5 -7q42 0 68.5 26t26.5 64v25q-11 -11 -28 -20q-14 -8 -35.5 -14t-51.5 -6q-43 0 -81.5 17t-67 46.5t-45 69.5t-16.5 87t16.5 87t45 69.5t67 46.5t81.5 17zM165 245
q0 -42 26.5 -68.5t68.5 -26.5t68.5 26.5t26.5 68.5t-26.5 68.5t-68.5 26.5t-68.5 -26.5t-26.5 -68.5z" />
    <glyph glyph-name="Imacron" unicode="&#x12a;" horiz-adv-x="265" 
d="M0 0zM205 0h-145v630h145v-630zM0 800h265v-105h-265v105z" />
    <glyph glyph-name="imacron" unicode="&#x12b;" horiz-adv-x="235" 
d="M0 0zM-15 625h265v-105h-265v105zM185 0h-135v460h135v-460z" />
    <glyph glyph-name="Iogonek" unicode="&#x12e;" horiz-adv-x="265" 
d="M60 630h145v-630h-70q-9 -13 -15 -25q-6 -11 -10.5 -24t-4.5 -26q0 -19 13 -32t32 -13q9 0 16.5 0.5t12.5 1.5q6 1 11 3v-65q-8 -3 -18 -5q-18 -5 -47 -5q-53 0 -81.5 26t-28.5 64q0 20 7 38.5t15 32.5q10 16 23 29v630z" />
    <glyph glyph-name="iogonek" unicode="&#x12f;" horiz-adv-x="235" 
d="M50 460h135v-460h-60q-9 -13 -15 -25q-6 -11 -10.5 -24t-4.5 -26q0 -19 13 -32t32 -13q9 0 16.5 0.5t12.5 1.5q6 1 11 3v-65q-8 -3 -18 -5q-18 -5 -47 -5q-53 0 -81.5 26t-28.5 64q0 20 7 38.5t15 32.5q10 16 23 29v460zM45 585q0 30 22.5 52.5t52.5 22.5t52.5 -22.5
t22.5 -52.5t-22.5 -52.5t-52.5 -22.5t-52.5 22.5t-22.5 52.5z" />
    <glyph glyph-name="Idotaccent" unicode="&#x130;" horiz-adv-x="265" 
d="M60 0zM205 0h-145v630h145v-630zM210 755q0 -30 -22.5 -52.5t-52.5 -22.5t-52.5 22.5t-22.5 52.5t22.5 52.5t52.5 22.5t52.5 -22.5t22.5 -52.5z" />
    <glyph glyph-name="dotlessi" unicode="&#x131;" horiz-adv-x="235" 
d="M185 0h-135v460h135v-460z" />
    <glyph glyph-name="ij" unicode="&#x133;" horiz-adv-x="490" 
d="M55 460h135v-250q0 -30 17 -47.5t43 -17.5q18 0 32 7q7 4 13 8v300h135v-455q0 -83 -43 -126.5t-122 -43.5q-26 0 -46 5q-11 2 -19 5v120q5 -2 10 -3t11 -1.5t14 -0.5q26 0 43 17.5t17 47.5v15q-6 -6 -17 -10q-9 -4 -23.5 -7t-34.5 -3q-79 0 -122 43.5t-43 126.5v270z
M50 585q0 30 22.5 52.5t52.5 22.5t52.5 -22.5t22.5 -52.5t-22.5 -52.5t-52.5 -22.5t-52.5 22.5t-22.5 52.5zM290 585q0 30 22.5 52.5t52.5 22.5t52.5 -22.5t22.5 -52.5t-22.5 -52.5t-52.5 -22.5t-52.5 22.5t-22.5 52.5z" />
    <glyph glyph-name="Kcommaaccent" unicode="&#x136;" horiz-adv-x="565" 
d="M60 0zM410 0l-205 280v-280h-145v630h145v-270l190 270h165l-222 -310l237 -320h-165zM300 -55q30 0 50 -20.5t20 -54.5q0 -40 -15.5 -69.5t-34.5 -49.5q-22 -24 -50 -41l-20 30q11 7 21 17q8 8 16.5 20.5t12.5 27.5q-30 0 -50 20t-20 50t20 50t50 20z" />
    <glyph glyph-name="kcommaaccent" unicode="&#x137;" horiz-adv-x="470" 
d="M50 0zM325 0l-140 205v-205h-135v630h135v-355l125 185h155l-155 -220l170 -240h-155zM250 -55q30 0 50 -20.5t20 -54.5q0 -40 -15.5 -69.5t-34.5 -49.5q-22 -24 -50 -41l-20 30q11 7 21 17q8 8 16.5 20.5t12.5 27.5q-30 0 -50 20t-20 50t20 50t50 20z" />
    <glyph glyph-name="Lacute" unicode="&#x139;" horiz-adv-x="500" 
d="M60 0zM60 630h145v-490h285v-140h-430v630zM140 830h135l-95 -130h-105z" />
    <glyph glyph-name="lacute" unicode="&#x13a;" horiz-adv-x="240" 
d="M50 0zM185 0h-135v630h135v-630zM125 830h135l-95 -130h-105z" />
    <glyph glyph-name="Lcommaaccent" unicode="&#x13b;" horiz-adv-x="500" 
d="M60 0zM60 630h145v-490h285v-140h-430v630zM285 -55q30 0 50 -20.5t20 -54.5q0 -40 -15.5 -69.5t-34.5 -49.5q-22 -24 -50 -41l-20 30q11 7 21 17q8 8 16.5 20.5t12.5 27.5q-30 0 -50 20t-20 50t20 50t50 20z" />
    <glyph glyph-name="lcommaaccent" unicode="&#x13c;" horiz-adv-x="240" 
d="M50 0zM185 0h-135v630h135v-630zM120 -55q30 0 50 -20.5t20 -54.5q0 -40 -15.5 -69.5t-34.5 -49.5q-22 -24 -50 -41l-20 30q11 7 21 17q8 8 16.5 20.5t12.5 27.5q-30 0 -50 20t-20 50t20 50t50 20z" />
    <glyph glyph-name="Lcaron" unicode="&#x13d;" horiz-adv-x="500" 
d="M290 630h125l-65 -130h-95zM60 630h145v-490h285v-140h-430v630z" />
    <glyph glyph-name="lcaron" unicode="&#x13e;" horiz-adv-x="350" 
d="M270 630h125l-65 -130h-95zM185 0h-135v630h135v-630z" />
    <glyph glyph-name="Lslash" unicode="&#x141;" horiz-adv-x="520" 
d="M80 165l-70 -45v130l70 45v335h145v-240l125 80v-130l-125 -80v-120h285v-140h-430v165z" />
    <glyph glyph-name="lslash" unicode="&#x142;" horiz-adv-x="315" 
d="M225 435l75 50v-130l-75 -50v-305h-135v210l-75 -50v130l75 50v290h135v-195z" />
    <glyph glyph-name="Nacute" unicode="&#x143;" horiz-adv-x="650" 
d="M60 0zM590 630v-630h-130l-255 370v-370h-145v630h130l255 -370v370h145zM330 830h135l-95 -130h-105z" />
    <glyph glyph-name="nacute" unicode="&#x144;" horiz-adv-x="535" 
d="M50 0zM305 465q41 0 75 -13.5t58.5 -39t38 -61.5t13.5 -81v-270h-135v245q0 45 -23.5 70t-61.5 25t-61.5 -25t-23.5 -70v-245h-135v460h100l20 -45q16 14 37 25q18 9 43 17t55 8zM280 650h135l-95 -130h-105z" />
    <glyph glyph-name="Ncommaaccent" unicode="&#x145;" horiz-adv-x="650" 
d="M60 0zM590 630v-630h-130l-255 370v-370h-145v630h130l255 -370v370h145zM330 -55q30 0 50 -20.5t20 -54.5q0 -40 -15.5 -69.5t-34.5 -49.5q-22 -24 -50 -41l-20 30q11 7 21 17q8 8 16.5 20.5t12.5 27.5q-30 0 -50 20t-20 50t20 50t50 20z" />
    <glyph glyph-name="ncommaaccent" unicode="&#x146;" horiz-adv-x="535" 
d="M50 0zM305 465q41 0 75 -13.5t58.5 -39t38 -61.5t13.5 -81v-270h-135v245q0 45 -23.5 70t-61.5 25t-61.5 -25t-23.5 -70v-245h-135v460h100l20 -45q16 14 37 25q18 9 43 17t55 8zM270 -55q30 0 50 -20.5t20 -54.5q0 -40 -15.5 -69.5t-34.5 -49.5q-22 -24 -50 -41l-20 30
q11 7 21 17q8 8 16.5 20.5t12.5 27.5q-30 0 -50 20t-20 50t20 50t50 20z" />
    <glyph glyph-name="Ncaron" unicode="&#x147;" horiz-adv-x="650" 
d="M60 0zM590 630v-630h-130l-255 370v-370h-145v630h130l255 -370v370h145zM325 770l45 60h115l-100 -130h-120l-100 130h115z" />
    <glyph glyph-name="ncaron" unicode="&#x148;" horiz-adv-x="535" 
d="M50 0zM305 465q41 0 75 -13.5t58.5 -39t38 -61.5t13.5 -81v-270h-135v245q0 45 -23.5 70t-61.5 25t-61.5 -25t-23.5 -70v-245h-135v460h100l20 -45q16 14 37 25q18 9 43 17t55 8zM280 590l45 60h115l-100 -130h-120l-100 130h115z" />
    <glyph glyph-name="Omacron" unicode="&#x14c;" horiz-adv-x="680" 
d="M30 0zM505 315q0 39 -13 72t-35.5 57t-52.5 37.5t-64 13.5t-64 -13.5t-52.5 -37.5t-35.5 -57t-13 -72t13 -72t35.5 -57t52.5 -37.5t64 -13.5t64 13.5t52.5 37.5t35.5 57t13 72zM650 315q0 -68 -24.5 -126t-66.5 -101.5t-98.5 -68t-120.5 -24.5t-120.5 24.5t-98.5 68
t-66.5 101.5t-24.5 126q0 67 24.5 125.5t66.5 102t98.5 68t120.5 24.5t120.5 -24.5t98.5 -68t66.5 -102t24.5 -125.5zM210 800h265v-105h-265v105z" />
    <glyph glyph-name="omacron" unicode="&#x14d;" 
d="M30 0zM30 230q0 51 18.5 94.5t50.5 76t74.5 51t91.5 18.5t91.5 -18.5t74.5 -51t50.5 -76t18.5 -94.5t-18.5 -94.5t-50.5 -76t-74.5 -51t-91.5 -18.5t-91.5 18.5t-74.5 51t-50.5 76t-18.5 94.5zM365 230q0 53 -29 84t-71 31t-71 -31t-29 -84t29 -84t71 -31t71 31t29 84z
M135 625h265v-105h-265v105z" />
    <glyph glyph-name="Ohungarumlaut" unicode="&#x150;" horiz-adv-x="680" 
d="M30 0zM505 315q0 39 -13 72t-35.5 57t-52.5 37.5t-64 13.5t-64 -13.5t-52.5 -37.5t-35.5 -57t-13 -72t13 -72t35.5 -57t52.5 -37.5t64 -13.5t64 13.5t52.5 37.5t35.5 57t13 72zM650 315q0 -68 -24.5 -126t-66.5 -101.5t-98.5 -68t-120.5 -24.5t-120.5 24.5t-98.5 68
t-66.5 101.5t-24.5 126q0 67 24.5 125.5t66.5 102t98.5 68t120.5 24.5t120.5 -24.5t98.5 -68t66.5 -102t24.5 -125.5zM270 830h135l-100 -130h-105zM445 830h135l-100 -130h-105z" />
    <glyph glyph-name="ohungarumlaut" unicode="&#x151;" 
d="M30 0zM30 230q0 51 18.5 94.5t50.5 76t74.5 51t91.5 18.5t91.5 -18.5t74.5 -51t50.5 -76t18.5 -94.5t-18.5 -94.5t-50.5 -76t-74.5 -51t-91.5 -18.5t-91.5 18.5t-74.5 51t-50.5 76t-18.5 94.5zM365 230q0 53 -29 84t-71 31t-71 -31t-29 -84t29 -84t71 -31t71 31t29 84z
M195 645h135l-100 -130h-105zM370 645h135l-100 -130h-105z" />
    <glyph glyph-name="OE" unicode="&#x152;" horiz-adv-x="855" 
d="M805 490h-270v-100h245v-140h-245v-110h280v-140h-470q-66 0 -123 24.5t-100 67.5t-67.5 100t-24.5 123t24.5 123t67.5 100t100 67.5t123 24.5h460v-140zM390 140v350h-45q-36 0 -67 -13.5t-54 -36.5t-36 -55.5t-13 -69.5q0 -38 13 -70t36 -55t54 -36.5t67 -13.5h45z" />
    <glyph glyph-name="oe" unicode="&#x153;" horiz-adv-x="830" 
d="M790 135q-9 -28 -27 -54t-44.5 -46.5t-61 -32.5t-77.5 -12q-40 0 -68.5 11.5t-48.5 25.5q-23 17 -38 38q-18 -21 -44 -38q-22 -14 -53 -25.5t-73 -11.5q-47 0 -88 18t-71.5 49.5t-48 75.5t-17.5 97q0 52 17.5 96.5t48 76t71.5 49.5t88 18q43 0 75 -12t53 -26
q25 -17 42 -37q17 20 40 37q20 14 48.5 26t66.5 12q47 0 88 -18t71.5 -49.5t48 -76t17.5 -96.5q0 -10 -1 -18t-2 -14q-1 -7 -2 -13h-315q7 -20 19 -35q11 -14 29 -24.5t47 -10.5q19 0 32.5 4.5t21.5 10.5q10 6 16 15zM350 230q0 53 -28.5 84t-66.5 31t-66.5 -31t-28.5 -84
t28.5 -84t66.5 -31t66.5 31t28.5 84zM575 350q-38 0 -62 -22.5t-28 -52.5h180q-4 30 -28 52.5t-62 22.5z" />
    <glyph glyph-name="Racute" unicode="&#x154;" horiz-adv-x="580" 
d="M60 0zM315 630q49 0 89.5 -16t69.5 -43t45 -63.5t16 -77.5q0 -53 -18.5 -89t-41 -58.5t-41.5 -32.5l-19 -10l140 -240h-160l-115 210h-75v-210h-145v630h255zM315 350q38 0 59 20t21 50t-21 50t-59 20h-110v-140h110zM286 830h135l-95 -130h-105z" />
    <glyph glyph-name="racute" unicode="&#x155;" horiz-adv-x="340" 
d="M50 0zM280 465q9 0 16.5 -1t12.5 -2q6 -1 11 -2v-140q-6 2 -14 5q-7 2 -16 3.5t-20 1.5q-38 0 -61.5 -25t-23.5 -70v-235h-135v460h100l20 -50q12 15 29 27q14 11 34.5 19.5t46.5 8.5zM200 645h135l-95 -130h-105z" />
    <glyph glyph-name="Rcommaaccent" unicode="&#x156;" horiz-adv-x="580" 
d="M60 0zM315 630q49 0 89.5 -16t69.5 -43t45 -63.5t16 -77.5q0 -53 -18.5 -89t-41 -58.5t-41.5 -32.5l-19 -10l140 -240h-160l-115 210h-75v-210h-145v630h255zM315 350q38 0 59 20t21 50t-21 50t-59 20h-110v-140h110zM295 -55q30 0 50 -20.5t20 -54.5q0 -40 -15.5 -69.5
t-34.5 -49.5q-22 -24 -50 -41l-20 30q11 7 21 17q8 8 16.5 20.5t12.5 27.5q-30 0 -50 20t-20 50t20 50t50 20z" />
    <glyph glyph-name="rcommaaccent" unicode="&#x157;" horiz-adv-x="340" 
d="M50 0zM280 465q9 0 16.5 -1t12.5 -2q6 -1 11 -2v-140q-6 2 -14 5q-7 2 -16 3.5t-20 1.5q-38 0 -61.5 -25t-23.5 -70v-235h-135v460h100l20 -50q12 15 29 27q14 11 34.5 19.5t46.5 8.5zM120 -55q30 0 50 -20.5t20 -54.5q0 -40 -15.5 -69.5t-34.5 -49.5q-22 -24 -50 -41
l-20 30q11 7 21 17q8 8 16.5 20.5t12.5 27.5q-30 0 -50 20t-20 50t20 50t50 20z" />
    <glyph glyph-name="Rcaron" unicode="&#x158;" horiz-adv-x="580" 
d="M60 0zM315 630q49 0 89.5 -16t69.5 -43t45 -63.5t16 -77.5q0 -53 -18.5 -89t-41 -58.5t-41.5 -32.5l-19 -10l140 -240h-160l-115 210h-75v-210h-145v630h255zM315 350q38 0 59 20t21 50t-21 50t-59 20h-110v-140h110zM285 770l45 60h115l-100 -130h-120l-100 130h115z
" />
    <glyph glyph-name="rcaron" unicode="&#x159;" horiz-adv-x="340" 
d="M30 0zM280 465q9 0 16.5 -1t12.5 -2q6 -1 11 -2v-140q-6 2 -14 5q-7 2 -16 3.5t-20 1.5q-38 0 -61.5 -25t-23.5 -70v-235h-135v460h100l20 -50q12 15 29 27q14 11 34.5 19.5t46.5 8.5zM190 590l45 60h115l-100 -130h-120l-100 130h115z" />
    <glyph glyph-name="Sacute" unicode="&#x15a;" horiz-adv-x="525" 
d="M30 0zM35 455q0 36 15.5 68.5t44.5 57t70.5 39.5t94.5 15q51 0 91.5 -15t69 -42t44 -63.5t15.5 -79.5l-140 -10q0 38 -21 59t-59 21q-34 0 -54.5 -18.5t-20.5 -41.5t23 -35t57.5 -22.5t74.5 -22.5t74.5 -34t57.5 -58t23 -93q0 -38 -15.5 -71.5t-45.5 -58.5t-74 -40
t-100 -15q-54 0 -97 15t-72.5 42.5t-45 65t-15.5 82.5l140 10q0 -85 90 -85q42 0 63.5 19.5t21.5 45.5q0 24 -23 37t-57.5 24t-74.5 23t-74.5 33.5t-57.5 56.5t-23 91zM275 830h135l-95 -130h-105z" />
    <glyph glyph-name="sacute" unicode="&#x15b;" horiz-adv-x="445" 
d="M30 0zM160 150q4 -23 19 -36.5t41 -13.5t40.5 12.5t14.5 27.5q0 12 -17.5 19.5t-43.5 15t-56.5 17.5t-56.5 26.5t-43.5 43.5t-17.5 68q0 28 12 53.5t34.5 44.5t55 30.5t73.5 11.5q90 0 137 -40t58 -100l-130 -10q-4 15 -18 27.5t-37 12.5t-34 -10t-11 -25q0 -13 17.5 -20
t43.5 -14.5t56.5 -17.5t56.5 -26.5t43.5 -43.5t17.5 -68q0 -28 -12.5 -54t-36.5 -46.5t-58.5 -32.5t-77.5 -12q-94 0 -141.5 41t-58.5 109zM230 645h135l-95 -130h-105z" />
    <glyph glyph-name="Scedilla" unicode="&#x15e;" horiz-adv-x="525" 
d="M35 455q0 36 15.5 68.5t44.5 57t70.5 39.5t94.5 15q51 0 91.5 -15t69 -42t44 -63.5t15.5 -79.5l-140 -10q0 38 -21 59t-59 21q-34 0 -54.5 -18.5t-20.5 -41.5t23 -35t57.5 -22.5t74.5 -22.5t74.5 -34t57.5 -58t23 -93q0 -35 -14 -67t-40 -56.5t-65 -40.5t-88 -20l-18 -36
q24 -4 42 -14q16 -8 29.5 -24t13.5 -42q0 -34 -28 -57t-92 -23q-25 0 -43 5q-10 2 -17 5v50q5 -2 12 -3q5 -1 12.5 -1.5t15.5 -0.5q26 0 38 10t12 25q0 11 -11 20.5t-34 9.5q-8 0 -16 -2.5t-9 -2.5l33 82q-47 4 -83.5 20.5t-62 43.5t-39 62t-13.5 77l140 10q0 -85 90 -85
q42 0 63.5 19.5t21.5 45.5q0 24 -23 37t-57.5 24t-74.5 23t-74.5 33.5t-57.5 56.5t-23 91z" />
    <glyph glyph-name="scedilla" unicode="&#x15f;" horiz-adv-x="445" 
d="M160 150q4 -23 19 -36.5t41 -13.5t40.5 12.5t14.5 27.5q0 12 -17.5 19.5t-43.5 15t-56.5 17.5t-56.5 26.5t-43.5 43.5t-17.5 68q0 28 12 53.5t34.5 44.5t55 30.5t73.5 11.5q90 0 137 -40t58 -100l-130 -10q-4 15 -18 27.5t-37 12.5t-34 -10t-11 -25q0 -13 17.5 -20
t43.5 -14.5t56.5 -17.5t56.5 -26.5t43.5 -43.5t17.5 -68q0 -26 -11 -50.5t-31.5 -44t-50.5 -33t-67 -16.5l-15 -31q24 -4 42 -14q16 -8 29.5 -24t13.5 -42q0 -34 -28 -57t-92 -23q-25 0 -43 5q-10 2 -17 5v50q5 -2 12 -3q5 -1 12.5 -1.5t15.5 -0.5q26 0 38 10t12 25
q0 11 -11 20.5t-34 9.5q-8 0 -16 -2.5t-9 -2.5l31 77q-77 8 -116.5 47t-49.5 101z" />
    <glyph glyph-name="Scaron" unicode="&#x160;" horiz-adv-x="525" 
d="M30 0zM35 455q0 36 15.5 68.5t44.5 57t70.5 39.5t94.5 15q51 0 91.5 -15t69 -42t44 -63.5t15.5 -79.5l-140 -10q0 38 -21 59t-59 21q-34 0 -54.5 -18.5t-20.5 -41.5t23 -35t57.5 -22.5t74.5 -22.5t74.5 -34t57.5 -58t23 -93q0 -38 -15.5 -71.5t-45.5 -58.5t-74 -40
t-100 -15q-54 0 -97 15t-72.5 42.5t-45 65t-15.5 82.5l140 10q0 -85 90 -85q42 0 63.5 19.5t21.5 45.5q0 24 -23 37t-57.5 24t-74.5 23t-74.5 33.5t-57.5 56.5t-23 91zM260 770l45 60h115l-100 -130h-120l-100 130h115z" />
    <glyph glyph-name="scaron" unicode="&#x161;" horiz-adv-x="445" 
d="M30 0zM160 150q4 -23 19 -36.5t41 -13.5t40.5 12.5t14.5 27.5q0 12 -17.5 19.5t-43.5 15t-56.5 17.5t-56.5 26.5t-43.5 43.5t-17.5 68q0 28 12 53.5t34.5 44.5t55 30.5t73.5 11.5q90 0 137 -40t58 -100l-130 -10q-4 15 -18 27.5t-37 12.5t-34 -10t-11 -25q0 -13 17.5 -20
t43.5 -14.5t56.5 -17.5t56.5 -26.5t43.5 -43.5t17.5 -68q0 -28 -12.5 -54t-36.5 -46.5t-58.5 -32.5t-77.5 -12q-94 0 -141.5 41t-58.5 109zM225 590l45 60h115l-100 -130h-120l-100 130h115z" />
    <glyph glyph-name="Tcommaaccent" unicode="&#x162;" horiz-adv-x="525" 
d="M10 0zM335 0h-145v490h-180v140h505v-140h-180v-490zM265 -55q30 0 50 -20.5t20 -54.5q0 -40 -15.5 -69.5t-34.5 -49.5q-22 -24 -50 -41l-20 30q11 7 21 17q8 8 16.5 20.5t12.5 27.5q-30 0 -50 20t-20 50t20 50t50 20z" />
    <glyph glyph-name="tcommaaccent" unicode="&#x163;" horiz-adv-x="365" 
d="M20 0zM90 335h-70v115h35q55 0 55 55v65h115v-110h95v-125h-95v-150q0 -30 17 -47.5t43 -17.5q8 0 14 0.5t11 1.5t10 3v-120q-8 -3 -18 -5q-20 -5 -47 -5q-79 0 -122 43.5t-43 126.5v170zM210 -55q30 0 50 -20.5t20 -54.5q0 -40 -15.5 -69.5t-34.5 -49.5q-22 -24 -50 -41
l-20 30q11 7 21 17q8 8 16.5 20.5t12.5 27.5q-30 0 -50 20t-20 50t20 50t50 20z" />
    <glyph glyph-name="Tcaron" unicode="&#x164;" horiz-adv-x="525" 
d="M10 0zM335 0h-145v490h-180v140h505v-140h-180v-490zM260 770l45 60h115l-100 -130h-120l-100 130h115z" />
    <glyph glyph-name="tcaron" unicode="&#x165;" horiz-adv-x="412" 
d="M337 630h125l-65 -130h-95zM90 335h-70v115h35q55 0 55 55v65h115v-110h95v-125h-95v-150q0 -30 17 -47.5t43 -17.5q8 0 14 0.5t11 1.5t10 3v-120q-8 -3 -18 -5q-20 -5 -47 -5q-79 0 -122 43.5t-43 126.5v170z" />
    <glyph glyph-name="Umacron" unicode="&#x16a;" horiz-adv-x="620" 
d="M50 0zM195 630v-375q0 -57 31 -88.5t84 -31.5t84 31.5t31 88.5v375h145v-375q0 -58 -19 -106t-53 -82t-82 -53t-106 -19t-106 19t-82 53t-53 82t-19 106v375h145zM180 800h265v-105h-265v105z" />
    <glyph glyph-name="umacron" unicode="&#x16b;" horiz-adv-x="535" 
d="M45 0zM230 -5q-41 0 -75 13.5t-58.5 39t-38 61.5t-13.5 81v270h135v-245q0 -45 23.5 -70t61.5 -25t61.5 25t23.5 70v245h135v-460h-100l-20 45q-17 -14 -38 -25q-18 -10 -42.5 -17.5t-54.5 -7.5zM135 620h265v-105h-265v105z" />
    <glyph glyph-name="Uring" unicode="&#x16e;" horiz-adv-x="620" 
d="M50 0zM195 630v-375q0 -57 31 -88.5t84 -31.5t84 31.5t31 88.5v375h145v-375q0 -58 -19 -106t-53 -82t-82 -53t-106 -19t-106 19t-82 53t-53 82t-19 106v375h145zM345 770q0 15 -10 25t-25 10t-25 -10t-10 -25t10 -25t25 -10t25 10t10 25zM410 770q0 -42 -27.5 -68.5
t-72.5 -26.5t-72.5 26.5t-27.5 68.5t27.5 68.5t72.5 26.5t72.5 -26.5t27.5 -68.5z" />
    <glyph glyph-name="uring" unicode="&#x16f;" horiz-adv-x="535" 
d="M45 0zM230 -5q-41 0 -75 13.5t-58.5 39t-38 61.5t-13.5 81v270h135v-245q0 -45 23.5 -70t61.5 -25t61.5 25t23.5 70v245h135v-460h-100l-20 45q-17 -14 -38 -25q-18 -10 -42.5 -17.5t-54.5 -7.5zM300 591q0 15 -10 25t-25 10t-25 -10t-10 -25t10 -25t25 -10t25 10t10 25z
M365 591q0 -42 -27.5 -68.5t-72.5 -26.5t-72.5 26.5t-27.5 68.5t27.5 68.5t72.5 26.5t72.5 -26.5t27.5 -68.5z" />
    <glyph glyph-name="Uhungarumlaut" unicode="&#x170;" horiz-adv-x="620" 
d="M50 0zM195 630v-375q0 -57 31 -88.5t84 -31.5t84 31.5t31 88.5v375h145v-375q0 -58 -19 -106t-53 -82t-82 -53t-106 -19t-106 19t-82 53t-53 82t-19 106v375h145zM235 830h135l-100 -130h-105zM410 830h135l-100 -130h-105z" />
    <glyph glyph-name="uhungarumlaut" unicode="&#x171;" horiz-adv-x="535" 
d="M45 0zM230 -5q-41 0 -75 13.5t-58.5 39t-38 61.5t-13.5 81v270h135v-245q0 -45 23.5 -70t61.5 -25t61.5 25t23.5 70v245h135v-460h-100l-20 45q-17 -14 -38 -25q-18 -10 -42.5 -17.5t-54.5 -7.5zM190 650h135l-100 -130h-105zM365 650h135l-100 -130h-105z" />
    <glyph glyph-name="Uogonek" unicode="&#x172;" horiz-adv-x="620" 
d="M195 630v-375q0 -57 31 -88.5t84 -31.5t84 31.5t31 88.5v375h145v-375q0 -52 -15 -95.5t-43 -77t-66.5 -55t-86.5 -28.5q-2 -3 -6.5 -10.5t-9.5 -17.5t-9 -22t-4 -24q0 -19 13 -32t32 -13q9 0 16.5 0.5t12.5 1.5q6 1 11 3v-65q-8 -3 -18 -5q-18 -5 -47 -5q-53 0 -81.5 26
t-28.5 64q0 17 5 32.5t11.5 28.5t13.5 22t11 13q-52 4 -94.5 24.5t-73 54.5t-47 79.5t-16.5 100.5v375h145z" />
    <glyph glyph-name="uogonek" unicode="&#x173;" horiz-adv-x="535" 
d="M365 45q-17 -14 -38 -25q-18 -10 -42.5 -17.5t-54.5 -7.5q-41 0 -75 13.5t-58.5 39t-38 61.5t-13.5 81v270h135v-245q0 -45 23.5 -70t61.5 -25t61.5 25t23.5 70v245h135v-460h-25q-9 -13 -15 -25q-6 -11 -10.5 -24t-4.5 -26q0 -19 13 -32t32 -13q9 0 16.5 0.5t12.5 1.5
q6 1 11 3v-65q-8 -3 -18 -5q-18 -5 -47 -5q-53 0 -81.5 26t-28.5 64q0 20 7 38.5t15 32.5q10 16 23 29z" />
    <glyph glyph-name="Ydieresis" unicode="&#x178;" horiz-adv-x="565" 
d="M0 0zM210 235l-210 395h155l128 -250l127 250h155l-210 -395v-235h-145v235zM260 755q0 -30 -20 -50t-50 -20t-50 20t-20 50t20 50t50 20t50 -20t20 -50zM445 755q0 -30 -20 -50t-50 -20t-50 20t-20 50t20 50t50 20t50 -20t20 -50z" />
    <glyph glyph-name="Zacute" unicode="&#x179;" 
d="M30 0zM215 140h285v-140h-470v120l270 370h-260v140h445v-120zM275 830h135l-95 -130h-105z" />
    <glyph glyph-name="zacute" unicode="&#x17a;" horiz-adv-x="435" 
d="M30 0zM220 330h-190v130h365v-110l-190 -220h200v-130h-375v110zM225 650h135l-95 -130h-105z" />
    <glyph glyph-name="Zdotaccent" unicode="&#x17b;" 
d="M30 0zM215 140h285v-140h-470v120l270 370h-260v140h445v-120zM340 760q0 -30 -22.5 -52.5t-52.5 -22.5t-52.5 22.5t-22.5 52.5t22.5 52.5t52.5 22.5t52.5 -22.5t22.5 -52.5z" />
    <glyph glyph-name="zdotaccent" unicode="&#x17c;" horiz-adv-x="435" 
d="M30 0zM220 330h-190v130h365v-110l-190 -220h200v-130h-375v110zM295 585q0 -30 -22.5 -52.5t-52.5 -22.5t-52.5 22.5t-22.5 52.5t22.5 52.5t52.5 22.5t52.5 -22.5t22.5 -52.5z" />
    <glyph glyph-name="Zcaron" unicode="&#x17d;" 
d="M30 0zM215 140h285v-140h-470v120l270 370h-260v140h445v-120zM265 770l45 60h115l-100 -130h-120l-100 130h115z" />
    <glyph glyph-name="zcaron" unicode="&#x17e;" horiz-adv-x="435" 
d="M30 0zM220 330h-190v130h365v-110l-190 -220h200v-130h-375v110zM215 590l45 60h115l-100 -130h-120l-100 130h115z" />
    <glyph glyph-name="florin" unicode="&#x192;" horiz-adv-x="385" 
d="M200 -10q-14 -75 -58 -115t-127 -40q-26 0 -48 5q-11 2 -22 5l30 120q5 -2 10 -3t11 -1.5t14 -0.5q50 0 65 60l45 245h-75l25 130h75q3 17 6 33q2 14 4.5 28.5t4.5 23.5q15 75 58.5 115t126.5 40q13 0 25.5 -1.5t22.5 -3.5q11 -3 22 -5l-30 -120l-10 2t-11 2t-14 1
q-50 0 -65 -60q-2 -7 -3.5 -16t-3.5 -18q-2 -11 -3 -21h95l-25 -130h-95z" />
    <glyph glyph-name="Scommaaccent" unicode="&#x218;" horiz-adv-x="525" 
d="M30 0zM35 455q0 36 15.5 68.5t44.5 57t70.5 39.5t94.5 15q51 0 91.5 -15t69 -42t44 -63.5t15.5 -79.5l-140 -10q0 38 -21 59t-59 21q-34 0 -54.5 -18.5t-20.5 -41.5t23 -35t57.5 -22.5t74.5 -22.5t74.5 -34t57.5 -58t23 -93q0 -38 -15.5 -71.5t-45.5 -58.5t-74 -40
t-100 -15q-54 0 -97 15t-72.5 42.5t-45 65t-15.5 82.5l140 10q0 -85 90 -85q42 0 63.5 19.5t21.5 45.5q0 24 -23 37t-57.5 24t-74.5 23t-74.5 33.5t-57.5 56.5t-23 91zM265 -55q30 0 50 -20.5t20 -54.5q0 -40 -15.5 -69.5t-34.5 -49.5q-22 -24 -50 -41l-20 30q11 7 21 17
q8 8 16.5 20.5t12.5 27.5q-30 0 -50 20t-20 50t20 50t50 20z" />
    <glyph glyph-name="scommaaccent" unicode="&#x219;" horiz-adv-x="445" 
d="M30 0zM160 150q4 -23 19 -36.5t41 -13.5t40.5 12.5t14.5 27.5q0 12 -17.5 19.5t-43.5 15t-56.5 17.5t-56.5 26.5t-43.5 43.5t-17.5 68q0 28 12 53.5t34.5 44.5t55 30.5t73.5 11.5q90 0 137 -40t58 -100l-130 -10q-4 15 -18 27.5t-37 12.5t-34 -10t-11 -25q0 -13 17.5 -20
t43.5 -14.5t56.5 -17.5t56.5 -26.5t43.5 -43.5t17.5 -68q0 -28 -12.5 -54t-36.5 -46.5t-58.5 -32.5t-77.5 -12q-94 0 -141.5 41t-58.5 109zM225 -55q30 0 50 -20.5t20 -54.5q0 -40 -15.5 -69.5t-34.5 -49.5q-22 -24 -50 -41l-20 30q11 7 21 17q8 8 16.5 20.5t12.5 27.5
q-30 0 -50 20t-20 50t20 50t50 20z" />
    <glyph glyph-name="uni021A" unicode="&#x21a;" horiz-adv-x="525" 
d="M10 0zM335 0h-145v490h-180v140h505v-140h-180v-490zM265 -55q30 0 50 -20.5t20 -54.5q0 -40 -15.5 -69.5t-34.5 -49.5q-22 -24 -50 -41l-20 30q11 7 21 17q8 8 16.5 20.5t12.5 27.5q-30 0 -50 20t-20 50t20 50t50 20z" />
    <glyph glyph-name="uni021B" unicode="&#x21b;" horiz-adv-x="365" 
d="M20 0zM90 335h-70v115h35q55 0 55 55v65h115v-110h95v-125h-95v-150q0 -30 17 -47.5t43 -17.5q8 0 14 0.5t11 1.5t10 3v-120q-8 -3 -18 -5q-20 -5 -47 -5q-79 0 -122 43.5t-43 126.5v170zM210 -55q30 0 50 -20.5t20 -54.5q0 -40 -15.5 -69.5t-34.5 -49.5q-22 -24 -50 -41
l-20 30q11 7 21 17q8 8 16.5 20.5t12.5 27.5q-30 0 -50 20t-20 50t20 50t50 20z" />
    <glyph glyph-name="afii57929" unicode="&#x2bc;" horiz-adv-x="200" 
d="M100 640q30 0 50 -20.5t20 -54.5q0 -40 -15.5 -69.5t-34.5 -49.5q-22 -24 -50 -41l-20 30q11 7 21 17q8 8 16.5 20.5t12.5 27.5q-30 0 -50 20t-20 50t20 50t50 20z" />
    <glyph glyph-name="circumflex" unicode="&#x2c6;" horiz-adv-x="380" 
d="M145 505h-115l100 130h120l100 -130h-115l-45 60z" />
    <glyph glyph-name="caron" unicode="&#x2c7;" horiz-adv-x="380" 
d="M190 575l45 60h115l-100 -130h-120l-100 130h115z" />
    <glyph glyph-name="breve" unicode="&#x2d8;" horiz-adv-x="350" 
d="M175 505q-30 0 -55 10t-44 27t-30.5 41t-15.5 52h95q4 -23 17.5 -36.5t32.5 -13.5t32.5 13.5t17.5 36.5h95q-8 -56 -46.5 -93t-98.5 -37z" />
    <glyph glyph-name="dotaccent" unicode="&#x2d9;" horiz-adv-x="210" 
d="M180 580q0 -30 -22.5 -52.5t-52.5 -22.5t-52.5 22.5t-22.5 52.5t22.5 52.5t52.5 22.5t52.5 -22.5t22.5 -52.5z" />
    <glyph glyph-name="ring" unicode="&#x2da;" horiz-adv-x="260" 
d="M165 580q0 15 -10 25t-25 10t-25 -10t-10 -25t10 -25t25 -10t25 10t10 25zM230 580q0 -42 -27.5 -68.5t-72.5 -26.5t-72.5 26.5t-27.5 68.5t27.5 68.5t72.5 26.5t72.5 -26.5t27.5 -68.5z" />
    <glyph glyph-name="ogonek" unicode="&#x2db;" horiz-adv-x="235" 
d="M150 0q-9 -13 -15 -25q-6 -11 -10.5 -24t-4.5 -26q0 -19 13 -32t32 -13q9 0 16.5 0.5t12.5 1.5q6 1 11 3v-65q-8 -3 -18 -5q-18 -5 -47 -5q-53 0 -81.5 26t-28.5 64q0 20 7 38.5t15 32.5q10 16 23 29h75z" />
    <glyph glyph-name="tilde" unicode="&#x2dc;" horiz-adv-x="370" 
d="M30 515q0 64 26 94.5t64 30.5q22 0 38 -7t28 -15.5t22.5 -15.5t21.5 -7q15 0 25 11t10 34l75 -10q0 -64 -26 -94.5t-64 -30.5q-23 0 -38.5 7t-27.5 15.5t-22.5 15.5t-21.5 7q-14 0 -24.5 -11t-10.5 -34z" />
    <glyph glyph-name="hungarumlaut" unicode="&#x2dd;" horiz-adv-x="440" 
d="M100 635h135l-100 -130h-105zM275 635h135l-100 -130h-105z" />
    <glyph glyph-name="afii10023" unicode="&#x401;" horiz-adv-x="560" 
d="M60 0zM60 630h450v-140h-305v-100h280v-140h-280v-110h315v-140h-460v630zM268 754q0 -30 -20 -50t-50 -20t-50 20t-20 50t20 50t50 20t50 -20t20 -50zM453 754q0 -30 -20 -50t-50 -20t-50 20t-20 50t20 50t50 20t50 -20t20 -50z" />
    <glyph glyph-name="afii10051" unicode="&#x402;" horiz-adv-x="660" 
d="M420 415q47 0 85.5 -15.5t66.5 -45t43 -72.5t15 -97q0 -109 -66 -172t-194 -63v135q57 0 86 27.5t29 72.5t-27.5 72.5t-72.5 27.5t-72.5 -27.5t-27.5 -72.5v-185h-145v490h-135v140h420v-140h-140v-130q14 15 34 27q17 11 42 19.5t59 8.5z" />
    <glyph glyph-name="afii10052" unicode="&#x403;" horiz-adv-x="480" 
d="M60 0zM275 830h135l-95 -130h-105zM60 630h410v-140h-265v-490h-145v630z" />
    <glyph glyph-name="afii10053" unicode="&#x404;" horiz-adv-x="645" 
d="M390 255h-205q7 -24 21 -46t34 -38.5t45 -26t55 -9.5q56 0 88 25t47 55l150 -10q-11 -41 -35.5 -79t-60.5 -67t-83.5 -46.5t-105.5 -17.5q-64 0 -120.5 24.5t-98.5 68t-66.5 101.5t-24.5 126q0 67 24.5 125.5t66.5 102t98.5 68t120.5 24.5q56 0 102.5 -17.5t82.5 -47
t60 -68.5t35 -82l-150 -10q-15 34 -46 59.5t-84 25.5q-30 0 -56 -10.5t-46 -27t-33.5 -38.5t-19.5 -44h205v-120z" />
    <glyph glyph-name="afii10054" unicode="&#x405;" 
d="M30 0zM35 455q0 36 15.5 68.5t44.5 57t70.5 39.5t94.5 15q51 0 91.5 -15t69 -42t44 -63.5t15.5 -79.5l-140 -10q0 38 -21 59t-59 21q-34 0 -54.5 -18.5t-20.5 -41.5t23 -35t57.5 -22.5t74.5 -22.5t74.5 -34t57.5 -58t23 -93q0 -38 -15.5 -71.5t-45.5 -58.5t-74 -40
t-100 -15q-54 0 -97 15t-72.5 42.5t-45 65t-15.5 82.5l140 10q0 -85 90 -85q42 0 63.5 19.5t21.5 45.5q0 24 -23 37t-57.5 24t-74.5 23t-74.5 33.5t-57.5 56.5t-23 91z" />
    <glyph glyph-name="afii10055" unicode="&#x406;" horiz-adv-x="265" 
d="M60 0zM205 0h-145v630h145v-630z" />
    <glyph glyph-name="afii10056" unicode="&#x407;" horiz-adv-x="305" 
d="M0 0zM225 0h-145v630h145v-630zM130 760q0 -30 -20 -50t-50 -20t-50 20t-20 50t20 50t50 20t50 -20t20 -50zM315 760q0 -30 -20 -50t-50 -20t-50 20t-20 50t20 50t50 20t50 -20t20 -50z" />
    <glyph glyph-name="afii10057" unicode="&#x408;" horiz-adv-x="485" 
d="M5 0zM435 630v-420q0 -49 -15.5 -88.5t-43.5 -67.5t-67.5 -43.5t-88.5 -15.5t-88.5 15t-67.5 42.5t-43.5 65t-15.5 82.5q18 1 42.5 2.5t47.5 3.5q26 2 55 4q0 -34 20 -54.5t50 -20.5t50 20.5t20 54.5v420h145z" />
    <glyph glyph-name="afii10058" unicode="&#x409;" horiz-adv-x="920" 
d="M425 0v490h-155l-25 -300q-8 -94 -57 -144.5t-128 -50.5q-12 0 -23 0.5t-19 1.5q-10 1 -18 3v125h20q34 0 57.5 25t27.5 70l35 410h430v-200h105q49 0 90 -16.5t71 -46t47 -68.5t17 -84t-17 -84t-47 -68.5t-71 -46t-90 -16.5h-250zM570 290v-150h105q34 0 57 22.5
t23 52.5t-23 52.5t-57 22.5h-105z" />
    <glyph glyph-name="afii10059" unicode="&#x40a;" horiz-adv-x="925" 
d="M430 0v290h-225v-290h-145v630h145v-200h225v200h145v-200h105q49 0 90 -16.5t71 -46t47 -68.5t17 -84t-17 -84t-47 -68.5t-71 -46t-90 -16.5h-250zM575 290v-150h105q34 0 57 22.5t23 52.5t-23 52.5t-57 22.5h-105z" />
    <glyph glyph-name="afii10060" unicode="&#x40b;" horiz-adv-x="665" 
d="M475 185q0 45 -26.5 72.5t-68.5 27.5t-68.5 -27.5t-26.5 -72.5v-185h-145v490h-135v140h420v-140h-140v-130q14 15 34 27q17 11 42 19.5t59 8.5q43 0 79.5 -15.5t63.5 -45t42 -72.5t15 -97v-185h-145v185z" />
    <glyph glyph-name="afii10061" unicode="&#x40c;" horiz-adv-x="565" 
d="M60 0zM410 0l-205 280v-280h-145v630h145v-270l190 270h165l-222 -310l237 -320h-165zM310 830h135l-95 -130h-105z" />
    <glyph glyph-name="afii10062" unicode="&#x40e;" horiz-adv-x="545" 
d="M0 0zM275 690q-30 0 -55 10t-44 27t-30.5 41t-15.5 52h95q4 -23 17.5 -36.5t32.5 -13.5t32.5 13.5t17.5 36.5h95q-8 -56 -46.5 -93t-98.5 -37zM550 630l-200 -450q-24 -54 -46 -90.5t-46 -58.5t-52.5 -31.5t-65.5 -9.5q-26 0 -46 5q-11 2 -19 5v130q6 -2 13 -3
q6 -1 14 -1.5t18 -0.5q23 0 38.5 8t26.5 19q12 12 20 28l-205 450h150l125 -280l125 280h150z" />
    <glyph glyph-name="afii10145" unicode="&#x40f;" horiz-adv-x="645" 
d="M250 0h-190v630h145v-490h235v490h145v-630h-190v-120h-145v120z" />
    <glyph glyph-name="afii10017" unicode="&#x410;" horiz-adv-x="590" 
d="M0 0zM365 245l-70 210l-70 -210h140zM185 120l-40 -120h-150l225 630h150l225 -630h-150l-40 120h-220z" />
    <glyph glyph-name="afii10018" unicode="&#x411;" horiz-adv-x="580" 
d="M330 400q49 0 89.5 -16t69.5 -43t45 -63.5t16 -77.5t-16 -77.5t-45 -63.5t-69.5 -43t-89.5 -16h-270v630h440v-140h-295v-90h125zM325 125q34 0 57 22.5t23 52.5t-23 52.5t-57 22.5h-120v-150h120z" />
    <glyph glyph-name="afii10019" unicode="&#x412;" horiz-adv-x="580" 
d="M60 0zM450 335q28 -13 50 -34q19 -18 34.5 -46t15.5 -70q0 -38 -15 -71.5t-42.5 -58.5t-65 -40t-82.5 -15h-285v630h270q43 0 79 -14t61.5 -38t40 -55.5t14.5 -67.5q0 -32 -12 -55t-26 -37q-17 -17 -37 -28zM205 380h110q30 0 50 19.5t20 45.5t-20 45.5t-50 19.5h-110
v-130zM330 120q34 0 57 22.5t23 52.5t-23 52.5t-57 22.5h-125v-150h125z" />
    <glyph glyph-name="afii10020" unicode="&#x413;" horiz-adv-x="480" 
d="M60 630h410v-140h-265v-490h-145v630z" />
    <glyph glyph-name="afii10021" unicode="&#x414;" horiz-adv-x="655" 
d="M640 140v-260h-145v120h-350v-120h-145v260h40q16 7 29 20q11 11 21.5 30.5t14.5 49.5l45 390h420v-490h70zM425 490h-150l-30 -250q-4 -30 -12.5 -49.5t-16.5 -30.5q-10 -13 -21 -20h230v350z" />
    <glyph glyph-name="afii10022" unicode="&#x415;" horiz-adv-x="560" 
d="M60 0zM60 630h450v-140h-305v-100h280v-140h-280v-110h315v-140h-460v630z" />
    <glyph glyph-name="afii10024" unicode="&#x416;" horiz-adv-x="815" 
d="M660 0l-180 280v-280h-145v280l-180 -280h-165l212 320l-197 310h165l165 -270v270h145v-270l165 270h165l-197 -310l212 -320h-165z" />
    <glyph glyph-name="afii10025" unicode="&#x417;" horiz-adv-x="525" 
d="M30 445q2 39 18.5 74t46 60.5t71 40.5t94.5 15q51 0 91.5 -14.5t69 -39t44 -56t15.5 -65.5t-13 -58.5t-29 -40.5q-18 -18 -42 -31q27 -13 49 -34q19 -18 34.5 -48t15.5 -73q0 -36 -15.5 -68.5t-45 -57t-72.5 -39.5t-97 -15q-56 0 -100 15t-75 41t-48.5 62t-21.5 77
l145 10q8 -30 32.5 -52.5t62.5 -22.5q42 0 63.5 20t21.5 50q0 26 -21.5 45.5t-63.5 19.5h-65v120h60q42 0 61 17t19 43t-21 45.5t-59 19.5q-34 0 -55 -20t-25 -50z" />
    <glyph glyph-name="afii10026" unicode="&#x418;" horiz-adv-x="650" 
d="M205 630v-375l255 375h130v-630h-145v375l-255 -375h-130v630h145z" />
    <glyph glyph-name="afii10027" unicode="&#x419;" horiz-adv-x="650" 
d="M60 0zM205 630v-375l255 375h130v-630h-145v375l-255 -375h-130v630h145zM325 690q-30 0 -55 10t-44 27t-30.5 41t-15.5 52h95q4 -23 17.5 -36.5t32.5 -13.5t32.5 13.5t17.5 36.5h95q-8 -56 -46.5 -93t-98.5 -37z" />
    <glyph glyph-name="afii10028" unicode="&#x41a;" horiz-adv-x="565" 
d="M60 0zM410 0l-205 280v-280h-145v630h145v-270l190 270h165l-222 -310l237 -320h-165z" />
    <glyph glyph-name="afii10029" unicode="&#x41b;" horiz-adv-x="645" 
d="M585 630v-630h-145v490h-170l-25 -300q-8 -94 -57 -144.5t-128 -50.5q-12 0 -23 0.5t-19 1.5q-10 1 -18 3v125h20q34 0 57.5 25t27.5 70l35 410h445z" />
    <glyph glyph-name="afii10030" unicode="&#x41c;" horiz-adv-x="790" 
d="M60 0zM600 630h130v-630h-145v315l-145 -315h-90l-145 315v-315h-145v630h130l205 -445z" />
    <glyph glyph-name="afii10031" unicode="&#x41d;" horiz-adv-x="650" 
d="M60 0zM590 630v-630h-145v250h-240v-250h-145v630h145v-240h240v240h145z" />
    <glyph glyph-name="afii10032" unicode="&#x41e;" horiz-adv-x="680" 
d="M30 0zM505 315q0 39 -13 72t-35.5 57t-52.5 37.5t-64 13.5t-64 -13.5t-52.5 -37.5t-35.5 -57t-13 -72t13 -72t35.5 -57t52.5 -37.5t64 -13.5t64 13.5t52.5 37.5t35.5 57t13 72zM650 315q0 -68 -24.5 -126t-66.5 -101.5t-98.5 -68t-120.5 -24.5t-120.5 24.5t-98.5 68
t-66.5 101.5t-24.5 126q0 67 24.5 125.5t66.5 102t98.5 68t120.5 24.5t120.5 -24.5t98.5 -68t66.5 -102t24.5 -125.5z" />
    <glyph glyph-name="afii10033" unicode="&#x41f;" horiz-adv-x="655" 
d="M595 630v-630h-145v490h-245v-490h-145v630h535z" />
    <glyph glyph-name="afii10034" unicode="&#x420;" horiz-adv-x="560" 
d="M60 0zM305 630q49 0 90 -16.5t71 -46t47 -68.5t17 -84t-17 -84t-47 -68.5t-71 -46t-90 -16.5h-100v-200h-145v630h245zM305 340q34 0 57 22.5t23 52.5t-23 52.5t-57 22.5h-100v-150h100z" />
    <glyph glyph-name="afii10035" unicode="&#x421;" horiz-adv-x="650" 
d="M30 0zM340 135q60 0 94.5 28.5t45.5 66.5l150 -10q-11 -45 -36 -86t-62 -71.5t-85.5 -49t-106.5 -18.5q-64 0 -120.5 24.5t-98.5 68t-66.5 101.5t-24.5 126q0 67 24.5 125.5t66.5 102t98.5 68t120.5 24.5q56 0 103.5 -18.5t84 -49t61.5 -71.5t36 -86l-150 -10
q-6 19 -17 36t-28 30t-39.5 21t-50.5 8q-34 0 -64 -13.5t-52.5 -37.5t-35.5 -57t-13 -72t13 -72t35.5 -57t52.5 -37.5t64 -13.5z" />
    <glyph glyph-name="afii10036" unicode="&#x422;" horiz-adv-x="525" 
d="M10 0zM335 0h-145v490h-180v140h505v-140h-180v-490z" />
    <glyph glyph-name="afii10037" unicode="&#x423;" horiz-adv-x="545" 
d="M550 630l-200 -450q-24 -54 -46 -90.5t-46 -58.5t-52.5 -31.5t-65.5 -9.5q-26 0 -46 5q-11 2 -19 5v130q6 -2 13 -3q6 -1 14 -1.5t18 -0.5q23 0 38.5 8t26.5 19q12 12 20 28l-205 450h150l125 -280l125 280h150z" />
    <glyph glyph-name="afii10038" unicode="&#x424;" horiz-adv-x="755" 
d="M305 70q-64 4 -115.5 25t-88 55.5t-56.5 79t-20 95.5t20 95.5t56.5 79t88 55.5t115.5 25v55h145v-55q64 -4 115.5 -25t88 -55.5t56.5 -79t20 -95.5t-20 -95.5t-56.5 -79t-88 -55.5t-115.5 -25v-75h-145v75zM305 445q-64 -4 -99.5 -37.5t-35.5 -82.5t35.5 -82.5
t99.5 -37.5v240zM450 205q64 4 99.5 37.5t35.5 82.5t-35.5 82.5t-99.5 37.5v-240z" />
    <glyph glyph-name="afii10039" unicode="&#x425;" horiz-adv-x="580" 
d="M0 0zM170 630l120 -205l120 205h160l-190 -310l200 -320h-160l-130 215l-130 -215h-160l200 320l-190 310h160z" />
    <glyph glyph-name="afii10040" unicode="&#x426;" horiz-adv-x="660" 
d="M500 0h-440v630h145v-490h225v490h145v-490h70v-260h-145v120z" />
    <glyph glyph-name="afii10041" unicode="&#x427;" horiz-adv-x="615" 
d="M555 630v-630h-145v210q-18 -10 -39 -18q-18 -7 -43 -12t-53 -5q-51 0 -92.5 16t-71 45.5t-45.5 71t-16 92.5v230h145v-220q0 -105 105 -105q23 0 42.5 4.5t34.5 10.5q18 6 33 15v295h145z" />
    <glyph glyph-name="afii10042" unicode="&#x428;" horiz-adv-x="875" 
d="M60 0v630h145v-490h160v490h145v-490h160v490h145v-630h-755z" />
    <glyph glyph-name="afii10043" unicode="&#x429;" horiz-adv-x="900" 
d="M740 0h-680v630h145v-490h160v490h145v-490h160v490h145v-490h70v-260h-145v120z" />
    <glyph glyph-name="afii10044" unicode="&#x42a;" horiz-adv-x="620" 
d="M125 0v490h-125v140h270v-200h105q49 0 90 -16.5t71 -46t47 -68.5t17 -84t-17 -84t-47 -68.5t-71 -46t-90 -16.5h-250zM270 290v-150h105q34 0 57 22.5t23 52.5t-23 52.5t-57 22.5h-105z" />
    <glyph glyph-name="afii10045" unicode="&#x42b;" horiz-adv-x="790" 
d="M60 0v630h145v-200h95q49 0 90 -16.5t71 -46t47 -68.5t17 -84t-17 -84t-47 -68.5t-71 -46t-90 -16.5h-240zM205 290v-150h95q34 0 57 22.5t23 52.5t-23 52.5t-57 22.5h-95zM730 0h-145v630h145v-630z" />
    <glyph glyph-name="afii10046" unicode="&#x42c;" horiz-adv-x="555" 
d="M60 0v630h145v-200h105q49 0 90 -16.5t71 -46t47 -68.5t17 -84t-17 -84t-47 -68.5t-71 -46t-90 -16.5h-250zM205 290v-150h105q34 0 57 22.5t23 52.5t-23 52.5t-57 22.5h-105z" />
    <glyph glyph-name="afii10047" unicode="&#x42d;" horiz-adv-x="645" 
d="M255 375h205q-6 22 -19.5 44t-33.5 38.5t-46 27t-56 10.5q-53 0 -84 -25.5t-46 -59.5l-150 10q11 43 35 82t60 68.5t82.5 47t102.5 17.5q64 0 120.5 -24.5t98.5 -68t66.5 -102t24.5 -125.5q0 -68 -24.5 -126t-66.5 -101.5t-98.5 -68t-120.5 -24.5q-58 0 -105.5 17.5
t-83.5 46.5t-60.5 67t-35.5 79l150 10q15 -30 47 -55t88 -25q30 0 55 9.5t45 26t33.5 38.5t21.5 46h-205v120z" />
    <glyph glyph-name="afii10048" unicode="&#x42e;" horiz-adv-x="885" 
d="M855 315q0 -69 -23.5 -128t-64 -101.5t-94 -66.5t-113.5 -24q-56 0 -103.5 19.5t-84 52.5t-61.5 77.5t-36 95.5h-70v-240h-145v630h145v-250h65q9 52 34.5 98.5t63.5 81.5t87 55t105 20q60 0 113.5 -24t94 -66.5t64 -101.5t23.5 -128zM710 315q0 41 -12 74.5t-33 57
t-48 36t-57 12.5t-57 -12.5t-48 -36t-33 -57t-12 -74.5t12 -74.5t33 -57t48 -36t57 -12.5t57 12.5t48 36t33 57t12 74.5z" />
    <glyph glyph-name="afii10049" unicode="&#x42f;" horiz-adv-x="575" 
d="M515 630v-630h-145v210h-75l-120 -210h-160l145 245l-18 9t-39.5 31t-39.5 57t-18 88q0 41 16 77.5t45 63.5t69.5 43t89.5 16h250zM370 350v140h-105q-38 0 -59 -20t-21 -50t21 -50t59 -20h105z" />
    <glyph glyph-name="afii10065" unicode="&#x430;" horiz-adv-x="485" 
d="M30 0zM250 470q41 0 76 -14t60.5 -39.5t39.5 -60.5t14 -76v-280h-100l-20 45q-17 -14 -38 -25q-18 -10 -42.5 -17.5t-54.5 -7.5q-75 0 -115 36.5t-40 93.5q0 34 13.5 62.5t45.5 49t84.5 32t131.5 11.5q0 34 -17 52t-43 18q-19 0 -30.5 -7.5t-18.5 -15.5q-8 -10 -11 -22
l-135 10q6 34 21 62.5t39.5 49t59.5 32t80 11.5zM220 95q38 0 61.5 23.5t23.5 61.5v20q-43 0 -70.5 -4.5t-43 -12.5t-21 -19t-5.5 -24q0 -19 14.5 -32t40.5 -13z" />
    <glyph glyph-name="afii10066" unicode="&#x431;" horiz-adv-x="535" 
d="M295 440q45 0 83.5 -16t66.5 -45.5t44 -71t16 -92.5q0 -47 -17.5 -88t-49 -71.5t-74.5 -48t-94 -17.5t-94.5 19.5t-76 56.5t-51 91t-18.5 123q0 97 21 166.5t69.5 114t127 66t192.5 23.5v-120q-75 -2 -124.5 -12.5t-81 -29t-48.5 -45.5t-26 -63q14 17 34 30
q17 11 42.5 20.5t58.5 9.5zM270 115q42 0 71 29t29 71t-29 71t-71 29t-71 -29t-29 -71t29 -71t71 -29z" />
    <glyph glyph-name="afii10067" unicode="&#x432;" horiz-adv-x="475" 
d="M380 240q19 -10 35 -25q13 -14 24 -34.5t11 -50.5q0 -26 -11 -49.5t-30.5 -41.5t-47 -28.5t-61.5 -10.5h-250v460h235q72 0 111 -36t39 -89q0 -25 -8.5 -42.5t-19.5 -29.5q-12 -14 -27 -23zM185 360v-80h70q45 0 45 40t-45 40h-70zM270 100q19 0 32 13t13 32t-13 32
t-32 13h-85v-90h85z" />
    <glyph glyph-name="afii10068" unicode="&#x433;" horiz-adv-x="390" 
d="M380 330h-195v-330h-135v460h330v-130z" />
    <glyph glyph-name="afii10069" unicode="&#x434;" horiz-adv-x="525" 
d="M515 130v-230h-135v100h-245v-100h-135v230h32q12 4 22 14q8 8 16 21.5t10 34.5l30 260h345v-330h60zM210 200q-2 -21 -8 -34.5t-12 -21.5q-7 -10 -15 -14h145v200h-95z" />
    <glyph glyph-name="afii10070" unicode="&#x435;" horiz-adv-x="515" 
d="M30 0zM475 135q-9 -28 -27 -54t-45 -46.5t-62.5 -32.5t-80.5 -12q-47 0 -88.5 18.5t-73 51t-50 76t-18.5 94.5t18.5 94.5t50.5 76t74.5 51t91.5 18.5q47 0 88 -17t71.5 -48.5t48 -76t17.5 -98.5q0 -8 -1 -15.5t-2 -14.5q-1 -8 -2 -15h-315q8 -26 32.5 -48t62.5 -22
q19 0 32.5 4.5t21.5 10.5q10 6 16 15zM265 345q-38 0 -62.5 -22.5t-32.5 -52.5h190q-8 30 -32.5 52.5t-62.5 22.5z" />
    <glyph glyph-name="afii10072" unicode="&#x436;" horiz-adv-x="685" 
d="M-5 0l165 240l-155 220h155l115 -185v185h135v-185l115 185h155l-155 -220l165 -240h-155l-125 205v-205h-135v205l-125 -205h-155z" />
    <glyph glyph-name="afii10073" unicode="&#x437;" horiz-adv-x="440" 
d="M340 235q19 -10 35 -24q13 -12 24 -31t11 -45q0 -28 -13 -54t-37 -46.5t-59.5 -32.5t-80.5 -12t-80.5 12.5t-61 33.5t-40 49t-18.5 60q9 0 20 1q9 1 20 1.5t23 2.5q27 2 62 5q4 -23 21.5 -39t43.5 -16q30 0 45 13t15 32q0 15 -15 27.5t-45 12.5h-45v95h45q23 0 36.5 12.5
t13.5 27.5t-13.5 27.5t-36.5 12.5q-26 0 -41 -13t-19 -32l-125 10q15 67 60 106t135 39q41 0 74.5 -12t57 -31.5t36 -45t12.5 -51.5q0 -29 -9.5 -47t-20.5 -29q-13 -12 -30 -19z" />
    <glyph glyph-name="afii10074" unicode="&#x438;" horiz-adv-x="535" 
d="M50 0v460h135v-255l175 255h125v-460h-135v255l-175 -255h-125z" />
    <glyph glyph-name="afii10075" unicode="&#x439;" horiz-adv-x="535" 
d="M50 0zM50 0v460h135v-255l175 255h125v-460h-135v255l-175 -255h-125zM270 505q-30 0 -55 10t-44 27t-30.5 41t-15.5 52h95q4 -23 17.5 -36.5t32.5 -13.5t32.5 13.5t17.5 36.5h95q-8 -56 -46.5 -93t-98.5 -37z" />
    <glyph glyph-name="afii10076" unicode="&#x43a;" horiz-adv-x="475" 
d="M325 0l-140 205v-205h-135v460h135v-185l125 185h155l-155 -220l170 -240h-155z" />
    <glyph glyph-name="afii10077" unicode="&#x43b;" horiz-adv-x="510" 
d="M460 460v-460h-135v330h-105l-15 -180q-6 -75 -48 -115t-117 -40q-10 0 -17 0.5t-12 1.5q-6 1 -11 3v115h15q30 0 43 13.5t17 51.5l25 280h360z" />
    <glyph glyph-name="afii10078" unicode="&#x43c;" horiz-adv-x="630" 
d="M445 460h135v-460h-135v220q-26 -56 -52 -110t-53 -110h-50q-27 56 -53 110t-52 110v-220h-135v460h135l130 -275z" />
    <glyph glyph-name="afii10079" unicode="&#x43d;" 
d="M480 460v-460h-135v165h-160v-165h-135v460h135v-165h160v165h135z" />
    <glyph glyph-name="afii10080" unicode="&#x43e;" 
d="M30 0zM30 230q0 51 18.5 94.5t50.5 76t74.5 51t91.5 18.5t91.5 -18.5t74.5 -51t50.5 -76t18.5 -94.5t-18.5 -94.5t-50.5 -76t-74.5 -51t-91.5 -18.5t-91.5 18.5t-74.5 51t-50.5 76t-18.5 94.5zM365 230q0 53 -29 84t-71 31t-71 -31t-29 -84t29 -84t71 -31t71 31t29 84z
" />
    <glyph glyph-name="afii10081" unicode="&#x43f;" 
d="M480 460v-460h-135v330h-160v-330h-135v460h430z" />
    <glyph glyph-name="afii10082" unicode="&#x440;" horiz-adv-x="545" 
d="M50 0zM300 465q43 0 82 -17.5t68.5 -49t47 -74.5t17.5 -94t-17.5 -94t-47 -74.5t-68.5 -49t-82 -17.5q-26 0 -47.5 6t-36.5 14q-18 9 -31 20v-195h-135v620h100l20 -45q15 14 35 25q17 9 41 17t54 8zM380 230q0 49 -29 79.5t-71 30.5t-71 -30.5t-29 -79.5t29 -79.5
t71 -30.5t71 30.5t29 79.5z" />
    <glyph glyph-name="afii10083" unicode="&#x441;" horiz-adv-x="510" 
d="M30 0zM265 470q34 0 62 -7.5t50 -20.5t38.5 -29t28.5 -33q28 -40 41 -90l-135 -10q-7 18 -18 32q-10 12 -26.5 22.5t-40.5 10.5q-42 0 -71 -31t-29 -84t29 -84t71 -31q24 0 40.5 10t26.5 22q11 14 18 33l135 -10q-13 -50 -41 -90q-12 -17 -28.5 -33t-38.5 -29t-50 -20.5
t-62 -7.5q-49 0 -91.5 18.5t-74.5 51t-50.5 76t-18.5 94.5t18.5 94.5t50.5 76t74.5 51t91.5 18.5z" />
    <glyph glyph-name="afii10084" unicode="&#x442;" horiz-adv-x="425" 
d="M10 460h405v-130h-135v-330h-135v330h-135v130z" />
    <glyph glyph-name="afii10085" unicode="&#x443;" horiz-adv-x="490" 
d="M0 0zM0 460h145l100 -285l100 285h145l-185 -460q-35 -86 -75.5 -125.5t-104.5 -39.5q-8 0 -15.5 0.5t-14.5 1.5q-8 1 -15 3v115q42 0 63 17.5t32 47.5z" />
    <glyph glyph-name="afii10086" unicode="&#x444;" horiz-adv-x="755" 
d="M310 20q-10 -8 -24 -13q-12 -5 -29 -8.5t-37 -3.5q-38 0 -72 16.5t-60.5 47t-42 74t-15.5 97.5t15.5 97.5t42 74t60.5 47t72 16.5q20 0 37 -4t29 -9q14 -5 24 -12v190h135v-190q10 7 24 12q12 5 28.5 9t37.5 4q37 0 71.5 -16.5t61 -47t42 -74t15.5 -97.5t-15.5 -97.5
t-42 -74t-61 -47t-71.5 -16.5q-21 0 -37.5 3.5t-28.5 8.5q-14 5 -24 13v-180h-135v180zM445 140q7 -6 17 -10q8 -4 18.5 -7t24.5 -3q34 0 59.5 28.5t25.5 81.5t-25.5 81.5t-59.5 28.5q-14 0 -24.5 -3t-18.5 -7q-10 -4 -17 -10v-180zM310 320q-7 6 -17 10q-8 4 -19 7t-24 3
q-34 0 -59.5 -28.5t-25.5 -81.5t25.5 -81.5t59.5 -28.5q13 0 24 3t19 7q10 4 17 10v180z" />
    <glyph glyph-name="afii10087" unicode="&#x445;" horiz-adv-x="460" 
d="M0 0zM455 460l-140 -225l150 -235h-150l-85 140l-85 -140h-150l150 235l-140 225h150l75 -130l75 130h150z" />
    <glyph glyph-name="afii10088" unicode="&#x446;" horiz-adv-x="540" 
d="M395 0h-345v460h135v-330h150v330h135v-330h60v-230h-135v100z" />
    <glyph glyph-name="afii10089" unicode="&#x447;" horiz-adv-x="505" 
d="M455 460v-460h-135v145q-15 -8 -33 -13q-15 -5 -34.5 -8.5t-42.5 -3.5q-38 0 -69 12.5t-53.5 36t-35 57t-12.5 74.5v160h135v-140q0 -34 20 -54.5t50 -20.5q17 0 30.5 3.5t23.5 8.5q11 5 21 13v190h135z" />
    <glyph glyph-name="afii10090" unicode="&#x448;" horiz-adv-x="715" 
d="M50 0v460h135v-330h105v330h135v-330h105v330h135v-460h-615z" />
    <glyph glyph-name="afii10091" unicode="&#x449;" horiz-adv-x="735" 
d="M590 0h-540v460h135v-330h105v330h135v-330h105v330h135v-330h60v-230h-135v100z" />
    <glyph glyph-name="afii10092" unicode="&#x44a;" horiz-adv-x="520" 
d="M10 460h230v-140h95q36 0 66 -12.5t52 -34t34.5 -50.5t12.5 -63t-12.5 -63t-34.5 -50.5t-52 -34t-66 -12.5h-230v330h-95v130zM310 110q26 0 40.5 13.5t14.5 36.5t-14.5 36.5t-40.5 13.5h-70v-100h70z" />
    <glyph glyph-name="afii10093" unicode="&#x44b;" horiz-adv-x="660" 
d="M610 0h-135v460h135v-460zM270 320q36 0 66 -12.5t52 -34t34.5 -50.5t12.5 -63t-12.5 -63t-34.5 -50.5t-52 -34t-66 -12.5h-220v460h135v-140h85zM245 110q26 0 40.5 13.5t14.5 36.5t-14.5 36.5t-40.5 13.5h-60v-100h60z" />
    <glyph glyph-name="afii10094" unicode="&#x44c;" horiz-adv-x="465" 
d="M280 320q36 0 66 -12.5t52 -34t34.5 -50.5t12.5 -63t-12.5 -63t-34.5 -50.5t-52 -34t-66 -12.5h-230v460h135v-140h95zM255 110q26 0 40.5 13.5t14.5 36.5t-14.5 36.5t-40.5 13.5h-70v-100h70z" />
    <glyph glyph-name="afii10095" unicode="&#x44d;" horiz-adv-x="505" 
d="M200 275h130q-6 19 -17 35q-10 13 -27.5 24t-45.5 11q-23 0 -38.5 -8.5t-24.5 -19.5q-11 -12 -17 -27l-135 10q13 47 40 85q12 16 28 31t37.5 27t48.5 19.5t61 7.5q49 0 91.5 -18.5t74.5 -51t50.5 -76t18.5 -94.5t-18.5 -94.5t-50.5 -76t-74.5 -51t-91.5 -18.5
q-34 0 -61 7t-48.5 19t-37.5 27.5t-28 31.5q-27 37 -40 85l135 10q6 -16 17 -28q9 -11 24.5 -19t38.5 -8q26 0 43.5 10t28 22.5t14.5 22.5l4 10h-130v95z" />
    <glyph glyph-name="afii10096" unicode="&#x44e;" horiz-adv-x="705" 
d="M185 286h45q7 35 27 68.5t49 59t66 41t78 15.5q45 0 86 -18.5t71.5 -51t49 -76t18.5 -94.5t-18.5 -94.5t-49 -76t-71.5 -51t-86 -18.5q-41 0 -76.5 14t-63 38t-47 55.5t-28.5 67.5h-50v-165h-135v460h135v-174zM540 230q0 26 -7.5 47.5t-20.5 36.5t-29 23t-33 8t-33 -8
t-29 -23t-20.5 -36.5t-7.5 -47.5t7.5 -47.5t20.5 -36.5t29 -23t33 -8t33 8t29 23t20.5 36.5t7.5 47.5z" />
    <glyph glyph-name="afii10097" unicode="&#x44f;" horiz-adv-x="485" 
d="M245 140l-85 -140h-145l105 165q-22 12 -40 30q-15 16 -27.5 41.5t-12.5 63.5q0 34 12.5 63t34.5 50.5t52 34t66 12.5h230v-460h-135v140h-55zM310 250v100h-80q-26 0 -40.5 -13.5t-14.5 -36.5t14.5 -36.5t40.5 -13.5h80z" />
    <glyph glyph-name="afii10071" unicode="&#x451;" horiz-adv-x="515" 
d="M30 0zM475 135q-9 -28 -27 -54t-45 -46.5t-62.5 -32.5t-80.5 -12q-47 0 -88.5 18.5t-73 51t-50 76t-18.5 94.5t18.5 94.5t50.5 76t74.5 51t91.5 18.5q47 0 88 -17t71.5 -48.5t48 -76t17.5 -98.5q0 -8 -1 -15.5t-2 -14.5q-1 -8 -2 -15h-315q8 -26 32.5 -48t62.5 -22
q19 0 32.5 4.5t21.5 10.5q10 6 16 15zM265 345q-38 0 -62.5 -22.5t-32.5 -52.5h190q-8 30 -32.5 52.5t-62.5 22.5zM243 575q0 -30 -20 -50t-50 -20t-50 20t-20 50t20 50t50 20t50 -20t20 -50zM428 575q0 -30 -20 -50t-50 -20t-50 20t-20 50t20 50t50 20t50 -20t20 -50z" />
    <glyph glyph-name="afii10099" unicode="&#x452;" horiz-adv-x="550" 
d="M5 570h70v60h135v-60h110v-110h-110v-90q13 14 31 25q16 9 40.5 17t58.5 8q39 0 72 -14t57 -42.5t37.5 -72t13.5 -101.5q0 -121 -63.5 -185.5t-176.5 -64.5v130q45 0 72.5 30t27.5 90q0 53 -23.5 79t-61.5 26t-61.5 -25t-23.5 -70v-200h-135v460h-70v110z" />
    <glyph glyph-name="afii10100" unicode="&#x453;" horiz-adv-x="390" 
d="M50 0zM225 645h135l-95 -130h-105zM380 330h-195v-330h-135v460h330v-130z" />
    <glyph glyph-name="afii10101" unicode="&#x454;" horiz-adv-x="505" 
d="M305 180h-130q7 -19 19 -33q11 -12 28 -22t43 -10q23 0 37.5 8t24.5 19q11 12 18 28l135 -10q-13 -48 -40 -85q-12 -16 -28 -31.5t-37.5 -27.5t-48.5 -19t-61 -7q-49 0 -91.5 18.5t-74.5 51t-50.5 76t-18.5 94.5t18.5 94.5t50.5 76t74.5 51t91.5 18.5q34 0 61 -7.5
t48.5 -19.5t37.5 -27t28 -31q27 -38 40 -85l-135 -10q-7 15 -18 27q-10 11 -24.5 19.5t-37.5 8.5q-29 0 -46 -11t-27 -24q-11 -16 -17 -35h130v-95z" />
    <glyph glyph-name="afii10102" unicode="&#x455;" horiz-adv-x="445" 
d="M30 0zM160 150q4 -23 19 -36.5t41 -13.5t40.5 12.5t14.5 27.5q0 12 -17.5 19.5t-43.5 15t-56.5 17.5t-56.5 26.5t-43.5 43.5t-17.5 68q0 28 12 53.5t34.5 44.5t55 30.5t73.5 11.5q90 0 137 -40t58 -100l-130 -10q-4 15 -18 27.5t-37 12.5t-34 -10t-11 -25q0 -13 17.5 -20
t43.5 -14.5t56.5 -17.5t56.5 -26.5t43.5 -43.5t17.5 -68q0 -28 -12.5 -54t-36.5 -46.5t-58.5 -32.5t-77.5 -12q-94 0 -141.5 41t-58.5 109z" />
    <glyph glyph-name="afii10103" unicode="&#x456;" horiz-adv-x="250" 
d="M50 0zM190 0h-135v460h135v-460zM50 585q0 30 22.5 52.5t52.5 22.5t52.5 -22.5t22.5 -52.5t-22.5 -52.5t-52.5 -22.5t-52.5 22.5t-22.5 52.5z" />
    <glyph glyph-name="afii10104" unicode="&#x457;" horiz-adv-x="255" 
d="M0 0zM105 575q0 -30 -20 -50t-50 -20t-50 20t-20 50t20 50t50 20t50 -20t20 -50zM290 575q0 -30 -20 -50t-50 -20t-50 20t-20 50t20 50t50 20t50 -20t20 -50zM195 0h-135v460h135v-460z" />
    <glyph glyph-name="afii10105" unicode="&#x458;" horiz-adv-x="235" 
d="M0 0zM185 5q0 -83 -43 -126.5t-122 -43.5q-26 0 -46 5q-11 2 -19 5v120q5 -2 10 -3t11 -1.5t14 -0.5q26 0 43 17.5t17 47.5v435h135v-455zM45 585q0 30 22.5 52.5t52.5 22.5t52.5 -22.5t22.5 -52.5t-22.5 -52.5t-52.5 -22.5t-52.5 22.5t-22.5 52.5z" />
    <glyph glyph-name="afii10106" unicode="&#x459;" horiz-adv-x="715" 
d="M440 460v-150h90q36 0 66 -12.5t52 -33.5t34.5 -49t12.5 -60t-12.5 -60t-34.5 -49t-52 -33.5t-66 -12.5h-225v330h-85l-15 -180q-6 -75 -48 -115t-117 -40q-10 0 -17 0.5t-12 1.5q-6 1 -11 3v115h15q30 0 43 13.5t17 51.5l25 280h340zM505 110q26 0 40.5 13t14.5 32
t-14.5 32t-40.5 13h-65v-90h65z" />
    <glyph glyph-name="afii10107" unicode="&#x45a;" horiz-adv-x="735" 
d="M460 460v-150h90q36 0 66 -12.5t52 -33.5t34.5 -49t12.5 -60t-12.5 -60t-34.5 -49t-52 -33.5t-66 -12.5h-225v180h-160v-180h-135v460h135v-150h160v150h135zM525 110q26 0 40.5 13t14.5 32t-14.5 32t-40.5 13h-65v-90h65z" />
    <glyph glyph-name="afii10108" unicode="&#x45b;" horiz-adv-x="560" 
d="M5 570h70v60h135v-60h110v-110h-110v-90q13 14 31 25q16 9 40.5 17t58.5 8q37 0 69.5 -13.5t55.5 -39t36.5 -61.5t13.5 -81v-225h-135v200q0 45 -23.5 70t-61.5 25t-61.5 -25t-23.5 -70v-200h-135v460h-70v110z" />
    <glyph glyph-name="afii10109" unicode="&#x45c;" horiz-adv-x="450" 
d="M30 0zM240 645h135l-95 -130h-105zM305 0l-140 205v-205h-135v460h135v-185l125 185h155l-155 -220l170 -240h-155z" />
    <glyph glyph-name="afii10110" unicode="&#x45e;" horiz-adv-x="490" 
d="M0 0zM0 460h145l100 -285l100 285h145l-185 -460q-35 -86 -75.5 -125.5t-104.5 -39.5q-8 0 -15.5 0.5t-14.5 1.5q-8 1 -15 3v115q42 0 63 17.5t32 47.5zM245 505q-30 0 -55 10t-44 27t-30.5 41t-15.5 52h95q4 -23 17.5 -36.5t32.5 -13.5t32.5 13.5t17.5 36.5h95
q-8 -56 -46.5 -93t-98.5 -37z" />
    <glyph glyph-name="afii10193" unicode="&#x45f;" horiz-adv-x="525" 
d="M195 0h-145v460h135v-330h155v330h135v-460h-145v-100h-135v100z" />
    <glyph glyph-name="afii10050" unicode="&#x490;" horiz-adv-x="480" 
d="M60 630h265v110h145v-250h-265v-490h-145v630z" />
    <glyph glyph-name="afii10098" unicode="&#x491;" horiz-adv-x="390" 
d="M245 545h135v-215h-195v-330h-135v460h195v85z" />
    <glyph glyph-name="uni1E9E" unicode="&#x1e9e;" horiz-adv-x="635" 
d="M60 0zM560 500l-105 -130q40 -9 72 -32q27 -20 50 -55t23 -93q0 -41 -14.5 -76t-41.5 -60.5t-65 -39.5t-86 -14h-83v130h70q26 0 45.5 20t19.5 50t-19.5 50t-45.5 20h-70v95l100 125h-125q-30 0 -50 -20t-20 -50v-420h-155v420q0 45 16 83.5t45.5 66.5t71 44t92.5 16h275
v-130z" />
    <glyph glyph-name="endash" unicode="&#x2013;" horiz-adv-x="495" 
d="M460 195h-425v120h425v-120z" />
    <glyph glyph-name="emdash" unicode="&#x2014;" horiz-adv-x="740" 
d="M705 195h-670v120h670v-120z" />
    <glyph glyph-name="quoteleft" unicode="&#x2018;" horiz-adv-x="210" 
d="M105 405q-30 0 -52.5 23t-22.5 57q0 47 15.5 80t34.5 54q22 25 50 41l25 -35q-11 -7 -21 -18q-8 -9 -16.5 -22t-12.5 -30q30 0 52.5 -22.5t22.5 -52.5t-22.5 -52.5t-52.5 -22.5z" />
    <glyph glyph-name="quoteright" unicode="&#x2019;" horiz-adv-x="210" 
d="M105 660q30 0 52.5 -23t22.5 -57q0 -48 -15.5 -80.5t-34.5 -53.5q-22 -25 -50 -41l-25 35q11 7 21 18q8 9 16.5 22t12.5 30q-30 0 -52.5 22.5t-22.5 52.5t22.5 52.5t52.5 22.5z" />
    <glyph glyph-name="quotesinglbase" unicode="&#x201a;" horiz-adv-x="210" 
d="M105 145q30 0 52.5 -23t22.5 -57q0 -48 -15.5 -80.5t-34.5 -53.5q-22 -25 -50 -41l-25 35q11 7 21 18q8 9 16.5 22t12.5 30q-30 0 -52.5 22.5t-22.5 52.5t22.5 52.5t52.5 22.5z" />
    <glyph glyph-name="quotedblleft" unicode="&#x201c;" horiz-adv-x="395" 
d="M290 405q-30 0 -52.5 23t-22.5 57q0 47 15.5 80t34.5 54q22 25 50 41l25 -35q-11 -7 -21 -18q-8 -9 -16.5 -22t-12.5 -30q30 0 52.5 -22.5t22.5 -52.5t-22.5 -52.5t-52.5 -22.5zM105 405q-30 0 -52.5 23t-22.5 57q0 47 15.5 80t34.5 54q22 25 50 41l25 -35
q-11 -7 -21 -18q-8 -9 -16.5 -22t-12.5 -30q30 0 52.5 -22.5t22.5 -52.5t-22.5 -52.5t-52.5 -22.5z" />
    <glyph glyph-name="quotedblright" unicode="&#x201d;" horiz-adv-x="395" 
d="M105 660q30 0 52.5 -23t22.5 -57q0 -48 -15.5 -80.5t-34.5 -53.5q-22 -25 -50 -41l-25 35q11 7 21 18q8 9 16.5 22t12.5 30q-30 0 -52.5 22.5t-22.5 52.5t22.5 52.5t52.5 22.5zM290 660q30 0 52.5 -23t22.5 -57q0 -48 -15.5 -80.5t-34.5 -53.5q-22 -25 -50 -41l-25 35
q11 7 21 18q8 9 16.5 22t12.5 30q-30 0 -52.5 22.5t-22.5 52.5t22.5 52.5t52.5 22.5z" />
    <glyph glyph-name="quotedblbase" unicode="&#x201e;" horiz-adv-x="395" 
d="M105 145q30 0 52.5 -23t22.5 -57q0 -48 -15.5 -80.5t-34.5 -53.5q-22 -25 -50 -41l-25 35q11 7 21 18q8 9 16.5 22t12.5 30q-30 0 -52.5 22.5t-22.5 52.5t22.5 52.5t52.5 22.5zM290 145q30 0 52.5 -23t22.5 -57q0 -48 -15.5 -80.5t-34.5 -53.5q-22 -25 -50 -41l-25 35
q11 7 21 18q8 9 16.5 22t12.5 30q-30 0 -52.5 22.5t-22.5 52.5t22.5 52.5t52.5 22.5z" />
    <glyph glyph-name="dagger" unicode="&#x2020;" horiz-adv-x="400" 
d="M365 405h-105v-240h-120v240h-105v115h105v110h120v-110h105v-115z" />
    <glyph glyph-name="daggerdbl" unicode="&#x2021;" horiz-adv-x="400" 
d="M365 435h-105v-75h105v-100h-105v-95h-120v95h-105v100h105v75h-105v100h105v95h120v-95h105v-100z" />
    <glyph glyph-name="bullet" unicode="&#x2022;" horiz-adv-x="380" 
d="M85 270q0 45 30 75t75 30t75 -30t30 -75t-30 -75t-75 -30t-75 30t-30 75z" />
    <glyph glyph-name="ellipsis" unicode="&#x2026;" horiz-adv-x="610" 
d="M30 70q0 30 22.5 52.5t52.5 22.5t52.5 -22.5t22.5 -52.5t-22.5 -52.5t-52.5 -22.5t-52.5 22.5t-22.5 52.5zM230 70q0 30 22.5 52.5t52.5 22.5t52.5 -22.5t22.5 -52.5t-22.5 -52.5t-52.5 -22.5t-52.5 22.5t-22.5 52.5zM430 70q0 30 22.5 52.5t52.5 22.5t52.5 -22.5
t22.5 -52.5t-22.5 -52.5t-52.5 -22.5t-52.5 22.5t-22.5 52.5z" />
    <glyph glyph-name="perthousand" unicode="&#x2030;" horiz-adv-x="970" 
d="M190 0h-115l385 630h115zM220 495q0 23 -16 39t-39 16t-39 -16t-16 -39t16 -39t39 -16t39 16t16 39zM25 495q0 30 10.5 55.5t29.5 44.5t44.5 29.5t55.5 10.5t55.5 -10.5t44.5 -29.5t29.5 -44.5t10.5 -55.5t-10.5 -55.5t-29.5 -44.5t-44.5 -29.5t-55.5 -10.5t-55.5 10.5
t-44.5 29.5t-29.5 44.5t-10.5 55.5zM540 135q0 23 -16 39t-39 16t-39 -16t-16 -39t16 -39t39 -16t39 16t16 39zM345 135q0 30 10.5 55.5t29.5 44.5t44.5 29.5t55.5 10.5t55.5 -10.5t44.5 -29.5t29.5 -44.5t10.5 -55.5t-10.5 -55.5t-29.5 -44.5t-44.5 -29.5t-55.5 -10.5
t-55.5 10.5t-44.5 29.5t-29.5 44.5t-10.5 55.5zM860 135q0 23 -16 39t-39 16t-39 -16t-16 -39t16 -39t39 -16t39 16t16 39zM665 135q0 30 10.5 55.5t29.5 44.5t44.5 29.5t55.5 10.5t55.5 -10.5t44.5 -29.5t29.5 -44.5t10.5 -55.5t-10.5 -55.5t-29.5 -44.5t-44.5 -29.5
t-55.5 -10.5t-55.5 10.5t-44.5 29.5t-29.5 44.5t-10.5 55.5z" />
    <glyph glyph-name="guilsinglleft" unicode="&#x2039;" horiz-adv-x="305" 
d="M275 65h-135l-110 160l110 160h135l-110 -160z" />
    <glyph glyph-name="guilsinglright" unicode="&#x203a;" horiz-adv-x="305" 
d="M140 225l-110 160h135l110 -160l-110 -160h-135z" />
    <glyph glyph-name="fraction" unicode="&#x2044;" horiz-adv-x="120" 
d="M-75 0h-115l385 630h115z" />
    <glyph glyph-name="zerosuperior" unicode="&#x2070;" horiz-adv-x="310" 
d="M115 570q0 -42 12.5 -58.5t27.5 -16.5t27.5 16.5t12.5 58.5t-12.5 58.5t-27.5 16.5t-27.5 -16.5t-12.5 -58.5zM25 570q0 75 36.5 115t93.5 40t93.5 -40t36.5 -115t-36.5 -115t-93.5 -40t-93.5 40t-36.5 115z" />
    <glyph glyph-name="foursuperior" unicode="&#x2074;" horiz-adv-x="280" 
d="M250 475h-35v-55h-90v55h-135v55l120 190h105v-170h35v-75zM130 550v80l-50 -80h50z" />
    <glyph glyph-name="fivesuperior" unicode="&#x2075;" horiz-adv-x="280" 
d="M160 620q19 0 37 -7t32 -20t22.5 -30t8.5 -38q0 -45 -31.5 -77.5t-88.5 -32.5q-45 0 -77 24t-43 66l90 5q3 -6 7 -10t9.5 -7t13.5 -3q11 0 20.5 10t9.5 25t-9.5 25t-20.5 10q-10 0 -15.5 -3.5t-8.5 -8.5q-4 -5 -6 -11h-80l20 183h190v-75h-115l-5 -35q5 2 11 5
q5 2 12 3.5t17 1.5z" />
    <glyph glyph-name="sixsuperior" unicode="&#x2076;" horiz-adv-x="285" 
d="M145 415q-28 0 -51 8.5t-39.5 23.5t-25.5 35t-9 43q0 19 7 37.5t15 33.5q10 18 23 34q15 23 32 45t33 45h95l-65 -90q22 0 42 -8.5t35 -23t24 -33.5t9 -40q0 -23 -9 -43t-25.5 -35t-39.5 -23.5t-51 -8.5zM110 525q0 -19 10 -29.5t25 -10.5t25 10.5t10 29.5t-10 29.5
t-25 10.5t-25 -10.5t-10 -29.5z" />
    <glyph glyph-name="sevensuperior" unicode="&#x2077;" horiz-adv-x="255" 
d="M255 720v-65l-105 -235h-95l100 220h-120v80h220z" />
    <glyph glyph-name="eightsuperior" unicode="&#x2078;" horiz-adv-x="290" 
d="M145 545q-15 0 -25 -10t-10 -25t10 -25t25 -10t25 10t10 25t-10 25t-25 10zM145 415q-30 0 -53.5 7.5t-39 20.5t-24 29t-8.5 33q0 19 7 32.5t15 21.5q10 10 23 16q-10 6 -18 15q-7 8 -12 19t-5 26q0 38 29 64t86 26t86 -26t29 -64q0 -15 -5.5 -26t-12.5 -19
q-8 -9 -17 -15q12 -6 22 -16q8 -8 15.5 -21.5t7.5 -32.5q0 -17 -8.5 -33t-24 -29t-39 -20.5t-53.5 -7.5zM145 605q11 0 20.5 9.5t9.5 20.5t-9.5 20.5t-20.5 9.5t-20.5 -9.5t-9.5 -20.5t9.5 -20.5t20.5 -9.5z" />
    <glyph glyph-name="ninesuperior" unicode="&#x2079;" horiz-adv-x="285" 
d="M140 725q28 0 51 -9t39.5 -24t25.5 -35t9 -42q0 -19 -7.5 -37.5t-15.5 -33.5q-10 -18 -22 -34q-15 -23 -32 -45t-33 -45h-95l65 90q-23 0 -43 8.5t-35 23t-23.5 33.5t-8.5 40q0 22 9 42t25.5 35t39.5 24t51 9zM175 615q0 19 -10 29.5t-25 10.5t-25 -10.5t-10 -29.5
t10 -29.5t25 -10.5t25 10.5t10 29.5z" />
    <glyph glyph-name="zeroinferior" unicode="&#x2080;" horiz-adv-x="310" 
d="M25 0zM115 55q0 -42 12.5 -58.5t27.5 -16.5t27.5 16.5t12.5 58.5t-12.5 58.5t-27.5 16.5t-27.5 -16.5t-12.5 -58.5zM25 55q0 75 36.5 115t93.5 40t93.5 -40t36.5 -115t-36.5 -115t-93.5 -40t-93.5 40t-36.5 115z" />
    <glyph glyph-name="oneinferior" unicode="&#x2081;" horiz-adv-x="250" 
d="M15 0zM180 205v-300h-90v190l-35 -20l-40 65l105 65h60z" />
    <glyph glyph-name="twoinferior" unicode="&#x2082;" horiz-adv-x="280" 
d="M20 0zM255 -20v-75h-230v60l90 80q14 12 25 23q9 10 17 21t8 21q0 25 -30 25q-15 0 -25 -10t-10 -25l-80 5q8 49 37.5 77t82.5 28q60 0 90 -27.5t30 -72.5q0 -15 -5 -27.5t-10 -20.5q-7 -10 -15 -17l-75 -65h100z" />
    <glyph glyph-name="threeinferior" unicode="&#x2083;" horiz-adv-x="285" 
d="M15 0zM20 115q4 42 33.5 68.5t86.5 26.5t86 -26t29 -64q0 -15 -5.5 -26t-12.5 -19q-8 -9 -17 -15q12 -6 22 -16q8 -8 15.5 -20t7.5 -29q0 -38 -34 -66.5t-91 -28.5t-89 29t-36 71l13.5 1t29 1.5t29 1.5l13.5 1q0 -11 10.5 -20.5t25.5 -9.5q22 0 30.5 8.5t8.5 16.5
q0 11 -8.5 18t-30.5 7h-31v65h30q11 0 20.5 6t9.5 14q0 25 -30 25q-35 0 -35 -25z" />
    <glyph glyph-name="fourinferior" unicode="&#x2084;" horiz-adv-x="280" 
d="M0 0zM250 -40h-35v-55h-90v55h-135v55l120 190h105v-170h35v-75zM130 35v80l-50 -80h50z" />
    <glyph glyph-name="fiveinferior" unicode="&#x2085;" horiz-adv-x="280" 
d="M20 0zM160 105q19 0 37 -7t32 -20t22.5 -30t8.5 -38q0 -45 -31.5 -77.5t-88.5 -32.5q-45 0 -77 24t-43 66l90 5q3 -6 7 -10t9.5 -7t13.5 -3q11 0 20.5 10t9.5 25t-9.5 25t-20.5 10q-10 0 -15.5 -3.5t-8.5 -8.5q-4 -5 -6 -11h-80l20 183h190v-75h-115l-5 -35q5 2 11 5
q5 2 12 3.5t17 1.5z" />
    <glyph glyph-name="sixinferior" unicode="&#x2086;" horiz-adv-x="285" 
d="M20 0zM145 -100q-28 0 -51 8.5t-39.5 23.5t-25.5 35t-9 43q0 19 7 37.5t15 33.5q10 18 23 34q15 23 32 45t33 45h95l-65 -90q22 0 42 -8.5t35 -23t24 -33.5t9 -40q0 -23 -9 -43t-25.5 -35t-39.5 -23.5t-51 -8.5zM110 10q0 -19 10 -29.5t25 -10.5t25 10.5t10 29.5
t-10 29.5t-25 10.5t-25 -10.5t-10 -29.5z" />
    <glyph glyph-name="seveninferior" unicode="&#x2087;" horiz-adv-x="255" 
d="M35 0zM255 205v-65l-105 -235h-95l100 220h-120v80h220z" />
    <glyph glyph-name="eightinferior" unicode="&#x2088;" horiz-adv-x="290" 
d="M20 0zM145 30q-15 0 -25 -10t-10 -25t10 -25t25 -10t25 10t10 25t-10 25t-25 10zM145 -100q-30 0 -53.5 7.5t-39 20.5t-24 29t-8.5 33q0 19 7 32.5t15 21.5q10 10 23 16q-10 6 -18 15q-7 8 -12 19t-5 26q0 38 29 64t86 26t86 -26t29 -64q0 -15 -5.5 -26t-12.5 -19
q-8 -9 -17 -15q12 -6 22 -16q8 -8 15.5 -21.5t7.5 -32.5q0 -17 -8.5 -33t-24 -29t-39 -20.5t-53.5 -7.5zM145 90q11 0 20.5 9.5t9.5 20.5t-9.5 20.5t-20.5 9.5t-20.5 -9.5t-9.5 -20.5t9.5 -20.5t20.5 -9.5z" />
    <glyph glyph-name="nineinferior" unicode="&#x2089;" horiz-adv-x="285" 
d="M15 0zM140 210q28 0 51 -9t39.5 -24t25.5 -35t9 -42q0 -19 -7.5 -37.5t-15.5 -33.5q-10 -18 -22 -34q-15 -23 -32 -45t-33 -45h-95l65 90q-23 0 -43 8.5t-35 23t-23.5 33.5t-8.5 40q0 22 9 42t25.5 35t39.5 24t51 9zM175 100q0 19 -10 29.5t-25 10.5t-25 -10.5t-10 -29.5
t10 -29.5t25 -10.5t25 10.5t10 29.5z" />
    <glyph glyph-name="Euro" unicode="&#x20ac;" horiz-adv-x="700" 
d="M20 285h60v50h-60v80h75q20 62 59 110q16 21 38 40.5t50.5 35t64 25t78.5 9.5q58 0 105 -17t82.5 -46.5t60 -69.5t37.5 -87l-145 -10q-11 42 -45.5 71t-94.5 29q-36 0 -61 -14t-42 -31q-19 -20 -32 -45h150v-80h-170v-50h170v-80h-150q13 -22 32 -40q17 -15 42 -27.5
t61 -12.5q60 0 94.5 29t45.5 71l145 -10q-13 -47 -37.5 -87t-60 -69.5t-82.5 -46.5t-105 -17q-43 0 -78.5 9t-64 23.5t-50.5 33.5t-38 39q-39 46 -59 105h-75v80z" />
    <glyph glyph-name="uni20B4" unicode="&#x20b4;" horiz-adv-x="555" 
d="M35 210v80h485v-80h-260q-11 -6 -20 -13q-8 -6 -14 -15.5t-6 -21.5q0 -19 17.5 -34.5t47.5 -15.5q34 0 52 17t18 43l135 -10q-4 -36 -19 -66t-41.5 -52t-65 -34.5t-89.5 -12.5t-89 13t-64 34t-39 48t-13 55q0 17 3.5 29t8.5 20q5 10 13 16h-60zM520 420v-80h-485v80h260
q11 6 20 13q8 6 14 15t6 22q0 19 -17.5 34.5t-47.5 15.5q-34 0 -52 -17t-18 -43l-135 10q4 36 19 66t41.5 52t65 34.5t89.5 12.5t89 -13t64 -34t39 -48t13 -55q0 -17 -4 -29t-9 -20q-5 -10 -12 -16h60z" />
    <glyph glyph-name="uni20BD" unicode="&#x20bd;" horiz-adv-x="580" 
d="M25 0zM25 360h70v270h230q52 0 94 -15t71 -41.5t44.5 -62t15.5 -76.5q0 -39 -15.5 -74t-44.5 -60.5t-71 -40.5t-94 -15h-85v-45h170v-115h-170v-85h-145v85h-70v115h70v45h-70v115zM320 360q38 0 61.5 22.5t23.5 52.5t-23.5 52.5t-61.5 22.5h-80v-150h80z" />
    <glyph glyph-name="afii61352" unicode="&#x2116;" horiz-adv-x="1003" 
d="M958 0h-280v110h280v-110zM868 315q0 23 -13.5 36.5t-36.5 13.5t-36.5 -13.5t-13.5 -36.5t13.5 -36.5t36.5 -13.5t36.5 13.5t13.5 36.5zM668 315q0 32 11.5 59.5t31.5 47.5t47.5 31.5t59.5 11.5t59.5 -11.5t47.5 -31.5t31.5 -47.5t11.5 -59.5t-11.5 -59.5t-31.5 -47.5
t-47.5 -31.5t-59.5 -11.5t-59.5 11.5t-47.5 31.5t-31.5 47.5t-11.5 59.5zM590 630v-630h-130l-255 370v-370h-145v630h130l255 -370v370h145z" />
    <glyph glyph-name="trademark" unicode="&#x2122;" horiz-adv-x="595" 
d="M395 440l-45 65v-135h-85v260h75l70 -105l70 105h75v-260h-85v135l-45 -65h-30zM80 370v180h-70v80h225v-80h-70v-180h-85z" />
    <glyph glyph-name="arrowleft" unicode="&#x2190;" horiz-adv-x="1000" 
d="M410 635v-170l-95 -95h600v-120h-600l95 -95v-170l-325 325z" />
    <glyph glyph-name="arrowup" unicode="&#x2191;" horiz-adv-x="1000" 
d="M825 410h-170l-95 95v-600h-120v600l-95 -95h-170l325 325z" />
    <glyph glyph-name="arrowright" unicode="&#x2192;" horiz-adv-x="1000" 
d="M915 310l-325 -325v170l95 95h-600v120h600l-95 95v170z" />
    <glyph glyph-name="arrowdown" unicode="&#x2193;" horiz-adv-x="1000" 
d="M500 -95l-325 325h170l95 -95v600h120v-600l95 95h170z" />
    <glyph glyph-name="arrowboth" unicode="&#x2194;" horiz-adv-x="1000" 
d="M85 310l325 325v-170l-95 -95h370l-95 95v170l325 -325l-325 -325v170l95 95h-370l95 -95v-170z" />
    <glyph glyph-name="arrowupdn" unicode="&#x2195;" horiz-adv-x="1000" 
d="M500 -95l-325 325h170l95 -95v370l-95 -95h-170l325 325l325 -325h-170l-95 95v-370l95 95h170z" />
    <glyph glyph-name="uni2196" unicode="&#x2196;" horiz-adv-x="1000" 
d="M645 625l-120 -120h-135l425 -425l-85 -85l-425 425v-135l-120 -120v460h460z" />
    <glyph glyph-name="uni2197" unicode="&#x2197;" horiz-adv-x="1000" 
d="M815 625v-460l-120 120v135l-425 -425l-85 85l425 425h-135l-120 120h460z" />
    <glyph glyph-name="uni2198" unicode="&#x2198;" horiz-adv-x="1000" 
d="M355 -5l120 120h135l-425 425l85 85l425 -425v135l120 120v-460h-460z" />
    <glyph glyph-name="uni2199" unicode="&#x2199;" horiz-adv-x="1000" 
d="M185 -5v460l120 -120v-135l425 425l85 -85l-425 -425h135l120 -120h-460z" />
    <glyph glyph-name="minus" unicode="&#x2212;" horiz-adv-x="470" 
d="M435 195h-400v120h400v-120z" />
    <glyph glyph-name="approxequal" unicode="&#x2248;" horiz-adv-x="525" 
d="M490 445q0 -83 -36.5 -124t-93.5 -41q-26 0 -50.5 8t-46 17t-40 17t-33.5 8q-19 0 -32 -13.5t-13 -36.5l-110 10q0 83 36.5 124t93.5 41q26 0 50.5 -8t46 -17t40 -17t33.5 -8q19 0 32 13.5t13 36.5zM490 240q0 -83 -36.5 -124t-93.5 -41q-26 0 -50.5 8t-46 17t-40 17
t-33.5 8q-19 0 -32 -13.5t-13 -36.5l-110 10q0 83 36.5 124t93.5 41q26 0 50.5 -8t46 -17t40 -17t33.5 -8q19 0 32 13.5t13 36.5z" />
    <glyph glyph-name="notequal" unicode="&#x2260;" horiz-adv-x="480" 
d="M80 5l35 90h-80v125h130l30 70h-160v125h210l35 90h120l-35 -90h80v-125h-130l-30 -70h160v-125h-210l-35 -90h-120z" />
    <glyph glyph-name="lessequal" unicode="&#x2264;" horiz-adv-x="470" 
d="M430 0h-390v105h390v-105zM430 130l-385 140v100l385 140v-115l-225 -75l225 -75v-115z" />
    <glyph glyph-name="greaterequal" unicode="&#x2265;" horiz-adv-x="470" 
d="M40 105h390v-105h-390v105zM40 510l385 -140v-100l-385 -140v115l225 75l-225 75v115z" />
    <glyph glyph-name="uni2460" unicode="&#x2460;" horiz-adv-x="1000" 
d="M570 520v-400h-110v275l-50 -30l-50 75l115 80h95zM500 750q90 0 168.5 -33.5t136.5 -91.5t91.5 -136.5t33.5 -168.5t-33.5 -168.5t-91.5 -136.5t-136.5 -91.5t-168.5 -33.5t-168.5 33.5t-136.5 91.5t-91.5 136.5t-33.5 168.5t33.5 168.5t91.5 136.5t136.5 91.5
t168.5 33.5zM500 630q-64 0 -120.5 -24.5t-98.5 -66.5t-66.5 -98.5t-24.5 -120.5t24.5 -120.5t66.5 -98.5t98.5 -66.5t120.5 -24.5t120.5 24.5t98.5 66.5t66.5 98.5t24.5 120.5t-24.5 120.5t-66.5 98.5t-98.5 66.5t-120.5 24.5z" />
    <glyph glyph-name="uni2461" unicode="&#x2461;" horiz-adv-x="1000" 
d="M500 750q90 0 168.5 -33.5t136.5 -91.5t91.5 -136.5t33.5 -168.5t-33.5 -168.5t-91.5 -136.5t-136.5 -91.5t-168.5 -33.5t-168.5 33.5t-136.5 91.5t-91.5 136.5t-33.5 168.5t33.5 168.5t91.5 136.5t136.5 91.5t168.5 33.5zM650 220v-100h-290v70l140 145q11 11 23 26.5
t12 38.5q0 11 -10 20.5t-25 9.5t-27.5 -11t-12.5 -34l-110 10q2 28 13.5 52.5t31.5 43t46.5 29t58.5 10.5q34 0 60.5 -10.5t45.5 -27.5t29 -40t10 -47q0 -42 -13.5 -67t-36.5 -48l-68 -70h123zM500 630q-64 0 -120.5 -24.5t-98.5 -66.5t-66.5 -98.5t-24.5 -120.5
t24.5 -120.5t66.5 -98.5t98.5 -66.5t120.5 -24.5t120.5 24.5t98.5 66.5t66.5 98.5t24.5 120.5t-24.5 120.5t-66.5 98.5t-98.5 66.5t-120.5 24.5z" />
    <glyph glyph-name="uni2462" unicode="&#x2462;" horiz-adv-x="1000" 
d="M590 330q18 -7 32 -19q12 -11 22.5 -29.5t10.5 -46.5q0 -24 -11 -47t-31 -40t-48.5 -27.5t-64.5 -10.5t-65 10.5t-49.5 28.5t-32 41.5t-13.5 49.5l115 10q0 -19 13 -29.5t32 -10.5q18 0 31.5 9.5t13.5 26.5q0 14 -13 24t-32 10h-40v90h40q15 0 25 7.5t10 22.5t-10 22.5
t-25 7.5q-19 0 -29.5 -10t-10.5 -25l-110 10q4 53 43 89t107 36q34 0 60.5 -9.5t45.5 -25.5t29 -37t10 -43q0 -25 -8.5 -41t-19.5 -26q-12 -11 -27 -18zM500 750q90 0 168.5 -33.5t136.5 -91.5t91.5 -136.5t33.5 -168.5t-33.5 -168.5t-91.5 -136.5t-136.5 -91.5
t-168.5 -33.5t-168.5 33.5t-136.5 91.5t-91.5 136.5t-33.5 168.5t33.5 168.5t91.5 136.5t136.5 91.5t168.5 33.5zM500 630q-64 0 -120.5 -24.5t-98.5 -66.5t-66.5 -98.5t-24.5 -120.5t24.5 -120.5t66.5 -98.5t98.5 -66.5t120.5 -24.5t120.5 24.5t98.5 66.5t66.5 98.5
t24.5 120.5t-24.5 120.5t-66.5 98.5t-98.5 66.5t-120.5 24.5z" />
    <glyph glyph-name="uni2463" unicode="&#x2463;" horiz-adv-x="1000" 
d="M645 190h-40v-70h-110v70h-170v90l155 240h125v-230h40v-100zM500 290v100l-65 -100h65zM500 750q90 0 168.5 -33.5t136.5 -91.5t91.5 -136.5t33.5 -168.5t-33.5 -168.5t-91.5 -136.5t-136.5 -91.5t-168.5 -33.5t-168.5 33.5t-136.5 91.5t-91.5 136.5t-33.5 168.5
t33.5 168.5t91.5 136.5t136.5 91.5t168.5 33.5zM500 630q-64 0 -120.5 -24.5t-98.5 -66.5t-66.5 -98.5t-24.5 -120.5t24.5 -120.5t66.5 -98.5t98.5 -66.5t120.5 -24.5t120.5 24.5t98.5 66.5t66.5 98.5t24.5 120.5t-24.5 120.5t-66.5 98.5t-98.5 66.5t-120.5 24.5z" />
    <glyph glyph-name="uni2464" unicode="&#x2464;" horiz-adv-x="1000" 
d="M520 390q60 0 97.5 -37.5t37.5 -97.5q0 -64 -41.5 -104.5t-113.5 -40.5q-68 0 -107.5 36t-47.5 89l110 10q4 -15 15 -25t30 -10t32 13t13 32t-13 32t-32 13q-11 0 -18.5 -3t-12.5 -7t-9 -10h-105l32 240h238v-100h-150l-5 -40q6 2 14 5q7 2 16 3.5t20 1.5zM500 750
q90 0 168.5 -33.5t136.5 -91.5t91.5 -136.5t33.5 -168.5t-33.5 -168.5t-91.5 -136.5t-136.5 -91.5t-168.5 -33.5t-168.5 33.5t-136.5 91.5t-91.5 136.5t-33.5 168.5t33.5 168.5t91.5 136.5t136.5 91.5t168.5 33.5zM500 630q-64 0 -120.5 -24.5t-98.5 -66.5t-66.5 -98.5
t-24.5 -120.5t24.5 -120.5t66.5 -98.5t98.5 -66.5t120.5 -24.5t120.5 24.5t98.5 66.5t66.5 98.5t24.5 120.5t-24.5 120.5t-66.5 98.5t-98.5 66.5t-120.5 24.5z" />
    <glyph glyph-name="uni2465" unicode="&#x2465;" horiz-adv-x="1000" 
d="M500 110q-34 0 -62.5 11.5t-49 31t-32 46t-11.5 56.5q0 24 7 47t15 40q10 20 23 38l95 140h115l-85 -120q30 -4 55.5 -16t44.5 -30.5t29.5 -43.5t10.5 -55t-11.5 -56.5t-32 -46t-49 -31t-62.5 -11.5zM455 255q0 -19 13 -32t32 -13t32 13t13 32t-13 32t-32 13t-32 -13
t-13 -32zM500 750q90 0 168.5 -33.5t136.5 -91.5t91.5 -136.5t33.5 -168.5t-33.5 -168.5t-91.5 -136.5t-136.5 -91.5t-168.5 -33.5t-168.5 33.5t-136.5 91.5t-91.5 136.5t-33.5 168.5t33.5 168.5t91.5 136.5t136.5 91.5t168.5 33.5zM500 630q-64 0 -120.5 -24.5t-98.5 -66.5
t-66.5 -98.5t-24.5 -120.5t24.5 -120.5t66.5 -98.5t98.5 -66.5t120.5 -24.5t120.5 24.5t98.5 66.5t66.5 98.5t24.5 120.5t-24.5 120.5t-66.5 98.5t-98.5 66.5t-120.5 24.5z" />
    <glyph glyph-name="uni2466" unicode="&#x2466;" horiz-adv-x="1000" 
d="M645 520v-85l-150 -315h-115l145 300h-155v100h275zM500 750q90 0 168.5 -33.5t136.5 -91.5t91.5 -136.5t33.5 -168.5t-33.5 -168.5t-91.5 -136.5t-136.5 -91.5t-168.5 -33.5t-168.5 33.5t-136.5 91.5t-91.5 136.5t-33.5 168.5t33.5 168.5t91.5 136.5t136.5 91.5
t168.5 33.5zM500 630q-64 0 -120.5 -24.5t-98.5 -66.5t-66.5 -98.5t-24.5 -120.5t24.5 -120.5t66.5 -98.5t98.5 -66.5t120.5 -24.5t120.5 24.5t98.5 66.5t66.5 98.5t24.5 120.5t-24.5 120.5t-66.5 98.5t-98.5 66.5t-120.5 24.5z" />
    <glyph glyph-name="uni2467" unicode="&#x2467;" horiz-adv-x="1000" 
d="M500 200q19 0 32 10.5t13 29.5t-13 29.5t-32 10.5t-32 -10.5t-13 -29.5t13 -29.5t32 -10.5zM500 375q15 0 25 9.5t10 22.5q0 14 -10 23.5t-25 9.5t-25 -9.5t-10 -23.5q0 -13 10 -22.5t25 -9.5zM500 110q-38 0 -67.5 10.5t-50 28.5t-31.5 41.5t-11 49.5q0 27 10.5 44.5
t24.5 27.5q15 11 35 18q-16 8 -28 20q-11 11 -19 26.5t-8 38.5q0 22 10 43t28.5 37t45.5 25.5t61 9.5t60.5 -9.5t45.5 -25.5t29 -37t10 -43q0 -23 -8.5 -38.5t-19.5 -26.5q-12 -12 -27 -20q19 -7 35 -19q13 -11 24 -28t11 -43t-11 -49.5t-31.5 -41.5t-50.5 -28.5t-67 -10.5z
M500 750q90 0 168.5 -33.5t136.5 -91.5t91.5 -136.5t33.5 -168.5t-33.5 -168.5t-91.5 -136.5t-136.5 -91.5t-168.5 -33.5t-168.5 33.5t-136.5 91.5t-91.5 136.5t-33.5 168.5t33.5 168.5t91.5 136.5t136.5 91.5t168.5 33.5zM500 630q-64 0 -120.5 -24.5t-98.5 -66.5
t-66.5 -98.5t-24.5 -120.5t24.5 -120.5t66.5 -98.5t98.5 -66.5t120.5 -24.5t120.5 24.5t98.5 66.5t66.5 98.5t24.5 120.5t-24.5 120.5t-66.5 98.5t-98.5 66.5t-120.5 24.5z" />
    <glyph glyph-name="uni2468" unicode="&#x2468;" horiz-adv-x="1000" 
d="M500 530q34 0 62.5 -11.5t49 -31t32 -46t11.5 -56.5q0 -25 -7.5 -47.5t-15.5 -39.5q-10 -20 -22 -38l-95 -140h-115l85 120q-30 4 -55.5 15.5t-44.5 30.5t-29.5 44t-10.5 55t11.5 56.5t32 46t49 31t62.5 11.5zM545 385q0 19 -13 32t-32 13t-32 -13t-13 -32t13 -32t32 -13
t32 13t13 32zM500 -110q-90 0 -168.5 33.5t-136.5 91.5t-91.5 136.5t-33.5 168.5t33.5 168.5t91.5 136.5t136.5 91.5t168.5 33.5t168.5 -33.5t136.5 -91.5t91.5 -136.5t33.5 -168.5t-33.5 -168.5t-91.5 -136.5t-136.5 -91.5t-168.5 -33.5zM500 10q64 0 120.5 24.5t98.5 66.5
t66.5 98.5t24.5 120.5t-24.5 120.5t-66.5 98.5t-98.5 66.5t-120.5 24.5t-120.5 -24.5t-98.5 -66.5t-66.5 -98.5t-24.5 -120.5t24.5 -120.5t66.5 -98.5t98.5 -66.5t120.5 -24.5z" />
    <glyph glyph-name="uni24EA" unicode="&#x24ea;" horiz-adv-x="1000" 
d="M435 320q0 -60 19.5 -85t45.5 -25t45.5 25t19.5 85t-19.5 85t-45.5 25t-45.5 -25t-19.5 -85zM675 320q0 -49 -14 -88t-38 -66t-55.5 -41.5t-67.5 -14.5t-67.5 14.5t-55.5 41.5t-38 66t-14 88t14 88t38 66t55.5 41.5t67.5 14.5t67.5 -14.5t55.5 -41.5t38 -66t14 -88z
M500 750q90 0 168.5 -33.5t136.5 -91.5t91.5 -136.5t33.5 -168.5t-33.5 -168.5t-91.5 -136.5t-136.5 -91.5t-168.5 -33.5t-168.5 33.5t-136.5 91.5t-91.5 136.5t-33.5 168.5t33.5 168.5t91.5 136.5t136.5 91.5t168.5 33.5zM500 630q-64 0 -120.5 -24.5t-98.5 -66.5
t-66.5 -98.5t-24.5 -120.5t24.5 -120.5t66.5 -98.5t98.5 -66.5t120.5 -24.5t120.5 24.5t98.5 66.5t66.5 98.5t24.5 120.5t-24.5 120.5t-66.5 98.5t-98.5 66.5t-120.5 24.5z" />
    <glyph glyph-name="uni24FF" unicode="&#x24ff;" horiz-adv-x="1000" 
d="M435 320q0 60 19.5 85t45.5 25t45.5 -25t19.5 -85t-19.5 -85t-45.5 -25t-45.5 25t-19.5 85zM675 320q0 49 -14 88t-38 66t-55.5 41.5t-67.5 14.5t-67.5 -14.5t-55.5 -41.5t-38 -66t-14 -88t14 -88t38 -66t55.5 -41.5t67.5 -14.5t67.5 14.5t55.5 41.5t38 66t14 88z
M500 750q90 0 168.5 -33.5t136.5 -91.5t91.5 -136.5t33.5 -168.5t-33.5 -168.5t-91.5 -136.5t-136.5 -91.5t-168.5 -33.5t-168.5 33.5t-136.5 91.5t-91.5 136.5t-33.5 168.5t33.5 168.5t91.5 136.5t136.5 91.5t168.5 33.5z" />
    <glyph glyph-name="uni2776" unicode="&#x2776;" horiz-adv-x="1000" 
d="M475 520l-115 -80l50 -75l50 30v-275h110v400h-95zM500 750q90 0 168.5 -33.5t136.5 -91.5t91.5 -136.5t33.5 -168.5t-33.5 -168.5t-91.5 -136.5t-136.5 -91.5t-168.5 -33.5t-168.5 33.5t-136.5 91.5t-91.5 136.5t-33.5 168.5t33.5 168.5t91.5 136.5t136.5 91.5
t168.5 33.5z" />
    <glyph glyph-name="uni2777" unicode="&#x2777;" horiz-adv-x="1000" 
d="M500 750q90 0 168.5 -33.5t136.5 -91.5t91.5 -136.5t33.5 -168.5t-33.5 -168.5t-91.5 -136.5t-136.5 -91.5t-168.5 -33.5t-168.5 33.5t-136.5 91.5t-91.5 136.5t-33.5 168.5t33.5 168.5t91.5 136.5t136.5 91.5t168.5 33.5zM527 220l68 70q23 23 36.5 48t13.5 67
q0 24 -10 47t-29 40t-45.5 27.5t-60.5 10.5q-32 0 -58.5 -10.5t-46.5 -29t-31.5 -43t-13.5 -52.5l110 -10q0 23 12.5 34t27.5 11t25 -9.5t10 -20.5q0 -23 -12 -38.5t-23 -26.5l-140 -145v-70h290v100h-123z" />
    <glyph glyph-name="uni2778" unicode="&#x2778;" horiz-adv-x="1000" 
d="M590 330q15 7 27 18q11 10 19.5 26t8.5 41q0 22 -10 43t-29 37t-45.5 25.5t-60.5 9.5q-68 0 -107 -36t-43 -89l110 -10q0 15 10.5 25t29.5 10q15 0 25 -7.5t10 -22.5t-10 -22.5t-25 -7.5h-40v-90h40q19 0 32 -10t13 -24q0 -17 -13.5 -26.5t-31.5 -9.5q-19 0 -32 10.5
t-13 29.5l-115 -10q2 -26 13.5 -49.5t32 -41.5t49.5 -28.5t65 -10.5t64.5 10.5t48.5 27.5t31 40t11 47q0 28 -10.5 46.5t-22.5 29.5q-14 12 -32 19zM500 750q90 0 168.5 -33.5t136.5 -91.5t91.5 -136.5t33.5 -168.5t-33.5 -168.5t-91.5 -136.5t-136.5 -91.5t-168.5 -33.5
t-168.5 33.5t-136.5 91.5t-91.5 136.5t-33.5 168.5t33.5 168.5t91.5 136.5t136.5 91.5t168.5 33.5z" />
    <glyph glyph-name="uni2779" unicode="&#x2779;" horiz-adv-x="1000" 
d="M645 290h-40v230h-125l-155 -240v-90h170v-70h110v70h40v100zM435 290l65 100v-100h-65zM500 750q90 0 168.5 -33.5t136.5 -91.5t91.5 -136.5t33.5 -168.5t-33.5 -168.5t-91.5 -136.5t-136.5 -91.5t-168.5 -33.5t-168.5 33.5t-136.5 91.5t-91.5 136.5t-33.5 168.5
t33.5 168.5t91.5 136.5t136.5 91.5t168.5 33.5z" />
    <glyph glyph-name="uni277A" unicode="&#x277a;" horiz-adv-x="1000" 
d="M520 390q-11 0 -20 -1.5t-16 -3.5q-8 -3 -14 -5l5 40h150v100h-238l-32 -240h105q4 6 9 10t12.5 7t18.5 3q19 0 32 -13t13 -32t-13 -32t-32 -13t-30 10t-15 25l-110 -10q8 -53 47.5 -89t107.5 -36q72 0 113.5 40.5t41.5 104.5q0 60 -37.5 97.5t-97.5 37.5zM500 750
q90 0 168.5 -33.5t136.5 -91.5t91.5 -136.5t33.5 -168.5t-33.5 -168.5t-91.5 -136.5t-136.5 -91.5t-168.5 -33.5t-168.5 33.5t-136.5 91.5t-91.5 136.5t-33.5 168.5t33.5 168.5t91.5 136.5t136.5 91.5t168.5 33.5z" />
    <glyph glyph-name="uni277B" unicode="&#x277b;" horiz-adv-x="1000" 
d="M500 110q34 0 62.5 11.5t49 31t32 46t11.5 56.5t-10.5 55t-29.5 43.5t-44.5 30.5t-55.5 16l85 120h-115l-95 -140q-13 -18 -23 -38q-8 -17 -15 -40t-7 -47q0 -30 11.5 -56.5t32 -46t49 -31t62.5 -11.5zM455 255q0 19 13 32t32 13t32 -13t13 -32t-13 -32t-32 -13t-32 13
t-13 32zM500 750q90 0 168.5 -33.5t136.5 -91.5t91.5 -136.5t33.5 -168.5t-33.5 -168.5t-91.5 -136.5t-136.5 -91.5t-168.5 -33.5t-168.5 33.5t-136.5 91.5t-91.5 136.5t-33.5 168.5t33.5 168.5t91.5 136.5t136.5 91.5t168.5 33.5z" />
    <glyph glyph-name="uni277C" unicode="&#x277c;" horiz-adv-x="1000" 
d="M370 520v-100h155l-145 -300h115l150 315v85h-275zM500 750q90 0 168.5 -33.5t136.5 -91.5t91.5 -136.5t33.5 -168.5t-33.5 -168.5t-91.5 -136.5t-136.5 -91.5t-168.5 -33.5t-168.5 33.5t-136.5 91.5t-91.5 136.5t-33.5 168.5t33.5 168.5t91.5 136.5t136.5 91.5
t168.5 33.5z" />
    <glyph glyph-name="uni277D" unicode="&#x277d;" horiz-adv-x="1000" 
d="M500 200q-19 0 -32 10.5t-13 29.5t13 29.5t32 10.5t32 -10.5t13 -29.5t-13 -29.5t-32 -10.5zM500 375q-15 0 -25 9.5t-10 22.5q0 14 10 23.5t25 9.5t25 -9.5t10 -23.5q0 -13 -10 -22.5t-25 -9.5zM500 110q37 0 67 10.5t50.5 28.5t31.5 41.5t11 49.5t-11 43t-24 28
q-16 12 -35 19q15 8 27 20q11 11 19.5 26.5t8.5 38.5q0 22 -10 43t-29 37t-45.5 25.5t-60.5 9.5t-61 -9.5t-45.5 -25.5t-28.5 -37t-10 -43q0 -23 8 -38.5t19 -26.5q12 -12 28 -20q-20 -7 -35 -18q-14 -10 -24.5 -27.5t-10.5 -44.5q0 -26 11 -49.5t31.5 -41.5t50 -28.5
t67.5 -10.5zM500 750q90 0 168.5 -33.5t136.5 -91.5t91.5 -136.5t33.5 -168.5t-33.5 -168.5t-91.5 -136.5t-136.5 -91.5t-168.5 -33.5t-168.5 33.5t-136.5 91.5t-91.5 136.5t-33.5 168.5t33.5 168.5t91.5 136.5t136.5 91.5t168.5 33.5z" />
    <glyph glyph-name="uni277E" unicode="&#x277e;" horiz-adv-x="1000" 
d="M500 530q-34 0 -62.5 -11.5t-49 -31t-32 -46t-11.5 -56.5t10.5 -55t29.5 -44t44.5 -30.5t55.5 -15.5l-85 -120h115l95 140q12 18 22 38q8 17 15.5 39.5t7.5 47.5q0 30 -11.5 56.5t-32 46t-49 31t-62.5 11.5zM545 385q0 -19 -13 -32t-32 -13t-32 13t-13 32t13 32t32 13
t32 -13t13 -32zM500 -110q-90 0 -168.5 33.5t-136.5 91.5t-91.5 136.5t-33.5 168.5t33.5 168.5t91.5 136.5t136.5 91.5t168.5 33.5t168.5 -33.5t136.5 -91.5t91.5 -136.5t33.5 -168.5t-33.5 -168.5t-91.5 -136.5t-136.5 -91.5t-168.5 -33.5z" />
    <glyph glyph-name="commaaccent" unicode="&#xf6c3;" horiz-adv-x="200" 
d="M100 -35q30 0 50 -20.5t20 -54.5q0 -40 -15.5 -69.5t-34.5 -49.5q-22 -24 -50 -41l-20 30q11 7 21 17q8 8 16.5 20.5t12.5 27.5q-30 0 -50 20t-20 50t20 50t50 20z" />
    <glyph glyph-name="cyrBreve" unicode="&#xf6d1;" horiz-adv-x="350" 
d="M175 685q-30 0 -55 10t-44 27t-30.5 41t-15.5 52h95q4 -23 17.5 -36.5t32.5 -13.5t32.5 13.5t17.5 36.5h95q-8 -56 -46.5 -93t-98.5 -37z" />
    <glyph glyph-name="cyrbreve" unicode="&#xf6d4;" horiz-adv-x="350" 
d="M175 505q-30 0 -55 10t-44 27t-30.5 41t-15.5 52h95q4 -23 17.5 -36.5t32.5 -13.5t32.5 13.5t17.5 36.5h95q-8 -56 -46.5 -93t-98.5 -37z" />
    <glyph glyph-name="s_t" unicode="&#xfb06;" horiz-adv-x="804" 
d="M529 335h-70v115h35q55 0 55 55q0 23 -24 44t-66 21q-45 0 -72.5 -26.5t-27.5 -68.5q0 -23 6.5 -39t15 -31.5t17 -33t12.5 -41.5l-130 -10q-4 15 -18 27.5t-37 12.5t-34 -10t-11 -25q0 -13 17.5 -20t43.5 -14.5t56.5 -17.5t56.5 -26.5t43.5 -43.5t17.5 -68
q0 -28 -12.5 -54t-36.5 -46.5t-58.5 -32.5t-77.5 -12q-94 0 -141.5 41t-58.5 109l130 10q4 -23 19 -36.5t41 -13.5t40.5 12.5t14.5 27.5q0 12 -17.5 19.5t-43.5 15t-56.5 17.5t-56.5 26.5t-43.5 43.5t-17.5 68q0 27 11.5 52.5t33 45t53 31t71.5 11.5q5 0 10.5 -1t10.5 -2
t9 -2q-2 5 -3 10t-1.5 11t-0.5 14q0 37 15.5 71t44 59t69 40t91.5 15q49 0 88 -14t66 -39t41.5 -59t14.5 -73v-40h95v-125h-95v-150q0 -30 17 -47.5t43 -17.5q8 0 14 0.5t11 1.5t10 3v-120q-8 -3 -18 -5q-20 -5 -47 -5q-79 0 -122 43.5t-43 126.5v170z" />
    <glyph glyph-name="lslash.alt" horiz-adv-x="330" 
d="M85 220l-75 -50v130l75 50v280h135v-185l75 50v-130l-75 -50v-130q0 -30 17 -47.5t43 -17.5q8 0 14 0.5t11 1.5t10 3v-120q-8 -3 -19 -5q-20 -5 -46 -5q-79 0 -122 43.5t-43 126.5v55z" />
    <glyph glyph-name="Germandbls" horiz-adv-x="635" 
d="M560 500l-105 -130q40 -9 72 -32q27 -20 50 -55t23 -93q0 -41 -14.5 -76t-41.5 -60.5t-65 -39.5t-86 -14h-83v130h70q26 0 45.5 20t19.5 50t-19.5 50t-45.5 20h-70v95l100 125h-125q-30 0 -50 -20t-20 -50v-420h-155v420q0 45 16 83.5t45.5 66.5t71 44t92.5 16h275v-130z
" />
    <glyph glyph-name="a.alt" horiz-adv-x="545" 
d="M245 -5q-43 0 -82 17.5t-68.5 49t-47 74.5t-17.5 94t17.5 94t47 74.5t68.5 49t82 17.5q30 0 54 -8t41 -17q19 -11 35 -25l20 45h100v-460h-100l-20 45q-16 -14 -35 -25q-17 -10 -41 -17.5t-54 -7.5zM165 230q0 -49 29 -79.5t71 -30.5t71 30.5t29 79.5t-29 79.5t-71 30.5
t-71 -30.5t-29 -79.5z" />
    <glyph glyph-name="afii10085.alt" horiz-adv-x="490" 
d="M0 460h145l100 -285l100 285h145l-250 -620h-140l75 180z" />
    <glyph glyph-name="l.alt" horiz-adv-x="290" 
d="M50 630h135v-445q0 -30 17 -47.5t43 -17.5q8 0 14 0.5t11 1.5t10 3v-120q-8 -3 -19 -5q-20 -5 -46 -5q-79 0 -122 43.5t-43 126.5v465z" />
    <glyph glyph-name="y.alt" horiz-adv-x="535" 
d="M230 15q-41 0 -75 13.5t-58.5 39t-38 61.5t-13.5 81v250h135v-225q0 -45 23.5 -70t61.5 -25t61.5 25t23.5 70v225h135v-420q0 -45 -16 -83.5t-45.5 -66.5t-71 -44t-92.5 -16q-33 0 -59.5 6.5t-47 17.5t-35.5 24.5t-26 28.5q-26 34 -37 78l135 10q4 -13 14 -23
q8 -8 21.5 -15t34.5 -7q38 0 64 26t26 64v15q-16 -11 -34 -20q-16 -8 -38 -14t-48 -6z" />
    <glyph glyph-name="I.alt" horiz-adv-x="395" 
d="M270 130h95v-130h-335v130h95v370h-95v130h335v-130h-95v-370z" />
    <glyph glyph-name="c_t" horiz-adv-x="855" 
d="M580 335h-70v115h35q55 0 55 55q0 23 -24 44t-66 21q-45 0 -72.5 -26.5t-27.5 -68.5q0 -28 9.5 -49t22.5 -41.5t25 -42.5t18 -52l-135 -10q-7 18 -18 32q-10 12 -26.5 22.5t-40.5 10.5q-42 0 -71 -31t-29 -84t29 -84t71 -31q24 0 40.5 10t26.5 22q11 14 18 33l135 -10
q-13 -50 -41 -90q-12 -17 -28.5 -33t-38.5 -29t-50 -20.5t-62 -7.5q-49 0 -91.5 18.5t-74.5 51t-50.5 76t-18.5 94.5t18.5 94.5t50 76t73 51t88.5 18.5q8 0 13 -1t9 -2l8 -2q-2 5 -3 10t-1.5 11t-0.5 14q0 37 15.5 71t44 59t69 40t91.5 15q49 0 88 -14t66 -39t41.5 -59
t14.5 -73v-40h95v-125h-95v-150q0 -30 17 -47.5t43 -17.5q8 0 14 0.5t11 1.5t10 3v-120q-8 -3 -18 -5q-20 -5 -47 -5q-79 0 -122 43.5t-43 126.5v170z" />
    <glyph glyph-name="foundryicon" horiz-adv-x="1538" 
d="M278 429h-72v-199h-35v199h-71v31h178v-31zM519 396q32 0 54.5 -24.5t22.5 -59.5q0 -36 -22.5 -60.5t-54.5 -24.5q-29 0 -47 21v-79h-34v224h24l9 -19q8 10 20.5 16t27.5 6zM516 258q19 0 33 15.5t14 38.5q0 21 -14 36.5t-33 15.5q-20 0 -33.5 -15.5t-13.5 -36.5
q0 -23 13.5 -38.5t33.5 -15.5zM377 393h37l-77 -190q-16 -34 -49 -34q-7 0 -10 1v28q23 0 31 20l6 16l-63 159h37l44 -116zM701 396q32 0 54 -24t22 -59q0 -2 -0.5 -4.5t-0.5 -4.5v-6h-119q2 -17 14.5 -29t29.5 -12q12 0 22 4t15 13h35q-9 -23 -29 -35t-43 -12
q-32 0 -55 24.5t-23 60.5q0 17 6 32.5t16.5 27t25 18t30.5 6.5zM745 325q-1 17 -14.5 28.5t-29.5 11.5t-29 -10.5t-15 -29.5h88zM939 429h-72v-199h-35v199h-71v31h178v-31zM1180 396q32 0 54.5 -24.5t22.5 -59.5q0 -36 -22.5 -60.5t-54.5 -24.5q-29 0 -47 21v-79h-34v224
h24l9 -19q8 10 20.5 16t27.5 6zM1177 258q19 0 33 15.5t14 38.5q0 21 -14 36.5t-33 15.5q-20 0 -33.5 -15.5t-13.5 -36.5q0 -23 13.5 -38.5t33.5 -15.5zM1038 393h37l-77 -190q-16 -34 -49 -34q-7 0 -10 1v28q23 0 31 20l6 16l-63 159h37l44 -116zM1362 396q32 0 54 -24
t22 -59q0 -2 -0.5 -4.5t-0.5 -4.5v-6h-119q2 -17 14.5 -29t29.5 -12q12 0 22 4t15 13h35q-9 -23 -29 -35t-43 -12q-32 0 -55 24.5t-23 60.5q0 17 6 32.5t16.5 27t25 18t30.5 6.5zM1406 325q-1 17 -14.5 28.5t-29.5 11.5t-29 -10.5t-15 -29.5h88z" />
    <glyph glyph-name="r_f" horiz-adv-x="570" 
d="M315 465q0 83 43 126.5t122 43.5q14 0 26 -1.5t21 -3.5q10 -3 18 -5v-120l-10 2t-11 2t-14 1q-26 0 -43 -16t-17 -39v-5h95v-115h-95v-335h-135v335h-50q-34 0 -57 -25.5t-23 -74.5v-235h-135v460h100l20 -50q9 11 25 20q13 8 34 14t51 6h35v15z" />
    <glyph glyph-name="r_t" horiz-adv-x="590" 
d="M315 335h-49q-35 0 -58 -25.5t-23 -74.5v-235h-135v460h100l20 -50q9 11 25 20q13 8 34 14t51 6h10q19 0 32 14.5t13 40.5v65h115v-120h95v-115h-95v-150q0 -30 17 -47.5t43 -17.5q8 0 14 0.5t11 1.5t10 3v-120q-8 -3 -18 -5q-20 -5 -47 -5q-79 0 -122 43.5t-43 126.5
v170z" />
    <glyph glyph-name="afii10065.alt" horiz-adv-x="545" 
d="M30 0zM245 -5q-43 0 -82 17.5t-68.5 49t-47 74.5t-17.5 94t17.5 94t47 74.5t68.5 49t82 17.5q30 0 54 -8t41 -17q19 -11 35 -25l20 45h100v-460h-100l-20 45q-16 -14 -35 -25q-17 -10 -41 -17.5t-54 -7.5zM165 230q0 -49 29 -79.5t71 -30.5t71 30.5t29 79.5t-29 79.5
t-71 30.5t-71 -30.5t-29 -79.5z" />
    <glyph glyph-name="afii10110.alt" horiz-adv-x="490" 
d="M0 0zM0 460h145l100 -285l100 285h145l-250 -620h-140l75 180zM245 505q-30 0 -55 10t-44 27t-30.5 41t-15.5 52h95q4 -23 17.5 -36.5t32.5 -13.5t32.5 13.5t17.5 36.5h95q-8 -56 -46.5 -93t-98.5 -37z" />
    <glyph glyph-name="agrave.alt" horiz-adv-x="545" 
d="M30 0zM245 -5q-43 0 -82 17.5t-68.5 49t-47 74.5t-17.5 94t17.5 94t47 74.5t68.5 49t82 17.5q30 0 54 -8t41 -17q19 -11 35 -25l20 45h100v-460h-100l-20 45q-16 -14 -35 -25q-17 -10 -41 -17.5t-54 -7.5zM165 230q0 -49 29 -79.5t71 -30.5t71 30.5t29 79.5t-29 79.5
t-71 30.5t-71 -30.5t-29 -79.5zM335 520h-105l-95 130h135z" />
    <glyph glyph-name="aacute.alt" horiz-adv-x="545" 
d="M30 0zM245 -5q-43 0 -82 17.5t-68.5 49t-47 74.5t-17.5 94t17.5 94t47 74.5t68.5 49t82 17.5q30 0 54 -8t41 -17q19 -11 35 -25l20 45h100v-460h-100l-20 45q-16 -14 -35 -25q-17 -10 -41 -17.5t-54 -7.5zM165 230q0 -49 29 -79.5t71 -30.5t71 30.5t29 79.5t-29 79.5
t-71 30.5t-71 -30.5t-29 -79.5zM285 650h135l-95 -130h-105z" />
    <glyph glyph-name="abreve.alt" horiz-adv-x="545" 
d="M30 0zM245 -5q-43 0 -82 17.5t-68.5 49t-47 74.5t-17.5 94t17.5 94t47 74.5t68.5 49t82 17.5q30 0 54 -8t41 -17q19 -11 35 -25l20 45h100v-460h-100l-20 45q-16 -14 -35 -25q-17 -10 -41 -17.5t-54 -7.5zM165 230q0 -49 29 -79.5t71 -30.5t71 30.5t29 79.5t-29 79.5
t-71 30.5t-71 -30.5t-29 -79.5zM280 510q-30 0 -55 10t-44 27t-30.5 41t-15.5 52h95q4 -23 17.5 -36.5t32.5 -13.5t32.5 13.5t17.5 36.5h95q-8 -56 -46.5 -93t-98.5 -37z" />
    <glyph glyph-name="acircumflex.alt" horiz-adv-x="545" 
d="M30 0zM245 -5q-43 0 -82 17.5t-68.5 49t-47 74.5t-17.5 94t17.5 94t47 74.5t68.5 49t82 17.5q30 0 54 -8t41 -17q19 -11 35 -25l20 45h100v-460h-100l-20 45q-16 -14 -35 -25q-17 -10 -41 -17.5t-54 -7.5zM165 230q0 -49 29 -79.5t71 -30.5t71 30.5t29 79.5t-29 79.5
t-71 30.5t-71 -30.5t-29 -79.5zM235 520h-115l100 130h120l100 -130h-115l-45 60z" />
    <glyph glyph-name="adieresis.alt" horiz-adv-x="545" 
d="M30 0zM245 -5q-43 0 -82 17.5t-68.5 49t-47 74.5t-17.5 94t17.5 94t47 74.5t68.5 49t82 17.5q30 0 54 -8t41 -17q19 -11 35 -25l20 45h100v-460h-100l-20 45q-16 -14 -35 -25q-17 -10 -41 -17.5t-54 -7.5zM165 230q0 -49 29 -79.5t71 -30.5t71 30.5t29 79.5t-29 79.5
t-71 30.5t-71 -30.5t-29 -79.5zM252 575q0 -30 -20 -50t-50 -20t-50 20t-20 50t20 50t50 20t50 -20t20 -50zM437 575q0 -30 -20 -50t-50 -20t-50 20t-20 50t20 50t50 20t50 -20t20 -50z" />
    <glyph glyph-name="amacron.alt" horiz-adv-x="545" 
d="M30 0zM245 -5q-43 0 -82 17.5t-68.5 49t-47 74.5t-17.5 94t17.5 94t47 74.5t68.5 49t82 17.5q30 0 54 -8t41 -17q19 -11 35 -25l20 45h100v-460h-100l-20 45q-16 -14 -35 -25q-17 -10 -41 -17.5t-54 -7.5zM165 230q0 -49 29 -79.5t71 -30.5t71 30.5t29 79.5t-29 79.5
t-71 30.5t-71 -30.5t-29 -79.5zM150 625h265v-105h-265v105z" />
    <glyph glyph-name="aogonek.alt" horiz-adv-x="545" 
d="M375 45q-16 -14 -35 -25q-17 -10 -41 -17.5t-54 -7.5q-43 0 -82 17.5t-68.5 49t-47 74.5t-17.5 94t17.5 94t47 74.5t68.5 49t82 17.5q30 0 54 -8t41 -17q19 -11 35 -25l20 45h100v-460h-25q-9 -12 -15 -24q-6 -11 -10.5 -24.5t-4.5 -26.5q0 -19 13 -32t32 -13
q9 0 16.5 0.5t12.5 1.5q6 1 11 3v-65q-8 -3 -18 -5q-18 -5 -47 -5q-53 0 -81.5 26t-28.5 64q0 20 7 38.5t15 32.5q10 16 23 29zM165 230q0 -49 29 -79.5t71 -30.5t71 30.5t29 79.5t-29 79.5t-71 30.5t-71 -30.5t-29 -79.5z" />
    <glyph glyph-name="aring.alt" horiz-adv-x="545" 
d="M30 0zM245 -5q-43 0 -82 17.5t-68.5 49t-47 74.5t-17.5 94t17.5 94t47 74.5t68.5 49t82 17.5q30 0 54 -8t41 -17q19 -11 35 -25l20 45h100v-460h-100l-20 45q-16 -14 -35 -25q-17 -10 -41 -17.5t-54 -7.5zM165 230q0 -49 29 -79.5t71 -30.5t71 30.5t29 79.5t-29 79.5
t-71 30.5t-71 -30.5t-29 -79.5zM315 595q0 15 -10 25t-25 10t-25 -10t-10 -25t10 -25t25 -10t25 10t10 25zM380 595q0 -42 -27.5 -68.5t-72.5 -26.5t-72.5 26.5t-27.5 68.5t27.5 68.5t72.5 26.5t72.5 -26.5t27.5 -68.5z" />
    <glyph glyph-name="atilde.alt" horiz-adv-x="545" 
d="M30 0zM245 -5q-43 0 -82 17.5t-68.5 49t-47 74.5t-17.5 94t17.5 94t47 74.5t68.5 49t82 17.5q30 0 54 -8t41 -17q19 -11 35 -25l20 45h100v-460h-100l-20 45q-16 -14 -35 -25q-17 -10 -41 -17.5t-54 -7.5zM165 230q0 -49 29 -79.5t71 -30.5t71 30.5t29 79.5t-29 79.5
t-71 30.5t-71 -30.5t-29 -79.5zM125 520q0 64 26 94.5t64 30.5q22 0 38 -7t28 -15.5t22.5 -15.5t21.5 -7q15 0 25 11t10 34l75 -10q0 -64 -26 -94.5t-64 -30.5q-23 0 -38.5 7t-27.5 15.5t-22.5 15.5t-21.5 7q-14 0 -24.5 -11t-10.5 -34z" />
    <glyph glyph-name="lacute.alt" horiz-adv-x="290" 
d="M50 0zM50 630h135v-445q0 -30 17 -47.5t43 -17.5q8 0 14 0.5t11 1.5t10 3v-120q-8 -3 -19 -5q-20 -5 -46 -5q-79 0 -122 43.5t-43 126.5v465zM135 830h135l-95 -130h-105z" />
    <glyph glyph-name="lcaron.alt" horiz-adv-x="350" 
d="M270 630h125l-65 -130h-95zM50 630h135v-445q0 -30 17 -47.5t43 -17.5q8 0 14 0.5t11 1.5t10 3v-120q-8 -3 -19 -5q-20 -5 -46 -5q-79 0 -122 43.5t-43 126.5v465z" />
    <glyph glyph-name="lcommaaccent.alt" horiz-adv-x="290" 
d="M50 0zM50 630h135v-445q0 -30 17 -47.5t43 -17.5q8 0 14 0.5t11 1.5t10 3v-120q-8 -3 -19 -5q-20 -5 -46 -5q-79 0 -122 43.5t-43 126.5v465zM160 -55q30 0 50 -20.5t20 -54.5q0 -40 -15.5 -69.5t-34.5 -49.5q-22 -24 -50 -41l-20 30q11 7 21 17q8 8 16.5 20.5t12.5 27.5
q-30 0 -50 20t-20 50t20 50t50 20z" />
    <glyph glyph-name="Igrave.alt" horiz-adv-x="395" 
d="M30 0zM270 130h95v-130h-335v130h95v370h-95v130h335v-130h-95v-370zM255 700h-105l-95 130h135z" />
    <glyph glyph-name="Iacute.alt" horiz-adv-x="395" 
d="M30 0zM270 130h95v-130h-335v130h95v370h-95v130h335v-130h-95v-370zM210 830h135l-95 -130h-105z" />
    <glyph glyph-name="Icircumflex.alt" horiz-adv-x="395" 
d="M30 0zM270 130h95v-130h-335v130h95v370h-95v130h335v-130h-95v-370zM150 700h-115l100 130h120l100 -130h-115l-45 60z" />
    <glyph glyph-name="Idieresis.alt" horiz-adv-x="395" 
d="M30 0zM270 130h95v-130h-335v130h95v370h-95v130h335v-130h-95v-370zM175 755q0 -30 -20 -50t-50 -20t-50 20t-20 50t20 50t50 20t50 -20t20 -50zM360 755q0 -30 -20 -50t-50 -20t-50 20t-20 50t20 50t50 20t50 -20t20 -50z" />
    <glyph glyph-name="Idotaccent.alt" horiz-adv-x="395" 
d="M30 0zM270 130h95v-130h-335v130h95v370h-95v130h335v-130h-95v-370zM275 760q0 -30 -22.5 -52.5t-52.5 -22.5t-52.5 22.5t-22.5 52.5t22.5 52.5t52.5 22.5t52.5 -22.5t22.5 -52.5z" />
    <glyph glyph-name="Imacron.alt" horiz-adv-x="395" 
d="M30 0zM270 130h95v-130h-335v130h95v370h-95v130h335v-130h-95v-370zM65 800h265v-105h-265v105z" />
    <glyph glyph-name="Iogonek.alt" horiz-adv-x="395" 
d="M30 0v130h95v370h-95v130h335v-130h-95v-370h95v-130q-9 -13 -15 -25q-6 -11 -10.5 -24t-4.5 -26q0 -19 13 -32t32 -13q9 0 16.5 0.5t12.5 1.5q6 1 11 3v-65q-8 -3 -18 -5q-18 -5 -47 -5q-53 0 -81.5 26t-28.5 64q0 20 7 38.5t15 32.5q10 16 23 29h-260z" />
    <glyph glyph-name="yacute.alt" horiz-adv-x="535" 
d="M45 0zM230 15q-41 0 -75 13.5t-58.5 39t-38 61.5t-13.5 81v250h135v-225q0 -45 23.5 -70t61.5 -25t61.5 25t23.5 70v225h135v-420q0 -45 -16 -83.5t-45.5 -66.5t-71 -44t-92.5 -16q-33 0 -59.5 6.5t-47 17.5t-35.5 24.5t-26 28.5q-26 34 -37 78l135 10q4 -13 14 -23
q8 -8 21.5 -15t34.5 -7q38 0 64 26t26 64v15q-16 -11 -34 -20q-16 -8 -38 -14t-48 -6zM275 650h135l-95 -130h-105z" />
    <glyph glyph-name="ydieresis.alt" horiz-adv-x="535" 
d="M45 0zM230 15q-41 0 -75 13.5t-58.5 39t-38 61.5t-13.5 81v250h135v-225q0 -45 23.5 -70t61.5 -25t61.5 25t23.5 70v225h135v-420q0 -45 -16 -83.5t-45.5 -66.5t-71 -44t-92.5 -16q-33 0 -59.5 6.5t-47 17.5t-35.5 24.5t-26 28.5q-26 34 -37 78l135 10q4 -13 14 -23
q8 -8 21.5 -15t34.5 -7q38 0 64 26t26 64v15q-16 -11 -34 -20q-16 -8 -38 -14t-48 -6zM250 575q0 -30 -20 -50t-50 -20t-50 20t-20 50t20 50t50 20t50 -20t20 -50zM435 575q0 -30 -20 -50t-50 -20t-50 20t-20 50t20 50t50 20t50 -20t20 -50z" />
    <glyph glyph-name="zero.tab" horiz-adv-x="520" 
d="M0 0zM385 315q0 45 -10.5 78.5t-27.5 56t-40 34t-47 11.5t-47 -11.5t-40 -34t-27.5 -56t-10.5 -78.5t10.5 -79t27.5 -56.5t40 -33.5t47 -11t47 11t40 33.5t27.5 56.5t10.5 79zM-10 315q0 75 21 134.5t57.5 100.5t86 63t105.5 22t105.5 -22t86 -63t57.5 -100.5t21 -134.5
t-21 -134.5t-57.5 -100.5t-86 -63t-105.5 -22t-105.5 22t-86 63t-57.5 100.5t-21 134.5z" />
    <glyph glyph-name="one.tab" horiz-adv-x="520" 
d="M340 630v-490h130v-140h-405v140h130v310l-65 -45l-70 110l165 115h115z" />
    <glyph glyph-name="two.tab" horiz-adv-x="520" 
d="M40 0zM480 140v-140h-435v100l230 240q15 16 27 33q11 14 19.5 32t8.5 35q0 30 -18 47.5t-52 17.5q-38 0 -59 -21t-21 -59l-140 10q0 43 15.5 79.5t44 63.5t69 42t91.5 15q52 0 93 -14t69.5 -39.5t43 -60.5t14.5 -76q0 -36 -15.5 -68.5t-34.5 -57.5q-22 -29 -50 -54
l-120 -125h220z" />
    <glyph glyph-name="three.tab" horiz-adv-x="520" 
d="M25 0zM30 455q2 36 18.5 68.5t45.5 57t69.5 39.5t91.5 15t91.5 -14.5t69 -39t44 -56t15.5 -65.5t-13.5 -58.5t-29.5 -40.5q-18 -18 -42 -31q28 -13 50 -34q19 -18 34.5 -48t15.5 -73q0 -36 -15.5 -68.5t-45 -57t-72.5 -39.5t-97 -15t-97 15t-73 40t-46.5 58.5t-18.5 71.5
l145 10q4 -26 25.5 -45.5t59.5 -19.5q42 0 63.5 20t21.5 50q0 26 -22.5 45.5t-67.5 19.5h-60v120h60q42 0 61 17t19 43t-21 45.5t-59 19.5q-34 0 -52.5 -17t-22.5 -43z" />
    <glyph glyph-name="four.tab" horiz-adv-x="520" 
d="M25 0zM510 110h-65v-110h-145v110h-275v130l248 390h172v-380h65v-140zM175 250h125v200z" />
    <glyph glyph-name="five.tab" horiz-adv-x="520" 
d="M30 0zM280 430q45 0 84 -16.5t68.5 -46t46 -68.5t16.5 -84q0 -47 -17 -87t-48 -69.5t-74.5 -46.5t-95.5 -17q-49 0 -89 15t-69.5 39.5t-47.5 57t-24 68.5l145 10q5 -17 16 -30q9 -11 26 -20.5t43 -9.5q38 0 64 26t26 64t-26 64t-64 26q-25 0 -41 -8t-26 -17
q-11 -11 -18 -25h-130l40 375h365v-140h-244l-11 -85q11 7 24 12q11 5 26.5 9t34.5 4z" />
    <glyph glyph-name="six.tab" horiz-adv-x="520" 
d="M25 0zM260 -5q-53 0 -96 17t-74 46.5t-48 69.5t-17 87q0 34 9.5 65t20.5 54q13 27 30 51l165 245h150l-135 -200q45 4 86.5 -11t73.5 -44t51 -70t19 -90q0 -47 -17 -87t-48 -69.5t-74.5 -46.5t-95.5 -17zM170 215q0 -42 26 -68.5t64 -26.5t64 26.5t26 68.5t-26 68.5
t-64 26.5t-64 -26.5t-26 -68.5z" />
    <glyph glyph-name="seven.tab" horiz-adv-x="520" 
d="M55 0zM475 630v-115l-240 -515h-156l231 490h-255v140h420z" />
    <glyph glyph-name="eight.tab" horiz-adv-x="520" 
d="M25 0zM260 275q-42 0 -66 -23t-24 -57t24 -57t66 -23t66 23t24 57t-24 57t-66 23zM260 525q-30 0 -50 -19.5t-20 -45.5t20 -45.5t50 -19.5t50 19.5t20 45.5t-20 45.5t-50 19.5zM260 -5q-54 0 -97.5 15.5t-74 42t-47 60.5t-16.5 72q0 42 15.5 71t34.5 48q22 22 50 36
q-21 13 -38 31q-14 16 -25.5 40.5t-11.5 58.5t15 65.5t43 56t66.5 39t85.5 14.5t85.5 -14.5t66.5 -39t43 -56t15 -65.5t-12 -58.5t-26 -40.5q-17 -18 -37 -31q28 -14 50 -36q19 -19 34.5 -48t15.5 -71q0 -38 -16.5 -72t-47 -60.5t-74 -42t-97.5 -15.5z" />
    <glyph glyph-name="nine.tab" horiz-adv-x="520" 
d="M25 0zM260 635q52 0 95.5 -17t74.5 -46.5t48 -69.5t17 -87q0 -34 -9.5 -65t-20.5 -54q-13 -27 -30 -51l-165 -245h-150l135 200q-45 -4 -86.5 11t-73.5 44t-51 70t-19 90q0 47 17 87t48 69.5t74 46.5t96 17zM350 415q0 42 -26 68.5t-64 26.5t-64 -26.5t-26 -68.5
t26 -68.5t64 -26.5t64 26.5t26 68.5z" />
    <glyph glyph-name="at.case" horiz-adv-x="760" 
d="M35 0zM380 635q75 0 139 -25.5t111 -70t73.5 -103.5t26.5 -126q0 -43 -12 -77.5t-33 -58.5t-48 -36.5t-57 -12.5q-29 0 -49 9.5t-34 20.5q-16 13 -27 30q-13 -17 -30 -30q-15 -11 -36 -20.5t-49 -9.5q-32 0 -60 12.5t-49 35.5t-33.5 55.5t-12.5 71.5t12.5 71.5t33.5 55.5
t49 35.5t60 12.5q19 0 34.5 -7.5t26.5 -15.5q13 -10 24 -22l15 35h80v-175q0 -42 13 -58.5t32 -16.5q23 0 39 21t16 74q0 49 -19.5 93t-53.5 76.5t-81 51.5t-101 19q-53 0 -98.5 -19.5t-79.5 -53t-53 -79.5t-19 -98q0 -53 19 -98.5t53 -79.5t79.5 -53t98.5 -19q32 0 58 7
t45 16q22 10 40 23q14 -17 26 -35.5t25 -36.5q-23 -17 -53 -30q-26 -11 -61 -20t-80 -9q-73 0 -136 26t-109.5 71t-73 106t-26.5 132q0 70 26.5 131t73 106.5t109.5 71.5t136 26zM445 300q0 38 -22.5 61.5t-52.5 23.5t-52.5 -23.5t-22.5 -61.5t22.5 -61.5t52.5 -23.5
t52.5 23.5t22.5 61.5z" />
    <glyph glyph-name="parenleft.case" horiz-adv-x="315" 
d="M40 0zM180 300q0 -78 17.5 -144.5t39.5 -115.5q26 -58 58 -105l-105 -70q-42 54 -75 122q-29 58 -52 137t-23 176q0 96 23 175.5t52 137.5q33 68 75 122l105 -70q-32 -48 -58 -106q-22 -50 -39.5 -116t-17.5 -143z" />
    <glyph glyph-name="parenright.case" horiz-adv-x="315" 
d="M20 0zM135 300q0 77 -18 143t-40 116q-26 58 -57 106l105 70q42 -54 75 -122q28 -58 51.5 -137.5t23.5 -175.5q0 -97 -23.5 -176t-51.5 -137q-33 -68 -75 -122l-105 70q31 47 57 105q22 49 40 115.5t18 144.5z" />
    <glyph glyph-name="bracketleft.case" horiz-adv-x="325" 
d="M60 0zM200 35h100v-140h-240v810h240v-140h-100v-530z" />
    <glyph glyph-name="bracketright.case" horiz-adv-x="325" 
d="M25 0zM125 565h-100v140h240v-810h-240v140h100v530z" />
    <glyph glyph-name="braceleft.case" horiz-adv-x="345" 
d="M35 0zM35 355q55 0 55 55v135q0 83 38.5 121.5t121.5 38.5h70v-130h-40q-55 0 -55 -55v-125q0 -30 -9.5 -48.5t-20.5 -29.5q-13 -12 -30 -17q17 -6 30 -18q11 -11 20.5 -29t9.5 -48v-125q0 -55 55 -55h40v-130h-70q-83 0 -121.5 38.5t-38.5 121.5v135q0 55 -55 55v110z
" />
    <glyph glyph-name="braceright.case" horiz-adv-x="345" 
d="M25 0zM310 245q-55 0 -55 -55v-135q0 -83 -38.5 -121.5t-121.5 -38.5h-70v130h40q55 0 55 55v125q0 30 9.5 48t20.5 29q13 12 30 18q-17 5 -30 17q-11 11 -20.5 29.5t-9.5 48.5v125q0 55 -55 55h-40v130h70q83 0 121.5 -38.5t38.5 -121.5v-135q0 -55 55 -55v-110z" />
    <glyph glyph-name="exclamdown.case" horiz-adv-x="280" 
d="M60 0l15 440h130l15 -440h-160zM215 560q0 -30 -22.5 -52.5t-52.5 -22.5t-52.5 22.5t-22.5 52.5t22.5 52.5t52.5 22.5t52.5 -22.5t22.5 -52.5z" />
    <glyph glyph-name="questiondown.case" horiz-adv-x="465" 
d="M25 170q0 34 10.5 57.5t26 42.5t34 35t34.5 35t27.5 42.5t12.5 57.5h140q0 -43 -10 -73t-25 -52t-32.5 -38t-32.5 -30t-25 -28.5t-10 -33.5q0 -26 17.5 -43t47.5 -17q26 0 45.5 21.5t19.5 63.5l145 -10q-8 -94 -63.5 -149.5t-146.5 -55.5q-51 0 -90.5 14t-67.5 38
t-42.5 55.5t-14.5 67.5zM310 560q0 -30 -22.5 -52.5t-52.5 -22.5t-52.5 22.5t-22.5 52.5t22.5 52.5t52.5 22.5t52.5 -22.5t22.5 -52.5z" />
    <glyph glyph-name="guillemotleft.case" horiz-adv-x="510" 
d="M30 140zM165 300l110 -160h-135l-110 160l110 160h135zM370 300l110 -160h-135l-110 160l110 160h135z" />
    <glyph glyph-name="guillemotright.case" horiz-adv-x="510" 
d="M30 140zM235 460h135l110 -160l-110 -160h-135l110 160zM30 460h135l110 -160l-110 -160h-135l110 160z" />
    <glyph glyph-name="guilsinglleft.case" horiz-adv-x="305" 
d="M30 140zM275 140h-135l-110 160l110 160h135l-110 -160z" />
    <glyph glyph-name="guilsinglright.case" horiz-adv-x="305" 
d="M30 140zM140 300l-110 160h135l110 -160l-110 -160h-135z" />
    <glyph glyph-name="hyphen.case" horiz-adv-x="375" 
d="M35 270zM35 390h305v-120h-305v120z" />
    <glyph glyph-name="endash.case" horiz-adv-x="495" 
d="M35 270zM460 270h-425v120h425v-120z" />
    <glyph glyph-name="emdash.case" horiz-adv-x="740" 
d="M35 270zM705 270h-670v120h670v-120z" />
    <glyph glyph-name="bullet.case" horiz-adv-x="390" 
d="M85 220zM85 325q0 45 30 75t75 30t75 -30t30 -75t-30 -75t-75 -30t-75 30t-30 75z" />
    <glyph glyph-name="periodcentered.case" horiz-adv-x="230" 
d="M40 260zM40 335q0 30 22.5 52.5t52.5 22.5t52.5 -22.5t22.5 -52.5t-22.5 -52.5t-52.5 -22.5t-52.5 22.5t-22.5 52.5z" />
    <glyph glyph-name="zero.numr" horiz-adv-x="310" 
d="M25 324zM115 479q0 -42 12.5 -58.5t27.5 -16.5t27.5 16.5t12.5 58.5t-12.5 58.5t-27.5 16.5t-27.5 -16.5t-12.5 -58.5zM25 479q0 75 36.5 115t93.5 40t93.5 -40t36.5 -115t-36.5 -115t-93.5 -40t-93.5 40t-36.5 115z" />
    <glyph glyph-name="one.numr" horiz-adv-x="250" 
d="M15 330zM180 630v-300h-90v190l-35 -20l-40 65l105 65h60z" />
    <glyph glyph-name="two.numr" horiz-adv-x="280" 
d="M20 330zM255 405v-75h-230v60l90 80q14 12 25 23q9 10 17 21t8 21q0 25 -30 25q-15 0 -25 -10t-10 -25l-80 5q8 49 37.5 77t82.5 28q60 0 90 -27.5t30 -72.5q0 -15 -5 -27.5t-10 -20.5q-7 -10 -15 -17l-75 -65h100z" />
    <glyph glyph-name="three.numr" horiz-adv-x="285" 
d="M15 325zM20 540q4 42 33.5 68.5t86.5 26.5t86 -26t29 -64q0 -15 -5.5 -26t-12.5 -19q-8 -9 -17 -15q12 -6 22 -16q8 -8 15.5 -20t7.5 -29q0 -38 -34 -66.5t-91 -28.5t-89 29t-36 71l13.5 1t29 1.5t29 1.5l13.5 1q0 -11 10.5 -20.5t25.5 -9.5q22 0 30.5 8.5t8.5 16.5
q0 11 -8.5 18t-30.5 7h-31v65h30q11 0 20.5 6t9.5 14q0 25 -30 25q-35 0 -35 -25z" />
    <glyph glyph-name="four.numr" horiz-adv-x="280" 
d="M0 330zM250 385h-35v-55h-90v55h-135v55l120 190h105v-170h35v-75zM130 460v80l-50 -80h50z" />
    <glyph glyph-name="five.numr" horiz-adv-x="280" 
d="M20 325zM160 530q19 0 37 -7t32 -20t22.5 -30t8.5 -38q0 -45 -31.5 -77.5t-88.5 -32.5q-45 0 -77 24t-43 66l90 5q3 -6 7 -10t9.5 -7t13.5 -3q11 0 20.5 10t9.5 25t-9.5 25t-20.5 10q-10 0 -15.5 -3.5t-8.5 -8.5q-4 -5 -6 -11h-80l20 183h190v-75h-115l-5 -35q5 2 11 5
q5 2 12 3.5t17 1.5z" />
    <glyph glyph-name="six.numr" horiz-adv-x="285" 
d="M20 325zM145 325q-28 0 -51 8.5t-39.5 23.5t-25.5 35t-9 43q0 19 7 37.5t15 33.5q10 18 23 34q15 23 32 45t33 45h95l-65 -90q22 0 42 -8.5t35 -23t24 -33.5t9 -40q0 -23 -9 -43t-25.5 -35t-39.5 -23.5t-51 -8.5zM110 435q0 -19 10 -29.5t25 -10.5t25 10.5t10 29.5
t-10 29.5t-25 10.5t-25 -10.5t-10 -29.5z" />
    <glyph glyph-name="seven.numr" horiz-adv-x="255" 
d="M35 330zM255 630v-65l-105 -235h-95l100 220h-120v80h220z" />
    <glyph glyph-name="eight.numr" horiz-adv-x="290" 
d="M20 325zM145 455q-15 0 -25 -10t-10 -25t10 -25t25 -10t25 10t10 25t-10 25t-25 10zM145 325q-30 0 -53.5 7.5t-39 20.5t-24 29t-8.5 33q0 19 7 32.5t15 21.5q10 10 23 16q-10 6 -18 15q-7 8 -12 19t-5 26q0 38 29 64t86 26t86 -26t29 -64q0 -15 -5.5 -26t-12.5 -19
q-8 -9 -17 -15q12 -6 22 -16q8 -8 15.5 -21.5t7.5 -32.5q0 -17 -8.5 -33t-24 -29t-39 -20.5t-53.5 -7.5zM145 515q11 0 20.5 9.5t9.5 20.5t-9.5 20.5t-20.5 9.5t-20.5 -9.5t-9.5 -20.5t9.5 -20.5t20.5 -9.5z" />
    <glyph glyph-name="nine.numr" horiz-adv-x="285" 
d="M15 330zM140 635q28 0 51 -9t39.5 -24t25.5 -35t9 -42q0 -19 -7.5 -37.5t-15.5 -33.5q-10 -18 -22 -34q-15 -23 -32 -45t-33 -45h-95l65 90q-23 0 -43 8.5t-35 23t-23.5 33.5t-8.5 40q0 22 9 42t25.5 35t39.5 24t51 9zM175 525q0 19 -10 29.5t-25 10.5t-25 -10.5
t-10 -29.5t10 -29.5t25 -10.5t25 10.5t10 29.5z" />
    <glyph glyph-name="zero.dnom" horiz-adv-x="310" 
d="M25 0zM115 150q0 -42 12.5 -58.5t27.5 -16.5t27.5 16.5t12.5 58.5t-12.5 58.5t-27.5 16.5t-27.5 -16.5t-12.5 -58.5zM25 150q0 75 36.5 115t93.5 40t93.5 -40t36.5 -115t-36.5 -115t-93.5 -40t-93.5 40t-36.5 115z" />
    <glyph glyph-name="one.dnom" horiz-adv-x="250" 
d="M15 0zM180 300v-300h-90v190l-35 -20l-40 65l105 65h60z" />
    <glyph glyph-name="two.dnom" horiz-adv-x="280" 
d="M20 0zM255 75v-75h-230v60l90 80q14 12 25 23q9 10 17 21t8 21q0 25 -30 25q-15 0 -25 -10t-10 -25l-80 5q8 49 37.5 77t82.5 28q60 0 90 -27.5t30 -72.5q0 -15 -5 -27.5t-10 -20.5q-7 -10 -15 -17l-75 -65h100z" />
    <glyph glyph-name="three.dnom" horiz-adv-x="285" 
d="M15 0zM20 210q4 42 33.5 68.5t86.5 26.5t86 -26t29 -64q0 -15 -5.5 -26t-12.5 -19q-8 -9 -17 -15q12 -6 22 -16q8 -8 15.5 -20t7.5 -29q0 -38 -34 -66.5t-91 -28.5t-89 29t-36 71l13.5 1t29 1.5t29 1.5l13.5 1q0 -11 10.5 -20.5t25.5 -9.5q22 0 30.5 8.5t8.5 16.5
q0 11 -8.5 18t-30.5 7h-31v65h30q11 0 20.5 6t9.5 14q0 25 -30 25q-35 0 -35 -25z" />
    <glyph glyph-name="four.dnom" horiz-adv-x="280" 
d="M0 0zM250 55h-35v-55h-90v55h-135v55l120 190h105v-170h35v-75zM130 130v80l-50 -80h50z" />
    <glyph glyph-name="five.dnom" horiz-adv-x="280" 
d="M20 0zM160 200q19 0 37 -7t32 -20t22.5 -30t8.5 -38q0 -45 -31.5 -77.5t-88.5 -32.5q-45 0 -77 24t-43 66l90 5q3 -6 7 -10t9.5 -7t13.5 -3q11 0 20.5 10t9.5 25t-9.5 25t-20.5 10q-10 0 -15.5 -3.5t-8.5 -8.5q-4 -5 -6 -11h-80l20 183h190v-75h-115l-5 -35q5 2 11 5
q5 2 12 3.5t17 1.5z" />
    <glyph glyph-name="six.dnom" horiz-adv-x="285" 
d="M20 0zM145 -5q-28 0 -51 8.5t-39.5 23.5t-25.5 35t-9 43q0 19 7 37.5t15 33.5q10 18 23 34q15 23 32 45t33 45h95l-65 -90q22 0 42 -8.5t35 -23t24 -33.5t9 -40q0 -23 -9 -43t-25.5 -35t-39.5 -23.5t-51 -8.5zM110 105q0 -19 10 -29.5t25 -10.5t25 10.5t10 29.5t-10 29.5
t-25 10.5t-25 -10.5t-10 -29.5z" />
    <glyph glyph-name="seven.dnom" horiz-adv-x="255" 
d="M35 0zM255 300v-65l-105 -235h-95l100 220h-120v80h220z" />
    <glyph glyph-name="eight.dnom" horiz-adv-x="290" 
d="M20 0zM145 125q-15 0 -25 -10t-10 -25t10 -25t25 -10t25 10t10 25t-10 25t-25 10zM145 -5q-30 0 -53.5 7.5t-39 20.5t-24 29t-8.5 33q0 19 7 32.5t15 21.5q10 10 23 16q-10 6 -18 15q-7 8 -12 19t-5 26q0 38 29 64t86 26t86 -26t29 -64q0 -15 -5.5 -26t-12.5 -19
q-8 -9 -17 -15q12 -6 22 -16q8 -8 15.5 -21.5t7.5 -32.5q0 -17 -8.5 -33t-24 -29t-39 -20.5t-53.5 -7.5zM145 185q11 0 20.5 9.5t9.5 20.5t-9.5 20.5t-20.5 9.5t-20.5 -9.5t-9.5 -20.5t9.5 -20.5t20.5 -9.5z" />
    <glyph glyph-name="nine.dnom" horiz-adv-x="285" 
d="M15 0zM140 305q28 0 51 -9t39.5 -24t25.5 -35t9 -42q0 -19 -7.5 -37.5t-15.5 -33.5q-10 -18 -22 -34q-15 -23 -32 -45t-33 -45h-95l65 90q-23 0 -43 8.5t-35 23t-23.5 33.5t-8.5 40q0 22 9 42t25.5 35t39.5 24t51 9zM175 195q0 19 -10 29.5t-25 10.5t-25 -10.5t-10 -29.5
t10 -29.5t25 -10.5t25 10.5t10 29.5z" />
    <glyph glyph-name="zero.osf" horiz-adv-x="580" 
d="M195 230q0 -42 26.5 -68.5t68.5 -26.5t68.5 26.5t26.5 68.5t-26.5 68.5t-68.5 26.5t-68.5 -26.5t-26.5 -68.5zM530 230q0 -51 -17.5 -94t-49 -74.5t-76 -49t-97.5 -17.5t-97 17.5t-75.5 49t-49.5 74.5t-18 94t18 94t49.5 74.5t75.5 49t97 17.5q52 0 96.5 -17.5t76 -49
t49.5 -74.5t18 -94z" />
    <glyph glyph-name="one.osf" horiz-adv-x="345" 
d="M285 460v-460h-145v280l-65 -45l-70 110l165 115h115z" />
    <glyph glyph-name="two.osf" horiz-adv-x="480" 
d="M435 125v-125h-395v75l195 130q26 18 40.5 36t14.5 44q0 19 -17 34.5t-43 15.5t-43.5 -17t-21.5 -43l-135 5q2 39 17.5 73t42 59t63.5 39t82 14q43 0 79 -14t61.5 -37t40 -52.5t14.5 -61.5q0 -26 -6 -46t-19.5 -39.5t-35.5 -40.5t-54 -49h120z" />
    <glyph glyph-name="three.osf" horiz-adv-x="525" 
d="M345 35q0 34 -23.5 57t-61.5 23q-11 0 -21 -1.5t-18 -3.5q-9 -3 -16 -5l-65 70l120 145h-195v140h395v-90l-120 -145q32 -8 59.5 -23.5t47.5 -39.5t31.5 -56t11.5 -71q0 -45 -16.5 -83.5t-46.5 -66.5t-72.5 -44t-94.5 -16q-53 0 -96 15t-73 40t-47 58.5t-19 71.5l150 10
q4 -26 25.5 -45.5t59.5 -19.5t61.5 23t23.5 57z" />
    <glyph glyph-name="four.osf" horiz-adv-x="520" 
d="M500 0h-65v-170h-145v170h-270v125l250 335h165v-320h65v-140zM295 140v165l-125 -165h125z" />
    <glyph glyph-name="five.osf" 
d="M35 0zM285 260q45 0 84 -16.5t68.5 -46t46 -68.5t16.5 -84q0 -47 -17 -87t-48 -69.5t-74.5 -46.5t-95.5 -17q-49 0 -89 15t-69.5 39.5t-47.5 57t-24 68.5l145 10q5 -17 16 -30q9 -11 26 -20.5t43 -9.5q38 0 64 26t26 64t-26 64t-64 26q-25 0 -41 -8t-26 -17
q-11 -11 -18 -25h-130l40 375h365v-140h-244l-11 -85q11 7 24 12q11 5 26.5 9t34.5 4z" />
    <glyph glyph-name="six.osf" 
d="M30 0zM265 -5q-53 0 -96 17t-74 46.5t-48 69.5t-17 87q0 34 9.5 65t20.5 54q13 27 30 51l165 245h150l-135 -200q45 4 86.5 -11t73.5 -44t51 -70t19 -90q0 -47 -17 -87t-48 -69.5t-74.5 -46.5t-95.5 -17zM175 215q0 -42 26 -68.5t64 -26.5t64 26.5t26 68.5t-26 68.5
t-64 26.5t-64 -26.5t-26 -68.5z" />
    <glyph glyph-name="seven.osf" horiz-adv-x="470" 
d="M30 0zM450 460v-115l-240 -515h-156l231 490h-255v140h420z" />
    <glyph glyph-name="eight.osf" 
d="M30 0zM265 275q-42 0 -66 -23t-24 -57t24 -57t66 -23t66 23t24 57t-24 57t-66 23zM265 525q-30 0 -50 -19.5t-20 -45.5t20 -45.5t50 -19.5t50 19.5t20 45.5t-20 45.5t-50 19.5zM265 -5q-54 0 -97.5 15.5t-74 42t-47 60.5t-16.5 72q0 42 15.5 71t34.5 48q22 22 50 36
q-21 13 -38 31q-14 16 -25.5 40.5t-11.5 58.5t15 65.5t43 56t66.5 39t85.5 14.5t85.5 -14.5t66.5 -39t43 -56t15 -65.5t-12 -58.5t-26 -40.5q-17 -18 -37 -31q28 -14 50 -36q19 -19 34.5 -48t15.5 -71q0 -38 -16.5 -72t-47 -60.5t-74 -42t-97.5 -15.5z" />
    <glyph glyph-name="nine.osf" 
d="M30 0zM265 465q52 0 95.5 -17t74.5 -46.5t48 -69.5t17 -87q0 -34 -9.5 -65t-20.5 -54q-13 -27 -30 -51l-165 -245h-150l135 200q-45 -4 -86.5 11t-73.5 44t-51 70t-19 90q0 47 17 87t48 69.5t74 46.5t96 17zM355 245q0 42 -26 68.5t-64 26.5t-64 -26.5t-26 -68.5
t26 -68.5t64 -26.5t64 26.5t26 68.5z" />
    <glyph glyph-name="zero.osftab" horiz-adv-x="520" 
d="M20 0zM165 230q0 -42 26.5 -68.5t68.5 -26.5t68.5 26.5t26.5 68.5t-26.5 68.5t-68.5 26.5t-68.5 -26.5t-26.5 -68.5zM500 230q0 -51 -17.5 -94t-49 -74.5t-76 -49t-97.5 -17.5t-97 17.5t-75.5 49t-49.5 74.5t-18 94t18 94t49.5 74.5t75.5 49t97 17.5q52 0 96.5 -17.5
t76 -49t49.5 -74.5t18 -94z" />
    <glyph glyph-name="one.osftab" horiz-adv-x="520" 
d="M340 460v-320h130v-140h-405v140h130v140l-65 -45l-70 110l165 115h115z" />
    <glyph glyph-name="two.osftab" horiz-adv-x="520" 
d="M55 0zM460 125v-125h-395v75l195 130q26 18 40.5 36t14.5 44q0 19 -17 34.5t-43 15.5t-43.5 -17t-21.5 -43l-135 5q2 39 17.5 73t42 59t63.5 39t82 14q43 0 79 -14t61.5 -37t40 -52.5t14.5 -61.5q0 -26 -6 -46t-19.5 -39.5t-35.5 -40.5t-54 -49h120z" />
    <glyph glyph-name="three.osftab" horiz-adv-x="520" 
d="M20 0zM340 35q0 34 -23.5 57t-61.5 23q-11 0 -21 -1.5t-18 -3.5q-9 -3 -16 -5l-65 70l120 145h-195v140h395v-90l-120 -145q32 -8 59.5 -23.5t47.5 -39.5t31.5 -56t11.5 -71q0 -45 -16.5 -83.5t-46.5 -66.5t-72.5 -44t-94.5 -16q-53 0 -96 15t-73 40t-47 58.5t-19 71.5
l150 10q4 -26 25.5 -45.5t59.5 -19.5t61.5 23t23.5 57z" />
    <glyph glyph-name="four.osftab" horiz-adv-x="520" 
d="M20 0zM500 0h-65v-170h-145v170h-270v125l250 335h165v-320h65v-140zM295 140v165l-125 -165h125z" />
    <glyph glyph-name="five.osftab" horiz-adv-x="520" 
d="M30 0zM280 254q45 0 84 -16.5t68.5 -46t46 -68.5t16.5 -84q0 -47 -17 -87t-48 -69.5t-74.5 -46.5t-95.5 -17q-49 0 -89 15t-69.5 39.5t-47.5 57t-24 68.5l145 10q5 -17 16 -30q9 -11 26 -20.5t43 -9.5q38 0 64 26t26 64t-26 64t-64 26q-25 0 -41 -8t-26 -17
q-11 -11 -18 -25h-130l40 375h365v-140h-244l-11 -85q11 7 24 12q11 5 26.5 9t34.5 4z" />
    <glyph glyph-name="six.osftab" horiz-adv-x="520" 
d="M25 0zM260 -5q-53 0 -96 17t-74 46.5t-48 69.5t-17 87q0 34 9.5 65t20.5 54q13 27 30 51l165 245h150l-135 -200q45 4 86.5 -11t73.5 -44t51 -70t19 -90q0 -47 -17 -87t-48 -69.5t-74.5 -46.5t-95.5 -17zM170 215q0 -42 26 -68.5t64 -26.5t64 26.5t26 68.5t-26 68.5
t-64 26.5t-64 -26.5t-26 -68.5z" />
    <glyph glyph-name="seven.osftab" horiz-adv-x="520" 
d="M55 0zM475 454v-115l-240 -515h-156l231 490h-255v140h420z" />
    <glyph glyph-name="eight.osftab" horiz-adv-x="520" 
d="M25 0zM260 275q-42 0 -66 -23t-24 -57t24 -57t66 -23t66 23t24 57t-24 57t-66 23zM260 525q-30 0 -50 -19.5t-20 -45.5t20 -45.5t50 -19.5t50 19.5t20 45.5t-20 45.5t-50 19.5zM260 -5q-54 0 -97.5 15.5t-74 42t-47 60.5t-16.5 72q0 42 15.5 71t34.5 48q22 22 50 36
q-21 13 -38 31q-14 16 -25.5 40.5t-11.5 58.5t15 65.5t43 56t66.5 39t85.5 14.5t85.5 -14.5t66.5 -39t43 -56t15 -65.5t-12 -58.5t-26 -40.5q-17 -18 -37 -31q28 -14 50 -36q19 -19 34.5 -48t15.5 -71q0 -38 -16.5 -72t-47 -60.5t-74 -42t-97.5 -15.5z" />
    <glyph glyph-name="nine.osftab" horiz-adv-x="520" 
d="M25 0zM260 460q52 0 95.5 -17t74.5 -46.5t48 -69.5t17 -87q0 -34 -9.5 -65t-20.5 -54q-13 -27 -30 -51l-165 -245h-150l135 200q-45 -4 -86.5 11t-73.5 44t-51 70t-19 90q0 47 17 87t48 69.5t74 46.5t96 17zM350 240q0 42 -26 68.5t-64 26.5t-64 -26.5t-26 -68.5
t26 -68.5t64 -26.5t64 26.5t26 68.5z" />
    <glyph glyph-name="plus.lf" horiz-adv-x="465" 
d="M30 100zM295 510v-145h140v-120h-140v-145h-125v145h-140v120h140v145h125z" />
    <glyph glyph-name="less.lf" horiz-adv-x="460" 
d="M40 50zM190 275l230 -100v-125l-380 170v110l380 170v-125z" />
    <glyph glyph-name="equal.lf" horiz-adv-x="460" 
d="M35 140zM425 345h-390v125h390v-125zM425 140h-390v125h390v-125z" />
    <glyph glyph-name="greater.lf" horiz-adv-x="460" 
d="M40 50zM40 375v125l380 -170v-110l-380 -170v125l230 100z" />
    <glyph glyph-name="asciitilde.lf" horiz-adv-x="465" 
d="M5 230zM460 395q0 -83 -36.5 -124t-93.5 -41q-26 0 -50.5 8t-46 17t-40 17t-33.5 8q-19 0 -32 -13.5t-13 -36.5l-110 10q0 83 36.5 124t93.5 41q26 0 50.5 -8t46 -17t40 -17t33.5 -8q19 0 32 13.5t13 36.5z" />
    <glyph glyph-name="logicalnot.lf" horiz-adv-x="500" 
d="M35 215zM330 215v115h-295v120h425v-235h-130z" />
    <glyph glyph-name="plusminus.lf" horiz-adv-x="465" 
d="M30 55zM435 55h-405v120h140v115h-140v120h140v145h125v-145h140v-120h-140v-115h140v-120z" />
    <glyph glyph-name="minus.lf" horiz-adv-x="470" 
d="M35 245zM435 245h-400v120h400v-120z" />
    <glyph glyph-name="multiply.lf" horiz-adv-x="470" 
d="M50 115zM315 305l105 -110l-85 -80l-100 105l-100 -105l-85 80l105 110l-105 110l85 80l100 -105l100 105l85 -80z" />
    <glyph glyph-name="divide.lf" horiz-adv-x="470" 
d="M35 65zM435 245h-400v120h400v-120zM305 475q0 -30 -20 -50t-50 -20t-50 20t-20 50t20 50t50 20t50 -20t20 -50zM305 135q0 -30 -20 -50t-50 -20t-50 20t-20 50t20 50t50 20t50 -20t20 -50z" />
    <glyph glyph-name="notequal.lf" horiz-adv-x="480" 
d="M35 55zM80 55l35 90h-80v125h130l30 70h-160v125h210l35 90h120l-35 -90h80v-125h-130l-30 -70h160v-125h-210l-35 -90h-120z" />
    <glyph glyph-name="approxequal.lf" horiz-adv-x="525" 
d="M35 125zM490 495q0 -83 -36.5 -124t-93.5 -41q-26 0 -50.5 8t-46 17t-40 17t-33.5 8q-19 0 -32 -13.5t-13 -36.5l-110 10q0 83 36.5 124t93.5 41q26 0 50.5 -8t46 -17t40 -17t33.5 -8q19 0 32 13.5t13 36.5zM490 290q0 -83 -36.5 -124t-93.5 -41q-26 0 -50.5 8t-46 17
t-40 17t-33.5 8q-19 0 -32 -13.5t-13 -36.5l-110 10q0 83 36.5 124t93.5 41q26 0 50.5 -8t46 -17t40 -17t33.5 -8q19 0 32 13.5t13 36.5z" />
    <glyph glyph-name="lessequal.lf" horiz-adv-x="470" 
d="M40 50zM430 50h-390v105h390v-105zM430 180l-385 140v100l385 140v-115l-225 -75l225 -75v-115z" />
    <glyph glyph-name="greaterequal.lf" horiz-adv-x="470" 
d="M40 50zM40 155h390v-105h-390v105zM40 560l385 -140v-100l-385 -140v115l225 75l-225 75v115z" />
    <glyph glyph-name="colon.lf" horiz-adv-x="210" 
d="M30 425q0 30 22.5 52.5t52.5 22.5t52.5 -22.5t22.5 -52.5t-22.5 -52.5t-52.5 -22.5t-52.5 22.5t-22.5 52.5zM30 175q0 30 22.5 52.5t52.5 22.5t52.5 -22.5t22.5 -52.5t-22.5 -52.5t-52.5 -22.5t-52.5 22.5t-22.5 52.5z" />
    <glyph glyph-name="a.smcp" horiz-adv-x="550" 
d="M555 0h-155l-30 100h-190l-30 -100h-155l195 550h170zM275 405l-60 -190h121z" />
    <glyph glyph-name="agrave.smcp" horiz-adv-x="550" 
d="M0 0zM555 0h-155l-30 100h-190l-30 -100h-155l195 550h170zM275 405l-60 -190h121zM330 615h-105l-95 130h135z" />
    <glyph glyph-name="aacute.smcp" horiz-adv-x="550" 
d="M0 0zM555 0h-155l-30 100h-190l-30 -100h-155l195 550h170zM275 405l-60 -190h121zM285 745h135l-95 -130h-105z" />
    <glyph glyph-name="abreve.smcp" horiz-adv-x="550" 
d="M0 0zM555 0h-155l-30 100h-190l-30 -100h-155l195 550h170zM275 405l-60 -190h121zM275 615q-30 0 -55 10t-44 27t-30.5 41t-15.5 52h95q4 -23 17.5 -36.5t32.5 -13.5t32.5 13.5t17.5 36.5h95q-8 -56 -46.5 -93t-98.5 -37z" />
    <glyph glyph-name="acircumflex.smcp" horiz-adv-x="550" 
d="M0 0zM555 0h-155l-30 100h-190l-30 -100h-155l195 550h170zM275 405l-60 -190h121zM230 615h-115l100 130h120l100 -130h-115l-45 60z" />
    <glyph glyph-name="adieresis.smcp" horiz-adv-x="550" 
d="M0 0zM555 0h-155l-30 100h-190l-30 -100h-155l195 550h170zM275 405l-60 -190h121zM250 680q0 -30 -20 -50t-50 -20t-50 20t-20 50t20 50t50 20t50 -20t20 -50zM435 680q0 -30 -20 -50t-50 -20t-50 20t-20 50t20 50t50 20t50 -20t20 -50z" />
    <glyph glyph-name="amacron.smcp" horiz-adv-x="550" 
d="M0 0zM555 0h-155l-30 100h-190l-30 -100h-155l195 550h170zM275 405l-60 -190h121zM140 720h265v-105h-265v105z" />
    <glyph glyph-name="aogonek.smcp" horiz-adv-x="550" 
d="M370 100h-190l-30 -100h-155l195 550h170l195 -550h-80q-9 -13 -15 -25q-6 -11 -10.5 -24t-4.5 -26q0 -19 13 -32t32 -13q9 0 16.5 0.5t12.5 1.5q6 1 11 3v-65q-8 -3 -18 -5q-18 -5 -47 -5q-53 0 -81.5 26t-28.5 64q0 20 7 38.5t15 32.5q10 16 23 29zM275 405l-60 -190
h121z" />
    <glyph glyph-name="aring.smcp" horiz-adv-x="550" 
d="M0 0zM555 0h-155l-30 100h-190l-30 -100h-155l195 550h170zM275 405l-60 -190h121zM310 690q0 15 -10 25t-25 10t-25 -10t-10 -25t10 -25t25 -10t25 10t10 25zM375 690q0 -42 -27.5 -68.5t-72.5 -26.5t-72.5 26.5t-27.5 68.5t27.5 68.5t72.5 26.5t72.5 -26.5t27.5 -68.5z
" />
    <glyph glyph-name="atilde.smcp" horiz-adv-x="550" 
d="M0 0zM555 0h-155l-30 100h-190l-30 -100h-155l195 550h170zM275 405l-60 -190h121zM120 625q0 64 26 94.5t64 30.5q22 0 38 -7t28 -15.5t22.5 -15.5t21.5 -7q15 0 25 11t10 34l75 -10q0 -64 -26 -94.5t-64 -30.5q-23 0 -38.5 7t-27.5 15.5t-22.5 15.5t-21.5 7
q-14 0 -24.5 -11t-10.5 -34z" />
    <glyph glyph-name="ae.smcp" horiz-adv-x="780" 
d="M-20 0l280 550h475v-130h-235v-75h215v-130h-215v-85h245v-130h-390v100h-166l-54 -100h-155zM350 420l-100 -191h105v191h-5z" />
    <glyph glyph-name="b.smcp" horiz-adv-x="540" 
d="M415 290q28 -10 50 -28q19 -16 34.5 -42t15.5 -65q0 -32 -12.5 -60t-36.5 -49t-58.5 -33.5t-77.5 -12.5h-275v550h260q43 0 76.5 -11.5t56.5 -30.5t35 -44.5t12 -53.5q0 -34 -12.5 -57t-27.5 -37q-18 -17 -40 -26zM200 220v-100h100q30 0 45 13.5t15 36.5t-15 36.5
t-45 13.5h-100zM200 340h90q23 0 36.5 13t13.5 31q0 20 -13.5 33t-36.5 13h-90v-90z" />
    <glyph glyph-name="c.smcp" horiz-adv-x="605" 
d="M320 420q-30 0 -56.5 -11.5t-46 -31t-31 -46t-11.5 -56.5t11.5 -56.5t31 -46t46 -31t56.5 -11.5q49 0 79 25t41 55l145 -15q-11 -43 -33.5 -80.5t-56 -65t-77.5 -43.5t-98 -16q-60 0 -113 22.5t-92 61.5t-62 91t-23 110t23 110t62 91t92 61.5t113 22.5q54 0 98 -16
t77.5 -43.5t56 -65t33.5 -80.5l-140 -15q-4 13 -14 27t-26 26t-37.5 19.5t-47.5 7.5z" />
    <glyph glyph-name="cacute.smcp" horiz-adv-x="605" 
d="M30 0zM320 420q-30 0 -56.5 -11.5t-46 -31t-31 -46t-11.5 -56.5t11.5 -56.5t31 -46t46 -31t56.5 -11.5q49 0 79 25t41 55l145 -15q-11 -43 -33.5 -80.5t-56 -65t-77.5 -43.5t-98 -16q-60 0 -113 22.5t-92 61.5t-62 91t-23 110t23 110t62 91t92 61.5t113 22.5q54 0 98 -16
t77.5 -43.5t56 -65t33.5 -80.5l-140 -15q-4 13 -14 27t-26 26t-37.5 19.5t-47.5 7.5zM335 745h135l-95 -130h-105z" />
    <glyph glyph-name="ccaron.smcp" horiz-adv-x="605" 
d="M30 0zM320 420q-30 0 -56.5 -11.5t-46 -31t-31 -46t-11.5 -56.5t11.5 -56.5t31 -46t46 -31t56.5 -11.5q49 0 79 25t41 55l145 -15q-11 -43 -33.5 -80.5t-56 -65t-77.5 -43.5t-98 -16q-60 0 -113 22.5t-92 61.5t-62 91t-23 110t23 110t62 91t92 61.5t113 22.5q54 0 98 -16
t77.5 -43.5t56 -65t33.5 -80.5l-140 -15q-4 13 -14 27t-26 26t-37.5 19.5t-47.5 7.5zM310 685l45 60h115l-100 -130h-120l-100 130h115z" />
    <glyph glyph-name="ccedilla.smcp" horiz-adv-x="605" 
d="M320 420q-30 0 -56.5 -11.5t-46 -31t-31 -46t-11.5 -56.5t11.5 -56.5t31 -46t46 -31t56.5 -11.5q49 0 79 25t41 55l145 -15q-11 -40 -31 -75.5t-49.5 -62.5t-68 -44t-86.5 -21l-15 -32q24 -4 42 -14q16 -8 29.5 -24t13.5 -42q0 -34 -28 -57t-92 -23q-25 0 -43 5
q-10 2 -17 5v50q5 -2 12 -3q5 -1 12.5 -1.5t15.5 -0.5q26 0 38 10t12 25q0 11 -11 20.5t-34 9.5q-8 0 -16 -2.5t-9 -2.5l31 77q-55 5 -102.5 29.5t-83 62.5t-55.5 87t-20 104q0 58 23 110t62 91t92 61.5t113 22.5q54 0 98 -16t77.5 -43.5t56 -65t33.5 -80.5l-140 -15
q-4 13 -14 27t-26 26t-37.5 19.5t-47.5 7.5z" />
    <glyph glyph-name="ccircumflex.smcp" horiz-adv-x="605" 
d="M30 0zM320 420q-30 0 -56.5 -11.5t-46 -31t-31 -46t-11.5 -56.5t11.5 -56.5t31 -46t46 -31t56.5 -11.5q49 0 79 25t41 55l145 -15q-11 -43 -33.5 -80.5t-56 -65t-77.5 -43.5t-98 -16q-60 0 -113 22.5t-92 61.5t-62 91t-23 110t23 110t62 91t92 61.5t113 22.5q54 0 98 -16
t77.5 -43.5t56 -65t33.5 -80.5l-140 -15q-4 13 -14 27t-26 26t-37.5 19.5t-47.5 7.5zM265 615h-115l100 130h120l100 -130h-115l-45 60z" />
    <glyph glyph-name="d.smcp" horiz-adv-x="565" 
d="M245 140q33 0 61 10.5t47.5 29t30.5 43t11 52.5t-11 52.5t-30.5 43t-47 29t-61.5 10.5h-45v-270h45zM540 275q0 -58 -21.5 -108.5t-60.5 -87.5t-93 -58t-120 -21h-190v550h190q66 0 120 -21t93 -58t60.5 -87.5t21.5 -108.5z" />
    <glyph glyph-name="dcaron.smcp" horiz-adv-x="565" 
d="M55 0zM245 140q33 0 61 10.5t47.5 29t30.5 43t11 52.5t-11 52.5t-30.5 43t-47 29t-61.5 10.5h-45v-270h45zM540 275q0 -58 -21.5 -108.5t-60.5 -87.5t-93 -58t-120 -21h-190v550h190q66 0 120 -21t93 -58t60.5 -87.5t21.5 -108.5zM260 685l45 60h115l-100 -130h-120
l-100 130h115z" />
    <glyph glyph-name="dcroat.smcp" horiz-adv-x="585" 
d="M560 275q0 -58 -21.5 -108.5t-60.5 -87.5t-93 -58t-120 -21h-190v210h-60v120h60v220h190q66 0 120 -21t93 -58t60.5 -87.5t21.5 -108.5zM265 140q33 0 61 10.5t47.5 29t30.5 43t11 52.5t-11 52.5t-30.5 43t-47 29t-61.5 10.5h-45v-80h76v-120h-76v-70h45z" />
    <glyph glyph-name="eth.smcp" horiz-adv-x="585" 
d="M15 0zM560 275q0 -58 -21.5 -108.5t-60.5 -87.5t-93 -58t-120 -21h-190v210h-60v120h60v220h190q66 0 120 -21t93 -58t60.5 -87.5t21.5 -108.5zM265 140q33 0 61 10.5t47.5 29t30.5 43t11 52.5t-11 52.5t-30.5 43t-47 29t-61.5 10.5h-45v-80h76v-120h-76v-70h45z" />
    <glyph glyph-name="e.smcp" horiz-adv-x="510" 
d="M475 130v-130h-420v550h410v-130h-265v-75h245v-130h-245v-85h275z" />
    <glyph glyph-name="eacute.smcp" horiz-adv-x="510" 
d="M55 0zM475 130v-130h-420v550h410v-130h-265v-75h245v-130h-245v-85h275zM260 745h135l-95 -130h-105z" />
    <glyph glyph-name="ecaron.smcp" horiz-adv-x="510" 
d="M55 0zM475 130v-130h-420v550h410v-130h-265v-75h245v-130h-245v-85h275zM260 685l45 60h115l-100 -130h-120l-100 130h115z" />
    <glyph glyph-name="ecircumflex.smcp" horiz-adv-x="510" 
d="M55 0zM475 130v-130h-420v550h410v-130h-265v-75h245v-130h-245v-85h275zM215 615h-115l100 130h120l100 -130h-115l-45 60z" />
    <glyph glyph-name="edieresis.smcp" horiz-adv-x="510" 
d="M55 0zM475 130v-130h-420v550h410v-130h-265v-75h245v-130h-245v-85h275zM238 680q0 -30 -20 -50t-50 -20t-50 20t-20 50t20 50t50 20t50 -20t20 -50zM423 680q0 -30 -20 -50t-50 -20t-50 20t-20 50t20 50t50 20t50 -20t20 -50z" />
    <glyph glyph-name="edotaccent.smcp" horiz-adv-x="510" 
d="M55 0zM475 130v-130h-420v550h410v-130h-265v-75h245v-130h-245v-85h275zM335 690q0 -30 -22.5 -52.5t-52.5 -22.5t-52.5 22.5t-22.5 52.5t22.5 52.5t52.5 22.5t52.5 -22.5t22.5 -52.5z" />
    <glyph glyph-name="egrave.smcp" horiz-adv-x="510" 
d="M55 0zM475 130v-130h-420v550h410v-130h-265v-75h245v-130h-245v-85h275zM320 615h-105l-95 130h135z" />
    <glyph glyph-name="emacron.smcp" horiz-adv-x="510" 
d="M55 0zM475 130v-130h-420v550h410v-130h-265v-75h245v-130h-245v-85h275zM125 720h265v-105h-265v105z" />
    <glyph glyph-name="eogonek.smcp" horiz-adv-x="510" 
d="M55 0v550h410v-130h-265v-75h245v-130h-245v-85h275v-130q-9 -13 -15 -25q-6 -11 -10.5 -24t-4.5 -26q0 -19 13 -32t32 -13q9 0 16.5 0.5t12.5 1.5q6 1 11 3v-65q-8 -3 -18 -5q-18 -5 -47 -5q-53 0 -81.5 26t-28.5 64q0 20 7 38.5t15 32.5q10 16 23 29h-345z" />
    <glyph glyph-name="f.smcp" horiz-adv-x="470" 
d="M55 0v550h400v-140h-255v-90h205v-140h-205v-180h-145z" />
    <glyph glyph-name="g.smcp" horiz-adv-x="635" 
d="M315 300h275v-300h-95l-15 50q-15 -17 -40 -30q-21 -11 -54 -20.5t-81 -9.5q-54 0 -104 22.5t-88 61.5t-60.5 91t-22.5 110t23 110t62 91t92 61.5t113 22.5q54 0 98 -15.5t77 -42t54.5 -61t30.5 -71.5l-140 -15q-4 9 -13.5 20.5t-24.5 21.5t-35.5 16.5t-46.5 6.5
q-30 0 -56.5 -11.5t-46 -31t-31 -46t-11.5 -56.5t11.5 -56.5t31 -46t46 -31t56.5 -11.5q24 0 43 6.5t32.5 16t22 19.5t12.5 18h-115v110z" />
    <glyph glyph-name="gbreve.smcp" horiz-adv-x="635" 
d="M30 0zM315 300h275v-300h-95l-15 50q-15 -17 -40 -30q-21 -11 -54 -20.5t-81 -9.5q-54 0 -104 22.5t-88 61.5t-60.5 91t-22.5 110t23 110t62 91t92 61.5t113 22.5q54 0 98 -15.5t77 -42t54.5 -61t30.5 -71.5l-140 -15q-4 9 -13.5 20.5t-24.5 21.5t-35.5 16.5t-46.5 6.5
q-30 0 -56.5 -11.5t-46 -31t-31 -46t-11.5 -56.5t11.5 -56.5t31 -46t46 -31t56.5 -11.5q24 0 43 6.5t32.5 16t22 19.5t12.5 18h-115v110zM315 615q-30 0 -55 10t-44 27t-30.5 41t-15.5 52h95q4 -23 17.5 -36.5t32.5 -13.5t32.5 13.5t17.5 36.5h95q-8 -56 -46.5 -93
t-98.5 -37z" />
    <glyph glyph-name="gcommaaccent.smcp" horiz-adv-x="635" 
d="M30 0zM315 300h275v-300h-95l-15 50q-15 -17 -40 -30q-21 -11 -54 -20.5t-81 -9.5q-54 0 -104 22.5t-88 61.5t-60.5 91t-22.5 110t23 110t62 91t92 61.5t113 22.5q54 0 98 -15.5t77 -42t54.5 -61t30.5 -71.5l-140 -15q-4 9 -13.5 20.5t-24.5 21.5t-35.5 16.5t-46.5 6.5
q-30 0 -56.5 -11.5t-46 -31t-31 -46t-11.5 -56.5t11.5 -56.5t31 -46t46 -31t56.5 -11.5q24 0 43 6.5t32.5 16t22 19.5t12.5 18h-115v110zM320 -35q30 0 50 -20.5t20 -54.5q0 -40 -15.5 -69.5t-34.5 -49.5q-22 -24 -50 -41l-20 30q11 7 21 17q8 8 16.5 20.5t12.5 27.5
q-30 0 -50 20t-20 50t20 50t50 20z" />
    <glyph glyph-name="h.smcp" horiz-adv-x="600" 
d="M200 550v-200h200v200h145v-550h-145v220h-200v-220h-145v550h145z" />
    <glyph glyph-name="i.smcp" horiz-adv-x="255" 
d="M200 0h-145v550h145v-550z" />
    <glyph glyph-name="iacute.smcp" horiz-adv-x="255" 
d="M55 0zM200 0h-145v550h145v-550zM140 745h135l-95 -130h-105z" />
    <glyph glyph-name="icircumflex.smcp" horiz-adv-x="255" 
d="M0 0zM200 0h-145v550h145v-550zM80 615h-115l100 130h120l100 -130h-115l-45 60z" />
    <glyph glyph-name="idieresis.smcp" horiz-adv-x="255" 
d="M0 0zM200 0h-145v550h145v-550zM105 680q0 -30 -20 -50t-50 -20t-50 20t-20 50t20 50t50 20t50 -20t20 -50zM290 680q0 -30 -20 -50t-50 -20t-50 20t-20 50t20 50t50 20t50 -20t20 -50z" />
    <glyph glyph-name="igrave.smcp" horiz-adv-x="255" 
d="M0 0zM200 0h-145v550h145v-550zM180 615h-105l-95 130h135z" />
    <glyph glyph-name="dotlessi.smcp" horiz-adv-x="255" 
d="M50 0zM200 0h-145v550h145v-550zM200 690q0 -30 -22.5 -52.5t-52.5 -22.5t-52.5 22.5t-22.5 52.5t22.5 52.5t52.5 22.5t52.5 -22.5t22.5 -52.5z" />
    <glyph glyph-name="imacron.smcp" horiz-adv-x="255" 
d="M0 0zM200 0h-145v550h145v-550zM-5 720h265v-105h-265v105z" />
    <glyph glyph-name="iogonek.smcp" horiz-adv-x="255" 
d="M55 550h145v-550h-70q-9 -13 -15 -25q-6 -11 -10.5 -24t-4.5 -26q0 -19 13 -32t32 -13q9 0 16.5 0.5t12.5 1.5q6 1 11 3v-65q-8 -3 -18 -5q-18 -5 -47 -5q-53 0 -81.5 26t-28.5 64q0 20 7 38.5t15 32.5q10 16 23 29v550z" />
    <glyph glyph-name="j.smcp" horiz-adv-x="470" 
d="M420 550v-355q0 -44 -14.5 -81.5t-41.5 -65t-65 -43t-84 -15.5q-47 0 -85.5 15t-66.5 40t-43 58.5t-15 71.5l145 15q0 -26 17.5 -43t47.5 -17q26 0 43 18t17 52v350h145z" />
    <glyph glyph-name="k.smcp" 
d="M369 0l-169 235v-235h-145v550h145v-235l155 235h165l-180 -270l200 -280h-171z" />
    <glyph glyph-name="kcommaaccent.smcp" 
d="M55 0zM369 0l-169 235v-235h-145v550h145v-235l155 235h165l-180 -270l200 -280h-171zM270 -35q30 0 50 -20.5t20 -54.5q0 -40 -15.5 -69.5t-34.5 -49.5q-22 -24 -50 -41l-20 30q11 7 21 17q8 8 16.5 20.5t12.5 27.5q-30 0 -50 20t-20 50t20 50t50 20z" />
    <glyph glyph-name="l.smcp" horiz-adv-x="465" 
d="M455 140v-140h-400v550h145v-410h255z" />
    <glyph glyph-name="lacute.smcp" horiz-adv-x="465" 
d="M55 0zM455 140v-140h-400v550h145v-410h255zM140 745h135l-95 -130h-105z" />
    <glyph glyph-name="lcaron.smcp" horiz-adv-x="465" 
d="M300 550h130l-85 -135h-95zM455 140v-140h-400v550h145v-410h255z" />
    <glyph glyph-name="lcommaaccent.smcp" horiz-adv-x="465" 
d="M55 0zM455 140v-140h-400v550h145v-410h255zM245 -35q30 0 50 -20.5t20 -54.5q0 -40 -15.5 -69.5t-34.5 -49.5q-22 -24 -50 -41l-20 30q11 7 21 17q8 8 16.5 20.5t12.5 27.5q-30 0 -50 20t-20 50t20 50t50 20z" />
    <glyph glyph-name="lslash.smcp" horiz-adv-x="485" 
d="M15 230l60 35v285h145v-200l100 60v-130l-100 -60v-80h255v-140h-400v135l-60 -35v130z" />
    <glyph glyph-name="m.smcp" horiz-adv-x="730" 
d="M395 0h-60l-135 280v-280h-145v550h160l150 -310l150 310h160v-550h-145v280z" />
    <glyph glyph-name="n.smcp" horiz-adv-x="610" 
d="M555 550v-550h-141l-214 300v-300h-145v550h140l215 -300v300h145z" />
    <glyph glyph-name="nacute.smcp" horiz-adv-x="610" 
d="M55 0zM555 550v-550h-141l-214 300v-300h-145v550h140l215 -300v300h145zM295 745h135l-95 -130h-105z" />
    <glyph glyph-name="ncaron.smcp" horiz-adv-x="610" 
d="M55 0zM555 550v-550h-141l-214 300v-300h-145v550h140l215 -300v300h145zM300 685l45 60h115l-100 -130h-120l-100 130h115z" />
    <glyph glyph-name="ncommaaccent.smcp" horiz-adv-x="610" 
d="M55 0zM555 550v-550h-141l-214 300v-300h-145v550h140l215 -300v300h145zM305 -35q30 0 50 -20.5t20 -54.5q0 -40 -15.5 -69.5t-34.5 -49.5q-22 -24 -50 -41l-20 30q11 7 21 17q8 8 16.5 20.5t12.5 27.5q-30 0 -50 20t-20 50t20 50t50 20z" />
    <glyph glyph-name="ntilde.smcp" horiz-adv-x="610" 
d="M55 0zM555 550v-550h-141l-214 300v-300h-145v550h140l215 -300v300h145zM150 625q0 64 26 94.5t64 30.5q22 0 38 -7t28 -15.5t22.5 -15.5t21.5 -7q15 0 25 11t10 34l75 -10q0 -64 -26 -94.5t-64 -30.5q-23 0 -38.5 7t-27.5 15.5t-22.5 15.5t-21.5 7q-14 0 -24.5 -11
t-10.5 -34z" />
    <glyph glyph-name="o.smcp" horiz-adv-x="640" 
d="M175 275q0 -30 11.5 -56.5t31 -46t46 -31t56.5 -11.5t56.5 11.5t46 31t31 46t11.5 56.5t-11.5 56.5t-31 46t-46 31t-56.5 11.5t-56.5 -11.5t-46 -31t-31 -46t-11.5 -56.5zM610 275q0 -58 -23 -110t-62 -91t-92 -61.5t-113 -22.5t-113 22.5t-92 61.5t-62 91t-23 110
t23 110t62 91t92 61.5t113 22.5t113 -22.5t92 -61.5t62 -91t23 -110z" />
    </font>
</defs>
</svg>
