<?xml version="1.0" standalone="no"?>
<!DOCTYPE svg PUBLIC "-//W3C//DTD SVG 1.1//EN" "http://www.w3.org/Graphics/SVG/1.1/DTD/svg11.dtd" >
<svg xmlns="http://www.w3.org/2000/svg" xmlns:xlink="http://www.w3.org/1999/xlink" version="1.1">
<metadata>
Created by FontForge 20161003 at Sat Oct 13 13:49:44 2018
 By www-data
Copyright (c) 2018 by TypeType. Designers Ivan Gladkikh, Pavel Emelyanov. Technical designers Marina Khodak, Vika Usmanova, Nadyr Rakhimov. All rights reserved.
</metadata>
<defs>
<font id="TTCommonsThin" horiz-adv-x="1024" >
  <font-face 
    font-family="TTCommonsThin"
    font-weight="200"
    font-stretch="normal"
    units-per-em="2048"
    panose-1="2 0 5 6 2 0 0 2 0 3"
    ascent="1434"
    descent="-614"
    x-height="901"
    cap-height="1290"
    bbox="-328 -430 2945 1741"
    underline-thickness="0"
    underline-position="0"
    unicode-range="U+000D-FB06"
  />
<missing-glyph horiz-adv-x="0" 
 />
    <glyph glyph-name="uniFB00" unicode="ff" horiz-adv-x="983" 
d="M952 850h-235v-850h-51v850h-410v-850h-51v850h-164v51h164v123q0 109 62.5 172.5t162.5 63.5q16 0 28.5 -2.5l22.5 -4.5t21 -4v-51q-10 2 -21 4q-10 2 -22.5 4t-28.5 2q-78 0 -126 -49t-48 -135v-123h410v164q0 109 62.5 172t162.5 63q16 0 28.5 -2t22.5 -4t21 -4v-51
q-10 2 -21 4q-10 2 -22.5 4t-28.5 2q-78 0 -126 -49t-48 -135v-164h235v-51z" />
    <glyph glyph-name="uniFB01" unicode="fi" horiz-adv-x="860" 
d="M666 850h-410v-850h-51v850h-164v51h164v164q0 109 62.5 172t162.5 63q16 0 28.5 -2t22.5 -4t21 -4v-51q-10 2 -21 4q-10 2 -22.5 4t-28.5 2q-78 0 -126 -49t-48 -135v-164h461v-901h-51v850zM737 1184q0 -20 -13 -33.5t-34 -13.5q-18 0 -31.5 13t-13.5 34
q0 18 13.5 31.5t31.5 13.5q20 0 33.5 -13.5t13.5 -31.5z" />
    <glyph glyph-name="uniFB02" unicode="fl" horiz-adv-x="860" 
d="M666 1229l-41 10q-20 4 -46 7t-57 3q-123 0 -194.5 -73.5t-71.5 -212.5v-62h236v-51h-236v-850h-51v850h-164v51h164v62q0 162 85 249.5t232 87.5q31 0 56.5 -3t46.5 -7l41 -10h51v-1280h-51v1229z" />
    <glyph glyph-name="uniFB03" unicode="ffi" horiz-adv-x="1320" 
d="M1126 850h-409v-850h-51v850h-410v-850h-51v850h-164v51h164v123q0 109 62.5 172.5t162.5 63.5q16 0 28.5 -2.5l22.5 -4.5t21 -4v-51q-10 2 -21 4q-10 2 -22.5 4t-28.5 2q-78 0 -126 -49t-48 -135v-123h410v164q0 109 62.5 172t162.5 63q16 0 28.5 -2t22.5 -4t21 -4v-51
q-10 2 -21 4q-10 2 -22.5 4t-28.5 2q-78 0 -126 -49t-48 -135v-164h461v-901h-52v850zM1198 1184q0 -20 -13.5 -33.5t-33.5 -13.5q-18 0 -31.5 13t-13.5 34q0 18 13.5 31.5t31.5 13.5q20 0 33.5 -13.5t13.5 -31.5z" />
    <glyph glyph-name="uniFB04" unicode="ffl" horiz-adv-x="1320" 
d="M1126 1229l-41 10q-20 4 -45.5 7t-56.5 3q-123 0 -194.5 -73.5t-71.5 -212.5v-62h235v-51h-235v-850h-51v850h-410v-850h-51v850h-164v51h164v123q0 109 62.5 172.5t162.5 63.5q16 0 28.5 -2.5l22.5 -4.5t21 -4v-51q-10 2 -21 4q-10 2 -22.5 4t-28.5 2q-78 0 -126 -49
t-48 -135v-123h410v62q0 162 85 249.5t232 87.5q31 0 56.5 -3t45.5 -7l41 -10h52v-1280h-52v1229z" />
    <glyph glyph-name="f_f_j.liga" unicode="ffj" horiz-adv-x="1320" 
d="M1126 850h-409v-850h-51v850h-410v-850h-51v850h-164v51h164v123q0 109 62.5 172.5t162.5 63.5q16 0 28.5 -2.5l22.5 -4.5t21 -4v-51q-10 2 -21 4q-10 2 -22.5 4t-28.5 2q-78 0 -126 -49t-48 -135v-123h410v164q0 109 62.5 172t162.5 63q16 0 28.5 -2t22.5 -4t21 -4v-51
q-10 2 -21 4q-10 2 -22.5 4t-28.5 2q-78 0 -126 -49t-48 -135v-164h461v-1003q0 -109 -62.5 -172.5t-163.5 -63.5q-16 0 -28.5 1t-22.5 3t-20 6v52q10 -4 20 -7q10 -2 22.5 -3t28.5 -1q78 0 126 49.5t48 135.5v952zM1198 1184q0 -20 -13.5 -33.5t-33.5 -13.5q-18 0 -31.5 13
t-13.5 34q0 18 13.5 31.5t31.5 13.5q20 0 33.5 -13.5t13.5 -31.5z" />
    <glyph glyph-name="f_j.liga" unicode="fj" horiz-adv-x="860" 
d="M666 850h-410v-850h-51v850h-164v51h164v164q0 109 62.5 172t162.5 63q16 0 28.5 -2t22.5 -4t21 -4v-51q-10 2 -21 4q-10 2 -22.5 4t-28.5 2q-78 0 -126 -49t-48 -135v-164h461v-1003q0 -109 -62.5 -172.5t-162.5 -63.5q-16 0 -28.5 1t-23.5 3q-10 2 -20 6v52
q10 -4 20 -7q10 -2 22.5 -3t29.5 -1q78 0 126 49.5t48 135.5v952zM737 1184q0 -20 -13 -33.5t-34 -13.5q-18 0 -31.5 13t-13.5 34q0 18 13.5 31.5t31.5 13.5q20 0 33.5 -13.5t13.5 -31.5z" />
    <glyph glyph-name="f_t.liga" unicode="ft" horiz-adv-x="1044" 
d="M666 850h-410v-850h-51v850h-164v51h164v164q0 109 62.5 172t162.5 63q16 0 28.5 -2t22.5 -4t21 -4v-51q-10 2 -21 4q-10 2 -22.5 4t-28.5 2q-78 0 -126 -49t-48 -135v-164h317q92 0 93 92v174h51v-266h235v-51h-235v-625q0 -86 48 -135t126 -49q16 0 28.5 1t22.5 3t21 6
v-51q-10 -4 -21 -6q-10 -2 -22.5 -3t-28.5 -1q-100 0 -162.5 63.5t-62.5 171.5v625z" />
    <glyph glyph-name="f_h.liga" unicode="fh" horiz-adv-x="1525" 
d="M1034 911q76 0 142.5 -27.5t113.5 -77.5t75 -120t28 -154v-532h-52v532q0 74 -23.5 134.5t-64.5 103.5t-97 66.5t-122 23.5t-123 -23.5t-100 -66.5t-68.5 -103.5t-25.5 -134.5v-532h-51v1229l-41 10q-20 4 -46 7t-57 3q-123 0 -194.5 -73.5t-71.5 -212.5v-62h236v-51
h-236v-850h-51v850h-164v51h164v62q0 162 85 249.5t232 87.5q31 0 56.5 -3t46.5 -7l41 -10h51v-563h10q27 53 70 96q37 37 94 67.5t143 30.5z" />
    <glyph glyph-name="f_k.liga" unicode="fk" horiz-adv-x="1310" 
d="M717 471v-471h-51v1229l-41 10q-20 4 -46 7t-57 3q-123 0 -194.5 -73.5t-71.5 -212.5v-62h236v-51h-236v-850h-51v850h-164v51h164v62q0 162 85 249.5t232 87.5q31 0 56.5 -3t46.5 -7l41 -10h51v-809l461 430h71l-461 -430l502 -471h-71z" />
    <glyph glyph-name="f_b.liga" unicode="fb" horiz-adv-x="1597" 
d="M666 1229l-41 10q-20 4 -46 7t-57 3q-123 0 -194.5 -73.5t-71.5 -212.5v-62h236v-51h-236v-850h-51v850h-164v51h164v62q0 162 85 249.5t232 87.5q31 0 56.5 -3t46.5 -7l41 -10h51v-614h10l21 38q20 39 63 85.5t110.5 84t163.5 37.5q84 0 161 -34.5t134.5 -96t91 -145.5
t33.5 -184t-33.5 -184.5t-91 -146t-134.5 -96t-161 -34.5q-98 0 -164.5 38t-109.5 85q-51 53 -84 123h-10l-10 -236h-41v1229zM1454 451q0 88 -30.5 162.5t-81 130t-117 86t-140.5 30.5t-140 -30.5t-116.5 -86t-81 -130t-30.5 -162.5t30.5 -163t81 -130.5t117 -86
t139.5 -30.5q74 0 140.5 30.5t117 86t81 130.5t30.5 163z" />
    <glyph glyph-name="f_f_h.liga" unicode="ffh" horiz-adv-x="1986" 
d="M1126 1229l-41 10q-20 4 -45.5 7t-56.5 3q-123 0 -194.5 -73.5t-71.5 -212.5v-62h235v-51h-235v-850h-51v850h-410v-850h-51v850h-164v51h164v123q0 109 62.5 172.5t162.5 63.5q16 0 28.5 -2.5l22.5 -4.5t21 -4v-51q-10 2 -21 4q-10 2 -22.5 4t-28.5 2q-78 0 -126 -49
t-48 -135v-123h410v62q0 162 85 249.5t232 87.5q31 0 56.5 -3t45.5 -7l41 -10h52v-563h10q27 53 69 96q37 37 94.5 67.5t143.5 30.5q76 0 142.5 -27.5t113.5 -77.5t74.5 -120t27.5 -154v-532h-51v532q0 74 -23.5 134.5t-64.5 103.5t-97 66.5t-122 23.5t-123 -23.5
t-100 -66.5t-68.5 -103.5t-25.5 -134.5v-532h-52v1229z" />
    <glyph glyph-name="f_f_k.liga" unicode="ffk" horiz-adv-x="1771" 
d="M1178 471v-471h-52v1229l-41 10q-20 4 -45.5 7t-56.5 3q-123 0 -194.5 -73.5t-71.5 -212.5v-62h235v-51h-235v-850h-51v850h-410v-850h-51v850h-164v51h164v123q0 109 62.5 172.5t162.5 63.5q16 0 28.5 -2.5l22.5 -4.5t21 -4v-51q-10 2 -21 4q-10 2 -22.5 4t-28.5 2
q-78 0 -126 -49t-48 -135v-123h410v62q0 162 85 249.5t232 87.5q31 0 56.5 -3t45.5 -7l41 -10h52v-809l460 430h72l-461 -430l502 -471h-72z" />
    <glyph glyph-name="f_f_b.liga" unicode="ffb" horiz-adv-x="2058" 
d="M1126 1229l-41 10q-20 4 -45.5 7t-56.5 3q-123 0 -194.5 -73.5t-71.5 -212.5v-62h235v-51h-235v-850h-51v850h-410v-850h-51v850h-164v51h164v123q0 109 62.5 172.5t162.5 63.5q16 0 28.5 -2.5l22.5 -4.5t21 -4v-51q-10 2 -21 4q-10 2 -22.5 4t-28.5 2q-78 0 -126 -49
t-48 -135v-123h410v62q0 162 85 249.5t232 87.5q31 0 56.5 -3t45.5 -7l41 -10h52v-614h10l20 38q21 39 64 85.5t110.5 84t163.5 37.5q84 0 161 -34.5t134 -96t91 -145.5t34 -184t-34 -184.5t-91 -146t-134 -96t-161 -34.5q-98 0 -164.5 38t-109.5 85q-51 53 -84 123h-10
l-11 -236h-41v1229zM1915 451q0 88 -31 162.5t-81 130t-116.5 86t-140.5 30.5t-140.5 -30.5t-116.5 -86t-80.5 -130t-30.5 -162.5t30.5 -163t80.5 -130.5t117 -86t140 -30.5q74 0 140.5 30.5t116.5 86t81 130.5t31 163z" />
    <glyph glyph-name=".notdef" horiz-adv-x="0" 
 />
    <glyph glyph-name="glyph1" horiz-adv-x="0" 
 />
    <glyph glyph-name="glyph1" horiz-adv-x="0" 
 />
    <glyph glyph-name="uni000D" unicode="&#xd;" horiz-adv-x="0" 
 />
    <glyph glyph-name="space" unicode=" " horiz-adv-x="409" 
 />
    <glyph glyph-name="exclam" unicode="!" horiz-adv-x="460" 
d="M184 45q0 20 13.5 33.5t33.5 13.5q18 0 31.5 -13t13.5 -34q0 -18 -13 -31.5t-32 -13.5q-20 0 -33.5 13.5t-13.5 31.5zM205 1290h51v-962h-51v962z" />
    <glyph glyph-name="quotedbl" unicode="&#x22;" horiz-adv-x="624" 
d="M461 911h-51v379h51v-379zM215 911h-51v379h51v-379z" />
    <glyph glyph-name="numbersign" unicode="#" horiz-adv-x="1198" 
d="M748 410h-390l-82 -410h-51l82 410h-266l10 51h266l72 368h-256l10 52h256l82 409h51l-81 -409h389l82 409h51l-82 -409h266l-10 -52h-266l-72 -368h256l-10 -51h-256l-82 -410h-51zM369 461h389l71 368h-389z" />
    <glyph glyph-name="dollar" unicode="$" 
d="M481 -10q-162 8 -267 106.5t-122 251.5h51q8 -66 36 -122t74 -97t108.5 -64.5t140.5 -23.5q84 0 150.5 23.5t112.5 64.5t70.5 97.5t24.5 121.5q0 78 -31.5 130t-82 86t-116 56.5t-134 42t-134 42t-115.5 57.5t-82 88t-32 133q0 61 24.5 117.5t69.5 99.5t109.5 69.5
t144.5 30.5v195h51v-195q154 -16 248 -111t111 -226h-51q-8 57 -36 109t-71 91t-99 62.5t-122 23.5q-78 0 -138.5 -21.5t-102.5 -58t-64.5 -85t-22.5 -101.5q0 -72 32 -117t82 -75.5t115.5 -51t134 -40t134.5 -44t116 -63.5t81.5 -97.5t31.5 -146.5q0 -147 -96 -244.5
t-283 -113.5v-195h-51v195z" />
    <glyph glyph-name="percent" unicode="%" horiz-adv-x="1249" 
d="M266 0h-61l778 1290h61zM1116 256q0 39 -14.5 76t-41 65.5t-61 46t-77.5 17.5t-78 -17.5t-61.5 -46t-41 -65.5t-14.5 -76t14.5 -76t41 -65.5t61.5 -46t78 -17.5t77.5 17.5t61 46t41 65.5t14.5 76zM1167 256q0 -53 -19.5 -100t-53 -82t-78.5 -54.5t-94 -19.5t-94.5 19.5
t-79 54.5t-53 82t-19.5 100t19.5 100t53 82t78.5 54.5t95 19.5q49 0 94 -19.5t78.5 -54.5t53 -82t19.5 -100zM133 1034q0 -39 14.5 -75.5t41 -65.5t61.5 -46.5t78 -17.5t77.5 17.5t61.5 46.5t41 65.5t14 75.5t-14 76t-41 65.5t-61.5 46t-77.5 17.5t-78 -17.5t-61.5 -46
t-41 -65.5t-14.5 -76zM82 1034q0 53 19.5 100.5t53 82t79 54t94.5 19.5t94 -19.5t79 -54t53 -82t19 -100.5t-19 -100t-53 -82t-79 -54.5t-94 -19.5t-94.5 19.5t-79 54.5t-53 82t-19.5 100z" />
    <glyph glyph-name="ampersand" unicode="&#x26;" horiz-adv-x="1075" 
d="M113 276q0 53 15 98.5t42 85.5t62.5 74.5t74.5 69.5l82 72l-51 51q-70 70 -122 137.5t-52 159.5q0 57 21.5 107.5t59.5 88t88 59t107 21.5t107.5 -21.5t88.5 -59t59.5 -88t21.5 -107.5q0 -47 -17.5 -87t-43 -75t-56.5 -63.5t-57 -50.5l-82 -72l358 -359l174 256h51
l-194 -286l287 -287h-72l-246 246q-49 -74 -110 -129q-53 -47 -127 -87t-162 -40q-70 0 -126 21.5t-96 60.5t-62.5 91t-22.5 113zM430 707l82 71q23 20 49.5 45t50 55.5t39 67.5t15.5 78q0 45 -18.5 86t-49.5 71.5t-72 49t-86 18.5q-47 0 -88 -18.5t-71.5 -49t-48 -71.5
t-17.5 -86q0 -78 47 -137.5t117 -128.5zM164 276q0 -100 69.5 -167.5t186.5 -67.5q80 0 147.5 36t116.5 81q57 53 104 118l-368 369l-82 -72q-35 -31 -66.5 -62.5t-55 -66t-38 -77t-14.5 -91.5z" />
    <glyph glyph-name="quotesingle" unicode="'" horiz-adv-x="378" 
d="M164 1290h51v-379h-51v379z" />
    <glyph glyph-name="parenleft" unicode="(" horiz-adv-x="542" 
d="M195 461q0 -166 37.5 -312.5t84.5 -257.5q53 -129 123 -239l-30 -31q-76 117 -134 254q-51 117 -92 268.5t-41 317.5t41 317.5t92 268.5q57 137 134 253l30 -30q-70 -111 -123 -240q-47 -111 -84.5 -257t-37.5 -312z" />
    <glyph glyph-name="parenright" unicode=")" horiz-adv-x="542" 
d="M348 461q0 166 -38 312.5t-85 256.5q-53 129 -123 240l31 30q74 -117 133 -253q49 -117 91 -268.5t42 -317.5t-42 -317.5t-91 -268.5q-59 -137 -133 -254l-31 31q70 111 123 239q47 111 85 257.5t38 312.5z" />
    <glyph glyph-name="asterisk" unicode="*" horiz-adv-x="675" 
d="M338 973l-133 -205l-41 31l133 194l-215 62l20 51l215 -72l-10 256h62l-11 -256l215 72l21 -51l-215 -62l133 -194l-41 -31z" />
    <glyph glyph-name="plus" unicode="+" horiz-adv-x="890" 
d="M471 911v-358h358v-51h-358v-359h-51v359h-359v51h359v358h51z" />
    <glyph glyph-name="comma" unicode="," horiz-adv-x="337" 
d="M123 45q0 20 13.5 33.5t31.5 13.5q20 0 33.5 -14.5t13.5 -42.5q0 -45 -17.5 -82t-39.5 -66q-25 -33 -56 -61l-10 10q20 23 37 47q14 23 25.5 52.5t13.5 64.5q-18 0 -31.5 13.5t-13.5 31.5z" />
    <glyph glyph-name="hyphen" unicode="-" horiz-adv-x="675" 
d="M614 502h-553v51h553v-51z" />
    <glyph glyph-name="period" unicode="." horiz-adv-x="337" 
d="M215 45q0 -18 -13.5 -31.5t-33.5 -13.5q-18 0 -31.5 13.5t-13.5 31.5q0 20 13.5 33.5t31.5 13.5q20 0 33.5 -13.5t13.5 -33.5z" />
    <glyph glyph-name="slash" unicode="/" horiz-adv-x="583" 
d="M51 -369h-51l532 1659h52z" />
    <glyph glyph-name="zero" unicode="0" horiz-adv-x="1208" 
d="M174 645q0 -145 37 -258t97.5 -189.5t138 -116.5t157.5 -40t158 40t138.5 116.5t97 189.5t36.5 258t-36.5 258t-97 189.5t-138.5 116.5t-158 40t-157.5 -40t-138 -116.5t-97.5 -189.5t-37 -258zM1085 645q0 -158 -40.5 -279.5t-107.5 -205.5t-154 -127t-179 -43t-179 43
t-153.5 127t-107.5 205.5t-41 279.5t41 280t107.5 205.5t153.5 126.5t179 43t179 -43t154 -126.5t107.5 -205.5t40.5 -280z" />
    <glyph glyph-name="one" unicode="1" horiz-adv-x="604" 
d="M420 1290v-1290h-51v1229l-277 -195l-31 41l308 215h51z" />
    <glyph glyph-name="two" unicode="2" horiz-adv-x="962" 
d="M850 51v-51h-748v51l512 543q49 49 86 104q33 47 60.5 110.5t27.5 133.5q0 66 -23.5 122t-64.5 97t-97 64.5t-122 23.5q-70 0 -128 -23.5t-103 -63.5t-72.5 -94t-34.5 -116h-51q8 74 40 137.5t82 110.5t118.5 73.5t148.5 26.5q76 0 142.5 -27.5t113.5 -74.5t75 -113.5
t28 -142.5q0 -78 -31 -148.5t-68 -123.5q-43 -63 -96 -117l-481 -502h686z" />
    <glyph glyph-name="three" unicode="3" horiz-adv-x="1003" 
d="M113 983q4 61 32.5 118.5t77.5 101.5t114.5 70.5t143.5 26.5q88 0 159 -25.5t120 -70.5t74.5 -106.5t25.5 -134.5q0 -92 -38 -150.5t-85 -91.5q-53 -37 -123 -55q76 -20 138 -64q53 -37 96 -100.5t43 -163.5q0 -74 -27.5 -137.5t-81 -110.5t-129 -73.5t-172.5 -26.5
q-84 0 -152.5 25.5t-119.5 68.5t-83 100.5t-44 122.5h51q12 -53 40 -101t73 -85t103.5 -58.5t131.5 -21.5q84 0 150.5 23.5t113 63.5t71 94t24.5 116q0 61 -24.5 115.5t-71 94.5t-113 63.5t-150.5 23.5h-82v51h82q76 0 137.5 21.5t103.5 59.5t64.5 88t22.5 108
q0 123 -87 204.5t-241 81.5q-66 0 -122 -22.5t-98 -60.5t-67.5 -86t-29.5 -97h-51z" />
    <glyph glyph-name="four" unicode="4" horiz-adv-x="942" 
d="M881 328h-154v-328h-51v328h-635v51l625 911h61v-911h154v-51zM676 379v840l-574 -840h574z" />
    <glyph glyph-name="five" unicode="5" 
d="M532 829q80 0 153 -32.5t128 -89t87 -133t32 -164.5t-33 -165t-88 -133.5t-130 -89t-159 -32.5t-152.5 25.5t-119.5 69.5t-83 103.5t-44 128.5h51q12 -57 40 -107t73 -88t103.5 -59.5t131.5 -21.5q74 0 138.5 28.5t113.5 79t78 117t29 144.5q0 76 -29 143.5t-77 117.5
t-110.5 78.5t-132.5 28.5q-92 0 -154.5 -31.5t-101.5 -70.5q-45 -45 -71 -103h-51l82 717h604v-51h-564l-61 -563q31 41 78 76q41 29 99 53t140 24z" />
    <glyph glyph-name="six" unicode="6" horiz-adv-x="1013" 
d="M512 -10q-84 0 -158.5 32.5t-130 89t-88.5 133.5t-33 165q0 66 19.5 126t42.5 107q27 55 61 105l359 542h61l-369 -542q27 23 64 40q31 16 75 28.5t97 12.5q84 0 158.5 -32.5t130 -89t88.5 -133t33 -164.5t-33 -165t-88.5 -133.5t-130 -89t-158.5 -32.5zM154 410
q0 -78 28.5 -144.5t77.5 -117t113.5 -79t138.5 -28.5t138.5 28.5t113.5 79t77.5 117t28.5 144.5q0 76 -28.5 143.5t-77.5 117.5t-113.5 78.5t-138.5 28.5t-138.5 -28.5t-113.5 -78.5t-77.5 -117.5t-28.5 -143.5z" />
    <glyph glyph-name="seven" unicode="7" horiz-adv-x="849" 
d="M799 1290v-51l-566 -1239h-59l574 1239h-687v51h738z" />
    <glyph glyph-name="eight" unicode="8" 
d="M512 -10q-88 0 -162 28.5t-126 77.5t-81.5 113.5t-29.5 138.5q0 104 45 170t98 103q63 43 143 65q-66 18 -118 55q-45 33 -81 91.5t-36 150.5q0 66 25.5 123t71.5 100t109.5 68.5t141.5 25.5q76 0 140.5 -25.5t110.5 -68.5t71.5 -100t25.5 -123q0 -92 -37 -150.5
t-82 -91.5q-53 -37 -116 -55q80 -23 143 -65q53 -37 98 -102.5t45 -170.5q0 -74 -29.5 -138.5t-81.5 -113.5t-126 -77.5t-162 -28.5zM512 655q-78 0 -141.5 -24.5t-109.5 -67.5t-71.5 -98t-25.5 -117q0 -61 25.5 -116.5t71.5 -98.5t109.5 -67.5t141.5 -24.5q76 0 140.5 24.5
t110.5 67.5t71.5 98.5t25.5 116.5t-25.5 116.5t-71.5 98.5t-110.5 67.5t-140.5 24.5zM512 1249q-66 0 -120 -21.5t-94 -58t-61.5 -85t-21.5 -101.5q0 -57 21.5 -107.5t61.5 -88t94 -59t120 -21.5t120 21.5t94 59t61.5 88t21.5 107.5q0 53 -21.5 101.5t-61.5 85t-94 58
t-120 21.5z" />
    <glyph glyph-name="nine" unicode="9" horiz-adv-x="1013" 
d="M502 1300q84 0 158.5 -32.5t130 -89t88 -133t32.5 -164.5q0 -66 -19.5 -126.5t-41.5 -107.5q-27 -55 -62 -104l-358 -543h-61l368 543q-27 -23 -63 -41q-31 -16 -75 -28.5t-97 -12.5q-84 0 -159 32.5t-130 89t-88 133.5t-33 165t33 164.5t88 133t130 89t159 32.5z
M860 881q0 76 -28.5 143.5t-77.5 117.5t-114 78.5t-138 28.5q-74 0 -138.5 -28.5t-113.5 -78.5t-78 -118t-29 -143q0 -78 29 -144.5t78 -117t113.5 -79t138.5 -28.5t138.5 28.5t113.5 79t77.5 117t28.5 144.5z" />
    <glyph glyph-name="colon" unicode=":" horiz-adv-x="337" 
d="M215 45q0 -18 -13.5 -31.5t-33.5 -13.5q-18 0 -31.5 13.5t-13.5 31.5q0 20 13.5 33.5t31.5 13.5q20 0 33.5 -13.5t13.5 -33.5zM215 854q0 -18 -13.5 -31.5t-33.5 -13.5q-18 0 -31.5 13.5t-13.5 31.5q0 20 13.5 33.5t31.5 13.5q20 0 33.5 -13.5t13.5 -33.5z" />
    <glyph glyph-name="semicolon" unicode=";" horiz-adv-x="337" 
d="M215 854q0 -18 -13.5 -31.5t-33.5 -13.5q-18 0 -31.5 13.5t-13.5 31.5q0 20 13.5 33.5t31.5 13.5q20 0 33.5 -13.5t13.5 -33.5zM123 45q0 20 13.5 33.5t31.5 13.5q20 0 33.5 -14.5t13.5 -42.5q0 -45 -17.5 -82t-39.5 -66q-25 -33 -56 -61l-10 10q20 23 37 47
q14 23 25.5 52.5t13.5 64.5q-18 0 -31.5 13.5t-13.5 31.5z" />
    <glyph glyph-name="less" unicode="&#x3c;" horiz-adv-x="870" 
d="M133 451l655 -359v-51l-706 389v41l706 389v-51z" />
    <glyph glyph-name="equal" unicode="=" horiz-adv-x="880" 
d="M61 358h758v-51h-758v51zM819 737v-51h-758v51h758z" />
    <glyph glyph-name="greater" unicode="&#x3e;" horiz-adv-x="870" 
d="M82 809v51l706 -389v-41l-706 -389v51l655 359z" />
    <glyph glyph-name="question" unicode="?" horiz-adv-x="870" 
d="M768 983q0 -82 -24.5 -138.5t-60.5 -99.5t-79 -79.5t-79 -79.5t-60.5 -99.5t-24.5 -138.5v-20h-51v20q0 86 24.5 146.5t60.5 105.5t79 81t79 78t60.5 94t24.5 130q0 53 -21.5 101.5t-59.5 85t-88 58t-108 21.5q-59 0 -113.5 -23.5t-95.5 -64.5t-64.5 -97t-23.5 -122v-41
h-51v41q0 76 26.5 142.5t74 113.5t111 74.5t136.5 27.5q70 0 129.5 -25.5t103.5 -68.5t69.5 -100t25.5 -123zM461 45q0 -18 -13.5 -31.5t-33.5 -13.5q-18 0 -31.5 13.5t-13.5 31.5q0 20 13 33.5t32 13.5q20 0 33.5 -13.5t13.5 -33.5z" />
    <glyph glyph-name="at" unicode="@" horiz-adv-x="1536" 
d="M1014 297q-23 -45 -60 -82q-31 -31 -79 -56.5t-117 -25.5q-66 0 -122 23.5t-97 66.5t-64.5 103.5t-23.5 134.5t23.5 134t64.5 103t97 66.5t122 23.5q70 0 118 -25.5t78.5 -56t45.5 -56.5l14 -27h10l10 155h31v-409q0 -86 46 -135.5t108 -49.5q35 0 67.5 17.5t59 54.5
t42 92t15.5 133q0 123 -47 231.5t-130 188.5t-194.5 127t-243.5 47q-131 0 -246.5 -50t-201.5 -134t-136 -195.5t-50 -234.5t50 -234.5t136 -195.5t201.5 -134.5t246.5 -50.5q66 0 123.5 15.5t100.5 36.5q51 23 94 51l31 -41q-45 -33 -101 -58q-47 -23 -111.5 -39
t-136.5 -16q-141 0 -266 53.5t-218 144.5t-147.5 212t-54.5 256t54.5 256t147.5 212t218 144t266 53t263.5 -50t211.5 -138t140 -205t51 -252q0 -88 -19.5 -153.5t-52 -108.5t-75.5 -64.5t-88 -21.5q-59 0 -96.5 25.5t-59.5 56.5q-25 37 -39 82h-10zM502 461
q0 -61 19.5 -112.5t54 -87.5t82 -56.5t100.5 -20.5t100 20.5t82 56.5t54.5 87t19.5 113q0 61 -19.5 112.5t-54.5 87t-82 56t-100 20.5t-100.5 -20.5t-82 -56t-54 -87t-19.5 -112.5z" />
    <glyph glyph-name="A" unicode="A" horiz-adv-x="1146" 
d="M553 1290h41l491 -1290h-51l-133 358h-655l-133 -358h-52zM266 410h615l-308 798z" />
    <glyph glyph-name="B" unicode="B" horiz-adv-x="1136" 
d="M739 696q78 -23 142 -65q53 -37 98 -102.5t45 -170.5q0 -74 -28.5 -138t-81 -113.5t-124 -78t-155.5 -28.5h-451v1290h430q76 0 140.5 -25.5t110.5 -68.5t72 -100.5t26 -122.5q0 -82 -36 -134.5t-77 -84.5q-50 -38 -111 -58zM236 666v-615h399q74 0 135 24.5t106.5 67.5
t71 98.5t25.5 116.5t-25.5 116.5t-71 98.5t-106.5 68t-135 25h-399zM236 717h378q66 0 120 21.5t94 56t61.5 82t21.5 96.5q0 53 -21.5 101t-61.5 85t-94 58.5t-120 21.5h-378v-522z" />
    <glyph glyph-name="C" unicode="C" horiz-adv-x="1310" 
d="M686 1249q-100 0 -194.5 -45t-167 -126t-116.5 -191.5t-44 -241.5t44 -241.5t116.5 -191.5t167 -126t194.5 -45q176 0 293 104.5t178 274.5h51q-31 -96 -79 -175t-113.5 -136.5t-147.5 -88t-182 -30.5q-111 0 -214 49t-183 136t-128 208t-48 262t48 262t128 208t183 136
t214 49q100 0 182 -30.5t146.5 -88t110.5 -136t73 -175.5h-51q-27 84 -69 154t-100 120t-131 77.5t-161 27.5z" />
    <glyph glyph-name="D" unicode="D" horiz-adv-x="1198" 
d="M451 51q123 0 229 45t185 125t124 188.5t45 235.5t-45 235.5t-124 188.5t-185.5 125t-228.5 45h-215v-1188h215zM1085 645q0 -139 -49 -257t-134 -204t-200.5 -135t-250.5 -49h-267v1290h267q135 0 250.5 -49t200.5 -135t134 -205t49 -256z" />
    <glyph glyph-name="E" unicode="E" horiz-adv-x="1054" 
d="M952 51v-51h-768v1290h748v-51h-696v-543h645v-51h-645v-594h716z" />
    <glyph glyph-name="F" unicode="F" horiz-adv-x="972" 
d="M184 0v1290h727v-51h-675v-563h563v-51h-563v-625h-52z" />
    <glyph glyph-name="G" unicode="G" horiz-adv-x="1361" 
d="M727 604h481v-604h-41l-10 328q-41 -96 -108 -170q-57 -63 -146.5 -115.5t-216.5 -52.5q-111 0 -214 49t-183 136t-128 208t-48 262t48 262t128 208t183 136t214 49q96 0 175 -28.5t140.5 -79.5t105.5 -121t71 -149h-52q-27 70 -67.5 129t-95 103t-124 69.5t-153.5 25.5
q-100 0 -194.5 -45t-167 -126t-116.5 -191.5t-44 -241.5t44 -241.5t116.5 -191.5t167 -126t194.5 -45q92 0 177 40t150.5 108.5t104.5 161.5t39 202h-430v51z" />
    <glyph glyph-name="H" unicode="H" horiz-adv-x="1218" 
d="M236 1290v-604h747v604h51v-1290h-51v635h-747v-635h-52v1290h52z" />
    <glyph glyph-name="I" unicode="I" horiz-adv-x="419" 
d="M236 0h-52v1290h52v-1290z" />
    <glyph glyph-name="J" unicode="J" horiz-adv-x="983" 
d="M809 1290v-870q0 -209 -104.5 -319.5t-274.5 -110.5q-80 0 -147.5 26.5t-116.5 72.5t-77 107.5t-28 131.5h52q0 -57 23.5 -109.5t65.5 -91.5t100 -62.5t128 -23.5q147 0 237.5 96t90.5 283v870h51z" />
    <glyph glyph-name="K" unicode="K" horiz-adv-x="972" 
d="M236 655v-655h-52v1290h52v-635l624 635h72l-635 -635l655 -655h-71z" />
    <glyph glyph-name="L" unicode="L" horiz-adv-x="942" 
d="M901 51v-51h-717v1290h52v-1239h665z" />
    <glyph glyph-name="M" unicode="M" horiz-adv-x="1515" 
d="M1270 1290h61v-1290h-51v1198l-502 -1198h-41l-501 1198v-1198h-52v1290h62l512 -1218z" />
    <glyph glyph-name="N" unicode="N" horiz-adv-x="1228" 
d="M1044 1290v-1290h-40l-768 1188v-1188h-52v1290h41l768 -1188v1188h51z" />
    <glyph glyph-name="O" unicode="O" horiz-adv-x="1372" 
d="M1208 645q0 131 -44 241.5t-116.5 191.5t-167 126t-194.5 45t-194.5 -45t-167 -126t-116.5 -191.5t-44 -241.5t44 -241.5t116.5 -191.5t167 -126t194.5 -45t194.5 45t167 126t116.5 191.5t44 241.5zM1260 645q0 -141 -48.5 -262t-128 -208t-183 -136t-214.5 -49t-214 49
t-183 136t-128 208t-48 262t48 262t128 208t183 136t214 49t214.5 -49t183 -136t128 -208t48.5 -262z" />
    <glyph glyph-name="P" unicode="P" horiz-adv-x="1064" 
d="M573 1290q84 0 156 -28.5t124 -80t81 -121t29 -149.5t-29 -149.5t-81 -120.5t-124 -80t-156 -29h-337v-532h-52v1290h389zM573 584q74 0 135.5 25.5t106.5 69.5t70.5 103.5t25.5 128.5q0 70 -25.5 129.5t-70.5 103.5t-106.5 69.5t-135.5 25.5h-337v-655h337z" />
    <glyph glyph-name="Q" unicode="Q" horiz-adv-x="1372" 
d="M1044 133q-43 -41 -98 -72q-47 -29 -113.5 -50t-146.5 -21q-111 0 -214 49t-183 136t-128 208t-48 262t48 262t128 208t183 136t214 49t214.5 -49t183 -136t128 -208t48.5 -262q0 -117 -29 -206t-64 -150q-41 -72 -92 -125l205 -195l-31 -30zM164 645q0 -131 44 -241.5
t116.5 -191.5t167 -126t194.5 -45q72 0 133.5 20.5t104.5 44.5q51 29 90 68l-185 174l31 31l184 -174q45 47 82 112q31 55 56.5 137.5t25.5 190.5q0 131 -44 241.5t-116.5 191.5t-167 126t-194.5 45t-194.5 -45t-167 -126t-116.5 -191.5t-44 -241.5z" />
    <glyph glyph-name="R" unicode="R" horiz-adv-x="1116" 
d="M236 625h387q70 0 128 23.5t101 64.5t66.5 97t23.5 122t-23.5 122t-66.5 97t-101.5 64.5t-127.5 23.5h-387v-614zM1024 0h-61l-338 573h-389v-573h-52v1290h439q82 0 149.5 -27.5t116.5 -74.5t76.5 -113.5t27.5 -142.5q0 -74 -23.5 -134.5t-65.5 -105.5t-100.5 -72.5
t-127.5 -35.5z" />
    <glyph glyph-name="S" unicode="S" 
d="M133 983q0 66 25.5 123t75 100t120 68.5t158.5 25.5q76 0 142.5 -26.5t116.5 -72.5t81 -107.5t39 -130.5h-51q-8 57 -36 109t-71 91t-99 62.5t-122 23.5q-78 0 -138.5 -21.5t-102.5 -58t-64.5 -85t-22.5 -101.5q0 -72 32 -117t82 -75.5t115.5 -51t134 -40t134.5 -44
t116 -63.5t81.5 -97.5t31.5 -146.5q0 -78 -27.5 -143.5t-80.5 -112.5t-129 -74.5t-172 -27.5q-88 0 -161 27.5t-125 74.5t-84 112.5t-40 143.5h51q8 -66 36 -122t74 -97t108.5 -64.5t140.5 -23.5q84 0 150.5 23.5t112.5 64.5t70.5 97.5t24.5 121.5q0 78 -31.5 130t-82 86
t-116 56.5t-134 42t-134 42t-115.5 57.5t-82 88t-32 133z" />
    <glyph glyph-name="T" unicode="T" horiz-adv-x="993" 
d="M932 1239h-410v-1239h-51v1239h-410v51h871v-51z" />
    <glyph glyph-name="U" unicode="U" horiz-adv-x="1249" 
d="M625 -10q-100 0 -183.5 33.5t-142.5 98t-92 158t-33 212.5v798h51v-798q0 -109 30 -192t82 -141.5t126 -88t162 -29.5t161.5 29.5t126 88t82 141.5t29.5 192v798h51v-798q0 -119 -32.5 -212.5t-92 -158t-142.5 -98t-183 -33.5z" />
    <glyph glyph-name="V" unicode="V" horiz-adv-x="1126" 
d="M584 0h-41l-482 1290h52l450 -1208l451 1208h51z" />
    <glyph glyph-name="W" unicode="W" horiz-adv-x="1638" 
d="M840 1290l338 -1188l338 1188h51l-369 -1290h-41l-338 1178l-338 -1178h-41l-368 1290h51l338 -1188l338 1188h41z" />
    <glyph glyph-name="X" unicode="X" 
d="M72 1290h61l379 -594l379 594h61l-409 -635l420 -655h-62l-389 614l-389 -614h-62l420 655z" />
    <glyph glyph-name="Y" unicode="Y" horiz-adv-x="1054" 
d="M61 1290h62l399 -706h10l400 706h61l-440 -768v-522h-51v522z" />
    <glyph glyph-name="Z" unicode="Z" horiz-adv-x="983" 
d="M113 1290h788v-30l-747 -1209h747v-51h-819v31l747 1208h-716v51z" />
    <glyph glyph-name="bracketleft" unicode="[" horiz-adv-x="573" 
d="M256 -317h256v-52h-307v1659h307v-51h-256v-1556z" />
    <glyph glyph-name="backslash" unicode="\" horiz-adv-x="583" 
d="M0 1290h51l533 -1659h-52z" />
    <glyph glyph-name="bracketright" unicode="]" horiz-adv-x="573" 
d="M317 1239h-256v51h308v-1659h-308v52h256v1556z" />
    <glyph glyph-name="asciicircum" unicode="^" horiz-adv-x="798" 
d="M645 696l-246 512l-245 -512h-52l277 574h41l276 -574h-51z" />
    <glyph glyph-name="underscore" unicode="_" horiz-adv-x="563" 
d="M604 -297h-645v51h645v-51z" />
    <glyph glyph-name="grave" unicode="`" horiz-adv-x="327" 
d="M266 1044h-30l-175 246h82z" />
    <glyph glyph-name="a" unicode="a" horiz-adv-x="911" 
d="M410 41q66 0 123 23.5t100 66.5t68.5 103.5t25.5 134.5v102h-102q-141 0 -234.5 -18.5t-149 -49t-77 -71.5t-21.5 -86q0 -86 68 -145.5t199 -59.5zM461 911q70 0 128 -23.5t100 -66.5t65.5 -103.5t23.5 -133.5v-584h-41l-10 184h-10q-27 -55 -70 -98q-37 -37 -94 -66.5
t-143 -29.5q-154 0 -236 73.5t-82 182.5q0 57 25.5 107t87 88t164 59.5t256.5 21.5h102v62q0 61 -20.5 112.5t-55.5 87t-84 56t-106 20.5q-117 0 -181.5 -56t-95.5 -149h-51q23 109 106 182.5t222 73.5z" />
    <glyph glyph-name="b" unicode="b" horiz-adv-x="1085" 
d="M154 1290h51v-624h10l21 38q20 39 63 85.5t110.5 84t163.5 37.5q84 0 161 -34.5t134.5 -96t91 -145.5t33.5 -184t-33.5 -184.5t-91 -146t-134.5 -96t-161 -34.5q-98 0 -164.5 38t-109.5 85q-51 53 -84 123h-10l-10 -236h-41v1290zM942 451q0 88 -30.5 162.5t-81 130
t-117 86t-140.5 30.5t-140 -30.5t-116.5 -86t-81 -130t-30.5 -162.5t30.5 -163t81 -130.5t117 -86t139.5 -30.5q74 0 140.5 30.5t117 86t81 130.5t30.5 163z" />
    <glyph glyph-name="c" unicode="c" horiz-adv-x="972" 
d="M512 860q-74 0 -140.5 -30.5t-116.5 -86t-81 -130t-31 -162.5t31 -163t81 -130.5t116.5 -86t140.5 -30.5q61 0 114.5 21.5t95.5 55.5t71.5 78t46.5 91h51q-12 -53 -45 -106.5t-83 -95.5t-113.5 -68.5t-137.5 -26.5q-84 0 -161 34.5t-134 96t-91 145.5t-34 185
q0 100 34 184t91 145.5t134 96t161 34.5q74 0 137.5 -26.5t113.5 -69.5t83 -98t45 -113h-51q-16 49 -46 96.5t-72 82t-95.5 56t-114.5 21.5z" />
    <glyph glyph-name="d" unicode="d" horiz-adv-x="1085" 
d="M932 0h-41l-10 236h-11q-33 -70 -84 -123q-43 -47 -110.5 -85t-163.5 -38q-84 0 -161 34.5t-134 96t-91 145.5t-34 185q0 100 34 184t91 145.5t134 96t161 34.5q96 0 163.5 -37.5t110.5 -84t64 -85.5l20 -38h11v624h51v-1290zM143 451q0 -88 31 -163t81 -130.5t116.5 -86
t140.5 -30.5t140.5 30.5t116.5 86t81 130t31 163.5q0 88 -31 162.5t-81 130t-116.5 86t-140.5 30.5t-140.5 -30.5t-116.5 -86t-81 -130t-31 -162.5z" />
    <glyph glyph-name="e" unicode="e" horiz-adv-x="1003" 
d="M881 215q-18 -39 -51 -79t-78 -72.5t-102.5 -53t-127.5 -20.5q-88 0 -167 34.5t-137 96t-92 145.5t-34 185q0 100 34 184t91 145.5t134 96t161 34.5q80 0 152.5 -32.5t128 -89t87 -133t31.5 -164.5q0 -12 -2 -22.5t-4 -20.5t-4 -19h-758q8 -88 39 -159.5t81 -123
t115.5 -79t143.5 -27.5q57 0 105.5 17.5t86.5 43t67.5 56t47.5 57.5h52zM512 860q-74 0 -137.5 -28.5t-112.5 -80t-79.5 -121t-39.5 -149.5h717q0 80 -28.5 149.5t-76.5 121t-110.5 80t-132.5 28.5z" />
    <glyph glyph-name="f" unicode="f" horiz-adv-x="522" 
d="M492 850h-236v-850h-51v850h-164v51h164v164q0 109 62.5 172t162.5 63q16 0 28.5 -2t22.5 -4t21 -4v-51q-10 2 -21 4q-10 2 -22.5 4t-28.5 2q-78 0 -126 -49t-48 -135v-164h236v-51z" />
    <glyph glyph-name="g" unicode="g" horiz-adv-x="1034" 
d="M195 -72q31 -100 106.5 -162.5t220.5 -62.5q66 0 123 25.5t100 70.5t69 106.5t26 135.5v215h-11q-31 -63 -79 -113q-41 -43 -105.5 -77.5t-152.5 -34.5q-80 0 -153 32.5t-128 91t-87 139.5t-32 177t32 177t87 139.5t128 91t153 32.5q92 0 155.5 -35.5t104.5 -76.5
q47 -51 77 -113h11l10 215h41v-860q0 -84 -28.5 -155.5t-79 -124t-118 -81t-143.5 -28.5q-84 0 -149.5 21.5t-112.5 59.5t-75.5 88t-41.5 107h52zM143 471q0 -84 29 -155.5t77 -124t110.5 -81t132.5 -28.5t132 28.5t110 81t77 124t29 155.5t-29 155.5t-77 124t-110.5 81
t-131.5 28.5q-70 0 -132.5 -28.5t-110.5 -81t-77 -124t-29 -155.5z" />
    <glyph glyph-name="h" unicode="h" horiz-adv-x="1013" 
d="M522 911q76 0 142.5 -27.5t113.5 -77.5t75 -120t28 -154v-532h-52v532q0 74 -23.5 134.5t-64.5 103.5t-97 66.5t-122 23.5t-123 -23.5t-100 -66.5t-68.5 -103.5t-25.5 -134.5v-532h-51v1290h51v-573h10q27 53 70 96q37 37 94 67.5t143 30.5z" />
    <glyph glyph-name="i" unicode="i" horiz-adv-x="337" 
d="M143 901h52v-901h-52v901zM215 1184q0 -20 -13.5 -33.5t-33.5 -13.5q-18 0 -31.5 13t-13.5 34q0 18 13.5 31.5t31.5 13.5q20 0 33.5 -13.5t13.5 -31.5z" />
    <glyph glyph-name="j" unicode="j" horiz-adv-x="337" 
d="M143 901h52v-1003q0 -109 -62.5 -172.5t-163.5 -63.5q-16 0 -28.5 1t-22.5 3t-20 6v52q10 -4 20 -7q10 -2 22.5 -3t28.5 -1q78 0 126 49.5t48 135.5v1003zM215 1184q0 -20 -13.5 -33.5t-33.5 -13.5q-18 0 -31.5 13t-13.5 34q0 18 13.5 31.5t31.5 13.5q20 0 33.5 -13.5
t13.5 -31.5z" />
    <glyph glyph-name="k" unicode="k" horiz-adv-x="819" 
d="M205 471v-471h-51v1290h51v-819l481 430h72l-482 -430l523 -471h-72z" />
    <glyph glyph-name="l" unicode="l" horiz-adv-x="358" 
d="M205 0h-51v1290h51v-1290z" />
    <glyph glyph-name="m" unicode="m" horiz-adv-x="1454" 
d="M1024 911q57 0 110.5 -25.5t95.5 -72.5t66.5 -113.5t24.5 -146.5v-553h-51v553q0 70 -21.5 126t-55.5 96t-79 62.5t-90 22.5q-53 0 -101.5 -22.5t-85 -62.5t-58 -96t-21.5 -126v-553h-51v553q0 70 -21.5 126t-55.5 96t-79 62.5t-90 22.5q-53 0 -101.5 -22.5t-85 -62.5
t-58 -96t-21.5 -126v-553h-52v901h41l11 -164h10q23 49 59 86q31 33 79 60.5t118 27.5q78 0 130 -35.5t85 -76.5q37 -51 61 -113q25 61 64 113q35 41 88 76.5t135 35.5z" />
    <glyph glyph-name="n" unicode="n" horiz-adv-x="1003" 
d="M512 911q76 0 142.5 -27.5t113.5 -77.5t74.5 -120t27.5 -154v-532h-51v532q0 74 -23.5 134.5t-64.5 103.5t-97 66.5t-122 23.5t-123 -23.5t-100 -66.5t-68.5 -103.5t-25.5 -134.5v-532h-52v901h41l11 -184h10q27 53 69 96q37 37 94.5 67.5t143.5 30.5z" />
    <glyph glyph-name="o" unicode="o" 
d="M143 451q0 -88 31 -163t81 -130.5t116.5 -86t140.5 -30.5t140.5 30.5t116.5 86t81 130t31 163.5q0 88 -31 162.5t-81 130t-116.5 86t-140.5 30.5t-140.5 -30.5t-116.5 -86t-81 -130t-31 -162.5zM92 451q0 100 34 184t91 145.5t134 96t161 34.5t161 -34.5t134 -96
t91 -145.5t34 -184t-34 -184.5t-91 -146t-134 -96t-161 -34.5t-161 34.5t-134 96t-91 146t-34 184.5z" />
    <glyph glyph-name="p" unicode="p" horiz-adv-x="1075" 
d="M143 901h41l11 -235h10q33 70 84 122q43 47 109.5 85t164.5 38q84 0 161 -34.5t134 -96t91 -145.5t34 -184t-34 -184.5t-91 -146t-134 -96t-161 -34.5q-96 0 -163.5 38t-110.5 84t-63 85l-21 39h-10v-564h-52v1229zM932 451q0 88 -31 162.5t-81 130t-116.5 86
t-140.5 30.5t-140.5 -30.5t-116.5 -86t-80.5 -130t-30.5 -162.5t30.5 -163t80.5 -130.5t116.5 -86t140.5 -30.5t140.5 30.5t116.5 86t81 130.5t31 163z" />
    <glyph glyph-name="q" unicode="q" horiz-adv-x="1075" 
d="M932 -328h-51v564h-11l-20 -39q-21 -39 -64 -85t-110.5 -84t-163.5 -38q-84 0 -161 34.5t-134 96t-91 145.5t-34 185q0 100 34 184t91 145.5t134 96t161 34.5q96 0 163.5 -37.5t110.5 -85.5q51 -53 84 -122h11l10 235h41v-1229zM143 451q0 -88 31 -163t81 -130.5
t116.5 -86t140.5 -30.5t140.5 30.5t116.5 86t81 130t31 163.5q0 88 -31 162.5t-81 130t-116.5 86t-140.5 30.5t-140.5 -30.5t-116.5 -86t-81 -130t-31 -162.5z" />
    <glyph glyph-name="r" unicode="r" horiz-adv-x="593" 
d="M553 911v-51h-61q-57 0 -110.5 -23.5t-95.5 -66.5t-66.5 -103.5t-24.5 -134.5v-532h-52v901h41l11 -184h10q25 53 65 96q35 37 89.5 67.5t132.5 30.5h61z" />
    <glyph glyph-name="s" unicode="s" horiz-adv-x="808" 
d="M707 236q0 -49 -20.5 -94.5t-59.5 -79t-93.5 -53t-123.5 -19.5q-70 0 -128.5 22.5t-100.5 61.5t-65.5 89t-23.5 103h51q8 -92 79 -158.5t188 -66.5t181 58.5t64 136.5q0 72 -40 110.5t-100 62t-131 39t-131 41t-100 67.5t-40 120q0 45 20.5 88t57 75.5t90 52t118.5 19.5
q66 0 120 -21.5t95 -58t64.5 -85t28.5 -101.5h-52q-16 92 -81.5 153.5t-174.5 61.5q-53 0 -97 -15.5t-74.5 -42t-47 -59t-16.5 -67.5q0 -63 40 -97t100.5 -55.5t131 -37t131 -43t100.5 -75.5t40 -132z" />
    <glyph glyph-name="t" unicode="t" horiz-adv-x="604" 
d="M225 850h-184v51h92q92 0 92 92v174h51v-266h236v-51h-236v-625q0 -86 48.5 -135t126.5 -49q16 0 28.5 1t22.5 3t20 6v-51q-10 -4 -20 -6t-22.5 -3t-28.5 -1q-100 0 -163 63.5t-63 171.5v625z" />
    <glyph glyph-name="u" unicode="u" horiz-adv-x="1013" 
d="M502 -10q-78 0 -143.5 27.5t-112.5 77.5t-75 120t-28 154v532h52v-532q0 -74 23.5 -134.5t64.5 -103.5t97 -66.5t122 -23.5t123 23.5t100 66.5t68.5 103.5t25.5 134.5v532h51v-901h-41l-10 184h-10q-27 -55 -70 -98q-37 -37 -94 -66.5t-143 -29.5z" />
    <glyph glyph-name="v" unicode="v" horiz-adv-x="880" 
d="M829 901l-368 -901h-41l-369 901h51l338 -829l338 829h51z" />
    <glyph glyph-name="w" unicode="w" horiz-adv-x="1290" 
d="M389 0h-41l-287 901h52l256 -809l256 809h41l256 -809l256 809h51l-287 -901h-41l-256 809z" />
    <glyph glyph-name="x" unicode="x" horiz-adv-x="819" 
d="M72 901h61l277 -399l276 399h62l-308 -440l328 -461h-61l-297 420l-297 -420h-62l328 461z" />
    <glyph glyph-name="y" unicode="y" horiz-adv-x="880" 
d="M829 901l-419 -1044q-41 -100 -94.5 -147.5t-131.5 -47.5q-12 0 -32 4q-8 2 -19 6v52q10 -4 19 -7q20 -4 32 -4q61 0 102.5 33t71.5 111l82 204l-389 840h51l359 -778h10l307 778h51z" />
    <glyph glyph-name="z" unicode="z" horiz-adv-x="788" 
d="M645 850h-553v51h625v-31l-574 -819h574v-51h-645v31z" />
    <glyph glyph-name="braceleft" unicode="{" horiz-adv-x="624" 
d="M123 481q78 0 121 44t43 130v400q0 117 58 176t167 59h51v-51h-51q-174 0 -174 -184v-400q0 -66 -22.5 -103.5t-49.5 -57.5q-33 -23 -71 -33q39 -10 71 -33q27 -20 49.5 -58t22.5 -104v-399q0 -184 174 -184h51v-52h-51q-109 0 -167 59.5t-58 176.5v399q0 86 -43 130
t-121 44v41z" />
    <glyph glyph-name="bar" unicode="|" horiz-adv-x="542" 
d="M246 1290h51v-1618h-51v1618z" />
    <glyph glyph-name="braceright" unicode="}" horiz-adv-x="624" 
d="M502 440q-78 0 -121 -44t-43 -130v-399q0 -117 -58.5 -176.5t-166.5 -59.5h-52v52h52q174 0 174 184v399q0 66 21.5 104t49.5 58q31 23 72 33q-41 10 -72 33q-29 20 -50 58t-21 103v400q0 184 -174 184h-52v51h52q109 0 167 -59.5t58 -175.5v-400q0 -86 43 -130t121 -44
v-41z" />
    <glyph glyph-name="asciitilde" unicode="~" horiz-adv-x="901" 
d="M246 625q-61 0 -107.5 -51.5t-46.5 -143.5h-51q0 117 59.5 181.5t145.5 64.5q61 0 114.5 -32t102.5 -70.5t96 -70.5t96 -32q61 0 107.5 51t46.5 144h51q0 -117 -59.5 -181.5t-145.5 -64.5q-61 0 -114.5 31.5t-102.5 70.5t-96 71t-96 32z" />
    <glyph glyph-name="uni00A0" unicode="&#xa0;" horiz-adv-x="409" 
 />
    <glyph glyph-name="exclamdown" unicode="&#xa1;" horiz-adv-x="460" 
d="M256 -328h-51v901h51v-901zM276 856q0 -20 -13 -33.5t-34 -13.5q-18 0 -31.5 13.5t-13.5 33.5q0 18 13.5 31.5t31.5 13.5q20 0 33.5 -13.5t13.5 -31.5z" />
    <glyph glyph-name="cent" unicode="&#xa2;" horiz-adv-x="972" 
d="M481 -10q-74 4 -143.5 38.5t-123.5 95t-88 143.5t-34 184q0 100 34 183t88 143.5t124 95t143 38.5v215h51v-215q70 -4 130.5 -30.5t107.5 -68.5t78 -96t43 -112h-51q-16 49 -46 96.5t-72 82t-95.5 56t-114.5 21.5q-74 0 -140.5 -30.5t-116.5 -86t-81 -130t-31 -162.5
t31 -163t81 -130.5t116.5 -86t140.5 -30.5q61 0 114.5 21.5t95.5 55.5t71.5 78t46.5 91h51q-12 -53 -43 -105.5t-78 -93.5t-107.5 -67.5t-130.5 -30.5v-195h-51v195z" />
    <glyph glyph-name="sterling" unicode="&#xa3;" horiz-adv-x="993" 
d="M297 246q0 -53 -16.5 -91t-34.5 -61q-23 -27 -51 -43h737v-51h-830v51q61 23 102.5 70t41.5 125v317h-144v51h144v328q0 76 26.5 142.5t73.5 113.5t110.5 74.5t137.5 27.5q139 0 230 -92t108 -245h-51q-16 131 -93 208.5t-194 77.5q-61 0 -115.5 -23.5t-94.5 -64.5
t-63.5 -97t-23.5 -122v-328h379v-51h-379v-317z" />
    <glyph glyph-name="currency" unicode="&#xa4;" horiz-adv-x="1095" 
d="M625 625q70 0 128 23q58 24 100 65t66 97t23 122q0 66 -23 122q-24 56 -66 97t-100 64q-58 24 -128 24h-349v-614h349zM993 932q0 -78 -27 -144q-28 -66 -77 -112q-49 -47 -117 -75t-147 -28h-349v-215h461v-51h-461v-307h-51v307h-184v51h184v215h-184v52h184v665h400
q80 0 147 -27q68 -28 117 -75t77 -114q27 -66 27 -142z" />
    <glyph glyph-name="yen" unicode="&#xa5;" horiz-adv-x="1054" 
d="M860 573v-51h-307v-194h307v-52h-307v-276h-51v276h-307v52h307v194h-307v51h276l-410 717h62l399 -706h10l400 706h61l-409 -717h276z" />
    <glyph glyph-name="brokenbar" unicode="&#xa6;" horiz-adv-x="542" 
d="M246 307h51v-635h-51v635zM246 1290h51v-635h-51v635z" />
    <glyph glyph-name="section" unicode="&#xa7;" horiz-adv-x="972" 
d="M799 532q0 45 -16.5 86t-56.5 76t-104.5 63.5t-160.5 51.5q-80 -29 -144 -68q-53 -35 -98 -88t-45 -131q0 -47 16.5 -87t56.5 -74.5t104.5 -63.5t160.5 -51q80 25 143 65q53 35 98.5 89t45.5 132zM850 532q0 -82 -45 -139t-98 -94q-63 -43 -144 -74q63 -20 117 -53
q45 -29 82 -73t37 -109q0 -47 -20.5 -89t-60.5 -75t-96.5 -52.5t-129.5 -19.5q-70 0 -126.5 21.5t-98.5 60.5t-65.5 91.5t-27.5 113.5h51q8 -100 79 -168t188 -68q61 0 109 15.5t80 42t49.5 59.5t17.5 68q0 70 -46.5 109.5t-116 67.5t-150.5 51.5t-150.5 59t-115.5 93
t-46 151.5q0 80 45 138.5t98 95.5q63 43 144 73q-61 20 -109 54q-41 29 -73.5 72.5t-32.5 109.5q0 45 20.5 88t57 76t90 52t118.5 19q61 0 113.5 -21.5t92.5 -59t63.5 -88t27.5 -107.5h-51q-4 45 -24.5 86t-52.5 71.5t-76 49t-93 18.5q-53 0 -97 -15t-74.5 -42t-47 -59.5
t-16.5 -67.5q0 -70 45 -111t111.5 -68.5t145.5 -52t145.5 -60.5t111.5 -92.5t45 -148.5z" />
    <glyph glyph-name="dieresis" unicode="&#xa8;" horiz-adv-x="512" 
d="M154 1194q0 -20 -13.5 -33.5t-34.5 -13.5q-18 0 -31.5 13.5t-13.5 33.5q0 18 13.5 31.5t31.5 13.5q20 0 34 -13.5t14 -31.5zM451 1194q0 -20 -13.5 -33.5t-34.5 -13.5q-18 0 -31.5 13.5t-13.5 33.5q0 18 13.5 31.5t31.5 13.5q20 0 34 -13.5t14 -31.5z" />
    <glyph glyph-name="copyright" unicode="&#xa9;" horiz-adv-x="1474" 
d="M1321 645q0 127 -46 237.5t-126 191.5t-186.5 128t-225.5 47t-225 -47t-186 -128t-126 -191.5t-46 -237.5t46 -237.5t126 -191.5t186 -128t225 -47t225.5 47t186.5 128t126 191.5t46 237.5zM1372 645q0 -139 -50 -258t-136 -208t-202 -139t-247 -50t-246.5 50t-201.5 139
t-136.5 208t-50.5 258q0 137 50.5 257t136.5 209t201.5 139t246.5 50t247 -50t202 -139t136 -209t50 -257zM492 645q0 -61 21.5 -113.5t55 -91.5t77.5 -60.5t91 -21.5q92 0 148.5 44t87.5 130h51q-31 -109 -103.5 -167t-172.5 -58q-61 0 -117 25.5t-99 71t-67.5 106.5
t-24.5 135t24.5 135.5t67.5 106.5t98.5 70.5t117.5 25.5q100 0 172.5 -58.5t103.5 -166.5h-51q-31 86 -87.5 130t-148.5 44q-47 0 -91 -21.5t-77.5 -60.5t-55 -91.5t-21.5 -113.5z" />
    <glyph glyph-name="ordfeminine" unicode="&#xaa;" horiz-adv-x="563" 
d="M246 799q78 0 131 56t53 149v10h-61q-78 0 -127 -9.5t-78 -24.5t-40 -35.5t-11 -43.5q0 -39 36 -70.5t97 -31.5zM287 1300q86 0 140 -54t54 -140v-348h-41l-10 100h-8q-18 -33 -43 -55q-23 -23 -54.5 -39t-78.5 -16q-86 0 -135.5 46t-49.5 107q0 35 15.5 64.5t50.5 52
t94.5 35t147.5 12.5h61v41q0 61 -41 102t-102 41q-68 0 -102.5 -27.5t-51.5 -74.5h-51q16 61 67.5 107t137.5 46z" />
    <glyph glyph-name="guillemotleft" unicode="&#xab;" horiz-adv-x="737" 
d="M164 461l215 -307h-62l-215 307l215 307h62zM461 461l215 -307h-62l-215 307l215 307h62z" />
    <glyph glyph-name="logicalnot" unicode="&#xac;" horiz-adv-x="890" 
d="M829 748v-328h-51v276h-737v52h788z" />
    <glyph glyph-name="uni00AD" unicode="&#xad;" horiz-adv-x="675" 
d="M614 502h-553v51h553v-51z" />
    <glyph glyph-name="registered" unicode="&#xae;" horiz-adv-x="1474" 
d="M973 788q0 -61 -27.5 -98t-60.5 -55q-37 -23 -86 -31l194 -287h-61l-195 287h-153v-287h-52v656h246q86 0 140.5 -53.5t54.5 -131.5zM778 655q61 0 102.5 40t41.5 93t-41 93.5t-103 40.5h-194v-267h194zM1321 645q0 127 -46 237.5t-126 191.5t-186.5 128t-225.5 47
t-225 -47t-186 -128t-126 -191.5t-46 -237.5t46 -237.5t126 -191.5t186 -128t225 -47t225.5 47t186.5 128t126 191.5t46 237.5zM1372 645q0 -139 -50 -258t-136 -208t-202 -139t-247 -50t-246.5 50t-201.5 139t-136.5 208t-50.5 258q0 137 50.5 257t136.5 209t201.5 139
t246.5 50t247 -50t202 -139t136 -209t50 -257z" />
    <glyph glyph-name="macron" unicode="&#xaf;" horiz-adv-x="593" 
d="M532 1137h-471v51h471v-51z" />
    <glyph glyph-name="degree" unicode="&#xb0;" horiz-adv-x="655" 
d="M573 1044q0 -49 -19 -94t-53 -78.5t-79 -53t-94 -19.5t-94.5 19.5t-79 53t-53 78.5t-19.5 94t19.5 94.5t53 79t79 53t94.5 19.5t94 -19.5t79 -53t53 -79t19 -94.5zM133 1044q0 -39 16.5 -73.5t43 -61t61.5 -43t74 -16.5t73.5 16.5t61 43t43 61.5t16.5 73q0 39 -16.5 74
t-43 61.5t-61 43t-73.5 16.5t-74 -16.5t-61.5 -43t-43 -61.5t-16.5 -74z" />
    <glyph glyph-name="plusminus" unicode="&#xb1;" horiz-adv-x="890" 
d="M829 154v-52h-768v52h359v430h-359v51h359v358h51v-358h358v-51h-358v-430h358z" />
    <glyph glyph-name="uni00B2" unicode="&#xb2;" horiz-adv-x="501" 
d="M123 932h307v-51h-369v51l236 237q23 25 41 50q16 23 28.5 48t12.5 54q0 47 -35 80t-88 33t-89 -35t-44 -88h-51q8 78 57 126t127 48t126 -47t48 -117q0 -35 -16.5 -66.5t-34.5 -58.5q-23 -31 -51 -57z" />
    <glyph glyph-name="uni00B3" unicode="&#xb3;" horiz-adv-x="522" 
d="M317 1198q37 -6 66 -27q25 -16 46.5 -46.5t21.5 -80.5q0 -70 -54.5 -122t-140.5 -52t-136 48.5t-59 125.5h52q8 -53 45 -87.5t98 -34.5t102 37.5t41 84.5t-41 85t-102 38h-61v52h61q53 0 88 31.5t35 70.5q0 47 -35 80t-88 33t-89 -35t-44 -88h-51q8 78 57 126t127 48
t126 -47t48 -117q0 -39 -17.5 -62.5t-39.5 -37.5q-25 -17 -56 -23z" />
    <glyph glyph-name="acute" unicode="&#xb4;" horiz-adv-x="327" 
d="M184 1290h82l-174 -246h-31z" />
    <glyph glyph-name="mu" unicode="&#xb5;" horiz-adv-x="1013" 
d="M143 901h52v-532q0 -74 23.5 -134.5t64.5 -103.5t97 -66.5t122 -23.5t123 23.5t100 66.5t68.5 103.5t25.5 134.5v532h51v-901h-41l-10 184h-10q-27 -55 -70 -98q-37 -37 -94 -66.5t-143 -29.5q-106 0 -178 53t-119 131h-10v-502h-52v1229z" />
    <glyph glyph-name="paragraph" unicode="&#xb6;" horiz-adv-x="921" 
d="M737 1290v-1474h-51v1423h-225v-1423h-51v942q-131 0 -209 74.5t-78 191.5t78 191.5t209 74.5h327z" />
    <glyph glyph-name="periodcentered" unicode="&#xb7;" horiz-adv-x="409" 
d="M256 639q0 -18 -13.5 -31.5t-33.5 -13.5q-18 0 -31.5 13.5t-13.5 31.5q0 20 13 33.5t32 13.5q20 0 33.5 -13.5t13.5 -33.5z" />
    <glyph glyph-name="cedilla" unicode="&#xb8;" horiz-adv-x="348" 
d="M154 -82q61 0 97 -38t36 -85t-38 -85t-116 -38q-16 0 -28.5 1t-22.5 3t-21 7v41q10 -4 21 -7q10 -2 22.5 -3t28.5 -1q53 0 78 25.5t25 56.5t-23 56.5t-70 25.5q-8 0 -16 -2l-16 -4t-19 -4l62 133h41z" />
    <glyph glyph-name="uni00B9" unicode="&#xb9;" horiz-adv-x="358" 
d="M195 1475h41v0v-594h-52v532l-143 -92l-21 41z" />
    <glyph glyph-name="ordmasculine" unicode="&#xba;" horiz-adv-x="655" 
d="M584 1024q0 -57 -21.5 -107.5t-56.5 -88t-82 -59t-96 -21.5t-96.5 21.5t-82 59t-56 88t-21.5 107.5t21.5 107.5t56 88t82 59t96.5 21.5t96 -21.5t82 -59t56.5 -88t21.5 -107.5zM532 1024q0 45 -17 86t-46 71.5t-65.5 49t-75.5 18.5t-76 -18.5t-65.5 -49t-46 -71.5
t-17.5 -86q0 -47 17.5 -88t46 -71.5t65.5 -48t76 -17.5t75.5 17.5t65.5 48t46 71.5t17 88z" />
    <glyph glyph-name="guillemotright" unicode="&#xbb;" horiz-adv-x="737" 
d="M358 768h62l215 -307l-215 -307h-62l215 307zM61 768h62l215 -307l-215 -307h-62l215 307z" />
    <glyph glyph-name="onequarter" unicode="&#xbc;" horiz-adv-x="1198" 
d="M1014 184h82v-51h-82v-133h-51v133h-277v51l266 410h62v-410zM963 184v348l-226 -348h226zM256 1290h41v0v-594h-51v533l-144 -92l-20 41zM225 0h-61l778 1290h62z" />
    <glyph glyph-name="onehalf" unicode="&#xbd;" horiz-adv-x="1239" 
d="M829 51h308v-51h-369v51l236 238q23 25 40 49q16 23 29 48q12 26 12 54q0 47 -34 80q-35 33 -88 33t-90 -35q-36 -35 -44 -88h-51q8 78 58 126q49 48 127 48t126 -47t48 -117q0 -35 -17 -66q-16 -32 -35 -59q-23 -31 -51 -57zM256 1290h41v0v-594h-51v533l-144 -92
l-20 41zM225 0h-61l778 1290h62z" />
    <glyph glyph-name="threequarters" unicode="&#xbe;" horiz-adv-x="1310" 
d="M358 1014q37 -6 66 -27q25 -16 46 -47q22 -31 22 -80q0 -70 -55 -122q-54 -52 -140 -52t-136 48t-59 126h52q8 -53 45 -88t98 -35t102 38t41 85t-41 85t-102 38h-61v51h61q53 0 88 32t35 71q0 47 -35 80t-88 32q-53 0 -89 -35t-44 -88h-51q8 78 57 126t127 48t126 -47
t48 -116q0 -39 -17 -63t-40 -38q-25 -16 -56 -22zM1126 184h82v-51h-82v-133h-51v133h-276v51l266 410h61v-410zM1075 184v348l-225 -348h225zM338 0h-62l779 1290h61z" />
    <glyph glyph-name="questiondown" unicode="&#xbf;" horiz-adv-x="849" 
d="M102 -20q0 76 25 130t60.5 96t78.5 75.5t79 72.5t60.5 85t24.5 114v20h51v-20q0 -72 -24.5 -122t-60.5 -90t-79 -75t-78.5 -74.5t-60 -90t-24.5 -121.5q0 -53 21.5 -101.5t59 -85.5t88 -58.5t107.5 -21.5q59 0 113.5 23.5t95.5 64.5t64.5 97.5t23.5 121.5v41h51v-41
q0 -78 -26.5 -143t-73.5 -112.5t-110.5 -75t-137.5 -27.5q-70 0 -129 25.5t-103 68.5t-70 100.5t-26 123.5zM410 856q0 18 13 31.5t34 13.5q18 0 31.5 -13.5t13.5 -31.5q0 -20 -13.5 -33.5t-31.5 -13.5q-20 0 -33.5 13.5t-13.5 33.5z" />
    <glyph glyph-name="Agrave" unicode="&#xc0;" horiz-adv-x="1146" 
d="M553 1290h41l491 -1290h-51l-133 358h-655l-133 -358h-52zM266 410h615l-308 798zM584 1444h-31l-174 246h82z" />
    <glyph glyph-name="Aacute" unicode="&#xc1;" horiz-adv-x="1146" 
d="M686 1690h82l-174 -246h-31zM553 1290h41l491 -1290h-51l-133 358h-655l-133 -358h-52zM266 410h615l-308 798z" />
    <glyph glyph-name="Acircumflex" unicode="&#xc2;" horiz-adv-x="1146" 
d="M553 1669h41l205 -225h-62l-164 184l-163 -184h-62zM553 1290h41l491 -1290h-51l-133 358h-655l-133 -358h-52zM266 410h615l-308 798z" />
    <glyph glyph-name="Atilde" unicode="&#xc3;" horiz-adv-x="1146" 
d="M696 1487q39 0 66 31t26 92h52q0 -86 -41 -130t-103 -44q-39 0 -70 20q-32 20 -60 46t-53 46q-26 20 -52 21q-39 0 -66 -31t-26 -92h-52q0 86 41 130t103 44q39 0 70 -21q32 -20 60 -46t53 -46t52 -20zM553 1290h41l491 -1290h-51l-133 358h-655l-133 -358h-52zM266 410
h615l-308 798z" />
    <glyph glyph-name="Adieresis" unicode="&#xc4;" horiz-adv-x="1146" 
d="M471 1542q0 -20 -13 -34q-13 -13 -34 -13q-18 0 -32 13q-13 13 -13 34q0 18 13 32q13 13 32 13q20 0 34 -13q13 -14 13 -32zM768 1542q0 -20 -13 -34q-13 -13 -34 -13q-18 0 -32 13q-13 13 -13 34q0 18 13 32q13 13 32 13q20 0 34 -13q13 -14 13 -32zM553 1290h41
l491 -1290h-51l-133 358h-655l-133 -358h-52zM266 410h615l-308 798z" />
    <glyph glyph-name="Aring" unicode="&#xc5;" horiz-adv-x="1146" 
d="M737 1567q0 -70 -47 -117t-117 -47t-116 47q-47 47 -47 117t47 116q47 47 116 48q70 0 117 -48q47 -46 47 -116zM686 1567q0 47 -33 80t-80 32q-47 0 -79 -32q-33 -33 -33 -80t33 -80t79 -33q47 0 80 33t33 80zM553 1290h41l491 -1290h-51l-133 358h-655l-133 -358h-52z
M266 410h615l-308 798z" />
    <glyph glyph-name="AE" unicode="&#xc6;" horiz-adv-x="1607" 
d="M748 1290h737v-51h-635v-543h584v-51h-584v-594h655v-51h-706v369h-512l-205 -369h-62zM317 420h482v819h-21z" />
    <glyph glyph-name="Ccedilla" unicode="&#xc7;" horiz-adv-x="1310" 
d="M686 1249q-100 0 -194.5 -45t-167 -126t-116.5 -191.5t-44 -241.5t44 -241.5t116.5 -191.5t167 -126t194.5 -45q176 0 293 104.5t178 274.5h51q-31 -96 -78 -175t-112.5 -135.5t-148.5 -88t-183 -31.5l-31 -72q61 0 97 -38t36 -85t-37.5 -85t-115.5 -38q-16 0 -28.5 1
t-22.5 3t-21 7v41q10 -4 21 -7q10 -2 22 -3t29 -1q53 0 77.5 25.5t24.5 56.5t-22.5 56.5t-69.5 25.5q-8 0 -16 -2t-17 -4q-8 -2 -18 -4l51 123q-104 12 -200.5 63t-170 137t-117.5 201t-44 254q0 141 48 262t128 208t183 136t214 49q100 0 182 -30.5t146.5 -88t110.5 -136
t73 -175.5h-51q-27 84 -69 154t-100 120t-131 77.5t-161 27.5z" />
    <glyph glyph-name="Egrave" unicode="&#xc8;" horiz-adv-x="1054" 
d="M604 1444h-31l-174 246h82zM952 51v-51h-768v1290h748v-51h-696v-543h645v-51h-645v-594h716z" />
    <glyph glyph-name="Eacute" unicode="&#xc9;" horiz-adv-x="1054" 
d="M666 1690h82l-175 -246h-30zM952 51v-51h-768v1290h748v-51h-696v-543h645v-51h-645v-594h716z" />
    <glyph glyph-name="Ecircumflex" unicode="&#xca;" horiz-adv-x="1054" 
d="M553 1669h41l205 -225h-62l-164 184l-163 -184h-62zM952 51v-51h-768v1290h748v-51h-696v-543h645v-51h-645v-594h716z" />
    <glyph glyph-name="Edieresis" unicode="&#xcb;" horiz-adv-x="1054" 
d="M461 1542q0 -20 -14 -34q-13 -13 -33 -13q-18 0 -32 13q-13 13 -13 34q0 18 13 32q13 13 32 13q20 0 33 -13q14 -14 14 -32zM758 1542q0 -20 -14 -34q-13 -13 -33 -13q-18 0 -32 13q-13 13 -13 34q0 18 13 32q13 13 32 13q20 0 33 -13q14 -14 14 -32zM952 51v-51h-768
v1290h748v-51h-696v-543h645v-51h-645v-594h716z" />
    <glyph glyph-name="Igrave" unicode="&#xcc;" horiz-adv-x="419" 
d="M225 1444h-30l-175 246h82zM236 0h-52v1290h52v-1290z" />
    <glyph glyph-name="Iacute" unicode="&#xcd;" horiz-adv-x="419" 
d="M317 1690h82l-174 -246h-30zM236 0h-52v1290h52v-1290z" />
    <glyph glyph-name="Icircumflex" unicode="&#xce;" horiz-adv-x="419" 
d="M195 1669h41l204 -225h-61l-164 184l-164 -184h-61zM236 0h-52v1290h52v-1290z" />
    <glyph glyph-name="Idieresis" unicode="&#xcf;" horiz-adv-x="419" 
d="M236 0h-52v1290h52v-1290zM113 1542q0 -20 -14 -34q-13 -13 -33 -13q-18 0 -32 13q-13 13 -14 34q0 18 14 32q13 13 32 13q20 0 33 -13q14 -14 14 -32zM410 1542q0 -20 -14 -34q-13 -13 -34 -13q-18 0 -31 13t-14 34q0 18 14 32q13 13 31 13q20 0 34 -13q14 -14 14 -32z
" />
    <glyph glyph-name="Eth" unicode="&#xd0;" horiz-adv-x="1218" 
d="M20 666h185v624h266q135 0 251 -49t201 -135t134 -205t49 -256q0 -139 -49 -257t-134 -204t-201 -135t-251 -49h-266v614h-185v52zM471 51q123 0 229 45t186 125q79 80 124 189t45 235q0 127 -45 236t-124 188q-79 80 -186 125q-106 45 -229 45h-215v-573h317v-52h-317
v-563h215z" />
    <glyph glyph-name="Ntilde" unicode="&#xd1;" horiz-adv-x="1228" 
d="M737 1505q39 0 66 31t26 92h52q0 -86 -41 -130t-103 -44q-39 0 -70 21q-32 20 -60 46t-53 46q-26 20 -52 20q-39 0 -66 -31t-26 -92h-52q0 86 41 130t103 44q39 0 70 -20q32 -20 60 -46t53 -46q25 -21 52 -21zM1044 1290v-1290h-40l-768 1188v-1188h-52v1290h41
l768 -1188v1188h51z" />
    <glyph glyph-name="Ograve" unicode="&#xd2;" horiz-adv-x="1372" 
d="M707 1444h-31l-174 246h82zM1208 645q0 131 -44 242t-116 191q-73 81 -167 126t-195 45q-100 0 -194 -45t-167 -126t-117 -191q-44 -111 -44 -242t44 -242t117 -191q73 -81 167 -126t194 -45t195 45q94 45 167 126t116 191q44 111 44 242zM1260 645q0 -141 -49 -262
q-48 -121 -128 -208t-183 -136t-214 -49t-214 49t-183 136t-128 208t-48 262t48 262t128 208t183 136t214 49t214 -49t183 -136t128 -208q49 -121 49 -262z" />
    <glyph glyph-name="Oacute" unicode="&#xd3;" horiz-adv-x="1372" 
d="M799 1690h82l-174 -246h-31zM1208 645q0 131 -44 242t-116 191q-73 81 -167 126t-195 45q-100 0 -194 -45t-167 -126t-117 -191q-44 -111 -44 -242t44 -242t117 -191q73 -81 167 -126t194 -45t195 45q94 45 167 126t116 191q44 111 44 242zM1260 645q0 -141 -49 -262
q-48 -121 -128 -208t-183 -136t-214 -49t-214 49t-183 136t-128 208t-48 262t48 262t128 208t183 136t214 49t214 -49t183 -136t128 -208q49 -121 49 -262z" />
    <glyph glyph-name="Ocircumflex" unicode="&#xd4;" horiz-adv-x="1372" 
d="M666 1669h41l204 -225h-61l-164 184l-164 -184h-61zM1208 645q0 131 -44 242t-116 191q-73 81 -167 126t-195 45q-100 0 -194 -45t-167 -126t-117 -191q-44 -111 -44 -242t44 -242t117 -191q73 -81 167 -126t194 -45t195 45q94 45 167 126t116 191q44 111 44 242z
M1260 645q0 -141 -49 -262q-48 -121 -128 -208t-183 -136t-214 -49t-214 49t-183 136t-128 208t-48 262t48 262t128 208t183 136t214 49t214 -49t183 -136t128 -208q49 -121 49 -262z" />
    <glyph glyph-name="Otilde" unicode="&#xd5;" horiz-adv-x="1372" 
d="M809 1505q39 0 65 31q27 31 27 92h51q0 -86 -41 -130t-102 -44q-39 0 -71 21q-32 20 -59 46q-28 26 -53 46q-26 20 -53 20q-39 0 -65 -31q-27 -31 -27 -92h-51q0 86 41 130t102 44q39 0 71 -20t59 -46q28 -26 54 -46q25 -21 52 -21zM1208 645q0 131 -44 242t-116 191
q-73 81 -167 126t-195 45q-100 0 -194 -45t-167 -126t-117 -191q-44 -111 -44 -242t44 -242t117 -191q73 -81 167 -126t194 -45t195 45q94 45 167 126t116 191q44 111 44 242zM1260 645q0 -141 -49 -262q-48 -121 -128 -208t-183 -136t-214 -49t-214 49t-183 136t-128 208
t-48 262t48 262t128 208t183 136t214 49t214 -49t183 -136t128 -208q49 -121 49 -262z" />
    <glyph glyph-name="Odieresis" unicode="&#xd6;" horiz-adv-x="1372" 
d="M584 1542q0 -20 -14 -34q-13 -13 -33 -13q-18 0 -32 13q-13 13 -13 34q0 18 13 32q13 13 32 13q20 0 33 -13q14 -14 14 -32zM881 1542q0 -20 -14 -34q-13 -13 -33 -13q-18 0 -32 13q-13 13 -14 34q0 18 14 32q13 13 32 13q20 0 33 -13q14 -14 14 -32zM1208 645
q0 131 -44 242t-116 191q-73 81 -167 126t-195 45q-100 0 -194 -45t-167 -126t-117 -191q-44 -111 -44 -242t44 -242t117 -191q73 -81 167 -126t194 -45t195 45q94 45 167 126t116 191q44 111 44 242zM1260 645q0 -141 -49 -262q-48 -121 -128 -208t-183 -136t-214 -49
t-214 49t-183 136t-128 208t-48 262t48 262t128 208t183 136t214 49t214 -49t183 -136t128 -208q49 -121 49 -262z" />
    <glyph glyph-name="multiply" unicode="&#xd7;" horiz-adv-x="860" 
d="M696 829l41 -30l-266 -277l266 -276l-41 -31l-266 277l-266 -277l-41 31l266 276l-266 277l41 30l266 -276z" />
    <glyph glyph-name="Oslash" unicode="&#xd8;" horiz-adv-x="1372" 
d="M1260 645q0 -141 -48.5 -262t-128 -208t-183 -136t-214.5 -49q-123 0 -232.5 57t-191.5 158l-139 -133l-31 30l144 138q-57 84 -90 185t-33 220q0 141 48 262t128 208t183 136t214 49q121 0 231.5 -57t192.5 -160l139 136l31 -31l-145 -139q57 -82 91 -184.5t34 -219.5z
M164 645q0 -106 29.5 -199.5t80.5 -169.5l797 771q-74 96 -174 149t-211 53q-100 0 -194.5 -45t-167 -126t-116.5 -191.5t-44 -241.5zM1208 645q0 106 -29.5 198.5t-80.5 168.5l-799 -770q76 -94 176 -147.5t211 -53.5q100 0 194.5 45t167 126t116.5 191.5t44 241.5z" />
    <glyph glyph-name="Ugrave" unicode="&#xd9;" horiz-adv-x="1249" 
d="M645 1444h-31l-174 246h82zM625 -10q-100 0 -184 34q-83 34 -142 98q-59 65 -92 158t-33 212v798h51v-798q0 -109 30 -192t82 -141t126 -88t162 -30t161 30q74 30 126 88t82 141t30 192v798h51v-798q0 -119 -33 -212t-92 -158t-142 -98q-83 -34 -183 -34z" />
    <glyph glyph-name="Uacute" unicode="&#xda;" horiz-adv-x="1249" 
d="M727 1690h82l-174 -246h-31zM625 -10q-100 0 -184 34q-83 34 -142 98q-59 65 -92 158t-33 212v798h51v-798q0 -109 30 -192t82 -141t126 -88t162 -30t161 30q74 30 126 88t82 141t30 192v798h51v-798q0 -119 -33 -212t-92 -158t-142 -98q-83 -34 -183 -34z" />
    <glyph glyph-name="Ucircumflex" unicode="&#xdb;" horiz-adv-x="1249" 
d="M604 1659h41l205 -225h-62l-163 184l-164 -184h-62zM625 -10q-100 0 -184 34q-83 34 -142 98q-59 65 -92 158t-33 212v798h51v-798q0 -109 30 -192t82 -141t126 -88t162 -30t161 30q74 30 126 88t82 141t30 192v798h51v-798q0 -119 -33 -212t-92 -158t-142 -98
q-83 -34 -183 -34z" />
    <glyph glyph-name="Udieresis" unicode="&#xdc;" horiz-adv-x="1249" 
d="M532 1542q0 -20 -13 -34q-13 -13 -34 -13q-18 0 -31 13t-14 34q0 18 14 32q13 13 31 13q20 0 34 -13q13 -14 13 -32zM829 1542q0 -20 -13 -34q-13 -13 -34 -13q-18 0 -31 13t-14 34q0 18 14 32q13 13 31 13q20 0 34 -13q13 -14 13 -32zM625 -10q-100 0 -184 34
q-83 34 -142 98q-59 65 -92 158t-33 212v798h51v-798q0 -109 30 -192t82 -141t126 -88t162 -30t161 30q74 30 126 88t82 141t30 192v798h51v-798q0 -119 -33 -212t-92 -158t-142 -98q-83 -34 -183 -34z" />
    <glyph glyph-name="Yacute" unicode="&#xdd;" horiz-adv-x="1054" 
d="M645 1690h82l-174 -246h-31zM61 1290h62l399 -706h10l400 706h61l-440 -768v-522h-51v522z" />
    <glyph glyph-name="Thorn" unicode="&#xde;" horiz-adv-x="1208" 
d="M236 1290v-246h471q84 0 155.5 -28.5t123.5 -78.5t81 -117.5t29 -143.5q0 -78 -29 -144.5t-81 -116.5t-123.5 -79t-155.5 -29h-471v-307h-52v1290h52zM707 358q74 0 135 26t106 69t70.5 100t25.5 123t-25.5 123t-70.5 100t-106.5 68.5t-134.5 25.5h-471v-635h471z" />
    <glyph glyph-name="germandbls" unicode="&#xdf;" horiz-adv-x="1034" 
d="M625 676q66 -8 122 -36t97 -71t64.5 -99t23.5 -122q0 -74 -26.5 -137.5t-74 -110.5t-111 -73.5t-136.5 -26.5h-133v51h133q61 0 115.5 23.5t94.5 63.5t63.5 94.5t23.5 115.5q0 57 -23.5 109.5t-63.5 91.5t-94.5 62.5t-115.5 23.5h-82v51q57 0 107 21.5t88 59.5t59.5 88
t21.5 108q0 57 -21.5 107t-59.5 88t-88 59.5t-107 21.5q-66 0 -122 -23.5t-97 -65.5t-64.5 -100.5t-23.5 -127.5v-922h-52v922q0 80 28 147.5t75 116.5t112.5 76.5t143.5 27.5q70 0 129 -25.5t103 -69.5t69.5 -103.5t25.5 -128.5q0 -86 -31.5 -140.5t-70.5 -87.5
q-45 -36 -102 -59z" />
    <glyph glyph-name="agrave" unicode="&#xe0;" horiz-adv-x="911" 
d="M492 1073h-31l-174 246h82zM410 41q66 0 122 24q57 24 101 66q43 43 68 103q26 60 26 135v102h-102q-141 0 -235 -18q-93 -18 -148 -50q-55 -31 -77 -71q-22 -41 -22 -86q0 -86 68 -146q68 -59 199 -59zM461 911q70 0 128 -23q58 -24 100 -67t66 -103t23 -134v-584h-41
l-10 184h-10q-27 -55 -70 -98q-37 -37 -94 -67t-143 -29q-154 0 -236 73q-82 74 -82 183q0 57 26 107t87 88t164 60q102 22 256 21h102v62q0 61 -20 112t-56 87q-35 36 -84 57q-49 20 -106 20q-117 0 -181 -56q-65 -56 -96 -149h-51q23 109 106 183q83 73 222 73z" />
    <glyph glyph-name="aacute" unicode="&#xe1;" horiz-adv-x="911" 
d="M563 1319h82l-174 -246h-31zM410 41q66 0 122 24q57 24 101 66q43 43 68 103q26 60 26 135v102h-102q-141 0 -235 -18q-93 -18 -148 -50q-55 -31 -77 -71q-22 -41 -22 -86q0 -86 68 -146q68 -59 199 -59zM461 911q70 0 128 -23q58 -24 100 -67t66 -103t23 -134v-584h-41
l-10 184h-10q-27 -55 -70 -98q-37 -37 -94 -67t-143 -29q-154 0 -236 73q-82 74 -82 183q0 57 26 107t87 88t164 60q102 22 256 21h102v62q0 61 -20 112t-56 87q-35 36 -84 57q-49 20 -106 20q-117 0 -181 -56q-65 -56 -96 -149h-51q23 109 106 183q83 73 222 73z" />
    <glyph glyph-name="acircumflex" unicode="&#xe2;" horiz-adv-x="911" 
d="M440 1300h41l205 -225h-61l-164 185l-164 -185h-61zM410 41q66 0 122 24q57 24 101 66q43 43 68 103q26 60 26 135v102h-102q-141 0 -235 -18q-93 -18 -148 -50q-55 -31 -77 -71q-22 -41 -22 -86q0 -86 68 -146q68 -59 199 -59zM461 911q70 0 128 -23q58 -24 100 -67
t66 -103t23 -134v-584h-41l-10 184h-10q-27 -55 -70 -98q-37 -37 -94 -67t-143 -29q-154 0 -236 73q-82 74 -82 183q0 57 26 107t87 88t164 60q102 22 256 21h102v62q0 61 -20 112t-56 87q-35 36 -84 57q-49 20 -106 20q-117 0 -181 -56q-65 -56 -96 -149h-51
q23 109 106 183q83 73 222 73z" />
    <glyph glyph-name="atilde" unicode="&#xe3;" horiz-adv-x="911" 
d="M573 1116q39 0 66 31t27 92h51q0 -86 -41 -130t-103 -44q-39 0 -70 20q-32 20 -60 47q-28 26 -53 46q-26 20 -52 20q-39 0 -66 -31t-26 -92h-51q0 86 41 130t102 44q39 0 71 -20t59 -46q28 -26 53 -46q25 -21 52 -21zM410 41q66 0 122 24q57 24 101 66q43 43 68 103
q26 60 26 135v102h-102q-141 0 -235 -18q-93 -18 -148 -50q-55 -31 -77 -71q-22 -41 -22 -86q0 -86 68 -146q68 -59 199 -59zM461 911q70 0 128 -23q58 -24 100 -67t66 -103t23 -134v-584h-41l-10 184h-10q-27 -55 -70 -98q-37 -37 -94 -67t-143 -29q-154 0 -236 73
q-82 74 -82 183q0 57 26 107t87 88t164 60q102 22 256 21h102v62q0 61 -20 112t-56 87q-35 36 -84 57q-49 20 -106 20q-117 0 -181 -56q-65 -56 -96 -149h-51q23 109 106 183q83 73 222 73z" />
    <glyph glyph-name="adieresis" unicode="&#xe4;" horiz-adv-x="911" 
d="M358 1174q0 -20 -13 -34q-13 -13 -34 -14q-18 0 -31 14q-13 13 -14 34q0 18 14 31q13 13 31 14q20 0 34 -14q13 -13 13 -31zM655 1174q0 -20 -13 -34q-13 -13 -34 -14q-18 0 -31 14q-13 13 -14 34q0 18 14 31q13 13 31 14q20 0 34 -14q13 -13 13 -31zM410 41q66 0 122 24
q57 24 101 66q43 43 68 103q26 60 26 135v102h-102q-141 0 -235 -18q-93 -18 -148 -50q-55 -31 -77 -71q-22 -41 -22 -86q0 -86 68 -146q68 -59 199 -59zM461 911q70 0 128 -23q58 -24 100 -67t66 -103t23 -134v-584h-41l-10 184h-10q-27 -55 -70 -98q-37 -37 -94 -67
t-143 -29q-154 0 -236 73q-82 74 -82 183q0 57 26 107t87 88t164 60q102 22 256 21h102v62q0 61 -20 112t-56 87q-35 36 -84 57q-49 20 -106 20q-117 0 -181 -56q-65 -56 -96 -149h-51q23 109 106 183q83 73 222 73z" />
    <glyph glyph-name="aring" unicode="&#xe5;" horiz-adv-x="911" 
d="M625 1208q0 -70 -47 -116q-47 -47 -117 -48q-70 0 -117 48q-47 47 -47 116q0 70 47 117t117 47t117 -47t47 -117zM573 1208q0 47 -32 80q-33 33 -80 33t-80 -33t-33 -80t33 -80t80 -32q47 0 80 32q32 33 32 80zM410 41q66 0 122 24q57 24 101 66q43 43 68 103
q26 60 26 135v102h-102q-141 0 -235 -18q-93 -18 -148 -50q-55 -31 -77 -71q-22 -41 -22 -86q0 -86 68 -146q68 -59 199 -59zM461 911q70 0 128 -23q58 -24 100 -67t66 -103t23 -134v-584h-41l-10 184h-10q-27 -55 -70 -98q-37 -37 -94 -67t-143 -29q-154 0 -236 73
q-82 74 -82 183q0 57 26 107t87 88t164 60q102 22 256 21h102v62q0 61 -20 112t-56 87q-35 36 -84 57q-49 20 -106 20q-117 0 -181 -56q-65 -56 -96 -149h-51q23 109 106 183q83 73 222 73z" />
    <glyph glyph-name="ae" unicode="&#xe6;" horiz-adv-x="1576" 
d="M1116 860q-66 0 -124 -27.5t-103 -74.5t-74 -113.5t-37 -142.5h656q0 76 -27 142.5t-71 113.5t-101.5 74.5t-118.5 27.5zM389 41q74 0 135.5 25.5t106.5 69.5t70.5 103.5t25.5 129.5v82h-102q-141 0 -234.5 -18.5t-149 -49.5t-77 -72t-21.5 -86q0 -78 61.5 -131
t184.5 -53zM758 266q-29 -78 -78 -139q-43 -53 -112.5 -95t-178.5 -42q-147 0 -222 67.5t-75 167.5q0 57 25.5 107.5t87 88.5t164 59.5t256.5 21.5h102v82q0 61 -20.5 112.5t-55.5 87t-84 56t-106 20.5q-117 0 -181.5 -56t-95.5 -149h-51q23 109 106 182.5t222 73.5
q100 0 160.5 -41t93.5 -88q37 -55 53 -127h10q29 72 76 127q41 47 105.5 88t156.5 41q74 0 140.5 -30.5t116.5 -85t81 -127t31 -156.5q0 -12 -2 -22.5t-4 -20.5t-4 -18h-697q16 -201 112.5 -305.5t235.5 -104.5q49 0 92.5 15.5t77 42t61 59t46.5 67.5h51q-18 -47 -49 -89
t-73 -74.5t-93 -52t-113 -19.5q-104 0 -172.5 42t-109.5 95q-49 61 -76 139h-10z" />
    <glyph glyph-name="ccedilla" unicode="&#xe7;" horiz-adv-x="972" 
d="M512 860q-74 0 -140.5 -30.5t-116.5 -86t-81 -130t-31 -162.5t31 -163t81 -130.5t116.5 -86t140.5 -30.5q61 0 114.5 21.5t95.5 55.5t71.5 78t46.5 91h51q-12 -53 -44 -105.5t-79 -93.5t-109.5 -67.5t-136.5 -30.5l-30 -72q61 0 97 -38t36 -85t-38 -85t-116 -38
q-16 0 -28.5 1t-22.5 3t-21 7v41q10 -4 21 -7q10 -2 22.5 -3t28.5 -1q53 0 77.5 25.5t24.5 56.5t-22.5 56.5t-69.5 25.5q-8 0 -16 -2l-16 -4t-19 -4l51 123q-80 8 -151.5 45t-123.5 97.5t-83 141t-31 177.5q0 100 34 184t91 145.5t134 96t161 34.5q74 0 137.5 -26.5
t113.5 -69.5t83 -98t45 -113h-51q-16 49 -46 96.5t-72 82t-95.5 56t-114.5 21.5z" />
    <glyph glyph-name="egrave" unicode="&#xe8;" horiz-adv-x="1003" 
d="M532 1073h-30l-174 246h82zM881 215q-18 -39 -52 -79q-33 -40 -77 -73q-45 -33 -103 -53q-57 -20 -127 -20q-88 0 -167 35t-137 96t-92 145t-34 185q0 100 34 184t91 145t134 97q77 35 161 34q80 0 153 -32q73 -33 128 -89t87 -134q32 -77 31 -164q0 -12 -2 -23l-4 -20
t-4 -19h-758q8 -88 39 -160t81 -123t116 -78q66 -28 143 -28q57 0 106 17q48 17 86 43t67 57q30 31 48 57h52zM512 860q-74 0 -137 -29t-113 -79q-49 -51 -80 -121t-39 -150h717q0 80 -29 150t-76 121q-48 51 -111 79q-62 29 -132 29z" />
    <glyph glyph-name="eacute" unicode="&#xe9;" horiz-adv-x="1003" 
d="M604 1319h82l-174 -246h-31zM881 215q-18 -39 -52 -79q-33 -40 -77 -73q-45 -33 -103 -53q-57 -20 -127 -20q-88 0 -167 35t-137 96t-92 145t-34 185q0 100 34 184t91 145t134 97q77 35 161 34q80 0 153 -32q73 -33 128 -89t87 -134q32 -77 31 -164q0 -12 -2 -23l-4 -20
t-4 -19h-758q8 -88 39 -160t81 -123t116 -78q66 -28 143 -28q57 0 106 17q48 17 86 43t67 57q30 31 48 57h52zM512 860q-74 0 -137 -29t-113 -79q-49 -51 -80 -121t-39 -150h717q0 80 -29 150t-76 121q-48 51 -111 79q-62 29 -132 29z" />
    <glyph glyph-name="ecircumflex" unicode="&#xea;" horiz-adv-x="1003" 
d="M492 1300h40l205 -225h-61l-164 185l-164 -185h-61zM881 215q-18 -39 -52 -79q-33 -40 -77 -73q-45 -33 -103 -53q-57 -20 -127 -20q-88 0 -167 35t-137 96t-92 145t-34 185q0 100 34 184t91 145t134 97q77 35 161 34q80 0 153 -32q73 -33 128 -89t87 -134
q32 -77 31 -164q0 -12 -2 -23l-4 -20t-4 -19h-758q8 -88 39 -160t81 -123t116 -78q66 -28 143 -28q57 0 106 17q48 17 86 43t67 57q30 31 48 57h52zM512 860q-74 0 -137 -29t-113 -79q-49 -51 -80 -121t-39 -150h717q0 80 -29 150t-76 121q-48 51 -111 79q-62 29 -132 29z
" />
    <glyph glyph-name="edieresis" unicode="&#xeb;" horiz-adv-x="1003" 
d="M410 1174q0 -20 -14 -34q-13 -13 -34 -14q-18 0 -31 14q-13 13 -14 34q0 18 14 31q13 13 31 14q20 0 34 -14q14 -13 14 -31zM707 1174q0 -20 -14 -34q-13 -13 -34 -14q-18 0 -31 14q-13 13 -14 34q0 18 14 31q13 13 31 14q20 0 34 -14q14 -13 14 -31zM881 215
q-18 -39 -52 -79q-33 -40 -77 -73q-45 -33 -103 -53q-57 -20 -127 -20q-88 0 -167 35t-137 96t-92 145t-34 185q0 100 34 184t91 145t134 97q77 35 161 34q80 0 153 -32q73 -33 128 -89t87 -134q32 -77 31 -164q0 -12 -2 -23l-4 -20t-4 -19h-758q8 -88 39 -160t81 -123
t116 -78q66 -28 143 -28q57 0 106 17q48 17 86 43t67 57q30 31 48 57h52zM512 860q-74 0 -137 -29t-113 -79q-49 -51 -80 -121t-39 -150h717q0 80 -29 150t-76 121q-48 51 -111 79q-62 29 -132 29z" />
    <glyph glyph-name="igrave" unicode="&#xec;" horiz-adv-x="337" 
d="M184 1065h-30l-174 246h81zM195 0h-52v901h52v-901z" />
    <glyph glyph-name="iacute" unicode="&#xed;" horiz-adv-x="337" 
d="M276 1311h82l-174 -246h-30zM195 0h-52v901h52v-901z" />
    <glyph glyph-name="icircumflex" unicode="&#xee;" horiz-adv-x="337" 
d="M154 1300h41l204 -225h-61l-164 185l-164 -185h-61zM195 0h-52v901h52v-901z" />
    <glyph glyph-name="idieresis" unicode="&#xef;" horiz-adv-x="337" 
d="M72 1174q0 -20 -14 -34q-13 -13 -33 -14q-18 0 -32 14q-13 13 -13 34q0 18 13 31t32 14q20 0 33 -14q14 -13 14 -31zM369 1174q0 -20 -14 -34q-13 -13 -33 -14q-18 0 -32 14q-13 13 -14 34q0 18 14 31q13 13 32 14q20 0 33 -14q14 -13 14 -31zM195 0h-52v901h52v-901z
" />
    <glyph glyph-name="eth" unicode="&#xf0;" horiz-adv-x="1003" 
d="M369 1065l194 133q-47 35 -98 61.5t-92 45.5q-51 23 -97 36l21 41q51 -16 104 -39q45 -20 98.5 -47.5t104.5 -66.5l174 123l31 -41l-164 -113q72 -66 127 -164q47 -86 88 -216t41 -316q0 -123 -32.5 -218.5t-88 -161t-130.5 -99t-158 -33.5q-80 0 -153 32.5t-128 91
t-87 139.5t-32 177t32 177t87 139.5t128 91t153 32.5q100 0 166.5 -37.5t107.5 -84.5q47 -53 74 -123h10q-16 147 -57 249.5t-82 167.5q-51 76 -107 125l-205 -143zM492 41q70 0 132 28.5t110 81t77 124t29 155.5t-29 155.5t-77 124t-110.5 81t-131.5 28.5
q-70 0 -132.5 -28.5t-110.5 -81t-77 -124t-29 -155.5t29 -155.5t77 -124t110.5 -81t132.5 -28.5z" />
    <glyph glyph-name="ntilde" unicode="&#xf1;" horiz-adv-x="1003" 
d="M625 1137q39 0 65 30q27 31 27 93h51q0 -86 -41 -131q-41 -44 -102 -44q-39 0 -71 21q-32 20 -59 46q-28 26 -54 46t-52 21q-39 0 -65 -31q-27 -31 -27 -92h-51q0 86 41 130t102 44q39 0 71 -21q32 -20 59 -46q28 -26 53 -46q26 -20 53 -20zM512 911q76 0 142 -27
q67 -28 114 -78t75 -120t27 -154v-532h-51v532q0 74 -23 135q-24 60 -65 103t-97 67t-122 23q-66 0 -123 -23q-57 -24 -100 -67t-69 -103t-25 -135v-532h-52v901h41l11 -184h10q27 53 69 96q37 37 95 68q57 30 143 30z" />
    <glyph glyph-name="ograve" unicode="&#xf2;" 
d="M543 1065h-31l-174 246h82zM143 451q0 -88 31 -163t81 -130t117 -86t140 -31q74 0 140 31q67 31 117 86t81 130t31 163t-31 162q-31 75 -81 130t-117 86t-140 31q-74 0 -140 -31q-67 -31 -117 -86t-81 -130q-31 -74 -31 -162zM92 451q0 100 34 184t91 145t134 97
q77 35 161 34q84 0 161 -34q77 -35 134 -97q57 -61 91 -145t34 -184t-34 -185q-34 -84 -91 -145t-134 -96t-161 -35t-161 35t-134 96t-91 145q-34 85 -34 185z" />
    <glyph glyph-name="oacute" unicode="&#xf3;" 
d="M625 1311h82l-175 -246h-30zM143 451q0 -88 31 -163t81 -130t117 -86t140 -31q74 0 140 31q67 31 117 86t81 130t31 163t-31 162q-31 75 -81 130t-117 86t-140 31q-74 0 -140 -31q-67 -31 -117 -86t-81 -130q-31 -74 -31 -162zM92 451q0 100 34 184t91 145t134 97
q77 35 161 34q84 0 161 -34q77 -35 134 -97q57 -61 91 -145t34 -184t-34 -185q-34 -84 -91 -145t-134 -96t-161 -35t-161 35t-134 96t-91 145q-34 85 -34 185z" />
    <glyph glyph-name="ocircumflex" unicode="&#xf4;" 
d="M512 1300h41l205 -225h-62l-164 185l-163 -185h-62zM143 451q0 -88 31 -163t81 -130t117 -86t140 -31q74 0 140 31q67 31 117 86t81 130t31 163t-31 162q-31 75 -81 130t-117 86t-140 31q-74 0 -140 -31q-67 -31 -117 -86t-81 -130q-31 -74 -31 -162zM92 451
q0 100 34 184t91 145t134 97q77 35 161 34q84 0 161 -34q77 -35 134 -97q57 -61 91 -145t34 -184t-34 -185q-34 -84 -91 -145t-134 -96t-161 -35t-161 35t-134 96t-91 145q-34 85 -34 185z" />
    <glyph glyph-name="otilde" unicode="&#xf5;" 
d="M635 1126q39 0 65 31q27 31 27 92h51q0 -86 -41 -130t-102 -44q-39 0 -71 21q-32 20 -59 46q-28 26 -53 46q-26 20 -53 20q-39 0 -65 -30q-27 -31 -27 -93h-51q0 86 41 130t102 45q39 0 71 -21q32 -20 59 -46q28 -26 54 -46q25 -21 52 -21zM143 451q0 -88 31 -163
t81 -130t117 -86t140 -31q74 0 140 31q67 31 117 86t81 130t31 163t-31 162q-31 75 -81 130t-117 86t-140 31q-74 0 -140 -31q-67 -31 -117 -86t-81 -130q-31 -74 -31 -162zM92 451q0 100 34 184t91 145t134 97q77 35 161 34q84 0 161 -34q77 -35 134 -97q57 -61 91 -145
t34 -184t-34 -185q-34 -84 -91 -145t-134 -96t-161 -35t-161 35t-134 96t-91 145q-34 85 -34 185z" />
    <glyph glyph-name="odieresis" unicode="&#xf6;" 
d="M430 1174q0 -20 -13 -34q-13 -13 -34 -14q-18 0 -32 14q-13 13 -13 34q0 18 13 31t32 14q20 0 34 -14q13 -13 13 -31zM727 1174q0 -20 -13 -34q-13 -13 -34 -14q-18 0 -32 14q-13 13 -13 34q0 18 13 31t32 14q20 0 34 -14q13 -13 13 -31zM143 451q0 -88 31 -163t81 -130
t117 -86t140 -31q74 0 140 31q67 31 117 86t81 130t31 163t-31 162q-31 75 -81 130t-117 86t-140 31q-74 0 -140 -31q-67 -31 -117 -86t-81 -130q-31 -74 -31 -162zM92 451q0 100 34 184t91 145t134 97q77 35 161 34q84 0 161 -34q77 -35 134 -97q57 -61 91 -145t34 -184
t-34 -185q-34 -84 -91 -145t-134 -96t-161 -35t-161 35t-134 96t-91 145q-34 85 -34 185z" />
    <glyph glyph-name="divide" unicode="&#xf7;" horiz-adv-x="870" 
d="M389 874q0 20 13.5 34t33.5 14q18 0 31.5 -13.5t13.5 -34.5q0 -18 -13 -31.5t-32 -13.5q-20 0 -33.5 13.5t-13.5 31.5zM61 553h748v-51h-748v51zM389 180q0 18 13.5 31.5t33.5 13.5q18 0 31.5 -13t13.5 -32q0 -20 -13 -33.5t-32 -13.5q-20 0 -33.5 13.5t-13.5 33.5z" />
    <glyph glyph-name="oslash" unicode="&#xf8;" 
d="M92 451q0 100 34 184t91 145.5t134 96t161 34.5q88 0 166 -37.5t137 -103.5l107 100l30 -30l-110 -105q41 -57 65.5 -128.5t24.5 -155.5q0 -100 -34 -184.5t-91 -146t-134 -96t-161 -34.5q-90 0 -168 38t-137 103l-105 -100l-30 30l108 103q-41 59 -64.5 131t-23.5 156z
M143 451q0 -72 20.5 -135.5t55.5 -114.5l559 532q-53 59 -121.5 93t-144.5 34q-74 0 -140.5 -30.5t-116.5 -86t-81 -130t-31 -162.5zM881 451q0 72 -20.5 134t-55.5 113l-559 -530q51 -59 119.5 -93t146.5 -34q74 0 140.5 30.5t116.5 86t81 130.5t31 163z" />
    <glyph glyph-name="ugrave" unicode="&#xf9;" horiz-adv-x="1013" 
d="M563 1073h-31l-174 246h82zM502 -10q-78 0 -144 27q-66 28 -112 78q-47 50 -75 120t-28 154v532h52v-532q0 -74 23 -135q24 -60 65 -103t97 -66q56 -24 122 -24t123 24t100 66q43 43 69 103t25 135v532h51v-901h-41l-10 184h-10q-27 -55 -70 -98q-37 -37 -94 -67
q-57 -29 -143 -29z" />
    <glyph glyph-name="uacute" unicode="&#xfa;" horiz-adv-x="1013" 
d="M604 1321h82l-174 -246h-31zM502 -10q-78 0 -144 27q-66 28 -112 78q-47 50 -75 120t-28 154v532h52v-532q0 -74 23 -135q24 -60 65 -103t97 -66q56 -24 122 -24t123 24t100 66q43 43 69 103t25 135v532h51v-901h-41l-10 184h-10q-27 -55 -70 -98q-37 -37 -94 -67
q-57 -29 -143 -29z" />
    <glyph glyph-name="ucircumflex" unicode="&#xfb;" horiz-adv-x="1013" 
d="M492 1300h40l205 -225h-61l-164 185l-164 -185h-61zM502 -10q-78 0 -144 27q-66 28 -112 78q-47 50 -75 120t-28 154v532h52v-532q0 -74 23 -135q24 -60 65 -103t97 -66q56 -24 122 -24t123 24t100 66q43 43 69 103t25 135v532h51v-901h-41l-10 184h-10q-27 -55 -70 -98
q-37 -37 -94 -67q-57 -29 -143 -29z" />
    <glyph glyph-name="udieresis" unicode="&#xfc;" horiz-adv-x="1013" 
d="M410 1174q0 -20 -14 -34q-13 -13 -34 -14q-18 0 -31 14q-13 13 -14 34q0 18 14 31q13 13 31 14q20 0 34 -14q14 -13 14 -31zM707 1174q0 -20 -14 -34q-13 -13 -34 -14q-18 0 -31 14q-13 13 -14 34q0 18 14 31q13 13 31 14q20 0 34 -14q14 -13 14 -31zM502 -10
q-78 0 -144 27q-66 28 -112 78q-47 50 -75 120t-28 154v532h52v-532q0 -74 23 -135q24 -60 65 -103t97 -66q56 -24 122 -24t123 24t100 66q43 43 69 103t25 135v532h51v-901h-41l-10 184h-10q-27 -55 -70 -98q-37 -37 -94 -67q-57 -29 -143 -29z" />
    <glyph glyph-name="yacute" unicode="&#xfd;" horiz-adv-x="880" 
d="M573 1319h82l-174 -246h-30zM829 901l-419 -1044q-41 -100 -95 -148q-53 -47 -131 -47q-12 0 -32 4q-8 2 -19 6v52q10 -4 19 -7q20 -4 32 -4q61 0 103 33q41 33 71 111l82 204l-389 840h51l359 -778h10l307 778h51z" />
    <glyph glyph-name="thorn" unicode="&#xfe;" horiz-adv-x="1085" 
d="M154 1290h51v-624h10l21 38q20 39 63 85.5t110.5 84t163.5 37.5q84 0 161 -34.5t134.5 -96t91 -145.5t33.5 -184t-33.5 -184.5t-91 -146t-134.5 -96t-161 -34.5q-98 0 -164.5 38t-109.5 85q-51 53 -84 123h-10v-564h-51v1618zM942 451q0 88 -30.5 162.5t-81 130t-117 86
t-140.5 30.5t-140 -30.5t-116.5 -86t-81 -130t-30.5 -162.5t30.5 -163t81 -130.5t117 -86t139.5 -30.5q74 0 140.5 30.5t117 86t81 130.5t30.5 163z" />
    <glyph glyph-name="ydieresis" unicode="&#xff;" horiz-adv-x="880" 
d="M358 1174q0 -20 -13 -34q-13 -13 -34 -14q-18 0 -31 14q-13 13 -14 34q0 18 14 31q13 13 31 14q20 0 34 -14q13 -13 13 -31zM655 1174q0 -20 -13 -34q-13 -13 -34 -14q-18 0 -31 14q-13 13 -14 34q0 18 14 31q13 13 31 14q20 0 34 -14q13 -13 13 -31zM829 901l-419 -1044
q-41 -100 -95 -148q-53 -47 -131 -47q-12 0 -32 4q-8 2 -19 6v52q10 -4 19 -7q20 -4 32 -4q61 0 103 33q41 33 71 111l82 204l-389 840h51l359 -778h10l307 778h51z" />
    <glyph glyph-name="Amacron" unicode="&#x100;" horiz-adv-x="1146" 
d="M809 1495h-471v51h471v-51zM553 1290h41l491 -1290h-51l-133 358h-655l-133 -358h-52zM266 410h615l-308 798z" />
    <glyph glyph-name="amacron" unicode="&#x101;" horiz-adv-x="911" 
d="M696 1147h-471v51h471v-51zM410 41q66 0 122 24q57 24 101 66q43 43 68 103q26 60 26 135v102h-102q-141 0 -235 -18q-93 -18 -148 -50q-55 -31 -77 -71q-22 -41 -22 -86q0 -86 68 -146q68 -59 199 -59zM461 911q70 0 128 -23q58 -24 100 -67t66 -103t23 -134v-584h-41
l-10 184h-10q-27 -55 -70 -98q-37 -37 -94 -67t-143 -29q-154 0 -236 73q-82 74 -82 183q0 57 26 107t87 88t164 60q102 22 256 21h102v62q0 61 -20 112t-56 87q-35 36 -84 57q-49 20 -106 20q-117 0 -181 -56q-65 -56 -96 -149h-51q23 109 106 183q83 73 222 73z" />
    <glyph glyph-name="Abreve" unicode="&#x102;" horiz-adv-x="1146" 
d="M573 1485q61 0 109 45q47 45 55 98h51q-4 -39 -22 -74t-47 -61q-29 -27 -66 -43t-80 -16t-79 16q-37 16 -66 43t-47 61q-18 35 -23 74h52q8 -53 55 -98t108 -45zM553 1290h41l491 -1290h-51l-133 358h-655l-133 -358h-52zM266 410h615l-308 798z" />
    <glyph glyph-name="abreve" unicode="&#x103;" horiz-adv-x="911" 
d="M461 1116q61 0 108 45t56 99h51q-4 -39 -23 -74q-18 -35 -47 -62t-65 -43q-37 -16 -80 -16t-80 16t-66 43t-47 62t-22 74h51q8 -53 55 -99q48 -45 109 -45zM410 41q66 0 122 24q57 24 101 66q43 43 68 103q26 60 26 135v102h-102q-141 0 -235 -18q-93 -18 -148 -50
q-55 -31 -77 -71q-22 -41 -22 -86q0 -86 68 -146q68 -59 199 -59zM461 911q70 0 128 -23q58 -24 100 -67t66 -103t23 -134v-584h-41l-10 184h-10q-27 -55 -70 -98q-37 -37 -94 -67t-143 -29q-154 0 -236 73q-82 74 -82 183q0 57 26 107t87 88t164 60q102 22 256 21h102v62
q0 61 -20 112t-56 87q-35 36 -84 57q-49 20 -106 20q-117 0 -181 -56q-65 -56 -96 -149h-51q23 109 106 183q83 73 222 73z" />
    <glyph glyph-name="Aogonek" unicode="&#x104;" horiz-adv-x="1146" 
d="M901 358h-655l-133 -358h-52l492 1290h41l491 -1290q-27 -25 -47 -53q-16 -25 -30.5 -55.5t-14.5 -65.5q0 -47 30 -74.5t83 -27.5q10 0 21.5 1t21.5 3t18 6v-51q-8 -4 -18 -7q-10 -2 -21.5 -3t-21.5 -1q-78 0 -121 42t-43 112q0 35 14.5 65.5t30.5 55.5q20 29 47 53z
M266 410h615l-308 798z" />
    <glyph glyph-name="aogonek" unicode="&#x105;" horiz-adv-x="911" 
d="M727 184h-10q-27 -55 -70 -98q-37 -37 -94 -66.5t-143 -29.5q-154 0 -236 73.5t-82 182.5q0 57 25.5 107t87 88t164 59.5t256.5 21.5h102v62q0 61 -20.5 112.5t-55.5 87t-84 56t-106 20.5q-117 0 -181.5 -56t-95.5 -149h-51q23 109 106 182.5t222 73.5q70 0 128 -23.5
t100 -66.5t65.5 -103.5t23.5 -133.5v-584q-27 -25 -47 -53q-16 -25 -30.5 -55.5t-14.5 -65.5q0 -47 29.5 -74.5t83.5 -27.5q10 0 21 1t22 3q10 2 18 6v-51q-8 -4 -18 -7q-10 -2 -21.5 -3t-21.5 -1q-78 0 -121 42t-43 112q0 35 15.5 65.5t35.5 55.5q23 29 51 53zM410 41
q66 0 123 23.5t100 66.5t68.5 103.5t25.5 134.5v102h-102q-141 0 -234.5 -18.5t-149 -49t-77 -71.5t-21.5 -86q0 -86 68 -145.5t199 -59.5z" />
    <glyph glyph-name="Cacute" unicode="&#x106;" horiz-adv-x="1310" 
d="M788 1690h82l-174 -246h-30zM686 1249q-100 0 -194 -45t-167 -126t-117 -191q-44 -111 -44 -242t44 -242t117 -191q73 -81 167 -126t194 -45q176 0 293 104t178 275h51q-31 -96 -79 -175t-113 -136q-66 -57 -148 -89q-82 -31 -182 -30q-111 0 -214 49t-183 136t-128 208
t-48 262t48 262t128 208t183 136t214 49q100 0 182 -30q82 -31 147 -88t110 -136q46 -79 73 -176h-51q-27 84 -69 154t-100 120t-131 78q-73 27 -161 27z" />
    <glyph glyph-name="cacute" unicode="&#x107;" horiz-adv-x="972" 
d="M614 1319h82l-174 -246h-30zM512 860q-74 0 -140 -31q-67 -31 -117 -86t-81 -130t-31 -162q0 -88 31 -163t81 -130t117 -86t140 -31q61 0 115 21q53 22 95 56t72 78t46 91h51q-12 -53 -45 -107q-33 -53 -83 -95t-114 -69q-63 -27 -137 -26q-84 0 -161 35t-134 96t-91 145
t-34 185q0 100 34 184t91 145t134 97q77 35 161 34q74 0 137 -26q63 -27 114 -70q50 -43 83 -98t45 -113h-51q-16 49 -46 96t-72 82t-95 57q-54 21 -115 21z" />
    <glyph glyph-name="Ccircumflex" unicode="&#x108;" horiz-adv-x="1310" 
d="M666 1669h41l204 -225h-61l-164 184l-164 -184h-61zM686 1249q-100 0 -194 -45t-167 -126t-117 -191q-44 -111 -44 -242t44 -242t117 -191q73 -81 167 -126t194 -45q176 0 293 104t178 275h51q-31 -96 -79 -175t-113 -136q-66 -57 -148 -89q-82 -31 -182 -30
q-111 0 -214 49t-183 136t-128 208t-48 262t48 262t128 208t183 136t214 49q100 0 182 -30q82 -31 147 -88t110 -136q46 -79 73 -176h-51q-27 84 -69 154t-100 120t-131 78q-73 27 -161 27z" />
    <glyph glyph-name="ccircumflex" unicode="&#x109;" horiz-adv-x="972" 
d="M492 1300h40l205 -225h-61l-164 185l-164 -185h-61zM512 860q-74 0 -140 -31q-67 -31 -117 -86t-81 -130t-31 -162q0 -88 31 -163t81 -130t117 -86t140 -31q61 0 115 21q53 22 95 56t72 78t46 91h51q-12 -53 -45 -107q-33 -53 -83 -95t-114 -69q-63 -27 -137 -26
q-84 0 -161 35t-134 96t-91 145t-34 185q0 100 34 184t91 145t134 97q77 35 161 34q74 0 137 -26q63 -27 114 -70q50 -43 83 -98t45 -113h-51q-16 49 -46 96t-72 82t-95 57q-54 21 -115 21z" />
    <glyph glyph-name="Ccaron" unicode="&#x10c;" horiz-adv-x="1310" 
d="M451 1669h61l164 -184l164 184h61l-205 -225h-41zM686 1249q-100 0 -194 -45t-167 -126t-117 -191q-44 -111 -44 -242t44 -242t117 -191q73 -81 167 -126t194 -45q176 0 293 104t178 275h51q-31 -96 -79 -175t-113 -136q-66 -57 -148 -89q-82 -31 -182 -30
q-111 0 -214 49t-183 136t-128 208t-48 262t48 262t128 208t183 136t214 49q100 0 182 -30q82 -31 147 -88t110 -136q46 -79 73 -176h-51q-27 84 -69 154t-100 120t-131 78q-73 27 -161 27z" />
    <glyph glyph-name="ccaron" unicode="&#x10d;" horiz-adv-x="972" 
d="M287 1300h61l164 -184l164 184h61l-205 -225h-40zM512 860q-74 0 -140 -31q-67 -31 -117 -86t-81 -130t-31 -162q0 -88 31 -163t81 -130t117 -86t140 -31q61 0 115 21q53 22 95 56t72 78t46 91h51q-12 -53 -45 -107q-33 -53 -83 -95t-114 -69q-63 -27 -137 -26
q-84 0 -161 35t-134 96t-91 145t-34 185q0 100 34 184t91 145t134 97q77 35 161 34q74 0 137 -26q63 -27 114 -70q50 -43 83 -98t45 -113h-51q-16 49 -46 96t-72 82t-95 57q-54 21 -115 21z" />
    <glyph glyph-name="Dcaron" unicode="&#x10e;" horiz-adv-x="1198" 
d="M369 1669h61l164 -184l164 184h61l-205 -225h-41zM451 51q123 0 229 45t185 125t124 189t45 235q0 127 -45 236t-124 188q-79 80 -185 125t-229 45h-215v-1188h215zM1085 645q0 -139 -49 -257t-134 -204t-201 -135t-250 -49h-267v1290h267q135 0 250 -49
q116 -49 201 -135t134 -205t49 -256z" />
    <glyph glyph-name="dcaron" unicode="&#x10f;" horiz-adv-x="1157" 
d="M1137 1290h82l-113 -246h-41zM932 0h-41l-10 236h-11q-33 -70 -84 -123q-43 -47 -110.5 -85t-163.5 -38q-84 0 -161 34.5t-134 96t-91 145.5t-34 185q0 100 34 184t91 145.5t134 96t161 34.5q96 0 163.5 -37.5t110.5 -84t64 -85.5l20 -38h11v624h51v-1290zM143 451
q0 -88 31 -163t81 -130.5t116.5 -86t140.5 -30.5t140.5 30.5t116.5 86t81 130t31 163.5q0 88 -31 162.5t-81 130t-116.5 86t-140.5 30.5t-140.5 -30.5t-116.5 -86t-81 -130t-31 -162.5z" />
    <glyph glyph-name="Dcroat" unicode="&#x110;" horiz-adv-x="1218" 
d="M20 666h185v624h266q135 0 251 -49t201 -135t134 -205t49 -256q0 -139 -49 -257t-134 -204t-201 -135t-251 -49h-266v614h-185v52zM471 51q123 0 229.5 45t185.5 125t124 188.5t45 235.5t-45 235.5t-124 188.5t-185.5 125t-229.5 45h-215v-573h317v-52h-317v-563h215z
" />
    <glyph glyph-name="dcroat" unicode="&#x111;" horiz-adv-x="1085" 
d="M563 1096h287v194h51v-194h195v-52h-195v-1044h-41l-10 215h-10q-33 -63 -82 -113q-43 -43 -108.5 -77.5t-157.5 -34.5q-84 0 -159 32.5t-130.5 89t-88 133.5t-32.5 165t32.5 164.5t88 133t130.5 89t159 32.5q92 0 157.5 -34.5t108.5 -76.5t62 -78l20 -36h10v440h-287v52
zM133 410q0 -78 28.5 -144.5t78 -117t114 -79t138.5 -28.5t138 28.5t113.5 79t78 117t28.5 144.5q0 76 -28.5 143.5t-78 117.5t-114 78.5t-137.5 28.5q-74 0 -138.5 -28.5t-114 -78.5t-78 -117.5t-28.5 -143.5z" />
    <glyph glyph-name="Emacron" unicode="&#x112;" horiz-adv-x="1054" 
d="M809 1516h-471v51h471v-51zM952 51v-51h-768v1290h748v-51h-696v-543h645v-51h-645v-594h716z" />
    <glyph glyph-name="emacron" unicode="&#x113;" horiz-adv-x="1003" 
d="M748 1147h-472v51h472v-51zM881 215q-18 -39 -52 -79q-33 -40 -77 -73q-45 -33 -103 -53q-57 -20 -127 -20q-88 0 -167 35t-137 96t-92 145t-34 185q0 100 34 184t91 145t134 97q77 35 161 34q80 0 153 -32q73 -33 128 -89t87 -134q32 -77 31 -164q0 -12 -2 -23l-4 -20
t-4 -19h-758q8 -88 39 -160t81 -123t116 -78q66 -28 143 -28q57 0 106 17q48 17 86 43t67 57q30 31 48 57h52zM512 860q-74 0 -137 -29t-113 -79q-49 -51 -80 -121t-39 -150h717q0 80 -29 150t-76 121q-48 51 -111 79q-62 29 -132 29z" />
    <glyph glyph-name="Edotaccent" unicode="&#x116;" horiz-adv-x="1054" 
d="M614 1542q0 -20 -13 -34q-13 -13 -34 -13q-18 0 -31 13t-14 34q0 18 14 32q13 13 31 13q20 0 34 -13q13 -14 13 -32zM952 51v-51h-768v1290h748v-51h-696v-543h645v-51h-645v-594h716z" />
    <glyph glyph-name="edotaccent" unicode="&#x117;" horiz-adv-x="1003" 
d="M553 1174q0 -20 -13 -34q-13 -13 -34 -14q-18 0 -32 14q-13 13 -13 34q0 18 13 31t32 14q20 0 34 -14q13 -13 13 -31zM881 215q-18 -39 -52 -79q-33 -40 -77 -73q-45 -33 -103 -53q-57 -20 -127 -20q-88 0 -167 35t-137 96t-92 145t-34 185q0 100 34 184t91 145t134 97
q77 35 161 34q80 0 153 -32q73 -33 128 -89t87 -134q32 -77 31 -164q0 -12 -2 -23l-4 -20t-4 -19h-758q8 -88 39 -160t81 -123t116 -78q66 -28 143 -28q57 0 106 17q48 17 86 43t67 57q30 31 48 57h52zM512 860q-74 0 -137 -29t-113 -79q-49 -51 -80 -121t-39 -150h717
q0 80 -29 150t-76 121q-48 51 -111 79q-62 29 -132 29z" />
    <glyph glyph-name="Eogonek" unicode="&#x118;" horiz-adv-x="1054" 
d="M184 0v1290h748v-51h-696v-543h645v-51h-645v-594h716v-51q-27 -25 -47 -53q-16 -25 -30.5 -55.5t-14.5 -65.5q0 -47 30 -74.5t83 -27.5q10 0 21.5 1t21.5 3t18 6v-51q-8 -4 -18 -7q-10 -2 -21.5 -3t-21.5 -1q-78 0 -121 42t-43 112q0 35 14.5 65.5t30.5 55.5
q20 29 47 53h-717z" />
    <glyph glyph-name="eogonek" unicode="&#x119;" horiz-adv-x="1003" 
d="M881 215q-39 -78 -117 -143.5t-201 -81.5q-23 -25 -41 -51q-16 -23 -28.5 -52.5t-12.5 -60.5q0 -47 30 -74.5t83 -27.5q10 0 21.5 1t21.5 3t18 6v-51q-8 -4 -18 -7q-10 -2 -21.5 -3t-21.5 -1q-78 0 -121 42t-43 112q0 31 12.5 60.5t28.5 52.5q18 27 41 51
q-88 4 -165 38.5t-133 95t-89 143.5t-33 184q0 100 34 184t91 145.5t134 96t161 34.5q80 0 152.5 -32.5t128 -89t87 -133t31.5 -164.5q0 -12 -2 -22.5t-4 -20.5t-4 -19h-758q8 -88 39 -159.5t81 -123t115.5 -79t143.5 -27.5q57 0 105.5 17.5t86.5 43t67.5 56t47.5 57.5h52z
M512 860q-74 0 -137.5 -28.5t-112.5 -80t-79.5 -121t-39.5 -149.5h717q0 80 -28.5 149.5t-76.5 121t-110.5 80t-132.5 28.5z" />
    <glyph glyph-name="Ecaron" unicode="&#x11a;" horiz-adv-x="1054" 
d="M348 1669h62l163 -184l164 184h62l-205 -225h-41zM952 51v-51h-768v1290h748v-51h-696v-543h645v-51h-645v-594h716z" />
    <glyph glyph-name="ecaron" unicode="&#x11b;" horiz-adv-x="1003" 
d="M287 1300h61l164 -184l164 184h61l-205 -225h-40zM881 215q-18 -39 -52 -79q-33 -40 -77 -73q-45 -33 -103 -53q-57 -20 -127 -20q-88 0 -167 35t-137 96t-92 145t-34 185q0 100 34 184t91 145t134 97q77 35 161 34q80 0 153 -32q73 -33 128 -89t87 -134q32 -77 31 -164
q0 -12 -2 -23l-4 -20t-4 -19h-758q8 -88 39 -160t81 -123t116 -78q66 -28 143 -28q57 0 106 17q48 17 86 43t67 57q30 31 48 57h52zM512 860q-74 0 -137 -29t-113 -79q-49 -51 -80 -121t-39 -150h717q0 80 -29 150t-76 121q-48 51 -111 79q-62 29 -132 29z" />
    <glyph glyph-name="Gbreve" unicode="&#x11e;" horiz-adv-x="1361" 
d="M696 1485q61 0 109 45q47 45 55 98h51q-4 -39 -22 -74t-47 -61q-29 -27 -66 -43t-80 -16t-80 16t-65 43q-29 27 -47 61q-18 35 -23 74h51q8 -53 56 -98q47 -45 108 -45zM727 604h481v-604h-41l-10 328q-41 -96 -108 -170q-57 -63 -147 -116q-89 -52 -216 -52
q-111 0 -214 49t-183 136t-128 208t-48 262t48 262t128 208t183 136t214 49q96 0 175 -28q79 -29 140 -80t106 -121q44 -70 71 -149h-52q-27 70 -67 129q-41 59 -95 103t-124 70t-154 25q-100 0 -194 -45t-167 -126t-117 -191q-44 -111 -44 -242t44 -242t117 -191
q73 -81 167 -126t194 -45q92 0 177 40t151 108q66 69 104 162q39 93 39 202h-430v51z" />
    <glyph glyph-name="gbreve" unicode="&#x11f;" horiz-adv-x="1034" 
d="M522 1116q61 0 109 45q47 45 55 99h51q-4 -39 -22 -74t-47 -62t-66 -43t-80 -16t-80 16t-65 43q-29 27 -47 62t-23 74h51q8 -53 56 -99q47 -45 108 -45zM195 -72q31 -100 106 -162q76 -62 221 -63q66 0 123 26t100 70q43 45 69 107q26 61 26 135v215h-11
q-31 -63 -79 -113q-41 -43 -106 -77q-65 -35 -152 -35q-80 0 -153 32q-73 33 -128 92q-55 58 -87 139t-32 177t32 177t87 139t128 92q73 33 153 32q92 0 155 -35q63 -36 105 -77q47 -51 77 -113h11l10 215h41v-860q0 -84 -29 -156t-79 -124t-117 -80q-68 -29 -144 -29
q-84 0 -149 21q-66 22 -113 60t-76 88t-41 107h52zM143 471q0 -84 29 -156t77 -124t110 -80q62 -29 133 -29q70 0 132 29t110 80q48 52 77 124t29 156t-29 156t-77 124t-110 80q-62 29 -132 29t-133 -29q-62 -29 -110 -80q-48 -52 -77 -124t-29 -156z" />
    <glyph glyph-name="uni0122" unicode="&#x122;" horiz-adv-x="1361" 
d="M645 -211q0 20 13 34q13 13 32 13q20 0 34 -14q13 -14 13 -43q0 -45 -17 -82t-40 -66q-25 -33 -55 -61l-11 10q20 23 37 47q14 23 26 52q11 30 13 65q-18 0 -32 13q-13 14 -13 32zM727 604h481v-604h-41l-10 328q-41 -96 -108 -170q-57 -63 -147 -116q-89 -52 -216 -52
q-111 0 -214 49t-183 136t-128 208t-48 262t48 262t128 208t183 136t214 49q96 0 175 -28q79 -29 140 -80t106 -121q44 -70 71 -149h-52q-27 70 -67 129q-41 59 -95 103t-124 70t-154 25q-100 0 -194 -45t-167 -126t-117 -191q-44 -111 -44 -242t44 -242t117 -191
q73 -81 167 -126t194 -45q92 0 177 40t151 108q66 69 104 162q39 93 39 202h-430v51z" />
    <glyph glyph-name="uni0123" unicode="&#x123;" horiz-adv-x="1034" 
d="M553 1143q0 -20 -13.5 -33.5t-31.5 -13.5q-20 0 -33.5 14t-13.5 43q0 43 16.5 81t38.5 66q25 33 57 62l11 -10q-20 -23 -37 -47q-14 -23 -25.5 -52.5t-13.5 -64.5q18 0 31.5 -13.5t13.5 -31.5zM195 -72q31 -100 106.5 -162.5t220.5 -62.5q66 0 123 25.5t100 70.5
t69 106.5t26 135.5v215h-11q-31 -63 -79 -113q-41 -43 -105.5 -77.5t-152.5 -34.5q-80 0 -153 32.5t-128 91t-87 139.5t-32 177t32 177t87 139.5t128 91t153 32.5q92 0 155.5 -35.5t104.5 -76.5q47 -51 77 -113h11l10 215h41v-860q0 -84 -28.5 -155.5t-79 -124t-118 -81
t-143.5 -28.5q-84 0 -149.5 21.5t-112.5 59.5t-75.5 88t-41.5 107h52zM143 471q0 -84 29 -155.5t77 -124t110.5 -81t132.5 -28.5t132 28.5t110 81t77 124t29 155.5t-29 155.5t-77 124t-110.5 81t-131.5 28.5q-70 0 -132.5 -28.5t-110.5 -81t-77 -124t-29 -155.5z" />
    <glyph glyph-name="Imacron" unicode="&#x12a;" horiz-adv-x="419" 
d="M451 1505h-471v51h471v-51zM236 0h-52v1290h52v-1290z" />
    <glyph glyph-name="imacron" unicode="&#x12b;" horiz-adv-x="337" 
d="M410 1147h-471v51h471v-51zM195 0h-52v901h52v-901z" />
    <glyph glyph-name="Iogonek" unicode="&#x12e;" horiz-adv-x="419" 
d="M184 1290h52v-1290q-27 -25 -48 -53q-16 -25 -30.5 -55.5t-14.5 -65.5q0 -47 30 -74.5t83 -27.5q10 0 21.5 1t21.5 3t18 6v-51q-8 -4 -18 -7q-10 -2 -21.5 -3t-21.5 -1q-78 0 -121 42t-43 112q0 35 14.5 65.5t30.5 55.5q20 29 47 53v1290z" />
    <glyph glyph-name="iogonek" unicode="&#x12f;" horiz-adv-x="337" 
d="M143 901h52v-901q-27 -25 -48 -53q-16 -25 -30.5 -55.5t-14.5 -65.5q0 -47 30 -74.5t83 -27.5q10 0 21.5 1t21.5 3t18 6v-51q-8 -4 -18 -7q-10 -2 -21.5 -3t-21.5 -1q-78 0 -121 42t-43 112q0 35 14.5 65.5t30.5 55.5q20 29 47 53v901zM215 1174q0 -20 -13.5 -34
t-33.5 -14q-18 0 -31.5 13.5t-13.5 34.5q0 18 13.5 31.5t31.5 13.5q20 0 33.5 -13.5t13.5 -31.5z" />
    <glyph glyph-name="Idotaccent" unicode="&#x130;" horiz-adv-x="419" 
d="M236 0h-52v1290h52v-1290zM256 1542q0 -20 -13 -34q-13 -13 -34 -13q-18 0 -32 13q-13 13 -13 34q0 18 13 32q13 13 32 13q20 0 34 -13q13 -14 13 -32z" />
    <glyph glyph-name="dotlessi" unicode="&#x131;" horiz-adv-x="337" 
d="M195 0h-52v901h52v-901z" />
    <glyph glyph-name="ij" unicode="&#x133;" horiz-adv-x="829" 
d="M635 82q-29 -27 -64 -47q-29 -16 -70.5 -30.5t-90.5 -14.5q-131 0 -199 71.5t-68 225.5v614h52v-614q0 -131 53 -188.5t162 -57.5q49 0 91 14.5t70 30.5q35 20 64 47v768h51v-1003q0 -109 -62.5 -172.5t-162.5 -63.5q-16 0 -28.5 1t-22.5 3t-21 6v52q10 -4 21 -7
q10 -2 22 -3t29 -1q78 0 126 49.5t48 135.5v184zM215 1184q0 -20 -13.5 -33.5t-33.5 -13.5q-18 0 -31.5 13t-13.5 34q0 18 13.5 31.5t31.5 13.5q20 0 33.5 -13.5t13.5 -31.5zM707 1184q0 -20 -13.5 -33.5t-34.5 -13.5q-18 0 -31.5 13t-13.5 34q0 18 13.5 31.5t31.5 13.5
q20 0 34 -13.5t14 -31.5z" />
    <glyph glyph-name="uni0136" unicode="&#x136;" horiz-adv-x="972" 
d="M481 -211q0 20 14 34q13 13 31 13q20 0 34 -14q13 -14 13 -43q0 -45 -17 -82t-40 -66q-25 -33 -55 -61l-10 10q20 23 36 47q14 23 26 52q11 30 13 65q-18 0 -31 13q-14 14 -14 32zM236 655v-655h-52v1290h52v-635l624 635h72l-635 -635l655 -655h-71z" />
    <glyph glyph-name="uni0137" unicode="&#x137;" horiz-adv-x="819" 
d="M399 -211q0 20 14 34q13 13 31 13q20 0 34 -14q13 -14 14 -43q0 -45 -18 -82q-17 -37 -40 -66q-25 -33 -55 -61l-10 10q20 23 37 47q14 23 25 52q11 30 13 65q-18 0 -31 13q-14 14 -14 32zM205 471v-471h-51v1290h51v-819l481 430h72l-482 -430l523 -471h-72z" />
    <glyph glyph-name="Lacute" unicode="&#x139;" horiz-adv-x="942" 
d="M328 1690h82l-174 -246h-31zM901 51v-51h-717v1290h52v-1239h665z" />
    <glyph glyph-name="lacute" unicode="&#x13a;" horiz-adv-x="358" 
d="M287 1690h82l-174 -246h-31zM205 0h-51v1290h51v-1290z" />
    <glyph glyph-name="uni013B" unicode="&#x13b;" horiz-adv-x="942" 
d="M502 -211q0 20 13 34q13 13 32 13q20 0 34 -14q13 -14 13 -43q0 -45 -17 -82t-40 -66q-25 -33 -56 -61l-10 10q20 23 37 47q14 23 26 52q11 30 13 65q-18 0 -32 13q-13 14 -13 32zM901 51v-51h-717v1290h52v-1239h665z" />
    <glyph glyph-name="uni013C" unicode="&#x13c;" horiz-adv-x="358" 
d="M133 -211q0 20 13 34q13 13 32 13q20 0 34 -14q13 -14 13 -43q0 -45 -17 -82t-40 -66q-25 -33 -55 -61l-11 10q20 23 37 47q14 23 26 52q11 30 13 65q-18 0 -32 13q-13 14 -13 32zM205 0h-51v1290h51v-1290z" />
    <glyph glyph-name="Lcaron" unicode="&#x13d;" horiz-adv-x="942" 
d="M481 1290h82l-112 -246h-41zM901 51v-51h-717v1290h52v-1239h665z" />
    <glyph glyph-name="lcaron" unicode="&#x13e;" horiz-adv-x="430" 
d="M410 1290h82l-113 -246h-41zM205 0h-51v1290h51v-1290z" />
    <glyph glyph-name="Lslash" unicode="&#x141;" horiz-adv-x="942" 
d="M41 420l143 92v778h52v-747l358 235v-51l-358 -235v-441h665v-51h-717v461l-143 -92v51z" />
    <glyph glyph-name="lslash" unicode="&#x142;" horiz-adv-x="440" 
d="M20 512l175 113v665h51v-635l174 113v-51l-174 -113v-604h-51v573l-175 -112v51z" />
    <glyph glyph-name="Nacute" unicode="&#x143;" horiz-adv-x="1228" 
d="M727 1690h82l-174 -246h-31zM1044 1290v-1290h-40l-768 1188v-1188h-52v1290h41l768 -1188v1188h51z" />
    <glyph glyph-name="nacute" unicode="&#x144;" horiz-adv-x="1003" 
d="M625 1321h82l-175 -246h-30zM512 911q76 0 142 -27q67 -28 114 -78t75 -120t27 -154v-532h-51v532q0 74 -23 135q-24 60 -65 103t-97 67t-122 23q-66 0 -123 -23q-57 -24 -100 -67t-69 -103t-25 -135v-532h-52v901h41l11 -184h10q27 53 69 96q37 37 95 68q57 30 143 30z
" />
    <glyph glyph-name="uni0145" unicode="&#x145;" horiz-adv-x="1228" 
d="M573 -211q0 20 14 34q13 13 31 13q20 0 34 -14q13 -14 14 -43q0 -45 -18 -82q-17 -37 -40 -66q-25 -33 -55 -61l-10 10q20 23 37 47q14 23 25 52q11 30 13 65q-18 0 -31 13q-14 14 -14 32zM1044 1290v-1290h-40l-768 1188v-1188h-52v1290h41l768 -1188v1188h51z" />
    <glyph glyph-name="uni0146" unicode="&#x146;" horiz-adv-x="1003" 
d="M461 -211q0 20 13 34q13 13 32 13q20 0 34 -14q13 -14 13 -43q0 -45 -17 -82t-40 -66q-25 -33 -56 -61l-10 10q20 23 37 47q14 23 26 52q11 30 13 65q-18 0 -32 13q-13 14 -13 32zM512 911q76 0 142 -27q67 -28 114 -78t75 -120t27 -154v-532h-51v532q0 74 -23 135
q-24 60 -65 103t-97 67t-122 23q-66 0 -123 -23q-57 -24 -100 -67t-69 -103t-25 -135v-532h-52v901h41l11 -184h10q27 53 69 96q37 37 95 68q57 30 143 30z" />
    <glyph glyph-name="Ncaron" unicode="&#x147;" horiz-adv-x="1228" 
d="M389 1669h62l163 -184l164 184h62l-205 -225h-41zM1044 1290v-1290h-40l-768 1188v-1188h-52v1290h41l768 -1188v1188h51z" />
    <glyph glyph-name="ncaron" unicode="&#x148;" horiz-adv-x="1003" 
d="M276 1300h62l164 -184l164 184h61l-205 -225h-41zM512 911q76 0 142 -27q67 -28 114 -78t75 -120t27 -154v-532h-51v532q0 74 -23 135q-24 60 -65 103t-97 67t-122 23q-66 0 -123 -23q-57 -24 -100 -67t-69 -103t-25 -135v-532h-52v901h41l11 -184h10q27 53 69 96
q37 37 95 68q57 30 143 30z" />
    <glyph glyph-name="Omacron" unicode="&#x14c;" horiz-adv-x="1372" 
d="M922 1505h-471v51h471v-51zM1208 645q0 131 -44 242t-116 191q-73 81 -167 126t-195 45q-100 0 -194 -45t-167 -126t-117 -191q-44 -111 -44 -242t44 -242t117 -191q73 -81 167 -126t194 -45t195 45q94 45 167 126t116 191q44 111 44 242zM1260 645q0 -141 -49 -262
q-48 -121 -128 -208t-183 -136t-214 -49t-214 49t-183 136t-128 208t-48 262t48 262t128 208t183 136t214 49t214 -49t183 -136t128 -208q49 -121 49 -262z" />
    <glyph glyph-name="omacron" unicode="&#x14d;" 
d="M768 1147h-471v51h471v-51zM143 451q0 -88 31 -163t81 -130t117 -86t140 -31q74 0 140 31q67 31 117 86t81 130t31 163t-31 162q-31 75 -81 130t-117 86t-140 31q-74 0 -140 -31q-67 -31 -117 -86t-81 -130q-31 -74 -31 -162zM92 451q0 100 34 184t91 145t134 97
q77 35 161 34q84 0 161 -34q77 -35 134 -97q57 -61 91 -145t34 -184t-34 -185q-34 -84 -91 -145t-134 -96t-161 -35t-161 35t-134 96t-91 145q-34 85 -34 185z" />
    <glyph glyph-name="Ohungarumlaut" unicode="&#x150;" horiz-adv-x="1372" 
d="M696 1690h82l-194 -246h-31zM942 1690h82l-195 -246h-30zM1208 645q0 131 -44 242t-116 191q-73 81 -167 126t-195 45q-100 0 -194 -45t-167 -126t-117 -191q-44 -111 -44 -242t44 -242t117 -191q73 -81 167 -126t194 -45t195 45q94 45 167 126t116 191q44 111 44 242z
M1260 645q0 -141 -49 -262q-48 -121 -128 -208t-183 -136t-214 -49t-214 49t-183 136t-128 208t-48 262t48 262t128 208t183 136t214 49t214 -49t183 -136t128 -208q49 -121 49 -262z" />
    <glyph glyph-name="ohungarumlaut" unicode="&#x151;" 
d="M522 1311h82l-194 -246h-31zM768 1311h82l-195 -246h-30zM143 451q0 -88 31 -163t81 -130t117 -86t140 -31q74 0 140 31q67 31 117 86t81 130t31 163t-31 162q-31 75 -81 130t-117 86t-140 31q-74 0 -140 -31q-67 -31 -117 -86t-81 -130q-31 -74 -31 -162zM92 451
q0 100 34 184t91 145t134 97q77 35 161 34q84 0 161 -34q77 -35 134 -97q57 -61 91 -145t34 -184t-34 -185q-34 -84 -91 -145t-134 -96t-161 -35t-161 35t-134 96t-91 145q-34 85 -34 185z" />
    <glyph glyph-name="OE" unicode="&#x152;" horiz-adv-x="1710" 
d="M1608 51v-51h-860q-135 0 -251 49t-201 135t-134 204t-49 257q0 137 49 256t134 205t200.5 135t251.5 49h839v-51h-635v-543h584v-51h-584v-594h656zM901 51v1188h-153q-123 0 -229.5 -45t-185.5 -125t-124 -188.5t-45 -235.5t45 -235.5t124 -188.5t185.5 -125t229.5 -45
h153z" />
    <glyph glyph-name="oe" unicode="&#x153;" horiz-adv-x="1689" 
d="M870 614q27 82 76 148q41 55 109.5 102t173.5 47q74 0 140.5 -30.5t116.5 -87t80.5 -133t30.5 -168.5q0 -12 -2 -22.5t-4 -20.5t-4 -19h-696q16 -186 112.5 -287.5t235.5 -101.5q49 0 92 15.5t77 42t61.5 59t46.5 67.5h51q-18 -47 -49 -89t-73 -74.5t-93.5 -52
t-112.5 -19.5q-109 0 -180.5 46t-112.5 101q-51 66 -76 150h-10q-29 -84 -78 -150q-43 -55 -112.5 -101t-177.5 -46q-80 0 -153 32.5t-128 93t-87 145.5t-32 190q0 104 32 189t87 145.5t128 93t153 32.5q111 0 182 -47t112 -102q49 -66 74 -148h10zM143 451q0 -92 29 -168
t77 -129.5t110.5 -83t132.5 -29.5t132 29.5t110 83t77 129t29 168.5q0 92 -29 167.5t-77 129t-110.5 83t-131.5 29.5q-70 0 -132.5 -29.5t-110.5 -83t-77 -129t-29 -167.5zM1229 860q-66 0 -124 -27.5t-103.5 -77.5t-74 -120t-36.5 -154h655q0 84 -26.5 154t-70.5 120
t-101.5 77.5t-118.5 27.5z" />
    <glyph glyph-name="Racute" unicode="&#x154;" horiz-adv-x="1116" 
d="M666 1690h82l-175 -246h-30zM236 625h387q70 0 128 23q58 24 101 65t67 97t23 122q0 66 -23 122q-24 56 -67 97t-101 64q-58 24 -128 24h-387v-614zM1024 0h-61l-338 573h-389v-573h-52v1290h439q82 0 149 -27q68 -28 117 -75t77 -114t27 -142q0 -74 -23 -134
q-24 -60 -66 -106q-42 -45 -100 -72q-58 -28 -128 -36z" />
    <glyph glyph-name="racute" unicode="&#x155;" horiz-adv-x="593" 
d="M451 1311h81l-174 -246h-30zM553 911v-51h-61q-57 0 -111 -23q-53 -24 -95 -67t-67 -103t-24 -135v-532h-52v901h41l11 -184h10q25 53 65 96q35 37 89 68t133 30h61z" />
    <glyph glyph-name="uni0156" unicode="&#x156;" horiz-adv-x="1116" 
d="M543 -190q0 20 13 33t32 14q20 0 34 -15q13 -14 13 -43q0 -45 -18 -82q-17 -37 -39 -65q-25 -33 -56 -62l-10 11q20 23 37 47q14 23 25 52q11 30 14 64q-18 0 -32 14q-13 14 -13 32zM236 625h387q70 0 128 23q58 24 101 65t67 97t23 122q0 66 -23 122q-24 56 -67 97
t-101 64q-58 24 -128 24h-387v-614zM1024 0h-61l-338 573h-389v-573h-52v1290h439q82 0 149 -27q68 -28 117 -75t77 -114t27 -142q0 -74 -23 -134q-24 -60 -66 -106q-42 -45 -100 -72q-58 -28 -128 -36z" />
    <glyph glyph-name="uni0157" unicode="&#x157;" horiz-adv-x="593" 
d="M123 -211q0 20 13 34q13 13 32 13q20 0 34 -14q13 -14 13 -43q0 -45 -17 -82t-40 -66q-25 -33 -56 -61l-10 10q20 23 37 47q14 23 26 52q11 30 13 65q-18 0 -32 13q-13 14 -13 32zM553 911v-51h-61q-57 0 -111 -23q-53 -24 -95 -67t-67 -103t-24 -135v-532h-52v901h41
l11 -184h10q25 53 65 96q35 37 89 68t133 30h61z" />
    <glyph glyph-name="Rcaron" unicode="&#x158;" horiz-adv-x="1116" 
d="M348 1669h62l163 -184l164 184h62l-205 -225h-41zM236 625h387q70 0 128 23q58 24 101 65t67 97t23 122q0 66 -23 122q-24 56 -67 97t-101 64q-58 24 -128 24h-387v-614zM1024 0h-61l-338 573h-389v-573h-52v1290h439q82 0 149 -27q68 -28 117 -75t77 -114t27 -142
q0 -74 -23 -134q-24 -60 -66 -106q-42 -45 -100 -72q-58 -28 -128 -36z" />
    <glyph glyph-name="rcaron" unicode="&#x159;" horiz-adv-x="593" 
d="M123 1300h61l164 -184l164 184h61l-204 -225h-41zM553 911v-51h-61q-57 0 -111 -23q-53 -24 -95 -67t-67 -103t-24 -135v-532h-52v901h41l11 -184h10q25 53 65 96q35 37 89 68t133 30h61z" />
    <glyph glyph-name="Sacute" unicode="&#x15a;" 
d="M625 1690h82l-175 -246h-30zM133 983q0 66 26 123t74 100q49 43 120 69t159 25q76 0 142 -26q67 -27 117 -73t81 -107t39 -131h-51q-8 57 -36 109t-71 91t-99 63t-122 23q-78 0 -138 -21q-60 -22 -103 -59q-42 -37 -64 -85q-23 -48 -23 -101q0 -72 32 -117t82 -75
q50 -31 116 -52q66 -20 134 -40q69 -19 134 -44q66 -25 116 -63q50 -39 82 -97t31 -147q0 -78 -27 -143q-28 -66 -81 -113t-129 -75t-172 -27q-88 0 -161 27q-73 28 -125 75t-84 113t-40 143h51q8 -66 36 -122t74 -97t108 -64q62 -24 141 -24q84 0 150 24q67 24 113 64
q46 41 71 97t24 122q0 78 -32 130t-82 86t-115 57q-66 23 -134 42q-69 19 -135 42t-115 57q-50 35 -82 88t-32 133z" />
    <glyph glyph-name="sacute" unicode="&#x15b;" horiz-adv-x="808" 
d="M512 1311h82l-174 -246h-31zM707 236q0 -49 -21 -95q-20 -45 -59 -79t-93 -53t-124 -19t-128 22q-58 23 -101 62q-42 39 -65 89q-24 50 -24 103h51q8 -92 79 -158q71 -67 188 -67t181 58q65 58 64 137q0 72 -40 110q-40 39 -100 63t-131 38q-71 15 -131 41t-100 68
t-40 120q0 45 20 88t57 76t91 52q53 19 118 19q66 0 120 -21q54 -22 95 -59t65 -85t28 -101h-52q-16 92 -82 154q-66 61 -174 61q-53 0 -97 -15t-75 -42t-47 -60t-16 -67q0 -63 40 -97t100 -56t131 -37t131 -43t101 -75q40 -48 40 -132z" />
    <glyph glyph-name="Scedilla" unicode="&#x15e;" 
d="M133 983q0 66 25.5 123t75 100t120 68.5t158.5 25.5q76 0 142.5 -26.5t116.5 -72.5t81 -107.5t39 -130.5h-51q-8 57 -36 109t-71 91t-99 62.5t-122 23.5q-78 0 -138.5 -21.5t-102.5 -58t-64.5 -85t-22.5 -101.5q0 -72 32 -117t82 -75.5t115.5 -51t134 -40t134.5 -44
t116 -63.5t81.5 -97.5t31.5 -146.5q0 -154 -99 -248t-269 -110l-41 -72q61 0 97 -38t36 -85t-38 -85t-116 -38q-16 0 -28.5 1t-22.5 3t-20 7v41q10 -4 20 -7q10 -2 22.5 -3t28.5 -1q53 0 78 25.5t25 56.5t-22.5 56.5t-69.5 25.5q-8 0 -16.5 -2t-16.5 -4t-19 -4l62 123
q-88 0 -161 27.5t-125 74.5t-84 112.5t-40 143.5h51q8 -66 36 -122t74 -97t108.5 -64.5t140.5 -23.5q84 0 150.5 23.5t112.5 64.5t70.5 97.5t24.5 121.5q0 78 -31.5 130t-82 86t-116 56.5t-134 42t-134 42t-115.5 57.5t-82 88t-32 133z" />
    <glyph glyph-name="scedilla" unicode="&#x15f;" horiz-adv-x="808" 
d="M707 236q0 -100 -77 -169t-200 -77l-31 -72q61 0 97 -38t36 -85t-37.5 -85t-115.5 -38q-16 0 -28.5 1t-22.5 3t-21 7v41q10 -4 21 -7q10 -2 22 -3t29 -1q53 0 77.5 25.5t24.5 56.5t-22.5 56.5t-69.5 25.5q-8 0 -16 -2t-17 -4q-8 -2 -18 -4l51 123q-66 4 -120 27.5
t-94 60.5t-61.5 86t-21.5 102h51q8 -92 79 -158.5t188 -66.5t181 58.5t64 136.5q0 72 -40 110.5t-100 62t-131 39t-131 41t-100 67.5t-40 120q0 45 20.5 88t57 75.5t90 52t118.5 19.5q66 0 120 -21.5t95 -58t64.5 -85t28.5 -101.5h-52q-16 92 -81.5 153.5t-174.5 61.5
q-53 0 -97 -15.5t-74.5 -42t-47 -59t-16.5 -67.5q0 -63 40 -97t100.5 -55.5t131 -37t131 -43t100.5 -75.5t40 -132z" />
    <glyph glyph-name="Scaron" unicode="&#x160;" 
d="M297 1669h61l164 -184l164 184h62l-205 -225h-41zM133 983q0 66 26 123t74 100q49 43 120 69t159 25q76 0 142 -26q67 -27 117 -73t81 -107t39 -131h-51q-8 57 -36 109t-71 91t-99 63t-122 23q-78 0 -138 -21q-60 -22 -103 -59q-42 -37 -64 -85q-23 -48 -23 -101
q0 -72 32 -117t82 -75q50 -31 116 -52q66 -20 134 -40q69 -19 134 -44q66 -25 116 -63q50 -39 82 -97t31 -147q0 -78 -27 -143q-28 -66 -81 -113t-129 -75t-172 -27q-88 0 -161 27q-73 28 -125 75t-84 113t-40 143h51q8 -66 36 -122t74 -97t108 -64q62 -24 141 -24
q84 0 150 24q67 24 113 64q46 41 71 97t24 122q0 78 -32 130t-82 86t-115 57q-66 23 -134 42q-69 19 -135 42t-115 57q-50 35 -82 88t-32 133z" />
    <glyph glyph-name="scaron" unicode="&#x161;" horiz-adv-x="808" 
d="M184 1300h62l164 -184l163 184h62l-205 -225h-41zM707 236q0 -49 -21 -95q-20 -45 -59 -79t-93 -53t-124 -19t-128 22q-58 23 -101 62q-42 39 -65 89q-24 50 -24 103h51q8 -92 79 -158q71 -67 188 -67t181 58q65 58 64 137q0 72 -40 110q-40 39 -100 63t-131 38
q-71 15 -131 41t-100 68t-40 120q0 45 20 88t57 76t91 52q53 19 118 19q66 0 120 -21q54 -22 95 -59t65 -85t28 -101h-52q-16 92 -82 154q-66 61 -174 61q-53 0 -97 -15t-75 -42t-47 -60t-16 -67q0 -63 40 -97t100 -56t131 -37t131 -43t101 -75q40 -48 40 -132z" />
    <glyph glyph-name="uni0162" unicode="&#x162;" horiz-adv-x="993" 
d="M451 -211q0 20 13 34q13 13 32 13q20 0 33 -14t14 -43q0 -45 -18 -82q-17 -37 -40 -66q-25 -33 -55 -61l-10 10q20 23 37 47q14 23 25 52q11 30 14 65q-18 0 -32 13q-13 14 -13 32zM932 1239h-410v-1239h-51v1239h-410v51h871v-51z" />
    <glyph glyph-name="uni0163" unicode="&#x163;" horiz-adv-x="604" 
d="M328 -211q0 20 13 34q13 13 32 13q20 0 34 -14q13 -14 13 -43q0 -45 -18 -82q-17 -37 -40 -66q-25 -33 -55 -61l-10 10q20 23 37 47q14 23 25 52q11 30 14 65q-18 0 -32 13q-13 14 -13 32zM225 850h-184v51h92q92 0 92 92v174h51v-266h236v-51h-236v-625q0 -86 49 -135
q48 -49 126 -49q16 0 28 1t23 3q10 2 20 6v-51q-10 -4 -20 -6t-23 -3q-12 -1 -28 -1q-100 0 -163 63q-62 63 -63 172v625z" />
    <glyph glyph-name="Tcaron" unicode="&#x164;" horiz-adv-x="993" 
d="M276 1669h62l164 -184l164 184h61l-205 -225h-41zM932 1239h-410v-1239h-51v1239h-410v51h871v-51z" />
    <glyph glyph-name="tcaron" unicode="&#x165;" horiz-adv-x="665" 
d="M614 1290h82l-112 -246h-41zM225 850h-184v51h92q92 0 92 92v174h51v-266h236v-51h-236v-625q0 -86 48.5 -135t126.5 -49q16 0 28.5 1t22.5 3t20 6v-51q-10 -4 -20 -6t-22.5 -3t-28.5 -1q-100 0 -163 63.5t-63 171.5v625z" />
    <glyph glyph-name="Umacron" unicode="&#x16a;" horiz-adv-x="1249" 
d="M860 1505h-471v51h471v-51zM625 -10q-100 0 -184 34q-83 34 -142 98q-59 65 -92 158t-33 212v798h51v-798q0 -109 30 -192t82 -141t126 -88t162 -30t161 30q74 30 126 88t82 141t30 192v798h51v-798q0 -119 -33 -212t-92 -158t-142 -98q-83 -34 -183 -34z" />
    <glyph glyph-name="umacron" unicode="&#x16b;" horiz-adv-x="1013" 
d="M748 1137h-472v51h472v-51zM502 -10q-78 0 -144 27q-66 28 -112 78q-47 50 -75 120t-28 154v532h52v-532q0 -74 23 -135q24 -60 65 -103t97 -66q56 -24 122 -24t123 24t100 66q43 43 69 103t25 135v532h51v-901h-41l-10 184h-10q-27 -55 -70 -98q-37 -37 -94 -67
q-57 -29 -143 -29z" />
    <glyph glyph-name="Uring" unicode="&#x16e;" horiz-adv-x="1249" 
d="M788 1577q0 -70 -47 -117t-116 -47q-70 0 -117 47t-47 117t47 117t117 47t116 -47q47 -47 47 -117zM737 1577q0 47 -32 80q-33 33 -80 33t-80 -33t-33 -80t33 -80t80 -33t80 33q32 33 32 80zM625 -10q-100 0 -184 34q-83 34 -142 98q-59 65 -92 158t-33 212v798h51v-798
q0 -109 30 -192t82 -141t126 -88t162 -30t161 30q74 30 126 88t82 141t30 192v798h51v-798q0 -119 -33 -212t-92 -158t-142 -98q-83 -34 -183 -34z" />
    <glyph glyph-name="uring" unicode="&#x16f;" horiz-adv-x="1013" 
d="M676 1208q0 -70 -47 -116q-47 -47 -117 -48q-70 0 -117 48q-47 47 -47 116q0 70 47 117t117 47t117 -47t47 -117zM625 1208q0 47 -33 80t-80 33t-80 -33t-33 -80t33 -80t80 -32q47 0 80 32q33 33 33 80zM502 -10q-78 0 -144 27q-66 28 -112 78q-47 50 -75 120t-28 154
v532h52v-532q0 -74 23 -135q24 -60 65 -103t97 -66q56 -24 122 -24t123 24t100 66q43 43 69 103t25 135v532h51v-901h-41l-10 184h-10q-27 -55 -70 -98q-37 -37 -94 -67q-57 -29 -143 -29z" />
    <glyph glyph-name="Uhungarumlaut" unicode="&#x170;" horiz-adv-x="1249" 
d="M625 1690h82l-195 -246h-31zM870 1690h82l-194 -246h-31zM625 -10q-100 0 -184 34q-83 34 -142 98q-59 65 -92 158t-33 212v798h51v-798q0 -109 30 -192t82 -141t126 -88t162 -30t161 30q74 30 126 88t82 141t30 192v798h51v-798q0 -119 -33 -212t-92 -158t-142 -98
q-83 -34 -183 -34z" />
    <glyph glyph-name="uhungarumlaut" unicode="&#x171;" horiz-adv-x="1013" 
d="M512 1321h82l-195 -246h-30zM758 1321h82l-195 -246h-31zM502 -10q-78 0 -144 27q-66 28 -112 78q-47 50 -75 120t-28 154v532h52v-532q0 -74 23 -135q24 -60 65 -103t97 -66q56 -24 122 -24t123 24t100 66q43 43 69 103t25 135v532h51v-901h-41l-10 184h-10
q-27 -55 -70 -98q-37 -37 -94 -67q-57 -29 -143 -29z" />
    <glyph glyph-name="Uogonek" unicode="&#x172;" horiz-adv-x="1249" 
d="M625 -10q-100 0 -183.5 33.5t-142.5 98t-92 158t-33 212.5v798h51v-798q0 -109 30 -192t82 -141.5t126 -88t162 -29.5t161.5 29.5t126 88t82 141.5t29.5 192v798h51v-798q0 -115 -28.5 -204t-81 -151.5t-124 -98.5t-155.5 -48q-23 -23 -41 -47q-16 -23 -28.5 -52.5
t-12.5 -64.5q0 -47 30 -74.5t83 -27.5q10 0 21.5 1t21.5 3t18 6v-51q-8 -4 -18 -7q-10 -2 -21.5 -3t-21.5 -1q-78 0 -121 42t-43 112q0 35 12.5 64.5t28.5 52.5q18 25 41 47h-10v0z" />
    <glyph glyph-name="uogonek" unicode="&#x173;" horiz-adv-x="1013" 
d="M502 -10q-78 0 -143.5 27.5t-112.5 77.5t-75 120t-28 154v532h52v-532q0 -74 23.5 -134.5t64.5 -103.5t97 -66.5t122 -23.5t123 23.5t100 66.5t68.5 103.5t25.5 134.5v532h51v-901q-27 -25 -47 -53q-16 -25 -30.5 -55.5t-14.5 -65.5q0 -47 30 -74.5t83 -27.5q10 0 21.5 1
t21.5 3t18 6v-51q-8 -4 -18 -7q-10 -2 -21.5 -3t-21.5 -1q-78 0 -121 42t-43 112q0 35 15.5 65.5t35.5 55.5q23 29 51 53l-10 184h-10q-27 -55 -70 -98q-37 -37 -94 -66.5t-143 -29.5z" />
    <glyph glyph-name="Ydieresis" unicode="&#x178;" horiz-adv-x="1054" 
d="M430 1542q0 -20 -13 -34q-13 -13 -34 -13q-18 0 -32 13q-13 13 -13 34q0 18 13 32q13 13 32 13q20 0 34 -13q13 -14 13 -32zM727 1542q0 -20 -13 -34q-13 -13 -34 -13q-18 0 -32 13q-13 13 -13 34q0 18 13 32q13 13 32 13q20 0 34 -13q13 -14 13 -32zM61 1290h62
l399 -706h10l400 706h61l-440 -768v-522h-51v522z" />
    <glyph glyph-name="Zacute" unicode="&#x179;" horiz-adv-x="983" 
d="M614 1690h82l-174 -246h-30zM113 1290h788v-30l-747 -1209h747v-51h-819v31l747 1208h-716v51z" />
    <glyph glyph-name="zacute" unicode="&#x17a;" horiz-adv-x="788" 
d="M512 1321h82l-174 -246h-31zM645 850h-553v51h625v-31l-574 -819h574v-51h-645v31z" />
    <glyph glyph-name="Zdotaccent" unicode="&#x17b;" horiz-adv-x="983" 
d="M563 1542q0 -20 -13 -34q-13 -13 -34 -13q-18 0 -32 13q-13 13 -13 34q0 18 13 32q13 13 32 13q20 0 34 -13q13 -14 13 -32zM113 1290h788v-30l-747 -1209h747v-51h-819v31l747 1208h-716v51z" />
    <glyph glyph-name="zdotaccent" unicode="&#x17c;" horiz-adv-x="788" 
d="M451 1174q0 -20 -14 -34q-13 -13 -34 -14q-18 0 -31 14q-13 13 -14 34q0 18 14 31q13 13 31 14q20 0 34 -14q14 -13 14 -31zM645 850h-553v51h625v-31l-574 -819h574v-51h-645v31z" />
    <glyph glyph-name="Zcaron" unicode="&#x17d;" horiz-adv-x="983" 
d="M287 1669h61l164 -184l164 184h61l-205 -225h-40zM113 1290h788v-30l-747 -1209h747v-51h-819v31l747 1208h-716v51z" />
    <glyph glyph-name="zcaron" unicode="&#x17e;" horiz-adv-x="788" 
d="M174 1300h62l163 -184l164 184h62l-205 -225h-41zM645 850h-553v51h625v-31l-574 -819h574v-51h-645v31z" />
    <glyph glyph-name="florin" unicode="&#x192;" horiz-adv-x="624" 
d="M338 707l-123 -666q-39 -207 -115.5 -293t-191.5 -86q-16 0 -28.5 1t-22.5 3t-21 6l10 52q10 -4 21 -7q10 -2 20.5 -3t20.5 -1q92 0 156.5 72t99.5 256l123 666h-154l10 51h154l31 164q39 207 115.5 292.5t191.5 85.5q16 0 28.5 -2t22.5 -4t21 -4l-11 -51q-8 2 -18 4
t-21.5 4t-21.5 2q-92 0 -156.5 -71.5t-99.5 -255.5l-31 -164h225l-10 -51h-225z" />
    <glyph glyph-name="uni0218" unicode="&#x218;" 
d="M471 -190q0 20 13 33t32 14q20 0 34 -15q13 -14 13 -43q0 -45 -17 -82t-40 -65q-25 -33 -55 -62l-11 11q20 23 37 47q14 23 26 52q11 30 13 64q-18 0 -32 14q-13 14 -13 32zM133 983q0 66 26 123t74 100q49 43 120 69t159 25q76 0 142 -26q67 -27 117 -73t81 -107
t39 -131h-51q-8 57 -36 109t-71 91t-99 63t-122 23q-78 0 -138 -21q-60 -22 -103 -59q-42 -37 -64 -85q-23 -48 -23 -101q0 -72 32 -117t82 -75q50 -31 116 -52q66 -20 134 -40q69 -19 134 -44q66 -25 116 -63q50 -39 82 -97t31 -147q0 -78 -27 -143q-28 -66 -81 -113
t-129 -75t-172 -27q-88 0 -161 27q-73 28 -125 75t-84 113t-40 143h51q8 -66 36 -122t74 -97t108 -64q62 -24 141 -24q84 0 150 24q67 24 113 64q46 41 71 97t24 122q0 78 -32 130t-82 86t-115 57q-66 23 -134 42q-69 19 -135 42t-115 57q-50 35 -82 88t-32 133z" />
    <glyph glyph-name="uni0219" unicode="&#x219;" horiz-adv-x="808" 
d="M358 -211q0 20 14 34q13 13 31 13q20 0 34 -14q13 -14 14 -43q0 -45 -18 -82q-17 -37 -40 -66q-25 -33 -55 -61l-10 10q20 23 37 47q14 23 25 52q11 30 13 65q-18 0 -31 13q-14 14 -14 32zM707 236q0 -49 -21 -95q-20 -45 -59 -79t-93 -53t-124 -19t-128 22
q-58 23 -101 62q-42 39 -65 89q-24 50 -24 103h51q8 -92 79 -158q71 -67 188 -67t181 58q65 58 64 137q0 72 -40 110q-40 39 -100 63t-131 38q-71 15 -131 41t-100 68t-40 120q0 45 20 88t57 76t91 52q53 19 118 19q66 0 120 -21q54 -22 95 -59t65 -85t28 -101h-52
q-16 92 -82 154q-66 61 -174 61q-53 0 -97 -15t-75 -42t-47 -60t-16 -67q0 -63 40 -97t100 -56t131 -37t131 -43t101 -75q40 -48 40 -132z" />
    <glyph glyph-name="uni021A" unicode="&#x21a;" horiz-adv-x="993" 
d="M451 -211q0 20 13 34q13 13 32 13q20 0 33 -14t14 -43q0 -45 -18 -82q-17 -37 -40 -66q-25 -33 -55 -61l-10 10q20 23 37 47q14 23 25 52q11 30 14 65q-18 0 -32 13q-13 14 -13 32zM932 1239h-410v-1239h-51v1239h-410v51h871v-51z" />
    <glyph glyph-name="uni021B" unicode="&#x21b;" horiz-adv-x="604" 
d="M328 -211q0 20 13 34q13 13 32 13q20 0 34 -14q13 -14 13 -43q0 -45 -18 -82q-17 -37 -40 -66q-25 -33 -55 -61l-10 10q20 23 37 47q14 23 25 52q11 30 14 65q-18 0 -32 13q-13 14 -13 32zM225 850h-184v51h92q92 0 92 92v174h51v-266h236v-51h-236v-625q0 -86 49 -135
q48 -49 126 -49q16 0 28 1t23 3q10 2 20 6v-51q-10 -4 -20 -6t-23 -3q-12 -1 -28 -1q-100 0 -163 63q-62 63 -63 172v625z" />
    <glyph glyph-name="uni02BC" unicode="&#x2bc;" horiz-adv-x="245" 
d="M92 1243q0 20 13.5 33.5t31.5 13.5q20 0 33.5 -14t13.5 -43q0 -45 -17 -82t-40 -66q-25 -33 -55 -61l-11 10q20 23 37 47q14 23 25.5 52.5t13.5 64.5q-18 0 -31.5 13.5t-13.5 31.5z" />
    <glyph glyph-name="circumflex" unicode="&#x2c6;" horiz-adv-x="573" 
d="M266 1270h41l205 -226h-61l-164 185l-164 -185h-62z" />
    <glyph glyph-name="caron" unicode="&#x2c7;" horiz-adv-x="573" 
d="M61 1270h62l164 -185l164 185h61l-205 -226h-41z" />
    <glyph glyph-name="breve" unicode="&#x2d8;" horiz-adv-x="552" 
d="M276 1106q61 0 108.5 45t55.5 98h52q-4 -39 -22.5 -73.5t-47.5 -61.5t-66 -43t-80 -16t-79.5 16t-65.5 43t-47 61.5t-23 73.5h52q8 -53 55 -98t108 -45z" />
    <glyph glyph-name="dotaccent" unicode="&#x2d9;" horiz-adv-x="215" 
d="M154 1214q0 -20 -13.5 -33.5t-34.5 -13.5q-18 0 -31.5 13.5t-13.5 33.5q0 18 13.5 32t31.5 14q20 0 34 -14t14 -32z" />
    <glyph glyph-name="ring" unicode="&#x2da;" horiz-adv-x="450" 
d="M389 1188q0 -70 -47 -117t-117 -47t-117 47t-47 117t47.5 117t116.5 47q70 0 117 -47t47 -117zM338 1188q0 47 -33 79.5t-80 32.5t-79.5 -32.5t-32.5 -79.5t32.5 -80t79.5 -33t80 33t33 80z" />
    <glyph glyph-name="ogonek" unicode="&#x2db;" horiz-adv-x="348" 
d="M205 0q-27 -25 -47 -53q-16 -25 -30.5 -55.5t-14.5 -65.5q0 -47 29.5 -74.5t82.5 -27.5q10 0 21.5 1t21.5 3t19 6v-51q-8 -4 -19 -7q-10 -2 -21 -3t-22 -1q-78 0 -121 42t-43 112q0 35 14.5 65.5t30.5 55.5q20 29 48 53h51z" />
    <glyph glyph-name="tilde" unicode="&#x2dc;" horiz-adv-x="645" 
d="M440 1126q39 0 65.5 31t26.5 92h52q0 -86 -41 -130t-103 -44q-39 0 -70.5 20.5t-59 46t-53.5 46t-52 20.5q-39 0 -65.5 -30.5t-26.5 -92.5h-52q0 86 41 130.5t103 44.5q39 0 70.5 -20.5t59 -46.5t53 -46.5t52.5 -20.5z" />
    <glyph glyph-name="hungarumlaut" unicode="&#x2dd;" horiz-adv-x="593" 
d="M205 1290h82l-195 -246h-31zM451 1290h81l-194 -246h-31z" />
    <glyph glyph-name="uni0401" unicode="&#x401;" horiz-adv-x="1054" 
d="M451 1542q0 -20 -14 -34q-13 -13 -34 -13q-18 0 -31 13t-14 34q0 18 14 32q13 13 31 13q20 0 34 -13q14 -14 14 -32zM748 1542q0 -20 -14 -34q-13 -13 -34 -13q-18 0 -31 13t-14 34q0 18 14 32q13 13 31 13q20 0 34 -13q14 -14 14 -32zM952 51v-51h-768v1290h748v-51
h-696v-543h645v-51h-645v-594h716z" />
    <glyph glyph-name="uni0402" unicode="&#x402;" horiz-adv-x="1259" 
d="M1147 399q0 -104 -31 -188t-88 -145.5t-136 -98.5t-175 -49v51q84 12 153.5 46t119.5 88.5t78 129t28 166.5q0 84 -27 154t-74 120t-110.5 77.5t-136.5 27.5q-74 0 -137.5 -27.5t-110.5 -74.5t-74 -113.5t-27 -142.5v-420h-51v1239h-348v51h758v-51h-359v-614h11
q29 57 75 102q41 39 105.5 70.5t157.5 31.5q84 0 156.5 -30.5t126.5 -88t85 -136.5t31 -175z" />
    <glyph glyph-name="uni0403" unicode="&#x403;" horiz-adv-x="901" 
d="M635 1690h82l-174 -246h-31zM236 1239v-1239h-52v1290h697v-51h-645z" />
    <glyph glyph-name="uni0404" unicode="&#x404;" horiz-adv-x="1310" 
d="M748 625h-582q2 -127 47 -233.5t116.5 -184.5t165 -122t193.5 -44q88 0 161 27.5t131 74.5t102 113t75 143h51q-31 -88 -79 -162.5t-112.5 -130t-147.5 -86t-181 -30.5q-113 0 -216 49t-183 136t-128 208t-48 262t48 262t128 208t183 136t216 49q98 0 180 -30.5
t146.5 -86t110.5 -130t73 -162.5h-51q-27 76 -69 142.5t-99 113.5t-130 74.5t-161 27.5q-100 0 -192.5 -42t-163 -117.5t-115.5 -181t-51 -232.5h582v-51z" />
    <glyph glyph-name="uni0405" unicode="&#x405;" 
d="M133 983q0 66 26 123t74 100q49 43 120 69t159 25q76 0 142 -26q67 -27 117 -73t81 -107t39 -131h-51q-8 57 -36 109t-71 91t-99 63t-122 23q-78 0 -138 -21q-60 -22 -103 -59q-42 -37 -64 -85q-23 -48 -23 -101q0 -72 32 -117t82 -75q50 -31 116 -52q66 -20 134 -40
q69 -19 134 -44q66 -25 116 -63q50 -39 82 -97t31 -147q0 -78 -27 -143q-28 -66 -81 -113t-129 -75t-172 -27q-88 0 -161 27q-73 28 -125 75t-84 113t-40 143h51q8 -66 36 -122t74 -97t108 -64q62 -24 141 -24q84 0 150 24q67 24 113 64q46 41 71 97t24 122q0 78 -32 130
t-82 86t-115 57q-66 23 -134 42q-69 19 -135 42t-115 57q-50 35 -82 88t-32 133z" />
    <glyph glyph-name="uni0406" unicode="&#x406;" horiz-adv-x="419" 
d="M236 0h-52v1290h52v-1290z" />
    <glyph glyph-name="uni0407" unicode="&#x407;" horiz-adv-x="419" 
d="M102 1542q0 -20 -13 -34q-13 -13 -34 -13q-18 0 -31 13t-14 34q0 18 14 32q13 13 31 13q20 0 34 -13q13 -14 13 -32zM399 1542q0 -20 -13 -34q-13 -13 -34 -13q-18 0 -31 13t-14 34q0 18 14 32q13 13 31 13q20 0 34 -13q13 -14 13 -32zM236 0h-52v1290h52v-1290z" />
    <glyph glyph-name="uni0408" unicode="&#x408;" horiz-adv-x="983" 
d="M809 1290v-870q0 -209 -104 -320t-275 -110q-80 0 -147 26q-68 27 -117 73t-77 108q-28 61 -28 131h52q0 -57 23 -110q24 -52 66 -91t100 -62q58 -24 128 -24q147 0 238 96q90 96 90 283v870h51z" />
    <glyph glyph-name="uni0409" unicode="&#x409;" horiz-adv-x="1802" 
d="M932 0v1239h-557l-68 -870q-16 -201 -91 -290t-175 -89q-12 0 -22.5 1t-20.5 3t-18 6v41h51q84 0 147.5 76t77.5 252l72 921h655v-532h328q84 0 155.5 -29t123.5 -80t81 -120.5t29 -149.5t-29 -149.5t-81 -121t-123.5 -80t-155.5 -28.5h-379zM983 707v-656h328
q74 0 135 25.5t106 69.5t71 103.5t26 129.5t-26 129t-71 103t-106.5 70t-134.5 26h-328z" />
    <glyph glyph-name="uni040A" unicode="&#x40a;" horiz-adv-x="1812" 
d="M942 0v686h-706v-686h-52v1290h52v-553h706v553h51v-553h328q88 0 159.5 -27.5t123 -76.5t79 -116.5t27.5 -147.5t-27.5 -147.5t-79 -117t-123 -77t-159.5 -27.5h-379zM993 686v-635h328q76 0 138.5 23.5t107.5 65.5t68.5 100.5t23.5 128.5t-23.5 128t-68.5 100
t-107.5 65.5t-138.5 23.5h-328z" />
    <glyph glyph-name="uni040B" unicode="&#x40b;" horiz-adv-x="1310" 
d="M0 1290h758v-51h-359v-614h11q29 57 75 102q41 39 105.5 70.5t157.5 31.5q84 0 156.5 -30.5t126.5 -86t85 -130t31 -162.5v-420h-51v420q0 76 -27 142.5t-74 113.5t-110.5 74.5t-136.5 27.5q-74 0 -137.5 -27.5t-110.5 -74.5t-74 -113.5t-27 -142.5v-420h-51v1239h-348
v51z" />
    <glyph glyph-name="uni040C" unicode="&#x40c;" horiz-adv-x="972" 
d="M236 655v-655h-52v1290h52v-635l624 635h72l-635 -635l655 -655h-71zM635 1690h82l-174 -246h-31z" />
    <glyph glyph-name="uni040E" unicode="&#x40e;" horiz-adv-x="1013" 
d="M532 1485q61 0 109 45q47 45 55 98h52q-4 -39 -23 -74q-18 -35 -47 -61q-29 -27 -66 -43t-80 -16t-79 16q-37 16 -66 43t-47 61q-18 35 -23 74h52q8 -53 55 -98t108 -45zM973 1290l-481 -1085q-51 -117 -111 -171q-59 -54 -145 -54q-39 0 -66 10q-14 4 -27 10v51
q12 -6 27 -10q27 -10 66 -10q70 0 118 44q49 44 86 130l72 164l-451 921h62l409 -850h11l368 850h62z" />
    <glyph glyph-name="uni040F" unicode="&#x40f;" horiz-adv-x="1218" 
d="M1034 1290v-1290h-399v-297h-51v297h-400v1290h52v-1239h747v1239h51z" />
    <glyph glyph-name="uni0410" unicode="&#x410;" horiz-adv-x="1146" 
d="M553 1290h41l491 -1290h-51l-133 358h-655l-133 -358h-52zM266 410h615l-308 798z" />
    <glyph glyph-name="uni0411" unicode="&#x411;" horiz-adv-x="1116" 
d="M184 1290h738v-51h-686v-502h399q80 0 149.5 -28.5t120.5 -78.5t80 -118t29 -143q0 -78 -29 -144.5t-80 -117t-120.5 -79t-149.5 -28.5h-451v1290zM236 686v-635h399q70 0 129 25.5t103 68.5t70 100.5t26 123.5t-26 123t-70 100t-103 68.5t-129 25.5h-399z" />
    <glyph glyph-name="uni0412" unicode="&#x412;" horiz-adv-x="1136" 
d="M739 696q78 -23 142 -65q53 -37 98 -103t45 -170q0 -74 -29 -138q-29 -65 -81 -114t-123 -77q-72 -29 -156 -29h-451v1290h430q76 0 141 -25q65 -26 110 -69q46 -43 72 -100t26 -123q0 -82 -36 -134t-77 -85q-50 -38 -111 -58zM236 666v-615h399q74 0 135 25t107 67
q45 43 70 99q26 55 26 116t-26 117q-26 55 -70 98q-45 43 -107 68q-61 25 -135 25h-399zM236 717h378q66 0 120 21q54 22 94 57t62 82t21 96q0 53 -21 101q-22 48 -62 85t-94 59t-120 21h-378v-522z" />
    <glyph glyph-name="uni0413" unicode="&#x413;" horiz-adv-x="901" 
d="M236 1239v-1239h-52v1290h697v-51h-645z" />
    <glyph glyph-name="uni0414" unicode="&#x414;" horiz-adv-x="1187" 
d="M-20 51h61q39 23 74 60q29 31 55.5 79t34.5 117l112 983h646v-1239h163v-348h-51v297h-1044v-297h-51v348zM256 307q-8 -70 -31.5 -118t-48.5 -78q-29 -37 -63 -60h798v1188h-546z" />
    <glyph glyph-name="uni0415" unicode="&#x415;" horiz-adv-x="1054" 
d="M952 51v-51h-768v1290h748v-51h-696v-543h645v-51h-645v-594h716z" />
    <glyph glyph-name="uni0416" unicode="&#x416;" horiz-adv-x="1443" 
d="M748 655v-655h-52v1290h52v-635l583 635h72l-594 -635l614 -655h-71zM696 655l-604 -655h-72l615 655l-594 635h72z" />
    <glyph glyph-name="uni0417" unicode="&#x417;" 
d="M123 963q8 70 39 131t81 107t115.5 72.5t143.5 26.5q88 0 158.5 -25.5t119.5 -70.5t75 -106.5t26 -134.5q0 -92 -38 -150.5t-85 -91.5q-53 -37 -123 -55q76 -20 137 -64q53 -37 96 -100.5t43 -163.5q0 -74 -27.5 -137.5t-80.5 -110.5t-129 -73.5t-172 -26.5
q-88 0 -161 27.5t-125 74.5t-84 112.5t-40 143.5h51q8 -66 36 -122t74 -97t108.5 -64.5t140.5 -23.5q84 0 150.5 23.5t112.5 63.5t70.5 94t24.5 116q0 61 -24.5 115.5t-70.5 94.5t-112.5 63.5t-150.5 23.5h-82v51h82q76 0 137 21.5t103 59.5t64.5 88t22.5 108
q0 123 -87 204.5t-240 81.5q-66 0 -122 -23.5t-99 -62.5t-71 -91t-36 -109h-51z" />
    <glyph glyph-name="uni0418" unicode="&#x418;" horiz-adv-x="1228" 
d="M993 0v1188l-768 -1188h-41v1290h52v-1188l768 1188h40v-1290h-51z" />
    <glyph glyph-name="uni0419" unicode="&#x419;" horiz-adv-x="1228" 
d="M625 1475q70 0 117 46q48 46 57 107h51q-8 -84 -71 -144q-62 -60 -154 -61q-92 0 -155 61q-62 60 -71 144h52q8 -61 56 -107t118 -46zM993 0v1188l-768 -1188h-41v1290h52v-1188l768 1188h40v-1290h-51z" />
    <glyph glyph-name="uni041A" unicode="&#x41a;" horiz-adv-x="972" 
d="M236 655v-655h-52v1290h52v-635l624 635h72l-635 -635l655 -655h-71z" />
    <glyph glyph-name="uni041B" unicode="&#x41b;" horiz-adv-x="1208" 
d="M1024 1290v-1290h-51v1239h-598l-68 -870q-16 -201 -91 -290t-175 -89q-12 0 -22.5 1t-20.5 3t-18 6v41h51q84 0 147.5 76t77.5 252l72 921h696z" />
    <glyph glyph-name="uni041C" unicode="&#x41c;" horiz-adv-x="1515" 
d="M1270 1290h61v-1290h-51v1198l-502 -1198h-41l-501 1198v-1198h-52v1290h62l512 -1218z" />
    <glyph glyph-name="uni041D" unicode="&#x41d;" horiz-adv-x="1218" 
d="M236 1290v-604h747v604h51v-1290h-51v635h-747v-635h-52v1290h52z" />
    <glyph glyph-name="uni041E" unicode="&#x41e;" horiz-adv-x="1372" 
d="M1208 645q0 131 -44 242t-116 191q-73 81 -167 126t-195 45q-100 0 -194 -45t-167 -126t-117 -191q-44 -111 -44 -242t44 -242t117 -191q73 -81 167 -126t194 -45t195 45q94 45 167 126t116 191q44 111 44 242zM1260 645q0 -141 -49 -262q-48 -121 -128 -208t-183 -136
t-214 -49t-214 49t-183 136t-128 208t-48 262t48 262t128 208t183 136t214 49t214 -49t183 -136t128 -208q49 -121 49 -262z" />
    <glyph glyph-name="uni041F" unicode="&#x41f;" horiz-adv-x="1218" 
d="M1034 1290v-1290h-51v1239h-747v-1239h-52v1290h850z" />
    <glyph glyph-name="uni0420" unicode="&#x420;" horiz-adv-x="1064" 
d="M573 1290q84 0 156 -28q72 -29 124 -80t81 -121t29 -150t-29 -149q-29 -70 -81 -121t-124 -80t-156 -29h-337v-532h-52v1290h389zM573 584q74 0 136 25q61 26 106 70t71 103t25 129q0 70 -25 129q-26 59 -71 104q-45 44 -106 69q-61 26 -136 26h-337v-655h337z" />
    <glyph glyph-name="uni0421" unicode="&#x421;" horiz-adv-x="1310" 
d="M686 1249q-100 0 -194 -45t-167 -126t-117 -191q-44 -111 -44 -242t44 -242t117 -191q73 -81 167 -126t194 -45q176 0 293 104t178 275h51q-31 -96 -79 -175t-113 -136q-66 -57 -148 -89q-82 -31 -182 -30q-111 0 -214 49t-183 136t-128 208t-48 262t48 262t128 208
t183 136t214 49q100 0 182 -30q82 -31 147 -88t110 -136q46 -79 73 -176h-51q-27 84 -69 154t-100 120t-131 78q-73 27 -161 27z" />
    <glyph glyph-name="uni0422" unicode="&#x422;" horiz-adv-x="993" 
d="M932 1239h-410v-1239h-51v1239h-410v51h871v-51z" />
    <glyph glyph-name="uni0423" unicode="&#x423;" horiz-adv-x="1013" 
d="M973 1290l-481 -1085q-51 -117 -110.5 -171t-145.5 -54q-39 0 -66 10q-14 4 -27 10v51q12 -6 27 -10q27 -10 66 -10q70 0 118.5 44t85.5 130l72 164l-451 921h62l409 -850h11l368 850h62z" />
    <glyph glyph-name="uni0424" unicode="&#x424;" horiz-adv-x="1443" 
d="M696 164q-145 0 -257.5 38t-189.5 104.5t-117 155.5t-40 193t40 193.5t117 156t189.5 104.5t257.5 38v143h52v-143q145 0 257.5 -38t189.5 -104.5t117 -155.5t40 -194q0 -104 -40 -193t-117 -155.5t-189.5 -104.5t-257.5 -38v-174h-52v174zM748 215q135 0 237 34t173 94
t106.5 140t35.5 172t-35.5 172t-106.5 140.5t-173 94.5t-237 34v-881zM696 1096q-135 0 -237.5 -34t-173 -94.5t-106.5 -140t-36 -172.5q0 -92 36 -172t106.5 -140t173 -94t237.5 -34v881z" />
    <glyph glyph-name="uni0425" unicode="&#x425;" 
d="M72 1290h61l379 -594l379 594h61l-409 -635l420 -655h-62l-389 614l-389 -614h-62l420 655z" />
    <glyph glyph-name="uni0426" unicode="&#x426;" horiz-adv-x="1239" 
d="M1014 1290v-1239h164v-348h-52v297h-942v1290h52v-1239h727v1239h51z" />
    <glyph glyph-name="uni0427" unicode="&#x427;" horiz-adv-x="1157" 
d="M973 1290v-1290h-51v573q-43 -41 -99 -71q-47 -29 -113.5 -50.5t-146.5 -21.5q-88 0 -161.5 29.5t-126 83t-82 129.5t-29.5 168v450h51v-450q0 -80 25.5 -146.5t71.5 -114t109.5 -73t141.5 -25.5q80 0 146.5 21.5t113.5 50.5q55 31 99 72v665h51z" />
    <glyph glyph-name="uni0428" unicode="&#x428;" horiz-adv-x="1669" 
d="M236 1290v-1239h573v1239h51v-1239h574v1239h51v-1290h-1301v1290h52z" />
    <glyph glyph-name="uni0429" unicode="&#x429;" horiz-adv-x="1710" 
d="M1485 1290v-1239h164v-348h-52v297h-1413v1290h52v-1239h573v1239h51v-1239h574v1239h51z" />
    <glyph glyph-name="uni042A" unicode="&#x42a;" horiz-adv-x="1198" 
d="M328 0v1239h-328v51h379v-532h328q84 0 155.5 -29t123.5 -80t81 -120.5t29 -149.5t-29 -149.5t-81 -121t-123.5 -80t-155.5 -28.5h-379zM379 707v-656h328q74 0 135 25.5t106 69.5t70.5 103.5t25.5 129.5t-25.5 129t-70.5 103t-106.5 70t-134.5 26h-328z" />
    <glyph glyph-name="uni042B" unicode="&#x42b;" horiz-adv-x="1423" 
d="M1188 1290h51v-1290h-51v1290zM184 0v1290h52v-532h327q84 0 156 -29t124 -80t80.5 -120.5t28.5 -149.5t-28.5 -149.5t-80.5 -121t-124 -80t-156 -28.5h-379zM236 707v-656h327q74 0 135.5 25.5t106.5 69.5t70.5 103.5t25.5 129.5t-25.5 129t-70.5 103t-106.5 70
t-135.5 26h-327z" />
    <glyph glyph-name="uni042C" unicode="&#x42c;" horiz-adv-x="1075" 
d="M184 0v1290h52v-532h348q84 0 155.5 -29t123.5 -80t81 -120.5t29 -149.5t-29 -149.5t-81 -121t-123.5 -80t-155.5 -28.5h-400zM236 707v-656h348q74 0 135 25.5t106 69.5t71 103.5t26 129.5t-26 129t-71 103t-106.5 70t-134.5 26h-348z" />
    <glyph glyph-name="uni042D" unicode="&#x42d;" horiz-adv-x="1310" 
d="M563 676h582q-6 127 -51 232.5t-116 181t-163 117.5t-192 42q-88 0 -161 -27.5t-130.5 -74.5t-99.5 -113.5t-68 -142.5h-51q27 88 72.5 162.5t110 130t146.5 86t181 30.5q113 0 216 -49t183 -136t128 -208t48 -262t-48 -262t-128 -208t-183.5 -136t-215.5 -49
q-98 0 -181.5 30.5t-148 86t-112.5 130t-79 162.5h52q31 -78 74.5 -143.5t102 -112.5t131.5 -74.5t161 -27.5q100 0 193 44t165 122t116 184.5t48 233.5h-582v51z" />
    <glyph glyph-name="uni042E" unicode="&#x42e;" horiz-adv-x="1710" 
d="M1597 645q0 -150 -45 -270.5t-120.5 -206.5t-176 -132t-211.5 -46t-210 46t-173.5 128t-119.5 196.5t-49 253.5h-256v-614h-52v1290h52v-624h256q4 141 49 258.5t119.5 200.5t174 129t209.5 46q111 0 211.5 -46t176 -132t120.5 -206.5t45 -270.5zM1546 645q0 137 -41 250
t-110.5 190.5t-159.5 120.5t-191 43q-100 0 -191 -43t-159.5 -120.5t-109.5 -190.5t-41 -250q0 -139 41 -250.5t109.5 -189.5t159.5 -121t191 -43t190.5 43t160 121t110.5 189.5t41 250.5z" />
    <glyph glyph-name="uni042F" unicode="&#x42f;" horiz-adv-x="1116" 
d="M881 1239h-379q-70 0 -128.5 -23.5t-100.5 -64.5t-65.5 -97.5t-23.5 -121.5q0 -66 23.5 -122t65.5 -97t100.5 -64.5t128.5 -23.5h379v614zM440 584q-66 8 -122 35.5t-97 72.5t-64.5 105.5t-23.5 134.5q0 76 27.5 142.5t77 113.5t117 74.5t147.5 27.5h430v-1290h-51v573
h-389l-338 -573h-62z" />
    <glyph glyph-name="uni0430" unicode="&#x430;" horiz-adv-x="911" 
d="M410 41q66 0 122 24q57 24 101 66q43 43 68 103q26 60 26 135v102h-102q-141 0 -235 -18q-93 -18 -148 -50q-55 -31 -77 -71q-22 -41 -22 -86q0 -86 68 -146q68 -59 199 -59zM461 911q70 0 128 -23q58 -24 100 -67t66 -103t23 -134v-584h-41l-10 184h-10q-27 -55 -70 -98
q-37 -37 -94 -67t-143 -29q-154 0 -236 73q-82 74 -82 183q0 57 26 107t87 88t164 60q102 22 256 21h102v62q0 61 -20 112t-56 87q-35 36 -84 57q-49 20 -106 20q-117 0 -181 -56q-65 -56 -96 -149h-51q23 109 106 183q83 73 222 73z" />
    <glyph glyph-name="uni0431" unicode="&#x431;" horiz-adv-x="993" 
d="M164 584q27 80 74 143q41 53 107.5 98t166.5 45q76 0 146.5 -32.5t125 -91t86 -139.5t31.5 -177t-31.5 -177t-86 -139.5t-125 -91t-146.5 -32.5q-80 0 -154.5 35.5t-131 106.5t-90.5 173.5t-34 237.5q0 197 37 332t122 223t221 136t337 66v-51q-180 -16 -305 -58
t-204 -121t-115.5 -198.5t-40.5 -287.5h10zM512 41q66 0 126 28.5t107.5 81t76 124t28.5 155.5t-28.5 155.5t-76 124t-107.5 81t-126 28.5t-126 -28.5t-107.5 -81t-76 -124t-28.5 -155.5t28.5 -155.5t76 -124t107.5 -81t126 -28.5z" />
    <glyph glyph-name="uni0432" unicode="&#x432;" horiz-adv-x="880" 
d="M594 471q51 -14 92 -43q35 -25 63.5 -69t28.5 -113q0 -49 -20.5 -94.5t-55 -79t-84 -53t-106.5 -19.5h-369v901h349q117 0 186.5 -67.5t69.5 -167.5q0 -53 -25 -91t-53 -61q-35 -27 -76 -43zM195 850v-358h297q92 0 148 52t56 122q0 78 -56 131t-148 53h-297zM195 440
v-389h317q45 0 85 16.5t68.5 43t45 61.5t16.5 74t-16.5 73.5t-45 61.5t-68.5 43t-85 16h-317z" />
    <glyph glyph-name="uni0433" unicode="&#x433;" horiz-adv-x="716" 
d="M696 850h-501v-850h-52v901h553v-51z" />
    <glyph glyph-name="uni0434" unicode="&#x434;" horiz-adv-x="972" 
d="M932 51v-287h-51v236h-840v-236h-51v287h61q33 20 60 55q23 29 44 74t29 107l70 614h524v-850h154zM236 287q-8 -61 -25.5 -106.5t-38.5 -74.5q-23 -35 -49 -55h604v799h-426z" />
    <glyph glyph-name="uni0435" unicode="&#x435;" horiz-adv-x="1003" 
d="M881 215q-18 -39 -52 -79q-33 -40 -77 -73q-45 -33 -103 -53q-57 -20 -127 -20q-88 0 -167 35t-137 96t-92 145t-34 185q0 100 34 184t91 145t134 97q77 35 161 34q80 0 153 -32q73 -33 128 -89t87 -134q32 -77 31 -164q0 -12 -2 -23l-4 -20t-4 -19h-758q8 -88 39 -160
t81 -123t116 -78q66 -28 143 -28q57 0 106 17q48 17 86 43t67 57q30 31 48 57h52zM512 860q-74 0 -137 -29t-113 -79q-49 -51 -80 -121t-39 -150h717q0 80 -29 150t-76 121q-48 51 -111 79q-62 29 -132 29z" />
    <glyph glyph-name="uni0436" unicode="&#x436;" horiz-adv-x="1157" 
d="M604 901v-430l420 430h72l-420 -430l461 -471h-72l-461 471v-471h-51v901h51zM92 0h-72l461 471l-420 430h72l420 -430z" />
    <glyph glyph-name="uni0437" unicode="&#x437;" horiz-adv-x="788" 
d="M502 471q51 -16 92 -47q35 -27 63.5 -70t28.5 -108q0 -109 -79 -182.5t-218 -73.5q-70 0 -128 22.5t-100 61.5t-65.5 89t-23.5 103h51q8 -92 78.5 -158.5t187.5 -66.5t181.5 59.5t64.5 145.5q0 78 -64.5 136t-181.5 58h-92v52h72q123 0 184 53t61 131t-59 131t-176 53
q-49 0 -91 -15.5t-74 -42t-52.5 -59t-28.5 -67.5h-51q4 43 27.5 85t63.5 75.5t92 54t114 20.5q139 0 213 -67.5t74 -167.5q0 -61 -26 -101t-56 -63q-37 -27 -82 -41z" />
    <glyph glyph-name="uni0438" unicode="&#x438;" horiz-adv-x="1003" 
d="M860 901v-901h-51v809l-625 -809h-41v901h52v-809l624 809h41z" />
    <glyph glyph-name="uni0439" unicode="&#x439;" horiz-adv-x="1003" 
d="M502 1147q61 0 108 45t56 98h51q-4 -39 -23 -73q-18 -35 -47 -62t-65 -43q-37 -16 -80 -16t-80 16t-66 43t-47 62t-22 73h51q8 -53 55 -98q48 -45 109 -45zM860 901v-901h-51v809l-625 -809h-41v901h52v-809l624 809h41z" />
    <glyph glyph-name="uni043A" unicode="&#x43a;" horiz-adv-x="808" 
d="M195 471v-471h-52v901h52v-430l481 430h72l-482 -430l522 -471h-71z" />
    <glyph glyph-name="uni043B" unicode="&#x43b;" horiz-adv-x="952" 
d="M809 901v-901h-51v850h-457l-45 -543q-16 -176 -73.5 -246.5t-141.5 -70.5q-12 0 -33 4q-8 2 -18 6v41h51q61 0 105 56.5t59 209.5l51 594h553z" />
    <glyph glyph-name="uni043C" unicode="&#x43c;" horiz-adv-x="1167" 
d="M563 0l-368 809v-809h-52v901h62l379 -829l379 829h61v-901h-51v809l-369 -809h-41z" />
    <glyph glyph-name="uni043D" unicode="&#x43d;" horiz-adv-x="993" 
d="M850 901v-901h-51v430h-604v-430h-52v901h52v-420h604v420h51z" />
    <glyph glyph-name="uni043E" unicode="&#x43e;" 
d="M143 451q0 -88 31 -163t81 -130t117 -86t140 -31q74 0 140 31q67 31 117 86t81 130t31 163t-31 162q-31 75 -81 130t-117 86t-140 31q-74 0 -140 -31q-67 -31 -117 -86t-81 -130q-31 -74 -31 -162zM92 451q0 100 34 184t91 145t134 97q77 35 161 34q84 0 161 -34
q77 -35 134 -97q57 -61 91 -145t34 -184t-34 -185q-34 -84 -91 -145t-134 -96t-161 -35t-161 35t-134 96t-91 145q-34 85 -34 185z" />
    <glyph glyph-name="uni043F" unicode="&#x43f;" horiz-adv-x="993" 
d="M850 901v-901h-51v850h-604v-850h-52v901h707z" />
    <glyph glyph-name="uni0440" unicode="&#x440;" horiz-adv-x="1075" 
d="M143 901h41l11 -235h10q33 70 84 122q43 47 109 85q67 38 165 38q84 0 161 -34q77 -35 134 -97q57 -61 91 -145t34 -184t-34 -185q-34 -84 -91 -145t-134 -96t-161 -35q-96 0 -164 38t-110 84q-43 46 -64 85l-20 39h-10v-564h-52v1229zM932 451q0 88 -31 162
q-31 75 -81 130t-117 86t-140 31q-74 0 -140 -31q-67 -31 -117 -86t-81 -130t-30 -162q0 -88 30 -163q31 -75 81 -130t117 -86t140 -31q74 0 140 31q67 31 117 86t81 130t31 163z" />
    <glyph glyph-name="uni0441" unicode="&#x441;" horiz-adv-x="972" 
d="M512 860q-74 0 -140 -31q-67 -31 -117 -86t-81 -130t-31 -162q0 -88 31 -163t81 -130t117 -86t140 -31q61 0 115 21q53 22 95 56t72 78t46 91h51q-12 -53 -45 -107q-33 -53 -83 -95t-114 -69q-63 -27 -137 -26q-84 0 -161 35t-134 96t-91 145t-34 185q0 100 34 184
t91 145t134 97q77 35 161 34q74 0 137 -26q63 -27 114 -70q50 -43 83 -98t45 -113h-51q-16 49 -46 96t-72 82t-95 57q-54 21 -115 21z" />
    <glyph glyph-name="uni0442" unicode="&#x442;" horiz-adv-x="768" 
d="M41 901h686v-51h-317v-850h-52v850h-317v51z" />
    <glyph glyph-name="uni0443" unicode="&#x443;" horiz-adv-x="880" 
d="M829 901l-419 -1044q-41 -100 -95 -148q-53 -47 -131 -47q-12 0 -32 4q-8 2 -19 6v52q10 -4 19 -7q20 -4 32 -4q61 0 103 33q41 33 71 111l82 204l-389 840h51l359 -778h10l307 778h51z" />
    <glyph glyph-name="uni0444" unicode="&#x444;" horiz-adv-x="1402" 
d="M676 92q-23 -29 -53 -51q-29 -20 -69 -35.5t-93 -15.5q-74 0 -140.5 31.5t-116.5 91t-81 144.5t-31 194q0 106 31 192t81 145.5t116.5 91t140.5 31.5q53 0 93 -16t69 -35q31 -23 53 -51v481h51v-481q20 29 53 51q27 18 68 34.5t94 16.5q74 0 140.5 -31.5t116.5 -91
t81 -145.5t31 -192q0 -109 -31 -194t-81 -144.5t-116.5 -91t-140.5 -31.5q-53 0 -94 15t-68 36q-33 23 -53 51v-420h-51v420zM727 154q20 -33 53 -58q27 -23 68 -39t94 -16q61 0 118.5 27.5t101.5 81t71 129t27 172.5q0 96 -27 171.5t-71 129t-101 81t-119 27.5
q-53 0 -94 -17.5t-68 -39.5q-33 -25 -53 -55v-594zM676 748q-23 31 -53 55q-29 23 -69 40t-93 17q-61 0 -118.5 -27.5t-101.5 -81t-71 -129t-27 -171.5t27 -172t71 -129.5t101 -81t119 -27.5q53 0 93 16.5t69 38.5q31 25 53 58v594z" />
    <glyph glyph-name="uni0445" unicode="&#x445;" horiz-adv-x="819" 
d="M72 901h61l277 -399l276 399h62l-308 -440l328 -461h-61l-297 420l-297 -420h-62l328 461z" />
    <glyph glyph-name="uni0446" unicode="&#x446;" horiz-adv-x="1003" 
d="M963 51v-287h-52v236h-768v901h52v-850h563v850h51v-850h154z" />
    <glyph glyph-name="uni0447" unicode="&#x447;" horiz-adv-x="921" 
d="M778 901v-901h-51v410q-37 -29 -82 -52q-39 -20 -91 -35.5t-114 -15.5q-147 0 -232 85t-85 233v276h51v-276q0 -123 71.5 -195t194.5 -72q61 0 113.5 15.5t91.5 36.5q45 23 82 51v440h51z" />
    <glyph glyph-name="uni0448" unicode="&#x448;" horiz-adv-x="1320" 
d="M1178 901v-901h-1035v901h52v-850h440v850h51v-850h440v850h52z" />
    <glyph glyph-name="uni0449" unicode="&#x449;" horiz-adv-x="1372" 
d="M1331 51v-287h-51v236h-1137v901h52v-850h440v850h51v-850h440v850h52v-850h153z" />
    <glyph glyph-name="uni044A" unicode="&#x44a;" horiz-adv-x="942" 
d="M573 553q61 0 113.5 -21.5t91.5 -59.5t60.5 -88t21.5 -108q0 -57 -21.5 -107t-60.5 -88t-91 -59.5t-114 -21.5h-327v850h-246v51h297v-348h276zM573 51q49 0 92.5 17.5t75 48t50 71.5t18.5 88q0 45 -18.5 86t-50 72t-74.5 49.5t-93 18.5h-276v-451h276z" />
    <glyph glyph-name="uni044B" unicode="&#x44b;" horiz-adv-x="1136" 
d="M942 901h51v-901h-51v901zM471 553q61 0 113.5 -21.5t91.5 -59.5t60.5 -88t21.5 -108q0 -57 -21.5 -107t-60.5 -88t-91.5 -59.5t-113.5 -21.5h-328v901h52v-348h276zM471 51q49 0 92 17.5t75 48t50.5 71.5t18.5 88q0 45 -18.5 86t-50.5 72t-75 49.5t-92 18.5h-276v-451
h276z" />
    <glyph glyph-name="uni044C" unicode="&#x44c;" horiz-adv-x="860" 
d="M492 553q61 0 113 -21.5t91 -59.5t60.5 -88t21.5 -108q0 -57 -21.5 -107t-60.5 -88t-91 -59.5t-113 -21.5h-349v901h52v-348h297zM492 51q49 0 92 17.5t74.5 48t50 71.5t18.5 88q0 45 -18.5 86t-50 72t-74.5 49.5t-92 18.5h-297v-451h297z" />
    <glyph glyph-name="uni044D" unicode="&#x44d;" horiz-adv-x="962" 
d="M410 481h409q-4 80 -34.5 149.5t-81 121t-115 80t-137.5 28.5q-61 0 -114.5 -21.5t-95.5 -56t-73 -82t-45 -96.5h-51q12 57 45 112.5t83 98.5t113.5 69.5t137.5 26.5q84 0 160.5 -34.5t134 -96t91 -145.5t33.5 -184t-33.5 -184.5t-91 -146t-134 -96t-160.5 -34.5
q-74 0 -137.5 26.5t-113.5 68.5t-83 95t-45 107h51q14 -47 45 -91t73 -78t95 -55.5t115 -21.5q74 0 138 28.5t114.5 81t81 124t34.5 155.5h-409v51z" />
    <glyph glyph-name="uni044E" unicode="&#x44e;" horiz-adv-x="1249" 
d="M1157 451q0 -104 -31.5 -189.5t-85 -146t-121 -93t-141.5 -32.5t-140.5 31.5t-118.5 89t-84 138.5t-36 181h-204v-430h-52v901h52v-420h204q4 96 36 175t84 136.5t119 88t140 30.5q74 0 141.5 -32.5t121 -93t85 -145.5t31.5 -189zM451 451q0 -92 27.5 -168t73.5 -129.5
t105.5 -83t120.5 -29.5t119.5 29.5t105 83t75 129t28.5 168.5q0 92 -28.5 167.5t-75 129t-104.5 83t-120 29.5q-61 0 -120.5 -29.5t-105.5 -83t-73.5 -129t-27.5 -167.5z" />
    <glyph glyph-name="uni044F" unicode="&#x44f;" horiz-adv-x="890" 
d="M696 399v451h-307q-49 0 -92 -18.5t-75 -49t-50 -71.5t-18 -86q0 -47 18 -88t50 -72t75 -48.5t92 -17.5h307zM338 358q-47 4 -89 26t-75 57.5t-52.5 82.5t-19.5 101q0 57 21.5 107t60.5 88t91.5 59.5t113.5 21.5h359v-901h-52v348h-307l-246 -348h-61z" />
    <glyph glyph-name="uni0451" unicode="&#x451;" horiz-adv-x="1003" 
d="M881 215q-18 -39 -52 -79q-33 -40 -77 -73q-45 -33 -103 -53q-57 -20 -127 -20q-88 0 -167 35t-137 96t-92 145t-34 185q0 100 34 184t91 145t134 97q77 35 161 34q80 0 153 -32q73 -33 128 -89t87 -134q32 -77 31 -164q0 -12 -2 -23l-4 -20t-4 -19h-758q8 -88 39 -160
t81 -123t116 -78q66 -28 143 -28q57 0 106 17q48 17 86 43t67 57q30 31 48 57h52zM512 860q-74 0 -137 -29t-113 -79q-49 -51 -80 -121t-39 -150h717q0 80 -29 150t-76 121q-48 51 -111 79q-62 29 -132 29zM399 1174q0 -20 -13 -34q-13 -13 -34 -14q-18 0 -31 14
q-13 13 -14 34q0 18 14 31q13 13 31 14q20 0 34 -14q13 -13 13 -31zM696 1174q0 -20 -13 -34q-13 -13 -34 -14q-18 0 -32 14q-13 13 -13 34q0 18 13 31t32 14q20 0 34 -14q13 -13 13 -31z" />
    <glyph glyph-name="uni0452" unicode="&#x452;" horiz-adv-x="1003" 
d="M901 410q0 -104 -26.5 -185.5t-72.5 -139.5t-107.5 -95t-131.5 -51v51q57 14 109.5 48t91.5 85t62.5 122.5t23.5 164.5q0 88 -23.5 156.5t-64.5 115.5t-97.5 71.5t-121.5 24.5q-66 0 -123.5 -23.5t-100.5 -66.5t-68.5 -103.5t-25.5 -133.5v-451h-51v1034h-174v51h174v205
h51v-205h328v-51h-328v-399h11q27 53 69 96q37 37 94.5 67.5t143.5 30.5q76 0 142.5 -28.5t113.5 -81.5t74.5 -131t27.5 -178z" />
    <glyph glyph-name="uni0453" unicode="&#x453;" horiz-adv-x="716" 
d="M522 1311h82l-174 -246h-31zM696 850h-501v-850h-52v901h553v-51z" />
    <glyph glyph-name="uni0454" unicode="&#x454;" horiz-adv-x="972" 
d="M553 430h-410q4 -84 35 -155.5t81 -124t114.5 -81t138.5 -28.5q61 0 114.5 21.5t95.5 55.5t71.5 78t46.5 91h51q-12 -53 -45 -106.5t-83 -95.5t-113.5 -68.5t-137.5 -26.5q-84 0 -161 34.5t-134 96t-91 145.5t-34 185q0 100 34 184t91 145.5t134 96t161 34.5
q74 0 137.5 -26.5t113.5 -69.5t83 -98t45 -113h-51q-16 49 -46 96.5t-72 82t-95.5 56t-114.5 21.5q-74 0 -138.5 -28.5t-114.5 -80t-81 -121t-35 -149.5h410v-51z" />
    <glyph glyph-name="uni0455" unicode="&#x455;" horiz-adv-x="808" 
d="M707 236q0 -49 -21 -95q-20 -45 -59 -79t-93 -53t-124 -19t-128 22q-58 23 -101 62q-42 39 -65 89q-24 50 -24 103h51q8 -92 79 -158q71 -67 188 -67t181 58q65 58 64 137q0 72 -40 110q-40 39 -100 63t-131 38q-71 15 -131 41t-100 68t-40 120q0 45 20 88t57 76t91 52
q53 19 118 19q66 0 120 -21q54 -22 95 -59t65 -85t28 -101h-52q-16 92 -82 154q-66 61 -174 61q-53 0 -97 -15t-75 -42t-47 -60t-16 -67q0 -63 40 -97t100 -56t131 -37t131 -43t101 -75q40 -48 40 -132z" />
    <glyph glyph-name="uni0456" unicode="&#x456;" horiz-adv-x="337" 
d="M143 901h52v-901h-52v901zM215 1174q0 -20 -13.5 -34t-33.5 -14q-18 0 -31.5 13.5t-13.5 34.5q0 18 13.5 31.5t31.5 13.5q20 0 33.5 -13.5t13.5 -31.5z" />
    <glyph glyph-name="uni0457" unicode="&#x457;" horiz-adv-x="337" 
d="M61 1174q0 -20 -13 -34q-13 -13 -34 -14q-18 0 -31 14q-13 13 -14 34q0 18 14 31q13 13 31 14q20 0 34 -14q13 -13 13 -31zM358 1174q0 -20 -13 -34q-13 -13 -34 -14q-18 0 -31 14q-13 13 -14 34q0 18 14 31q13 13 31 14q20 0 34 -14q13 -13 13 -31zM195 0h-52v901h52
v-901z" />
    <glyph glyph-name="uni0458" unicode="&#x458;" horiz-adv-x="337" 
d="M143 901h52v-1003q0 -109 -62.5 -172.5t-163.5 -63.5q-16 0 -28.5 1t-22.5 3t-20 6v52q10 -4 20 -7q10 -2 22.5 -3t28.5 -1q78 0 126 49.5t48 135.5v1003zM215 1174q0 -20 -13.5 -34t-33.5 -14q-18 0 -31.5 13.5t-13.5 34.5q0 18 13.5 31.5t31.5 13.5q20 0 33.5 -13.5
t13.5 -31.5z" />
    <glyph glyph-name="uni0459" unicode="&#x459;" horiz-adv-x="1402" 
d="M1034 553q61 0 113.5 -21.5t91.5 -59.5t60.5 -88t21.5 -108q0 -57 -21.5 -107t-60.5 -88t-91 -59.5t-114 -21.5h-317v850h-416l-45 -543q-16 -176 -73.5 -246.5t-141.5 -70.5q-12 0 -33 4q-8 2 -18 6v41h51q61 0 105 56.5t59 209.5l51 594h512v-348h266zM1034 51
q49 0 92 17.5t75 48t50.5 71.5t18.5 88q0 45 -18.5 86t-50.5 72t-75 49.5t-92 18.5h-266v-451h266z" />
    <glyph glyph-name="uni045A" unicode="&#x45a;" horiz-adv-x="1443" 
d="M1075 532q131 0 209 -74.5t78 -191.5t-78 -191.5t-209 -74.5h-317v481h-563v-481h-52v901h52v-369h563v369h51v-369h266zM1075 51q109 0 172.5 61.5t63.5 153.5t-63.5 153.5t-172.5 61.5h-266v-430h266z" />
    <glyph glyph-name="uni045B" unicode="&#x45b;" horiz-adv-x="1054" 
d="M20 1085h175v205h51v-205h327v-51h-327v-399h10q27 53 70 96q37 37 94 67.5t143 30.5q76 0 142.5 -27.5t113.5 -77.5t75 -119.5t28 -153.5v-451h-52v451q0 74 -23.5 134t-64.5 103t-97 66.5t-122 23.5t-123 -23.5t-100 -66.5t-68.5 -103.5t-25.5 -133.5v-451h-51v1034
h-175v51z" />
    <glyph glyph-name="uni045C" unicode="&#x45c;" horiz-adv-x="808" 
d="M522 1311h82l-174 -246h-31zM195 471v-471h-52v901h52v-430l481 430h72l-482 -430l522 -471h-71z" />
    <glyph glyph-name="uni045E" unicode="&#x45e;" horiz-adv-x="880" 
d="M461 1137q61 0 108 45t56 98h51q-4 -39 -23 -74q-18 -35 -47 -61q-29 -27 -65 -43q-37 -16 -80 -17q-43 0 -80 17q-37 16 -66 43t-47 61q-18 35 -22 74h51q8 -53 55 -98q48 -45 109 -45zM829 901l-419 -1044q-41 -100 -95 -148q-53 -47 -131 -47q-12 0 -32 4q-8 2 -19 6
v52q10 -4 19 -7q20 -4 32 -4q61 0 103 33q41 33 71 111l82 204l-389 840h51l359 -778h10l307 778h51z" />
    <glyph glyph-name="uni045F" unicode="&#x45f;" horiz-adv-x="993" 
d="M471 0h-328v901h52v-850h604v850h51v-901h-328v-236h-51v236z" />
    <glyph glyph-name="uni0490" unicode="&#x490;" horiz-adv-x="901" 
d="M236 1239v-1239h-52v1290h645v226h52v-277h-645z" />
    <glyph glyph-name="uni0491" unicode="&#x491;" horiz-adv-x="716" 
d="M696 850h-501v-850h-52v901h502v205h51v-256z" />
    <glyph glyph-name="uni1E9E" unicode="&#x1e9e;" horiz-adv-x="1187" 
d="M707 717q84 0 153 -28q70 -28 120 -75t78 -113q28 -67 27 -143q0 -78 -27 -143q-28 -66 -78 -113t-120 -74q-70 -28 -153 -28h-154v51h154q72 0 132 24t103 64q43 41 68 98q25 56 24 121q0 66 -23 122q-24 56 -67 98q-43 41 -103 64q-60 24 -134 24h-103v51l348 522h-430
q-61 0 -115 -24t-95 -65q-40 -42 -63 -100q-24 -58 -24 -128v-922h-51v922q0 80 27 147q27 68 73 117q47 49 111 77q63 28 137 27h492v-51l-348 -522h41z" />
    <glyph glyph-name="endash" unicode="&#x2013;" horiz-adv-x="921" 
d="M860 502h-799v51h799v-51z" />
    <glyph glyph-name="emdash" unicode="&#x2014;" horiz-adv-x="1423" 
d="M1362 502h-1301v51h1301v-51z" />
    <glyph glyph-name="quoteleft" unicode="&#x2018;" horiz-adv-x="337" 
d="M215 1071q0 -20 -13.5 -33.5t-31.5 -13.5q-20 0 -33.5 14.5t-13.5 42.5q0 43 16.5 81t38.5 67q25 33 58 61l10 -10q-20 -23 -37 -47q-14 -23 -25.5 -52.5t-13.5 -64.5q18 0 31.5 -13.5t13.5 -31.5z" />
    <glyph glyph-name="quoteright" unicode="&#x2019;" horiz-adv-x="337" 
d="M123 1243q0 20 13.5 33.5t31.5 13.5q20 0 33.5 -14t13.5 -43q0 -45 -17.5 -82t-39.5 -66q-25 -33 -56 -61l-10 10q20 23 37 47q14 23 25.5 52.5t13.5 64.5q-18 0 -31.5 13.5t-13.5 31.5z" />
    <glyph glyph-name="quotesinglbase" unicode="&#x201a;" horiz-adv-x="337" 
d="M123 45q0 20 13.5 33.5t31.5 13.5q20 0 33.5 -14.5t13.5 -42.5q0 -45 -17.5 -82t-39.5 -66q-25 -33 -56 -61l-10 10q20 23 37 47q14 23 25.5 52.5t13.5 64.5q-18 0 -31.5 13.5t-13.5 31.5z" />
    <glyph glyph-name="quotedblleft" unicode="&#x201c;" horiz-adv-x="542" 
d="M420 1071q0 -20 -13.5 -33.5t-31.5 -13.5q-20 0 -33.5 14.5t-13.5 42.5q0 43 16 81t39 67q25 33 57 61l11 -10q-20 -23 -37 -47q-14 -23 -25.5 -52.5t-13.5 -64.5q18 0 31.5 -13.5t13.5 -31.5zM215 1071q0 -20 -13.5 -33.5t-31.5 -13.5q-20 0 -33.5 14.5t-13.5 42.5
q0 43 16.5 81t38.5 67q25 33 58 61l10 -10q-20 -23 -37 -47q-14 -23 -25.5 -52.5t-13.5 -64.5q18 0 31.5 -13.5t13.5 -31.5z" />
    <glyph glyph-name="quotedblright" unicode="&#x201d;" horiz-adv-x="542" 
d="M123 1243q0 20 13.5 33.5t31.5 13.5q20 0 33.5 -14t13.5 -43q0 -45 -17.5 -82t-39.5 -66q-25 -33 -56 -61l-10 10q20 23 37 47q14 23 25.5 52.5t13.5 64.5q-18 0 -31.5 13.5t-13.5 31.5zM328 1243q0 20 13 33.5t32 13.5q20 0 33.5 -14t13.5 -43q0 -45 -17.5 -82
t-40.5 -66q-25 -33 -55 -61l-10 10q20 23 37 47q14 23 25.5 52.5t13.5 64.5q-18 0 -31.5 13.5t-13.5 31.5z" />
    <glyph glyph-name="quotedblbase" unicode="&#x201e;" horiz-adv-x="542" 
d="M123 45q0 20 13.5 33.5t31.5 13.5q20 0 33.5 -14.5t13.5 -42.5q0 -45 -17.5 -82t-39.5 -66q-25 -33 -56 -61l-10 10q20 23 37 47q14 23 25.5 52.5t13.5 64.5q-18 0 -31.5 13.5t-13.5 31.5zM328 45q0 20 13 33.5t32 13.5q20 0 33.5 -14.5t13.5 -42.5q0 -45 -17.5 -82
t-40.5 -66q-25 -33 -55 -61l-10 10q20 23 37 47q14 23 25.5 52.5t13.5 64.5q-18 0 -31.5 13.5t-13.5 31.5z" />
    <glyph glyph-name="dagger" unicode="&#x2020;" horiz-adv-x="747" 
d="M348 1014v276h51v-276h246v-51h-246v-594h-51v594h-246v51h246z" />
    <glyph glyph-name="daggerdbl" unicode="&#x2021;" horiz-adv-x="747" 
d="M102 645v51h246v267h-246v51h246v276h51v-276h246v-51h-246v-267h246v-51h-246v-276h-51v276h-246z" />
    <glyph glyph-name="bullet" unicode="&#x2022;" horiz-adv-x="696" 
d="M451 553q0 -47 -32 -74.5t-71 -27.5t-70.5 27.5t-31.5 74.5t31.5 74.5t70.5 27.5t71 -27.5t32 -74.5z" />
    <glyph glyph-name="ellipsis" unicode="&#x2026;" horiz-adv-x="911" 
d="M215 45q0 -18 -13.5 -31.5t-33.5 -13.5q-18 0 -31.5 13.5t-13.5 31.5q0 20 13.5 33.5t31.5 13.5q20 0 33.5 -13.5t13.5 -33.5zM502 45q0 -18 -13.5 -31.5t-33.5 -13.5q-18 0 -31.5 13.5t-13.5 31.5q0 20 13 33.5t32 13.5q20 0 33.5 -13.5t13.5 -33.5zM788 45
q0 -18 -13 -31.5t-34 -13.5q-18 0 -31.5 13.5t-13.5 31.5q0 20 13.5 33.5t31.5 13.5q20 0 33.5 -13.5t13.5 -33.5z" />
    <glyph glyph-name="perthousand" unicode="&#x2030;" horiz-adv-x="1832" 
d="M266 0h-61l778 1290h61zM1106 256q0 39 -14.5 76t-41 65.5t-61.5 46t-78 17.5t-77.5 -17.5t-61.5 -46t-41 -65.5t-14 -76t14 -76t41 -65.5t61.5 -46t77.5 -17.5t78 17.5t61.5 46t41 65.5t14.5 76zM1157 256q0 -53 -19.5 -100t-53 -82t-78.5 -54.5t-95 -19.5
q-49 0 -94 19.5t-78.5 54.5t-53 82t-19.5 100t19.5 100t53 82t78.5 54.5t94 19.5t94.5 -19.5t79 -54.5t53 -82t19.5 -100zM133 1034q0 -39 14.5 -75.5t41 -65.5t61.5 -46.5t78 -17.5t77.5 17.5t61.5 46.5t41 65.5t14 75.5t-14 76t-41 65.5t-61.5 46t-77.5 17.5t-78 -17.5
t-61.5 -46t-41 -65.5t-14.5 -76zM82 1034q0 53 19.5 100.5t53 82t79 54t94.5 19.5t94 -19.5t79 -54t53 -82t19 -100.5t-19 -100t-53 -82t-79 -54.5t-94 -19.5t-94.5 19.5t-79 54.5t-53 82t-19.5 100zM1700 256q0 39 -14.5 76t-41 65.5t-61.5 46t-78 17.5t-77.5 -17.5
t-61.5 -46t-41 -65.5t-14 -76t14 -76t41 -65.5t61.5 -46t77.5 -17.5t78 17.5t61.5 46t41 65.5t14.5 76zM1751 256q0 -53 -19.5 -100t-53 -82t-79 -54.5t-94.5 -19.5t-94 19.5t-79 54.5t-53 82t-19 100t19 100t53 82t79 54.5t94 19.5t94.5 -19.5t79 -54.5t53 -82t19.5 -100z
" />
    <glyph glyph-name="guilsinglleft" unicode="&#x2039;" horiz-adv-x="440" 
d="M164 461l215 -307h-62l-215 307l215 307h62z" />
    <glyph glyph-name="guilsinglright" unicode="&#x203a;" horiz-adv-x="440" 
d="M61 768h62l215 -307l-215 -307h-62l215 307z" />
    <glyph glyph-name="fraction" unicode="&#x2044;" horiz-adv-x="184" 
d="M-266 0h-62l779 1290h61z" />
    <glyph glyph-name="uni2070" unicode="&#x2070;" horiz-adv-x="573" 
d="M287 1434q-70 0 -122 -67t-52 -189q0 -123 52 -189.5t122 -66.5t122 66.5t52 189.5t-52 189.5t-122 66.5zM287 870q-92 0 -159 80t-67 228q0 147 67 227t159 80t158.5 -80t66.5 -227t-66.5 -227.5t-158.5 -80.5z" />
    <glyph glyph-name="uni2074" unicode="&#x2074;" horiz-adv-x="481" 
d="M328 1065h82v-51h-82v-133h-52v133h-276v51l266 410h62v-410zM276 1065v348l-225 -348h225z" />
    <glyph glyph-name="uni2075" unicode="&#x2075;" horiz-adv-x="491" 
d="M256 1260q78 0 131 -54.5t53 -140.5t-54 -140.5t-140 -54.5t-136.5 47.5t-58.5 116.5h51q6 -47 44 -79.5t100 -32.5q61 0 102 41t41 102t-41 102t-102 41q-35 0 -59.5 -12t-41.5 -29q-20 -18 -32 -41h-52l39 349h310v-52h-267l-20 -215q14 14 35 25q16 10 41.5 18.5
t56.5 8.5z" />
    <glyph glyph-name="uni2076" unicode="&#x2076;" horiz-adv-x="512" 
d="M256 870q-86 0 -140.5 54.5t-54.5 140.5q0 35 9.5 65.5t21.5 55.5q12 29 31 53l153 236h62l-164 -236q8 4 23 10q10 4 28.5 7.5t40.5 3.5q78 0 131.5 -54.5t53.5 -140.5t-54.5 -140.5t-140.5 -54.5zM113 1065q0 -61 41 -102t102 -41t102 41t41 102t-41 102t-102 41
t-102 -41t-41 -102z" />
    <glyph glyph-name="uni2077" unicode="&#x2077;" horiz-adv-x="419" 
d="M72 1475h358v-50l-256 -544h-51l256 542h-307v52z" />
    <glyph glyph-name="uni2078" unicode="&#x2078;" horiz-adv-x="532" 
d="M266 1434q-53 0 -88 -33t-35 -80q0 -39 35 -70.5t88 -31.5t88 31.5t35 70.5q0 47 -35 80t-88 33zM266 1167q-61 0 -102 -37.5t-41 -85.5q0 -47 41 -84.5t102 -37.5t102.5 37.5t41.5 84.5t-41.5 85t-102.5 38zM266 1485q78 0 126 -47t48 -117q0 -39 -17 -62.5t-40 -37.5
q-25 -16 -55 -23q37 -6 65 -27q25 -16 46.5 -46.5t21.5 -80.5q0 -70 -54.5 -122t-140.5 -52t-140 52.5t-54 121.5q0 49 20.5 80t44.5 47q29 20 68 27q-33 6 -58 23q-23 14 -39 37.5t-16 62.5q0 70 48 117t126 47z" />
    <glyph glyph-name="uni2079" unicode="&#x2079;" horiz-adv-x="512" 
d="M256 1485q86 0 140.5 -54.5t54.5 -140.5q0 -35 -10.5 -65.5t-20.5 -55.5q-14 -29 -31 -53l-153 -235h-62l164 235q-10 -6 -23 -10q-27 -10 -69 -10q-78 0 -131.5 54t-53.5 140t54.5 140.5t140.5 54.5zM399 1290q0 61 -41 102.5t-102 41.5t-102 -41t-41 -103
q0 -61 41 -102t102 -41t102 41t41 102z" />
    <glyph glyph-name="uni2080" unicode="&#x2080;" horiz-adv-x="573" 
d="M287 369q-70 0 -122 -67t-52 -189q0 -123 52 -190t122 -66q70 0 122 66q52 67 52 190t-52 189q-52 67 -122 67zM287 -195q-92 0 -159 80t-67 228q0 147 67 227t159 80t158 -80q67 -80 67 -227t-67 -228q-66 -80 -158 -80z" />
    <glyph glyph-name="uni2081" unicode="&#x2081;" horiz-adv-x="358" 
d="M195 410h41v0v-594h-52v532l-143 -92l-21 41z" />
    <glyph glyph-name="uni2082" unicode="&#x2082;" horiz-adv-x="501" 
d="M123 -133h307v-51h-369v51l236 237q23 25 41 50q16 23 29 48q12 26 12 54q0 47 -35 80t-88 33t-89 -35t-44 -88h-51q8 78 57 126t127 48t126 -47t48 -117q0 -35 -16 -67t-35 -58q-23 -31 -51 -57z" />
    <glyph glyph-name="uni2083" unicode="&#x2083;" horiz-adv-x="522" 
d="M317 133q37 -6 66 -27q25 -16 46 -47q22 -31 22 -79q0 -70 -55 -122q-54 -52 -140 -53q-86 0 -136 49q-50 48 -59 126h52q8 -53 45 -89q37 -35 98 -34q61 0 102 38t41 85t-41 85t-102 37h-61v52h61q53 0 88 31q35 32 35 71q0 47 -35 80t-88 33t-89 -35t-44 -88h-51
q8 78 57 126t127 48t126 -47t48 -117q0 -39 -17 -62q-17 -24 -40 -38q-25 -17 -56 -23z" />
    <glyph glyph-name="uni2084" unicode="&#x2084;" horiz-adv-x="481" 
d="M328 0h82v-51h-82v-133h-52v133h-276v51l266 410h62v-410zM276 0v348l-225 -348h225z" />
    <glyph glyph-name="uni2085" unicode="&#x2085;" horiz-adv-x="491" 
d="M256 195q78 0 131 -55q53 -54 53 -140t-54 -140t-140 -55q-86 0 -136 48q-50 47 -59 116h51q6 -47 44 -80t100 -32q61 0 102 41t41 102t-41 102t-102 41q-35 0 -60 -12t-41 -29q-20 -18 -32 -41h-52l39 349h310v-52h-267l-20 -215q14 14 35 25q16 10 42 18q25 9 56 9z
" />
    <glyph glyph-name="uni2086" unicode="&#x2086;" horiz-adv-x="512" 
d="M256 -195q-86 0 -140 55q-54 54 -55 140q0 35 10 66q9 31 21 55q12 29 31 53l153 236h62l-164 -236q8 4 23 10q10 4 28 7t41 4q78 0 131 -55q53 -54 54 -140q0 -86 -55 -140q-54 -55 -140 -55zM113 0q0 -61 41 -102t102 -41t102 41t41 102t-41 102t-102 41t-102 -41
t-41 -102z" />
    <glyph glyph-name="uni2087" unicode="&#x2087;" horiz-adv-x="419" 
d="M72 410h358v-50l-256 -544h-51l256 542h-307v52z" />
    <glyph glyph-name="uni2088" unicode="&#x2088;" horiz-adv-x="532" 
d="M266 369q-53 0 -88 -33t-35 -80q0 -39 35 -71t88 -31q53 0 88 31q35 32 35 71q0 47 -35 80t-88 33zM266 102q-61 0 -102 -37q-41 -38 -41 -85t41 -85t102 -38t103 38q41 38 41 85t-41 85q-42 37 -103 37zM266 420q78 0 126 -47t48 -117q0 -39 -17 -62q-17 -24 -40 -38
q-25 -16 -55 -23q37 -6 65 -27q25 -16 46 -47q22 -31 22 -79q0 -70 -54 -122t-141 -53q-86 0 -140 53q-54 52 -54 122q0 49 20 79q20 31 45 47q29 20 68 27q-33 6 -58 23q-23 14 -38 38q-16 24 -17 62q0 70 48 117t126 47z" />
    <glyph glyph-name="uni2089" unicode="&#x2089;" horiz-adv-x="512" 
d="M256 420q86 0 140 -54t55 -141q0 -35 -11 -65q-10 -31 -20 -56q-14 -29 -31 -53l-153 -235h-62l164 235q-10 -6 -23 -10q-27 -10 -69 -10q-78 0 -131 54t-54 140q0 86 55 141q54 54 140 54zM399 225q0 61 -41 103q-41 41 -102 41t-102 -41t-41 -103q0 -61 41 -102
t102 -41t102 41t41 102z" />
    <glyph glyph-name="Euro" unicode="&#x20ac;" horiz-adv-x="1423" 
d="M225 635q0 18 1 36.5t3 33.5l4 32h-151v51h160q16 96 64 188.5t120 164t167 115.5t206 44q100 0 182 -30.5t146.5 -88t110.5 -136t73 -175.5h-51q-27 84 -69 154t-100.5 120t-131 77.5t-160.5 27.5q-100 0 -185.5 -40t-151 -105.5t-109.5 -148.5t-60 -167h475v-51h-483
l-4 -32q-2 -14 -3.5 -33t-1.5 -37q0 -23 1.5 -43.5t3.5 -36.5q2 -18 6 -33h481v-51h-471q23 -84 70 -162t112.5 -137t146.5 -95t173 -36q176 0 292.5 104.5t178.5 274.5h51q-31 -96 -79 -175t-113.5 -136.5t-147.5 -88t-182 -30.5q-104 0 -194.5 39t-163 105.5t-123 153.5
t-72.5 183h-164v51h154q-4 14 -7 33q-2 16 -3 36.5t-1 43.5z" />
    <glyph glyph-name="uni20B4" unicode="&#x20b4;" 
d="M942 809v-51h-860v51h584q37 18 65 45q25 23 46.5 59.5t21.5 90.5q0 49 -20.5 94t-57.5 78.5t-90 53t-119 19.5q-131 0 -205 -68.5t-82 -176.5h-51q8 131 96 213.5t242 82.5q76 0 138.5 -23.5t107.5 -63t68.5 -94t23.5 -115.5q0 -47 -16.5 -83t-34.5 -61q-23 -29 -51 -51
h194zM82 481v51h860v-51h-584q-39 -18 -67 -45q-25 -23 -45.5 -59.5t-20.5 -89.5q0 -49 20.5 -94.5t57.5 -79t90 -53t119 -19.5q131 0 205 68.5t82 177.5h51q-8 -131 -96 -214t-242 -83q-78 0 -139.5 23.5t-106.5 63.5t-68.5 94t-23.5 116q0 47 15.5 83t35.5 60q23 29 51 51
h-194z" />
    <glyph glyph-name="uni20BD" unicode="&#x20bd;" horiz-adv-x="1095" 
d="M625 625q70 0 128 23.5t100 64.5t65.5 97t23.5 122t-23.5 122t-65.5 97t-100.5 64.5t-127.5 23.5h-349v-614h349zM993 932q0 -78 -27.5 -143.5t-76.5 -112.5t-116.5 -75t-147.5 -28h-349v-215h461v-51h-461v-307h-51v307h-184v51h184v215h-184v52h184v665h400
q80 0 147.5 -27.5t116.5 -74.5t76.5 -113.5t27.5 -142.5z" />
    <glyph glyph-name="uni2116" unicode="&#x2116;" horiz-adv-x="1781" 
d="M1198 133h471v-51h-471v51zM1044 1290v-1290h-40l-768 1188v-1188h-52v1290h41l768 -1188v1188h51zM1628 553q0 39 -14.5 76t-41 65.5t-61 46t-77.5 17.5t-78 -17.5t-61.5 -46t-41 -65.5t-14.5 -76t14.5 -76t41 -65.5t61.5 -46t78 -17.5t77.5 17.5t61 46t41 65.5t14.5 76
zM1679 553q0 -53 -19.5 -100t-53 -82t-78.5 -54.5t-94 -19.5t-94.5 19.5t-79 54.5t-53 82t-19.5 100t19.5 100t53 82t78.5 54.5t95 19.5q49 0 94 -19.5t78.5 -54.5t53 -82t19.5 -100z" />
    <glyph glyph-name="trademark" unicode="&#x2122;" horiz-adv-x="1103" 
d="M420 1239h-174v-471h-51v471h-175v51h400v-51zM737 922l-174 258v-412h-51v522h31l205 -297l204 297h29v-522h-49v412l-174 -258h-21z" />
    <glyph glyph-name="arrowleft" unicode="&#x2190;" horiz-adv-x="2048" 
d="M768 1116v-61l-399 -400h1392v-41h-1392l399 -399v-61l-481 481z" />
    <glyph glyph-name="arrowup" unicode="&#x2191;" horiz-adv-x="2048" 
d="M1505 911h-61l-400 400v-1393h-40v1393l-400 -400h-61l481 482z" />
    <glyph glyph-name="arrowright" unicode="&#x2192;" horiz-adv-x="2048" 
d="M1761 635l-481 -481v61l399 399h-1392v41h1392l-399 400v61z" />
    <glyph glyph-name="arrowdown" unicode="&#x2193;" horiz-adv-x="2048" 
d="M1024 -82l-481 481h61l400 -399v1393h40v-1393l400 399h61z" />
    <glyph glyph-name="arrowboth" unicode="&#x2194;" horiz-adv-x="2048" 
d="M1761 635l-481 -481v61l399 399h-1310l399 -399v-61l-481 481l481 481v-61l-399 -400h1310l-399 400v61z" />
    <glyph glyph-name="arrowupdn" unicode="&#x2195;" horiz-adv-x="2048" 
d="M1024 1393l481 -482h-61l-400 400v-1311l400 399h61l-481 -481l-481 481h61l400 -399v1311l-400 -400h-61z" />
    <glyph glyph-name="uni2196" unicode="&#x2196;" horiz-adv-x="2048" 
d="M1556 133l-30 -31l-994 994v-564l-40 -40v675h675l-41 -41h-563z" />
    <glyph glyph-name="uni2197" unicode="&#x2197;" horiz-adv-x="2048" 
d="M1485 1126h-563l-41 41h675v-675l-40 40v564l-994 -994l-30 31z" />
    <glyph glyph-name="uni2198" unicode="&#x2198;" horiz-adv-x="2048" 
d="M492 1137l30 30l994 -993v563l40 41v-676h-675l41 41h563z" />
    <glyph glyph-name="uni2199" unicode="&#x2199;" horiz-adv-x="2048" 
d="M563 143h563l41 -41h-675v676l40 -41v-563l994 993l30 -30z" />
    <glyph glyph-name="minus" unicode="&#x2212;" horiz-adv-x="890" 
d="M829 502h-768v51h768v-51z" />
    <glyph glyph-name="approxequal" unicode="&#x2248;" horiz-adv-x="901" 
d="M246 410q-61 0 -103.5 -42t-50.5 -112h-51q8 92 63.5 148.5t141.5 56.5q57 0 109.5 -25.5t102.5 -56.5t99 -56.5t98 -25.5q61 0 103.5 42t50.5 112h51q-8 -92 -63.5 -148.5t-141.5 -56.5q-57 0 -109 25.5t-102.5 56t-99.5 56.5t-98 26zM655 676q61 0 103.5 42t50.5 111
h51q-8 -92 -63.5 -148t-141.5 -56q-57 0 -109 25.5t-102.5 56t-99.5 56t-98 25.5q-61 0 -103.5 -41.5t-50.5 -111.5h-51q8 92 63.5 148.5t141.5 56.5q57 0 109.5 -26t102.5 -56.5t99 -56t98 -25.5z" />
    <glyph glyph-name="notequal" unicode="&#x2260;" horiz-adv-x="890" 
d="M61 358h287l144 328h-431v51h451l102 246h52l-103 -246h266v-51h-286l-144 -328h430v-51h-450l-103 -246h-51l103 246h-267v51z" />
    <glyph glyph-name="lessequal" unicode="&#x2264;" horiz-adv-x="870" 
d="M143 553l645 -307v-51l-706 337v41l706 338v-51zM82 51h706v-51h-706v51z" />
    <glyph glyph-name="greaterequal" unicode="&#x2265;" horiz-adv-x="870" 
d="M82 860v51l706 -338v-41l-706 -337v51l645 307zM788 0h-706v51h706v-51z" />
    <glyph glyph-name="uni2460" unicode="&#x2460;" horiz-adv-x="2048" 
d="M205 655q0 168 64.5 317.5t176 261.5t260 176.5t318.5 64.5q168 0 317.5 -64.5t261 -175.5t176 -260.5t64.5 -319.5t-64.5 -318.5t-176 -260t-261 -176t-317.5 -64.5q-170 0 -318.5 64.5t-260 176t-176 260t-64.5 318.5zM256 655q0 -158 61.5 -297t166 -243.5t243.5 -166
t297 -61.5t297 61.5t243.5 166t166 244t61.5 296.5q0 160 -61.5 299.5t-166 244t-243.5 164.5t-297 60t-297 -61.5t-243.5 -165.5t-166 -243.5t-61.5 -297.5zM1106 1065v-819h-51v758l-164 -113l-31 41l195 133h51z" />
    <glyph glyph-name="uni2461" unicode="&#x2461;" horiz-adv-x="2048" 
d="M1270 297v-51h-492v41l328 348q29 27 51 59q18 29 34.5 66t16.5 80q0 78 -53 131t-131 53q-86 0 -141.5 -53t-63.5 -131h-51q8 100 77.5 167.5t178.5 67.5q49 0 92 -18.5t75 -50t50.5 -74.5t18.5 -92q0 -51 -19.5 -94.5t-42.5 -77.5q-27 -39 -61 -74l-287 -297h420z
M205 655q0 168 64.5 317.5t176 261.5t260 176.5t318.5 64.5q168 0 317.5 -64.5t261 -175.5t176 -260.5t64.5 -319.5t-64.5 -318.5t-176 -260t-261 -176t-317.5 -64.5q-170 0 -318.5 64.5t-260 176t-176 260t-64.5 318.5zM256 655q0 -158 61.5 -297t166 -243.5t243.5 -166
t297 -61.5t297 61.5t243.5 166t166 244t61.5 296.5q0 160 -61.5 299.5t-166 244t-243.5 164.5t-297 60t-297 -61.5t-243.5 -165.5t-166 -243.5t-61.5 -297.5z" />
    <glyph glyph-name="uni2462" unicode="&#x2462;" horiz-adv-x="2048" 
d="M1147 666q39 -14 72 -41q27 -23 49 -63t22 -101q0 -92 -71.5 -158.5t-194.5 -66.5q-117 0 -183.5 61t-82.5 154h49q16 -70 70.5 -117t146.5 -47q100 0 157.5 52t57.5 122q0 78 -57.5 131t-157.5 53h-61v51h61q92 0 143.5 47.5t51.5 116.5q0 70 -51.5 117t-143.5 47
q-39 0 -72.5 -14.5t-59.5 -37t-42 -52t-21 -60.5h-51q4 43 24.5 82t52.5 68.5t76 47t93 17.5q117 0 181.5 -61.5t64.5 -153.5q0 -53 -19.5 -88t-42.5 -57q-27 -25 -61 -39v-10zM205 655q0 168 64.5 317.5t176 261.5t260 176.5t318.5 64.5q168 0 317.5 -64.5t261 -175.5
t176 -260.5t64.5 -319.5t-64.5 -318.5t-176 -260t-261 -176t-317.5 -64.5q-170 0 -318.5 64.5t-260 176t-176 260t-64.5 318.5zM256 655q0 -158 61.5 -297t166 -243.5t243.5 -166t297 -61.5t297 61.5t243.5 166t166 244t61.5 296.5q0 160 -61.5 299.5t-166 244t-243.5 164.5
t-297 60t-297 -61.5t-243.5 -165.5t-166 -243.5t-61.5 -297.5z" />
    <glyph glyph-name="uni2463" unicode="&#x2463;" horiz-adv-x="2048" 
d="M1219 451h-93v-205h-51v205h-399v41l399 573h51v-563h93v-51zM1075 502v481l-338 -481h338zM205 655q0 168 64.5 317.5t176 261.5t260 176.5t318.5 64.5q168 0 317.5 -64.5t261 -175.5t176 -260.5t64.5 -319.5t-64.5 -318.5t-176 -260t-261 -176t-317.5 -64.5
q-170 0 -318.5 64.5t-260 176t-176 260t-64.5 318.5zM256 655q0 -158 61.5 -297t166 -243.5t243.5 -166t297 -61.5t297 61.5t243.5 166t166 244t61.5 296.5q0 160 -61.5 299.5t-166 244t-243.5 164.5t-297 60t-297 -61.5t-243.5 -165.5t-166 -243.5t-61.5 -297.5z" />
    <glyph glyph-name="uni2464" unicode="&#x2464;" horiz-adv-x="2048" 
d="M1024 768q117 0 191.5 -75t74.5 -191q0 -117 -74.5 -191.5t-191.5 -74.5t-183.5 62t-82.5 163h51q16 -78 69.5 -126t145.5 -48t153.5 61.5t61.5 153.5t-61.5 153.5t-153.5 61.5q-53 0 -88 -17.5t-57 -40.5q-25 -25 -39 -55h-52l52 461h399v-51h-358l-31 -307q20 16 45 30
q23 10 54.5 20.5t74.5 10.5zM205 655q0 168 64.5 317.5t176 261.5t260 176.5t318.5 64.5q168 0 317.5 -64.5t261 -175.5t176 -260.5t64.5 -319.5t-64.5 -318.5t-176 -260t-261 -176t-317.5 -64.5q-170 0 -318.5 64.5t-260 176t-176 260t-64.5 318.5zM256 655
q0 -158 61.5 -297t166 -243.5t243.5 -166t297 -61.5t297 61.5t243.5 166t166 244t61.5 296.5q0 160 -61.5 299.5t-166 244t-243.5 164.5t-297 60t-297 -61.5t-243.5 -165.5t-166 -243.5t-61.5 -297.5z" />
    <glyph glyph-name="uni2465" unicode="&#x2465;" horiz-adv-x="2048" 
d="M1024 236q-53 0 -101.5 21.5t-85 59t-58 88t-21.5 107.5q0 39 9 72.5t21 58.5q12 29 31 53l246 369h61l-204 -297q12 4 28 10q14 4 32.5 7t41.5 3q53 0 101.5 -21.5t85 -59t58 -88t21.5 -107.5t-21.5 -107.5t-58 -88t-85 -59t-101.5 -21.5zM809 512q0 -47 17.5 -88
t47 -71.5t68.5 -48t82 -17.5t82 17.5t68.5 48t47 71.5t17.5 88q0 45 -17.5 86t-47 71.5t-68.5 49t-82 18.5t-82 -18.5t-68.5 -49t-47 -71.5t-17.5 -86zM205 655q0 168 64.5 317.5t176 261.5t260 176.5t318.5 64.5q168 0 317.5 -64.5t261 -175.5t176 -260.5t64.5 -319.5
t-64.5 -318.5t-176 -260t-261 -176t-317.5 -64.5q-170 0 -318.5 64.5t-260 176t-176 260t-64.5 318.5zM256 655q0 -158 61.5 -297t166 -243.5t243.5 -166t297 -61.5t297 61.5t243.5 166t166 244t61.5 296.5q0 160 -61.5 299.5t-166 244t-243.5 164.5t-297 60t-297 -61.5
t-243.5 -165.5t-166 -243.5t-61.5 -297.5z" />
    <glyph glyph-name="uni2466" unicode="&#x2466;" horiz-adv-x="2048" 
d="M1280 1065v-41l-358 -778h-52l359 768h-430v51h481zM205 655q0 168 64.5 317.5t176 261.5t260 176.5t318.5 64.5q168 0 317.5 -64.5t261 -175.5t176 -260.5t64.5 -319.5t-64.5 -318.5t-176 -260t-261 -176t-317.5 -64.5q-170 0 -318.5 64.5t-260 176t-176 260
t-64.5 318.5zM256 655q0 -158 61.5 -297t166 -243.5t243.5 -166t297 -61.5t297 61.5t243.5 166t166 244t61.5 296.5q0 160 -61.5 299.5t-166 244t-243.5 164.5t-297 60t-297 -61.5t-243.5 -165.5t-166 -243.5t-61.5 -297.5z" />
    <glyph glyph-name="uni2467" unicode="&#x2467;" horiz-adv-x="2048" 
d="M1024 236q-61 0 -110.5 19t-84 52t-53 75t-18.5 89q0 57 23.5 96t52.5 64q35 29 77 45q-35 18 -61 43q-23 23 -42.5 56.5t-19.5 84.5q0 43 16.5 82t47.5 68.5t75 47t97 17.5t97 -17.5t75 -47t47.5 -68.5t16.5 -82q0 -51 -19.5 -85t-42.5 -56q-27 -25 -61 -43
q41 -16 75 -45q29 -25 53.5 -64t24.5 -96q0 -47 -18.5 -89t-53 -75t-84 -52t-110.5 -19zM1024 655q-49 0 -89 -15t-67.5 -42t-43 -59.5t-15.5 -67.5t15.5 -67.5t43 -59.5t67.5 -42t89 -15t89 15t67.5 42t43 59.5t15.5 67.5t-15.5 67.5t-43 59.5t-67.5 42t-89 15zM1024 1024
q-86 0 -135 -51t-49 -113q0 -61 49 -112.5t135 -51.5t135 51.5t49 112.5t-49 112.5t-135 51.5zM205 655q0 168 64.5 317.5t176 261.5t260 176.5t318.5 64.5q168 0 317.5 -64.5t261 -175.5t176 -260.5t64.5 -319.5t-64.5 -318.5t-176 -260t-261 -176t-317.5 -64.5
q-170 0 -318.5 64.5t-260 176t-176 260t-64.5 318.5zM256 655q0 -158 61.5 -297t166 -243.5t243.5 -166t297 -61.5t297 61.5t243.5 166t166 244t61.5 296.5q0 160 -61.5 299.5t-166 244t-243.5 164.5t-297 60t-297 -61.5t-243.5 -165.5t-166 -243.5t-61.5 -297.5z" />
    <glyph glyph-name="uni2468" unicode="&#x2468;" horiz-adv-x="2048" 
d="M1024 1075q53 0 101.5 -21.5t85 -59.5t58 -88t21.5 -107q0 -39 -10 -73t-20 -58q-14 -29 -31 -54l-246 -368h-61l204 297q-12 -6 -28 -11q-31 -10 -74 -10q-53 0 -101.5 21.5t-85 59.5t-58 88t-21.5 108q0 57 21.5 107t58 88t85 59.5t101.5 21.5zM1239 799q0 45 -17.5 86
t-47 71.5t-68.5 49t-82 18.5t-82 -18.5t-68.5 -49t-47 -71.5t-17.5 -86q0 -47 17.5 -88t47 -72t68.5 -48.5t82 -17.5t82 17.5t68.5 48.5t47 72t17.5 88zM1843 655q0 -170 -64.5 -318.5t-176 -260t-261 -176t-317.5 -64.5q-170 0 -318.5 64.5t-260 175t-176 260t-64.5 319.5
q0 168 64.5 317.5t176 261.5t260 176.5t318.5 64.5q168 0 317.5 -64.5t261 -176.5t176 -261.5t64.5 -317.5zM1792 655q0 158 -61.5 297.5t-166 243.5t-243.5 165.5t-297 61.5t-297 -61.5t-243.5 -165.5t-166 -243.5t-61.5 -297.5q0 -160 61.5 -299t166 -243.5t243.5 -165
t297 -60.5t297 61.5t243.5 166t166 243.5t61.5 297z" />
    <glyph glyph-name="uni24EA" unicode="&#x24ea;" horiz-adv-x="2048" 
d="M758 655q0 -88 22.5 -156.5t60.5 -115.5t86 -71.5t97 -24.5t97 24.5t86 71.5t60.5 115.5t22.5 156.5t-22.5 157t-60.5 116t-86 71.5t-97 24.5t-97 -24.5t-86 -71.5t-60.5 -116t-22.5 -157zM1341 655q0 -100 -26.5 -178t-70.5 -132t-101.5 -81.5t-118.5 -27.5t-118.5 27.5
t-101.5 81.5t-70.5 132t-26.5 178t26.5 178t70.5 131.5t101.5 82t118.5 28.5t118.5 -28.5t101.5 -82t70.5 -131.5t26.5 -178zM205 655q0 168 64.5 317.5t176 261.5t260 176.5t318.5 64.5q168 0 317.5 -64.5t261 -175.5t176 -260.5t64.5 -319.5t-64.5 -318.5t-176 -260
t-261 -176t-317.5 -64.5q-170 0 -318.5 64.5t-260 176t-176 260t-64.5 318.5zM256 655q0 -158 61.5 -297t166 -243.5t243.5 -166t297 -61.5t297 61.5t243.5 166t166 244t61.5 296.5q0 160 -61.5 299.5t-166 244t-243.5 164.5t-297 60t-297 -61.5t-243.5 -165.5t-166 -243.5
t-61.5 -297.5z" />
    <glyph glyph-name="uni24FF" unicode="&#x24ff;" horiz-adv-x="2048" 
d="M758 655q0 88 22.5 157t60.5 116t86 71.5t97 24.5t97 -24.5t86 -71.5t60.5 -116t22.5 -157t-22.5 -156.5t-60.5 -115.5t-86 -71.5t-97 -24.5t-97 24.5t-86 71.5t-60.5 115.5t-22.5 156.5zM1341 655q0 100 -26.5 178t-70.5 131.5t-101.5 82t-118.5 28.5t-118.5 -28.5
t-101.5 -82t-70.5 -131t-26.5 -178.5q0 -100 26.5 -178t70.5 -132t101.5 -81.5t118.5 -27.5t118.5 27.5t101.5 81.5t70.5 132t26.5 178zM205 655q0 168 64.5 317.5t176 261.5t260 176.5t318.5 64.5q168 0 317.5 -64.5t261 -175.5t176 -260.5t64.5 -319.5t-64.5 -318.5
t-176 -260t-261 -176t-317.5 -64.5q-170 0 -318.5 64.5t-260 176t-176 260t-64.5 318.5z" />
    <glyph glyph-name="uni2776" unicode="&#x2776;" horiz-adv-x="2048" 
d="M205 655q0 168 64.5 317.5t176 261.5t260 176.5t318.5 64.5q168 0 317.5 -64.5t261 -175.5t176 -260.5t64.5 -319.5t-64.5 -318.5t-176 -260t-261 -176t-317.5 -64.5q-170 0 -318.5 64.5t-260 176t-176 260t-64.5 318.5zM1055 1065l-195 -133l31 -41l164 113v-758h51v819
h-51z" />
    <glyph glyph-name="uni2777" unicode="&#x2777;" horiz-adv-x="2048" 
d="M850 297l287 297q35 35 61 74q23 35 42.5 77.5t19.5 94.5q0 49 -18.5 92t-50.5 74.5t-75 50t-92 18.5q-109 0 -178.5 -67.5t-77.5 -167.5h51q8 78 63.5 131t141.5 53q78 0 131 -53t53 -131q0 -43 -16 -80t-35 -66q-23 -33 -51 -59l-328 -348v-41h492v51h-420zM205 655
q0 168 64.5 317.5t176 261.5t260 176.5t318.5 64.5q168 0 317.5 -64.5t261 -175.5t176 -260.5t64.5 -319.5t-64.5 -318.5t-176 -260t-261 -176t-317.5 -64.5q-170 0 -318.5 64.5t-260 176t-176 260t-64.5 318.5z" />
    <glyph glyph-name="uni2778" unicode="&#x2778;" horiz-adv-x="2048" 
d="M1147 676q35 14 61 39q23 23 42.5 57.5t19.5 87.5q0 92 -64.5 153.5t-181.5 61.5q-49 0 -93 -17.5t-76 -47t-52.5 -68.5t-24.5 -82h51q4 31 20.5 60.5t42.5 52t59.5 37t72.5 14.5q92 0 143.5 -47t51.5 -117t-51.5 -117t-143.5 -47h-61v-51h61q100 0 157.5 -53t57.5 -131
q0 -70 -57.5 -122t-157.5 -52q-92 0 -146.5 47t-70.5 117h-49q16 -92 82.5 -153.5t183.5 -61.5q123 0 194.5 66.5t71.5 158.5q0 61 -22.5 101t-48.5 63q-33 27 -72 41v10zM205 655q0 168 64.5 317.5t176 261.5t260 176.5t318.5 64.5q168 0 317.5 -64.5t261 -175.5
t176 -260.5t64.5 -319.5t-64.5 -318.5t-176 -260t-261 -176t-317.5 -64.5q-170 0 -318.5 64.5t-260 176t-176 260t-64.5 318.5z" />
    <glyph glyph-name="uni2779" unicode="&#x2779;" horiz-adv-x="2048" 
d="M1219 502h-93v563h-51l-399 -573v-41h399v-205h51v205h93v51zM737 502l338 481v-481h-338zM205 655q0 168 64.5 317.5t176 261.5t260 176.5t318.5 64.5q168 0 317.5 -64.5t261 -175.5t176 -260.5t64.5 -319.5t-64.5 -318.5t-176 -260t-261 -176t-317.5 -64.5
q-170 0 -318.5 64.5t-260 176t-176 260t-64.5 318.5z" />
    <glyph glyph-name="uni277A" unicode="&#x277a;" horiz-adv-x="2048" 
d="M1024 768q-43 0 -74.5 -10t-54.5 -21q-25 -14 -45 -30l31 307h358v51h-399l-52 -461h52q14 31 39 55q23 23 57.5 40.5t87.5 17.5q92 0 153.5 -61.5t61.5 -153.5t-61.5 -153.5t-153.5 -61.5t-145.5 48t-69.5 126h-51q16 -100 82.5 -162.5t183.5 -62.5t191.5 74.5
t74.5 191.5t-74.5 191.5t-191.5 74.5zM205 655q0 168 64.5 317.5t176 261.5t260 176.5t318.5 64.5q168 0 317.5 -64.5t261 -175.5t176 -260.5t64.5 -319.5t-64.5 -318.5t-176 -260t-261 -176t-317.5 -64.5q-170 0 -318.5 64.5t-260 176t-176 260t-64.5 318.5z" />
    <glyph glyph-name="uni277B" unicode="&#x277b;" horiz-adv-x="2048" 
d="M1024 236q53 0 101.5 21.5t85 59t58 88t21.5 107.5t-21.5 107.5t-58 88t-85 59t-101.5 21.5q-23 0 -41 -3t-33 -7q-16 -6 -28 -10l204 297h-61l-246 -369q-18 -25 -31 -53q-12 -25 -21 -58.5t-9 -72.5q0 -57 21.5 -107.5t58 -88t85 -59t101.5 -21.5zM809 512
q0 45 17.5 86t47 71.5t68.5 49t82 18.5t82 -18.5t68.5 -49t47 -71.5t17.5 -86q0 -47 -17.5 -88t-47 -71.5t-68.5 -48t-82 -17.5t-82 17.5t-68.5 48t-47 71.5t-17.5 88zM205 655q0 168 64.5 317.5t176 261.5t260 176.5t318.5 64.5q168 0 317.5 -64.5t261 -175.5t176 -260.5
t64.5 -319.5t-64.5 -318.5t-176 -260t-261 -176t-317.5 -64.5q-170 0 -318.5 64.5t-260 176t-176 260t-64.5 318.5z" />
    <glyph glyph-name="uni277C" unicode="&#x277c;" horiz-adv-x="2048" 
d="M799 1065v-51h430l-359 -768h52l358 778v41h-481zM205 655q0 168 64.5 317.5t176 261.5t260 176.5t318.5 64.5q168 0 317.5 -64.5t261 -175.5t176 -260.5t64.5 -319.5t-64.5 -318.5t-176 -260t-261 -176t-317.5 -64.5q-170 0 -318.5 64.5t-260 176t-176 260t-64.5 318.5z
" />
    <glyph glyph-name="uni277D" unicode="&#x277d;" horiz-adv-x="2048" 
d="M1024 236q61 0 110.5 19t84 52t53 75t18.5 89q0 57 -24.5 96t-53.5 64q-35 29 -75 45q35 18 61 43q23 23 42.5 56.5t19.5 84.5q0 43 -16.5 82t-47.5 68.5t-75 47t-97 17.5t-97 -17.5t-75 -47t-47.5 -68.5t-16.5 -82q0 -51 19.5 -85t42.5 -56q27 -25 61 -43
q-43 -16 -77 -45q-29 -25 -52.5 -64t-23.5 -96q0 -47 18.5 -89t53 -75t84 -52t110.5 -19zM1024 655q49 0 89 -15t67.5 -42t43 -59.5t15.5 -67.5t-15.5 -67.5t-43 -59.5t-67.5 -42t-89 -15t-89 15t-67.5 42t-43 59.5t-15.5 67.5t15.5 67.5t43 59.5t67.5 42t89 15zM1024 1024
q86 0 135 -51t49 -113q0 -61 -49 -112.5t-135 -51.5t-135 51.5t-49 112.5t49 112.5t135 51.5zM205 655q0 168 64.5 317.5t176 261.5t260 176.5t318.5 64.5q168 0 317.5 -64.5t261 -175.5t176 -260.5t64.5 -319.5t-64.5 -318.5t-176 -260t-261 -176t-317.5 -64.5
q-170 0 -318.5 64.5t-260 176t-176 260t-64.5 318.5z" />
    <glyph glyph-name="uni277E" unicode="&#x277e;" horiz-adv-x="2048" 
d="M1024 1075q-53 0 -101.5 -21.5t-85 -59.5t-58 -88t-21.5 -107t21.5 -107.5t58 -88.5t85 -59.5t101.5 -21.5q43 0 74 10q16 4 28 11l-204 -297h61l246 368q16 25 31 54q10 25 20 58.5t10 72.5q0 57 -21.5 107t-58 88t-85 59.5t-101.5 21.5zM1239 799q0 -47 -17.5 -88
t-47 -72t-68.5 -48.5t-82 -17.5t-82 17.5t-68.5 48.5t-47 72t-17.5 88q0 45 17.5 86t47 71.5t68.5 49t82 18.5t82 -18.5t68.5 -49t47 -71.5t17.5 -86zM1843 655q0 -170 -64.5 -318.5t-176 -260t-261 -176t-317.5 -64.5q-170 0 -318.5 64.5t-260 175t-176 260t-64.5 319.5
q0 168 64.5 317.5t176 261.5t260 176.5t318.5 64.5q168 0 317.5 -64.5t261 -176.5t176 -261.5t64.5 -317.5z" />
    <glyph glyph-name="uniF6C3" unicode="&#xf6c3;" horiz-adv-x="245" 
d="M92 -211q0 20 13.5 33.5t31.5 13.5q20 0 33.5 -14.5t13.5 -42.5q0 -45 -17 -82t-40 -66q-25 -33 -55 -61l-11 10q20 23 37 47q14 23 25.5 52.5t13.5 64.5q-18 0 -31.5 13.5t-13.5 31.5z" />
    <glyph glyph-name="uniF6D1" unicode="&#xf6d1;" horiz-adv-x="573" 
d="M287 1485q70 0 118 46t56 107h51q-8 -84 -70.5 -144t-154.5 -60t-154.5 60t-71.5 144h52q8 -61 56 -107t118 -46z" />
    <glyph glyph-name="uniF6D4" unicode="&#xf6d4;" horiz-adv-x="552" 
d="M276 1126q61 0 108.5 45.5t55.5 98.5h52q-4 -39 -22.5 -74t-47.5 -61.5t-66 -43t-80 -16.5t-79.5 16.5t-65.5 43t-47 61.5t-23 74h52q8 -53 55 -98.5t108 -45.5z" />
    <glyph glyph-name="uniF730" unicode="&#xf730;" horiz-adv-x="1146" 
d="M963 451q0 88 -31 162.5t-83 130t-124 86t-152 30.5t-151.5 -30.5t-123.5 -86t-83 -130t-31 -162.5t31 -163t83 -130.5t124 -86t151 -30.5q80 0 152 30.5t124 86t83 130.5t31 163zM1014 451q0 -100 -34 -184.5t-94.5 -146t-140 -96t-172.5 -34.5q-92 0 -171.5 34.5
t-140 96t-94.5 145.5t-34 185q0 100 34 184t94.5 145.5t140 96t171.5 34.5t172 -34.5t140.5 -96t94.5 -145.5t34 -184z" />
    <glyph glyph-name="uniF731" unicode="&#xf731;" horiz-adv-x="604" 
d="M420 901v-901h-51v840l-277 -195l-31 41l308 215h51z" />
    <glyph glyph-name="uniF732" unicode="&#xf732;" horiz-adv-x="942" 
d="M819 51v-51h-696v51l461 318q78 53 126 113.5t48 152.5t-67.5 158.5t-198.5 66.5q-61 0 -112.5 -19.5t-92.5 -53t-70 -78.5t-43 -95h-51q14 61 47 115.5t80 94.5t107.5 63.5t134.5 23.5q76 0 135 -21.5t100 -59t61.5 -88t20.5 -107.5q0 -53 -16.5 -98t-43 -83t-61.5 -69
t-74 -57l-409 -277h614z" />
    <glyph glyph-name="uniF733" unicode="&#xf733;" horiz-adv-x="1003" 
d="M164 901h655v-41l-420 -512q10 2 23 4q10 2 24.5 4t34.5 2q92 0 168 -28.5t129 -79.5t83 -121t30 -149q0 -80 -30 -150t-83 -121t-129 -79.5t-168 -28.5q-84 0 -152.5 25.5t-119.5 69.5t-83 103.5t-44 128.5h51q12 -57 40 -107t73 -88t103.5 -59.5t131.5 -21.5
q80 0 146.5 25.5t113.5 69.5t73 103.5t26 129.5t-26 129t-73 103t-113.5 69.5t-146.5 25.5q-31 0 -56.5 -3t-41.5 -7q-20 -6 -35 -10l-31 41l431 522h-584v51z" />
    <glyph glyph-name="uniF734" unicode="&#xf734;" horiz-adv-x="942" 
d="M881 0h-154v-389h-51v389h-635v51l625 850h61v-850h154v-51zM676 51v778l-574 -778h574z" />
    <glyph glyph-name="uniF735" unicode="&#xf735;" 
d="M532 440q80 0 153 -32q73 -33 128 -90q55 -56 87 -133t32 -165t-33 -164q-33 -77 -88 -134q-55 -56 -130 -89t-159 -32q-84 0 -152 25q-69 26 -120 70t-83 103t-44 129h51q12 -57 40 -107t73 -88t103 -60t132 -21q74 0 138 29q65 29 114 78q49 50 78 117t29 144
q0 76 -29 144t-77 118t-110 78q-62 29 -133 29q-92 0 -154 -32t-102 -70q-45 -45 -71 -103h-51l82 717h604v-51h-564l-61 -563q31 41 78 75q41 29 99 54q58 24 140 24z" />
    <glyph glyph-name="uniF736" unicode="&#xf736;" horiz-adv-x="1013" 
d="M512 -10q-84 0 -159 33t-130 89t-88 133t-33 165q0 66 20 126q19 60 42 107q27 55 61 105l359 542h61l-369 -542q27 23 64 40q31 16 75 29q44 12 97 12q84 0 159 -32q75 -33 130 -89t88 -134q33 -77 33 -164q0 -88 -33 -165t-88 -133t-130 -89t-159 -33zM154 410
q0 -78 28 -145q29 -67 78 -117t114 -78q65 -29 138 -29q74 0 138 29q65 29 114 78q49 50 78 117t28 145q0 76 -28 143q-29 68 -78 118t-114 79t-138 28q-74 0 -138 -28q-65 -29 -114 -79t-78 -118q-28 -67 -28 -143z" />
    <glyph glyph-name="uniF737" unicode="&#xf737;" horiz-adv-x="849" 
d="M799 901v-51l-566 -1239h-59l574 1239h-687v51h738z" />
    <glyph glyph-name="uniF738" unicode="&#xf738;" 
d="M512 -10q-88 0 -162 28q-74 29 -126 78t-82 114t-29 138q0 104 45 170t98 103q63 43 143 65q-66 18 -118 55q-45 33 -81 92q-36 58 -36 150q0 66 25 123q26 57 72 100t110 69q63 26 141 25q76 0 140 -25q65 -26 111 -69t72 -100t25 -123q0 -92 -37 -150t-82 -92
q-53 -37 -116 -55q80 -23 143 -65q53 -37 98 -103t45 -170q0 -74 -29 -138q-30 -65 -82 -114t-126 -78q-74 -28 -162 -28zM512 655q-78 0 -141 -24q-63 -25 -110 -68q-46 -43 -72 -98t-25 -117q0 -61 25 -117q26 -55 72 -98t110 -67q63 -25 141 -25q76 0 140 25
q65 25 111 67q46 43 72 98t25 117q0 61 -25 117q-26 55 -72 98t-111 68q-64 24 -140 24zM512 1249q-66 0 -120 -21q-54 -22 -94 -59t-61 -85q-22 -48 -22 -101q0 -57 22 -107t61 -89q40 -38 94 -59q54 -22 120 -21q66 0 120 21q54 22 94 59q40 38 61 89q22 50 22 107
q0 53 -22 101t-61 85q-40 37 -94 59q-54 21 -120 21z" />
    <glyph glyph-name="uniF739" unicode="&#xf739;" horiz-adv-x="1013" 
d="M502 911q84 0 158 -32q75 -33 131 -89q55 -56 88 -134q33 -77 32 -164q0 -66 -19 -126t-42 -108q-27 -55 -62 -104l-358 -543h-61l368 543q-27 -23 -63 -41q-31 -16 -75 -29q-44 -12 -97 -12q-84 0 -159 32q-75 33 -130 90q-55 56 -88 133t-33 165t33 164q33 77 88 134
q55 56 130 89q75 32 159 32zM860 492q0 76 -29 143q-29 68 -77 118q-49 50 -114 78q-65 29 -138 29q-74 0 -138 -29q-65 -29 -114 -78q-49 -50 -78 -118t-29 -143q0 -78 29 -145t78 -117t114 -78q65 -29 138 -29q74 0 138 29q65 29 114 78q49 50 77 117q29 67 29 145z" />
    <glyph glyph-name="uniFB06" unicode="&#xfb06;" horiz-adv-x="1413" 
d="M707 236q0 -49 -20.5 -94.5t-59.5 -79t-93.5 -53t-123.5 -19.5q-70 0 -128.5 22.5t-100.5 61.5t-65.5 89t-23.5 103h51q8 -92 79 -158.5t188 -66.5t181 58.5t64 136.5q0 72 -40 110.5t-100 62t-131 39t-131 41t-100 67.5t-40 120q0 45 20.5 88t57 75.5t90 52t118.5 19.5
q23 0 41.5 -3t32.5 -7q16 -6 29 -10q-23 25 -41 55q-16 27 -28.5 61.5t-12.5 77.5q0 61 23.5 115.5t65.5 94.5t100.5 63.5t127.5 23.5q154 0 251 -102t97 -287v-92h236v-51h-236v-625q0 -86 48.5 -135t126.5 -49q16 0 28 1t23 3q10 2 20 6v-51q-10 -4 -20 -6t-22.5 -3
t-28.5 -1q-100 0 -163 63.5t-63 171.5v625h-184v51h92q92 0 92 92q0 162 -83 250t-214 88q-57 0 -106 -19.5t-84 -53t-55.5 -78.5t-20.5 -95q0 -66 34 -114.5t76 -97t79.5 -101.5t46.5 -127h-52q-16 92 -81.5 153.5t-174.5 61.5q-53 0 -97 -15.5t-74.5 -42t-47 -59
t-16.5 -67.5q0 -63 40 -97t100.5 -55.5t131 -37t131 -43t100.5 -75.5t40 -132z" />
    <glyph glyph-name="lslash.salt" horiz-adv-x="481" 
d="M20 512l175 113v665h51v-635l174 113v-51l-174 -113v-399q0 -164 143 -164q16 0 28.5 1t22.5 3t21 6v-51q-10 -4 -21 -6q-10 -2 -22 -3t-29 -1q-92 0 -143 53t-51 162v368l-175 -112v51z" />
    <glyph glyph-name="glyph484" horiz-adv-x="1187" 
d="M707 717q84 0 153.5 -27.5t119.5 -75t77.5 -114t27.5 -142.5q0 -78 -27.5 -143t-77.5 -112.5t-119.5 -75t-153.5 -27.5h-154v51h154q72 0 132 23.5t103 64.5t67.5 97.5t24.5 121.5q0 66 -23.5 122.5t-66.5 97t-103.5 64.5t-133.5 24h-103v51l348 522h-430
q-61 0 -115.5 -23.5t-94.5 -65.5t-63.5 -100.5t-23.5 -127.5v-922h-51v922q0 80 26.5 147.5t74 116.5t111 76.5t136.5 27.5h492v-51l-348 -522h41z" />
    <glyph glyph-name="a.salt" horiz-adv-x="1075" 
d="M932 0h-41l-10 236h-11l-20 -39q-21 -39 -64 -85t-110.5 -84t-163.5 -38q-84 0 -161 34.5t-134 96t-91 145.5t-34 185q0 100 34 184t91 145.5t134 96t161 34.5q96 0 163.5 -37.5t110.5 -85.5q51 -53 84 -122h11l10 235h41v-901zM143 451q0 -88 31 -163t81 -130.5
t116.5 -86t140.5 -30.5t140.5 30.5t116.5 86t81 130t31 163.5q0 88 -31 162.5t-81 130t-116.5 86t-140.5 30.5t-140.5 -30.5t-116.5 -86t-81 -130t-31 -162.5z" />
    <glyph glyph-name="uni0443.salt" horiz-adv-x="880" 
d="M829 901l-491 -1229h-51l153 389l-389 840h51l359 -778h10l307 778h51z" />
    <glyph glyph-name="l.salt" horiz-adv-x="440" 
d="M205 205q0 -164 143 -164q16 0 28.5 1t22.5 3t21 6v-51q-10 -4 -21 -6q-10 -2 -22 -3t-29 -1q-92 0 -143 53t-51 162v1085h51v-1085z" />
    <glyph glyph-name="y.salt" horiz-adv-x="1013" 
d="M502 20q-78 0 -143.5 28t-112.5 78t-75 119.5t-28 153.5v502h52v-502q0 -74 23.5 -134t64.5 -103t97 -66.5t122 -23.5t123 23.5t100 66.5t68.5 103.5t25.5 133.5v502h51v-901q0 -74 -27.5 -137.5t-74.5 -110.5t-113.5 -73.5t-142.5 -26.5q-74 0 -133.5 21.5t-104.5 59.5
t-75.5 88t-44.5 107h51q39 -100 111.5 -162.5t195.5 -62.5q66 0 122 23.5t97 63.5t64.5 94.5t23.5 115.5v215h-10q-27 -55 -70 -98q-37 -37 -94 -67t-143 -30z" />
    <glyph glyph-name="I.salt" horiz-adv-x="624" 
d="M82 1239v51h461v-51h-205v-1188h205v-51h-461v51h205v1188h-205z" />
    <glyph glyph-name="c_t.dlig" horiz-adv-x="1546" 
d="M512 860q-74 0 -140.5 -30.5t-116.5 -86t-81 -130t-31 -162.5t31 -163t81 -130.5t116.5 -86t140.5 -30.5q61 0 114.5 21.5t95.5 55.5t71.5 78t46.5 91h51q-12 -53 -45 -106.5t-83 -95.5t-113.5 -68.5t-137.5 -26.5q-84 0 -161 34.5t-134 96t-91 145.5t-34 185
q0 100 34 184t91 145.5t134 96t161 34.5q27 0 49.5 -5t38.5 -11l35 -14q-23 23 -41 55q-16 27 -28.5 64.5t-12.5 84.5q0 61 23.5 115.5t65.5 94.5t100.5 63.5t127.5 23.5q154 0 251.5 -102t97.5 -287v-92h235v-51h-235v-625q0 -86 48 -135t126 -49q16 0 28.5 1t22.5 3t20 6
v-51q-10 -4 -20 -6t-22.5 -3t-28.5 -1q-100 0 -163 63.5t-63 171.5v625h-184v51h92q92 0 92 92q0 162 -83 250t-214 88q-57 0 -106 -19.5t-84 -53t-55.5 -78.5t-20.5 -95q0 -74 33 -122t79 -96t95 -107.5t80 -155.5h-51q-16 49 -46 96.5t-72 82t-95.5 56t-114.5 21.5z" />
    <glyph glyph-name="r_f.dlig" horiz-adv-x="983" 
d="M666 901v164q0 109 62.5 172t162.5 63q16 0 28.5 -2t22.5 -4t21 -4v-51q-10 2 -21 4q-10 2 -22.5 4t-28.5 2q-78 0 -126 -49t-48 -135v-164h235v-51h-235v-850h-51v850h-174q-57 0 -110.5 -23.5t-95.5 -66.5t-66.5 -103.5t-24.5 -134.5v-522h-52v901h41l11 -194h10
q25 53 65 96q35 37 89.5 67.5t132.5 30.5h174z" />
    <glyph glyph-name="r_t.dlig" horiz-adv-x="1044" 
d="M666 850h-174q-57 0 -110.5 -23.5t-95.5 -66.5t-66.5 -103.5t-24.5 -134.5v-522h-52v901h41l11 -194h10q25 53 65 96q35 37 89.5 67.5t132.5 30.5h81q92 0 93 92v174h51v-266h235v-51h-235v-625q0 -86 48 -135t126 -49q16 0 28.5 1t22.5 3t21 6v-51q-10 -4 -21 -6
q-10 -2 -22.5 -3t-28.5 -1q-100 0 -162.5 63.5t-62.5 171.5v625z" />
    <glyph glyph-name="uni0430.salt" horiz-adv-x="1075" 
d="M932 0h-41l-10 236h-11l-20 -39q-20 -39 -64 -85q-43 -46 -110 -84q-68 -38 -164 -38q-84 0 -161 35t-134 96t-91 145t-34 185q0 100 34 184t91 145t134 97q77 35 161 34q96 0 164 -38t110 -85q51 -53 84 -122h11l10 235h41v-901zM143 451q0 -88 31 -163t81 -130t117 -86
t140 -31q74 0 140 31q67 31 117 86t81 130t31 163t-31 162q-31 75 -81 130t-117 86t-140 31q-74 0 -140 -31q-67 -31 -117 -86t-81 -130q-31 -74 -31 -162z" />
    <glyph glyph-name="uni045E.salt" horiz-adv-x="880" 
d="M461 1137q61 0 108 45t56 98h51q-4 -39 -23 -74q-18 -35 -47 -61q-29 -27 -65 -43q-37 -16 -80 -17q-43 0 -80 17q-37 16 -66 43t-47 61q-18 35 -22 74h51q8 -53 55 -98q48 -45 109 -45zM829 901l-491 -1229h-51l153 389l-389 840h51l359 -778h10l307 778h51z" />
    <glyph glyph-name="agrave.salt" horiz-adv-x="1075" 
d="M573 1075h-30l-174 246h82zM932 0h-41l-10 236h-11l-20 -39q-20 -39 -64 -85q-43 -46 -110 -84q-68 -38 -164 -38q-84 0 -161 35t-134 96t-91 145t-34 185q0 100 34 184t91 145t134 97q77 35 161 34q96 0 164 -38t110 -85q51 -53 84 -122h11l10 235h41v-901zM143 451
q0 -88 31 -163t81 -130t117 -86t140 -31q74 0 140 31q67 31 117 86t81 130t31 163t-31 162q-31 75 -81 130t-117 86t-140 31q-74 0 -140 -31q-67 -31 -117 -86t-81 -130q-31 -74 -31 -162z" />
    <glyph glyph-name="aacute.salt" horiz-adv-x="1075" 
d="M645 1321h82l-174 -246h-31zM932 0h-41l-10 236h-11l-20 -39q-20 -39 -64 -85q-43 -46 -110 -84q-68 -38 -164 -38q-84 0 -161 35t-134 96t-91 145t-34 185q0 100 34 184t91 145t134 97q77 35 161 34q96 0 164 -38t110 -85q51 -53 84 -122h11l10 235h41v-901zM143 451
q0 -88 31 -163t81 -130t117 -86t140 -31q74 0 140 31q67 31 117 86t81 130t31 163t-31 162q-31 75 -81 130t-117 86t-140 31q-74 0 -140 -31q-67 -31 -117 -86t-81 -130q-31 -74 -31 -162z" />
    <glyph glyph-name="abreve.salt" horiz-adv-x="1075" 
d="M543 1116q61 0 108 45t56 99h51q-4 -39 -23 -74q-18 -35 -47 -62t-65 -43q-37 -16 -80 -16t-80 16t-66 43t-47 62t-22 74h51q8 -53 55 -99q48 -45 109 -45zM932 0h-41l-10 236h-11l-20 -39q-20 -39 -64 -85q-43 -46 -110 -84q-68 -38 -164 -38q-84 0 -161 35t-134 96
t-91 145t-34 185q0 100 34 184t91 145t134 97q77 35 161 34q96 0 164 -38t110 -85q51 -53 84 -122h11l10 235h41v-901zM143 451q0 -88 31 -163t81 -130t117 -86t140 -31q74 0 140 31q67 31 117 86t81 130t31 163t-31 162q-31 75 -81 130t-117 86t-140 31q-74 0 -140 -31
q-67 -31 -117 -86t-81 -130q-31 -74 -31 -162z" />
    <glyph glyph-name="acircumflex.salt" horiz-adv-x="1075" 
d="M522 1300h41l205 -225h-61l-164 185l-164 -185h-62zM932 0h-41l-10 236h-11l-20 -39q-20 -39 -64 -85q-43 -46 -110 -84q-68 -38 -164 -38q-84 0 -161 35t-134 96t-91 145t-34 185q0 100 34 184t91 145t134 97q77 35 161 34q96 0 164 -38t110 -85q51 -53 84 -122h11
l10 235h41v-901zM143 451q0 -88 31 -163t81 -130t117 -86t140 -31q74 0 140 31q67 31 117 86t81 130t31 163t-31 162q-31 75 -81 130t-117 86t-140 31q-74 0 -140 -31q-67 -31 -117 -86t-81 -130q-31 -74 -31 -162z" />
    <glyph glyph-name="adieresis.salt" horiz-adv-x="1075" 
d="M440 1174q0 -20 -13 -34q-13 -13 -34 -14q-18 0 -32 14q-13 13 -13 34q0 18 13 31t32 14q20 0 34 -14q13 -13 13 -31zM737 1174q0 -20 -13 -34q-13 -13 -34 -14q-18 0 -32 14q-13 13 -13 34q0 18 13 31t32 14q20 0 34 -14q13 -13 13 -31zM932 0h-41l-10 236h-11l-20 -39
q-20 -39 -64 -85q-43 -46 -110 -84q-68 -38 -164 -38q-84 0 -161 35t-134 96t-91 145t-34 185q0 100 34 184t91 145t134 97q77 35 161 34q96 0 164 -38t110 -85q51 -53 84 -122h11l10 235h41v-901zM143 451q0 -88 31 -163t81 -130t117 -86t140 -31q74 0 140 31q67 31 117 86
t81 130t31 163t-31 162q-31 75 -81 130t-117 86t-140 31q-74 0 -140 -31q-67 -31 -117 -86t-81 -130q-31 -74 -31 -162z" />
    <glyph glyph-name="amacron.salt" horiz-adv-x="1075" 
d="M778 1147h-471v51h471v-51zM932 0h-41l-10 236h-11l-20 -39q-20 -39 -64 -85q-43 -46 -110 -84q-68 -38 -164 -38q-84 0 -161 35t-134 96t-91 145t-34 185q0 100 34 184t91 145t134 97q77 35 161 34q96 0 164 -38t110 -85q51 -53 84 -122h11l10 235h41v-901zM143 451
q0 -88 31 -163t81 -130t117 -86t140 -31q74 0 140 31q67 31 117 86t81 130t31 163t-31 162q-31 75 -81 130t-117 86t-140 31q-74 0 -140 -31q-67 -31 -117 -86t-81 -130q-31 -74 -31 -162z" />
    <glyph glyph-name="aogonek.salt" horiz-adv-x="1075" 
d="M881 236h-11l-20 -39q-21 -39 -64 -85t-110.5 -84t-163.5 -38q-84 0 -161 34.5t-134 96t-91 145.5t-34 185q0 100 34 184t91 145.5t134 96t161 34.5q96 0 163.5 -37.5t110.5 -85.5q51 -53 84 -122h11l10 235h41v-901q-27 -25 -47 -53q-16 -25 -30.5 -55.5t-14.5 -65.5
q0 -47 29.5 -74.5t82.5 -27.5q10 0 21.5 1t21.5 3t19 6v-51q-8 -4 -19 -7q-10 -2 -21 -3t-22 -1q-78 0 -121 42t-43 112q0 35 15.5 65.5t36.5 55.5q23 29 51 53zM143 451q0 -88 31 -163t81 -130.5t116.5 -86t140.5 -30.5t140.5 30.5t116.5 86t81 130t31 163.5
q0 88 -31 162.5t-81 130t-116.5 86t-140.5 30.5t-140.5 -30.5t-116.5 -86t-81 -130t-31 -162.5z" />
    <glyph glyph-name="aring.salt" horiz-adv-x="1075" 
d="M696 1208q0 -70 -47 -116q-47 -47 -117 -48q-70 0 -116 48q-47 47 -47 116q0 70 47 117t116 47q70 0 117 -47t47 -117zM645 1208q0 47 -33 80t-80 33t-79 -33q-33 -33 -33 -80t33 -80t79 -32q47 0 80 32q33 33 33 80zM932 0h-41l-10 236h-11l-20 -39q-20 -39 -64 -85
q-43 -46 -110 -84q-68 -38 -164 -38q-84 0 -161 35t-134 96t-91 145t-34 185q0 100 34 184t91 145t134 97q77 35 161 34q96 0 164 -38t110 -85q51 -53 84 -122h11l10 235h41v-901zM143 451q0 -88 31 -163t81 -130t117 -86t140 -31q74 0 140 31q67 31 117 86t81 130t31 163
t-31 162q-31 75 -81 130t-117 86t-140 31q-74 0 -140 -31q-67 -31 -117 -86t-81 -130q-31 -74 -31 -162z" />
    <glyph glyph-name="atilde.salt" horiz-adv-x="1075" 
d="M676 1126q39 0 65 31q27 31 27 92h51q0 -86 -41 -130t-102 -44q-39 0 -71 21q-32 20 -59 46q-28 26 -53 46q-26 20 -53 20q-39 0 -65 -30q-27 -31 -27 -93h-51q0 86 41 130t102 45q39 0 71 -21q32 -20 59 -46q28 -26 54 -46q25 -21 52 -21zM932 0h-41l-10 236h-11
l-20 -39q-20 -39 -64 -85q-43 -46 -110 -84q-68 -38 -164 -38q-84 0 -161 35t-134 96t-91 145t-34 185q0 100 34 184t91 145t134 97q77 35 161 34q96 0 164 -38t110 -85q51 -53 84 -122h11l10 235h41v-901zM143 451q0 -88 31 -163t81 -130t117 -86t140 -31q74 0 140 31
q67 31 117 86t81 130t31 163t-31 162q-31 75 -81 130t-117 86t-140 31q-74 0 -140 -31q-67 -31 -117 -86t-81 -130q-31 -74 -31 -162z" />
    <glyph glyph-name="lacute.salt" horiz-adv-x="440" 
d="M287 1690h82l-174 -246h-31zM205 205q0 -164 143 -164q16 0 29 1q12 1 22 3t21 6v-51q-10 -4 -21 -6q-10 -2 -22 -3t-29 -1q-92 0 -143 53t-51 162v1085h51v-1085z" />
    <glyph glyph-name="lcaron.salt" horiz-adv-x="440" 
d="M410 1290h82l-113 -246h-41zM205 205q0 -164 143 -164q16 0 28.5 1t22.5 3t21 6v-51q-10 -4 -21 -6q-10 -2 -22 -3t-29 -1q-92 0 -143 53t-51 162v1085h51v-1085z" />
    <glyph glyph-name="uni013C.salt" horiz-adv-x="440" 
d="M236 -211q0 20 13 34q13 13 32 13q20 0 33 -14t14 -43q0 -45 -18 -82q-17 -37 -40 -66q-25 -33 -55 -61l-10 10q20 23 37 47q14 23 25 52q11 30 14 65q-18 0 -32 13q-13 14 -13 32zM205 205q0 -164 143 -164q16 0 29 1q12 1 22 3t21 6v-51q-10 -4 -21 -6q-10 -2 -22 -3
t-29 -1q-92 0 -143 53t-51 162v1085h51v-1085z" />
    <glyph glyph-name="Igrave.salt" horiz-adv-x="624" 
d="M328 1444h-31l-174 246h82zM82 1239v51h461v-51h-205v-1188h205v-51h-461v51h205v1188h-205z" />
    <glyph glyph-name="Iacute.salt" horiz-adv-x="624" 
d="M420 1690h82l-174 -246h-31zM82 1239v51h461v-51h-205v-1188h205v-51h-461v51h205v1188h-205z" />
    <glyph glyph-name="Icircumflex.salt" horiz-adv-x="624" 
d="M297 1659h41l205 -225h-62l-164 184l-163 -184h-62zM82 1239v51h461v-51h-205v-1188h205v-51h-461v51h205v1188h-205z" />
    <glyph glyph-name="Idieresis.salt" horiz-adv-x="624" 
d="M215 1542q0 -20 -13 -34q-13 -13 -34 -13q-18 0 -32 13q-13 13 -13 34q0 18 13 32q13 13 32 13q20 0 34 -13q13 -14 13 -32zM512 1542q0 -20 -13 -34q-13 -13 -34 -13q-18 0 -32 13q-13 13 -13 34q0 18 13 32q13 13 32 13q20 0 34 -13q13 -14 13 -32zM82 1239v51h461v-51
h-205v-1188h205v-51h-461v51h205v1188h-205z" />
    <glyph glyph-name="Idotaccent.salt" horiz-adv-x="624" 
d="M358 1542q0 -20 -13 -34q-13 -13 -34 -13q-18 0 -31 13t-14 34q0 18 14 32q13 13 31 13q20 0 34 -13q13 -14 13 -32zM82 1239v51h461v-51h-205v-1188h205v-51h-461v51h205v1188h-205z" />
    <glyph glyph-name="Imacron.salt" horiz-adv-x="624" 
d="M82 1239v51h461v-51h-205v-1188h205v-51h-461v51h205v1188h-205zM553 1505h-471v51h471v-51z" />
    <glyph glyph-name="Iogonek.salt" horiz-adv-x="624" 
d="M82 0v51h205v1188h-205v51h461v-51h-205v-1188h205v-51q-27 -25 -47 -53q-16 -25 -30.5 -55.5t-14.5 -65.5q0 -47 29.5 -74.5t82.5 -27.5q10 0 21.5 1t21.5 3t19 6v-51q-8 -4 -19 -7q-10 -2 -21.5 -3t-21.5 -1q-78 0 -121 42t-43 112q0 35 14.5 65.5t30.5 55.5
q20 29 48 53h-410z" />
    <glyph glyph-name="yacute.salt" horiz-adv-x="1013" 
d="M614 1321h82l-174 -246h-30zM502 20q-78 0 -144 28t-112 78q-47 50 -75 120t-28 153v502h52v-502q0 -74 23 -134q24 -60 65 -103t97 -67t122 -23q66 0 123 23q57 24 100 67t69 103t25 134v502h51v-901q0 -74 -27 -137q-28 -63 -75 -111q-47 -47 -114 -74t-142 -26
q-74 0 -133 21q-59 22 -105 60q-45 38 -75 88q-31 50 -45 107h51q39 -100 111 -162q73 -62 196 -63q66 0 122 24t97 63q41 40 65 94t23 116v215h-10q-27 -55 -70 -98q-37 -37 -94 -67t-143 -30z" />
    <glyph glyph-name="ydieresis.salt" horiz-adv-x="1013" 
d="M410 1174q0 -20 -14 -34q-13 -13 -34 -14q-18 0 -31 14q-13 13 -14 34q0 18 14 31q13 13 31 14q20 0 34 -14q14 -13 14 -31zM707 1174q0 -20 -14 -34q-13 -13 -34 -14q-18 0 -31 14q-13 13 -14 34q0 18 14 31q13 13 31 14q20 0 34 -14q14 -13 14 -31zM502 20
q-78 0 -144 28t-112 78q-47 50 -75 120t-28 153v502h52v-502q0 -74 23 -134q24 -60 65 -103t97 -67t122 -23q66 0 123 23q57 24 100 67t69 103t25 134v502h51v-901q0 -74 -27 -137q-28 -63 -75 -111q-47 -47 -114 -74t-142 -26q-74 0 -133 21q-59 22 -105 60q-45 38 -75 88
q-31 50 -45 107h51q39 -100 111 -162q73 -62 196 -63q66 0 122 24t97 63q41 40 65 94t23 116v215h-10q-27 -55 -70 -98q-37 -37 -94 -67t-143 -30z" />
    <glyph glyph-name="zero.tnum" horiz-adv-x="962" 
d="M51 645q0 -145 37 -258t97 -189q60 -77 139 -117q78 -40 157 -40q80 0 158 40t138 117t97 189q37 113 37 258t-37 258t-97 190t-138 116q-78 40 -158 40t-157 -40q-78 -40 -139 -116q-60 -77 -97 -190t-37 -258zM963 645q0 -158 -41 -279q-41 -122 -108 -206t-154 -127
t-179 -43t-179 43t-154 127t-107 206q-41 122 -41 279q0 158 41 280t107 205q67 84 154 127t179 43t179 -43t154 -127t108 -205q41 -122 41 -280z" />
    <glyph glyph-name="one.tnum" horiz-adv-x="962" 
d="M543 1290v-1239h286v-51h-624v51h287v1178l-277 -195l-31 41l308 215h51z" />
    <glyph glyph-name="two.tnum" horiz-adv-x="962" 
d="M860 51v-51h-747v51l512 543q49 49 86 104q33 47 60 111q28 63 28 133q0 66 -24 122t-64 97q-41 41 -98 65q-56 24 -121 23q-70 0 -128 -23q-58 -24 -104 -64q-45 -40 -73 -94t-33 -116h-52q8 74 40 138q32 63 82 110t119 74t149 26q76 0 142 -27q67 -28 114 -75t74 -114
q28 -67 28 -142q0 -78 -31 -148q-31 -71 -67 -124q-43 -63 -97 -117l-481 -502h686z" />
    <glyph glyph-name="three.tnum" horiz-adv-x="962" 
d="M102 983q4 61 33 119q29 57 78 101t115 71t143 26q88 0 159 -25q71 -26 120 -71t74 -106q26 -61 26 -135q0 -92 -38 -151q-38 -58 -85 -91q-53 -37 -123 -55q76 -20 137 -64q53 -37 97 -100q43 -63 43 -164q0 -74 -28 -137t-81 -111q-53 -47 -129 -74t-172 -26
q-84 0 -153 25q-69 26 -119 69q-51 43 -83 100t-44 123h51q12 -53 40 -101t73 -85t103 -59t132 -21q84 0 151 24t112 63q46 40 71 94t24 116q0 61 -24 116q-25 54 -71 94t-112 63q-67 24 -151 24h-82v51h82q76 0 137 22t104 59q42 38 64 88q23 50 23 108q0 123 -87 204
q-87 82 -241 82q-66 0 -122 -22q-56 -23 -98 -61t-68 -86t-29 -97h-52z" />
    <glyph glyph-name="four.tnum" horiz-adv-x="962" 
d="M901 328h-153v-328h-52v328h-635v51l625 911h62v-911h153v-51zM696 379v840l-573 -840h573z" />
    <glyph glyph-name="five.tnum" horiz-adv-x="962" 
d="M492 829q80 0 152 -32q73 -33 128 -89t87 -134q32 -77 32 -164q0 -88 -33 -165t-88 -133t-130 -89t-159 -33t-152 25q-69 26 -120 70t-83 103t-44 129h51q12 -57 40 -107t73 -88t103 -60t132 -21q74 0 139 29t113 78q49 50 78 117t29 145q0 76 -29 143q-29 68 -77 118
t-110 79t-132 28q-92 0 -155 -32q-62 -32 -101 -70q-45 -45 -72 -103h-51l82 717h604v-51h-563l-62 -563q31 41 78 76q41 29 99 53q59 24 141 24z" />
    <glyph glyph-name="six.tnum" horiz-adv-x="962" 
d="M481 -10q-84 0 -158 33q-75 33 -130 89t-89 133q-33 77 -32 165q0 66 19 126t42 107q27 55 62 105l358 542h61l-368 -542q27 23 63 40q31 16 75 29q44 12 97 12q84 0 159 -32q75 -33 130 -89t88 -134q33 -77 33 -164q0 -88 -33 -165t-88 -133t-130 -89t-159 -33zM123 410
q0 -78 29 -145t77 -117q49 -50 114 -78q65 -29 138 -29q74 0 139 29t113 78q49 50 78 117t29 145q0 76 -29 143q-29 68 -78 118t-113 79q-65 29 -139 28q-74 0 -138 -28q-65 -29 -114 -79t-77 -118q-29 -67 -29 -143z" />
    <glyph glyph-name="seven.tnum" horiz-adv-x="962" 
d="M870 1290v-51l-565 -1239h-59l573 1239h-686v51h737z" />
    <glyph glyph-name="eight.tnum" horiz-adv-x="962" 
d="M481 -10q-88 0 -162 28q-74 29 -125 78q-52 49 -82 114t-30 138q0 104 45 170t98 103q63 43 144 65q-66 18 -119 55q-45 33 -81 92q-36 58 -36 150q0 66 26 123t71 100q46 43 110 69q63 26 141 25q76 0 141 -25q65 -26 110 -69q46 -43 72 -100t25 -123q0 -92 -36 -150
q-37 -58 -82 -92q-53 -37 -117 -55q80 -23 143 -65q53 -37 99 -103q45 -66 45 -170q0 -74 -30 -138q-30 -65 -82 -114t-126 -78q-74 -28 -162 -28zM481 655q-78 0 -141 -24q-63 -25 -110 -68q-46 -43 -71 -98q-26 -55 -26 -117q0 -61 26 -117q26 -55 71 -98q46 -43 110 -67
q63 -25 141 -25q76 0 141 25t110 67q46 43 72 98t25 117q0 61 -25 117q-26 55 -72 98t-110 68q-65 24 -141 24zM481 1249q-66 0 -120 -21q-54 -22 -94 -59t-61 -85q-22 -48 -22 -101q0 -57 22 -107t61 -89q40 -38 94 -59q54 -22 120 -21q66 0 120 21q54 22 94 59
q40 38 62 89q22 50 21 107q0 53 -21 101q-22 48 -62 85t-94 59q-54 21 -120 21z" />
    <glyph glyph-name="nine.tnum" horiz-adv-x="962" 
d="M481 1300q84 0 159 -32q75 -33 130 -89t88 -133t33 -165q0 -66 -20 -126q-19 -60 -42 -108q-27 -55 -61 -104l-358 -543h-62l369 543q-27 -23 -64 -41q-31 -16 -74 -29q-44 -12 -98 -12q-84 0 -158 33q-75 33 -130 89t-89 133q-33 77 -32 165q0 88 32 165q33 77 89 133
q55 56 130 89q74 32 158 32zM840 881q0 76 -29 143q-29 68 -78 118t-113 79q-65 29 -139 28q-74 0 -138 -28q-65 -29 -114 -79t-77 -118q-29 -68 -29 -143q0 -78 29 -145t77 -116q49 -50 114 -79t138 -29q74 0 139 29t113 79q49 50 78 116q29 67 29 145z" />
    <glyph glyph-name="at.case" horiz-adv-x="1536" 
d="M1014 451q-23 -45 -60 -82q-31 -31 -78 -57q-48 -26 -118 -25q-66 0 -122 23q-56 24 -97 67t-65 103t-23 134q0 74 23 135q24 60 65 103t97 67t122 23q70 0 118 -26t78 -56q31 -31 45 -57l15 -27h10l10 156h31v-410q0 -86 46 -135t108 -49q35 0 67 17q33 17 60 55
q27 37 42 92t15 133q0 123 -47 231q-47 109 -130 189t-195 127t-243 47t-246 -50q-116 -50 -202 -135q-86 -84 -136 -195q-50 -112 -50 -235t50 -234q50 -112 136 -196t202 -134t246 -50q66 0 123 15t101 36q51 23 94 51l31 -41q-45 -33 -101 -57q-47 -23 -111 -39
q-65 -16 -137 -16q-141 0 -266 53t-218 144t-147 212t-55 256q0 135 55 256q54 121 147 212t218 145q125 53 266 53t264 -50q122 -50 211 -138t140 -205t51 -252q0 -88 -19 -154t-53 -108q-33 -43 -75 -65q-43 -22 -88 -21q-59 0 -97 25q-37 26 -59 57q-25 37 -39 82h-10z
M502 614q0 -61 19 -112t54 -87t82 -57q47 -20 101 -20q53 0 100 20t82 57q35 36 54 87t20 112q0 61 -20 113q-19 51 -54 87t-82 56t-100 21q-53 0 -101 -21q-47 -20 -82 -56t-54 -87q-19 -52 -19 -113z" />
    <glyph glyph-name="parenleft.case" horiz-adv-x="542" 
d="M195 614q0 -166 37 -312q38 -146 85 -257q53 -129 123 -240l-30 -30q-76 117 -134 254q-51 117 -92 268q-41 152 -41 317q0 166 41 318t92 268q57 137 134 254l30 -31q-70 -111 -123 -239q-47 -111 -85 -257q-37 -147 -37 -313z" />
    <glyph glyph-name="parenright.case" horiz-adv-x="542" 
d="M348 614q0 166 -38 313q-38 146 -85 257q-53 129 -123 239l31 31q74 -117 133 -254q49 -117 91 -268q42 -152 42 -318t-42 -317q-42 -152 -91 -268q-59 -137 -133 -254l-31 30q70 111 123 240q47 111 85 257t38 312z" />
    <glyph glyph-name="bracketleft.case" horiz-adv-x="573" 
d="M256 -164h256v-51h-307v1659h307v-51h-256v-1557z" />
    <glyph glyph-name="bracketright.case" horiz-adv-x="573" 
d="M317 1393h-256v51h308v-1659h-308v51h256v1557z" />
    <glyph glyph-name="braceleft.case" horiz-adv-x="624" 
d="M123 635q78 0 121 44t43 130v399q0 117 58 176t167 60h51v-51h-51q-174 0 -174 -185v-399q0 -66 -23 -103q-23 -38 -49 -59q-33 -23 -71 -33q39 -10 71 -32q27 -20 49 -59q23 -38 23 -103v-400q0 -184 174 -184h51v-51h-51q-109 0 -167 59t-58 176v400q0 86 -43 130
t-121 44v41z" />
    <glyph glyph-name="braceright.case" horiz-adv-x="624" 
d="M502 594q-78 0 -121 -44t-43 -130v-400q0 -117 -58 -176t-167 -59h-52v51h52q174 0 174 184v400q0 66 21 103q22 38 50 59q31 23 72 32q-41 10 -72 33q-29 20 -50 59q-22 38 -21 103v399q0 184 -174 185h-52v51h52q109 0 167 -60q58 -59 58 -176v-399q0 -86 43 -130
t121 -44v-41z" />
    <glyph glyph-name="exclamdown.case" horiz-adv-x="460" 
d="M256 0h-51v963h51v-963zM276 1245q0 -20 -13 -33.5t-34 -13.5q-18 0 -31.5 13.5t-13.5 33.5q0 18 13.5 31.5t31.5 13.5q20 0 33.5 -13.5t13.5 -31.5z" />
    <glyph glyph-name="questiondown.case" horiz-adv-x="870" 
d="M102 307q0 82 25 138.5t60.5 99.5t78.5 80t79 80t60.5 99t24.5 138v21h51v-21q0 -86 -24.5 -146.5t-60.5 -105.5t-79 -81t-78.5 -78t-60 -95t-24.5 -129q0 -53 21.5 -101t59 -85t88 -58.5t107.5 -21.5q59 0 113.5 23.5t95.5 64.5t64.5 97.5t23.5 121.5v41h51v-41
q0 -78 -26.5 -143.5t-73.5 -112.5t-110.5 -74.5t-137.5 -27.5q-70 0 -129 25.5t-103 68.5t-70 100t-26 123zM410 1245q0 18 13 31.5t34 13.5q18 0 31.5 -13t13.5 -32q0 -20 -13.5 -33.5t-31.5 -13.5q-20 0 -33.5 13.5t-13.5 33.5z" />
    <glyph glyph-name="guillemotleft.case" horiz-adv-x="737" 
d="M164 614l215 -307h-62l-215 307l215 308h62zM461 614l215 -307h-62l-215 307l215 308h62z" />
    <glyph glyph-name="guillemotright.case" horiz-adv-x="737" 
d="M358 922h62l215 -308l-215 -307h-62l215 307zM61 922h62l215 -308l-215 -307h-62l215 307z" />
    <glyph glyph-name="guilsinglleft.case" horiz-adv-x="440" 
d="M164 614l215 -307h-62l-215 307l215 308h62z" />
    <glyph glyph-name="guilsinglright.case" horiz-adv-x="440" 
d="M61 922h62l215 -308l-215 -307h-62l215 307z" />
    <glyph glyph-name="hyphen.case" horiz-adv-x="675" 
d="M614 655h-553v52h553v-52z" />
    <glyph glyph-name="endash.case" horiz-adv-x="921" 
d="M860 655h-799v52h799v-52z" />
    <glyph glyph-name="emdash.case" horiz-adv-x="1423" 
d="M1362 655h-1301v52h1301v-52z" />
    <glyph glyph-name="glyph551" horiz-adv-x="3149" 
d="M569 879h-147v-408h-72v408h-145v63h364v-63zM1063 811q66 0 112 -50t46 -122q0 -74 -46.5 -124t-111.5 -50q-59 0 -96 43v-162h-70v459h49l19 -39q16 20 41.5 32.5t56.5 12.5zM1057 528q39 0 67.5 32t28.5 79q0 43 -28.5 74.5t-67.5 31.5q-41 0 -68.5 -31.5t-27.5 -74.5
q0 -47 27.5 -79t68.5 -32zM772 805h76l-158 -389q-33 -70 -100 -70q-14 0 -21 2v58q47 0 64 40l12 33l-129 326h76l90 -238zM1436 811q66 0 110.5 -49t44.5 -121q0 -4 -1 -9t-1 -9v-13h-243q4 -35 29.5 -59.5t60.5 -24.5q25 0 45 8.5t30 26.5h72q-18 -47 -59 -71.5
t-88 -24.5q-66 0 -113 50t-47 124q0 35 12 66.5t33.5 55t51.5 37t63 13.5zM1526 666q-2 35 -30 58.5t-60 23.5q-33 0 -59.5 -21.5t-30.5 -60.5h180zM1923 879h-147v-408h-72v408h-145v63h364v-63zM2417 811q66 0 111.5 -50t45.5 -122q0 -74 -46 -124t-111 -50q-59 0 -97 43
v-162h-69v459h49l18 -39q16 20 42 32.5t57 12.5zM2410 528q39 0 68 32t29 79q0 43 -29 74.5t-68 31.5q-41 0 -68.5 -31.5t-27.5 -74.5q0 -47 27.5 -79t68.5 -32zM2126 805h76l-158 -389q-33 -70 -100 -70q-14 0 -21 2v58q47 0 64 40l12 33l-129 326h76l90 -238zM2789 811
q66 0 111 -49t45 -121q0 -4 -1 -9t-1 -9v-13h-244q4 -35 30 -59.5t60 -24.5q25 0 45.5 8.5t30.5 26.5h72q-18 -47 -59.5 -71.5t-88.5 -24.5q-66 0 -112.5 50t-46.5 124q0 35 12 66.5t33.5 55t51 37t62.5 13.5zM2879 666q-2 35 -29.5 58.5t-60.5 23.5t-59.5 -21.5
t-30.5 -60.5h180z" />
    <glyph glyph-name="bullet.case" horiz-adv-x="696" 
d="M451 676q0 -47 -32 -75t-71 -28t-70 28q-32 28 -32 75t32 75t70 27q39 0 71 -27q32 -28 32 -75z" />
    <glyph glyph-name="periodcentered.case" horiz-adv-x="409" 
d="M256 690q0 -18 -13 -32q-13 -13 -34 -13q-18 0 -32 13q-13 13 -13 32q0 20 13 34q13 13 32 13q20 0 34 -13q13 -14 13 -34z" />
    <glyph glyph-name="zero.dnom" horiz-adv-x="573" 
d="M287 553q-70 0 -122 -67t-52 -189q0 -123 52 -189q52 -67 122 -67t122 67t52 189q0 123 -52 189q-52 67 -122 67zM287 -10q-92 0 -159 80t-67 227t67 227t159 80t158 -80q67 -80 67 -227t-67 -227q-66 -80 -158 -80z" />
    <glyph glyph-name="one.dnom" horiz-adv-x="358" 
d="M195 594h41v0v-594h-52v532l-143 -92l-21 41z" />
    <glyph glyph-name="two.dnom" horiz-adv-x="501" 
d="M123 51h307v-51h-369v51l236 238q23 25 41 49q16 23 29 48q12 26 12 54q0 47 -35 80t-88 33t-89 -35t-44 -88h-51q8 78 57 126t127 48t126 -47t48 -117q0 -35 -16 -66q-16 -32 -35 -59q-23 -31 -51 -57z" />
    <glyph glyph-name="three.dnom" horiz-adv-x="522" 
d="M317 317q37 -6 66 -26q25 -16 46 -47q22 -31 22 -80q0 -70 -55 -122q-54 -52 -140 -52t-136 48t-59 126h52q8 -53 45 -88t98 -35t102 38t41 85t-41 85t-102 38h-61v51h61q53 0 88 32t35 70q0 47 -35 80t-88 33t-89 -35t-44 -88h-51q8 78 57 126t127 48t126 -47t48 -117
q0 -39 -17 -62q-17 -24 -40 -38q-25 -17 -56 -23z" />
    <glyph glyph-name="four.dnom" horiz-adv-x="481" 
d="M328 184h82v-51h-82v-133h-52v133h-276v51l266 410h62v-410zM276 184v348l-225 -348h225z" />
    <glyph glyph-name="five.dnom" horiz-adv-x="491" 
d="M256 379q78 0 131 -54t53 -141q0 -86 -54 -140t-140 -54t-136 47t-59 117h51q6 -47 44 -80t100 -33q61 0 102 41t41 102t-41 103q-41 41 -102 41q-35 0 -60 -13q-25 -12 -41 -28q-20 -18 -32 -41h-52l39 348h310v-51h-267l-20 -215q14 14 35 24q16 10 42 19q25 8 56 8z
" />
    <glyph glyph-name="six.dnom" horiz-adv-x="512" 
d="M256 -10q-86 0 -140 54t-55 140q0 35 10 66q9 31 21 55q12 29 31 53l153 236h62l-164 -236q8 4 23 11q10 4 28 7t41 3q78 0 131 -54t54 -141q0 -86 -55 -140q-54 -54 -140 -54zM113 184q0 -61 41 -102t102 -41t102 41t41 102t-41 103q-41 41 -102 41t-102 -41
q-41 -42 -41 -103z" />
    <glyph glyph-name="seven.dnom" horiz-adv-x="419" 
d="M72 594h358v-49l-256 -545h-51l256 543h-307v51z" />
    <glyph glyph-name="eight.dnom" horiz-adv-x="532" 
d="M266 553q-53 0 -88 -33t-35 -80q0 -39 35 -70q35 -32 88 -32t88 32t35 70q0 47 -35 80t-88 33zM266 287q-61 0 -102 -38t-41 -85t41 -85t102 -38t103 38q41 38 41 85t-41 85q-42 38 -103 38zM266 604q78 0 126 -47t48 -117q0 -39 -17 -62q-17 -24 -40 -38
q-25 -16 -55 -23q37 -6 65 -26q25 -16 46 -47q22 -31 22 -80q0 -70 -54 -122t-141 -52q-86 0 -140 52t-54 122q0 49 20 80t45 47q29 20 68 26q-33 6 -58 23q-23 14 -38 38q-16 24 -17 62q0 70 48 117t126 47z" />
    <glyph glyph-name="nine.dnom" horiz-adv-x="512" 
d="M256 604q86 0 140 -54t55 -140q0 -35 -11 -66q-10 -31 -20 -55q-14 -29 -31 -53l-153 -236h-62l164 236q-10 -6 -23 -11q-27 -10 -69 -10q-78 0 -131 54t-54 141q0 86 55 140q54 54 140 54zM399 410q0 61 -41 102t-102 41t-102 -41t-41 -102t41 -103q41 -41 102 -41
t102 41q41 42 41 103z" />
    <glyph glyph-name="zero.frac" horiz-adv-x="573" 
d="M287 1239q-70 0 -122 -67t-52 -189q0 -123 52 -189q52 -67 122 -67t122 67t52 189q0 123 -52 189q-52 67 -122 67zM287 676q-92 0 -159 80t-67 227t67 227t159 80t158 -80q67 -80 67 -227t-67 -227q-66 -80 -158 -80z" />
    <glyph glyph-name="one.frac" horiz-adv-x="358" 
d="M195 1280h41v0v-594h-52v533l-143 -93l-21 41z" />
    <glyph glyph-name="two.frac" horiz-adv-x="501" 
d="M123 737h307v-51h-369v51l236 238q23 25 41 49q16 23 29 48q12 26 12 54q0 47 -35 80t-88 33t-89 -35t-44 -88h-51q8 78 57 126t127 48t126 -47t48 -117q0 -35 -16 -66q-16 -32 -35 -59q-23 -31 -51 -57z" />
    <glyph glyph-name="three.frac" horiz-adv-x="522" 
d="M317 1004q37 -6 66 -27q25 -16 46 -47q22 -31 22 -80q0 -70 -55 -122q-54 -52 -140 -52t-136 48t-59 126h52q8 -53 45 -88t98 -35t102 38t41 85t-41 85t-102 38h-61v51h61q53 0 88 32t35 70q0 47 -35 80t-88 33t-89 -35t-44 -88h-51q8 78 57 126t127 48t126 -47t48 -117
q0 -39 -17 -62q-17 -24 -40 -38q-25 -16 -56 -22z" />
    </font>
</defs>
</svg>
