<svg width="24" height="24" fill="none" xmlns="http://www.w3.org/2000/svg"><path d="M1 22.111h22v.15H1v-.15z" stroke="#48A5B4" stroke-width="2"/><path d="M5 .686h14V23.26H5V.686z" fill="#48A5B4"/><path d="M6.5 2.26h11v18.35h-11V2.26z" fill="#48A5B4" stroke="#fff"/><mask id="a" fill="#fff"><path d="M16 11.436v2.15h-2v-2.15h2z"/></mask><path d="M16 11.436h2v-2h-2v2zm0 2.15v2h2v-2h-2zm-2 0h-2v2h2v-2zm0-2.15v-2h-2v2h2zm2 .15h-2v4h2v-4zm0 2v-2.15h-4v2.15h4zm-2-.15h2v-4h-2v4zm0-2v2.15h4v-2.15h-4z" fill="#fff" mask="url(#a)"/></svg>