<svg width="20" height="25" fill="none" xmlns="http://www.w3.org/2000/svg"><path stroke="#48A5B4" stroke-width="2" d="M1 1.485h18v21.65H1z"/><path fill="#48A5B4" d="M0 .485h20V5.86H0z"/><path fill="#48A5B4" d="M0 .485h5v23.65H0zm15 0h5v23.65h-5z"/><mask id="a" fill="#fff"><path d="M14 13.385v2.15h-2v-2.15h2z"/></mask><path d="M14 13.385h2v-2h-2v2zm0 2.15v2h2v-2h-2zm-2 0h-2v2h2v-2zm0-2.15v-2h-2v2h2zm2 .15h-2v4h2v-4zm0 2v-2.15h-4v2.15h4zm-2-.15h2v-4h-2v4zm0-2v2.15h4v-2.15h-4z" fill="#48A5B4" mask="url(#a)"/></svg>