<?xml version="1.0" encoding="utf-8"?><svg xmlns="http://www.w3.org/2000/svg" xmlns:xlink="http://www.w3.org/1999/xlink"><symbol viewBox="0 0 31 66" id="facebook" xmlns="http://www.w3.org/2000/svg"><title>facebook</title><path d="M28.868 32.56h-8.922v32.686H6.43V32.56H0V21.073h6.429V13.64C6.429 8.324 8.954 0 20.067 0L30.08.042v11.15h-7.265c-1.192 0-2.868.595-2.868 3.131v6.76H30.05L28.87 32.56z"/></symbol><symbol viewBox="0 0 77 38" id="flikr" xmlns="http://www.w3.org/2000/svg"><title>Group 16</title><circle cx="17.636" cy="17.636" r="17.636"/><circle cx="58.636" cy="19.636" r="17.636"/></symbol><symbol viewBox="0 0 20 20" id="gear"><path d="M17.498 11.697A2.384 2.384 0 0 1 16.794 10a2.384 2.384 0 0 1 .961-1.917.39.39 0 0 0 .137-.417 8.169 8.169 0 0 0-.662-1.597.385.385 0 0 0-.391-.199c-.13.02-.238.027-.336.027a2.402 2.402 0 0 1-2.401-2.4c0-.099.008-.207.027-.336a.388.388 0 0 0-.199-.391 8.144 8.144 0 0 0-1.597-.662.388.388 0 0 0-.416.137A2.38 2.38 0 0 1 10 3.207a2.38 2.38 0 0 1-1.917-.961.388.388 0 0 0-.416-.137 8.216 8.216 0 0 0-1.597.662.387.387 0 0 0-.199.391c.02.129.027.237.027.336 0 1.325-1.076 2.4-2.401 2.4a2.15 2.15 0 0 1-.335-.027.387.387 0 0 0-.392.199 8.241 8.241 0 0 0-.662 1.597.39.39 0 0 0 .137.417 2.399 2.399 0 0 1 0 3.835.388.388 0 0 0-.137.416c.166.557.388 1.096.662 1.596a.381.381 0 0 0 .392.199 2.15 2.15 0 0 1 .335-.027 2.403 2.403 0 0 1 2.401 2.402c0 .098-.007.205-.027.334a.388.388 0 0 0 .199.391c.501.273 1.04.496 1.597.66a.382.382 0 0 0 .417-.137 2.385 2.385 0 0 1 1.917-.959 2.382 2.382 0 0 1 1.917.959.382.382 0 0 0 .416.136 8.148 8.148 0 0 0 1.597-.66.39.39 0 0 0 .199-.393 2.138 2.138 0 0 1-.027-.334 2.403 2.403 0 0 1 2.401-2.402c.098 0 .206.008.336.027a.385.385 0 0 0 .391-.199c.274-.5.496-1.039.662-1.596a.388.388 0 0 0-.137-.416 1.776 1.776 0 0 1-.258-.219m-.827 1.637c-.059-.002-.114-.002-.168-.002a3.176 3.176 0 0 0-3.173 3.172c0 .053.002.109.004.166a7.09 7.09 0 0 1-.976.406A3.152 3.152 0 0 0 10 16.023a3.15 3.15 0 0 0-2.359 1.053 7.09 7.09 0 0 1-.976-.406c.002-.057.004-.113.004-.166a3.175 3.175 0 0 0-3.172-3.172c-.054 0-.11 0-.168.002a7.198 7.198 0 0 1-.405-.975c.044-.039.085-.078.124-.115a3.177 3.177 0 0 0-.124-4.602 7.21 7.21 0 0 1 .405-.976c.058.002.114.004.168.004a3.175 3.175 0 0 0 3.172-3.172c0-.054-.002-.11-.004-.168a7.21 7.21 0 0 1 .976-.405A3.15 3.15 0 0 0 10 3.978a3.15 3.15 0 0 0 2.358-1.053c.336.112.663.247.976.405-.002.058-.004.114-.004.168a3.177 3.177 0 0 0 3.173 3.172c.054 0 .109-.002.168-.004.158.312.293.64.405.976A3.15 3.15 0 0 0 16.022 10a3.151 3.151 0 0 0 1.054 2.359 7.252 7.252 0 0 1-.405.975M10 5.417A4.588 4.588 0 0 0 5.416 10c0 2.529 2.056 4.584 4.584 4.584s4.584-2.055 4.584-4.584A4.588 4.588 0 0 0 10 5.417m0 8.395A3.816 3.816 0 0 1 6.188 10 3.816 3.816 0 0 1 10 6.188 3.816 3.816 0 0 1 13.812 10 3.815 3.815 0 0 1 10 13.812"/></symbol><symbol viewBox="0 0 80 51" id="google" xmlns="http://www.w3.org/2000/svg"><title>Group 4</title><path d="M.015 25.266C-.479 12.256 10.918.233 23.942.078c6.638-.567 13.095 2.011 18.12 6.215-2.06 2.265-4.157 4.505-6.398 6.602-4.422-2.687-9.746-4.734-14.915-2.916-8.335 2.373-13.383 12.216-10.3 20.372 2.555 8.517 12.915 13.191 21.034 9.613 4.205-1.505 6.976-5.384 8.192-9.552-4.818-.097-9.637-.036-14.456-.17-.012-2.866-.025-5.722-.012-8.589 8.036-.012 16.083-.036 24.13.036.494 7.023-.543 14.54-5.108 20.179-6.253 8.047-17.806 10.409-27.203 7.252C7.05 45.843-.202 35.795.016 25.266zm64.983-10.843l7.167.001c.013 2.397.036 4.807.05 7.204 2.397.024 4.807.036 7.203.048v7.18l-7.204.036c-.025 2.41-.036 4.807-.049 7.216-2.396-.012-4.794 0-7.18 0-.024-2.41-.024-4.806-.048-7.204-2.396-.025-4.806-.037-7.204-.049v-7.18c2.398-.012 4.795-.024 7.204-.048.012-2.396.037-4.806.061-7.204z"/></symbol><symbol viewBox="0 0 65 65" id="instagram" xmlns="http://www.w3.org/2000/svg"><title>Group 5</title><path d="M64.634 48.33c0 8.991-7.313 16.304-16.304 16.304H16.305C7.315 64.634 0 57.321 0 48.33V16.305C0 7.315 7.314 0 16.305 0H48.33c8.991 0 16.304 7.314 16.304 16.305V48.33zM48.33 7.034H16.305c-5.112 0-9.27 4.159-9.27 9.27V48.33c0 5.111 4.158 9.271 9.27 9.271H48.33c5.111 0 9.271-4.159 9.271-9.271V16.305c0-5.112-4.159-9.27-9.271-9.27zm-16.013 41.93c-9.178 0-16.646-7.467-16.646-16.647 0-9.178 7.468-16.646 16.646-16.646 9.18 0 16.647 7.468 16.647 16.646s-7.469 16.647-16.647 16.647zm0-26.258c-5.298 0-9.613 4.311-9.613 9.61 0 5.3 4.315 9.614 9.613 9.614 5.3 0 9.612-4.313 9.612-9.614 0-5.297-4.312-9.61-9.612-9.61zM49.5 19.113a3.943 3.943 0 0 1-3.94-3.938 3.943 3.943 0 0 1 3.94-3.939 3.943 3.943 0 0 1 3.939 3.939 3.943 3.943 0 0 1-3.939 3.938z"/></symbol><symbol viewBox="0 0 70 70" id="linkedin" xmlns="http://www.w3.org/2000/svg"><title>Group 7</title><path d="M8.41 0c4.57.004 8.34 3.779 8.33 8.372-.012 4.809-4.003 8.434-8.387 8.33C3.907 16.791 0 13.076 0 8.34 0 3.745 3.784-.004 8.41 0zm4.683 69.375H3.3A2.301 2.301 0 0 1 1 67.074V25.3C1 24.031 2.03 23 3.301 23h9.792a2.3 2.3 0 0 1 2.3 2.301v41.773a2.3 2.3 0 0 1-2.3 2.3zm56.874-31.518C69.967 29.099 62.868 22 54.11 22H51.6a14.075 14.075 0 0 0-12.342 7.283 1.057 1.057 0 0 0-.13-.016v-5.128a.955.955 0 0 0-.956-.955H25.955a.955.955 0 0 0-.955.955v44.465c0 .528.427.955.955.955l12.483.003a.955.955 0 0 0 .955-.955V42.92c0-4.44 3.542-8.128 7.982-8.178a8.047 8.047 0 0 1 5.803 2.365 8.048 8.048 0 0 1 2.365 5.71V68.61c0 .528.427.956.955.956l12.513.003a.955.955 0 0 0 .956-.955V37.857z"/></symbol><symbol viewBox="0 0 512 512" id="mailru" xmlns="http://www.w3.org/2000/svg"><path d="M256 8C118.941 8 8 118.919 8 256c0 137.059 110.919 248 248 248 48.154 0 95.342-14.14 135.408-40.223 12.005-7.815 14.625-24.288 5.552-35.372l-10.177-12.433c-7.671-9.371-21.179-11.667-31.373-5.129C325.92 429.757 291.314 440 256 440c-101.458 0-184-82.542-184-184S154.542 72 256 72c100.139 0 184 57.619 184 160 0 38.786-21.093 79.742-58.17 83.693-17.349-.454-16.91-12.857-13.476-30.024l23.433-121.11C394.653 149.75 383.308 136 368.225 136h-44.981a13.518 13.518 0 0 0-13.432 11.993l-.01.092c-14.697-17.901-40.448-21.775-59.971-21.775-74.58 0-137.831 62.234-137.831 151.46 0 65.303 36.785 105.87 96 105.87 26.984 0 57.369-15.637 74.991-38.333 9.522 34.104 40.613 34.103 70.71 34.103C462.609 379.41 504 307.798 504 232 504 95.653 394.023 8 256 8zm-21.68 304.43c-22.249 0-36.07-15.623-36.07-40.771 0-44.993 30.779-72.729 58.63-72.729 22.292 0 35.601 15.241 35.601 40.77 0 45.061-33.875 72.73-58.161 72.73z"/></symbol><symbol viewBox="0 0 39 65" id="odnoklasniki" xmlns="http://www.w3.org/2000/svg"><title>Group 6</title><path d="M19.524 24.647a7.978 7.978 0 0 0 7.978-8.05c-.016-4.462-3.568-8.012-8.02-8.016a8.007 8.007 0 0 0-8.04 8.113c.034 4.443 3.618 7.97 8.082 7.953zM19.33 0c9.077.025 16.362 7.45 16.316 16.627-.046 8.966-7.45 16.232-16.513 16.202-8.97-.03-16.326-7.467-16.272-16.45C2.91 7.295 10.27-.026 19.33 0zm18.595 39.036c-2.007 2.06-4.423 3.552-7.106 4.592-2.536.983-5.316 1.478-8.067 1.808.416.452.612.674.871.933 3.734 3.754 7.486 7.49 11.207 11.254 1.269 1.283 1.533 2.873.835 4.364-.762 1.63-2.472 2.702-4.149 2.587-1.062-.074-1.89-.601-2.626-1.342-2.818-2.836-5.69-5.62-8.45-8.51-.805-.841-1.19-.68-1.901.05a562.424 562.424 0 0 1-8.614 8.65c-1.301 1.283-2.85 1.516-4.36.782-1.605-.777-2.625-2.416-2.547-4.064.055-1.112.603-1.964 1.367-2.725 3.697-3.69 7.382-7.39 11.069-11.088.245-.245.471-.505.827-.886-5.028-.526-9.561-1.763-13.443-4.798-.483-.378-.98-.742-1.418-1.165-1.7-1.632-1.87-3.502-.527-5.426 1.15-1.647 3.08-2.088 5.088-1.141.389.182.759.413 1.113.657 7.233 4.97 17.17 5.107 24.433.222.718-.55 1.488-1.001 2.38-1.23 1.731-.445 3.348.193 4.277 1.709 1.063 1.732 1.05 3.422-.259 4.767z"/></symbol><symbol viewBox="0 0 66 66" id="pinterest" xmlns="http://www.w3.org/2000/svg"><title>Group 8</title><path d="M19.811 63.07C5.281 56.998-4.176 39.695 1.84 22.12 7.789 4.738 27.037-4.366 44.369 2.07 61.748 8.523 70.344 27.7 63.606 44.893 56.632 62.692 37.93 68.99 23.91 64.55c1.048-2.59 2.24-5.144 3.114-7.803.878-2.671 1.437-5.446 2.096-8.017.566.477 1.135.982 1.732 1.453 3.098 2.45 6.603 2.687 10.276 1.804 3.902-.938 6.986-3.151 9.27-6.404 3.863-5.5 5.226-11.724 4.292-18.274-.965-6.772-4.975-11.673-11.262-14.14-9.471-3.72-18.45-2.467-26.229 4.347-5.982 5.242-7.993 14.127-5.115 21.044.997 2.398 2.573 4.28 4.957 5.41 1.209.573 1.722.34 2.071-.923.026-.093.058-.186.092-.277.67-1.766.514-3.218-.678-4.923-2.172-3.107-1.784-6.704-.737-10.15 1.987-6.536 7.826-10.896 14.674-10.96 1.834-.017 3.723.14 5.5.574 5.283 1.29 8.695 5.376 9.037 10.794.274 4.345-.405 8.566-2.294 12.533-.935 1.964-2.17 3.71-4.007 4.947-1.726 1.162-3.613 1.63-5.66 1.095-2.822-.738-4.424-3.312-3.71-6.136.74-2.927 1.696-5.8 2.422-8.73.306-1.24.468-2.585.342-3.847-.343-3.439-3.592-5.042-6.629-3.364-2.127 1.176-3.151 3.141-3.626 5.415-.49 2.343-.253 4.652.51 6.923a2.89 2.89 0 0 1 .067 1.492c-1.38 6.016-2.855 12.012-4.162 18.044-.381 1.76-.31 3.619-.437 5.433-.024.348-.004.699-.004 1.16z"/></symbol><symbol viewBox="0 0 69 69" id="skype" xmlns="http://www.w3.org/2000/svg"><title>Group 15</title><path d="M65.525 40.19c.388-1.994.594-4.055.594-6.163 0-17.724-14.368-32.092-32.092-32.092-2.109 0-4.169.206-6.164.594A18.432 18.432 0 0 0 18.523 0C8.293 0 0 8.293 0 18.523c0 3.408.924 6.597 2.529 9.34a32.246 32.246 0 0 0-.594 6.164c0 17.723 14.368 32.091 32.092 32.091 2.108 0 4.169-.205 6.164-.593a18.431 18.431 0 0 0 9.339 2.529c10.23 0 18.524-8.294 18.524-18.524 0-3.407-.924-6.597-2.53-9.34zM34.637 56.067c-11.404 0-17.106-4.276-18.86-9.65-1.754-5.372 2.083-6.907 3.29-7.017 1.206-.11 3.764.183 4.495 2.413.76 2.317 3.29 6.908 8.772 7.456s9.1-1.974 10.197-4.605c1.097-2.632-.877-6.25-9.32-7.457C24.768 36 15.996 32.272 15.996 23.83c0-8.443 9.65-11.842 18.86-11.842 9.21 0 13.88 5.202 14.912 7.237 1.28 2.522.84 6.724-2.193 7.456-3.18.768-4.824-.987-7.127-5.263-2.381-4.422-10.855-3.29-13.706-.768-2.851 2.522-2.083 6.14 9.759 8.443s16.228 6.58 16.228 13.268c0 6.688-6.689 13.706-18.092 13.706z"/></symbol><symbol viewBox="0 0 74 62" id="telegram" xmlns="http://www.w3.org/2000/svg"><title>Group 14</title><path d="M68.384.24L1.552 26.284c-2.164.844-2.033 3.95.195 4.608l16.983 5.015 6.338 20.11c.662 2.101 3.324 2.738 4.865 1.165l8.78-8.966 17.228 12.646c2.109 1.548 5.111.398 5.647-2.162l11.41-54.552c.559-2.673-2.07-4.899-4.614-3.908zm-8.379 12.107L28.962 39.798c-.31.274-.506.653-.552 1.063l-1.195 10.625c-.04.346-.524.392-.628.06L21.67 35.7a1.668 1.668 0 0 1 .714-1.911l36.658-22.736c.843-.524 1.706.637.963 1.294z"/></symbol><symbol viewBox="0 0 48 78" id="tumblr" xmlns="http://www.w3.org/2000/svg"><title>Group 13</title><path d="M47.635 61.284V73.52l-.07.028a62.934 62.934 0 0 1-4.436 1.874 35.497 35.497 0 0 1-11.093 2.267c-.337.013-.674.036-1.012.053-.74 0-2.316-.02-2.367-.021a33.952 33.952 0 0 1-3.523-.279c-1.92-.255-3.797-.694-5.614-1.375-2.888-1.078-5.433-2.675-7.543-4.94-1.637-1.757-2.734-3.781-3.166-6.159-.33-1.815-.46-3.644-.46-5.484-.007-9.125-.003-18.46-.003-27.586H0V20.77c.924-.365 1.852-.684 2.753-1.102 4.765-2.214 8.25-5.723 10.463-10.486 1.082-2.333 1.69-4.808 2.107-7.337.102-.613.183-1.23.273-1.845H26.62l.004 19.694h18.443V31.9H26.614s.012 21.712.029 22.437c.04 1.65.118 3.295.37 4.93.273 1.757 1.152 3.12 2.632 4.094 1.45.953 3.051 1.5 4.775 1.684 1.714.184 3.414.054 5.101-.286 2.946-.593 5.617-1.83 8.114-3.475z"/></symbol><symbol viewBox="0 0 62 51" id="twitter" xmlns="http://www.w3.org/2000/svg"><title>Group 3</title><path d="M61.751 5.941a25.277 25.277 0 0 1-7.277 1.993A12.703 12.703 0 0 0 60.046.926a25.362 25.362 0 0 1-8.045 3.073A12.657 12.657 0 0 0 42.751 0c-6.995 0-12.669 5.674-12.669 12.67 0 .992.113 1.959.33 2.886-10.53-.528-19.865-5.571-26.114-13.238a12.615 12.615 0 0 0-1.716 6.37c0 4.394 2.238 8.273 5.636 10.545a12.58 12.58 0 0 1-5.738-1.587v.161c0 6.138 4.368 11.258 10.163 12.422a12.683 12.683 0 0 1-5.72.22c1.61 5.03 6.288 8.694 11.834 8.797A25.42 25.42 0 0 1 3.02 44.669 25.315 25.315 0 0 1 0 44.492a35.836 35.836 0 0 0 19.419 5.692c23.303 0 36.047-19.304 36.047-36.048 0-.549-.013-1.096-.037-1.638a25.691 25.691 0 0 0 6.322-6.557z"/></symbol><symbol viewBox="0 0 67 69" id="viber" xmlns="http://www.w3.org/2000/svg"><title>Group 12</title><path d="M64.695 16.444l-.02-.079c-1.596-6.454-8.793-13.38-15.403-14.82l-.075-.015a85.597 85.597 0 0 0-32.219 0l-.077.015c-6.607 1.44-13.805 8.366-15.403 14.82l-.018.08a63.062 63.062 0 0 0 0 27.166l.018.079c1.53 6.178 8.192 12.785 14.555 14.603v7.204c0 2.607 3.177 3.888 4.984 2.007l7.3-7.588c1.583.089 3.167.138 4.75.138a85.85 85.85 0 0 0 16.11-1.529l.075-.015c6.61-1.44 13.807-8.366 15.403-14.82l.02-.079a63.063 63.063 0 0 0 0-27.167zm-5.776 25.86c-1.066 4.21-6.53 9.445-10.873 10.412A79.786 79.786 0 0 1 30.91 54.1a.406.406 0 0 0-.303.123l-5.33 5.471-5.669 5.818a.663.663 0 0 1-1.142-.458V53.119a.411.411 0 0 0-.335-.403h-.003c-4.342-.967-9.805-6.202-10.873-10.412a57.228 57.228 0 0 1 0-24.553c1.068-4.21 6.531-9.445 10.873-10.412a79.721 79.721 0 0 1 29.92 0c4.343.967 9.806 6.201 10.872 10.412a57.167 57.167 0 0 1 0 24.553z"/><path d="M42.672 47.876c-.667-.203-1.304-.339-1.894-.584-6.122-2.54-11.756-5.817-16.22-10.84-2.537-2.856-4.524-6.08-6.203-9.494-.796-1.618-1.467-3.3-2.151-4.97-.624-1.524.295-3.098 1.262-4.246.908-1.078 2.076-1.902 3.34-2.51.988-.474 1.962-.201 2.683.636 1.559 1.81 2.99 3.71 4.15 5.808.713 1.29.517 2.867-.775 3.745-.314.213-.6.463-.893.704-.256.212-.498.425-.674.71-.321.524-.336 1.141-.13 1.71 1.594 4.379 4.28 7.784 8.687 9.618.705.293 1.414.635 2.226.54 1.361-.159 1.802-1.651 2.755-2.43.932-.763 2.123-.773 3.127-.138a64.953 64.953 0 0 1 2.945 2.007c.95.677 1.896 1.34 2.772 2.11.842.743 1.132 1.716.658 2.723-.869 1.844-2.132 3.378-3.955 4.357-.515.276-1.13.365-1.71.544-.667-.203.58-.179 0 0zm-9.228-34.873c8.007.225 14.584 5.539 15.994 13.456.24 1.348.325 2.728.432 4.097.045.576-.28 1.123-.902 1.13-.642.008-.931-.53-.973-1.105-.082-1.14-.14-2.284-.296-3.414-.83-5.965-5.586-10.9-11.524-11.96-.893-.158-1.807-.2-2.712-.295-.573-.06-1.322-.095-1.449-.806-.106-.597.397-1.071.965-1.102.154-.008.31-.001.465 0 8.007.224-.155-.001 0 0z"/><path d="M45.142 28.499c-.013.1-.02.335-.079.557-.212.804-1.43.904-1.712.093-.083-.241-.095-.515-.096-.774-.003-1.696-.371-3.39-1.226-4.866a9.055 9.055 0 0 0-3.798-3.563c-.953-.467-1.983-.757-3.027-.93-.457-.075-.918-.12-1.376-.185-.556-.077-.853-.43-.826-.978.024-.514.4-.883.958-.851 1.838.104 3.613.501 5.247 1.367 3.322 1.759 5.22 4.536 5.774 8.245.025.167.065.334.078.503.031.416.051.833.083 1.382-.013.1-.032-.55 0 0z"/><path d="M39.945 27.918c-.67.012-1.028-.358-1.098-.973-.048-.428-.086-.862-.188-1.279-.201-.82-.637-1.58-1.328-2.084a3.466 3.466 0 0 0-1.082-.522c-.491-.142-1.001-.103-1.492-.223-.532-.13-.827-.561-.743-1.061.076-.455.519-.81 1.015-.773 3.105.224 5.324 1.829 5.64 5.484.023.257.05.53-.008.777-.098.422-.41.634-.716.654-.67.012.305-.02 0 0z"/></symbol><symbol viewBox="0 0 78 45" id="vkontakte" xmlns="http://www.w3.org/2000/svg"><title>Group</title><path d="M38.182 44.335h4.665s1.41-.155 2.129-.93c.662-.712.64-2.05.64-2.05s-.09-6.259 2.814-7.18c2.864-.908 6.542 6.049 10.44 8.724 2.947 2.025 5.186 1.58 5.186 1.58l10.422-.144s5.452-.336 2.867-4.623c-.212-.35-1.505-3.17-7.749-8.966-6.534-6.065-5.66-5.084 2.212-15.576 4.795-6.39 6.711-10.29 6.113-11.961-.572-1.592-4.097-1.171-4.097-1.171l-11.735.073s-.87-.119-1.515.267c-.63.378-1.036 1.26-1.036 1.26s-1.857 4.944-4.334 9.15c-5.226 8.872-7.315 9.34-8.169 8.79-1.986-1.285-1.49-5.159-1.49-7.911 0-8.599 1.304-12.184-2.54-13.112C41.729.246 40.791.043 37.529.01c-4.187-.043-7.731.013-9.738.996-1.335.654-2.365 2.11-1.737 2.194.775.104 2.532.474 3.463 1.742 1.203 1.636 1.16 5.31 1.16 5.31s.69 10.122-1.613 11.38c-1.582.862-3.752-.899-8.41-8.949-2.387-4.123-4.19-8.68-4.19-8.68s-.347-.853-.967-1.308c-.752-.552-1.803-.728-1.803-.728l-11.15.073s-1.675.047-2.29.775C-.291 3.462.212 4.8.212 4.8s8.73 20.424 18.615 30.717c9.064 9.436 19.356 8.817 19.356 8.817z"/></symbol><symbol viewBox="0 0 70 70" id="whatsapp" xmlns="http://www.w3.org/2000/svg"><title>Group 11</title><path d="M0 69.976l4.895-17.387A34.797 34.797 0 0 1 .09 34.905C.09 15.658 15.748 0 34.995 0S69.9 15.658 69.9 34.905 54.242 69.81 34.995 69.81a34.86 34.86 0 0 1-17.065-4.45L0 69.976zM18.847 59.01l1.069.652a28.925 28.925 0 0 0 15.079 4.227c15.982 0 28.984-13.002 28.984-28.984 0-15.982-13.002-28.984-28.984-28.984-15.982 0-28.984 13.002-28.984 28.984a28.88 28.88 0 0 0 4.577 15.638l.719 1.12-2.82 10.014 10.36-2.667z"/><path d="M24.842 19.128l-2.265-.124a2.739 2.739 0 0 0-1.947.666c-1.098.954-2.853 2.797-3.392 5.2-.805 3.581.438 7.967 3.655 12.353 3.216 4.386 9.21 11.403 19.81 14.4 3.415.966 6.102.315 8.175-1.01 1.642-1.051 2.774-2.737 3.181-4.642l.362-1.69a1.173 1.173 0 0 0-.656-1.31l-7.655-3.53a1.174 1.174 0 0 0-1.42.35l-3.005 3.895a.86.86 0 0 1-.967.288c-2.058-.723-8.951-3.61-12.734-10.896a.869.869 0 0 1 .11-.97l2.872-3.322c.293-.339.367-.816.191-1.228l-3.3-7.72a1.174 1.174 0 0 0-1.015-.71z"/></symbol><symbol viewBox="0 0 52 37" id="youtube" xmlns="http://www.w3.org/2000/svg"><title>Group 10</title><path d="M41.111 0H10.776C4.825 0 0 4.825 0 10.776v15.165c0 5.951 4.825 10.776 10.776 10.776h30.335c5.952 0 10.777-4.825 10.777-10.776V10.776C51.888 4.825 47.063 0 41.11 0zm-7.288 19.096l-14.188 6.767a.57.57 0 0 1-.815-.514V11.392c0-.425.448-.7.827-.508l14.188 7.19a.57.57 0 0 1-.012 1.022z"/></symbol><symbol viewBox="0 0 60 73" id="youtube2" xmlns="http://www.w3.org/2000/svg"><title>Group 9</title><path d="M37.522 50.074c-.002-.373-.112-.761-.25-1.11-.184-.458-.579-.686-1.075-.734-.58-.057-1.046.177-1.467.55-.169.147-.245.366-.245.366l.008 11.836v.292s.101.136.117.153c.342.37.74.665 1.252.77.842.173 1.436-.178 1.6-.959.042-.195.067-.396.067-.596.004-3.524.01-7.046-.007-10.568zm0 0c-.002-.373-.112-.761-.25-1.11-.184-.458-.579-.686-1.075-.734-.58-.057-1.046.177-1.467.55-.169.147-.245.366-.245.366l.008 11.836v.292s.101.136.117.153c.342.37.74.665 1.252.77.842.173 1.436-.178 1.6-.959.042-.195.067-.396.067-.596.004-3.524.01-7.046-.007-10.568zm13.252-17.849c-14.006-.3-28.02-.3-42.028 0C3.886 32.328 0 36.302 0 41.164V63.04c0 4.864 3.886 8.838 8.746 8.94a978.16 978.16 0 0 0 42.028 0c4.862-.102 8.748-4.076 8.748-8.94V41.164c0-4.862-3.886-8.836-8.748-8.939zM12.86 65.035H8.82V42.199H4.638v-3.82H17.05v3.811h-4.19v22.845zm14.456-9.479v9.48h-3.577V62.87c-.13.138-.202.213-.27.29-.77.868-1.642 1.592-2.756 1.975a3.346 3.346 0 0 1-1.676.152c-.78-.13-1.305-.58-1.62-1.29-.294-.655-.369-1.357-.37-2.063-.01-2.61-.005-16.421-.005-16.555h3.568c.006.12.02 10.035.022 14.87 0 .264.002.533.054.79.132.649.63.928 1.255.7.72-.264 1.267-.76 1.728-1.354.068-.085.068-.239.068-.361V45.357l3.579-.009v10.208zm13.607 7.586c-.478 1.439-1.53 2.171-3.044 2.156-1.23-.011-2.228-.5-3.05-1.393l-.347-.368v1.495H30.9V38.377h3.583v8.774s.202-.404.386-.612c.555-.62 1.23-1.101 2.064-1.311 1.375-.345 2.96.08 3.715 1.688.445.95.57 1.963.57 2.994.007 3.725.007 7.451.002 11.177-.002.698-.074 1.386-.296 2.055zm13.235-.75c-.62 1.818-1.904 2.827-3.785 3.103-1.167.171-2.323.147-3.417-.348-1.498-.676-2.346-1.897-2.71-3.452a10.41 10.41 0 0 1-.261-2.226c-.029-2.919-.016-5.84-.01-8.759.003-1.526.367-2.934 1.413-4.103 1.193-1.335 2.72-1.833 4.463-1.721.524.033 1.06.118 1.557.283 1.695.557 2.6 1.826 2.956 3.51.136.65.186 1.323.197 1.987.029 1.557-.01 4.99-.01 4.99h-6.862v4.918a1.598 1.598 0 1 0 3.195 0v-2.528h3.686s.055 2.984-.412 4.346zm-3.274-12.548a1.599 1.599 0 1 0-3.195 0v2.76h3.195v-2.76zm-13.612-.88c-.184-.458-.579-.686-1.075-.734-.58-.057-1.046.178-1.467.55a.974.974 0 0 0-.245.367l.008 11.835v.292s.101.136.117.153c.342.37.74.665 1.252.77.842.173 1.436-.178 1.6-.958.042-.195.067-.397.067-.597.004-3.524.01-7.046-.007-10.568-.002-.373-.112-.761-.25-1.11zM46.34 7v19.79h-3.668l.005-2.126c-.406.4-.752.773-1.132 1.108-.674.594-1.438 1.036-2.331 1.211-1.371.268-2.54-.165-2.977-1.585A5.227 5.227 0 0 1 36 23.92V7h3.64v15.092c0 .2.015.403.05.599.111.622.57.914 1.17.707.73-.253 1.287-.759 1.76-1.354.066-.085.054-.244.054-.369V7h3.666zm-29.703 3.439A7287.04 7287.04 0 0 1 14.173 0H10s3.206 10.633 4.64 15.375c.051.172.075.358.075.537l-.001 10.874h3.848l-.002-10.874c0-.18.024-.365.075-.537C20.07 10.633 23.275 0 23.275 0h-4.173s-1.668 7.084-2.464 10.439h-.001zM28.25 6A5.25 5.25 0 0 0 23 11.25v10.277a5.25 5.25 0 0 0 10.502 0V11.251A5.251 5.251 0 0 0 28.25 6zm1.516 15.734c0 .836-.68 1.516-1.515 1.516-.835 0-1.515-.68-1.515-1.516v-10.69c0-.836.68-1.516 1.515-1.516.835 0 1.515.68 1.515 1.515v10.691z"/></symbol></svg>